<?xml version="1.0" encoding="UTF-8" standalone="no"?>
<svg
   viewBox="0 0 548.0315 548.03151"
   width="145mm"
   height="145mm"
   version="1.1"
   id="svg65"
   sodipodi:docname="artificer lid.svg"
   inkscape:version="1.4.2 (f4327f4, 2025-05-13)"
   xml:space="preserve"
   xmlns:inkscape="http://www.inkscape.org/namespaces/inkscape"
   xmlns:sodipodi="http://sodipodi.sourceforge.net/DTD/sodipodi-0.dtd"
   xmlns="http://www.w3.org/2000/svg"
   xmlns:svg="http://www.w3.org/2000/svg"><sodipodi:namedview
     id="namedview65"
     pagecolor="#ffffff"
     bordercolor="#666666"
     borderopacity="1.0"
     inkscape:showpageshadow="2"
     inkscape:pageopacity="0.0"
     inkscape:pagecheckerboard="0"
     inkscape:deskcolor="#d1d1d1"
     inkscape:zoom="1.0045043"
     inkscape:cx="251.36776"
     inkscape:cy="315.08078"
     inkscape:window-width="1920"
     inkscape:window-height="1057"
     inkscape:window-x="1912"
     inkscape:window-y="-8"
     inkscape:window-maximized="1"
     inkscape:current-layer="svg65"
     inkscape:document-units="mm" /><desc
     id="desc1">outline.dxf - scale = 1.000000, origin = (0.000000, 0.000000), method = manual</desc><defs
     id="defs4"><marker
       id="DistanceX"
       orient="auto"
       refX="0"
       refY="0"
       style="overflow:visible"><path
         d="M 3,-3 -3,3 M 0,-5 V 5"
         style="stroke:#000000;stroke-width:0.5"
         id="path1" /></marker><pattern
       id="Hatch"
       patternUnits="userSpaceOnUse"
       width="8"
       height="8"
       x="0"
       y="0"><path
         d="M8 4 l-4,4"
         stroke="#000000"
         stroke-width="0.25"
         linecap="square"
         id="path2" /><path
         d="M6 2 l-4,4"
         stroke="#000000"
         stroke-width="0.25"
         linecap="square"
         id="path3" /><path
         d="M4 0 l-4,4"
         stroke="#000000"
         stroke-width="0.25"
         linecap="square"
         id="path4" /></pattern><symbol
       id="*MODEL_SPACE" /><symbol
       id="*PAPER_SPACE" /></defs><path
     id="outline"
     style="display:inline;opacity:1;fill:#000000;fill-opacity:1;stroke:none;stroke-width:1;stroke-linecap:round;stroke-dasharray:none;stroke-opacity:1;paint-order:fill markers stroke"
     inkscape:label="outline"
     d="M -25.984376,-25.984376 V 574.01564 H 574.01564 V -25.984376 Z M 120.47852,0.49414063 h 307.07422 c 17.11102,-1e-6 33.52178,6.79716777 45.6211,18.89648437 l 55.46289,55.460939 v 0.002 c 12.09932,12.09932 18.89648,28.508126 18.89648,45.619146 v 307.07813 c 0,17.11102 -6.79716,33.52177 -18.89648,45.62109 l -55.46289,55.4668 c -12.09933,12.09929 -28.51009,18.89651 -45.6211,18.89649 H 120.47852 v -0.004 c -17.11053,3e-5 -33.519914,-6.79783 -45.619144,-18.89648 h -0.002 L 19.394532,473.16993 C 7.2963196,461.07117 0.49856488,444.66257 0.49804688,427.55274 V 120.47461 C 0.49804588,103.36359 7.2952146,86.952837 19.394532,74.853517 L 74.857423,19.392579 v -0.002 C 86.956743,7.2913084 103.3675,0.49413963 120.47852,0.49414063 Z m 3.31836,15.11914137 c -38.541749,0 -34.693595,26.682564 -33.798831,29.748047 l -4.023438,1.128906 C 76.116352,48.934818 85.067554,43.323749 83.744142,37.335938 62.911534,42.643185 69.590587,49.135594 61.656251,56.833986 L 93.625002,48.126954 110.25,65.021486 c 0,0 -1.65249,-5.563806 -1.53906,-9.697266 0.16354,-5.955339 -4.82702,-14.125031 -12.798829,-11.546875 -3.325833,-9.217416 -0.154229,-15.781343 8.955079,-16.373048 h 58.57031 c 2.7209,0 1.74734,2.258412 5.81446,4.369141 2.50101,1.298066 6.83789,0.980469 6.83789,0.980469 -2.17706,-2.358958 -2.57746,-5.820539 -6.94727,-5.25586 l 3.00586,-2.412109 h -67.84375 c 0,0 2.07219,-3.814453 18.78125,-3.814453 h 25.39063 c 15.98886,0 11.84307,-1.87546 20.08398,-1.421875 5.98412,0.329349 10.31633,6.636638 14.63086,10.951172 3.10963,3.109626 9.92188,3.996094 9.92188,3.996094 -3.91082,-5.16487 -0.99496,-14.250088 -12.02344,-15.326172 l 4.875,-3.857422 z m 234.71094,0 4.875,3.857422 c -11.02848,1.076084 -8.11257,10.161302 -12.02344,15.326172 0,0 6.81226,-0.886468 9.92188,-3.996094 4.31454,-4.314534 8.64673,-10.621947 14.63086,-10.951172 8.24092,-0.453545 4.09512,1.421875 20.08398,1.421875 h 25.39063 c 16.70906,0 18.78125,3.814453 18.78125,3.814453 h -67.84375 l 3.00586,2.412109 c -4.36986,-0.564679 -4.77016,2.896902 -6.94727,5.25586 0,0 4.33689,0.317515 6.83789,-0.980469 4.06712,-2.110729 3.09355,-4.369141 5.81445,-4.369141 h 58.57032 c 9.1094,0.591705 12.28096,7.155632 8.95508,16.373048 -7.9718,-2.578156 -12.96222,5.591536 -12.79883,11.546875 0.1135,4.13346 -1.53907,9.697266 -1.53907,9.697266 l 16.62501,-16.894532 31.96875,8.707032 c -7.93434,-7.698392 -1.25534,-14.190801 -22.0879,-19.498048 -1.32346,5.987811 7.6278,11.59888 -2.23046,9.154297 l -4.02344,-1.128906 c 0.89477,-3.065483 4.74292,-29.748047 -33.79883,-29.748047 z m 93.73438,36.419922 c -0.39482,0.0012 -0.77977,0.158673 -1.06641,0.445313 l -22.29297,22.292969 -0.0371,0.03711 c -0.0176,0.0172 -0.0305,0.03227 -0.0469,0.05273 -0.025,0.0258 -0.0457,0.05141 -0.0703,0.08008 -0.0224,0.02988 -0.0441,0.05904 -0.0645,0.0918 -0.0177,0.02457 -0.0344,0.0516 -0.0508,0.07617 -0.0192,0.03521 -0.0402,0.07056 -0.0566,0.107422 -0.0123,0.02211 -0.0229,0.04379 -0.0352,0.06836 -0.0176,0.04381 -0.0346,0.08777 -0.0469,0.132812 -0.008,0.02047 -0.0135,0.04203 -0.0215,0.0625 l -0.002,0.002 v 0.002 0.002 c -0.0164,0.06224 -0.0291,0.125573 -0.0371,0.189453 -0.009,0.06757 -0.0124,0.135155 -0.0117,0.203125 0,0.03685 9.1e-4,0.07252 0.004,0.109375 0,0.03236 9e-4,0.0649 0.004,0.09766 0.004,0.01229 0.005,0.02483 0.008,0.03711 0.008,0.04955 0.0209,0.09817 0.0332,0.146485 l 0.004,0.02539 8.16015,30.478512 c 0.0688,0.25737 0.20226,0.49329 0.39063,0.68164 0.18833,0.18837 0.42449,0.32378 0.68164,0.39258 l 30.48047,8.16601 0.0234,0.004 c 0.0483,0.0123 0.0969,0.0193 0.14648,0.0273 0.0123,0.004 0.0248,0.005 0.0371,0.008 0.0319,10e-4 0.065,0.005 0.0977,0.006 0.0365,10e-4 0.0725,0.003 0.10937,0.004 0.068,0 0.13593,-0.006 0.20313,-0.0137 0.0639,-0.008 0.12725,-0.0207 0.18945,-0.0371 h 0.002 0.002 l 0.002,-0.002 c 0.0208,-0.004 0.0421,-0.0115 0.0625,-0.0195 0.0451,-0.0136 0.089,-0.0305 0.13281,-0.0469 0.023,-0.008 0.048,-0.0209 0.0684,-0.0332 0.0368,-0.0151 0.0706,-0.0343 0.10742,-0.0547 0.0254,-0.0176 0.0516,-0.0344 0.0762,-0.0508 0.0315,-0.02 0.0631,-0.0398 0.0918,-0.0644 0.0275,-0.023 0.0555,-0.0457 0.0801,-0.0703 0.0172,-0.0136 0.0383,-0.0305 0.0547,-0.0469 l 0.0312,-0.0371 22.29297,-22.292974 c 0.38429,-0.382172 0.53178,-0.938763 0.39257,-1.460938 l -8.16406,-30.472657 v -0.0039 l -0.002,-0.0039 -0.004,-0.01953 c -0.004,-0.02088 -0.0115,-0.04203 -0.0195,-0.0625 -0.0139,-0.04095 -0.0266,-0.08015 -0.043,-0.121093 v -0.0039 c -0.0238,-0.0561 -0.0533,-0.110832 -0.082,-0.164062 -0.0209,-0.0348 -0.0418,-0.07076 -0.0664,-0.103516 -0.0177,-0.02457 -0.0344,-0.04769 -0.0508,-0.07226 -0.0397,-0.052 -0.0826,-0.103711 -0.1289,-0.150391 -0.0467,-0.04627 -0.0959,-0.08796 -0.14844,-0.128906 -0.0237,-0.01761 -0.0496,-0.0344 -0.0742,-0.05078 -0.0332,-0.02376 -0.0647,-0.04594 -0.10156,-0.06641 -0.0532,-0.03031 -0.10756,-0.05746 -0.16406,-0.08203 h -0.006 c -0.0397,-0.01801 -0.0801,-0.02874 -0.1211,-0.04102 -0.0204,-0.0082 -0.0401,-0.01328 -0.0605,-0.02148 l -0.0215,-0.0039 -0.004,-0.002 h -0.004 L 452.63293,52.09431 c -0.13062,-0.03562 -0.26309,-0.0531 -0.39453,-0.05273 z m -360.015636,0.0078 c -0.131854,-4.1e-4 -0.263905,0.01997 -0.394531,0.05273 l -30.470704,8.164063 h -0.0039 l -0.0059,0.002 -0.01953,0.0039 c -0.02089,0.0041 -0.04203,0.01133 -0.0625,0.01953 -0.04095,0.01393 -0.08014,0.02659 -0.121093,0.04297 h -0.0039 c -0.0561,0.02375 -0.110832,0.05336 -0.164062,0.08203 -0.0348,0.0213 -0.07076,0.04184 -0.103516,0.06641 -0.02457,0.01761 -0.04769,0.03441 -0.07226,0.05078 -0.052,0.03972 -0.101758,0.08264 -0.148438,0.128906 -0.04627,0.04668 -0.08797,0.09603 -0.128906,0.148438 -0.01761,0.02376 -0.03441,0.04965 -0.05078,0.07422 -0.02376,0.03317 -0.04789,0.0647 -0.06836,0.101563 -0.03031,0.05282 -0.05551,0.107962 -0.08008,0.164062 v 0.0039 c -0.01392,0.03972 -0.03068,0.08169 -0.04297,0.123046 -0.0082,0.02047 -0.01328,0.04008 -0.02148,0.06055 l -0.0039,0.02149 -0.002,0.0039 v 0.0039 l -8.164063,30.472657 c -0.139348,0.522175 0.01053,1.078889 0.392578,1.460938 l 22.292969,22.292973 0.0332,0.0371 c 0.01719,0.0176 0.03422,0.0285 0.05469,0.0449 0.0258,0.025 0.04946,0.0477 0.07813,0.0723 0.02989,0.0225 0.06099,0.044 0.09375,0.0644 0.02457,0.0176 0.04965,0.0324 0.07422,0.0488 0.03521,0.0192 0.07252,0.0402 0.109375,0.0566 0.02211,0.0123 0.04184,0.0209 0.06641,0.0332 0.04381,0.0175 0.08777,0.0346 0.132812,0.0469 0.02047,0.008 0.04203,0.0115 0.0625,0.0195 l 0.002,0.002 h 0.002 0.002 c 0.06224,0.0206 0.125573,0.033 0.189453,0.041 0.06757,0.009 0.135155,0.0124 0.203125,0.0117 0.03685,0 0.07252,-9.1e-4 0.109375,-0.004 0.03236,0 0.0649,-9.1e-4 0.09766,-0.004 0.01229,-0.004 0.02482,-0.005 0.03711,-0.008 0.04955,-0.004 0.09817,-0.017 0.146484,-0.0293 l 0.02539,-0.004 30.478518,-8.16407 c 0.25731,-0.0688 0.49328,-0.20421 0.68164,-0.39257 0.18837,-0.18833 0.32182,-0.42449 0.39062,-0.68164 l 8.16602,-30.478524 0.004,-0.02539 c 0.0123,-0.04873 0.0213,-0.09693 0.0293,-0.146484 0.004,-0.01229 0.005,-0.02482 0.008,-0.03711 0.001,-0.03194 0.003,-0.0649 0.004,-0.09766 0.005,-0.03644 0.007,-0.07251 0.008,-0.109375 0,-0.06797 -0.004,-0.135965 -0.0117,-0.203125 -0.008,-0.06429 -0.0207,-0.127213 -0.0371,-0.189453 v -0.002 -0.002 l -0.002,-0.002 c -0.004,-0.02088 -0.0115,-0.04203 -0.0195,-0.0625 -0.0136,-0.04505 -0.0305,-0.089 -0.0469,-0.132812 -0.008,-0.02293 -0.0209,-0.04789 -0.0332,-0.06836 -0.0192,-0.03685 -0.0343,-0.07056 -0.0547,-0.107422 -0.0176,-0.02538 -0.0344,-0.0516 -0.0508,-0.07617 -0.02,-0.03153 -0.044,-0.06313 -0.0644,-0.0918 -0.023,-0.02744 -0.0477,-0.05551 -0.0723,-0.08008 -0.0136,-0.0172 -0.0285,-0.03636 -0.0449,-0.05273 l -0.0371,-0.0332 L 93.300783,52.486329 C 93.014144,52.199812 92.62912,52.042217 92.234377,52.041017 Z m -2.136718,3.65625 -2.361329,8.810547 -18.849609,-3.126953 z m 364.292974,0 21.21094,5.683594 -18.84961,3.126953 z M 93.015627,56.48047 108.53906,72.005861 90.652346,65.291017 Z m 358.443363,0 2.36133,8.810547 -17.88672,6.714844 z M 56.833986,61.656251 c -7.698392,7.934336 -14.192754,1.255324 -19.500001,22.087891 5.98781,1.323414 11.600832,-7.62779 9.15625,2.230469 l -1.128906,4.023438 C 42.295846,89.103284 15.611328,85.255123 15.611328,123.79688 v 62.16797 l 3.859376,-4.875 c 1.076084,11.02848 10.161303,8.11262 15.326172,12.02344 0,0 -0.886469,-6.81224 -3.996094,-9.92188 -4.314534,-4.31452 -10.621946,-8.64672 -10.951172,-14.63086 -0.453544,-8.24091 1.421875,-4.09512 1.421875,-20.08398 v -25.39063 c 0,-16.70905 3.8125,-18.78125 3.8125,-18.78125 v 67.84375 l 2.414062,-3.00586 c -0.564679,4.36981 2.896901,4.7702 5.25586,6.94727 0,0 0.317515,-4.33688 -0.980469,-6.83789 -2.110729,-4.06712 -4.369141,-3.09356 -4.369141,-5.81446 v -58.57031 c 0.591705,-9.109397 7.155634,-12.280912 16.373048,-8.955079 -2.578154,7.971799 5.591536,12.962209 11.546875,12.798829 4.133459,-0.11351 9.697266,1.53906 9.697266,1.53906 L 48.126954,93.625002 Z m 430.804694,0 8.70703,31.968751 L 479.45118,110.25 c 0,0 5.56381,-1.65248 9.69727,-1.53906 5.95534,0.16355 14.12502,-4.82703 11.54687,-12.798829 9.21741,-3.325833 15.78134,-0.154237 16.37305,8.955079 v 58.57031 c 0,2.7209 -2.25841,1.74734 -4.36914,5.81446 -1.29807,2.50101 -0.98047,6.83789 -0.98047,6.83789 2.35896,-2.17707 5.82053,-2.57746 5.25586,-6.94727 l 2.41406,3.00586 v -67.84375 c 0,0 3.8125,2.0722 3.8125,18.78125 v 25.39063 c 0,15.98886 1.87543,11.84307 1.42188,20.08398 -0.32939,5.98414 -6.63664,10.31634 -10.95117,14.63086 -3.10963,3.10964 -3.9961,9.92188 -3.9961,9.92188 5.16492,-3.91082 14.25013,-0.99496 15.32617,-12.02344 l 3.85938,4.875 v -62.16797 c 0,-38.541757 -26.68448,-34.693596 -29.75,-33.798831 l -1.12891,-4.023438 c -2.44462,-9.858259 3.1684,-0.907055 9.15625,-2.230469 -5.30729,-20.832567 -11.80156,-14.153555 -19.5,-22.087891 z m -424.070319,1.91211 22.113281,3.669922 -9.220703,9.222656 -9.222656,9.220703 z m 417.335949,0 -3.66993,22.113281 -9.22265,-9.220703 -9.22071,-9.222656 z m -389.843761,5.111328 20.986331,7.876953 -14.234378,17.31836 z m 362.351571,0 -6.75195,25.195313 -14.23438,-17.31836 z m -392.031259,0.199219 3.126953,18.849609 -8.810547,2.361329 z m 421.710949,0 5.68359,21.210938 -8.81055,-2.361329 z m -395.041027,0.273437 6.917969,25.816407 -25.816407,-6.917969 9.449219,-9.449219 z m 368.371097,0 9.44922,9.449219 9.44922,9.449219 -25.8164,6.917969 z m -176.38086,12.90625 -0.0566,0.529297 0.31836,0.03516 0.37109,0.03906 c 0.91911,0.09923 1.65887,0.519419 2.22266,1.259766 0.60296,0.708813 0.87247,1.524345 0.80859,2.447265 l -3.16992,29.378907 c -0.13491,0.91442 -0.57472,1.67081 -1.31836,2.26953 -0.70499,0.56761 -1.51644,0.80235 -2.43554,0.70313 l -0.37305,-0.041 -0.31641,-0.0332 -0.0586,0.52929 4.08398,0.43946 v 0.002 l 7.79493,0.83984 v 0.002 l 15.42968,1.66406 0.15821,0.0176 3.61328,-10.60547 -0.5293,-0.0586 c -0.75642,1.70645 -1.68364,3.16228 -2.7793,4.36719 -1.09184,1.16957 -2.34794,2.03568 -3.76757,2.59766 -1.41582,0.52663 -3.00593,0.69472 -4.77344,0.5039 l -6.94727,-0.75 1.60938,-14.90039 6.99804,0.75586 c 1.30414,0.17656 2.33499,0.73384 3.0918,1.67383 0.75681,0.94 1.06503,2.06509 0.92383,3.37305 l -0.0469,0.42383 0.53125,0.0566 0.53711,-4.98438 0.23047,-2.12109 0.54883,-5.089845 -0.5293,-0.05664 -0.041,0.371094 c -0.14121,1.307955 -0.68314,2.358231 -1.62696,3.150391 -0.93999,0.75681 -2.06713,1.08241 -3.3789,0.97656 l -6.99805,-0.75586 1.66602,-15.429685 9.46289,1.019531 c 1.28497,0.298136 2.28356,0.907478 2.99609,1.826172 0.88295,1.096661 1.2361,2.457877 1.06055,4.083984 l -0.0684,0.636719 0.53125,0.05664 0.65234,-6.044922 0.2461,-2.279297 0.10351,-0.955078 c -0.33341,0.107053 -0.8791,0.192648 -1.63672,0.253906 -0.75761,0.06126 -1.58526,0.09678 -2.48047,0.107422 -0.85985,0.01446 -1.67737,-0.02151 -2.45507,-0.105469 l -8.16602,-0.880859 -7.79492,-0.841797 z m -168.75391,0.191407 -5.68359,21.210938 -6.451174,-6.449219 z m 321.89845,0 12.13476,14.761719 -6.45117,6.449219 z M 65.291017,90.652346 72.005861,108.53906 56.48047,93.013674 Z m 413.890633,0 8.81055,2.361328 -15.52539,15.525386 z m -410.501961,0.408203 25.195313,6.751953 -17.31836,14.234378 z m 407.113291,0 -7.87696,20.986331 -17.31835,-14.234378 z m -242.18946,1.609375 c -0.91849,-0.03535 -1.91292,-0.014 -2.98437,0.06055 -2.10881,0.139056 -4.32325,0.549539 -6.64258,1.232421 -3.85419,1.13479 -6.97044,2.755702 -9.35157,4.865235 -2.39117,2.07542 -3.96875,4.52437 -4.73242,7.34375 -0.77371,2.78526 -0.6697,5.84883 0.31446,9.1914 1.00423,3.41079 2.59211,6.0931 4.76171,8.04883 2.19368,1.91158 4.85788,3.09246 7.99219,3.54102 3.13431,0.44856 6.61519,0.12775 10.44531,-0.96289 2.21702,-0.65276 4.08678,-1.48068 5.60743,-2.48438 1.52065,-1.00369 2.73592,-2.10273 3.64453,-3.29687 0.89856,-1.22825 1.5112,-2.48337 1.83789,-3.76563 l -2.83789,-7.56055 -0.41016,0.1211 c 0.41418,2.91735 0.39068,5.35221 -0.0723,7.30469 -0.42884,1.94243 -1.33466,3.52372 -2.7168,4.74609 -1.34803,1.21232 -3.23264,2.17566 -5.6543,2.88867 -2.2712,0.59458 -4.3797,0.54705 -6.32422,-0.14062 -1.94451,-0.68768 -3.64995,-1.94587 -5.11523,-3.77539 -1.43118,-1.83957 -2.56297,-4.17491 -3.39649,-7.00586 -0.82347,-2.79685 -1.13178,-5.35614 -0.92578,-7.67774 0.24011,-2.33164 1.007,-4.31728 2.30274,-5.958979 1.32984,-1.651746 3.24059,-2.845031 5.73047,-3.578125 2.52398,-0.743137 4.89207,-0.75486 7.10547,-0.03516 2.21339,0.719703 4.20973,2.523294 5.98632,5.410154 l 0.40821,-0.12109 -2.44532,-8.119142 c -0.76552,-0.145252 -1.60885,-0.236133 -2.52734,-0.271484 z m 89.33985,0.230468 -0.33594,1.69336 c -0.2112,1.096309 -0.62782,2.495965 -1.25,4.199219 l -8.03125,21.992189 h -0.002 c -0.26839,0.73474 -0.76116,1.25478 -1.47851,1.56055 -0.70515,0.27236 -1.44085,0.26887 -2.20899,-0.0117 l -0.40039,-0.14649 -0.40234,-0.14648 -0.18164,0.50195 3.70703,1.35352 6.61133,2.41601 3.70703,1.35352 0.18359,-0.5 -0.45117,-0.16602 -0.40039,-0.14648 c -0.73473,-0.26839 -1.28292,-0.73373 -1.64648,-1.39649 -0.35136,-0.69615 -0.41078,-1.41712 -0.17578,-2.16406 l 6.04297,-16.54101 15.59765,28.64648 0.45117,0.16602 0.10547,-0.75586 c 0.1162,-0.52536 0.28301,-1.24156 0.5,-2.14649 0.2626,-0.92612 0.60622,-1.97368 1.03321,-3.14258 l 7.95898,-21.79101 h 0.002 c 0.26839,-0.73474 0.75579,-1.23935 1.46094,-1.51172 0.75075,-0.29357 1.49183,-0.3055 2.22656,-0.0371 l 0.40235,0.14648 0.44922,0.16407 0.18359,-0.5 -3.60742,-1.31836 -6.76172,-2.47071 -3.70703,-1.35351 -0.1836,0.50195 0.40039,0.14649 0.45118,0.16406 c 0.76813,0.28059 1.31094,0.76331 1.6289,1.44726 0.36356,0.66276 0.42836,1.36635 0.19336,2.11329 l -6.01172,16.45703 -15.60937,-28.613285 z m -225.931649,6.251954 6.449219,6.451174 -21.210938,5.68359 z m 350.449229,0 14.76172,12.134764 -21.21094,-5.68359 z m -249.74415,4.875004 -3.43359,1.71875 -6.77344,3.38867 -3.33984,1.66992 0.24023,0.47656 0.28516,-0.14258 0.28711,-0.14453 c 0.76317,-0.38176 1.53331,-0.46829 2.3125,-0.26172 0.77918,0.20657 1.35289,0.67488 1.71875,1.40625 l 11.30859,22.60938 c 0.34995,0.69958 0.38178,1.43955 0.0957,2.21875 -0.30198,0.7474 -0.81745,1.30407 -1.54883,1.66992 l -0.33398,0.16602 -0.28711,0.14453 0.23828,0.47656 3.48242,-1.74219 6.72657,-3.36523 3.33789,-1.66992 -0.23828,-0.47657 -0.33399,0.16797 -0.23828,0.11914 c -0.76317,0.38177 -1.53527,0.46829 -2.31445,0.26172 -0.76329,-0.25427 -1.33505,-0.72258 -1.7168,-1.40625 L 195.875,108.68555 c -0.32687,-0.74142 -0.35794,-1.47531 -0.0898,-2.20117 0.30198,-0.7474 0.83448,-1.3116 1.59766,-1.69336 l 0.28711,-0.14258 0.23828,-0.11914 z m 56.02344,10.0625 c -0.15282,-0.008 -0.30533,-0.008 -0.45703,0.002 -0.20227,0.0126 -0.40303,0.0402 -0.60352,0.084 -0.77125,0.1353 -1.42053,0.5245 -1.94726,1.16602 -0.43458,0.52208 -0.67645,1.14568 -0.72657,1.86914 -0.0194,0.68365 0.10253,1.34882 0.36524,1.99609 0.29797,0.64273 0.71296,1.2156 1.24414,1.72071 0.8053,0.68486 1.27813,1.43176 1.41797,2.23828 0.1751,0.80197 0.0881,1.52955 -0.25781,2.18359 -0.34132,0.68931 -0.87841,1.24275 -1.61329,1.66016 l 0.23438,0.56055 c 1.32749,0.008 2.50106,-0.33975 3.52148,-1.04493 1.02043,-0.70517 1.83142,-1.63567 2.43555,-2.78906 0.60413,-1.15339 0.89437,-2.38995 0.86719,-3.71289 0.004,-1.36275 -0.38203,-2.67673 -1.1543,-3.93945 -0.46631,-0.83612 -1.11168,-1.39768 -1.9375,-1.68555 -0.46708,-0.18176 -0.9302,-0.28448 -1.38867,-0.30859 z m 116.26172,2.89648 c -2.14484,-0.0199 -4.19956,0.42392 -6.16211,1.33398 -2.59646,1.18421 -4.88817,3.20782 -6.875,6.07032 -1.98683,2.86249 -3.09091,5.73156 -3.3125,8.60742 -0.22159,2.87586 0.36283,5.62026 1.75391,8.23047 1.41134,2.58099 3.56811,4.89849 6.46875,6.95508 2.07384,1.43943 4.16963,2.50465 6.28711,3.19531 2.11747,0.69066 4.09123,1.08801 5.92382,1.19141 1.8326,0.10339 3.34043,-0.0415 4.52149,-0.4336 l 4.04492,-5.82617 c 0.78174,-1.18864 1.81441,-1.33736 3.09961,-0.44531 l 0.57031,0.39453 0.27344,-0.39453 -11.25977,-7.81446 -0.27343,0.39454 0.61328,0.42578 c 0.61339,0.42575 0.97909,0.89505 1.09765,1.41015 0.14778,0.53538 0.0188,1.09551 -0.38671,1.67969 l -3.69336,5.22852 c -0.8711,0.69381 -1.83986,1.12364 -2.90821,1.29101 -1.04807,0.13816 -2.10766,0.0733 -3.17773,-0.19336 -1.0498,-0.29585 -2.04187,-0.76725 -2.97656,-1.41601 -1.78176,-1.2367 -2.96578,-2.77371 -3.55274,-4.60938 -0.58696,-1.83567 -0.59531,-3.85221 -0.0215,-6.05078 0.57382,-2.19857 1.704,-4.50924 3.38672,-6.93359 1.78409,-2.57041 3.65333,-4.51936 5.61132,-5.84375 2.00748,-1.33333 4.04807,-1.99557 6.11915,-1.98633 2.07107,0.009 4.12919,0.72341 6.17382,2.14258 1.40204,0.97314 2.5499,2.09587 3.44336,3.36523 0.89347,1.26936 1.42789,2.74381 1.60352,4.42383 0.20484,1.70029 -0.10928,3.64608 -0.93945,5.83984 l 0.35156,0.24414 4.83398,-6.96679 c -0.53402,-0.9766 -1.29813,-2.02708 -2.29297,-3.15039 -0.94535,-1.13225 -2.05276,-2.2468 -3.32421,-3.34571 -1.22198,-1.10784 -2.50599,-2.12795 -3.84961,-3.06054 -3.03775,-2.10847 -6.03696,-3.36872 -8.99805,-3.7793 -0.7352,-0.10995 -1.45888,-0.16721 -2.17383,-0.17383 z m -195.88868,1.40625 c -1.09454,0.20221 -2.3311,0.59923 -3.70898,1.19336 -1.37091,0.54433 -2.77764,1.24875 -4.21875,2.11328 -1.43414,0.81473 -2.80371,1.71419 -4.10937,2.69922 -2.95193,2.22703 -5.08533,4.68452 -6.4004,7.36914 -1.33648,2.65624 -1.83717,5.41641 -1.50195,8.28125 0.31381,2.83646 1.52059,5.64416 3.61914,8.42578 2.09855,2.78163 4.47987,4.72703 7.14258,5.83594 2.66271,1.10891 5.4511,1.41033 8.36523,0.9043 2.89273,-0.53442 5.76715,-1.85771 8.62696,-3.97071 2.01526,-1.52038 3.68241,-3.17887 5,-4.97461 1.31759,-1.79573 2.3117,-3.54728 2.98242,-5.25586 0.67072,-1.70857 1.00548,-3.18524 1.00195,-4.42968 l -4.27343,-5.66211 c -0.88494,-1.11395 -0.70202,-2.14178 0.54687,-3.08399 l 0.55273,-0.41797 -0.28906,-0.38281 -10.9414,8.25391 0.28906,0.38476 0.5957,-0.45117 c 0.59606,-0.44969 1.15723,-0.64985 1.6836,-0.60156 0.55474,0.0269 1.04633,0.3249 1.4746,0.89258 l 3.8125,5.14062 c 0.38696,1.04424 0.49312,2.10081 0.31836,3.16797 -0.19617,1.03878 -0.58819,2.02381 -1.17578,2.95703 -0.60899,0.90484 -1.36906,1.69953 -2.27734,2.38477 -1.73142,1.30624 -3.55917,1.95142 -5.48633,1.93555 -1.92716,-0.0159 -3.84658,-0.63917 -5.75586,-1.8711 -1.90927,-1.23193 -3.75195,-3.02695 -5.5293,-5.38281 -1.88441,-2.49779 -3.15043,-4.88252 -3.79687,-7.15625 -0.63947,-2.32353 -0.63038,-4.46711 0.0254,-6.43164 0.65577,-1.96453 1.97602,-3.69635 3.96289,-5.19531 1.36243,-1.02787 2.78654,-1.7685 4.27149,-2.22071 1.48494,-0.4522 3.05232,-0.49862 4.70312,-0.14062 1.67918,0.33658 3.43123,1.24089 5.25586,2.71484 l 0.3418,-0.25586 z m 226.92188,19.31445 -0.3789,0.375 0.22461,0.22852 0.22461,0.22656 c 0.60013,0.60665 0.92281,1.3124 0.96875,2.11719 0.0459,0.80386 -0.22276,1.49558 -0.80274,2.07031 l -17.97265,17.7793 c -0.5561,0.55012 -1.24861,0.81087 -2.07813,0.78125 -0.80425,-0.0546 -1.49323,-0.37371 -2.06836,-0.95508 l -0.26367,-0.26562 -0.22461,-0.22657 -0.37891,0.375 2.73829,2.76758 5.28906,5.34571 2.625,2.65429 0.3789,-0.375 -0.26171,-0.26562 -0.1875,-0.18946 c -0.60014,-0.60664 -0.92281,-1.31239 -0.96875,-2.11718 0.004,-0.80357 0.27289,-1.49533 0.80273,-2.07032 l 17.9707,-17.77734 c 0.60638,-0.54985 1.29889,-0.8106 2.07813,-0.78125 0.80425,0.0546 1.50729,0.38554 2.10742,0.99219 l 0.22461,0.22656 0.1875,0.18945 0.41797,-0.33593 -2.62696,-2.6543 -5.2871,-5.34766 z m -127.33789,5.45118 c -13.03808,-0.005 -15.02332,0.10423 -20.99023,1.14257 -4.95066,0.8615 -6.64859,1.33836 -6.82227,1.91602 -0.12717,0.42298 -1.34052,6.60005 -2.69727,13.72852 -1.35674,7.12847 -2.64645,13.29557 -2.86523,13.70507 -0.21877,0.4095 -2.30384,1.45815 -4.63281,2.33008 -8.93041,3.3434 -20.38812,9.96726 -28.09375,16.23828 -2.03444,1.65566 -3.99544,3.00977 -4.35742,3.00977 -0.36199,0 -6.65706,-2.05238 -13.98829,-4.56055 -7.33124,-2.50816 -13.38547,-4.56054 -13.45507,-4.56054 -0.0697,0 -1.84095,2.10551 -3.93555,4.67968 -7.20273,8.85189 -12.70213,17.56669 -17.48438,27.70508 -2.91691,6.18384 -6.17306,14.9132 -5.77539,15.48242 0.16006,0.2291 5.11391,4.6045 11.00977,9.72461 9.67197,8.39937 10.69459,9.42982 10.46289,10.54102 -0.14124,0.67736 -0.51577,3.01327 -0.83203,5.19141 l -0.57422,3.96093 h -5.08789 l -5.08789,-0.002 -1.35157,-2.14062 c -4.04535,-6.40332 -12.18767,-10.79831 -20.02929,-10.81251 -15.21076,-0.0276 -26.7337,14.42337 -23.25782,29.16602 2.57751,10.93233 11.85355,18.36433 23.03711,18.45703 8.19726,0.0679 15.86449,-3.91767 19.92188,-10.35547 l 1.67969,-2.66406 5.04101,-0.0234 5.03907,-0.0215 0.87304,5.38086 c 0.73877,4.55385 0.77152,5.45969 0.21094,5.88086 -0.3644,0.27377 -5.33215,4.56113 -11.04102,9.52734 l -10.38086,9.0293 0.64063,1.77148 c 6.05215,16.73452 13.26874,29.60454 23.39844,41.73243 3.02602,3.62293 3.50179,4.00519 4.63672,3.72851 0.69542,-0.16953 6.84509,-2.23808 13.66797,-4.59765 6.82288,-2.35957 12.54711,-4.29135 12.7207,-4.29102 0.17358,3.2e-4 1.90856,1.30322 3.85547,2.89453 7.89766,6.45518 19.25211,13.03711 28.36914,16.44531 2.85383,1.06685 4.6809,2.02919 4.90625,2.58204 0.4298,1.05443 5.18945,25.52542 5.18945,26.68164 0,0.44345 0.37783,1.00351 0.83985,1.24414 0.89124,0.46416 13.59577,2.35317 17.64062,2.62304 5.62708,0.37543 15.27468,0.2943 20.40039,-0.17187 5.01174,-0.4558 16.28962,-2.14435 16.55664,-2.47852 0.0603,-0.0755 1.01391,-4.78066 2.11914,-10.45703 1.10523,-5.67637 2.36586,-12.08965 2.80079,-14.25195 l 0.79101,-3.93164 4.10742,-1.53321 c 9.39678,-3.50533 20.82956,-10.0745 28.99024,-16.6582 3.72254,-3.00321 3.7811,-3.02873 5.52148,-2.47461 0.96728,0.30797 7.01967,2.37084 13.45117,4.58399 6.43151,2.21315 11.94125,4.01767 12.24219,4.01367 1.46924,-0.0236 12.01801,-14.34616 16.96289,-23.03125 4.22635,-7.42306 10.77713,-22.30405 10.67188,-24.24219 -0.0143,-0.26402 -4.94078,-4.73408 -10.94922,-9.93359 l -10.92578,-9.45313 0.67578,-4.22851 c 0.37138,-2.325 0.76936,-4.71851 0.88476,-5.31836 l 0.21094,-1.08985 8.98828,0.13086 8.98829,0.13086 0.13867,4.43945 0.13672,4.44141 h 9.58984 9.58789 l -0.12695,-19.80273 -0.125,-19.80079 -9.48047,-0.13086 -9.48047,-0.1289 v 4.58008 4.58203 l -9.24023,-0.13086 -9.24024,-0.13086 -0.35937,-3.24219 c -0.19695,-1.78331 -0.54448,-4.0767 -0.77344,-5.0957 l -0.41602,-1.85156 10.97461,-9.50586 c 6.03628,-5.22846 10.97461,-9.65783 10.97461,-9.8418 0,-0.18396 -0.88217,-2.68656 -1.96094,-5.56055 -5.05886,-13.47742 -12.1965,-25.83992 -21.64062,-37.48437 -1.88337,-2.32217 -3.48585,-4.29813 -3.56055,-4.39063 -0.0747,-0.0925 -6.16144,1.90477 -13.52539,4.43945 -7.36395,2.5347 -13.69825,4.60938 -14.07617,4.60938 -0.3779,0 -1.874,-0.98332 -3.32422,-2.18555 -8.54198,-7.08124 -18.05613,-12.61336 -29.27734,-17.02148 l -4.56055,-1.79102 -2.88086,-14.20117 c -1.5841,-7.81026 -2.98713,-14.2984 -3.11914,-14.41797 -0.132,-0.11955 -3.04825,-0.71867 -6.48047,-1.33203 -5.60898,-1.00235 -7.6988,-1.11709 -20.64258,-1.12109 z m -143.91602,10.89648 -0.27343,0.32813 c 0.25095,0.25437 0.54328,0.68107 0.87695,1.28125 0.3063,0.57747 0.64211,1.20205 1.00781,1.875 0.33834,0.65024 0.64684,1.25382 0.92578,1.80859 0.25158,0.53207 0.43785,0.89305 0.55664,1.08398 l 11.0918,23.38477 -0.0117,0.0137 c 0.53051,1.08685 0.72375,2.07746 0.58008,2.97461 -0.17104,0.87445 -0.48348,1.58551 -0.9375,2.13281 l -0.13672,0.16407 -0.13477,0.16406 0.41016,0.3418 6.81055,-8.21094 -0.41016,-0.33985 -0.27344,0.32813 c -0.38591,0.46521 -0.92993,0.73157 -1.63086,0.79687 -0.68546,0.0401 -1.26465,-0.34509 -1.73828,-1.15234 l -2.48242,-4.86719 7.19141,-8.67383 5.58594,1.67774 c 0.66787,0.31619 1.03987,0.76894 1.11523,1.35742 0.0653,0.70093 -0.0945,1.28284 -0.48047,1.74805 l -0.27344,0.33008 0.41016,0.33984 10.01172,-12.06836 -0.41016,-0.33984 -0.13672,0.16406 -0.13671,0.16406 c -0.45402,0.54731 -1.09407,0.98483 -1.92188,1.31445 -0.85517,0.30693 -1.87756,0.31474 -3.06641,0.0215 v 0.002 z m 291.08204,3.17188 -1.27734,1.16406 c -0.82126,0.75633 -1.98756,1.63441 -3.5,2.63476 l -19.5293,12.91602 c -0.65243,0.43152 -1.35656,0.55722 -2.11524,0.37695 -0.72901,-0.19988 -1.32034,-0.64018 -1.77148,-1.32226 l -0.23438,-0.35742 -0.23632,-0.35547 -0.44336,0.29492 2.17578,3.29101 3.94336,5.96094 2.11719,3.20313 0.44531,-0.29493 -0.26367,-0.40039 -0.23633,-0.35546 c -0.43153,-0.65243 -0.59549,-1.35247 -0.49414,-2.10157 0.131,-0.76871 0.51172,-1.38452 1.14453,-1.8457 l 14.6875,-9.71484 -4.47461,32.31054 0.26562,0.40039 0.53321,-0.54492 c 0.4056,-0.35353 0.96553,-0.83073 1.67773,-1.42969 0.76148,-0.58891 1.66127,-1.22559 2.69922,-1.9121 l 19.34961,-12.79883 c 0.65243,-0.43153 1.34325,-0.54754 2.07227,-0.34766 0.77828,0.20993 1.38292,0.64054 1.81445,1.29297 l 0.23633,0.35547 0.26367,0.40039 0.44531,-0.29297 -2.11914,-3.20313 h 0.002 l -3.97265,-6.00585 -2.17774,-3.29102 -0.44531,0.29297 0.23633,0.35742 0.26562,0.40039 c 0.45114,0.68208 0.59984,1.3918 0.44922,2.13086 -0.10134,0.7491 -0.46875,1.35523 -1.10156,1.81641 l -14.61133,9.66406 4.44336,-32.28906 z m -283.37891,6.14062 11.55664,3.47266 -6.0586,7.30468 z m -32.31446,17.23633 -0.19531,0.43945 18.41016,25.55078 -31.597659,4.07227 -0.195312,0.43945 29.837891,18.22657 c 0.68388,0.52334 1.13041,1.17699 1.33984,1.95898 0.21605,0.91349 0.12872,1.80853 -0.26172,2.68555 l -0.15039,0.33984 -0.19531,0.43945 0.48633,0.2168 1.71289,-3.84961 1.51953,-3.41015 1.30078,-2.92383 -0.4375,-0.19532 -0.32617,0.73047 c -0.23137,0.51972 -0.64444,0.88024 -1.24023,1.08203 -0.61382,0.15486 -1.18146,0.11809 -1.70118,-0.11328 l -0.14648,-0.0664 h -0.002 l -16.53125,-9.63086 26.60937,-3.16407 0.2168,-0.48632 c -0.81205,-0.36152 -1.56028,-0.86959 -2.24219,-1.52344 -0.66745,-0.68634 -1.20374,-1.31411 -1.61133,-1.88477 l -0.66015,-0.8789 -11.74219,-16.14258 18.3418,5.88672 0.008,0.004 0.14648,0.0645 c 0.51972,0.23137 0.92698,0.62775 1.22266,1.1875 0.2632,0.54529 0.27122,1.09429 0.0254,1.64648 l -0.32422,0.73047 0.4375,0.19531 1.32422,-2.97265 h -0.002 l 3.47265,-7.79493 h -0.002 l 1.71484,-3.84961 -0.48828,-0.21679 -0.17187,0.39062 -0.17383,0.38867 c -0.37598,0.84454 -0.97544,1.49261 -1.79883,1.94336 -0.7874,0.4014 -1.65649,0.5023 -2.60547,0.30469 z m 172.30469,15.3125 c 9.9304,0.47141 19.8563,2.88108 29.05274,7.10156 19.27641,8.84642 34.82194,26.28961 41.58594,46.66211 6.65615,20.04767 4.88852,42.04127 -4.87696,60.69336 -11.2333,21.45561 -30.26837,35.82812 -54.17773,40.91016 -6.30438,1.34002 -20.95607,1.70103 -27.28516,0.67188 -11.49564,-1.86926 -21.68115,-5.80038 -31.45703,-12.13868 -8.6632,-5.61688 -17.64468,-14.84305 -23.49805,-24.14062 -3.69805,-5.87402 -9.65925,-19.96034 -8.93945,-21.125 0.15547,-0.25157 8.98194,-0.43555 20.80273,-0.43555 h 20.53321 l 1.48437,2.29102 c 3.68686,5.68979 9.16972,10.4176 15.7168,13.54882 14.63961,7.00157 32.18551,4.4092 43.875,-6.48046 3.29987,-3.07409 7.25,-8.07063 7.25,-9.17188 0,-0.55996 -3.64694,-0.67015 -22.68164,-0.68555 l -22.68164,-0.0195 -5.28125,-9.1875 c -2.9042,-5.05304 -5.33098,-9.52617 -5.39258,-9.9414 -0.0616,-0.41523 2.32857,-4.9669 5.31055,-10.11524 l 5.42187,-9.36133 22.65235,-0.125 c 17.63927,-0.0971 22.65242,-0.25712 22.65234,-0.7207 -2.1e-4,-1.17257 -5.09983,-7.33349 -8.22656,-9.93945 -4.36888,-3.64124 -7.82771,-5.63208 -12.69727,-7.31055 -10.93295,-3.76843 -22.64596,-2.64574 -33.0332,3.16797 -3.82217,2.13927 -9.94748,7.79012 -12.56445,11.58984 l -1.80274,2.61719 h -20.80273 c -11.44088,0 -20.79893,-0.0531 -20.79493,-0.11914 0.003,-0.066 0.44501,-1.52413 0.98047,-3.24024 9.59978,-30.7671 36.38266,-52.05364 68.97071,-54.8164 3.28456,-0.27847 6.59416,-0.33683 9.90429,-0.17969 z m 166.70899,1.47461 -0.5,0.18555 0.10938,0.29882 0.1289,0.35157 c 0.27023,0.73406 0.2479,1.44221 -0.0684,2.12695 -0.30397,0.71811 -0.83274,1.23491 -1.58789,1.55078 l -23.72851,8.73438 c -0.74511,0.23553 -1.48174,0.18639 -2.21094,-0.15039 -0.68474,-0.31626 -1.16142,-0.84211 -1.43164,-1.57618 l -0.12891,-0.34961 -0.11132,-0.30078 -0.5,0.1836 1.36328,3.70312 2.52343,6.85742 1.60352,4.35547 3.13086,8.50586 v 0.002 l 0.0566,0.15039 9.9082,-1.48829 -0.16601,-0.45117 c -1.62781,0.10668 -3.13927,-0.0381 -4.53516,-0.43359 -1.36252,-0.40775 -2.5521,-1.0671 -3.57031,-1.98047 -0.97257,-0.89229 -1.72379,-2.05547 -2.25195,-3.49023 l -2.17383,-5.90625 11.86328,-4.36719 2.10156,5.70898 c 0.39503,1.17844 0.34721,2.23738 -0.14062,3.17383 -0.47613,0.97092 -1.26414,1.65912 -2.36524,2.06445 l -0.40039,0.14649 0.18359,0.5 4.4043,-1.6211 1.90235,-0.69921 4.30468,-1.58399 -0.18359,-0.50195 -0.35156,0.1289 c -1.1011,0.40534 -2.16408,0.40062 -3.18946,-0.0176 -0.97972,-0.39711 -1.70079,-1.17453 -2.16406,-2.33008 l -2.09961,-5.70703 12.16211,-4.47657 2.65235,7.20899 c 0.50707,1.48041 0.48525,2.75753 -0.0664,3.83203 -0.53938,1.10787 -1.54359,1.93221 -3.01172,2.47266 l -0.45117,0.16601 0.18555,0.5 5.30468,-1.95312 1.45117,-0.53516 0.28321,-0.10352 0.16797,-0.0625 0.75,-0.27539 c -0.28086,-0.35126 -0.7173,-1.02354 -1.31055,-2.01757 -0.55734,-1.00174 -1.01364,-1.98387 -1.36914,-2.94727 l -2.62109,-7.12109 h -0.002 l -2.48633,-6.75782 z m 11.57032,34.20117 -0.52735,0.084 0.0508,0.3164 0.0586,0.36914 c 0.12382,0.77236 -0.0344,1.46319 -0.47657,2.07422 -0.43363,0.64181 -1.04776,1.04623 -1.84179,1.21289 l -24.97657,4.00391 c -0.77798,0.0887 -1.49276,-0.10255 -2.14453,-0.57422 -0.61103,-0.44219 -0.97969,-1.04795 -1.10351,-1.82031 l -0.0586,-0.36914 -0.0508,-0.31641 -0.52734,0.084 0.5664,3.5293 1.21485,7.58203 h 0.002 l 0.73242,4.58203 1.46094,9.11133 10.01172,0.44727 -0.0762,-0.47461 c -1.61789,-0.20876 -3.07357,-0.64198 -4.36719,-1.29883 -1.25851,-0.66247 -2.29976,-1.53852 -3.12305,-2.63086 -0.78255,-1.06286 -1.2951,-2.34976 -1.53711,-3.85937 l -0.99609,-6.21485 12.48047,-2 0.96289,6.00391 c 0.16188,1.23438 -0.0883,2.26388 -0.74805,3.08984 -0.65417,0.86107 -1.56021,1.38459 -2.71875,1.57032 l -0.41992,0.0684 0.084,0.5254 4.52929,-0.72657 2.10547,-0.33593 v -0.002 l 4.5293,-0.72461 -0.084,-0.52734 -0.36914,0.0605 c -1.15854,0.18572 -2.20129,-0.027 -3.12695,-0.63477 -0.88492,-0.57833 -1.44369,-1.47804 -1.67578,-2.70117 l -0.96094,-6.00391 12.79688,-2.05078 1.21484,7.58984 c 0.21047,1.54657 -0.0578,2.79373 -0.80469,3.74024 -0.7426,0.98328 -1.88496,1.60002 -3.42968,1.84766 l -0.47461,0.0742 0.084,0.52735 5.58203,-0.89453 1.71289,-0.27344 1.07813,-0.17383 c -0.20797,-0.39877 -0.5077,-1.14276 -0.89844,-2.23242 -0.35564,-1.09529 -0.61413,-2.15181 -0.77734,-3.16992 l -1.18164,-7.37305 -1.15821,-7.21484 h 0.002 z m -318.40235,29.9336 c 4.46651,0.0864 8.88627,2.43094 11.12695,6.99414 3.24826,6.61518 0.69823,14.16465 -5.82813,17.25 -1.75638,0.83034 -3.23818,1.13476 -5.52148,1.13476 -9.91156,0 -15.90982,-10.09585 -11.18164,-18.82031 2.42413,-4.47301 6.93778,-6.64496 11.4043,-6.55859 z m 291.41406,5.125 -0.17968,3.46093 -0.37891,7.34961 h -0.002 l -0.19727,3.83594 0.53125,0.0273 0.0176,-0.32031 0.0117,-0.21289 c 0.0368,-0.71016 0.31939,-1.37098 0.84961,-1.98437 0.52798,-0.57746 1.23823,-0.84431 2.125,-0.79883 l 26.41015,1.36914 c -0.0459,0.27936 -0.0815,0.66777 -0.10742,1.16797 0.006,0.56996 -0.0252,1.19242 -0.0957,1.86523 -0.0239,0.46161 -0.14081,0.98955 -0.34961,1.58399 -0.17513,0.63178 -0.49186,1.23874 -0.94922,1.82031 -0.42185,0.58341 -1.04981,1.04819 -1.88672,1.39648 -0.80324,0.38564 -1.86417,0.58101 -3.18164,0.58399 -0.49895,0.01 -0.94317,-0.0318 -1.33008,-0.12305 -0.38875,-0.0557 -0.68711,-0.12498 -0.89648,-0.20703 -1.47662,-0.3613 -2.58993,-0.86372 -3.33984,-1.50781 -0.71441,-0.64226 -1.19401,-1.34314 -1.43946,-2.10352 -0.21177,-0.72303 -0.29838,-1.45746 -0.25976,-2.20312 l 0.0488,-0.95899 0.0195,-0.37305 -0.47852,-0.0234 c -0.0258,0.49711 -0.32077,1.01414 -0.88281,1.55468 -0.52838,0.57789 -1.37109,1.0699 -2.53125,1.47266 -0.43162,0.0845 -0.97494,0.23377 -1.62696,0.44922 -0.65385,0.25096 -1.32649,0.53728 -2.01953,0.85742 l -2.07812,0.95899 c -0.65754,0.32197 -1.22693,0.63207 -1.70508,0.92773 -1.35609,0.74864 -2.44847,1.58174 -3.2793,2.5 -0.79716,0.95561 -1.3725,2.08178 -1.72461,3.38086 -0.35394,1.33459 -0.58038,2.96148 -0.67968,4.87891 l -0.23243,4.47461 0.53321,0.0273 c 0.0386,-0.74567 0.1794,-1.39798 0.42187,-1.95508 0.24247,-0.55709 0.6257,-1.08883 1.15039,-1.5957 0.56021,-0.50504 1.33849,-1.08754 2.33399,-1.74805 0.88345,-0.5595 1.73041,-1.10319 2.54101,-1.63086 0.84427,-0.49032 1.5772,-0.89688 2.19922,-1.2207 0.65753,-0.32198 1.13241,-0.54651 1.42383,-0.67383 0.84427,-0.49032 1.75175,-1.19066 2.72461,-2.10156 0.97102,-0.8754 1.64468,-1.82081 2.01758,-2.83399 0.19395,1.75461 0.70653,3.18762 1.53906,4.29883 0.83069,1.14672 1.83605,2.00091 3.01758,2.56055 1.21519,0.59698 2.44472,0.92587 3.6875,0.99023 1.66887,0.0864 3.07134,-0.17728 4.20703,-0.79492 1.16936,-0.5803 2.10268,-1.40501 2.79883,-2.47265 0.73166,-1.06581 1.27507,-2.2842 1.63086,-3.6543 0.39129,-1.36826 0.62382,-2.7805 0.69922,-4.23633 l 0.29882,-5.75195 0.35157,-6.81836 0.19922,-3.83399 -0.53321,-0.0273 -0.0137,0.26562 -0.0215,0.42579 c -0.0386,0.74566 -0.33824,1.37191 -0.89844,1.87695 -0.42123,0.4339 -0.93487,0.69295 -1.54297,0.77539 l -26.22656,-1.35938 c -0.58497,-0.14422 -1.09248,-0.45555 -1.52344,-0.93359 -0.50504,-0.5602 -0.73772,-1.23054 -0.69727,-2.01172 l 0.0195,-0.37305 0.0137,-0.26562 z m -2.46289,34.68945 -1.02343,3.8125 -1.89649,7.05469 h 0.002 l -1.20507,4.48242 -2.39454,8.91016 8.95313,4.5039 0.12305,-0.46484 c -1.39096,-0.85228 -2.54137,-1.84218 -3.45313,-2.9707 -0.87742,-1.11931 -1.46899,-2.34615 -1.77344,-3.67969 -0.27933,-1.28998 -0.22088,-2.6719 0.17579,-4.14844 l 1.63281,-6.08008 12.20898,3.28125 -1.58008,5.87891 c -0.35769,1.18843 -1.00549,2.02506 -1.94336,2.50781 -0.94915,0.51816 -1.99184,0.62473 -3.125,0.32031 l -0.4121,-0.11132 -0.13868,0.51562 4.53321,1.2168 1.95703,0.52734 v -0.002 l 4.42969,1.1914 0.13867,-0.51562 -0.35938,-0.0957 c -1.13315,-0.30442 -1.99964,-0.92416 -2.5957,-1.85743 -0.57094,-0.8897 -0.7104,-1.93933 -0.42188,-3.15039 h -0.002 l 1.57813,-5.87304 12.51757,3.36328 -1.99218,7.41601 h -0.002 c -0.44022,1.50165 -1.195,2.53264 -2.26562,3.0918 -1.07985,0.5935 -2.37585,0.68714 -3.88672,0.28125 l -0.46289,-0.125 -0.13867,0.51563 5.46094,1.46679 1.95703,0.52539 0.77148,0.20899 c -0.0267,-0.44896 0.005,-1.25209 0.0937,-2.40625 0.12343,-1.14427 0.32062,-2.21368 0.58789,-3.20899 v -0.002 l 1.96485,-7.31445 h -0.002 l 1.9668,-7.3125 0.92578,-3.45118 -0.51367,-0.13867 -0.084,0.3086 -0.0976,0.36132 c -0.20295,0.75544 -0.62976,1.32057 -1.28321,1.69727 -0.66266,0.41104 -1.39435,0.52744 -2.19335,0.34961 l -24.41407,-6.55859 c -0.74621,-0.23729 -1.32084,-0.70339 -1.72265,-1.4004 -0.3767,-0.65344 -0.46271,-1.35784 -0.25977,-2.11328 l 0.0957,-0.36132 0.084,-0.3086 z m -7.63281,28.99609 -1.80273,3.39063 -3.53125,6.64062 -3.13086,5.88672 c -1.78618,3.35908 -2.75689,6.54622 -2.91211,9.56446 -0.15522,3.01823 0.47756,5.73115 1.89648,8.13672 1.41893,2.40556 3.60373,4.39177 6.55469,5.96093 2.95096,1.56917 5.81965,2.27024 8.60742,2.10157 2.81916,-0.15199 5.42055,-1.1455 7.80469,-2.97852 2.41553,-1.81632 4.51656,-4.40264 6.30273,-7.76172 l 5.85938,-11.01953 0.82617,-1.55469 1.7793,-3.3418 -0.47071,-0.25195 -0.15039,0.2832 -0.15039,0.28321 c -0.38394,0.72204 -0.9456,1.20904 -1.68359,1.46094 -0.75468,0.28328 -1.5015,0.24903 -2.24024,-0.10352 l -22.27343,-11.8457 c -0.69065,-0.36725 -1.14478,-0.95118 -1.36328,-1.75196 -0.2352,-0.76938 -0.16129,-1.51428 0.22265,-2.23632 l 0.17578,-0.33008 0.15039,-0.28125 z m -3.45117,11.03321 24.5332,13.04492 -0.5,0.94141 -1.77734,3.34375 -0.55078,1.03515 c -1.56917,2.95096 -3.903,4.69009 -7.00196,5.2168 -3.06756,0.5434 -6.51768,-0.20171 -10.34765,-2.23828 -3.82998,-2.03657 -6.37593,-4.47911 -7.64063,-7.32617 -1.2647,-2.84707 -1.11213,-5.74631 0.45703,-8.69727 l 0.55078,-1.03516 1.70118,-3.20312 z m -380.421884,9.99023 c -5.164869,3.91087 -14.250088,0.99495 -15.326172,12.02344 l -3.859376,-4.875 v 62.16797 c 0,38.54175 26.684518,34.6936 29.750001,33.79883 l 1.128906,4.02344 c 2.444582,9.85826 -3.16844,0.907 -9.15625,2.23046 5.307247,20.83256 11.801609,14.15356 19.500001,22.0879 l -8.707032,-31.96875 16.894532,-16.62501 c 0,0 -5.563807,1.65249 -9.697266,1.53907 -5.955339,-0.16352 -14.125029,4.82703 -11.546875,12.79883 -9.217414,3.32588 -15.781343,0.15428 -16.373048,-8.95508 v -58.57032 c 0,-2.72091 2.258412,-1.74733 4.369141,-5.81445 1.298065,-2.50101 0.980469,-6.83789 0.980469,-6.83789 -2.358959,2.17711 -5.820539,2.57741 -5.25586,6.94727 l -2.414062,-3.00586 v 67.84375 c 0,0 -3.8125,-2.07219 -3.8125,-18.78125 V 395.9961 c 0,-15.98886 -1.875461,-11.84306 -1.421875,-20.08398 0.329348,-5.98413 6.636638,-10.31632 10.951172,-14.63086 3.109625,-3.10962 3.996094,-9.92188 3.996094,-9.92188 z m 474.878914,0 c 0,0 0.88647,6.81226 3.9961,9.92188 4.31453,4.31454 10.62194,8.64868 10.95117,14.63281 0.45355,8.24092 -1.42188,4.09317 -1.42188,20.08203 v 25.39258 c 0,16.70906 -3.8125,18.7793 -3.8125,18.7793 v -67.84375 l -2.41406,3.00586 c 0.56467,-4.36985 -2.8969,-4.77016 -5.25586,-6.94727 0,0 -0.31751,4.33689 0.98047,6.83789 2.11073,4.06713 4.36914,3.09356 4.36914,5.81445 v 58.57032 c -0.59171,9.1094 -7.15564,12.28096 -16.37305,8.95508 2.57815,-7.9718 -5.59153,-12.96222 -11.54687,-12.79883 -4.13346,0.1135 -9.69727,-1.53907 -9.69727,-1.53907 l 16.89453,16.62501 -8.70703,31.96875 c 7.69844,-7.93434 14.19271,-1.25534 19.5,-22.0879 -5.98785,-1.32346 -11.60087,7.6278 -9.15625,-2.23046 l 1.12891,-4.02344 c 3.06552,0.89477 29.75,4.74292 29.75,-33.79883 v -62.16797 l -3.85938,4.875 c -1.07604,-11.02849 -10.16125,-8.11257 -15.32617,-12.02344 z m -111.73633,15.86914 c -0.12777,0.004 -0.25764,0.0134 -0.38867,0.0293 -1.04826,0.1272 -1.9007,0.60961 -2.55859,1.44922 -0.67983,0.8676 -0.95728,1.82674 -0.83008,2.875 0.1272,1.04826 0.61156,1.9007 1.45117,2.55859 0.8676,0.67983 1.82479,0.95533 2.87305,0.82813 1.04825,-0.1272 1.91197,-0.62459 2.59179,-1.49219 0.6579,-0.83961 0.92408,-1.78182 0.79688,-2.83008 -0.1272,-1.04825 -0.62459,-1.91392 -1.49219,-2.59375 -0.73466,-0.57566 -1.54895,-0.84965 -2.44336,-0.82422 z m 6.84375,7.66016 -1.51367,1.93164 6.08008,7.20313 12.93359,11.42187 5.06641,-6.46484 -14.15235,-9.86914 z m 63.8125,53.50195 c -0.0369,0 -0.0725,9.1e-4 -0.10937,0.004 -0.0324,0 -0.065,9.1e-4 -0.0977,0.004 -0.0123,0.004 -0.0248,0.005 -0.0371,0.008 -0.0495,0.008 -0.0982,0.0209 -0.14648,0.0332 l -0.0234,0.004 -30.48047,8.16601 c -0.25731,0.0684 -0.49327,0.20422 -0.68164,0.39258 -0.18835,0.18832 -0.32183,0.42448 -0.39063,0.68164 l -8.16601,30.47852 -0.004,0.0254 c -0.0163,0.0487 -0.0252,0.097 -0.0332,0.14648 -0.004,0.0123 -0.005,0.0248 -0.008,0.0371 -10e-4,0.0319 -0.003,0.065 -0.004,0.0977 -10e-4,0.0369 -0.003,0.0725 -0.004,0.10937 0,0.068 0.004,0.13593 0.0117,0.20313 0.008,0.0643 0.0207,0.12725 0.0371,0.18945 v 0.002 0.002 l 0.002,0.002 c 0.004,0.0208 0.0115,0.0421 0.0195,0.0625 0.0136,0.0451 0.0305,0.089 0.0469,0.13281 0.0123,0.023 0.0248,0.048 0.0371,0.0684 0.0192,0.0368 0.0362,0.0705 0.0566,0.10743 0.0176,0.0254 0.0324,0.0516 0.0488,0.0762 0.0201,0.0315 0.044,0.0631 0.0644,0.0918 0.023,0.0275 0.0477,0.0555 0.0723,0.0801 0.0136,0.0172 0.0285,0.0383 0.0449,0.0547 l 0.0371,0.0352 22.29297,22.29297 c 0.28664,0.28652 0.67167,0.44431 1.06641,0.44531 0.13185,4e-4 0.2639,-0.0158 0.39453,-0.0527 l 30.47265,-8.16406 h 0.004 l 0.004,-0.002 0.0215,-0.004 c 0.0208,-0.004 0.0401,-0.0115 0.0605,-0.0195 0.041,-0.0139 0.082,-0.0266 0.12304,-0.043 h 0.004 c 0.0561,-0.0238 0.11076,-0.0533 0.16406,-0.082 0.0352,-0.0209 0.0689,-0.0418 0.10157,-0.0664 0.025,-0.0176 0.0496,-0.0344 0.0742,-0.0508 0.0519,-0.0397 0.10174,-0.0826 0.14844,-0.1289 0.0462,-0.0467 0.0879,-0.0959 0.12891,-0.14844 0.0176,-0.0238 0.0344,-0.0496 0.0508,-0.0742 0.0238,-0.0332 0.046,-0.0648 0.0664,-0.10156 0.0304,-0.0528 0.0574,-0.10756 0.082,-0.16406 v -0.004 c 0.018,-0.0397 0.0307,-0.0817 0.043,-0.12305 0.008,-0.0204 0.0115,-0.0401 0.0195,-0.0605 l 0.004,-0.0215 0.002,-0.004 v -0.004 l 8.16406,-30.47266 c 0.13938,-0.52218 -0.0105,-1.0789 -0.39258,-1.46094 l -22.29102,-22.29297 -0.0371,-0.0371 c -0.0173,-0.0176 -0.0383,-0.0285 -0.0547,-0.0449 -0.0258,-0.025 -0.0514,-0.0477 -0.0801,-0.0723 -0.03,-0.0224 -0.0591,-0.0441 -0.0918,-0.0645 -0.0246,-0.0176 -0.0516,-0.0324 -0.0762,-0.0488 -0.0352,-0.0192 -0.0705,-0.0402 -0.10742,-0.0566 -0.0222,-0.0122 -0.0438,-0.0248 -0.0684,-0.0371 -0.0439,-0.0176 -0.0878,-0.0346 -0.13281,-0.0469 -0.0204,-0.008 -0.0421,-0.0115 -0.0625,-0.0195 l -0.002,-0.002 h -0.002 -0.002 c -0.0622,-0.0165 -0.12556,-0.0291 -0.18946,-0.0371 -0.0676,-0.009 -0.13512,-0.0124 -0.20312,-0.0117 z m -392.710943,0.01 v 0.006 c -0.06797,0 -0.135965,0.006 -0.203125,0.0137 -0.06429,0.008 -0.129166,0.0207 -0.191406,0.0371 h -0.002 -0.002 l -0.002,0.002 c -0.02089,0.004 -0.04008,0.0115 -0.06055,0.0195 -0.04505,0.0136 -0.09096,0.0305 -0.134766,0.0469 -0.02253,0.0122 -0.04594,0.0248 -0.06641,0.0371 -0.03685,0.0192 -0.07251,0.0343 -0.109375,0.0547 -0.02538,0.0176 -0.04965,0.0344 -0.07422,0.0508 -0.03153,0.02 -0.06509,0.0441 -0.09375,0.0645 -0.02744,0.023 -0.05356,0.0477 -0.07813,0.0723 -0.0172,0.0136 -0.03831,0.0285 -0.05469,0.0449 l -0.0332,0.0371 -22.292969,22.29297 c -0.384086,0.38218 -0.529851,0.93875 -0.390625,1.46093 l 8.164063,30.47266 c -4.1e-5,0.001 -4.1e-5,0.003 0,0.004 l 0.002,0.004 0.0039,0.0215 c 0.0082,0.0208 0.01133,0.0401 0.01953,0.0605 0.01392,0.0409 0.02659,0.0801 0.04297,0.1211 v 0.004 c 0.02374,0.0561 0.05337,0.11272 0.08203,0.16602 0.02089,0.0352 0.04184,0.0689 0.06641,0.10156 0.01761,0.025 0.0344,0.0496 0.05078,0.0742 0.03972,0.0519 0.08264,0.10174 0.128906,0.14844 0.04668,0.0462 0.09603,0.0879 0.148438,0.12891 0.02376,0.0176 0.04965,0.0344 0.07422,0.0508 0.03317,0.0238 0.0647,0.046 0.101563,0.0664 0.05282,0.0303 0.107552,0.0574 0.164062,0.082 h 0.0039 c 0.03972,0.0139 0.0821,0.0307 0.123047,0.043 0.02047,0.008 0.04008,0.0115 0.06055,0.0195 l 0.02148,0.004 0.0039,0.002 h 0.0039 l 30.470704,8.16407 c 0.130626,0.0357 0.263086,0.0531 0.394531,0.0527 0.394824,-9.8e-4 0.781721,-0.15867 1.06836,-0.44531 l 22.292965,-22.29297 0.0352,-0.0371 c 0.0176,-0.0172 0.0305,-0.0363 0.0469,-0.0527 0.025,-0.0258 0.0477,-0.0514 0.0723,-0.0801 0.0224,-0.0299 0.0441,-0.0591 0.0645,-0.0918 0.0177,-0.0246 0.0324,-0.0516 0.0488,-0.0762 0.0192,-0.0352 0.0402,-0.0705 0.0566,-0.10742 0.0123,-0.0222 0.0209,-0.0438 0.0332,-0.0684 0.0176,-0.0438 0.0346,-0.0878 0.0469,-0.13282 0.008,-0.0204 0.0115,-0.0421 0.0195,-0.0625 l 0.002,-0.002 v -0.002 -0.002 c 0.0206,-0.0622 0.033,-0.12565 0.041,-0.18945 0.009,-0.0676 0.0124,-0.13512 0.0117,-0.20312 0,-0.0369 -9.1e-4,-0.0725 -0.004,-0.10938 0,-0.0325 -9e-4,-0.0649 -0.004,-0.0976 -0.004,-0.0123 -0.005,-0.0248 -0.008,-0.0371 -0.004,-0.0495 -0.017,-0.0982 -0.0293,-0.14649 l -0.004,-0.0254 -8.16602,-30.47852 c -0.0688,-0.25737 -0.20227,-0.49133 -0.39062,-0.67968 -0.18833,-0.18837 -0.42449,-0.32378 -0.68164,-0.39258 l -30.480469,-8.16602 -0.02344,-0.004 c -0.04832,-0.0163 -0.09694,-0.0252 -0.146484,-0.0332 -0.01229,-0.004 -0.02482,-0.005 -0.03711,-0.008 -0.03194,-0.001 -0.0649,-0.003 -0.09766,-0.004 -0.03644,-10e-4 -0.07251,-0.003 -0.109375,-0.004 z m 0.671875,4.02539 17.31836,14.23438 -25.195313,6.75195 z m 391.359378,0 7.87696,20.98633 -25.19531,-6.75195 z m -385.666018,0.75977 21.210938,5.68359 -6.449219,6.45117 z m 379.972668,0 -14.76172,12.13476 -6.44922,-6.45117 z m -390.216809,2.74804 -6.714844,17.88672 -8.810547,-2.36328 z m 400.460949,0 15.52539,15.52344 -8.81055,2.36328 z m -366.86329,5.07813 5.68359,21.20898 -12.134764,-14.75976 z m 333.26563,0 6.45117,6.44922 -12.13476,14.75976 z m -343.900398,8.49219 -6.917969,25.8164 -9.449219,-9.44922 -9.449219,-9.44922 z m 354.535168,0 25.8164,6.91796 -9.44922,9.44922 -9.44922,9.44922 z m -351.691418,1.09375 14.234378,17.31835 -20.986331,7.87696 z m 348.847668,0 6.75195,25.19531 -20.98633,-7.87696 z m -390.962903,3.78515 8.810547,2.36133 -3.126953,18.84961 z m 433.078133,0 -5.68359,21.21094 -3.12696,-18.84961 z m -421.537117,4.4082 9.222656,9.22071 9.220703,9.22265 -22.113281,3.66993 z m 409.996097,0 3.66993,22.11329 -22.11329,-3.66993 9.22071,-9.22265 z m -368.69532,13.67579 -15.523433,15.52539 -2.363281,-8.81055 z m 327.39454,0 17.88672,6.71484 -2.36133,8.81055 z M 110.25,479.45118 93.625002,496.34571 61.656251,487.63868 c 7.934336,7.69844 1.255283,14.19271 22.087891,19.5 1.323412,-5.98785 -7.62779,-11.60083 2.230469,-9.15625 l 4.023438,1.12891 c -0.894764,3.06552 -4.742918,29.74805 33.798831,29.74805 h 62.16797 l -4.875,-3.85743 c 11.02848,-1.07604 8.11262,-10.16125 12.02344,-15.32617 0,0 -6.81225,0.88647 -9.92188,3.9961 -4.31453,4.31453 -8.64674,10.62195 -14.63086,10.95117 -8.24091,0.45355 -4.09512,-1.42188 -20.08398,-1.42188 h -25.39063 c -16.70906,0 -18.78125,-3.81445 -18.78125,-3.81445 h 67.84375 l -3.00586,-2.41211 c 4.36981,0.56467 4.77021,-2.8969 6.94727,-5.25586 0,0 -4.33688,-0.31752 -6.83789,0.98047 -4.06712,2.11073 -3.09356,4.36914 -5.81446,4.36914 h -58.57031 c -9.109389,-0.59172 -12.280912,-7.15564 -8.955079,-16.37305 7.971809,2.57815 12.962209,-5.59153 12.798829,-11.54687 -0.11352,-4.13346 1.53906,-9.69727 1.53906,-9.69727 z m 323.97266,0 c 0,0 1.65249,5.56381 1.53907,9.69727 -0.16351,5.95534 4.82703,14.12502 12.79883,11.54687 3.32588,9.21741 0.15428,15.78133 -8.95508,16.37305 h -58.57032 c -2.7209,0 -1.74733,-2.25841 -5.81445,-4.36914 -2.501,-1.29807 -6.83789,-0.98047 -6.83789,-0.98047 2.17711,2.35896 2.57741,5.82053 6.94727,5.25586 l -3.00586,2.41211 h 67.84375 c 0,0 -2.07219,3.81445 -18.78125,3.81445 H 395.9961 c -15.98886,0 -11.84306,1.87543 -20.08398,1.42188 -5.98413,-0.32938 -10.31632,-6.63664 -14.63086,-10.95117 -3.10962,-3.10963 -9.92188,-3.9961 -9.92188,-3.9961 3.91087,5.16492 0.99496,14.25013 12.02344,15.32617 l -4.875,3.85743 h 62.16797 c 38.54175,0 34.6936,-26.68253 33.79883,-29.74805 l 4.02344,-1.12891 c 9.85826,-2.44458 0.907,3.1684 2.23046,9.15625 20.83256,-5.30729 14.15356,-11.80156 22.0879,-19.5 l -31.96875,8.70703 z m -346.494143,0.51367 2.361329,8.81055 -21.210938,-5.68359 z m 369.015633,0 18.84961,3.12696 -21.21094,5.68359 z" /></svg>
