<?xml version="1.0" encoding="UTF-8" standalone="no"?>
<svg
   viewBox="0 0 548.0315 548.03151"
   width="145mm"
   height="145mm"
   version="1.1"
   id="svg65"
   sodipodi:docname="bard lid.svg"
   inkscape:version="1.4.2 (f4327f4, 2025-05-13)"
   xml:space="preserve"
   xmlns:inkscape="http://www.inkscape.org/namespaces/inkscape"
   xmlns:sodipodi="http://sodipodi.sourceforge.net/DTD/sodipodi-0.dtd"
   xmlns="http://www.w3.org/2000/svg"
   xmlns:svg="http://www.w3.org/2000/svg"><sodipodi:namedview
     id="namedview65"
     pagecolor="#ffffff"
     bordercolor="#666666"
     borderopacity="1.0"
     inkscape:showpageshadow="2"
     inkscape:pageopacity="0.0"
     inkscape:pagecheckerboard="0"
     inkscape:deskcolor="#d1d1d1"
     inkscape:zoom="1.4205836"
     inkscape:cx="370.62233"
     inkscape:cy="236.17054"
     inkscape:window-width="1920"
     inkscape:window-height="1057"
     inkscape:window-x="1912"
     inkscape:window-y="-8"
     inkscape:window-maximized="1"
     inkscape:current-layer="svg65"
     inkscape:document-units="mm" /><desc
     id="desc1">outline.dxf - scale = 1.000000, origin = (0.000000, 0.000000), method = manual</desc><defs
     id="defs4"><marker
       id="DistanceX"
       orient="auto"
       refX="0"
       refY="0"
       style="overflow:visible"><path
         d="M 3,-3 -3,3 M 0,-5 V 5"
         style="stroke:#000000;stroke-width:0.5"
         id="path1" /></marker><pattern
       id="Hatch"
       patternUnits="userSpaceOnUse"
       width="8"
       height="8"
       x="0"
       y="0"><path
         d="M8 4 l-4,4"
         stroke="#000000"
         stroke-width="0.25"
         linecap="square"
         id="path2" /><path
         d="M6 2 l-4,4"
         stroke="#000000"
         stroke-width="0.25"
         linecap="square"
         id="path3" /><path
         d="M4 0 l-4,4"
         stroke="#000000"
         stroke-width="0.25"
         linecap="square"
         id="path4" /></pattern><symbol
       id="*MODEL_SPACE" /><symbol
       id="*PAPER_SPACE" /></defs><path
     id="outline"
     style="display:inline;opacity:1;fill:#000000;fill-opacity:1;stroke:none;stroke-width:1;stroke-linecap:round;stroke-dasharray:none;stroke-opacity:1;paint-order:fill markers stroke"
     inkscape:label="outline"
     d="M -25.984376 -25.984376 L -25.984376 574.01564 L 574.01564 574.01564 L 574.01564 -25.984376 L -25.984376 -25.984376 z M 120.47852 0.49414063 L 427.55274 0.49414063 C 444.66376 0.49413963 461.07452 7.2913084 473.17384 19.390625 L 528.63673 74.851564 L 528.63673 74.853517 C 540.73605 86.952837 547.53321 103.36164 547.53321 120.47266 L 547.53321 427.55079 C 547.53321 444.66181 540.73605 461.07256 528.63673 473.17188 L 473.17384 528.63868 C 461.07451 540.73797 444.66375 547.53519 427.55274 547.53517 L 120.47852 547.53517 L 120.47852 547.53126 C 103.36799 547.53129 86.958606 540.73343 74.859376 528.63478 L 74.857423 528.63478 L 19.394532 473.16993 C 7.2963196 461.07117 0.49856488 444.66257 0.49804688 427.55274 L 0.49804688 120.47461 C 0.49804588 103.36359 7.2952146 86.952837 19.394532 74.853517 L 74.857423 19.392579 L 74.857423 19.390625 C 86.956743 7.2913084 103.3675 0.49413963 120.47852 0.49414063 z M 123.79688 15.613282 C 85.255134 15.613282 89.103285 42.295846 89.998049 45.361329 L 85.974611 46.490235 C 76.116352 48.934818 85.067554 43.323749 83.744142 37.335938 C 62.911534 42.643185 69.590587 49.135594 61.656251 56.833986 L 93.625002 48.126954 L 110.25 65.021486 C 110.25 65.021486 108.59751 59.45768 108.71094 55.32422 C 108.87448 49.368881 103.88392 41.199189 95.912111 43.777345 C 92.586278 34.559929 95.757882 27.996002 104.86719 27.404297 L 163.4375 27.404297 C 166.1584 27.404297 165.18484 29.662709 169.25196 31.773438 C 171.75297 33.071504 176.08985 32.753907 176.08985 32.753907 C 173.91279 30.394949 173.51239 26.933368 169.14258 27.498047 L 172.14844 25.085938 L 104.30469 25.085938 C 104.30469 25.085938 106.37688 21.271485 123.08594 21.271485 L 148.47657 21.271485 C 164.46543 21.271485 160.31964 19.396025 168.56055 19.84961 C 174.54467 20.178959 178.87688 26.486248 183.19141 30.800782 C 186.30104 33.910408 193.11329 34.796876 193.11329 34.796876 C 189.20247 29.632006 192.11833 20.546788 181.08985 19.470704 L 185.96485 15.613282 L 123.79688 15.613282 z M 358.50782 15.613282 L 363.38282 19.470704 C 352.35434 20.546788 355.27025 29.632006 351.35938 34.796876 C 351.35938 34.796876 358.17164 33.910408 361.28126 30.800782 C 365.5958 26.486248 369.92799 20.178835 375.91212 19.84961 C 384.15304 19.396065 380.00724 21.271485 395.9961 21.271485 L 421.38673 21.271485 C 438.09579 21.271485 440.16798 25.085938 440.16798 25.085938 L 372.32423 25.085938 L 375.33009 27.498047 C 370.96023 26.933368 370.55993 30.394949 368.38282 32.753907 C 368.38282 32.753907 372.71971 33.071422 375.22071 31.773438 C 379.28783 29.662709 378.31426 27.404297 381.03516 27.404297 L 439.60548 27.404297 C 448.71488 27.996002 451.88644 34.559929 448.56056 43.777345 C 440.58876 41.199189 435.59834 49.368881 435.76173 55.32422 C 435.87523 59.45768 434.22266 65.021486 434.22266 65.021486 L 450.84767 48.126954 L 482.81642 56.833986 C 474.88208 49.135594 481.56108 42.643185 460.72852 37.335938 C 459.40506 43.323749 468.35632 48.934818 458.49806 46.490235 L 454.47462 45.361329 C 455.36939 42.295846 459.21754 15.613282 420.67579 15.613282 L 358.50782 15.613282 z M 452.2422 52.033204 C 451.84738 52.034391 451.46243 52.191877 451.17579 52.478517 L 428.88282 74.771486 L 428.84571 74.808595 C 428.82811 74.825795 428.81524 74.84086 428.79884 74.86133 C 428.77384 74.88713 428.75312 74.912738 428.72852 74.941408 C 428.70612 74.971288 428.68447 75.000445 428.66407 75.033205 C 428.64637 75.057775 428.62969 75.084806 428.61329 75.109376 C 428.59409 75.14459 428.57305 75.179938 428.55665 75.216798 C 428.54435 75.238908 428.53379 75.260588 428.52149 75.285158 C 428.50389 75.32897 428.48692 75.37293 428.47462 75.41797 C 428.46652 75.43844 428.46113 75.46 428.45313 75.48047 L 428.45118 75.482423 L 428.45118 75.484376 L 428.45118 75.48633 C 428.43478 75.548572 428.42207 75.611903 428.41407 75.675783 C 428.40477 75.743349 428.40165 75.810938 428.40235 75.878908 C 428.40235 75.915759 428.40326 75.951423 428.40626 75.988283 C 428.40626 76.020643 428.40716 76.053179 428.41016 76.085939 C 428.41416 76.098229 428.41498 76.110768 428.41798 76.123048 C 428.42608 76.172603 428.43888 76.221213 428.45118 76.269533 L 428.45509 76.294923 L 436.61524 106.77344 C 436.68404 107.03081 436.8175 107.26673 437.00587 107.45508 C 437.1942 107.64345 437.43036 107.77886 437.68751 107.84766 L 468.16798 116.01367 L 468.19142 116.01758 C 468.23972 116.02988 468.2883 116.03692 468.3379 116.04492 C 468.3502 116.04892 468.36271 116.04974 468.37501 116.05274 C 468.40691 116.05374 468.43997 116.05762 468.47267 116.0586 C 468.50913 116.0596 468.54514 116.06152 468.58204 116.0625 C 468.65001 116.0625 468.71797 116.05683 468.78517 116.04883 C 468.84906 116.04063 468.91242 116.02812 468.97462 116.01172 L 468.97657 116.01172 L 468.97852 116.01172 L 468.98048 116.00977 C 469.00128 116.00577 469.02258 115.99824 469.04298 115.99024 C 469.08807 115.97664 469.13199 115.95976 469.17579 115.94336 C 469.19879 115.93526 469.22375 115.92246 469.24415 115.91016 C 469.28096 115.89506 469.31477 115.87587 469.35157 115.85547 C 469.37697 115.83787 469.40314 115.82109 469.42774 115.80469 C 469.45924 115.78469 469.49084 115.76484 469.51954 115.74024 C 469.54704 115.71724 469.57502 115.69452 469.59962 115.66992 C 469.61682 115.65632 469.63791 115.63945 469.65431 115.62305 L 469.68556 115.58594 L 491.97853 93.292971 C 492.36282 92.910799 492.51031 92.354208 492.3711 91.832033 L 484.20704 61.359376 L 484.20704 61.35547 L 484.20509 61.351564 L 484.20118 61.332032 C 484.19718 61.311152 484.18965 61.290002 484.18165 61.269532 C 484.16775 61.228584 484.15508 61.189379 484.13868 61.148439 L 484.13868 61.144532 C 484.11488 61.088433 484.08535 61.0337 484.05665 60.98047 C 484.03575 60.945669 484.01484 60.909714 483.99024 60.876954 C 483.97254 60.852384 483.95586 60.829259 483.93946 60.804689 C 483.89976 60.752686 483.85686 60.700978 483.81056 60.654298 C 483.76388 60.608031 483.71462 60.566342 483.66212 60.525392 C 483.63842 60.507782 483.6125 60.490991 483.5879 60.474611 C 483.55473 60.450851 483.52324 60.428674 483.48634 60.408204 C 483.43311 60.377894 483.37878 60.350743 483.32228 60.326173 L 483.31642 60.326173 C 483.2767 60.308163 483.23632 60.297437 483.19532 60.285157 C 483.17492 60.276977 483.15518 60.271873 483.13478 60.263673 L 483.11329 60.259767 L 483.10938 60.257814 L 483.10548 60.257814 L 452.63282 52.093751 C 452.5022 52.058131 452.36973 52.040648 452.23829 52.041017 L 452.2422 52.033204 z M 92.226564 52.041017 C 92.09471 52.040607 91.962659 52.060991 91.832033 52.093751 L 61.361329 60.257814 L 61.357423 60.257814 L 61.351564 60.259767 L 61.332032 60.263673 C 61.311142 60.267763 61.290002 60.275004 61.269532 60.283204 C 61.228585 60.297134 61.189389 60.309793 61.148439 60.326173 L 61.144532 60.326173 C 61.088432 60.349923 61.0337 60.379534 60.98047 60.408204 C 60.945669 60.429504 60.909714 60.450041 60.876954 60.474611 C 60.852384 60.492221 60.829259 60.509022 60.804689 60.525392 C 60.752686 60.565109 60.702931 60.608028 60.656251 60.654298 C 60.609984 60.70098 60.568285 60.750326 60.527345 60.802736 C 60.509735 60.826496 60.492934 60.852384 60.476564 60.876954 C 60.452804 60.910125 60.428674 60.941657 60.408204 60.978517 C 60.377894 61.03134 60.352696 61.086479 60.328126 61.142579 L 60.328126 61.146486 C 60.314206 61.186203 60.297447 61.228172 60.285157 61.269532 C 60.276977 61.290002 60.271873 61.309609 60.263673 61.330079 L 60.259767 61.351564 L 60.257814 61.35547 L 60.257814 61.359376 L 52.093751 91.832033 C 51.954403 92.354208 52.10428 92.910922 52.486329 93.292971 L 74.779298 115.58594 L 74.812501 115.62305 C 74.829691 115.64065 74.846719 115.65157 74.867189 115.66797 C 74.892989 115.69297 74.916654 115.71564 74.945314 115.74024 C 74.975204 115.76274 75.006304 115.78429 75.039064 115.80469 C 75.063634 115.82229 75.088713 115.83712 75.113283 115.85352 C 75.148497 115.87272 75.185798 115.89376 75.222658 115.91016 C 75.244768 115.92246 75.264494 115.93106 75.289064 115.94336 C 75.332877 115.96086 75.376836 115.97794 75.421876 115.99024 C 75.442346 115.99834 75.463906 116.00177 75.484376 116.00977 L 75.48633 116.01172 L 75.488283 116.01172 L 75.490236 116.01172 C 75.552478 116.03232 75.615809 116.04474 75.679689 116.05274 C 75.747254 116.06204 75.814844 116.06515 75.882814 116.06446 C 75.919665 116.06446 75.955339 116.06355 75.992189 116.06055 C 76.024549 116.06055 76.057085 116.05964 76.089845 116.05664 C 76.102135 116.05264 76.114665 116.05183 76.126955 116.04883 C 76.1765 116.04473 76.225129 116.03183 76.273439 116.01953 L 76.29883 116.01563 L 106.77735 107.85156 C 107.03466 107.78277 107.27063 107.64735 107.45899 107.45899 C 107.64736 107.27066 107.78081 107.0345 107.84961 106.77735 L 116.01563 76.29883 L 116.01953 76.273439 C 116.03183 76.224704 116.04083 76.176505 116.04883 76.126955 C 116.05283 76.114665 116.05364 76.102135 116.05664 76.089845 C 116.05764 76.057905 116.05956 76.024949 116.06055 75.992189 C 116.06555 75.955748 116.06738 75.919674 116.06836 75.882814 C 116.06836 75.814839 116.06464 75.746849 116.05664 75.679689 C 116.04844 75.615399 116.03593 75.552476 116.01953 75.490236 L 116.01953 75.488283 L 116.01953 75.48633 L 116.01758 75.484376 C 116.01358 75.463496 116.00605 75.442346 115.99805 75.421876 C 115.98445 75.376824 115.96757 75.332874 115.95117 75.289064 C 115.94307 75.266134 115.93027 75.241175 115.91797 75.220705 C 115.89877 75.183851 115.88368 75.150143 115.86328 75.113283 C 115.84568 75.087903 115.8289 75.061681 115.8125 75.037111 C 115.7925 75.005581 115.76845 74.973984 115.74805 74.945314 C 115.72505 74.917874 115.70038 74.889806 115.67578 74.865236 C 115.66218 74.848036 115.64726 74.828881 115.63086 74.812501 L 115.59375 74.779298 L 93.300783 52.486329 C 93.014144 52.199812 92.62912 52.042217 92.234377 52.041017 L 92.226564 52.041017 z M 90.089846 55.697267 L 87.728517 64.507814 L 68.878908 61.380861 L 90.089846 55.697267 z M 454.38282 55.697267 L 475.59376 61.380861 L 456.74415 64.507814 L 454.38282 55.697267 z M 93.015627 56.48047 L 108.53906 72.005861 L 90.652346 65.291017 L 93.015627 56.48047 z M 451.45899 56.48047 L 453.82032 65.291017 L 435.9336 72.005861 L 451.45899 56.48047 z M 56.833986 61.656251 C 49.135594 69.590587 42.641232 62.911575 37.333985 83.744142 C 43.321795 85.067556 48.934817 76.116352 46.490235 85.974611 L 45.361329 89.998049 C 42.295846 89.103284 15.611328 85.255126 15.611328 123.79688 L 15.611328 185.96485 L 19.470704 181.08985 C 20.546788 192.11833 29.632007 189.20247 34.796876 193.11329 C 34.796876 193.11329 33.910407 186.30105 30.800782 183.19141 C 26.486248 178.87689 20.178836 174.54469 19.84961 168.56055 C 19.396066 160.31964 21.271485 164.46543 21.271485 148.47657 L 21.271485 123.08594 C 21.271485 106.37689 25.083985 104.30469 25.083985 104.30469 L 25.083985 172.14844 L 27.498047 169.14258 C 26.933368 173.51239 30.394948 173.91278 32.753907 176.08985 C 32.753907 176.08985 33.071422 171.75297 31.773438 169.25196 C 29.662709 165.18484 27.404297 166.1584 27.404297 163.4375 L 27.404297 104.86719 C 27.996002 95.757793 34.559931 92.586278 43.777345 95.912111 C 41.199191 103.88391 49.368881 108.87432 55.32422 108.71094 C 59.457679 108.59743 65.021486 110.25 65.021486 110.25 L 48.126954 93.625002 L 56.833986 61.656251 z M 487.63868 61.656251 L 496.34571 93.625002 L 479.45118 110.25 C 479.45118 110.25 485.01499 108.59752 489.14845 108.71094 C 495.10379 108.87449 503.27347 103.88391 500.69532 95.912111 C 509.91273 92.586278 516.47666 95.757874 517.06837 104.86719 L 517.06837 163.4375 C 517.06837 166.1584 514.80996 165.18484 512.69923 169.25196 C 511.40116 171.75297 511.71876 176.08985 511.71876 176.08985 C 514.07772 173.91278 517.53929 173.51239 516.97462 169.14258 L 519.38868 172.14844 L 519.38868 104.30469 C 519.38868 104.30469 523.20118 106.37689 523.20118 123.08594 L 523.20118 148.47657 C 523.20118 164.46543 525.07661 160.31964 524.62306 168.56055 C 524.29367 174.54469 517.98642 178.87689 513.67189 183.19141 C 510.56226 186.30105 509.67579 193.11329 509.67579 193.11329 C 514.84071 189.20247 523.92592 192.11833 525.00196 181.08985 L 528.86134 185.96485 L 528.86134 123.79688 C 528.86134 85.255126 502.17686 89.103284 499.11134 89.998049 L 497.98243 85.974611 C 495.53781 76.116352 501.15083 85.067556 507.13868 83.744142 C 501.83139 62.911575 495.33712 69.590587 487.63868 61.656251 z M 63.568361 63.568361 L 85.681642 67.238283 L 76.460939 76.460939 L 67.238283 85.681642 L 63.568361 63.568361 z M 480.90431 63.568361 L 477.23438 85.681642 L 468.01173 76.460939 L 458.79102 67.238283 L 480.90431 63.568361 z M 91.060549 68.679689 L 112.04688 76.556642 L 97.812502 93.875002 L 91.060549 68.679689 z M 453.41212 68.679689 L 446.66017 93.875002 L 432.42579 76.556642 L 453.41212 68.679689 z M 61.380861 68.878908 L 64.507814 87.728517 L 55.697267 90.089846 L 61.380861 68.878908 z M 483.09181 68.878908 L 488.7754 90.089846 L 479.96485 87.728517 L 483.09181 68.878908 z M 88.050783 69.152345 L 94.968752 94.968752 L 69.152345 88.050783 L 78.601564 78.601564 L 88.050783 69.152345 z M 456.42188 69.152345 L 465.8711 78.601564 L 475.32032 88.050783 L 449.50392 94.968752 L 456.42188 69.152345 z M 184.78125 78.242189 C 184.29156 78.262987 183.77032 78.409656 183.21485 78.681642 C 182.5132 79.025204 181.86462 79.496985 181.26953 80.097658 C 180.6824 80.675104 180.12975 81.323241 179.61133 82.041017 C 179.1085 82.751159 178.63674 83.502769 178.19532 84.29883 C 177.74626 85.079298 177.32402 85.83793 176.92969 86.572267 C 177.2909 86.086115 177.66587 85.688187 178.05664 85.380861 C 178.43978 85.057943 178.8113 84.810366 179.16993 84.634767 C 180.35494 84.054529 181.49573 84.151899 182.5918 84.929689 C 183.68788 85.707479 184.70138 87.048916 185.63282 88.951174 C 186.57952 90.884615 187.57611 92.975918 188.6211 95.228518 C 189.66608 97.481117 190.72558 99.784886 191.80079 102.13867 C 192.89158 104.48483 193.97934 106.82374 195.0625 109.1543 C 196.14566 111.48486 197.20174 113.70169 198.23243 115.80664 C 199.27838 117.94278 200.26603 119.62483 201.19532 120.85156 C 202.11697 122.06271 202.98637 122.95174 203.80469 123.51758 C 204.63097 124.0602 205.39501 124.33404 206.09375 124.33985 C 206.81573 124.35361 207.4798 124.21182 208.08789 123.91406 C 208.78955 123.5705 209.4136 123.16834 209.96094 122.70703 C 210.52388 122.23809 211.09254 121.60156 211.66602 120.79883 C 212.26272 120.00406 212.92409 119.00405 213.64844 117.79883 C 214.22095 116.82365 214.89401 115.6511 215.66797 114.28125 C 216.04752 114.68261 216.45428 115.0509 216.88868 115.38672 C 217.87226 116.1471 218.96876 116.67666 220.17774 116.97266 C 221.39161 117.28532 222.68108 117.23945 224.04688 116.83789 C 225.11287 116.52448 226.13833 116.01489 227.125 115.3086 C 228.11657 114.61895 229.05369 113.80182 229.9336 112.85547 C 230.82526 111.88757 231.65753 110.84534 232.4336 109.73047 C 233.20477 108.59894 233.91672 107.44807 234.56836 106.2793 L 235.44336 109.25391 C 235.73229 110.23662 236.13702 110.93998 236.66016 111.36524 C 237.1833 111.7905 237.73155 112.05528 238.30469 112.15821 C 238.89449 112.25624 239.46986 112.23962 240.0293 112.11133 C 240.59365 111.9997 241.04479 111.87639 241.38477 111.74024 C 242.00791 111.52084 242.66665 111.17433 243.35938 110.69922 C 244.05211 110.22411 244.74573 109.65831 245.43946 109.00196 C 246.13318 108.3456 246.7967 107.61582 247.42969 106.81446 C 248.07445 105.99153 248.64284 105.12789 249.13672 104.22266 C 248.46555 104.70952 247.80489 105.13948 247.1543 105.51172 C 246.49882 105.8673 245.86238 106.13522 245.2461 106.31641 C 244.21342 106.62003 243.38482 106.6299 242.75782 106.34375 C 242.14747 106.05271 241.65545 105.58028 241.28321 104.92969 C 240.91097 104.2791 240.611 103.50781 240.38477 102.61524 C 240.15854 101.72267 239.91192 100.81843 239.64258 99.902346 C 239.37814 99.002915 239.11404 98.075392 238.85157 97.121096 C 238.58909 96.166799 238.30654 95.110241 238.00196 93.951174 C 237.69248 92.775451 237.34582 91.447229 236.96485 89.966799 C 236.58388 88.486368 236.14498 86.778795 235.64844 84.843752 C 233.94955 85.035613 232.45637 85.277512 231.16602 85.566408 C 229.87077 85.838648 228.75697 86.110532 227.82422 86.384767 C 226.92479 86.649209 225.97012 87.03945 224.9629 87.552736 C 223.95567 88.066022 222.9409 88.67166 221.91602 89.371096 C 220.90779 90.065634 219.90954 90.829427 218.92383 91.662111 C 217.93813 92.494795 217.0282 93.368207 216.19336 94.283205 C 215.37519 95.193306 214.64379 96.12296 214 97.072268 C 213.35622 98.021575 212.8703 98.952154 212.54102 99.863283 C 212.35874 100.35118 212.2172 100.94501 212.11524 101.64453 C 212.02993 102.33916 211.99127 103.1018 212 103.93164 C 212.0254 104.75659 212.09931 105.62205 212.22071 106.52735 C 212.33721 107.41598 212.52366 108.30082 212.78321 109.1836 C 213.1309 110.36618 213.65701 111.50516 214.35938 112.60156 C 214.72776 113.17661 215.13435 113.70489 215.58008 114.1875 C 214.64226 115.39823 213.60028 116.28496 212.45508 116.84571 C 211.65988 117.23508 210.85214 117.41886 210.0293 117.39649 C 209.20646 117.37411 208.38538 117.11906 207.56641 116.63086 C 206.74745 116.14266 205.94194 115.40482 205.15039 114.41992 C 204.35122 113.41944 203.59397 112.14878 202.87696 110.60547 C 202.35081 109.45197 201.72906 108.12168 201.01172 106.61719 C 200.30997 105.10506 199.56911 103.51571 198.79102 101.84766 C 198.00529 100.16402 197.20494 98.449139 196.38868 96.703127 C 195.57241 94.957115 194.78644 93.273619 194.03125 91.652346 C 193.26843 90.01548 192.55044 88.491019 191.87891 87.08008 C 191.22297 85.661506 190.65858 84.450854 190.18555 83.445314 C 189.86489 82.790439 189.48726 82.094812 189.05078 81.36133 C 188.62227 80.60462 188.12287 79.960456 187.55274 79.427736 C 186.9982 78.887381 186.35723 78.524483 185.62891 78.339845 C 185.35878 78.261896 185.07507 78.22971 184.78125 78.242189 z M 272.93946 78.859377 C 272.28153 78.908004 271.63625 79.130487 271.00391 79.525392 C 270.38761 79.901704 269.79612 80.371344 269.22852 80.935548 C 268.67696 81.48116 268.15338 82.068926 267.66016 82.697267 C 267.18425 83.324329 266.76669 83.893984 266.4043 84.408205 C 266.88269 84.285805 267.31589 84.280268 267.70704 84.390627 C 268.09818 84.500985 268.42928 84.720468 268.69727 85.04883 C 268.96398 85.359878 269.17636 85.770793 269.33594 86.281252 C 269.51156 86.773117 269.62258 87.337904 269.66993 87.978517 C 269.72239 88.688386 269.61049 89.515757 269.33204 90.458986 C 269.06962 91.383621 268.67442 92.397114 268.14649 93.498049 C 267.63588 94.597704 267.02583 95.765747 266.31641 97.001955 C 265.60571 98.22085 264.8278 99.470882 263.98243 100.75196 C 263.26782 98.384996 262.46191 96.206763 261.56641 94.218752 C 260.68695 92.212147 259.80661 90.432793 258.92579 88.878908 C 258.06228 87.323743 257.26064 86.006464 256.51954 84.929689 C 255.79446 83.834321 255.22742 83.00516 254.82032 82.443361 C 254.3959 81.882842 253.94983 81.49011 253.48047 81.263673 C 253.02843 81.035957 252.55094 80.941407 252.04883 80.978517 C 251.32165 81.032263 250.59041 81.267605 249.85547 81.687502 C 249.13657 82.088805 248.44101 82.576556 247.76954 83.148439 C 247.09806 83.720322 246.46497 84.332996 245.86915 84.98633 C 245.27332 85.639663 244.74167 86.22615 244.2754 86.748049 C 244.69033 86.473663 245.10057 86.253209 245.50586 86.083986 C 245.90988 85.897449 246.31077 85.7892 246.70899 85.759767 C 247.67857 85.688106 248.61748 86.010144 249.52344 86.726564 C 250.42941 87.442985 251.29336 88.415099 252.11524 89.64258 C 252.93584 90.852747 253.7012 92.249991 254.41016 93.833986 C 255.13644 95.416702 255.78576 97.039639 256.36133 98.703127 C 256.95294 100.34802 257.47458 101.97103 257.92383 103.57422 C 258.38912 105.15882 258.76234 106.56826 259.04493 107.80078 C 257.65311 109.69672 256.29852 111.50235 254.98047 113.21875 C 253.66371 114.95247 252.48835 116.48468 251.45508 117.81446 C 250.61295 118.9038 249.86054 120.03832 249.19922 121.21875 C 248.53919 122.41649 247.99019 123.56367 247.54883 124.65821 C 247.10876 125.77006 246.80086 126.78489 246.625 127.70313 C 246.45043 128.63868 246.44265 129.37067 246.60352 129.89844 C 246.75799 130.33964 246.94613 130.64717 247.16797 130.82227 C 247.3911 131.01468 247.60669 131.10325 247.81446 131.08789 C 247.97028 131.07638 248.12206 131.02192 248.27149 130.92383 C 248.4222 130.84306 248.54503 130.72822 248.63868 130.58203 C 248.73232 130.43584 248.79 130.26723 248.81055 130.07422 C 248.8497 129.89724 248.83488 129.70588 248.76758 129.50196 C 248.6567 129.17939 248.58399 128.76773 248.54688 128.26563 C 248.50977 127.76353 248.55928 127.14973 248.69727 126.42578 C 248.83526 125.70184 249.09416 124.83879 249.47266 123.83594 C 249.86847 122.83181 250.44231 121.66646 251.19727 120.33985 C 251.95223 119.01323 252.99661 117.46494 254.32813 115.69531 C 255.66093 113.943 257.14913 112.05808 258.79297 110.03906 C 260.43682 108.02005 262.16134 105.91616 263.9668 103.72852 C 265.77227 101.54088 267.52566 99.365775 269.22852 97.203127 C 270.56644 95.520072 271.64305 93.944858 272.45704 92.474611 C 273.27102 91.004365 273.89311 89.651018 274.32422 88.417971 C 274.77266 87.183643 275.05632 86.067375 275.17383 85.066408 C 275.30866 84.064161 275.34733 83.181734 275.29102 82.419924 C 275.26671 82.09096 275.21285 81.712213 275.12891 81.283205 C 275.06229 80.852917 274.94597 80.452701 274.7793 80.082033 C 274.61264 79.711365 274.38021 79.405251 274.08399 79.166017 C 273.78777 78.926784 273.40693 78.824825 272.93946 78.859377 z M 111.28711 82.250002 L 105.60352 103.46094 L 99.152346 97.011721 L 111.28711 82.250002 z M 433.18556 82.250002 L 445.32032 97.011721 L 438.86915 103.46094 L 433.18556 82.250002 z M 311.87501 83.529299 C 310.62535 83.495417 309.31456 83.555244 307.93946 83.708986 C 306.58139 83.866084 305.21194 84.118975 303.83399 84.466799 C 302.47307 84.817978 301.22242 85.288063 300.08008 85.876955 C 298.93775 86.465846 297.96467 87.185062 297.16016 88.035158 C 296.35565 88.885254 295.8401 89.880234 295.61524 91.021486 C 295.51456 91.532495 295.49036 92.058397 295.54297 92.599611 C 295.59559 93.140825 295.748 93.676097 295.99805 94.203127 C 296.2685 94.71648 296.6465 95.215682 297.13477 95.701174 C 297.64344 96.172988 298.30328 96.602946 299.11133 96.992189 C 299.61253 97.232498 300.25862 97.49311 301.05274 97.773439 C 301.86725 98.040091 302.71922 98.349607 303.60547 98.701174 C 304.51212 99.039063 305.40897 99.418741 306.29883 99.841799 C 307.1887 100.26486 307.96779 100.75407 308.63672 101.31055 C 309.32605 101.85335 309.84311 102.46946 310.18555 103.15625 C 310.54503 103.8464 310.64047 104.61707 310.47266 105.46875 C 310.33506 106.16713 310.07271 106.69067 309.68555 107.03906 C 309.31879 107.37378 308.8766 107.5966 308.35938 107.70703 C 307.84217 107.81747 307.27117 107.84566 306.64454 107.79297 C 306.03829 107.72661 305.42767 107.63254 304.81446 107.51172 C 304.61006 107.47145 304.26712 107.37695 303.78321 107.22852 C 303.31634 107.08345 302.79535 106.89295 302.22266 106.65625 C 301.66701 106.42291 301.10169 106.15194 300.5254 105.84375 C 299.96614 105.53892 299.4991 105.20801 299.12696 104.85156 C 298.77521 104.48145 298.55939 104.10276 298.47657 103.71485 C 298.39374 103.32693 298.55255 102.92435 298.95313 102.50781 C 297.90528 102.79681 297.00073 103.0706 296.24219 103.32813 C 295.48366 103.58566 294.82227 103.84509 294.25782 104.10547 C 293.69672 104.34882 293.20663 104.59645 292.78516 104.84961 C 292.36369 105.10277 291.96803 105.36177 291.59766 105.625 C 291.22393 105.90526 291.16286 106.25626 291.41602 106.67774 C 291.68622 107.10256 292.12267 107.53321 292.72657 107.97071 C 293.3475 108.41156 294.07196 108.81975 294.9004 109.19531 C 295.74252 109.59127 296.56161 109.88437 297.35547 110.07617 C 298.26187 110.32554 299.34855 110.46862 300.61524 110.50586 C 301.88193 110.5431 303.21444 110.46961 304.61329 110.28516 C 306.01214 110.10071 307.40495 109.80908 308.79297 109.41016 C 310.19803 109.01459 311.48737 108.49156 312.66016 107.83789 C 313.83295 107.18422 314.8255 106.41542 315.63673 105.53125 C 316.46834 104.63341 316.9989 103.59524 317.23048 102.41992 C 317.41842 101.46604 317.38674 100.64603 317.13282 99.958986 C 316.8789 99.271941 316.47243 98.678606 315.91602 98.179689 C 315.35961 97.680773 314.69086 97.256669 313.91016 96.908205 C 313.1465 96.563097 312.34077 96.255788 311.49219 95.982424 C 310.64362 95.70906 309.7928 95.452189 308.93751 95.212893 C 308.08222 94.973596 307.30966 94.714728 306.6211 94.437502 C 305.73485 94.085935 304.98057 93.646564 304.35938 93.117189 C 303.73819 92.587815 303.23899 92.027401 302.85938 91.439455 C 302.50016 90.837831 302.25663 90.234097 302.12891 89.625002 C 302.00455 88.998873 301.99362 88.420622 302.09766 87.89258 C 302.22519 87.245302 302.47058 86.763 302.83399 86.445314 C 303.1974 86.127629 303.62568 85.929332 304.11915 85.849611 C 304.61597 85.752857 305.15829 85.74418 305.74415 85.82422 C 306.33336 85.887228 306.91696 85.975737 307.4961 86.089845 C 308.09228 86.20731 308.69179 86.351518 309.29493 86.523439 C 309.91846 86.681683 310.501 86.867126 311.04297 87.08008 C 311.5883 87.276 312.07616 87.496318 312.50587 87.740236 C 312.93892 87.96712 313.27165 88.21065 313.50391 88.468752 C 313.73618 88.726853 313.84441 88.985832 313.82813 89.248049 C 313.82889 89.513621 313.66889 89.783345 313.34962 90.056642 C 313.89754 89.969956 314.43311 89.855439 314.95704 89.710939 C 315.48432 89.549406 315.9675 89.387844 316.40626 89.226564 C 316.90283 89.041286 317.3779 88.832932 317.83008 88.603517 C 318.39789 88.326105 318.89604 88.045042 319.32423 87.757814 C 319.75241 87.470587 320.05669 87.185458 320.23633 86.902345 C 320.43301 86.622589 320.48577 86.349306 320.39649 86.083986 C 320.32424 85.822023 320.06588 85.567588 319.61915 85.320314 C 319.15538 85.069684 318.5324 84.814629 317.75196 84.554689 C 316.99191 84.281072 316.10015 84.043166 315.07813 83.841799 C 314.19238 83.66728 313.12467 83.56318 311.87501 83.529299 z M 229.96094 90.425783 C 230.34095 91.779826 230.68952 93.024598 231.00586 94.162111 L 231.91602 97.261721 L 232.6875 99.884768 L 233.3418 102.10742 C 233.37109 103.13028 233.29755 104.11221 233.1211 105.05078 C 232.96131 105.98446 232.66361 106.84902 232.22852 107.64649 C 231.78854 108.4273 231.20458 109.11435 230.47461 109.70899 C 229.74465 110.30362 228.83851 110.76177 227.75586 111.08008 C 226.60659 111.41798 225.50341 111.45215 224.44727 111.1836 C 223.40289 110.89349 222.44515 110.40563 221.57422 109.72071 C 220.71996 109.03088 219.97462 108.19078 219.33985 107.20117 C 218.70018 106.19491 218.22261 105.15101 217.9043 104.06836 C 217.5713 102.93574 217.37217 101.79961 217.3086 100.66016 C 217.26168 99.515813 217.29738 98.465012 217.41407 97.507814 C 217.53075 96.550617 217.70426 95.730715 217.9375 95.046877 C 218.16585 94.346383 218.40833 93.876726 218.66407 93.638674 C 218.80125 93.489766 219.01758 93.335452 219.31446 93.175783 C 219.60644 92.999458 219.95376 92.824741 220.35547 92.652346 C 220.75719 92.479951 221.20347 92.303273 221.69336 92.123049 C 222.19991 91.937927 222.73643 91.762205 223.30274 91.595705 C 224.33542 91.292087 225.43467 91.032816 226.60157 90.816408 C 227.76357 90.583344 228.88322 90.453109 229.96094 90.425783 z M 65.291017 90.652346 L 72.005861 108.53906 L 56.48047 93.013674 L 65.291017 90.652346 z M 479.18165 90.652346 L 487.9922 93.013674 L 472.46681 108.53906 L 479.18165 90.652346 z M 68.679689 91.060549 L 93.875002 97.812502 L 76.556642 112.04688 L 68.679689 91.060549 z M 475.79298 91.060549 L 467.91602 112.04688 L 450.59767 97.812502 L 475.79298 91.060549 z M 337.23829 94.167971 C 335.60903 94.241799 333.99186 94.489731 332.38673 94.912111 C 330.78826 95.318465 329.29249 95.908083 327.89844 96.681643 C 326.52042 97.461876 325.27121 98.426693 324.15235 99.578127 C 323.05619 100.72021 322.18446 102.07037 321.53712 103.625 C 320.80302 105.38799 320.49169 107.06255 320.60157 108.65039 C 320.72747 110.24491 321.17948 111.71149 321.95704 113.05078 C 322.75062 114.39675 323.81777 115.6032 325.16016 116.66992 C 326.51858 117.74333 328.05658 118.63749 329.77149 119.35156 C 330.92545 119.83207 332.10953 120.14759 333.32618 120.29688 C 334.54283 120.44617 335.76738 120.48575 337.00001 120.41602 C 338.25533 120.33693 339.5054 120.17931 340.75001 119.94531 C 341.99461 119.71132 343.22178 119.45209 344.43165 119.16602 C 344.8523 119.05908 345.44147 118.84227 346.19727 118.51758 C 346.95307 118.19289 347.75811 117.72883 348.61134 117.125 C 349.46456 116.52117 350.30062 115.75081 351.12305 114.81446 C 351.94549 113.8781 352.6336 112.74627 353.18751 111.41602 C 353.84152 109.84535 354.16834 108.26932 354.16798 106.68946 C 354.18364 105.11627 353.89169 103.63052 353.28907 102.23242 C 352.70915 100.82497 351.83544 99.559126 350.66798 98.433596 C 349.52322 97.298712 348.11605 96.383513 346.44923 95.689455 C 345.10294 95.12887 343.63924 94.717183 342.05665 94.453127 C 340.47406 94.189071 338.86754 94.094142 337.23829 94.167971 z M 337.59766 95.812502 C 338.3976 95.788278 339.20606 95.944803 340.02344 96.285158 C 341.46589 96.885785 342.69449 97.754377 343.70704 98.890627 C 344.71959 100.02688 345.48347 101.30513 346.00196 102.72461 C 346.52045 104.1441 346.77348 105.64166 346.75782 107.21485 C 346.74216 108.78803 346.42957 110.30325 345.82227 111.76172 C 345.12821 113.42855 344.33399 114.77185 343.43946 115.79102 C 342.56763 116.80083 341.64656 117.54573 340.67579 118.02539 C 339.72771 118.4957 338.75603 118.72962 337.75977 118.72852 C 336.78621 118.71806 335.85065 118.52607 334.95313 118.15235 C 333.51069 117.55172 332.26231 116.71163 331.20704 115.63281 C 330.16779 114.56067 329.36591 113.34447 328.80469 111.98242 C 328.25951 110.62705 327.98174 109.19463 327.97071 107.68555 C 327.96635 106.16044 328.27584 104.65264 328.89649 103.16211 C 329.17011 102.505 329.51638 101.83116 329.93555 101.14063 C 330.37743 100.44074 330.86749 99.779324 331.40821 99.158205 C 331.97163 98.527733 332.57456 97.960654 333.2168 97.457033 C 333.88175 96.944059 334.57518 96.54696 335.29493 96.263674 C 336.03738 95.971034 336.8044 95.820699 337.59766 95.812502 z M 97.011721 99.152346 L 103.46094 105.60352 L 82.250002 111.28711 L 97.011721 99.152346 z M 447.46095 99.152346 L 462.22267 111.28711 L 441.01173 105.60352 L 447.46095 99.152346 z M 363.20899 106.16992 C 363.77977 106.3214 364.28444 106.49739 364.72462 106.69922 C 365.18922 106.89856 365.58929 107.13603 365.92579 107.41016 C 366.97568 108.26543 367.37792 109.36552 367.13282 110.71094 C 366.89868 112.0429 366.08549 113.49646 364.69141 115.07031 C 363.95675 115.97214 363.00377 117.09963 361.83399 118.45313 C 360.84215 119.61569 359.56832 121.08558 358.00977 122.86133 C 356.45122 124.63708 354.55186 126.77432 352.31446 129.27344 L 359.96876 129.73047 C 362.53911 126.98756 364.75556 124.76268 366.61719 123.05469 C 368.50325 121.3442 370.15144 120.07851 371.56055 119.25586 C 372.96966 118.43322 374.18607 118.02488 375.21094 118.03125 C 376.24928 118.04859 377.2132 118.41889 378.10157 119.14258 C 379.09762 119.954 379.71285 120.79192 379.94923 121.65625 C 380.19906 122.53155 380.20265 123.40685 379.95899 124.28321 C 379.72879 125.17052 379.31251 126.05184 378.71095 126.92774 C 378.12284 127.8146 377.49039 128.67524 376.81055 129.50977 C 376.09783 130.38468 375.31003 131.3105 374.44727 132.28711 C 373.60894 133.26123 372.73854 134.23303 371.8379 135.20117 C 370.93725 136.16932 370.02187 137.11337 369.0918 138.03516 C 368.18617 138.95445 367.29754 139.79866 366.42579 140.56641 L 374.39063 141.34375 C 376.20538 139.41843 377.76267 137.74274 379.06055 136.31446 C 380.38286 134.88368 381.48262 133.69709 382.36134 132.75586 C 383.37163 131.65312 384.22089 130.72219 384.90821 129.96094 L 385.00587 129.83985 C 385.55616 129.54917 386.10034 129.32035 386.63868 129.1543 C 387.20144 128.98575 387.75454 128.89862 388.29688 128.89258 C 388.86365 128.88404 389.41525 128.97416 389.95313 129.16602 C 390.49101 129.35787 391.02389 129.66807 391.54884 130.09571 C 392.50451 130.87423 393.10943 131.67139 393.36524 132.48438 C 393.62105 133.29737 393.64437 134.12106 393.4336 134.95703 C 393.22284 135.79301 392.82108 136.64148 392.23048 137.50391 C 391.6643 138.36385 391.0299 139.22449 390.32813 140.08594 C 389.47286 141.13583 388.57342 142.17333 387.62891 143.19532 C 386.70883 144.21481 385.8676 145.15039 385.10352 146.00586 C 384.25422 146.99344 383.5912 147.87566 383.11524 148.65235 C 382.65024 149.41557 382.35785 150.11821 382.23829 150.75977 C 382.12969 151.38786 382.19427 151.9672 382.4336 152.49805 C 382.66196 153.04236 383.05307 153.5514 383.60743 154.02539 C 384.16179 154.49939 384.80157 154.89781 385.5254 155.21875 C 386.25172 155.56412 387.1134 155.84012 388.10938 156.04688 C 389.10537 156.25364 390.249 156.38942 391.53907 156.45508 C 392.8426 156.5317 394.34787 156.53811 396.05665 156.47461 C 395.10006 156.41191 394.23037 156.24291 393.44923 155.96485 C 392.6925 155.68429 392.04623 155.32337 391.50782 154.88477 C 390.90211 154.39134 390.48423 153.87244 390.25587 153.32813 C 390.0275 152.78381 389.94699 152.22465 390.01173 151.65039 C 390.07647 151.07614 390.26328 150.48983 390.57227 149.89063 C 390.89472 149.30239 391.29023 148.71941 391.76173 148.14063 C 392.55121 147.1715 393.5145 146.08477 394.6504 144.88282 C 395.79976 143.69182 397.01354 142.35334 398.29298 140.86524 C 399.37504 139.61942 400.08691 138.42996 400.42774 137.29688 C 400.793 136.1613 400.92132 135.11199 400.81055 134.14844 C 400.71075 133.17143 400.42898 132.29325 399.9668 131.51367 C 399.52905 130.73161 399.03992 130.05271 398.50001 129.47852 C 397.93567 128.90682 397.20915 128.43805 396.32032 128.07227 C 395.44246 127.69302 394.47573 127.40902 393.41993 127.22071 C 392.36413 127.0324 391.25617 126.9365 390.09571 126.93164 C 388.94622 126.91333 387.82928 126.97733 386.7461 127.125 C 387.16921 126.1933 387.3936 125.31385 387.41993 124.48438 C 387.45722 123.64145 387.3706 122.85429 387.16016 122.12305 C 386.96319 121.40277 386.66735 120.73468 386.27149 120.1211 C 385.88909 119.51848 385.48248 118.98744 385.05274 118.52539 C 384.43207 117.88541 383.61502 117.37579 382.60157 116.99805 C 381.59909 116.60685 380.50335 116.33035 379.31446 116.16797 C 378.15 116.0031 376.93461 115.94137 375.66798 115.98438 C 374.42577 116.02489 373.23567 116.15222 372.09766 116.36719 C 372.66286 115.61841 373.13965 114.89851 373.5254 114.20508 C 373.93557 113.50916 374.22417 112.83795 374.39259 112.19141 C 374.58891 111.45563 374.54447 110.78057 374.25977 110.16797 C 373.98853 109.56634 373.57119 109.03475 373.00587 108.57422 C 372.41362 108.09176 371.7204 107.707 370.92579 107.41797 C 370.15561 107.12644 369.33567 106.895 368.4668 106.72461 C 367.59794 106.55423 366.70853 106.43488 365.80079 106.36719 C 364.90402 106.28604 364.04096 106.22068 363.20899 106.16992 z M 179.28125 108.4043 C 178.9596 108.41957 178.63507 108.45178 178.31055 108.5 C 177.01246 108.69288 175.77502 109.2183 174.59571 110.07617 C 172.37747 111.6898 170.60389 113.63417 169.27539 115.91016 C 167.95072 118.1619 167.03101 120.64634 166.51563 123.36133 L 165.47266 121.92969 C 164.95181 121.21368 164.45398 120.67368 163.97657 120.3125 C 163.50297 119.92708 163.05194 119.67598 162.62305 119.5586 C 162.19416 119.44121 161.7906 119.433 161.41407 119.53516 C 161.03753 119.63731 160.68814 119.80612 160.36524 120.04102 C 159.73346 120.5006 159.19607 121.07564 158.75196 121.76367 C 158.30784 122.45171 157.91629 123.19778 157.57813 124.00196 C 157.25401 124.79592 156.96959 125.6133 156.72461 126.45703 L 155.9961 128.82227 C 156.26921 128.43038 156.53517 128.08785 156.79297 127.79297 C 157.0546 127.47384 157.31919 127.21748 157.58594 127.02344 C 158.30195 126.50259 159.00271 126.38882 159.68946 126.6836 C 160.3762 126.97837 161.0828 127.66836 161.80664 128.75196 C 162.00707 129.057 162.36579 129.5781 162.88282 130.31836 C 163.40367 131.03437 164.03368 131.91767 164.77539 132.9668 C 165.50689 134.00189 166.33077 135.16337 167.2461 136.45117 C 168.16525 137.71472 169.12753 139.05264 170.13477 140.4668 C 171.1318 141.86692 172.14962 143.29568 173.1875 144.75196 C 174.22539 146.20823 175.23779 147.62955 176.22461 149.01563 C 177.22164 150.41575 178.1676 151.74614 179.0625 153.00586 C 179.97145 154.25537 180.78112 155.38361 181.49219 156.39063 C 182.21348 157.41168 182.81289 158.26316 183.28907 158.94727 C 183.78949 159.6352 184.11972 160.10464 184.2793 160.35352 C 184.70059 160.99168 185.12306 161.54325 185.54688 162.00782 C 185.9707 162.47238 186.38712 162.82386 186.79688 163.0625 C 187.21685 163.31519 187.63129 163.44281 188.04102 163.44532 C 188.46479 163.43761 188.88403 163.2607 189.29883 162.91602 C 189.7098 162.59559 190.14602 162.16219 190.60547 161.61328 C 191.06492 161.06438 191.5291 160.35976 192 159.50196 C 192.49516 158.64798 192.99595 157.60823 193.5 156.38282 C 194.01427 155.17144 194.52335 153.71722 195.02735 152.01953 C 194.15318 153.62153 193.28805 154.73444 192.43164 155.35742 C 191.71563 155.87828 191.03388 156.06198 190.38672 155.91016 C 189.7536 155.74812 189.16222 155.32059 188.61328 154.625 C 187.0303 152.44889 185.47537 150.29423 183.94727 148.16407 C 182.43321 146.02368 180.90416 143.85129 179.36328 141.64453 C 180.13672 140.99603 180.91491 140.2799 181.69727 139.4961 C 182.47963 138.71229 183.22257 137.90389 183.92578 137.07032 C 184.63921 136.25078 185.28516 135.42611 185.86328 134.59766 C 186.44141 133.7692 186.91982 132.98044 187.29883 132.23242 C 188.04921 130.78489 188.74478 129.26017 189.38282 127.65821 C 190.02085 126.05624 190.45741 124.42837 190.69336 122.77539 C 190.92932 121.12241 190.89449 119.48354 190.5918 117.85742 C 190.29294 116.20705 189.59322 114.62368 188.49024 113.10742 C 187.71406 112.04043 186.77817 111.12308 185.68164 110.35352 C 184.57491 109.56992 183.39275 109.02293 182.13672 108.71289 C 181.19757 108.46218 180.24622 108.35848 179.28125 108.4043 z M 176.81055 115.47852 C 177.44844 115.49217 178.07827 115.57271 178.70118 115.72071 C 179.96103 116.00649 181.15613 116.54266 182.28711 117.33008 C 183.40789 118.10347 184.39799 119.08045 185.25586 120.25977 C 185.7665 120.96174 186.21203 121.67686 186.59375 122.40821 C 186.96527 123.12551 187.26627 123.82014 187.4961 124.49024 C 187.73996 125.15012 187.90262 125.77284 187.98438 126.35742 C 188.08017 126.9318 188.08345 127.42162 187.99414 127.83008 C 187.77339 128.44151 187.44969 129.07495 187.02344 129.72852 C 186.661 130.29273 186.16842 130.92892 185.54688 131.63867 C 184.91513 132.33439 184.10776 133.04096 183.125 133.75586 C 182.25456 134.38906 181.25795 134.99528 180.13477 135.57617 C 179.01159 136.15706 177.70632 136.67773 176.2168 137.13867 C 174.33252 134.43033 172.81096 132.01581 171.6543 129.89453 C 170.50147 127.74901 169.71639 125.87259 169.29883 124.26563 C 168.88127 122.65867 168.82592 121.28365 169.13086 120.13867 C 169.4358 118.9937 170.09268 118.05369 171.10352 117.31836 C 172.31091 116.44006 173.56731 115.88006 174.87305 115.63867 C 175.52592 115.51798 176.17266 115.46487 176.81055 115.47852 z M 144.37891 137.42383 L 137.97657 156.45313 C 138.39849 155.10081 138.71173 153.89576 138.91602 152.83594 C 139.13067 151.7622 139.27157 150.81623 139.33789 150 C 139.41458 149.16984 139.43016 148.46684 139.38282 147.89063 C 139.33191 147.29012 139.24421 146.78144 139.1211 146.36524 C 138.84311 145.40101 138.39472 144.7548 137.77539 144.42383 C 137.12175 144.19716 136.50915 144.24803 135.9375 144.58008 C 135.37621 144.8982 134.83654 145.40709 134.31836 146.10352 C 133.5411 147.14816 132.86913 148.32553 132.30469 149.63672 C 131.74025 150.94791 131.29937 152.32819 130.97852 153.77735 C 130.66803 155.21257 130.48725 156.68991 130.4375 158.21094 C 130.37383 159.72161 130.46103 161.20425 130.69922 162.65821 C 130.94778 164.09824 131.34869 165.47802 131.90235 166.79883 C 132.46637 168.10571 133.20304 169.28299 134.11328 170.32813 C 134.03203 170.87358 133.9678 171.44078 133.91797 172.03125 C 133.85421 172.61136 133.81104 173.20716 133.78907 173.81836 C 133.82239 173.45365 133.90796 173.01963 134.04492 172.51563 C 134.19225 171.9977 134.35546 171.42692 134.53711 170.80469 C 134.92065 171.2199 135.33783 171.60502 135.78711 171.96094 C 136.23283 172.29257 136.72436 172.60536 137.26367 172.89844 C 138.76697 173.75729 140.24785 174.29746 141.70703 174.51758 C 143.15229 174.72734 144.52476 174.68812 145.82227 174.39844 C 147.11978 174.10876 148.29769 173.59933 149.35742 172.87305 C 150.44145 172.14321 151.34749 171.26017 152.07617 170.22266 C 152.80842 169.20944 153.48991 168.09225 154.11719 166.8711 C 154.75484 165.63601 155.29139 164.31658 155.73047 162.91211 C 156.16599 161.48336 156.4796 159.97382 156.66797 158.38282 C 156.8667 156.77788 156.88608 155.09337 156.72657 153.33008 C 156.71172 153.98986 156.62842 154.69713 156.47852 155.45117 C 156.32862 156.20522 156.11376 156.97397 155.83203 157.75977 C 155.54675 158.52128 155.19446 159.29853 154.77735 160.0918 C 154.3706 160.87114 153.90354 161.61582 153.375 162.32618 C 152.35938 163.69117 151.22215 164.7823 149.96485 165.59961 C 148.69362 166.40656 147.36181 166.91959 145.9668 167.13672 C 144.55786 167.34349 143.1111 167.2515 141.62696 166.86133 C 140.15318 166.45724 138.69832 165.72174 137.26367 164.6543 L 136.84571 164.34375 C 137.2168 163.3215 137.59315 162.29205 137.97461 161.25586 C 138.35251 160.19538 138.7213 159.16068 139.08203 158.15235 C 139.42884 157.13365 139.74994 156.15022 140.04492 155.20117 C 140.33635 154.22783 140.58344 153.32956 140.78516 152.50586 C 141.16563 151.20926 141.56244 149.77373 141.97657 148.19922 C 142.33597 146.84367 142.72393 145.25985 143.14063 143.44922 C 143.55376 141.6143 143.9671 139.60597 144.37891 137.42383 z M 273.73438 141.84961 C 262.2937 141.87796 255.10284 142.63327 245.19336 144.84571 C 228.01916 148.68009 209.58032 156.99842 197.06055 166.5625 C 192.9985 169.66556 184.63447 177.83824 181.39649 181.86719 C 174.46541 190.49137 168.36353 201.63696 164.97461 211.86133 C 157.91864 233.14912 158.4586 255.23483 166.56641 276.92579 C 169.46706 284.68604 169.93772 288.0125 169.4375 297.24219 C 168.23241 319.47712 170.0516 332.00493 176.79297 347.86134 C 188.48088 375.35256 213.27899 396.11896 242.88282 403.20704 C 245.47042 403.82658 247.69822 404.22367 247.83204 404.08985 C 247.96587 403.95602 247.76074 397.00297 247.37696 388.63868 C 245.77046 353.62646 245.59006 349.15545 245.75 348.16016 C 245.9118 347.15342 245.99909 347.17351 248.14454 348.73634 L 250.36915 350.35743 L 250.69141 356.81446 C 251.06021 364.20137 252.60168 398.88603 253.65626 423.49806 C 254.04957 432.677 254.586 444.54022 254.84766 449.86134 C 255.10933 455.18247 255.46684 462.73532 255.64258 466.64454 L 255.9629 473.75196 L 253.35938 473.9004 L 250.75586 474.04884 L 250.62696 487.47657 L 250.5 500.90626 L 274.08985 500.77931 L 297.67969 500.65431 L 297.81446 488.31837 C 297.88928 481.53392 297.83195 475.49317 297.68555 474.89454 C 297.45382 473.94711 297.10712 473.80665 295.00977 473.80665 L 292.59962 473.80665 L 292.60938 469.81642 C 292.61449 467.62146 292.82173 462.01537 293.07032 457.35938 C 293.31892 452.70339 293.75439 443.34304 294.03907 436.5586 C 294.32375 429.77416 294.87464 417.25797 295.26368 408.74415 C 295.65271 400.23034 296.0906 390.4353 296.23633 386.97657 C 296.78073 374.05646 297.96155 350.25371 298.06055 350.19141 C 298.117 350.15591 299.2225 349.41077 300.51758 348.53516 L 302.8711 346.94337 L 302.57422 352.20509 C 301.7004 367.66638 300.25294 403.73927 300.4961 403.98243 C 300.84311 404.32944 306.36631 403.04443 312.19141 401.26173 C 336.92437 393.69252 358.08505 375.59248 369.41993 352.31251 C 373.70677 343.50805 376.17967 335.98351 378.02344 326.13868 C 379.07287 320.53539 379.44135 306.44273 378.73634 298.82618 C 377.94481 290.27483 378.48173 286.73656 382.32227 275.23243 C 387.04889 261.07426 388.81106 249.94203 388.18946 238.16797 C 387.45176 224.19439 384.56661 212.79992 378.71095 200.73633 C 367.67618 178.00282 350.28057 162.19636 324.75001 151.70703 C 307.99043 144.8213 292.36975 141.80341 273.73438 141.84961 z M 134.98242 152.04688 C 135.03906 152.04438 135.09461 152.04449 135.15235 152.04688 C 135.78427 152.04099 136.27713 152.17951 136.62891 152.46289 C 136.98069 152.74627 137.22064 153.15239 137.34766 153.67969 C 137.48504 154.19306 137.52505 154.80794 137.46875 155.52344 C 137.42282 156.22501 137.3099 156.9737 137.12891 157.76953 C 136.97188 158.475 136.75439 159.27498 136.47657 160.17188 C 136.19874 161.06878 135.89309 162.07555 135.56055 163.19141 C 134.83204 162.4546 134.22583 161.70019 133.74024 160.92774 C 133.25108 160.13099 132.86158 159.38715 132.57422 158.69727 C 132.27293 157.99703 132.07148 157.38243 131.96875 156.85157 C 131.8521 156.31034 131.80712 155.91938 131.83399 155.67969 C 131.89517 155.3357 132.01428 154.97009 132.19336 154.58399 C 132.35852 154.18752 132.57625 153.80941 132.84571 153.44727 C 133.13588 153.05727 133.47824 152.72786 133.87305 152.45899 C 134.21539 152.20247 134.586 152.06434 134.98242 152.04688 z M 399.02345 152.86328 C 399.35995 153.00782 399.74671 153.22164 400.1836 153.50782 C 400.63053 153.80816 401.12272 154.14256 401.65821 154.50782 C 401.14472 154.74407 400.64935 155.02078 400.17188 155.33789 C 399.71862 155.65913 399.26784 156.029 398.82227 156.45117 C 397.54046 157.61498 396.569 158.85826 395.90821 160.17774 C 395.26159 161.48718 394.87599 162.80348 394.75001 164.12696 C 394.62403 165.45043 394.74271 166.7285 395.10548 167.96094 C 395.46411 169.21759 396.02401 170.35131 396.78516 171.36524 C 397.52212 172.37504 398.37465 173.36748 399.3418 174.3418 C 400.319 175.33029 401.40773 176.25145 402.60743 177.10352 C 403.83134 177.95972 405.17035 178.72316 406.62501 179.39453 C 408.08971 180.08008 409.68404 180.61981 411.41016 181.01368 C 410.78735 180.79543 410.14138 180.49889 409.47071 180.12305 C 408.80004 179.74721 408.1347 179.304 407.47462 178.79297 C 406.83874 178.28607 406.20733 177.71044 405.58204 177.06836 C 404.96679 176.44045 404.40261 175.76536 403.89063 175.04297 C 402.90684 173.65485 402.22219 172.23755 401.83399 170.78907 C 401.45995 169.33054 401.38425 167.90351 401.60938 166.50977 C 401.84868 165.10598 402.38464 163.75936 403.21485 162.46875 C 404.0551 161.19232 405.20513 160.03594 406.66407 159.00196 L 407.0879 158.70118 C 407.94518 159.37035 408.80847 160.04714 409.67579 160.73047 C 410.56731 161.41793 411.43597 162.08914 412.28321 162.74414 C 413.14462 163.38911 413.98176 163.99812 414.79298 164.57227 C 415.6284 165.15054 416.40609 165.66271 417.12696 166.10938 C 418.24223 166.87234 419.4844 167.69522 420.85352 168.57618 C 422.03136 169.33735 423.41691 170.19589 425.00977 171.15235 C 426.62684 172.11293 428.40782 173.12662 430.35548 174.19336 L 414.24024 162.21875 C 415.39566 163.03837 416.44602 163.70831 417.39063 164.23047 C 418.34528 164.7668 419.20138 165.19416 419.95704 165.50977 C 420.72274 165.83954 421.38664 166.06987 421.94923 166.20313 C 422.53602 166.34051 423.04661 166.41605 423.48048 166.42774 C 424.4834 166.46171 425.2378 166.23459 425.74415 165.74805 C 426.16193 165.19661 426.30101 164.59751 426.16212 163.95118 C 426.03327 163.319 425.71874 162.64963 425.21681 161.94141 C 424.4639 160.87907 423.55075 159.87602 422.47852 158.9336 C 421.4063 157.99118 420.22996 157.1441 418.95118 156.39063 C 417.68244 155.65132 416.33336 155.02181 414.90235 154.50391 C 413.48551 153.97597 412.04812 153.6003 410.59181 153.37696 C 409.14553 153.16778 407.70856 153.1224 406.28126 153.24024 C 404.86399 153.37224 403.51768 153.70973 402.2422 154.25196 C 401.74864 154.00593 401.22968 153.76718 400.6836 153.53711 C 400.15168 153.297 399.59786 153.07328 399.02345 152.86328 z M 414.83399 156.33203 C 415.15792 156.33121 415.45241 156.34758 415.72071 156.38086 C 416.27147 156.43739 416.65735 156.51553 416.87696 156.61524 C 417.18514 156.77985 417.4949 157.00712 417.80665 157.29688 C 418.13256 157.57659 418.4265 157.90126 418.68751 158.26953 C 418.96859 158.66614 419.17508 159.09411 419.3086 159.55274 C 419.46633 160.01549 419.46573 160.46317 419.3047 160.89649 C 419.11478 161.49923 418.82949 161.92308 418.45118 162.16993 C 418.07287 162.41677 417.61495 162.51893 417.07423 162.47657 C 416.54354 162.44837 415.94618 162.29835 415.28321 162.02344 C 414.63028 161.7627 413.95275 161.42225 413.25196 161.00391 C 412.62969 160.63632 411.93491 160.18232 411.16798 159.64063 C 410.40104 159.09894 409.53831 158.49741 408.58009 157.83594 C 409.50614 157.37114 410.41209 157.02746 411.29688 156.80469 C 412.20588 156.58604 413.03242 156.44654 413.77735 156.38672 C 414.1569 156.3518 414.51007 156.33286 414.83399 156.33203 z M 425.32813 172.79883 C 425.90187 173.23731 426.42505 173.70851 426.89649 174.21485 C 427.38361 174.71373 427.81292 175.21241 428.1836 175.70899 C 428.57742 176.21379 428.90901 176.69067 429.1797 177.13868 C 429.45784 177.60236 429.691 177.99034 429.87891 178.30469 C 427.79438 179.2574 425.96948 180.08628 424.40235 180.79297 C 422.83522 181.49966 421.51853 182.08851 420.45313 182.55664 C 419.20781 183.0911 418.13359 183.5634 417.23243 183.97266 C 415.54809 184.71586 414.18858 185.51407 413.15431 186.3711 C 412.12003 187.22813 411.35691 188.11098 410.86524 189.01758 C 410.37358 189.92419 410.12002 190.84388 410.10157 191.77539 C 410.09057 192.72259 410.269 193.66432 410.63868 194.60352 C 411.0009 195.52704 411.55748 196.43573 412.3086 197.32813 C 413.0515 198.24366 413.95519 199.1305 415.01759 199.99024 C 416.08743 200.86565 417.29791 201.71436 418.64845 202.53321 C 419.99898 203.35206 421.45808 204.13734 423.02735 204.89063 C 421.71563 204.07255 420.62348 203.16965 419.75001 202.18164 C 418.88399 201.20931 418.21577 200.22997 417.7461 199.24219 C 417.28389 198.27009 416.99649 197.3209 416.88282 196.39454 C 416.78484 195.46072 416.8208 194.58739 416.9922 193.77539 C 417.17105 192.97908 417.48844 192.2704 417.94337 191.65039 C 418.39829 191.03039 418.96603 190.54878 419.64845 190.20508 C 421.74943 189.20611 423.8855 188.20062 426.05665 187.1875 C 428.2278 186.17439 430.44222 185.14995 432.69923 184.11524 C 433.29871 185.2143 433.96491 186.2906 434.69727 187.34571 C 435.43709 188.41649 436.2484 189.41574 437.13087 190.3418 C 438.02902 191.26041 439.00722 192.08293 440.06446 192.81055 C 441.12916 193.55385 442.28593 194.14771 443.53517 194.5918 C 443.25241 194.361 442.95132 194.05285 442.63282 193.66602 C 442.32178 193.29487 442.00837 192.87657 441.69142 192.41211 C 441.39014 191.94021 441.08532 191.44047 440.77735 190.91407 C 440.47684 190.40335 440.1953 189.89277 439.9336 189.38282 C 439.29685 188.20536 438.67424 186.93557 438.06446 185.57227 L 437.59376 184.58399 L 437.10157 183.55078 C 436.93087 183.15136 436.75629 182.74324 436.57813 182.32813 L 444.5254 178.66407 C 444.1023 178.46154 443.57278 178.17649 442.93556 177.80664 C 442.39833 177.48538 441.7227 177.05593 440.91016 176.51953 C 440.09763 175.98314 439.15656 175.29754 438.08595 174.46094 C 436.51805 175.20644 435.21463 175.68011 434.17774 175.88477 C 433.14086 176.08943 432.30585 176.17062 431.66993 176.12696 C 430.93325 176.07353 430.35439 175.88732 429.9336 175.56836 C 429.43442 175.28668 428.92817 174.98883 428.41407 174.67578 C 427.96115 174.41055 427.46071 174.11039 426.91602 173.77344 C 426.37879 173.45217 425.84969 173.12756 425.32813 172.79883 z M 138.14258 175.52149 C 138.37892 176.45054 138.48563 177.33131 138.46289 178.16016 C 138.43023 178.96656 138.28761 179.69216 138.03711 180.33985 C 137.7553 181.0685 137.39227 181.62616 136.94532 182.01172 C 136.49836 182.39729 135.99189 182.64757 135.42578 182.76368 C 134.85968 182.87978 134.24353 182.88383 133.57813 182.77539 C 132.91898 182.65076 132.24119 182.45484 131.54492 182.18555 C 130.37908 181.73465 129.04911 181.1536 127.55469 180.44532 C 126.06653 179.72084 124.41641 178.98086 122.60547 178.22461 C 121.086 177.5811 119.73567 177.27237 118.55274 177.29883 C 117.35987 177.30284 116.32145 177.50671 115.43946 177.91016 C 114.54126 178.30735 113.79364 178.84665 113.19531 179.52735 C 112.58706 180.18559 112.09381 180.85971 111.71485 181.55078 C 111.34581 182.26432 111.12362 183.10021 111.05078 184.0586 C 110.96175 185.01072 110.99108 186.01783 111.13867 187.08008 C 111.28626 188.14234 111.53816 189.22701 111.89258 190.33204 C 112.23081 191.4308 112.63773 192.47269 113.11328 193.45704 C 112.09639 193.34295 111.1895 193.40122 110.39258 193.63282 C 109.57947 193.85815 108.85682 194.18302 108.22656 194.60938 C 107.60257 195.01954 107.06061 195.50795 106.59961 196.07422 C 106.14487 196.62431 105.76345 197.17496 105.45703 197.72657 C 105.04049 198.5148 104.80932 199.45066 104.76367 200.53125 C 104.70184 201.60558 104.77876 202.73327 104.99219 203.91407 C 105.19569 205.0724 105.51253 206.24633 105.94531 207.4375 C 106.36817 208.60622 106.8595 209.69919 107.41602 210.71485 C 106.52911 210.40906 105.69477 210.17962 104.91602 210.02735 C 104.12734 209.85262 103.40131 209.78434 102.73438 209.82422 C 101.97396 209.86518 101.34602 210.11591 100.85156 210.57618 C 100.36337 211.02025 99.987638 211.5836 99.724611 212.26368 C 99.44906 212.97613 99.296581 213.75457 99.26758 214.59961 C 99.22865 215.4222 99.262343 216.27144 99.369143 217.15039 C 99.475942 218.02935 99.637039 218.91274 99.853518 219.79688 C 100.0538 220.67476 100.25961 221.51542 100.46875 222.32227 C 100.4362 221.73264 100.44817 221.19783 100.50391 220.7168 C 100.54972 220.21332 100.65008 219.76028 100.80664 219.35547 C 101.29512 218.09248 102.21703 217.36874 103.57227 217.18555 C 104.91132 216.9961 106.54471 217.32143 108.47266 218.16016 C 109.55754 218.57975 110.92521 219.13451 112.57422 219.82813 C 113.98661 220.41162 115.77839 221.17085 117.94922 222.10352 C 120.12005 223.03619 122.73986 224.17881 125.8086 225.53321 L 123.875 218.11329 C 120.47142 216.51769 117.66892 215.09927 115.46875 213.85743 C 113.25865 212.59313 111.54638 211.41748 110.32813 210.33204 C 109.10987 209.24659 108.34424 208.2168 108.03321 207.24024 C 107.72843 206.24749 107.78199 205.21518 108.19531 204.14649 C 108.65874 202.94826 109.26488 202.10353 110.01367 201.61133 C 110.76873 201.10294 111.60103 200.8285 112.50977 200.78907 C 113.42477 200.73344 114.39307 200.85715 115.41211 201.15821 C 116.43741 201.44307 117.45116 201.7797 118.45508 202.16797 C 119.50758 202.57504 120.6325 203.03838 121.82813 203.55664 C 123.01383 204.05246 124.205 204.57786 125.4043 205.13477 C 126.6036 205.69168 127.7849 206.26992 128.94922 206.86914 C 130.10361 207.44592 131.18184 208.02966 132.18164 208.6211 L 130.45703 200.80664 C 128.0647 199.67663 125.98828 198.71613 124.22852 197.92383 C 122.45883 197.10908 120.99113 196.42916 119.82422 195.88477 C 118.463 195.26523 117.31351 194.74619 116.37696 194.32813 L 116.23242 194.27149 C 115.78576 193.83813 115.39869 193.39219 115.07422 192.93164 C 114.73983 192.44864 114.48605 191.94941 114.3125 191.43555 C 114.12903 190.89923 114.04648 190.34624 114.0625 189.77539 C 114.07853 189.20455 114.20889 188.6022 114.45313 187.97071 C 114.89777 186.82106 115.4662 185.9987 116.16016 185.50391 C 116.85411 185.00912 117.63203 184.73401 118.49219 184.67578 C 119.35235 184.61756 120.28231 184.73451 121.28516 185.0293 C 122.27808 185.30164 123.29378 185.63826 124.33008 186.03907 C 125.59307 186.52754 126.85703 187.06257 128.1211 187.64453 C 129.37523 188.20404 130.52627 188.71583 131.57617 189.17774 C 132.77807 189.67981 133.8212 190.0377 134.70703 190.25 C 135.57668 190.45605 136.33536 190.51644 136.98242 190.43164 C 137.6133 190.34059 138.14542 190.09886 138.57617 189.70704 C 139.02313 189.32147 139.38485 188.791 139.66407 188.11719 C 139.94328 187.44338 140.12384 186.71339 140.20508 185.92578 C 140.30878 185.12825 140.3049 184.22398 140.19336 183.21289 C 140.08182 182.20181 139.85819 181.07131 139.52149 179.82422 C 139.19104 178.56094 138.73165 177.12678 138.14258 175.52149 z M 461.02735 190.89258 C 461.42816 191.34664 461.73569 191.78964 461.95118 192.21875 C 462.18351 192.64363 462.35299 193.06545 462.45899 193.48633 C 462.78972 194.79949 462.46059 195.91299 461.47267 196.82422 C 460.48899 197.75229 458.96508 198.44923 456.89845 198.91602 C 455.55162 199.25523 453.195 199.82196 449.83204 200.61524 C 448.39679 200.95881 446.67401 201.36504 444.66212 201.83594 C 442.65023 202.30684 440.27521 202.86166 437.53516 203.49805 C 434.81619 204.14704 431.70501 204.87519 428.20313 205.68555 C 424.70125 206.49591 420.75354 207.41999 416.35938 208.45508 L 422.22852 213.42188 C 425.40642 212.74683 428.1501 212.26137 430.45704 211.9668 C 432.78082 211.66799 434.72471 211.49932 436.29102 211.46289 C 437.87417 211.42223 439.09748 211.48213 439.96095 211.64063 C 440.84125 211.79489 441.42944 211.99623 441.72462 212.24414 C 442.07043 212.55092 442.3917 213.00746 442.68751 213.61329 C 442.98332 214.21911 443.22522 214.90062 443.41602 215.65821 C 443.78915 217.13972 443.92578 218.38574 443.82227 219.39649 C 443.72301 220.42407 443.38424 221.2883 442.8086 221.98829 C 442.25404 222.70086 441.46247 223.28564 440.43165 223.74219 C 439.40507 224.21558 438.14093 224.64021 436.64259 225.01758 C 435.32943 225.34831 433.98913 225.64146 432.6211 225.89649 C 431.27415 226.16412 430.03988 226.41129 428.91602 226.64063 C 427.64489 226.92497 426.586 227.23784 425.74024 227.57618 C 424.91132 227.91027 424.2566 228.29728 423.77735 228.74024 C 423.31494 229.17896 423.0202 229.67474 422.89063 230.22657 C 422.74847 230.79947 422.75673 231.44102 422.91798 232.15235 C 423.07923 232.86367 423.35718 233.57454 423.75001 234.28125 C 424.13024 235.00904 424.65538 235.74417 425.32618 236.48829 C 426.00122 237.24924 426.83688 238.04168 427.83204 238.86524 C 428.83144 239.70563 430.03173 240.60132 431.43556 241.55469 C 430.70602 240.93278 430.11414 240.2862 429.65821 239.61329 C 429.21912 238.93613 428.91213 238.25275 428.73829 237.5625 C 428.54748 236.80491 428.53242 236.13769 428.69141 235.56055 C 428.85041 234.98341 429.13 234.49282 429.52931 234.0879 C 429.94545 233.67873 430.45831 233.33366 431.06837 233.05469 C 431.69527 232.77148 432.36984 232.53975 433.09376 232.35743 C 434.3059 232.05214 435.70771 231.75231 437.29884 231.45899 C 438.91104 231.17827 440.66618 230.82478 442.56446 230.4004 C 444.1723 230.03125 445.45359 229.50247 446.40821 228.81446 C 447.37967 228.12221 448.10712 227.34976 448.58985 226.49415 C 449.07683 225.65537 449.37618 224.78245 449.48829 223.87696 C 449.60464 222.9883 449.62072 222.16073 449.53517 221.39454 C 449.39424 220.26632 449.01687 219.12532 448.40431 217.97266 C 447.81282 216.8326 447.06338 215.74189 446.15626 214.69922 C 445.26597 213.65232 444.26192 212.68698 443.14454 211.80469 C 442.044 210.91816 440.90958 210.18481 439.7422 209.60157 C 441.40478 209.23654 443.04061 208.86914 444.64845 208.5 C 446.27312 208.12662 447.82177 207.77272 449.29493 207.4375 C 450.76809 207.10228 452.14792 206.78198 453.43165 206.47657 C 454.71962 206.18799 455.86186 205.92669 456.85938 205.69336 C 457.85691 205.46003 458.68327 205.26107 459.33985 205.09571 C 460.01751 204.94294 460.48381 204.83314 460.73634 204.76954 C 461.22456 204.64657 461.75216 204.50475 462.32032 204.34375 C 462.88848 204.18275 463.44685 203.98811 463.99806 203.75977 C 464.5535 203.54826 465.0713 203.29394 465.55079 202.99414 C 466.04712 202.69011 466.45777 202.32594 466.78126 201.9043 C 467.12582 201.49526 467.36425 201.02328 467.49806 200.48829 C 467.63186 199.95329 467.61493 199.3492 467.44532 198.67579 C 467.25452 197.91819 466.92731 197.18706 466.4629 196.48047 C 466.01956 195.78648 465.49916 195.11091 464.90431 194.45508 C 464.31369 193.81609 463.67568 193.19828 462.98829 192.60157 C 462.31774 192.00061 461.66411 191.43044 461.02735 190.89258 z M 235.10547 212.55274 C 238.4358 211.9094 310.43444 211.99725 313.49805 212.64844 C 315.52543 213.07938 316.53063 213.66079 318.30469 215.42969 C 321.86878 218.98341 322.51148 222.75972 320.29493 227.13086 C 318.43764 230.79351 315.94438 232.44582 311.76563 232.78125 L 308.56251 233.03711 L 308.56251 230.4961 C 308.56251 228.36145 308.79502 227.68876 310.01368 226.30079 C 312.52294 223.44289 311.69663 219.30171 308.29493 217.6875 C 305.85801 216.5311 303.69888 217.01972 301.82813 219.15039 C 299.95504 221.28373 299.87512 223.37802 301.57227 225.87891 C 302.57128 227.35115 302.7771 228.16664 302.66016 230.17969 L 302.51563 232.66211 L 295.13868 232.79688 L 287.76172 232.92969 L 287.76172 230.20508 C 287.76172 228.00496 287.99599 227.20564 288.97266 226.04493 C 290.72229 223.9656 290.65316 220.93526 288.81251 218.96485 C 286.168 216.13388 282.0954 216.60583 279.97852 219.98829 C 278.7881 221.89042 279.01815 224.1331 280.62696 226.29883 C 281.56188 227.55713 281.72733 228.27276 281.57032 230.36524 L 281.38086 232.9043 L 273.92969 232.9043 L 266.47852 232.9043 L 266.47852 230.19336 C 266.47852 228.00665 266.71229 227.2039 267.68751 226.04493 C 268.55747 225.01103 268.89649 224.03601 268.89649 222.57422 C 268.89649 220.23731 267.98277 218.69545 265.98829 217.66407 C 264.09917 216.68717 262.67444 216.7581 260.76563 217.92188 C 257.73157 219.77169 257.10238 223.97267 259.51758 226.26172 C 260.45356 227.14883 260.65707 227.83671 260.66407 230.12305 L 260.67188 232.9043 L 253.17383 232.9043 L 245.67774 232.9043 L 245.67774 230.06836 C 245.67774 228.04801 245.93391 226.89769 246.57032 226.07618 C 250.03352 221.60572 245.86264 215.70554 240.48438 217.4668 C 236.79289 218.67569 235.72718 223.23392 238.41993 226.30079 C 239.62806 227.67677 239.8711 228.36863 239.8711 230.42969 L 239.87305 232.9043 L 237.33204 232.89454 C 231.31494 232.86937 226.78922 228.34818 226.82422 222.39844 C 226.85166 217.74086 230.46181 213.44987 235.10547 212.55274 z M 448.36134 238.86915 C 448.52821 239.25759 448.65806 239.62343 448.75196 239.96485 C 448.84587 240.30627 448.9029 240.62358 448.92384 240.91797 C 448.97804 241.67994 448.75193 242.27029 448.2422 242.68946 C 447.74978 243.10739 446.93151 243.37431 445.79102 243.49024 C 444.61591 243.60864 443.42907 243.68571 442.23048 243.71875 C 441.05043 243.76788 439.85119 243.79138 438.63282 243.79102 C 437.433 243.80675 436.21689 243.82361 434.98243 243.8418 C 433.76529 243.85876 432.53397 243.91131 431.28712 244 C 429.79783 244.10594 428.62793 244.31121 427.77931 244.61524 C 426.93068 244.91927 426.28618 245.27912 425.84571 245.69336 C 425.42379 246.12369 425.14455 246.58679 425.00587 247.08399 C 424.86718 247.58119 424.77158 248.08344 424.72071 248.5918 C 424.65623 249.15335 424.67345 249.77168 424.77345 250.44336 C 424.87344 251.11505 425.14035 251.93136 425.57423 252.89258 C 426.0081 253.8538 426.64633 254.99154 427.48829 256.30665 C 428.33148 257.63907 429.47289 259.24517 430.91212 261.12696 C 430.25435 260.19907 429.76544 259.32031 429.44532 258.49024 C 429.1252 257.66017 428.93846 256.88163 428.88673 256.1543 C 428.8276 255.32307 428.91427 254.5684 429.14454 253.89063 C 429.39336 253.22895 429.72632 252.65806 430.14454 252.17579 C 430.58131 251.70959 431.07736 251.34391 431.63282 251.07813 C 432.18828 250.81235 432.75348 250.66787 433.32618 250.64454 C 433.93352 250.61874 434.7923 250.59134 435.90431 250.56446 C 437.03363 250.53634 438.25832 250.50065 439.57813 250.45899 C 440.91526 250.41609 442.26815 250.36346 443.63868 250.30079 C 445.01045 250.25543 446.25915 250.19335 447.38477 250.11329 C 448.14674 250.05909 448.81381 249.99521 449.38282 249.91993 C 449.95306 249.86196 450.38314 249.79555 450.67384 249.72266 C 451.42471 249.51261 451.94477 249.11858 452.23438 248.54102 C 452.52523 247.98078 452.64549 247.33671 452.59376 246.60938 C 452.54572 245.934 452.38378 245.25872 452.10938 244.58204 C 451.85354 243.92144 451.52916 243.26598 451.13477 242.61524 C 450.74039 241.9645 450.29394 241.32526 449.79688 240.69922 C 449.31714 240.07196 448.83862 239.46177 448.36134 238.86915 z M 93.539064 239.51172 C 93.684597 239.84645 93.810227 240.26023 93.916017 240.75 C 94.022368 241.22243 94.110842 241.73686 94.179689 242.29493 C 94.231184 242.85243 94.272226 243.43592 94.304689 244.04493 C 94.337713 244.63658 94.354639 245.21784 94.353517 245.79102 C 94.379822 247.12937 94.350426 248.544 94.26758 250.03516 L 94.232424 251.12891 L 94.195314 252.2754 C 94.163967 252.70864 94.133471 253.14902 94.101564 253.59961 L 85.359377 253.21485 C 85.642606 253.58876 85.982051 254.08433 86.378908 254.70508 C 86.709156 255.23684 87.113505 255.92822 87.589845 256.77735 C 88.066186 257.62648 88.588115 258.66811 89.156252 259.90235 C 90.891459 259.95833 92.265876 260.13248 93.281252 260.42579 C 94.296627 260.7191 95.077859 261.03108 95.623049 261.36133 C 96.25332 261.74644 96.682344 262.17796 96.910158 262.6543 C 97.224733 263.13344 97.538109 263.62874 97.851564 264.14258 C 98.132555 264.5859 98.437892 265.08371 98.76758 265.63282 C 99.097828 266.16458 99.419528 266.69537 99.732424 267.22657 C 99.423447 266.57391 99.175236 265.91415 98.988283 265.24805 C 98.783978 264.5814 98.631171 263.94328 98.529299 263.33204 C 98.410635 262.70288 98.334093 262.12576 98.29883 261.60352 C 98.264127 261.06393 98.235841 260.61161 98.212893 260.2461 C 100.50225 260.3547 102.50397 260.4548 104.22071 260.54493 C 105.93744 260.63505 107.3776 260.71686 108.53906 260.78907 C 109.89085 260.88479 111.06032 260.9566 112.04883 261.00586 C 113.88647 261.11726 115.4614 261.0299 116.77344 260.74219 C 118.08548 260.45449 119.16704 260.01991 120.01953 259.43946 C 120.87203 258.85901 121.52153 258.15931 121.96485 257.33985 C 122.40873 256.50303 122.68133 255.58231 122.78321 254.57813 C 122.88452 253.5913 122.80548 252.52803 122.54688 251.39063 C 122.30619 250.23644 121.91156 249.03424 121.36133 247.78321 C 120.81167 246.51483 120.12389 245.20808 119.29883 243.86133 C 118.47377 242.51459 117.53585 241.14655 116.48633 239.75782 C 117.27725 241.08609 117.83468 242.38952 118.15821 243.66797 C 118.48229 244.92908 118.62707 246.10604 118.5918 247.19922 C 118.55709 248.27505 118.37822 249.24957 118.05469 250.125 C 117.7138 250.99988 117.28034 251.7592 116.75586 252.40235 C 116.23194 253.02814 115.62599 253.51291 114.9375 253.85547 C 114.24902 254.19804 113.52187 254.36666 112.75781 254.35938 C 110.43264 254.28437 108.07372 254.19812 105.67969 254.10352 C 103.28566 254.00892 100.84937 253.90382 98.369143 253.78907 C 98.340039 252.53748 98.241581 251.27538 98.074221 250.00196 C 97.90742 248.71119 97.643117 247.45213 97.283205 246.22461 C 96.905941 244.99653 96.414796 243.8168 95.808596 242.68555 C 95.202955 241.53695 94.445848 240.47896 93.539064 239.51172 z M 463.03321 242.16016 C 464.46498 244.18172 465.52563 245.64658 466.21681 246.55469 C 466.62112 247.1003 466.97513 247.55475 467.27931 247.91602 C 467.75782 248.52597 468.36778 248.89029 469.10743 249.01172 C 469.84708 249.13316 470.72633 249.15862 471.74806 249.08594 C 472.18099 249.05515 472.62326 249.01419 473.07227 248.96485 C 473.53861 248.91427 474.0232 248.87166 474.5254 248.83594 C 474.12601 248.35961 473.68534 247.79081 473.20313 247.12891 C 472.78027 246.56722 472.2879 245.88731 471.72657 245.0918 C 471.18256 244.29506 470.58463 243.37261 469.93556 242.32227 C 469.03752 242.42096 468.1716 242.48137 467.3379 242.50586 C 466.62543 242.52173 465.86845 242.50623 465.06446 242.45899 C 464.27902 242.42783 463.60215 242.32855 463.03321 242.16016 z M 293.72657 254.69532 C 295.48495 254.70123 297.33839 254.86982 298.86524 255.19727 L 301.30665 255.72071 L 301.30665 258.24805 C 301.30665 260.73213 299.78656 296.38898 298.91212 314.41407 L 298.4668 323.60548 L 296.86329 324.98438 C 295.9816 325.7428 293.73545 327.51221 291.87305 328.91602 C 290.01065 330.31985 287.96553 331.73752 287.32813 332.06641 L 286.16993 332.66407 L 286.48829 300.56251 C 286.66374 282.90614 286.94228 265.57731 287.10743 262.05469 L 287.40821 255.6504 L 289.15821 255.16407 C 290.30473 254.84559 291.96819 254.68941 293.72657 254.69532 z M 255.22266 254.80079 C 257.38695 254.85091 259.42208 255.05259 260.24415 255.38086 C 261.0942 255.72031 261.24165 260.51386 261.94532 310.42383 C 262.12588 323.23072 262.07669 332.54732 261.82813 332.53712 C 261.19544 332.51086 255.28855 328.26625 252.32422 325.70704 L 249.75196 323.48633 L 249.16211 310.00196 C 248.83764 302.58538 248.25658 289.11624 247.8711 280.07032 C 247.48561 271.0244 247.05312 261.8421 246.90821 259.66602 L 246.64454 255.70899 L 249.42579 255.13086 C 250.76435 254.85263 253.05837 254.75067 255.22266 254.80079 z M 267.17579 258.67383 C 267.69755 258.6094 271.63373 262.0324 272.7461 263.54493 L 273.9336 265.16016 L 277.25586 261.79102 C 279.0833 259.93802 280.7343 258.61292 280.92383 258.84571 C 281.33507 259.35084 280.64882 321.46953 280.13672 330.10938 L 279.78126 336.12891 L 276.89649 337.24415 C 275.3098 337.85768 274.00219 338.3503 273.99219 338.3379 C 273.98255 338.32545 272.90016 337.89592 271.58594 337.38282 C 270.27173 336.8697 268.93801 336.17117 268.62305 335.83204 C 268.2017 335.37833 267.91151 325.12761 267.51954 297.0293 C 267.22666 276.02626 267.05257 258.77361 267.13477 258.69141 C 267.14429 258.6819 267.15896 258.67591 267.17579 258.67383 z M 450.4961 258.97071 C 450.67831 259.53243 450.80397 260.05196 450.87306 260.53126 C 450.95748 261.02972 450.97562 261.49441 450.92774 261.92579 C 450.77838 263.27169 450.07198 264.20691 448.8086 264.73047 C 447.56248 265.25596 445.90058 265.359 443.82227 265.04102 C 442.66618 264.91272 441.20319 264.72557 439.43165 264.47657 C 437.91702 264.27355 435.98948 263.9971 433.65235 263.6504 C 431.31522 263.30369 428.49076 262.86863 425.17774 262.34376 L 428.94337 269.02344 C 429.59909 269.25342 430.38029 269.44636 431.28907 269.59961 C 432.21511 269.75479 433.20522 269.89914 434.25587 270.03321 C 435.3046 270.18453 436.38612 270.34721 437.50196 270.52344 C 438.63506 270.70159 439.72871 270.91902 440.78321 271.17579 C 441.85305 271.45172 442.84724 271.78071 443.76563 272.16211 C 444.69937 272.56269 445.50075 273.05394 446.16993 273.63477 C 446.83912 274.2156 447.33811 274.90771 447.66798 275.7129 C 448.0151 276.52 448.12846 277.46762 448.00782 278.55469 C 447.84122 280.05589 447.53246 281.26114 447.08204 282.17188 C 446.6297 283.09987 446.0126 283.79162 445.22852 284.2461 C 444.45979 284.71975 443.51208 284.99948 442.38477 285.08399 C 441.25746 285.1685 439.92439 285.12551 438.38868 284.95508 C 437.04278 284.80572 435.6853 284.61057 434.31446 284.3711 C 432.96088 284.13355 431.71709 283.9262 430.58399 283.74805 C 429.29368 283.56992 428.19388 283.49051 427.28321 283.51172 C 426.38979 283.53485 425.64101 283.67057 425.03712 283.91797 C 424.45048 284.16729 423.99988 284.53646 423.6836 285.0254 C 423.35007 285.51241 423.13285 286.11705 423.03516 286.83985 C 422.93748 287.56265 422.94943 288.32359 423.07032 289.12305 C 423.17396 289.9206 423.40908 290.79517 423.7754 291.74415 C 424.14171 292.69312 424.64669 293.72614 425.29102 294.84571 C 425.93344 295.98253 426.74673 297.24286 427.72852 298.62696 C 427.26253 297.7892 426.93406 296.96728 426.74415 296.16016 C 426.56958 295.37221 426.52107 294.63357 426.59766 293.94337 C 426.68384 293.16688 426.90118 292.53589 427.25196 292.05079 C 427.60275 291.56569 428.03708 291.19448 428.5547 290.93751 C 429.08765 290.6997 429.68833 290.55779 430.35743 290.50977 C 431.04379 290.46367 431.75804 290.48016 432.50001 290.56251 C 433.74238 290.70038 435.16064 290.91988 436.75196 291.21876 C 438.36054 291.51954 440.12786 291.80213 442.0547 292.06837 C 443.69011 292.28479 445.07404 292.23848 446.20899 291.92774 C 447.3612 291.61891 448.313 291.14841 449.06446 290.51563 C 449.81401 289.90011 450.4006 289.18803 450.82227 288.37891 C 451.24204 287.58705 451.54664 286.80797 451.73634 286.04297 C 451.9931 284.98847 452.05025 283.84202 451.90821 282.60352 C 451.76617 281.36502 451.47636 280.11904 451.03907 278.86524 C 450.60178 277.61144 450.04001 276.3877 449.35157 275.19336 C 448.66122 274.01629 447.89858 272.9346 447.06446 271.95118 C 447.93105 272.01241 448.73259 272.02279 449.47071 271.98243 C 450.20692 271.95932 450.88465 271.84379 451.50196 271.63282 C 452.22664 271.39882 452.76856 270.99521 453.12892 270.42383 C 453.48736 269.86971 453.70669 269.23058 453.78712 268.50586 C 453.87137 267.74664 453.81887 266.95524 453.63087 266.13086 C 453.45821 265.32566 453.20882 264.5119 452.88087 263.68946 C 452.55292 262.86702 452.17165 262.05528 451.73634 261.25586 C 451.31828 260.45836 450.90457 259.69728 450.4961 258.97071 z M 307.63672 259.02735 C 308.76297 259.02735 313.39212 264.46374 314.99805 267.67383 C 317.37815 272.43147 317.96732 276.44411 317.29102 283.30079 C 316.18635 294.50036 313.14403 303.5118 307.48243 312.35938 C 306.16299 314.42133 304.97243 316.10743 304.83594 316.10743 C 304.69945 316.10743 304.72924 313.76832 304.90235 310.90821 C 305.27042 304.82763 307.11095 262.90865 307.11133 260.59961 C 307.11148 259.73493 307.34762 259.02735 307.63672 259.02735 z M 240.41016 259.28126 C 240.61643 259.27527 240.7322 259.45079 240.85547 259.75196 C 241.07327 260.28408 241.70822 272.14922 242.26563 286.11719 C 242.82303 300.08516 243.40447 312.54679 243.55665 313.81055 C 243.70163 315.01508 243.69855 316.01086 243.55665 316.10157 C 243.55074 316.10468 243.54154 316.10743 243.53516 316.10743 C 243.06296 316.10743 239.19488 309.91169 237.25782 306.05274 C 233.54383 298.65394 230.68165 286.94723 230.68165 279.15626 C 230.68165 272.32337 233.06282 266.30654 237.59375 261.69922 C 239.29675 259.96752 240.01638 259.29269 240.41016 259.28126 z M 95.886721 263.63477 L 104.68946 281.67969 C 104.04042 280.42052 103.417 279.34146 102.81836 278.44336 C 102.21732 277.52808 101.65476 276.75669 101.12891 276.12891 C 100.60066 275.48393 100.11601 274.97277 99.677736 274.59571 C 99.21987 274.20385 98.801763 273.90329 98.421877 273.69336 C 97.54694 273.20195 96.77299 273.05671 96.099611 273.25586 C 95.47502 273.55339 95.07627 274.02041 94.902346 274.65821 C 94.726022 275.27882 94.696419 276.01919 94.816408 276.87891 C 94.996392 278.16849 95.346559 279.47864 95.865236 280.8086 C 96.383914 282.13856 97.037185 283.43228 97.826174 284.68946 C 98.612763 285.92944 99.522183 287.10856 100.55469 288.22657 C 101.57 289.34698 102.67283 290.34091 103.86328 291.20899 C 105.05133 292.05988 106.30731 292.76072 107.62891 293.31251 C 108.94811 293.84709 110.29773 294.16637 111.67969 294.27149 C 112.0048 294.71694 112.35724 295.16761 112.73633 295.62305 C 113.09823 296.0809 113.48691 296.53569 113.90039 296.98633 C 113.66806 296.70323 113.42235 296.33396 113.16602 295.87891 C 112.90729 295.40667 112.62393 294.88507 112.31641 294.31446 C 112.88103 294.34083 113.44972 294.32372 114.01953 294.26172 C 114.56976 294.18493 115.13871 294.0606 115.72852 293.89063 C 117.40197 293.44672 118.83571 292.7916 120.0293 291.92383 C 121.2057 291.05847 122.15447 290.06649 122.875 288.94922 C 123.59554 287.83196 124.07759 286.64402 124.32227 285.38282 C 124.58174 284.10202 124.60606 282.83634 124.39649 281.58594 C 124.20651 280.35034 123.90681 279.07755 123.4961 277.76758 C 123.08299 276.44042 122.54062 275.12282 121.86719 273.81446 C 121.17417 272.4913 120.33645 271.19681 119.35352 269.93165 C 118.36819 268.64929 117.19926 267.43657 115.84766 266.29297 C 116.30033 266.77321 116.73747 267.33439 117.16016 267.97657 C 117.58284 268.61875 117.9692 269.31883 118.32031 270.07618 C 118.65183 270.81873 118.94904 271.61885 119.20899 272.47657 C 119.46653 273.31709 119.65496 274.17582 119.77735 275.05274 C 120.01253 276.7378 119.96989 278.31261 119.64844 279.77735 C 119.30979 281.24449 118.7198 282.54367 117.87891 283.67774 C 117.02082 284.81421 115.92646 285.7651 114.59571 286.5293 C 113.26255 287.27631 111.71048 287.77431 109.93946 288.02149 L 109.42383 288.0918 C 108.97034 287.10333 108.51644 286.10723 108.06055 285.10157 C 107.58507 284.08111 107.12101 283.08456 106.66992 282.11329 C 106.20164 281.14441 105.73949 280.21885 105.28321 279.33594 C 104.80733 278.43824 104.35266 277.62464 103.91797 276.89649 C 103.27854 275.70609 102.55278 274.40607 101.74219 272.99415 C 101.04637 271.77656 100.21087 270.37679 99.23633 268.79493 C 98.242196 267.19827 97.125585 265.47774 95.886721 263.63477 z M 101.09766 279.77735 C 101.49216 279.77406 101.88989 279.89794 102.29297 280.14844 C 102.75123 280.41754 103.21156 280.826 103.67383 281.37501 C 104.1337 281.90682 104.57988 282.51913 105.00977 283.2129 C 105.39327 283.82549 105.80053 284.5491 106.23242 285.38282 C 106.66431 286.21654 107.15256 287.14773 107.69922 288.17579 C 106.66315 288.16262 105.70258 288.05091 104.81446 287.8418 C 103.90674 287.6179 103.10696 287.36176 102.41797 287.07227 C 101.71179 286.78519 101.13728 286.48753 100.69141 286.18165 C 100.22835 285.87816 99.920645 285.6329 99.771486 285.44337 C 99.57354 285.15546 99.403335 284.81083 99.259768 284.41016 C 99.099006 284.01189 98.988178 283.58964 98.925783 283.14258 C 98.858589 282.66114 98.870537 282.18546 98.962893 281.7168 C 99.035654 281.23335 99.243659 280.83611 99.585939 280.5254 C 100.03178 280.07752 100.47828 279.83036 100.92774 279.78516 C 100.98392 279.77951 101.0413 279.77782 101.09766 279.77735 z M 409.96095 288.54688 C 409.53507 288.56226 409.11405 288.63015 408.69727 288.75001 C 407.59176 289.05328 406.57167 289.58185 405.63673 290.33399 C 404.69591 291.10246 403.87355 292.00532 403.16798 293.04297 C 402.44607 294.07475 401.89969 295.10564 401.5293 296.13477 C 400.912 297.84998 400.61629 299.61521 400.64454 301.4336 C 400.65646 303.24611 400.88885 305.0638 401.33985 306.88672 C 401.76864 308.72011 402.34878 310.54432 403.08009 312.35743 C 403.78917 314.18099 404.5264 315.95093 405.29298 317.66602 C 405.73084 318.65392 406.30211 319.47751 407.00587 320.13673 C 407.68741 320.8064 408.54119 321.40832 409.56641 321.94337 C 410.58576 322.49474 411.77825 323.02498 413.14454 323.53516 C 414.51083 324.04535 416.09503 324.64288 417.89649 325.32813 C 418.58846 325.55872 419.74735 325.97584 421.37501 326.58008 C 422.07743 326.83289 422.90734 327.14071 423.86524 327.50391 C 424.83948 327.873 425.97836 328.3024 427.27931 328.78907 C 428.57437 329.29207 430.03963 329.85596 431.67774 330.48243 C 433.33219 331.11477 435.19625 331.83128 437.26954 332.63282 C 438.13515 331.09923 438.84255 329.70251 439.38868 328.44141 C 439.94527 327.20253 440.38757 326.12572 440.71681 325.21094 C 441.01664 324.37784 441.25855 323.42317 441.44337 322.34571 C 441.62819 321.26825 441.74409 320.12738 441.78907 318.92579 C 441.85039 317.73007 441.8396 316.49934 441.75977 315.23438 C 441.67995 313.96942 441.51727 312.73157 441.27149 311.51758 C 441.04205 310.30948 440.72164 309.1511 440.3086 308.04297 C 439.90602 306.95707 439.41623 305.98675 438.8379 305.13282 C 438.55168 304.69768 438.14776 304.22963 437.62696 303.72852 C 437.11662 303.24963 436.52266 302.76796 435.84766 302.28516 C 435.18312 301.82458 434.45085 301.37586 433.64845 300.93946 C 432.84604 300.50306 432.01227 300.12996 431.14649 299.81837 C 430.03569 299.41858 428.85994 299.17147 427.6211 299.07618 C 426.3986 298.98677 425.21117 299.08351 424.05665 299.36915 C 422.89625 299.67111 421.83672 300.17706 420.88087 300.88477 C 419.92501 301.59248 419.17569 302.54965 418.63087 303.75587 C 418.26549 302.25897 417.9296 300.90989 417.62306 299.71094 C 417.31063 298.52833 417.04126 297.50893 416.81446 296.65235 C 416.54126 295.66836 416.29578 294.7873 416.07813 294.00782 C 415.73107 292.66512 415.2206 291.56746 414.54884 290.7168 C 413.86662 289.84393 413.06003 289.24137 412.12891 288.90626 C 411.39382 288.64169 410.67074 288.52125 409.96095 288.54688 z M 120.62891 295.10547 C 121.11749 295.87271 121.63427 296.77548 122.18164 297.81641 C 122.63901 298.70488 123.16008 299.80152 123.74414 301.10547 C 124.31181 302.41516 124.89304 303.92234 125.48828 305.62696 C 125.91182 306.83986 126.3288 308.13818 126.73828 309.52149 C 127.13138 310.91052 127.50753 312.4061 127.86524 314.00977 C 124.0348 315.31056 120.64157 316.46859 117.68555 317.48243 C 114.70742 318.4856 112.10007 319.36886 109.86524 320.13087 C 107.62468 320.87648 105.71398 321.51577 104.13477 322.04883 C 102.55555 322.5819 101.23127 323.02523 100.16016 323.38087 C 97.65735 324.21805 96.095499 324.74541 95.472658 324.9629 C 95.237467 325.02664 95.070615 325.1584 94.974611 325.35743 C 94.862217 325.56218 94.808602 325.8017 94.812502 326.07618 C 94.800011 326.35638 94.834329 326.66661 94.916018 327.00587 C 94.981315 327.35085 95.07721 327.70387 95.203127 328.06446 C 95.523641 328.98233 95.931476 329.83161 96.425783 330.61524 C 96.92009 331.39887 97.480955 332.14052 98.11133 332.83985 C 98.725314 333.54491 99.414284 334.22537 100.17578 334.87891 C 100.91517 335.52179 101.70042 336.16546 102.53321 336.81251 C 102.17965 336.27396 101.839 335.69551 101.51172 335.07423 C 101.16232 334.44228 100.88782 333.8393 100.6875 333.26563 C 100.56159 332.90504 100.46569 332.55202 100.40039 332.20704 C 100.33509 331.86206 100.32791 331.55065 100.37891 331.2754 C 100.40779 330.98947 100.49754 330.74669 100.64844 330.54688 C 100.79361 330.33069 101.01761 330.18039 101.31836 330.09376 C 101.58633 330.01857 102.18188 329.82952 103.10547 329.5254 C 104.01267 329.227 105.13344 328.85347 106.4668 328.40626 C 107.80016 327.95905 109.28882 327.45831 110.9336 326.90235 C 112.56198 326.35212 114.23107 325.78589 115.94141 325.20704 C 117.65175 324.62819 119.34588 324.05569 121.02344 323.48829 C 122.68461 322.92661 124.22336 322.40748 125.63867 321.93165 C 127.03187 321.44515 128.23783 321.03378 129.25977 320.69532 L 131.40039 319.94727 C 132.20353 319.66682 132.78929 319.37132 133.15821 319.0586 C 133.52712 318.74588 133.74681 318.40173 133.81836 318.02735 C 133.90058 317.63086 133.87135 317.1809 133.73242 316.67774 C 133.5935 316.17458 133.42167 315.60004 133.21485 314.95508 C 132.60998 312.9596 131.94968 311.06808 131.23242 309.27735 C 130.51517 307.48662 129.66127 305.7784 128.67188 304.15626 C 127.69887 302.52839 126.56462 300.96772 125.26953 299.47071 C 123.95805 297.97942 122.41155 296.52418 120.62891 295.10547 z M 412.22071 295.38087 C 412.57306 295.40158 412.92969 295.47613 413.28907 295.60547 C 414.22019 295.94059 414.95435 296.69375 415.4922 297.86524 C 415.71047 298.38663 415.95664 299.01044 416.23048 299.73633 C 416.46837 300.35704 416.74359 301.13017 417.05665 302.05469 C 417.34749 302.98967 417.68407 304.07954 418.06641 305.32422 C 417.82213 306.36183 417.71659 307.44839 417.75001 308.58594 C 417.78343 309.7235 417.92091 310.88121 418.16212 312.05665 C 418.41966 313.23796 418.76139 314.41315 419.18946 315.58204 C 419.61166 316.76726 420.08269 317.92177 420.59962 319.04883 C 418.37343 318.21072 416.25665 317.37588 414.25001 316.54298 C 412.23749 315.72641 410.45165 314.91747 408.89454 314.11719 C 407.3211 313.31104 406.03687 312.52676 405.03907 311.76172 C 404.02494 310.99081 403.40452 310.25123 403.1797 309.54297 C 402.98624 308.90136 402.95664 308.0869 403.08985 307.10157 C 403.22306 306.11624 403.48308 305.084 403.8711 304.00587 C 404.0416 303.53214 404.29443 302.96014 404.62891 302.28712 C 404.96339 301.61409 405.36039 300.9167 405.82227 300.19727 C 406.27828 299.49418 406.79293 298.81233 407.36329 298.1504 C 407.91731 297.48258 408.5179 296.91516 409.16602 296.44727 C 409.80827 295.99572 410.47734 295.67263 411.17384 295.48047 C 411.51915 295.39256 411.86837 295.36015 412.22071 295.38087 z M 428.9004 306.28907 C 430.0739 306.36084 431.19922 306.5905 432.27735 306.97852 C 434.25393 307.6899 435.81806 308.44644 436.96876 309.24805 C 438.11945 310.04967 438.94151 310.91726 439.43556 311.85157 C 439.92372 312.80221 440.12392 313.83454 440.03712 314.94727 C 439.94443 316.07634 439.65206 317.32706 439.15821 318.69923 C 438.79371 319.71202 438.35398 320.75262 437.83985 321.82227 C 437.34206 322.8978 436.80216 323.8854 436.22071 324.78321 C 433.63515 323.81576 431.3988 322.98153 429.50977 322.28321 C 427.63709 321.59077 426.0057 320.99583 424.6172 320.4961 C 423.8174 319.94993 423.09613 319.34027 422.45313 318.66602 C 421.80426 318.00811 421.29245 317.27824 420.91602 316.47852 C 420.5396 315.6788 420.32837 314.80032 420.28516 313.84376 C 420.23608 312.90353 420.40884 311.88744 420.80274 310.79297 C 421.2084 309.66584 421.83168 308.75453 422.67188 308.06055 C 423.52254 307.38879 424.48187 306.90417 425.54884 306.60547 C 426.60992 306.32312 427.7269 306.2173 428.9004 306.28907 z M 34.796876 351.35938 C 29.632007 355.27025 20.546788 352.35433 19.470704 363.38282 L 15.611328 358.50782 L 15.611328 420.67579 C 15.611328 459.21754 42.295846 455.36939 45.361329 454.47462 L 46.490235 458.49806 C 48.934817 468.35632 43.321795 459.40506 37.333985 460.72852 C 42.641232 481.56108 49.135594 474.88208 56.833986 482.81642 L 48.126954 450.84767 L 65.021486 434.22266 C 65.021486 434.22266 59.457679 435.87515 55.32422 435.76173 C 49.368881 435.59821 41.199191 440.58876 43.777345 448.56056 C 34.559931 451.88644 27.996002 448.71484 27.404297 439.60548 L 27.404297 381.03516 C 27.404297 378.31425 29.662709 379.28783 31.773438 375.22071 C 33.071503 372.7197 32.753907 368.38282 32.753907 368.38282 C 30.394948 370.55993 26.933368 370.96023 27.498047 375.33009 L 25.083985 372.32423 L 25.083985 440.16798 C 25.083985 440.16798 21.271485 438.09579 21.271485 421.38673 L 21.271485 395.9961 C 21.271485 380.00724 19.396024 384.15304 19.84961 375.91212 C 20.178958 369.92799 26.486248 365.5958 30.800782 361.28126 C 33.910407 358.17164 34.796876 351.35938 34.796876 351.35938 z M 509.67579 351.35938 C 509.67579 351.35938 510.56226 358.17164 513.67189 361.28126 C 517.98642 365.5958 524.29383 369.92994 524.62306 375.91407 C 525.07661 384.15499 523.20118 380.00724 523.20118 395.9961 L 523.20118 421.38868 C 523.20118 438.09774 519.38868 440.16798 519.38868 440.16798 L 519.38868 372.32423 L 516.97462 375.33009 C 517.53929 370.96024 514.07772 370.55993 511.71876 368.38282 C 511.71876 368.38282 511.40125 372.71971 512.69923 375.22071 C 514.80996 379.28784 517.06837 378.31427 517.06837 381.03516 L 517.06837 439.60548 C 516.47666 448.71488 509.91273 451.88644 500.69532 448.56056 C 503.27347 440.58876 495.10379 435.59834 489.14845 435.76173 C 485.01499 435.87523 479.45118 434.22266 479.45118 434.22266 L 496.34571 450.84767 L 487.63868 482.81642 C 495.33712 474.88208 501.83139 481.56108 507.13868 460.72852 C 501.15083 459.40506 495.53781 468.35632 497.98243 458.49806 L 499.11134 454.47462 C 502.17686 455.36939 528.86134 459.21754 528.86134 420.67579 L 528.86134 358.50782 L 525.00196 363.38282 C 523.92592 352.35433 514.84071 355.27025 509.67579 351.35938 z M 263.39063 356.74219 C 263.60735 356.74219 264.69146 357.08882 265.79883 357.51173 L 267.81055 358.2793 L 268.13477 374.80469 C 268.78801 408.27167 269.37001 448.75931 269.37501 461.10938 L 269.38086 473.80665 L 267.25586 473.80665 L 265.13282 473.80665 L 264.83985 464.01173 C 264.67856 458.62409 264.3307 438.10616 264.06641 418.41798 C 263.80211 398.72979 263.45286 376.79867 263.29102 369.68165 C 263.12914 362.56464 263.17392 356.74219 263.39063 356.74219 z M 284.62696 356.74219 C 285.13825 356.74219 284.76668 393.22145 283.61329 456.02931 L 283.28516 473.80665 L 280.88086 473.80665 L 278.47657 473.80665 L 278.76954 460.8672 C 278.93105 453.75019 279.28182 431.49158 279.54883 411.40431 C 279.81583 391.31703 280.1628 371.14204 280.32032 366.57032 L 280.60743 358.25782 L 282.50196 357.50001 C 283.54371 357.08319 284.49932 356.74219 284.62696 356.74219 z M 468.59571 428.39063 C 468.55885 428.39063 468.52324 428.39154 468.48634 428.39454 C 468.45394 428.39454 468.42138 428.39545 468.38868 428.39845 C 468.37638 428.40245 468.36387 428.40326 468.35157 428.40626 C 468.30207 428.41436 468.25339 428.42716 468.20509 428.43946 L 468.18165 428.44337 L 437.70118 436.60938 C 437.44387 436.67777 437.20791 436.8136 437.01954 437.00196 C 436.83119 437.19028 436.69771 437.42644 436.62891 437.6836 L 428.4629 468.16212 L 428.45899 468.18751 C 428.44269 468.23622 428.43379 468.28449 428.42579 468.33399 C 428.42179 468.34629 428.42098 468.3588 428.41798 468.3711 C 428.41698 468.403 428.41507 468.43606 428.41407 468.46876 C 428.41307 468.50561 428.41116 468.54123 428.41016 468.57813 C 428.41016 468.6461 428.41388 468.71406 428.42188 468.78126 C 428.43008 468.84554 428.44259 468.90851 428.45899 468.97071 L 428.45899 468.97267 L 428.45899 468.97462 L 428.46095 468.97657 C 428.46495 468.99737 428.47248 469.01867 428.48048 469.03907 C 428.49408 469.08417 428.51095 469.12808 428.52735 469.17188 C 428.53965 469.19488 428.55216 469.21984 428.56446 469.24024 C 428.58366 469.27704 428.6007 469.31077 428.6211 469.34767 C 428.6387 469.37307 428.65353 469.39924 428.66993 469.42384 C 428.69003 469.45534 428.71398 469.48693 428.73438 469.51563 C 428.75738 469.54313 428.78205 469.57111 428.80665 469.59571 C 428.82025 469.61291 428.83517 469.634 428.85157 469.6504 L 428.88868 469.68556 L 451.18165 491.97853 C 451.46829 492.26505 451.85332 492.42284 452.24806 492.42384 C 452.37991 492.42424 452.51196 492.408 452.64259 492.3711 L 483.11524 484.20704 L 483.11915 484.20704 L 483.12306 484.20509 L 483.14454 484.20118 C 483.16534 484.19718 483.18469 484.18965 483.20509 484.18165 C 483.2461 484.16775 483.28713 484.15508 483.32813 484.13868 L 483.33204 484.13868 C 483.38814 484.11488 483.4428 484.08535 483.4961 484.05665 C 483.53127 484.03575 483.56497 484.01484 483.59767 483.99024 C 483.62267 483.97264 483.64728 483.95586 483.67188 483.93946 C 483.72382 483.89977 483.77362 483.85686 483.82032 483.81056 C 483.86652 483.76387 483.90823 483.71462 483.94923 483.66212 C 483.96683 483.63832 483.98361 483.6125 484.00001 483.5879 C 484.02381 483.55473 484.04602 483.52314 484.06642 483.48634 C 484.09682 483.43351 484.12385 483.37878 484.14845 483.32228 L 484.14845 483.31837 C 484.16645 483.27865 484.17912 483.23672 484.19142 483.19532 C 484.19952 483.17492 484.20295 483.15518 484.21095 483.13478 L 484.21485 483.11329 L 484.21681 483.10938 L 484.21681 483.10548 L 492.38087 452.63282 C 492.52025 452.11064 492.37033 451.55392 491.98829 451.17188 L 469.69727 428.87891 L 469.66017 428.84181 C 469.64287 428.82421 469.62188 428.81328 469.60548 428.79688 C 469.57968 428.77188 469.5541 428.74922 469.5254 428.72462 C 469.4954 428.70222 469.4663 428.68056 469.4336 428.66016 C 469.409 428.64256 469.38203 428.62774 469.35743 428.61134 C 469.32223 428.59214 469.28691 428.5711 469.25001 428.5547 C 469.22781 428.5425 469.20625 428.52989 469.18165 428.51759 C 469.13777 428.49999 469.09384 428.48301 469.04884 428.47071 C 469.02844 428.46261 469.00674 428.45918 468.98634 428.45118 L 468.98438 428.44923 L 468.98243 428.44923 L 468.98048 428.44923 C 468.91824 428.43273 468.85492 428.42012 468.79102 428.41212 C 468.72346 428.40282 468.6559 428.39969 468.5879 428.4004 L 468.59571 428.39063 z M 75.884767 428.4004 L 75.884767 428.40626 C 75.816793 428.40626 75.748802 428.41193 75.681642 428.41993 C 75.617353 428.42813 75.552476 428.44064 75.490236 428.45704 L 75.488283 428.45704 L 75.48633 428.45704 L 75.484376 428.45899 C 75.463486 428.46299 75.4443 428.47052 75.42383 428.47852 C 75.378778 428.49212 75.332874 428.509 75.289064 428.5254 C 75.266534 428.5376 75.243128 428.55021 75.222658 428.56251 C 75.185804 428.58171 75.150143 428.5968 75.113283 428.6172 C 75.087903 428.6348 75.063634 428.65158 75.039064 428.66798 C 75.007534 428.68798 74.973974 428.71203 74.945314 428.73243 C 74.917874 428.75543 74.891759 428.7801 74.867189 428.8047 C 74.849989 428.8183 74.828881 428.83322 74.812501 428.84962 L 74.779298 428.88673 L 52.486329 451.1797 C 52.102243 451.56188 51.956478 452.11845 52.095704 452.64063 L 60.259767 483.11329 C 60.259726 483.11429 60.259726 483.11622 60.259767 483.1172 L 60.26172 483.1211 L 60.265626 483.14259 C 60.273816 483.16339 60.276957 483.18273 60.285157 483.20313 C 60.299077 483.24405 60.311746 483.28323 60.328126 483.32423 L 60.328126 483.32813 C 60.351866 483.38423 60.381497 483.44085 60.410157 483.49415 C 60.431047 483.52932 60.451994 483.56301 60.476564 483.59571 C 60.494174 483.62071 60.510965 483.64533 60.527345 483.66993 C 60.567062 483.72187 60.609981 483.77167 60.656251 483.81837 C 60.702933 483.86456 60.752279 483.90628 60.804689 483.94728 C 60.828449 483.96488 60.854337 483.98166 60.878907 483.99806 C 60.912078 484.02186 60.94361 484.04406 60.98047 484.06446 C 61.033293 484.09476 61.088022 484.12189 61.144532 484.14649 L 61.148439 484.14649 C 61.188157 484.16039 61.230536 484.17716 61.271486 484.18946 C 61.291956 484.19756 61.311562 484.20099 61.332032 484.20899 L 61.353517 484.2129 L 61.357423 484.21485 L 61.361329 484.21485 L 91.832033 492.37892 C 91.962659 492.41462 92.095119 492.43206 92.226564 492.43165 C 92.621388 492.43067 93.008285 492.27298 93.294924 491.98634 L 115.58789 469.69337 L 115.62305 469.65626 C 115.64065 469.63906 115.65352 469.61992 115.66992 469.60352 C 115.69492 469.57772 115.71759 469.55215 115.74219 469.52345 C 115.76459 469.49355 115.78624 469.46435 115.80664 469.43165 C 115.82434 469.40705 115.83907 469.38008 115.85547 469.35548 C 115.87467 469.32028 115.89571 469.28496 115.91211 469.24806 C 115.92441 469.22586 115.93301 469.2043 115.94531 469.1797 C 115.96291 469.1359 115.97989 469.09188 115.99219 469.04688 C 116.00039 469.02648 116.00372 469.00478 116.01172 468.98438 L 116.01367 468.98243 L 116.01367 468.98048 L 116.01367 468.97852 C 116.03427 468.91628 116.04669 468.85287 116.05469 468.78907 C 116.06399 468.7215 116.0671 468.65395 116.06641 468.58595 C 116.06641 468.5491 116.0655 468.51347 116.0625 468.47657 C 116.0625 468.44407 116.0616 468.41162 116.0586 468.37892 C 116.0546 468.36662 116.05378 468.35411 116.05078 468.34181 C 116.04668 468.2923 116.03379 468.24362 116.02149 468.19532 L 116.01758 468.16993 L 107.85156 437.69141 C 107.78277 437.43404 107.64929 437.20008 107.46094 437.01173 C 107.27261 436.82336 107.03645 436.68795 106.7793 436.61915 L 76.29883 428.45313 L 76.275392 428.44923 C 76.227067 428.43293 76.178448 428.42402 76.128908 428.41602 C 76.116618 428.41202 76.104088 428.41121 76.091798 428.40821 C 76.059858 428.40721 76.026902 428.40529 75.994142 428.40431 C 75.9577 428.40331 75.921627 428.40138 75.884767 428.4004 z M 76.556642 432.42579 L 93.875002 446.66017 L 68.679689 453.41212 L 76.556642 432.42579 z M 467.91602 432.42579 L 475.79298 453.41212 L 450.59767 446.66017 L 467.91602 432.42579 z M 82.250002 433.18556 L 103.46094 438.86915 L 97.011721 445.32032 L 82.250002 433.18556 z M 462.22267 433.18556 L 447.46095 445.32032 L 441.01173 438.86915 L 462.22267 433.18556 z M 72.005861 435.9336 L 65.291017 453.82032 L 56.48047 451.45704 L 72.005861 435.9336 z M 472.46681 435.9336 L 487.9922 451.45704 L 479.18165 453.82032 L 472.46681 435.9336 z M 105.60352 441.01173 L 111.28711 462.22071 L 99.152346 447.46095 L 105.60352 441.01173 z M 438.86915 441.01173 L 445.32032 447.46095 L 433.18556 462.22071 L 438.86915 441.01173 z M 94.968752 449.50392 L 88.050783 475.32032 L 78.601564 465.8711 L 69.152345 456.42188 L 94.968752 449.50392 z M 449.50392 449.50392 L 475.32032 456.42188 L 465.8711 465.8711 L 456.42188 475.32032 L 449.50392 449.50392 z M 97.812502 450.59767 L 112.04688 467.91602 L 91.060549 475.79298 L 97.812502 450.59767 z M 446.66017 450.59767 L 453.41212 475.79298 L 432.42579 467.91602 L 446.66017 450.59767 z M 55.697267 454.38282 L 64.507814 456.74415 L 61.380861 475.59376 L 55.697267 454.38282 z M 488.7754 454.38282 L 483.09181 475.59376 L 479.96485 456.74415 L 488.7754 454.38282 z M 67.238283 458.79102 L 76.460939 468.01173 L 85.681642 477.23438 L 63.568361 480.90431 L 67.238283 458.79102 z M 477.23438 458.79102 L 480.90431 480.90431 L 458.79102 477.23438 L 468.01173 468.01173 L 477.23438 458.79102 z M 108.53906 472.46681 L 93.015627 487.9922 L 90.652346 479.18165 L 108.53906 472.46681 z M 435.9336 472.46681 L 453.82032 479.18165 L 451.45899 487.9922 L 435.9336 472.46681 z M 110.25 479.45118 L 93.625002 496.34571 L 61.656251 487.63868 C 69.590587 495.33712 62.911534 501.83139 83.744142 507.13868 C 85.067554 501.15083 76.116352 495.53785 85.974611 497.98243 L 89.998049 499.11134 C 89.103285 502.17686 85.255134 528.85939 123.79688 528.85939 L 185.96485 528.85939 L 181.08985 525.00196 C 192.11833 523.92592 189.20247 514.84071 193.11329 509.67579 C 193.11329 509.67579 186.30104 510.56226 183.19141 513.67189 C 178.87688 517.98642 174.54467 524.29384 168.56055 524.62306 C 160.31964 525.07661 164.46543 523.20118 148.47657 523.20118 L 123.08594 523.20118 C 106.37688 523.20118 104.30469 519.38673 104.30469 519.38673 L 172.14844 519.38673 L 169.14258 516.97462 C 173.51239 517.53929 173.91279 514.07772 176.08985 511.71876 C 176.08985 511.71876 171.75297 511.40124 169.25196 512.69923 C 165.18484 514.80996 166.1584 517.06837 163.4375 517.06837 L 104.86719 517.06837 C 95.757801 516.47665 92.586278 509.91273 95.912111 500.69532 C 103.88392 503.27347 108.87432 495.10379 108.71094 489.14845 C 108.59742 485.01499 110.25 479.45118 110.25 479.45118 z M 434.22266 479.45118 C 434.22266 479.45118 435.87515 485.01499 435.76173 489.14845 C 435.59822 495.10379 440.58876 503.27347 448.56056 500.69532 C 451.88644 509.91273 448.71484 516.47665 439.60548 517.06837 L 381.03516 517.06837 C 378.31426 517.06837 379.28783 514.80996 375.22071 512.69923 C 372.71971 511.40116 368.38282 511.71876 368.38282 511.71876 C 370.55993 514.07772 370.96023 517.53929 375.33009 516.97462 L 372.32423 519.38673 L 440.16798 519.38673 C 440.16798 519.38673 438.09579 523.20118 421.38673 523.20118 L 395.9961 523.20118 C 380.00724 523.20118 384.15304 525.07661 375.91212 524.62306 C 369.92799 524.29368 365.5958 517.98642 361.28126 513.67189 C 358.17164 510.56226 351.35938 509.67579 351.35938 509.67579 C 355.27025 514.84071 352.35434 523.92592 363.38282 525.00196 L 358.50782 528.85939 L 420.67579 528.85939 C 459.21754 528.85939 455.36939 502.17686 454.47462 499.11134 L 458.49806 497.98243 C 468.35632 495.53785 459.40506 501.15083 460.72852 507.13868 C 481.56108 501.83139 474.88208 495.33712 482.81642 487.63868 L 450.84767 496.34571 L 434.22266 479.45118 z M 87.728517 479.96485 L 90.089846 488.7754 L 68.878908 483.09181 L 87.728517 479.96485 z M 456.74415 479.96485 L 475.59376 483.09181 L 454.38282 488.7754 L 456.74415 479.96485 z " /></svg>
