<?xml version="1.0" encoding="UTF-8" standalone="no"?>
<svg
   viewBox="0 0 548.0315 548.03151"
   width="145mm"
   height="145mm"
   version="1.1"
   id="svg65"
   sodipodi:docname="cleric lid.svg"
   inkscape:version="1.4.2 (f4327f4, 2025-05-13)"
   xml:space="preserve"
   xmlns:inkscape="http://www.inkscape.org/namespaces/inkscape"
   xmlns:sodipodi="http://sodipodi.sourceforge.net/DTD/sodipodi-0.dtd"
   xmlns="http://www.w3.org/2000/svg"
   xmlns:svg="http://www.w3.org/2000/svg"><sodipodi:namedview
     id="namedview65"
     pagecolor="#ffffff"
     bordercolor="#666666"
     borderopacity="1.0"
     inkscape:showpageshadow="2"
     inkscape:pageopacity="0.0"
     inkscape:pagecheckerboard="0"
     inkscape:deskcolor="#d1d1d1"
     inkscape:zoom="1.0045043"
     inkscape:cx="383.27362"
     inkscape:cy="190.14354"
     inkscape:window-width="933"
     inkscape:window-height="1046"
     inkscape:window-x="2324"
     inkscape:window-y="49"
     inkscape:window-maximized="0"
     inkscape:current-layer="svg65"
     inkscape:document-units="mm" /><desc
     id="desc1">outline.dxf - scale = 1.000000, origin = (0.000000, 0.000000), method = manual</desc><defs
     id="defs4"><marker
       id="DistanceX"
       orient="auto"
       refX="0"
       refY="0"
       style="overflow:visible"><path
         d="M 3,-3 -3,3 M 0,-5 V 5"
         style="stroke:#000000;stroke-width:0.5"
         id="path1" /></marker><pattern
       id="Hatch"
       patternUnits="userSpaceOnUse"
       width="8"
       height="8"
       x="0"
       y="0"><path
         d="M8 4 l-4,4"
         stroke="#000000"
         stroke-width="0.25"
         linecap="square"
         id="path2" /><path
         d="M6 2 l-4,4"
         stroke="#000000"
         stroke-width="0.25"
         linecap="square"
         id="path3" /><path
         d="M4 0 l-4,4"
         stroke="#000000"
         stroke-width="0.25"
         linecap="square"
         id="path4" /></pattern><symbol
       id="*MODEL_SPACE" /><symbol
       id="*PAPER_SPACE" /></defs><path
     id="outline"
     style="display:inline;opacity:1;fill:#000000;fill-opacity:1;stroke:none;stroke-width:1;stroke-linecap:round;stroke-dasharray:none;stroke-opacity:1;paint-order:fill markers stroke"
     inkscape:label="outline"
     d="M -25.984376 -25.984376 L -25.984376 574.01564 L 574.01564 574.01564 L 574.01564 -25.984376 L -25.984376 -25.984376 z M 120.47852 0.49414063 L 427.55274 0.49414063 C 444.66376 0.49413963 461.07452 7.2913084 473.17384 19.390625 L 528.63673 74.851564 L 528.63673 74.853517 C 540.73605 86.952837 547.53321 103.36164 547.53321 120.47266 L 547.53321 427.55079 C 547.53321 444.66181 540.73605 461.07256 528.63673 473.17188 L 473.17384 528.63868 C 461.07451 540.73797 444.66375 547.53519 427.55274 547.53517 L 120.47852 547.53517 L 120.47852 547.53126 C 103.36799 547.53129 86.958606 540.73343 74.859376 528.63478 L 74.857423 528.63478 L 19.394532 473.16993 C 7.2963196 461.07117 0.49856488 444.66257 0.49804688 427.55274 L 0.49804688 120.47461 C 0.49804588 103.36359 7.2952146 86.952837 19.394532 74.853517 L 74.857423 19.392579 L 74.857423 19.390625 C 86.956743 7.2913084 103.3675 0.49413963 120.47852 0.49414063 z M 123.79688 15.613282 C 85.255134 15.613282 89.103285 42.295846 89.998049 45.361329 L 85.974611 46.490235 C 76.116352 48.934818 85.067554 43.323749 83.744142 37.335938 C 62.911534 42.643185 69.590587 49.135594 61.656251 56.833986 L 93.625002 48.126954 L 110.25 65.021486 C 110.25 65.021486 108.59751 59.45768 108.71094 55.32422 C 108.87448 49.368881 103.88392 41.199189 95.912111 43.777345 C 92.586278 34.559929 95.757882 27.996002 104.86719 27.404297 L 163.4375 27.404297 C 166.1584 27.404297 165.18484 29.662709 169.25196 31.773438 C 171.75297 33.071504 176.08985 32.753907 176.08985 32.753907 C 173.91279 30.394949 173.51239 26.933368 169.14258 27.498047 L 172.14844 25.085938 L 104.30469 25.085938 C 104.30469 25.085938 106.37688 21.271485 123.08594 21.271485 L 148.47657 21.271485 C 164.46543 21.271485 160.31964 19.396025 168.56055 19.84961 C 174.54467 20.178959 178.87688 26.486248 183.19141 30.800782 C 186.30104 33.910408 193.11329 34.796876 193.11329 34.796876 C 189.20247 29.632006 192.11833 20.546788 181.08985 19.470704 L 185.96485 15.613282 L 123.79688 15.613282 z M 358.50782 15.613282 L 363.38282 19.470704 C 352.35434 20.546788 355.27025 29.632006 351.35938 34.796876 C 351.35938 34.796876 358.17164 33.910408 361.28126 30.800782 C 365.5958 26.486248 369.92799 20.178835 375.91212 19.84961 C 384.15304 19.396065 380.00724 21.271485 395.9961 21.271485 L 421.38673 21.271485 C 438.09579 21.271485 440.16798 25.085938 440.16798 25.085938 L 372.32423 25.085938 L 375.33009 27.498047 C 370.96023 26.933368 370.55993 30.394949 368.38282 32.753907 C 368.38282 32.753907 372.71971 33.071422 375.22071 31.773438 C 379.28783 29.662709 378.31426 27.404297 381.03516 27.404297 L 439.60548 27.404297 C 448.71488 27.996002 451.88644 34.559929 448.56056 43.777345 C 440.58876 41.199189 435.59834 49.368881 435.76173 55.32422 C 435.87523 59.45768 434.22266 65.021486 434.22266 65.021486 L 450.84767 48.126954 L 482.81642 56.833986 C 474.88208 49.135594 481.56108 42.643185 460.72852 37.335938 C 459.40506 43.323749 468.35632 48.934818 458.49806 46.490235 L 454.47462 45.361329 C 455.36939 42.295846 459.21754 15.613282 420.67579 15.613282 L 358.50782 15.613282 z M 452.2422 52.033204 C 451.84738 52.034391 451.46243 52.191877 451.17579 52.478517 L 428.88282 74.771486 L 428.84571 74.808595 C 428.82811 74.825795 428.81524 74.84086 428.79884 74.86133 C 428.77384 74.88713 428.75312 74.912738 428.72852 74.941408 C 428.70612 74.971288 428.68447 75.000445 428.66407 75.033205 C 428.64637 75.057775 428.62969 75.084806 428.61329 75.109376 C 428.59409 75.14459 428.57305 75.179938 428.55665 75.216798 C 428.54435 75.238908 428.53379 75.260588 428.52149 75.285158 C 428.50389 75.32897 428.48692 75.37293 428.47462 75.41797 C 428.46652 75.43844 428.46113 75.46 428.45313 75.48047 L 428.45118 75.482423 L 428.45118 75.484376 L 428.45118 75.48633 C 428.43478 75.548572 428.42207 75.611903 428.41407 75.675783 C 428.40477 75.743349 428.40165 75.810938 428.40235 75.878908 C 428.40235 75.915759 428.40326 75.951423 428.40626 75.988283 C 428.40626 76.020643 428.40716 76.053179 428.41016 76.085939 C 428.41416 76.098229 428.41498 76.110768 428.41798 76.123048 C 428.42608 76.172603 428.43888 76.221213 428.45118 76.269533 L 428.45509 76.294923 L 436.61524 106.77344 C 436.68404 107.03081 436.8175 107.26673 437.00587 107.45508 C 437.1942 107.64345 437.43036 107.77886 437.68751 107.84766 L 468.16798 116.01367 L 468.19142 116.01758 C 468.23972 116.02988 468.2883 116.03692 468.3379 116.04492 C 468.3502 116.04892 468.36271 116.04974 468.37501 116.05274 C 468.40691 116.05374 468.43997 116.05762 468.47267 116.0586 C 468.50913 116.0596 468.54514 116.06152 468.58204 116.0625 C 468.65001 116.0625 468.71797 116.05683 468.78517 116.04883 C 468.84906 116.04063 468.91242 116.02812 468.97462 116.01172 L 468.97657 116.01172 L 468.97852 116.01172 L 468.98048 116.00977 C 469.00128 116.00577 469.02258 115.99824 469.04298 115.99024 C 469.08807 115.97664 469.13199 115.95976 469.17579 115.94336 C 469.19879 115.93526 469.22375 115.92246 469.24415 115.91016 C 469.28096 115.89506 469.31477 115.87587 469.35157 115.85547 C 469.37697 115.83787 469.40314 115.82109 469.42774 115.80469 C 469.45924 115.78469 469.49084 115.76484 469.51954 115.74024 C 469.54704 115.71724 469.57502 115.69452 469.59962 115.66992 C 469.61682 115.65632 469.63791 115.63945 469.65431 115.62305 L 469.68556 115.58594 L 491.97853 93.292971 C 492.36282 92.910799 492.51031 92.354208 492.3711 91.832033 L 484.20704 61.359376 L 484.20704 61.35547 L 484.20509 61.351564 L 484.20118 61.332032 C 484.19718 61.311152 484.18965 61.290002 484.18165 61.269532 C 484.16775 61.228584 484.15508 61.189379 484.13868 61.148439 L 484.13868 61.144532 C 484.11488 61.088433 484.08535 61.0337 484.05665 60.98047 C 484.03575 60.945669 484.01484 60.909714 483.99024 60.876954 C 483.97254 60.852384 483.95586 60.829259 483.93946 60.804689 C 483.89976 60.752686 483.85686 60.700978 483.81056 60.654298 C 483.76388 60.608031 483.71462 60.566342 483.66212 60.525392 C 483.63842 60.507782 483.6125 60.490991 483.5879 60.474611 C 483.55473 60.450851 483.52324 60.428674 483.48634 60.408204 C 483.43311 60.377894 483.37878 60.350743 483.32228 60.326173 L 483.31642 60.326173 C 483.2767 60.308163 483.23632 60.297437 483.19532 60.285157 C 483.17492 60.276977 483.15518 60.271873 483.13478 60.263673 L 483.11329 60.259767 L 483.10938 60.257814 L 483.10548 60.257814 L 452.63282 52.093751 C 452.5022 52.058131 452.36973 52.040648 452.23829 52.041017 L 452.2422 52.033204 z M 92.226564 52.041017 C 92.09471 52.040607 91.962659 52.060991 91.832033 52.093751 L 61.361329 60.257814 L 61.357423 60.257814 L 61.351564 60.259767 L 61.332032 60.263673 C 61.311142 60.267763 61.290002 60.275004 61.269532 60.283204 C 61.228585 60.297134 61.189389 60.309793 61.148439 60.326173 L 61.144532 60.326173 C 61.088432 60.349923 61.0337 60.379534 60.98047 60.408204 C 60.945669 60.429504 60.909714 60.450041 60.876954 60.474611 C 60.852384 60.492221 60.829259 60.509022 60.804689 60.525392 C 60.752686 60.565109 60.702931 60.608028 60.656251 60.654298 C 60.609984 60.70098 60.568285 60.750326 60.527345 60.802736 C 60.509735 60.826496 60.492934 60.852384 60.476564 60.876954 C 60.452804 60.910125 60.428674 60.941657 60.408204 60.978517 C 60.377894 61.03134 60.352696 61.086479 60.328126 61.142579 L 60.328126 61.146486 C 60.314206 61.186203 60.297447 61.228172 60.285157 61.269532 C 60.276977 61.290002 60.271873 61.309609 60.263673 61.330079 L 60.259767 61.351564 L 60.257814 61.35547 L 60.257814 61.359376 L 52.093751 91.832033 C 51.954403 92.354208 52.10428 92.910922 52.486329 93.292971 L 74.779298 115.58594 L 74.812501 115.62305 C 74.829691 115.64065 74.846719 115.65157 74.867189 115.66797 C 74.892989 115.69297 74.916654 115.71564 74.945314 115.74024 C 74.975204 115.76274 75.006304 115.78429 75.039064 115.80469 C 75.063634 115.82229 75.088713 115.83712 75.113283 115.85352 C 75.148497 115.87272 75.185798 115.89376 75.222658 115.91016 C 75.244768 115.92246 75.264494 115.93106 75.289064 115.94336 C 75.332877 115.96086 75.376836 115.97794 75.421876 115.99024 C 75.442346 115.99834 75.463906 116.00177 75.484376 116.00977 L 75.48633 116.01172 L 75.488283 116.01172 L 75.490236 116.01172 C 75.552478 116.03232 75.615809 116.04474 75.679689 116.05274 C 75.747254 116.06204 75.814844 116.06515 75.882814 116.06446 C 75.919665 116.06446 75.955339 116.06355 75.992189 116.06055 C 76.024549 116.06055 76.057085 116.05964 76.089845 116.05664 C 76.102135 116.05264 76.114665 116.05183 76.126955 116.04883 C 76.1765 116.04473 76.225129 116.03183 76.273439 116.01953 L 76.29883 116.01563 L 106.77735 107.85156 C 107.03466 107.78277 107.27063 107.64735 107.45899 107.45899 C 107.64736 107.27066 107.78081 107.0345 107.84961 106.77735 L 116.01563 76.29883 L 116.01953 76.273439 C 116.03183 76.224704 116.04083 76.176505 116.04883 76.126955 C 116.05283 76.114665 116.05364 76.102135 116.05664 76.089845 C 116.05764 76.057905 116.05956 76.024949 116.06055 75.992189 C 116.06555 75.955748 116.06738 75.919674 116.06836 75.882814 C 116.06836 75.814839 116.06464 75.746849 116.05664 75.679689 C 116.04844 75.615399 116.03593 75.552476 116.01953 75.490236 L 116.01953 75.488283 L 116.01953 75.48633 L 116.01758 75.484376 C 116.01358 75.463496 116.00605 75.442346 115.99805 75.421876 C 115.98445 75.376824 115.96757 75.332874 115.95117 75.289064 C 115.94307 75.266134 115.93027 75.241175 115.91797 75.220705 C 115.89877 75.183851 115.88368 75.150143 115.86328 75.113283 C 115.84568 75.087903 115.8289 75.061681 115.8125 75.037111 C 115.7925 75.005581 115.76845 74.973984 115.74805 74.945314 C 115.72505 74.917874 115.70038 74.889806 115.67578 74.865236 C 115.66218 74.848036 115.64726 74.828881 115.63086 74.812501 L 115.59375 74.779298 L 93.300783 52.486329 C 93.014144 52.199812 92.62912 52.042217 92.234377 52.041017 L 92.226564 52.041017 z M 90.089846 55.697267 L 87.728517 64.507814 L 68.878908 61.380861 L 90.089846 55.697267 z M 454.38282 55.697267 L 475.59376 61.380861 L 456.74415 64.507814 L 454.38282 55.697267 z M 93.015627 56.48047 L 108.53906 72.005861 L 90.652346 65.291017 L 93.015627 56.48047 z M 451.45899 56.48047 L 453.82032 65.291017 L 435.9336 72.005861 L 451.45899 56.48047 z M 56.833986 61.656251 C 49.135594 69.590587 42.641232 62.911575 37.333985 83.744142 C 43.321795 85.067556 48.934817 76.116352 46.490235 85.974611 L 45.361329 89.998049 C 42.295846 89.103284 15.611328 85.255126 15.611328 123.79688 L 15.611328 185.96485 L 19.470704 181.08985 C 20.546788 192.11833 29.632007 189.20247 34.796876 193.11329 C 34.796876 193.11329 33.910407 186.30105 30.800782 183.19141 C 26.486248 178.87689 20.178836 174.54469 19.84961 168.56055 C 19.396066 160.31964 21.271485 164.46543 21.271485 148.47657 L 21.271485 123.08594 C 21.271485 106.37689 25.083985 104.30469 25.083985 104.30469 L 25.083985 172.14844 L 27.498047 169.14258 C 26.933368 173.51239 30.394948 173.91278 32.753907 176.08985 C 32.753907 176.08985 33.071422 171.75297 31.773438 169.25196 C 29.662709 165.18484 27.404297 166.1584 27.404297 163.4375 L 27.404297 104.86719 C 27.996002 95.757793 34.559931 92.586278 43.777345 95.912111 C 41.199191 103.88391 49.368881 108.87432 55.32422 108.71094 C 59.457679 108.59743 65.021486 110.25 65.021486 110.25 L 48.126954 93.625002 L 56.833986 61.656251 z M 487.63868 61.656251 L 496.34571 93.625002 L 479.45118 110.25 C 479.45118 110.25 485.01499 108.59752 489.14845 108.71094 C 495.10379 108.87449 503.27347 103.88391 500.69532 95.912111 C 509.91273 92.586278 516.47666 95.757874 517.06837 104.86719 L 517.06837 163.4375 C 517.06837 166.1584 514.80996 165.18484 512.69923 169.25196 C 511.40116 171.75297 511.71876 176.08985 511.71876 176.08985 C 514.07772 173.91278 517.53929 173.51239 516.97462 169.14258 L 519.38868 172.14844 L 519.38868 104.30469 C 519.38868 104.30469 523.20118 106.37689 523.20118 123.08594 L 523.20118 148.47657 C 523.20118 164.46543 525.07661 160.31964 524.62306 168.56055 C 524.29367 174.54469 517.98642 178.87689 513.67189 183.19141 C 510.56226 186.30105 509.67579 193.11329 509.67579 193.11329 C 514.84071 189.20247 523.92592 192.11833 525.00196 181.08985 L 528.86134 185.96485 L 528.86134 123.79688 C 528.86134 85.255126 502.17686 89.103284 499.11134 89.998049 L 497.98243 85.974611 C 495.53781 76.116352 501.15083 85.067556 507.13868 83.744142 C 501.83139 62.911575 495.33712 69.590587 487.63868 61.656251 z M 63.568361 63.568361 L 85.681642 67.238283 L 76.460939 76.460939 L 67.238283 85.681642 L 63.568361 63.568361 z M 480.90431 63.568361 L 477.23438 85.681642 L 468.01173 76.460939 L 458.79102 67.238283 L 480.90431 63.568361 z M 91.060549 68.679689 L 112.04688 76.556642 L 97.812502 93.875002 L 91.060549 68.679689 z M 453.41212 68.679689 L 446.66017 93.875002 L 432.42579 76.556642 L 453.41212 68.679689 z M 61.380861 68.878908 L 64.507814 87.728517 L 55.697267 90.089846 L 61.380861 68.878908 z M 483.09181 68.878908 L 488.7754 90.089846 L 479.96485 87.728517 L 483.09181 68.878908 z M 88.050783 69.152345 L 94.968752 94.968752 L 69.152345 88.050783 L 78.601564 78.601564 L 88.050783 69.152345 z M 456.42188 69.152345 L 465.8711 78.601564 L 475.32032 88.050783 L 449.50392 94.968752 L 456.42188 69.152345 z M 111.28711 82.250002 L 105.60352 103.46094 L 99.152346 97.011721 L 111.28711 82.250002 z M 433.18556 82.250002 L 445.32032 97.011721 L 438.86915 103.46094 L 433.18556 82.250002 z M 328.28907 89.371096 C 328.08383 89.312893 327.18369 89.354252 325.5918 89.494142 C 324.0922 89.605921 323.3066 89.710749 323.23243 89.810549 C 323.23192 89.811353 323.22893 89.815605 323.22852 89.816408 L 323.22852 89.818361 L 323.22657 89.820314 L 322.33985 92.951174 C 322.05854 93.943168 322.01904 94.799061 322.22071 95.521486 C 322.46628 96.219405 322.74293 96.611917 323.05079 96.699221 C 323.35865 96.786524 324.26944 96.767665 325.78321 96.64258 C 327.29478 96.484533 328.07088 96.354213 328.11133 96.251955 L 328.11133 96.250002 L 329.17383 92.503908 C 329.34844 91.888187 329.29541 91.227152 329.01563 90.519533 C 328.77006 89.821614 328.52852 89.438998 328.28907 89.371096 z M 65.291017 90.652346 L 72.005861 108.53906 L 56.48047 93.013674 L 65.291017 90.652346 z M 479.18165 90.652346 L 487.9922 93.013674 L 472.46681 108.53906 L 479.18165 90.652346 z M 68.679689 91.060549 L 93.875002 97.812502 L 76.556642 112.04688 L 68.679689 91.060549 z M 475.79298 91.060549 L 467.91602 112.04688 L 450.59767 97.812502 L 475.79298 91.060549 z M 314.54688 92.269533 C 313.93412 93.812412 312.73014 95.141381 310.93555 96.255861 C 309.18304 97.342805 307.78438 97.776631 306.74024 97.558596 L 305.75977 99.64258 L 307.9004 100.08985 L 303.13672 122.9043 C 303.0059 123.53079 303.19446 124.27945 303.70313 125.14844 C 304.21907 125.98262 304.82705 126.63624 305.52735 127.10938 L 311.42188 125.23438 L 311.66212 124.08594 C 310.29326 123.50952 309.83011 122.16021 310.27344 120.03711 L 314.17579 101.34571 L 316.31641 101.79297 L 317.37305 99.343752 L 314.71094 98.787111 L 316.00782 92.576174 L 314.54688 92.269533 z M 270.44336 93.435549 C 269.83948 93.461648 267.54409 94.326821 263.56055 96.029299 C 259.57548 97.696254 257.58887 98.653689 257.59961 98.902346 L 258.37305 116.80469 C 258.46056 118.82947 259.08866 120.58263 260.25586 122.0625 C 261.42154 123.50685 262.53785 124.20622 263.60352 124.16016 C 263.99427 124.14327 267.05955 123.03168 272.80079 120.82617 L 272.73438 119.28125 C 271.10035 119.35187 269.69038 119.27063 268.50586 119.03711 C 266.09823 118.50057 264.83501 116.86413 264.7168 114.12891 C 264.85889 114.12277 265.78788 113.79788 267.50391 113.1543 C 269.25393 112.47366 271.05177 111.6319 272.89454 110.62696 C 274.73731 109.62201 275.64483 108.79956 275.61719 108.16016 L 275.23047 99.207033 C 275.19056 98.283451 274.79292 97.358089 274.04102 96.429689 C 273.28759 95.465767 272.54598 94.732602 271.81251 94.230471 C 271.07749 93.692817 270.62098 93.427873 270.44336 93.435549 z M 286.70118 93.751955 C 282.8813 95.516143 280.84689 96.403299 280.59571 96.414064 L 280.47852 97.582033 C 281.22153 97.65588 281.8 98.142637 282.21094 99.041018 C 282.62188 99.939398 282.76839 100.97109 282.65235 102.13867 L 280.86524 120.13086 C 280.80194 120.76772 281.06958 121.49096 281.66797 122.30078 C 282.26989 123.07522 282.94272 123.66085 283.68946 124.05664 L 289.35157 121.5625 L 289.4668 120.39649 C 288.04431 119.96926 287.43979 118.67583 287.6543 116.51758 L 289.3379 99.587893 L 291.1211 99.443361 C 292.2533 99.55589 292.9778 100.16395 293.29688 101.26758 C 293.65486 102.33935 293.73599 103.86631 293.53907 105.84766 L 292.00977 121.23828 C 291.94647 121.87515 292.21411 122.59839 292.81251 123.40821 C 293.41442 124.18264 294.08921 124.76827 294.83594 125.16406 L 300.94141 122.50196 L 301.0586 121.33399 C 299.36009 120.80787 298.60738 119.57097 298.80079 117.625 L 300.39844 101.54492 C 300.52152 100.30658 300.16135 98.895022 299.31837 97.310549 C 298.47539 95.726075 297.48767 94.878156 296.35547 94.765627 C 295.86014 94.716396 294.23075 95.30351 291.46485 96.529299 C 290.41791 96.996936 289.78144 97.274332 289.5586 97.359377 C 289.63245 96.616371 289.39678 95.93057 288.85157 95.304689 C 288.34173 94.682326 287.91553 94.301467 287.57227 94.160158 C 287.23253 93.983468 286.94181 93.847333 286.70118 93.751955 z M 244.41993 95.822268 C 244.28502 95.823271 244.15254 95.836745 244.02149 95.86133 L 238.22657 100.25781 C 238.02339 99.753294 237.54461 99.22956 236.79102 98.683596 C 236.07238 98.131075 235.29852 97.76794 234.47071 97.597658 L 229.35743 101.86719 L 229.57422 103.02149 C 231.35213 103.0497 232.42068 104.02524 232.78125 105.94727 L 235.66211 121.30469 C 235.89813 122.56274 236.64287 123.92518 237.89454 125.39063 C 239.18115 126.84952 240.3659 127.47667 241.44922 127.27344 C 242.53255 127.07021 244.80568 125.88406 248.26954 123.71485 C 251.7334 121.54563 253.43596 120.30475 253.37696 119.99024 L 250.03321 102.16797 C 249.69885 100.38573 248.8674 98.841153 247.53711 97.535158 C 246.40369 96.386676 245.36427 95.815246 244.41993 95.822268 z M 266.3379 98.525393 C 267.04834 98.494688 267.65009 98.823184 268.14258 99.513674 C 268.63354 100.16864 268.90038 100.99366 268.94336 101.98828 L 269.10743 105.77149 C 269.23485 108.71984 267.71919 110.70815 264.56055 111.73438 L 264.0293 99.425783 C 264.85881 98.856102 265.62745 98.556097 266.3379 98.525393 z M 97.011721 99.152346 L 103.46094 105.60352 L 82.250002 111.28711 L 97.011721 99.152346 z M 447.46095 99.152346 L 462.22267 111.28711 L 441.01173 105.60352 L 447.46095 99.152346 z M 324.36915 100.45508 L 318.35743 101.91016 L 318.03712 103.03906 C 319.36199 103.71043 319.72845 105.08917 319.13673 107.17578 L 313.98633 125.33985 C 313.81173 125.95557 313.94637 126.71454 314.39258 127.61719 C 314.8485 128.48563 315.40898 129.17991 316.07423 129.70117 L 322.08594 128.2461 L 322.40626 127.11914 C 321.08138 126.44777 320.71492 125.06708 321.30665 122.98047 L 326.45704 104.81836 C 326.63164 104.20264 326.49108 103.46024 326.03516 102.5918 C 325.58894 101.68915 325.03439 100.97635 324.36915 100.45508 z M 220.96485 101.3125 C 220.67392 101.31056 220.39502 101.35391 220.125 101.44336 C 219.71999 101.57754 218.95961 102.3914 217.84375 103.88477 C 216.75047 105.3332 216.13077 106.11878 215.98438 106.24219 C 215.76074 105.56716 215.27222 105.05501 214.51954 104.70508 C 213.8006 104.34397 213.25583 104.16913 212.88477 104.17969 C 212.53628 104.14532 212.23128 104.13181 211.97266 104.14258 L 207.41016 109.02539 L 207.7793 110.14063 C 208.38683 109.93935 209.06804 110.12442 209.82032 110.69922 C 210.60634 111.26284 211.24433 112.28837 211.73633 113.77344 L 217.30469 130.58203 C 217.50597 131.18956 218.04578 131.74 218.92188 132.23633 C 219.78679 132.69891 220.63926 132.95982 221.48243 133.01758 L 225.64063 128.4375 L 225.27149 127.32422 C 223.79822 127.51267 222.72116 126.57642 222.03907 124.51758 L 216.6875 108.36914 C 217.90256 107.9666 218.88774 107.8836 219.64063 108.1211 C 220.31484 108.3472 221.12128 109.87777 222.06055 112.71289 L 223.15625 113.13672 L 227.39649 108.47266 L 226.57618 105.99219 C 226.18481 104.81089 225.28187 103.66697 223.86719 102.5625 C 222.80618 101.73415 221.83763 101.31832 220.96485 101.3125 z M 240.9004 101.85938 C 241.55183 101.909 242.07449 102.06819 242.46875 102.33789 C 243.25729 102.8773 243.86167 104.26542 244.28125 106.50196 L 247.06446 121.33594 C 246.11442 122.05681 245.35992 122.47128 244.80079 122.57617 C 244.24165 122.68107 243.66125 122.48081 243.06055 121.97852 C 242.45986 121.47622 242.07797 120.78967 241.91407 119.91602 L 238.56055 102.04102 C 239.46914 101.87056 240.24897 101.80975 240.9004 101.85938 z M 334.74024 107.88477 C 333.63755 107.90975 333.06412 107.98029 333.01758 108.09571 L 326.39454 124.51758 C 325.59672 126.49611 325.42258 128.40032 325.87305 130.23047 C 326.3565 132.07392 326.99375 133.15548 327.78516 133.47461 C 328.60955 133.80704 331.09915 134.00592 335.25196 134.07032 C 339.45104 134.11503 341.60457 134.00404 341.71094 133.74024 L 348.92969 115.83594 C 349.36849 114.74775 349.28476 113.29396 348.67579 111.47656 C 348.0998 109.67247 347.53129 108.65769 346.97071 108.43164 C 346.41013 108.20559 343.9638 108.04322 339.63282 107.94531 C 337.47398 107.87987 335.84293 107.85978 334.74024 107.88477 z M 197.29493 110.15039 C 197.20943 110.15251 197.14738 110.16412 197.10743 110.1836 C 196.56409 110.44843 194.80574 112.1564 191.83204 115.30664 C 188.84275 118.42493 187.40267 120.09659 187.51172 120.32031 L 195.36329 136.42774 C 196.25124 138.24952 197.52489 139.60664 199.18555 140.49805 C 200.83063 141.35749 202.13297 141.55329 203.0918 141.08594 C 203.44337 140.91458 205.81244 138.67207 210.19727 134.35938 L 209.51954 132.96875 C 208.04932 133.68535 206.72427 134.17325 205.54493 134.43164 C 203.12312 134.90008 201.31281 133.90437 200.11329 131.44336 C 200.24113 131.38105 200.96246 130.71221 202.2793 129.4375 C 203.61253 128.11525 204.92399 126.62539 206.21289 124.96875 C 207.5018 123.31212 208.00502 122.1964 207.72461 121.6211 L 203.79883 113.56641 C 203.3938 112.73542 202.6614 112.04553 201.60157 111.49414 C 200.52615 110.91079 199.55259 110.53504 198.67969 110.36719 C 198.01334 110.21733 197.55141 110.14404 197.29493 110.15039 z M 339.81055 111.10742 C 340.18193 111.11341 340.53158 111.18344 340.86133 111.31641 C 342.54309 111.99455 342.89219 113.55395 341.90821 115.99414 L 336.02344 130.58594 C 335.15118 130.84761 334.40193 130.85225 333.7754 130.59961 C 332.09364 129.92147 331.74455 128.36207 332.72852 125.92188 L 338.63282 111.28125 C 339.04581 111.16026 339.43918 111.10144 339.81055 111.10742 z M 175.83203 115.19141 L 174.56641 115.98438 C 175.19336 117.52154 175.24674 119.31438 174.72461 121.36133 C 174.21375 123.35927 173.50561 124.64093 172.60157 125.20703 L 173.33789 127.38867 L 175.19141 126.22852 L 187.56055 145.98047 C 187.90021 146.5229 188.5546 146.93273 189.52344 147.20703 C 190.47341 147.4512 191.36447 147.50135 192.19727 147.35742 L 195.15039 141.92188 L 194.52735 140.92774 C 193.14086 141.46034 191.87179 140.80698 190.72071 138.96875 L 180.58789 122.78516 L 182.44141 121.625 L 181.50586 119.12696 L 179.20118 120.57031 L 175.83203 115.19141 z M 355.29884 115.48633 L 354.70899 116.50196 C 355.3545 116.87722 355.67823 117.55897 355.67969 118.54688 C 355.68116 119.53478 355.38658 120.53641 354.79688 121.55078 L 345.71094 137.17969 C 345.38929 137.73299 345.33225 138.50325 345.54102 139.48828 C 345.76766 140.44258 346.13888 141.25405 346.6543 141.92383 L 352.83985 142.00391 L 353.42774 140.98828 C 352.31041 140.00972 352.29863 138.58405 353.38868 136.70899 L 361.93751 122 L 363.6211 122.60742 C 364.60474 123.17926 365.01294 124.03333 364.84571 125.16992 C 364.72709 126.29365 364.16673 127.71613 363.16602 129.4375 L 355.39259 142.8086 C 355.07093 143.36189 355.01585 144.13215 355.22462 145.11719 C 355.45126 146.07149 355.82052 146.88295 356.33594 147.55274 L 362.99805 147.66211 L 363.5879 146.64844 C 362.2604 145.46544 362.08748 144.02852 363.07032 142.33789 L 371.19141 128.36719 C 371.81685 127.29134 372.07501 125.85779 371.96485 124.06641 C 371.8547 122.27503 371.30786 121.09332 370.32423 120.52149 C 369.89388 120.27131 368.16583 120.13095 365.14063 120.09961 C 363.99403 120.09108 363.3025 120.0775 363.06446 120.0625 C 363.43972 119.41699 363.50813 118.69795 363.27149 117.90235 C 363.06559 117.12461 362.83582 116.59904 362.58204 116.32813 C 362.34613 116.02648 362.13842 115.78227 361.95899 115.59571 C 357.75146 115.61732 355.53188 115.58068 355.29884 115.48633 z M 196.11133 116.29492 C 196.53143 116.27557 196.96942 116.40284 197.42383 116.67578 C 198.13531 117.08053 198.70835 117.73009 199.14454 118.625 L 200.80469 122.02735 C 202.09768 124.68012 201.50072 127.10753 199.01368 129.3086 L 193.61524 118.23438 C 194.14863 117.38108 194.73383 116.79789 195.37305 116.48633 C 195.61276 116.36949 195.85927 116.30654 196.11133 116.29492 z M 164.82227 129.80274 C 164.17226 129.83887 163.62497 130.03317 163.17774 130.38477 C 162.78641 130.69242 162.01659 132.24677 160.8711 135.04688 C 160.44004 136.1094 160.17406 136.74914 160.07227 136.96485 C 159.6108 136.37786 158.96741 136.04632 158.14063 135.97266 C 157.3418 135.87703 156.76927 135.89731 156.42383 136.03321 C 156.05641 136.14115 155.75329 136.24388 155.51367 136.3418 C 153.98108 140.26034 153.12682 142.31041 152.95313 142.49219 L 153.67969 143.41602 C 154.26668 142.95455 155.01878 142.90438 155.9375 143.26758 C 156.85622 143.63078 157.67913 144.27291 158.4043 145.19532 L 169.57813 159.41016 C 169.97367 159.91329 170.6676 160.24851 171.66016 160.41797 C 172.63074 160.55949 173.52127 160.51509 174.33399 160.28321 L 176.69141 154.56446 L 175.96485 153.64258 C 174.64302 154.31993 173.31312 153.80467 171.97266 152.09961 L 161.45703 138.72461 L 162.64258 137.38672 C 163.53704 136.68353 164.4819 136.61851 165.47657 137.19336 C 166.47721 137.71829 167.59363 138.76283 168.82422 140.32813 L 178.38282 152.48828 C 178.77836 152.99142 179.47229 153.32663 180.46485 153.4961 C 181.43543 153.63761 182.32596 153.59321 183.13868 153.36133 L 185.69922 147.21094 L 184.97461 146.28907 C 183.38523 147.08631 181.98596 146.71509 180.77735 145.17774 L 170.78907 132.47461 C 170.01995 131.4963 168.78372 130.72665 167.07813 130.16797 C 166.22533 129.88863 165.47228 129.76661 164.82227 129.80274 z M 141.61719 134.36133 L 136.99414 145.2793 L 138.14844 146.46289 C 138.7847 145.84217 139.40304 145.63713 140.00391 145.84571 C 140.60478 146.05428 141.36453 146.62866 142.28321 147.57032 L 159.30469 165.01563 C 160.52131 166.26269 161.15926 167.45373 161.22071 168.58594 C 161.24057 169.01363 161.18434 169.46531 161.05274 169.94141 C 160.94659 170.39268 160.79345 170.71739 160.58985 170.91602 L 162.39063 171.54102 C 162.41608 171.51619 163.90863 167.85225 166.86524 160.54688 L 165.82227 159.47657 C 165.26236 160.0228 164.73069 160.26938 164.22852 160.21289 C 163.70152 160.13095 163.10203 159.74575 162.43164 159.0586 L 144.92774 141.11524 C 143.66146 139.81728 142.94778 138.6281 142.78516 137.54492 C 142.64861 136.38664 142.86002 135.53452 143.41992 134.98828 L 141.61719 134.36133 z M 312.51563 147.07617 C 312.36077 147.10426 311.96245 147.75253 311.32422 149.17578 C 310.09121 151.92546 306.31038 157.68242 303.15626 161.61133 C 298.53839 167.36352 291.20457 173.86265 285.09962 177.61328 C 282.24267 179.36846 281.70923 180.72775 282.2129 184.98047 C 282.76695 189.65855 285.638 193.38455 290.41016 195.6211 C 292.02423 196.37752 293.21072 196.54825 295.86524 196.4043 C 299.69275 196.19674 301.81158 195.30631 304.41993 192.8086 L 306.18946 191.11329 L 305.93555 182.56446 C 305.56911 170.24564 307.03319 161.76004 311.35938 151.11719 C 312.38446 148.59548 312.7653 147.0309 312.51563 147.07617 z M 236.45118 147.11914 L 236.44922 147.1211 L 236.44727 147.1211 L 236.44532 147.1211 L 236.44336 147.12305 L 236.44141 147.12305 L 236.43946 147.125 L 236.4375 147.12696 C 236.31674 147.28192 236.99649 149.31565 238.00196 151.77735 C 242.08599 161.77628 243.52388 170.32815 243.17383 182.53711 L 242.92774 191.14454 L 244.68165 192.82032 C 246.64472 194.69542 248.16505 195.58136 250.3125 196.09961 C 253.68422 196.9133 256.6218 196.58859 259.66797 195.06641 C 262.893 193.45484 264.9338 191.23467 266.22266 187.9375 C 267.17353 185.50493 267.29219 180.58059 266.42579 179.50782 C 266.09262 179.0953 263.84376 177.42178 261.42774 175.78907 C 259.01172 174.15638 255.26701 171.17804 253.10547 169.16993 C 247.40379 163.87298 240.31584 154.58666 237.66211 148.9375 C 237.19261 147.93803 236.64764 147.11914 236.45313 147.11914 L 236.45118 147.11914 z M 404.62305 151.82422 L 403.72852 152.58399 C 404.17766 153.27566 404.24258 154.03709 403.92384 154.86914 C 403.62815 155.72827 403.16938 156.42475 402.54688 156.95508 L 381.19337 175.14649 C 380.70619 175.56153 380.40985 176.25703 380.30665 177.23243 C 380.17638 178.23088 380.24413 179.13259 380.50782 179.93555 L 386.31446 182.06446 L 387.20899 181.30274 C 386.48014 180.0086 386.94082 178.65849 388.5918 177.25196 L 390.09376 175.97266 C 391.12131 176.68536 393.10929 177.83973 396.0586 179.4375 C 399.05804 181.03929 400.65235 181.75907 400.8418 181.59766 L 415.29493 169.28516 C 416.13395 168.57036 416.71534 167.60843 417.03907 166.39844 C 417.41293 165.19246 417.57277 164.14499 417.51759 163.25782 C 417.51253 162.37465 417.42899 161.83985 417.26759 161.65039 C 416.85254 161.16322 414.51718 160.23159 410.26368 158.85743 C 410.72379 158.46544 410.99223 157.79414 411.06837 156.8418 C 411.19463 155.89347 411.12883 154.99176 410.86915 154.13867 C 406.89333 152.76149 404.81153 151.99062 404.62305 151.82422 z M 408.5586 160.31055 C 409.4528 160.48293 410.1205 160.82561 410.5586 161.33985 C 411.73456 162.72018 411.3212 164.26442 409.31837 165.97071 L 397.70704 175.86133 C 397.1928 176.29943 396.33664 176.2827 395.13868 175.8086 C 393.94072 175.33449 393.04092 174.74472 392.44141 174.04102 L 408.5586 160.31055 z M 421.32032 174.73633 C 421.30339 174.73649 421.28917 174.73987 421.27931 174.7461 L 406.12891 184.31641 C 404.41544 185.39871 403.20596 186.81414 402.50196 188.5625 C 401.82802 190.29188 401.77608 191.60794 402.34571 192.50977 C 402.55458 192.84044 405.04321 194.94832 409.81055 198.83399 L 411.11915 198.00782 C 410.24571 196.62501 409.61463 195.36267 409.22852 194.21875 C 408.49744 191.86289 409.28883 189.9523 411.60352 188.49024 C 411.67947 188.61048 412.42457 189.2566 413.83595 190.42579 C 415.29637 191.60604 416.9191 192.74616 418.70704 193.84571 C 420.49498 194.94525 421.66008 195.32421 422.20118 194.98243 L 429.77735 190.19727 C 430.55894 189.70359 431.16577 188.89905 431.59766 187.78516 C 432.05962 186.65228 432.32533 185.64385 432.39649 184.75782 C 432.49771 183.85279 432.5012 183.32414 432.40626 183.17383 C 432.08347 182.6628 430.19356 181.10266 426.73634 178.49219 C 423.46982 175.98599 421.6646 174.73306 421.32032 174.73633 z M 424.02149 180.58594 C 424.92811 181.02259 425.57142 181.54136 425.95118 182.14258 C 426.33094 182.7438 426.34267 183.42867 425.98829 184.19922 C 425.66397 184.95078 425.08195 185.59335 424.24024 186.125 L 421.03907 188.14649 C 418.54401 189.72247 416.0659 189.39486 413.60548 187.16407 L 424.02149 180.58594 z M 119.0918 184.63477 C 118.81922 184.63878 118.53398 184.66305 118.23828 184.70508 C 117.02422 184.85627 116.01465 185.11697 115.20703 185.48828 C 114.36815 185.84267 113.90498 186.09759 113.82031 186.25391 C 113.53247 186.78541 113.09566 189.19795 112.50977 193.49024 C 111.89261 197.76559 111.69326 199.96156 111.91211 200.08008 L 127.66992 208.61524 C 129.45202 209.58038 131.27915 209.9423 133.14844 209.70118 C 134.98647 209.44312 136.15805 208.8442 136.66602 207.90625 C 136.85227 207.56234 137.47392 204.36146 138.53125 198.30274 L 137.17188 197.56641 C 136.39299 199.00459 135.5999 200.17208 134.79102 201.06836 C 133.09379 202.85833 131.04021 203.10067 128.63282 201.79688 C 128.70054 201.67182 128.89907 200.7072 129.22852 198.9043 C 129.54363 197.05321 129.7436 195.0797 129.82813 192.98243 C 129.91265 190.88515 129.6741 189.68369 129.11133 189.37891 L 121.23242 185.11328 C 120.62276 184.7831 119.90954 184.62274 119.0918 184.63477 z M 274.87696 187.13477 C 274.5351 187.13814 274.0353 187.88072 273.64258 189.20313 C 272.61936 192.64871 271.57381 194.45793 269.03907 197.17579 C 266.32209 200.08907 263.9149 201.67027 260.29883 202.91602 C 255.76002 204.47967 249.03711 204.09079 245.0586 202.03516 C 244.3009 201.64365 243.57791 201.426 243.45118 201.55274 C 243.32444 201.67945 243.99668 202.80019 244.94532 204.04297 C 248.97654 209.32415 249.74777 218.00659 246.75391 224.4043 C 245.04787 228.05004 241.17477 232.2118 237.91993 233.89649 L 235.7754 235.00782 L 239.49805 235.59571 C 248.02855 236.94437 254.20393 242.02449 256.87891 249.89454 C 257.77406 252.52844 257.89712 253.70815 257.68165 257.60743 L 257.42579 262.21094 L 260.18165 259.51368 C 261.69674 258.03024 264.13028 256.23896 265.58985 255.53321 C 273.477 251.71941 283.29727 253.46144 289.22071 259.72461 C 290.58231 261.16429 291.79718 262.2419 291.91993 262.11915 C 292.04267 261.99642 291.94335 261.20572 291.70118 260.36133 C 290.63788 256.65385 291.51717 250.71985 293.79102 246.25586 C 296.87059 240.21004 305.0852 235.33745 312.24415 235.31055 L 313.79493 235.30469 L 311.75391 234.13672 C 304.71441 230.1116 300.48624 223.37149 300.49024 216.17579 C 300.49299 211.23699 302.34025 205.76676 304.94922 202.97071 C 306.24911 201.57762 305.79802 201.12028 304.02735 202.03516 C 301.66085 203.25789 298.53379 203.8908 294.95313 203.8711 C 289.12524 203.83882 283.948 201.47986 279.92188 197.02344 C 278.04755 194.94878 275.27004 189.69312 275.26954 188.21875 C 275.2692 187.47669 275.11086 187.13246 274.87696 187.13477 z M 118.16211 191.33204 C 118.8812 191.31902 119.62268 191.51876 120.38867 191.9336 L 123.71875 193.73829 C 126.31374 195.14367 127.24034 197.46403 126.49805 200.70118 L 115.66406 194.83399 C 115.60147 193.82965 115.73948 193.01397 116.07813 192.38868 C 116.41677 191.76338 117.0081 191.41741 117.85352 191.34961 C 117.95529 191.33902 118.05939 191.33389 118.16211 191.33204 z M 434.8672 193.46485 L 433.79688 193.94336 C 434.1021 194.6248 433.96789 195.36682 433.39259 196.16993 C 432.81728 196.97303 431.99466 197.61413 430.92384 198.09375 L 414.42188 205.48438 C 413.8378 205.74599 413.3428 206.33802 412.93751 207.25977 C 412.56467 208.16699 412.39222 209.04398 412.41993 209.88868 L 417.39649 213.5625 L 418.46876 213.08204 C 418.13246 211.63534 418.95224 210.46861 420.93165 209.58204 L 436.45899 202.62696 L 437.47071 204.10352 C 437.9358 205.1419 437.76978 206.07303 436.97071 206.89844 C 436.21862 207.74177 434.9324 208.57086 433.11524 209.38477 L 419.00001 215.70704 C 418.41592 215.96865 417.92092 216.56067 417.51563 217.48243 C 417.14279 218.38964 416.97035 219.26469 416.99806 220.10938 L 422.34376 224.08594 L 423.41602 223.60547 C 423.02835 221.87012 423.72506 220.60211 425.50977 219.80274 L 440.25977 213.19727 C 441.3955 212.68858 442.44058 211.67526 443.39649 210.15625 C 444.35241 208.63724 444.59791 207.35869 444.13282 206.32032 C 443.92934 205.86603 442.60832 204.74395 440.16993 202.95313 C 439.24379 202.27709 438.68847 201.86204 438.50391 201.71094 C 439.18535 201.40573 439.66149 200.86231 439.9336 200.07813 C 440.22025 199.3264 440.34097 198.76654 440.29298 198.39844 C 440.27743 198.01581 440.24974 197.69567 440.2129 197.43946 C 436.78347 195.00167 435.00138 193.67746 434.8672 193.46485 z M 385.1543 201.11329 C 385.01202 200.97101 381.99563 201.41865 378.45313 202.10938 C 366.75774 204.38979 359.59417 204.99619 344.32423 204.99219 C 333.94246 204.98979 328.47099 204.76818 323.37891 204.14454 C 316.59387 203.31354 316.4562 203.31648 314.59571 204.26563 C 308.80344 207.22063 306.25605 215.58962 309.32813 221.57227 C 310.82908 224.49527 313.84493 227.23816 316.64844 228.23243 C 320.5876 229.62948 321.83699 229.3305 327.75391 225.56641 C 343.21891 215.72826 361.30184 207.77401 378.31446 203.32618 C 385.26806 201.50821 385.48044 201.43943 385.1543 201.11329 z M 163.92383 201.12305 C 163.60211 201.44477 163.9155 201.542 170.92578 203.30469 C 186.6816 207.26637 206.2155 215.89284 221.23829 225.52344 C 227.2695 229.38986 228.47512 229.64894 232.83008 228.01954 C 237.44742 226.29198 241.34766 220.76363 241.34766 215.94922 C 241.34766 211.54045 238.60029 206.74228 234.80079 204.51563 L 232.70704 203.28907 L 225.75977 204.13282 C 220.75111 204.74199 215.03042 204.98551 205.2461 205.00391 C 190.24373 205.03227 183.82337 204.51198 171.86719 202.29883 C 167.63489 201.5154 164.06075 200.98613 163.92383 201.12305 z M 107.93946 207.63672 C 107.21117 207.63284 106.41201 207.73537 105.53906 207.94336 C 103.79318 208.35935 102.72264 209.10078 102.32813 210.16797 C 102.15553 210.63487 102.31242 212.36198 102.80078 215.34766 C 102.98918 216.47871 103.09697 217.16136 103.12305 217.39844 C 102.42271 217.13954 101.70217 217.19477 100.95899 217.56446 C 100.22813 217.90079 99.750681 218.21912 99.527346 218.51563 C 99.27066 218.79981 99.065111 219.04512 98.912111 219.25391 C 99.655568 223.3953 100.00022 225.58821 99.947268 225.83399 L 101.04883 226.24219 C 101.30773 225.54185 101.92349 225.10656 102.89649 224.93555 C 103.86948 224.76454 104.90532 224.88222 106.00586 225.28907 L 122.96485 231.55665 C 123.56514 231.77856 124.33299 231.70287 125.26758 231.32813 C 126.16882 230.94106 126.90519 230.43719 127.47657 229.81446 L 126.49219 223.70704 L 125.39258 223.30079 C 124.62031 224.56949 123.21597 224.82822 121.18164 224.07618 L 105.22461 218.17579 L 105.53516 216.41407 C 105.92968 215.34688 106.70118 214.79792 107.84961 214.76758 C 108.97702 214.69157 110.47422 214.99905 112.3418 215.68946 L 126.84766 221.05274 C 127.44795 221.27465 128.21581 221.19701 129.15039 220.82227 C 130.05163 220.4352 130.788 219.93133 131.35938 219.3086 L 130.32422 212.72852 L 129.22266 212.32032 C 128.28506 213.83116 126.90064 214.24839 125.06641 213.57032 L 109.90821 207.9668 C 109.32459 207.75105 108.66774 207.6406 107.93946 207.63672 z M 457.28321 218.50586 L 455.74415 218.94532 L 456.22657 220.63672 C 456.43147 221.35473 456.09429 222.24613 455.21485 223.31055 C 454.33541 224.37497 452.7209 225.90849 450.3711 227.91016 C 446.70491 222.70762 444.70129 220.15439 444.35938 220.25196 L 426.05079 225.47852 C 424.99088 225.78099 424.03956 226.40337 423.19923 227.34571 C 422.40284 228.31248 421.82456 229.19818 421.4629 230.00391 C 421.14518 230.83408 421.0196 231.36809 421.0879 231.60743 C 421.26353 232.22286 423.00216 234.03832 426.30274 237.05274 C 425.7215 237.21861 425.17616 237.70701 424.66798 238.51758 C 424.20374 239.35259 423.91438 240.21175 423.79688 241.09571 C 426.84354 243.99772 428.41705 245.5634 428.51954 245.79297 L 429.64845 245.47071 C 429.5266 244.65505 429.77896 243.9189 430.40431 243.25977 C 431.03941 242.63483 431.74878 242.20879 432.53516 241.98438 L 448.17774 237.52149 C 449.88727 237.03363 452.69828 235.15968 456.61134 231.89844 C 460.52439 228.63721 462.34939 226.54424 462.08595 225.6211 C 461.67615 224.18509 460.07578 221.81316 457.28321 218.50586 z M 446.06446 226.42188 L 446.51759 226.84766 C 447.42573 227.69775 448.02174 228.61785 448.3047 229.60938 C 448.34372 229.74614 448.06084 230.04892 447.45509 230.51758 C 446.89328 231.01068 446.50984 231.28717 446.3047 231.34571 L 428.45704 236.4375 C 427.71485 235.90981 427.2518 235.3215 427.06641 234.67188 C 426.5688 232.92816 427.58514 231.69469 430.11524 230.97266 L 446.06446 226.42188 z M 390.60548 227.58594 C 390.07653 227.58368 389.46765 227.61732 388.70509 227.67188 C 384.73344 227.95605 382.02113 229.34091 379.23634 232.50391 C 367.5023 245.83154 356.96944 251.03603 341.90235 250.95313 C 333.83155 250.90869 328.50268 249.59475 320.63673 245.71094 L 315.03126 242.94336 L 311.19337 243.16602 C 307.90035 243.35665 307.00644 243.61271 304.90235 244.9629 C 299.15452 248.65128 297.17485 255.48922 300.00391 261.88477 C 300.82307 263.73668 301.09642 263.97714 302.04297 263.6836 C 307.77105 261.90729 314.79625 261.43985 319.94923 262.49415 C 323.66757 263.25492 330.83539 266.87883 333.79102 269.49219 C 336.81993 272.17033 340.24756 276.83562 341.83985 280.44727 C 344.30994 286.04994 345.17982 293.36535 344.03516 298.89649 C 343.74286 300.30888 337.94085 319.99944 331.14063 342.6543 C 324.34041 365.30915 318.56356 384.60817 318.30274 385.54102 C 318.04191 386.47386 316.97588 390.03307 315.9336 393.45118 C 314.89133 396.86931 314.03712 400.00176 314.03712 400.41016 C 314.03712 400.92609 314.29556 401.04698 314.88477 400.80665 C 315.3512 400.61639 317.4791 399.85433 319.61133 399.11524 C 331.60637 394.95734 345.31262 387.41352 356.25196 378.94727 C 361.80566 374.64907 364.14249 371.33141 364.75196 366.88477 C 364.91646 365.68453 365.22375 364.70313 365.4336 364.70313 C 365.64345 364.70313 366.46203 365.24776 367.25391 365.91407 C 368.04579 366.58039 368.92357 367.12696 369.20313 367.12696 C 369.92155 367.12696 376.94656 359.08492 381.3711 353.19727 C 385.74294 347.37978 391.68632 337.57781 392.75977 334.41602 C 393.60427 331.92861 393.74322 327.46812 393.05274 325.06055 C 392.65421 323.67108 392.70301 323.49562 393.41798 323.70508 C 393.86961 323.83741 395.00178 324.08129 395.93555 324.2461 L 397.63282 324.54493 L 399.20704 320.27344 C 402.49869 311.33186 404.94774 301.48663 406.3711 291.47657 C 407.10925 286.2868 407.10938 285.61027 406.38868 282.75391 C 405.95901 281.0508 404.95871 278.72452 404.16407 277.58399 C 403.36945 276.44345 402.71876 275.41513 402.71876 275.29883 C 402.71876 275.29793 402.71863 275.29585 402.71876 275.29493 C 402.71902 275.29399 402.72032 275.29002 402.72071 275.28907 C 402.72124 275.2881 402.72396 275.28419 402.72462 275.28321 C 402.82027 275.16172 403.87241 274.93412 405.14259 274.76563 L 407.56446 274.44336 L 407.56446 272.42188 C 407.56446 262.21848 404.24459 241.48049 401.64454 235.44727 C 400.44237 232.65775 398.28671 230.49642 395.1836 228.96875 C 393.05829 227.9225 392.19233 227.59272 390.60548 227.58594 z M 159.04883 227.66016 C 154.65952 227.88187 150.5224 230.20742 148.43946 233.76172 C 146.92552 236.34507 144.81391 244.27674 143.46485 252.44336 C 142.42249 258.75331 141.24813 272.67078 141.66602 273.75977 C 141.81127 274.13826 142.92787 274.59627 144.14844 274.7793 C 145.32133 274.95519 146.28945 275.17996 146.36328 275.28907 L 146.36524 275.29102 C 146.3656 275.29188 146.36695 275.29604 146.36719 275.29688 L 146.36719 275.29883 L 146.36719 275.30079 C 146.36719 275.40436 145.74261 276.42617 144.97852 277.57227 C 142.32371 281.55439 141.84984 285.09604 142.94532 292.76172 C 144.24139 301.83097 146.28388 309.95257 149.6836 319.55274 L 151.45508 324.55665 L 153.23047 324.27735 C 154.20665 324.12407 155.39001 323.85199 155.85938 323.67188 C 156.55265 323.40585 156.64347 323.52009 156.3418 324.27735 C 155.61722 326.09613 155.45921 330.70199 156.03907 333.11915 C 156.99095 337.08698 163.87761 348.45349 170.03711 356.22266 C 173.80797 360.97895 179.37224 367.12696 179.90625 367.12696 C 180.15258 367.12696 181.06782 366.58039 181.94141 365.91407 C 182.81499 365.24776 183.6447 364.70313 183.78321 364.70313 C 183.7854 364.70337 183.79073 364.70437 183.79297 364.70509 C 183.93358 364.7637 184.173 365.72057 184.33203 366.88087 C 185.1387 372.76619 189.64236 377.44358 202.4668 385.71485 C 210.92747 391.17163 219.42285 395.39078 229.47657 399.13282 C 235.25325 401.28293 235.04883 401.24108 235.04883 400.28907 C 235.04883 399.87178 229.14648 379.86476 221.93165 355.82813 C 214.7168 331.79152 208.47903 310.70704 208.07032 308.97462 C 207.03329 304.57869 207.45043 295.43552 208.90039 290.80274 C 213.74442 275.32563 227.01572 264.89577 242.95118 264.04102 L 248.18946 263.75977 L 249.22461 261.77344 C 250.59973 259.14047 250.68545 253.32719 249.38477 250.82422 C 246.68552 245.62987 243.46138 243.48893 237.84961 243.16407 L 234.09375 242.94532 L 228.51172 245.70118 C 220.65844 249.5784 215.25692 250.90873 207.1836 250.95313 C 193.24491 251.02989 182.67353 246.2547 172.43164 235.25586 C 166.94062 229.359 164.96451 228.05845 160.94141 227.69727 C 160.30935 227.64053 159.67588 227.62849 159.04883 227.66016 z M 86.26758 228.18555 C 85.861311 228.19471 85.438956 228.29285 85.001955 228.48047 C 84.311457 228.7462 83.935927 228.99892 83.875002 229.24024 C 83.82278 229.44708 83.890145 230.34449 84.076174 231.93165 C 84.232676 233.43944 84.362547 234.22297 84.464845 234.28321 L 84.466799 234.28516 L 84.468752 234.28711 L 84.470705 234.28711 L 87.625002 235.08399 C 88.624742 235.33639 89.482952 235.35146 90.199221 235.12891 C 90.889719 234.86319 91.275185 234.57394 91.353517 234.26368 C 91.43185 233.95341 91.385761 233.04467 91.216799 231.53516 C 91.016541 230.04067 90.865064 229.26741 90.761721 229.21875 L 90.759767 229.21875 L 90.757814 229.21875 L 86.982424 228.26563 C 86.749725 228.20688 86.511341 228.18005 86.26758 228.18555 z M 98.880861 230.56446 C 98.371531 230.56651 97.797386 230.74868 97.156252 231.10938 C 96.266933 231.58161 95.570105 232.15585 95.068361 232.83594 L 96.697268 238.80469 L 97.835939 239.0918 C 98.468578 237.748 99.836553 237.34018 101.93946 237.8711 L 120.24414 242.49415 C 120.86467 242.65081 121.62045 242.49176 122.50977 242.01954 C 123.36461 241.53861 124.04123 240.95939 124.54297 240.2793 L 122.91406 234.3125 L 121.77735 234.02344 C 121.14471 235.36724 119.77673 235.77507 117.67383 235.24415 L 99.369143 230.6211 C 99.21401 230.58193 99.050638 230.56377 98.880861 230.56446 z M 464.97267 240.94336 L 461.76759 241.49805 C 460.75155 241.67371 459.96246 242.00754 459.39845 242.50196 C 458.87552 243.02536 458.64081 243.44445 458.69532 243.75977 C 458.74984 244.07509 459.15992 244.88865 459.92774 246.19922 C 460.71806 247.48336 461.17097 248.12645 461.28517 248.12891 C 461.28603 248.12885 461.2902 248.12905 461.29102 248.12891 L 465.12696 247.46485 C 465.75761 247.35582 466.3308 247.02328 466.84767 246.46485 C 467.37059 245.94145 467.61077 245.55776 467.56837 245.3125 C 467.53203 245.10229 467.106 244.30819 466.29102 242.9336 C 465.53529 241.61952 465.09843 240.95683 464.98048 240.94336 L 464.97852 240.94336 C 464.97766 240.94342 464.97349 240.94322 464.97267 240.94336 z M 451.96681 241.78516 L 450.81056 241.98438 C 450.77861 243.4693 449.69383 244.39615 447.55665 244.76563 L 428.95313 247.98243 C 428.32249 248.09145 427.69685 248.54306 427.07618 249.33594 C 426.49055 250.12276 426.1059 250.92861 425.92384 251.75391 L 429.8379 256.54297 L 430.99415 256.34376 C 431.0261 254.85883 432.11087 253.93199 434.24806 253.56251 L 452.85157 250.34571 C 453.48222 250.23668 454.09016 249.78878 454.67579 249.00196 C 455.29646 248.20908 455.6988 247.39953 455.88087 246.57422 L 451.96681 241.78516 z M 98.412111 244.3379 C 97.090313 244.35293 95.805998 244.67707 94.558596 245.3086 C 92.900372 246.11543 91.997041 247.04541 91.847658 248.10157 L 94.158205 255.00001 C 93.61519 255.03093 92.963607 255.31639 92.20508 255.85547 C 91.451532 256.35935 90.861942 256.97539 90.435549 257.70508 L 92.841799 263.91797 L 94.003908 264.08204 C 94.599951 262.40678 95.866454 261.70661 97.802736 261.98047 L 113.27539 264.16797 C 114.54278 264.34723 116.07029 264.07979 117.85938 263.36329 C 119.65344 262.61158 120.62884 261.68902 120.78321 260.59766 C 120.93757 259.5063 120.54152 256.97218 119.59571 252.9961 C 118.64989 249.02001 118.01802 247.00966 117.70117 246.96485 L 99.748049 244.42579 C 99.299183 244.3623 98.852711 244.33288 98.412111 244.3379 z M 100.46094 251.10743 C 100.93112 251.13129 101.44844 251.18401 102.01172 251.26368 L 116.95703 253.37696 C 117.33573 254.5078 117.48397 255.35469 117.4043 255.91797 C 117.32463 256.48126 116.9514 256.96678 116.28321 257.37501 C 115.61501 257.78323 114.84107 257.92527 113.96094 257.80079 L 95.953127 255.25391 C 96.212056 253.42324 96.722824 252.22078 97.48633 251.64649 C 98.05896 251.21577 99.050397 251.03585 100.46094 251.10743 z M 454.26759 254.95508 L 453.09571 255.03126 C 453.14376 255.77637 452.75899 256.42491 451.93946 256.97657 C 451.11993 257.52823 450.12403 257.84052 448.95313 257.91602 L 430.91016 259.08008 C 430.27149 259.12127 429.60204 259.50241 428.9004 260.22461 C 428.23424 260.94453 427.76705 261.70467 427.49806 262.50586 L 430.87891 267.68751 L 432.04884 267.61133 C 432.23888 266.13827 433.41569 265.33098 435.58009 265.19141 L 452.5586 264.09766 L 452.9922 265.83399 C 453.06541 266.96941 452.58193 267.78293 451.54493 268.27735 C 450.5457 268.80497 449.0534 269.13359 447.06642 269.26172 L 431.63087 270.25586 C 430.99219 270.29705 430.32275 270.68015 429.6211 271.40235 C 428.95494 272.12227 428.48776 272.88241 428.21876 273.6836 L 431.83985 279.2754 L 433.00977 279.19922 C 433.25248 277.43773 434.34929 276.49499 436.30079 276.36915 L 452.42774 275.32813 C 453.66961 275.24805 455.00352 274.66381 456.4297 273.57422 C 457.85587 272.48463 458.53221 271.37175 458.45899 270.23633 C 458.42696 269.73959 457.58144 268.22683 455.92188 265.69727 C 455.29011 264.74039 454.9151 264.15916 454.79493 263.95313 C 455.54005 263.90508 456.17627 263.56168 456.70509 262.92188 C 457.23619 262.31756 457.5434 261.83434 457.62696 261.47266 C 457.74601 261.10869 457.83373 260.79983 457.88868 260.54688 C 455.52639 257.06502 454.31909 255.20117 454.26759 254.95508 z M 275.36719 258.25586 C 273.19279 258.17542 270.1366 258.71659 267.88086 259.61719 L 266.54688 260.14844 L 266.54688 284.0879 L 266.54688 308.0293 L 274.66407 307.89649 L 282.78126 307.76368 L 282.91602 284.98829 C 282.98992 272.46149 282.93885 261.75124 282.80274 261.18946 C 282.52334 260.03621 279.71831 258.81429 276.24024 258.33008 C 275.9705 258.29253 275.67782 258.26736 275.36719 258.25586 z M 115.91211 267.29297 C 115.57869 268.74033 114.32781 269.42858 112.16016 269.35547 L 93.291017 268.71876 C 92.651382 268.69718 91.963948 269.01287 91.230471 269.66407 C 90.461458 270.31407 89.90478 271.02394 89.558596 271.79493 L 92.416017 277.28126 L 93.587892 277.32032 C 93.921312 275.87296 95.172191 275.18666 97.339846 275.25977 L 116.20899 275.89454 C 116.84862 275.91611 117.55326 275.60313 118.32227 274.95313 C 119.05575 274.30193 119.59522 273.59131 119.94141 272.82032 L 117.08399 267.33399 L 115.91211 267.29297 z M 80.685548 269.04102 C 80.045913 269.01945 79.416557 269.22834 78.796877 269.66993 C 78.178394 270.07598 77.865813 270.4036 77.857423 270.65235 C 77.850233 270.86556 78.104819 271.72858 78.623048 273.24024 C 79.0956 274.6806 79.389212 275.41985 79.501955 275.45704 C 79.502834 275.45724 79.506958 275.45692 79.507814 275.45704 L 79.509767 275.45899 L 82.76172 275.56836 C 83.792245 275.60312 84.632339 275.43573 85.285158 275.06641 C 85.90364 274.66036 86.219684 274.29639 86.23047 273.97657 C 86.241257 273.65675 86.002671 272.77729 85.51758 271.3379 C 85.005088 269.91982 84.693341 269.19752 84.582033 269.17188 L 84.58008 269.17188 L 84.578127 269.17188 L 80.685548 269.04102 z M 313.78321 271.86133 C 311.02171 271.77831 308.19374 272.1958 306.04102 273.04883 C 304.6585 273.59667 301.74094 273.89078 295.86524 274.07227 L 287.62696 274.32618 L 287.62696 282.32227 L 287.62696 290.31837 L 294.41212 290.63282 C 305.2412 291.13621 312.05958 293.42634 321.21485 299.63087 C 325.57578 302.58628 326.71529 303.1424 328.41798 303.1504 C 332.80042 303.17132 334.74358 299.36603 334.26563 291.70508 C 333.65317 281.88795 326.20702 273.67719 316.4961 272.11329 C 315.61753 271.97179 314.70371 271.88901 313.78321 271.86133 z M 251.0918 274.08399 C 241.6838 274.08399 240.10773 274.19961 237.1875 275.10157 C 225.32412 278.7658 217.60352 289.10432 217.60352 301.32422 C 217.60352 309.4418 219.97835 315.25567 225.58399 320.86133 C 227.5896 322.86692 230.26138 324.93547 232.07813 325.88868 C 238.11733 329.0573 237.40118 328.98885 268.04102 329.29298 L 295.94337 329.57032 L 298.32032 331.04102 C 302.87383 333.85749 304.84258 340.5544 302.47657 345.18165 C 300.21361 349.60737 297.50824 351.22385 291.7461 351.59571 L 287.62696 351.86134 L 287.49219 359.35157 C 287.41831 363.47155 287.47851 367.15533 287.62501 367.53712 C 288.03675 368.61009 297.39922 367.99695 301.30469 366.64063 C 309.7268 363.71576 316.51173 356.51412 319.08008 347.7754 C 320.10273 344.29588 320.10273 336.65138 319.08008 333.17188 C 316.52224 324.46895 309.90508 317.41986 301.30469 314.23829 C 298.31924 313.13387 298.00786 313.12174 270.18165 312.86719 C 242.42929 312.6133 242.05106 312.59529 240.0918 311.54688 C 237.60628 310.21686 235.33009 307.65979 234.5625 305.33399 C 234.23844 304.35191 234.05936 302.17893 234.16602 300.50391 C 234.39869 296.84994 235.95455 294.16505 239.01368 292.13868 C 241.01896 290.81037 241.08939 290.80118 250.2754 290.67579 C 255.35995 290.60639 260.01166 290.4383 260.61133 290.30274 C 261.68798 290.05934 261.70118 289.95663 261.70118 282.07032 L 261.70118 274.08399 L 251.0918 274.08399 z M 114.67383 280.85938 L 84.781252 283.05274 C 83.611066 283.13861 82.345212 283.85533 80.982423 285.20313 C 79.617033 286.51547 78.957067 287.49063 79.003908 288.12891 L 83.210939 294.45118 C 82.572656 294.49802 81.923434 294.88359 81.263673 295.60938 C 80.568453 296.33777 80.090019 297.10466 79.828127 297.90821 L 83.255861 303.0586 L 84.425783 302.97266 C 84.638232 301.49537 85.700386 300.68545 87.615236 300.54493 L 113.14649 298.67188 C 115.2741 298.51575 117.06174 297.83226 118.50586 296.6211 C 119.94738 295.37448 120.63668 294.32566 120.57422 293.47462 C 120.50916 292.58811 119.58938 290.26564 117.81641 286.50977 C 116.00537 282.72105 114.95751 280.83856 114.67383 280.85938 z M 421.9922 281.12891 L 421.07423 282.60743 C 420.45848 283.62874 419.82516 284.86195 419.17579 286.3086 C 418.52642 287.75525 418.16577 288.92248 418.09571 289.8086 C 418.05648 290.30483 418.94052 291.30255 420.74806 292.80079 C 422.52015 294.29622 424.61776 295.74435 427.03907 297.14844 C 429.42494 298.54973 431.29177 299.30367 432.63868 299.41016 L 449.54493 300.74805 C 451.4944 300.90218 453.3092 300.50951 454.98829 299.57227 C 456.70283 298.63783 457.59597 297.72793 457.66602 296.8418 C 457.73608 295.95568 457.18154 293.48764 456.00392 289.43555 C 454.85893 285.42171 454.10836 283.39912 453.75392 283.3711 L 436.26173 281.98829 C 434.52493 281.85097 432.91365 282.16934 431.42579 282.94336 C 429.97338 283.7202 429.20407 284.65903 429.1172 285.75782 C 429.06956 286.36038 429.82676 288.73878 431.38868 292.89258 C 428.85823 291.51553 426.88236 289.87798 425.4629 287.98243 C 424.00799 286.08408 423.33603 284.44486 423.44532 283.06251 L 423.5879 281.25391 L 421.9922 281.12891 z M 114.34961 287.35352 C 114.96902 288.02109 115.30212 288.6915 115.35156 289.36524 C 115.48428 291.17371 114.23929 292.17463 111.61524 292.36719 L 86.615236 294.20118 C 86.033891 293.56647 85.718062 292.89476 85.666017 292.18555 C 85.533302 290.37708 86.724517 289.38008 89.242189 289.19532 L 114.34961 287.35352 z M 438.50587 288.7129 C 439.0281 288.70514 439.60043 288.72636 440.22071 288.7754 L 452.44923 289.74219 C 452.9603 290.49593 453.1825 291.29777 453.11524 292.14844 C 452.98634 293.77891 451.36135 294.47122 448.2422 294.22462 L 433.6211 293.06837 C 433.75001 291.4379 434.25203 290.26612 435.12891 289.55079 C 435.81316 289.01639 436.93916 288.73615 438.50587 288.7129 z M 266.54688 334.1504 L 266.54688 359.82032 L 266.54688 385.49024 L 269.0918 385.70118 C 273.8838 386.09849 282.17223 385.64686 282.60743 384.96485 C 282.83042 384.61531 282.96244 373.09923 282.89844 359.37305 L 282.78126 334.41602 L 274.66407 334.28321 L 266.54688 334.1504 z M 34.796876 351.35938 C 29.632007 355.27025 20.546788 352.35433 19.470704 363.38282 L 15.611328 358.50782 L 15.611328 420.67579 C 15.611328 459.21754 42.295846 455.36939 45.361329 454.47462 L 46.490235 458.49806 C 48.934817 468.35632 43.321795 459.40506 37.333985 460.72852 C 42.641232 481.56108 49.135594 474.88208 56.833986 482.81642 L 48.126954 450.84767 L 65.021486 434.22266 C 65.021486 434.22266 59.457679 435.87515 55.32422 435.76173 C 49.368881 435.59821 41.199191 440.58876 43.777345 448.56056 C 34.559931 451.88644 27.996002 448.71484 27.404297 439.60548 L 27.404297 381.03516 C 27.404297 378.31425 29.662709 379.28783 31.773438 375.22071 C 33.071503 372.7197 32.753907 368.38282 32.753907 368.38282 C 30.394948 370.55993 26.933368 370.96023 27.498047 375.33009 L 25.083985 372.32423 L 25.083985 440.16798 C 25.083985 440.16798 21.271485 438.09579 21.271485 421.38673 L 21.271485 395.9961 C 21.271485 380.00724 19.396024 384.15304 19.84961 375.91212 C 20.178958 369.92799 26.486248 365.5958 30.800782 361.28126 C 33.910407 358.17164 34.796876 351.35938 34.796876 351.35938 z M 509.67579 351.35938 C 509.67579 351.35938 510.56226 358.17164 513.67189 361.28126 C 517.98642 365.5958 524.29383 369.92994 524.62306 375.91407 C 525.07661 384.15499 523.20118 380.00724 523.20118 395.9961 L 523.20118 421.38868 C 523.20118 438.09774 519.38868 440.16798 519.38868 440.16798 L 519.38868 372.32423 L 516.97462 375.33009 C 517.53929 370.96024 514.07772 370.55993 511.71876 368.38282 C 511.71876 368.38282 511.40125 372.71971 512.69923 375.22071 C 514.80996 379.28784 517.06837 378.31427 517.06837 381.03516 L 517.06837 439.60548 C 516.47666 448.71488 509.91273 451.88644 500.69532 448.56056 C 503.27347 440.58876 495.10379 435.59834 489.14845 435.76173 C 485.01499 435.87523 479.45118 434.22266 479.45118 434.22266 L 496.34571 450.84767 L 487.63868 482.81642 C 495.33712 474.88208 501.83139 481.56108 507.13868 460.72852 C 501.15083 459.40506 495.53781 468.35632 497.98243 458.49806 L 499.11134 454.47462 C 502.17686 455.36939 528.86134 459.21754 528.86134 420.67579 L 528.86134 358.50782 L 525.00196 363.38282 C 523.92592 352.35433 514.84071 355.27025 509.67579 351.35938 z M 260.34571 353.03516 C 259.57283 352.99732 258.28668 353.70792 256.12891 354.71876 C 246.98394 359.00284 240.86329 368.76838 240.86329 379.07618 C 240.86329 387.13345 243.30242 392.9609 249.04688 398.63477 C 253.24957 402.78577 256.24107 404.55528 261.3086 405.88282 C 268.05577 407.65041 277.32103 406.87112 285.06251 403.88673 C 291.89771 401.25172 299.16335 395.72819 303.66016 389.7461 C 306.96751 385.34635 311.32447 376.33399 310.14454 376.33399 C 309.89268 376.33399 308.5232 377.38642 307.10157 378.67384 C 301.56048 383.69188 294.8022 387.24466 287.0586 389.20899 C 283.04487 390.22714 281.30188 390.38673 274.22266 390.38673 C 265.12811 390.38673 263.66132 390.05349 260.79493 387.33399 C 256.381 383.14623 256.14554 375.97084 260.28321 371.69532 L 261.72461 370.20704 L 261.5918 361.51954 C 261.49588 355.2391 261.63383 353.09824 260.34571 353.03516 z M 282.29102 410.10938 C 281.71684 410.08822 280.58805 410.24818 279.38868 410.53907 C 277.78951 410.92692 274.24559 411.38084 271.51368 411.54884 L 266.54688 411.85548 L 266.54688 456.61915 L 266.54688 501.38282 L 274.66407 501.25001 L 282.78126 501.1172 L 282.9043 455.83399 C 282.97233 430.92837 282.86338 410.39061 282.66211 410.19337 C 282.61179 410.14406 282.48242 410.11644 282.29102 410.10938 z M 468.59571 428.39063 C 468.55885 428.39063 468.52324 428.39154 468.48634 428.39454 C 468.45394 428.39454 468.42138 428.39545 468.38868 428.39845 C 468.37638 428.40245 468.36387 428.40326 468.35157 428.40626 C 468.30207 428.41436 468.25339 428.42716 468.20509 428.43946 L 468.18165 428.44337 L 437.70118 436.60938 C 437.44387 436.67777 437.20791 436.8136 437.01954 437.00196 C 436.83119 437.19028 436.69771 437.42644 436.62891 437.6836 L 428.4629 468.16212 L 428.45899 468.18751 C 428.44269 468.23622 428.43379 468.28449 428.42579 468.33399 C 428.42179 468.34629 428.42098 468.3588 428.41798 468.3711 C 428.41698 468.403 428.41507 468.43606 428.41407 468.46876 C 428.41307 468.50561 428.41116 468.54123 428.41016 468.57813 C 428.41016 468.6461 428.41388 468.71406 428.42188 468.78126 C 428.43008 468.84554 428.44259 468.90851 428.45899 468.97071 L 428.45899 468.97267 L 428.45899 468.97462 L 428.46095 468.97657 C 428.46495 468.99737 428.47248 469.01867 428.48048 469.03907 C 428.49408 469.08417 428.51095 469.12808 428.52735 469.17188 C 428.53965 469.19488 428.55216 469.21984 428.56446 469.24024 C 428.58366 469.27704 428.6007 469.31077 428.6211 469.34767 C 428.6387 469.37307 428.65353 469.39924 428.66993 469.42384 C 428.69003 469.45534 428.71398 469.48693 428.73438 469.51563 C 428.75738 469.54313 428.78205 469.57111 428.80665 469.59571 C 428.82025 469.61291 428.83517 469.634 428.85157 469.6504 L 428.88868 469.68556 L 451.18165 491.97853 C 451.46829 492.26505 451.85332 492.42284 452.24806 492.42384 C 452.37991 492.42424 452.51196 492.408 452.64259 492.3711 L 483.11524 484.20704 L 483.11915 484.20704 L 483.12306 484.20509 L 483.14454 484.20118 C 483.16534 484.19718 483.18469 484.18965 483.20509 484.18165 C 483.2461 484.16775 483.28713 484.15508 483.32813 484.13868 L 483.33204 484.13868 C 483.38814 484.11488 483.4428 484.08535 483.4961 484.05665 C 483.53127 484.03575 483.56497 484.01484 483.59767 483.99024 C 483.62267 483.97264 483.64728 483.95586 483.67188 483.93946 C 483.72382 483.89977 483.77362 483.85686 483.82032 483.81056 C 483.86652 483.76387 483.90823 483.71462 483.94923 483.66212 C 483.96683 483.63832 483.98361 483.6125 484.00001 483.5879 C 484.02381 483.55473 484.04602 483.52314 484.06642 483.48634 C 484.09682 483.43351 484.12385 483.37878 484.14845 483.32228 L 484.14845 483.31837 C 484.16645 483.27865 484.17912 483.23672 484.19142 483.19532 C 484.19952 483.17492 484.20295 483.15518 484.21095 483.13478 L 484.21485 483.11329 L 484.21681 483.10938 L 484.21681 483.10548 L 492.38087 452.63282 C 492.52025 452.11064 492.37033 451.55392 491.98829 451.17188 L 469.69727 428.87891 L 469.66017 428.84181 C 469.64287 428.82421 469.62188 428.81328 469.60548 428.79688 C 469.57968 428.77188 469.5541 428.74922 469.5254 428.72462 C 469.4954 428.70222 469.4663 428.68056 469.4336 428.66016 C 469.409 428.64256 469.38203 428.62774 469.35743 428.61134 C 469.32223 428.59214 469.28691 428.5711 469.25001 428.5547 C 469.22781 428.5425 469.20625 428.52989 469.18165 428.51759 C 469.13777 428.49999 469.09384 428.48301 469.04884 428.47071 C 469.02844 428.46261 469.00674 428.45918 468.98634 428.45118 L 468.98438 428.44923 L 468.98243 428.44923 L 468.98048 428.44923 C 468.91824 428.43273 468.85492 428.42012 468.79102 428.41212 C 468.72346 428.40282 468.6559 428.39969 468.5879 428.4004 L 468.59571 428.39063 z M 75.884767 428.4004 L 75.884767 428.40626 C 75.816793 428.40626 75.748802 428.41193 75.681642 428.41993 C 75.617353 428.42813 75.552476 428.44064 75.490236 428.45704 L 75.488283 428.45704 L 75.48633 428.45704 L 75.484376 428.45899 C 75.463486 428.46299 75.4443 428.47052 75.42383 428.47852 C 75.378778 428.49212 75.332874 428.509 75.289064 428.5254 C 75.266534 428.5376 75.243128 428.55021 75.222658 428.56251 C 75.185804 428.58171 75.150143 428.5968 75.113283 428.6172 C 75.087903 428.6348 75.063634 428.65158 75.039064 428.66798 C 75.007534 428.68798 74.973974 428.71203 74.945314 428.73243 C 74.917874 428.75543 74.891759 428.7801 74.867189 428.8047 C 74.849989 428.8183 74.828881 428.83322 74.812501 428.84962 L 74.779298 428.88673 L 52.486329 451.1797 C 52.102243 451.56188 51.956478 452.11845 52.095704 452.64063 L 60.259767 483.11329 C 60.259726 483.11429 60.259726 483.11622 60.259767 483.1172 L 60.26172 483.1211 L 60.265626 483.14259 C 60.273816 483.16339 60.276957 483.18273 60.285157 483.20313 C 60.299077 483.24405 60.311746 483.28323 60.328126 483.32423 L 60.328126 483.32813 C 60.351866 483.38423 60.381497 483.44085 60.410157 483.49415 C 60.431047 483.52932 60.451994 483.56301 60.476564 483.59571 C 60.494174 483.62071 60.510965 483.64533 60.527345 483.66993 C 60.567062 483.72187 60.609981 483.77167 60.656251 483.81837 C 60.702933 483.86456 60.752279 483.90628 60.804689 483.94728 C 60.828449 483.96488 60.854337 483.98166 60.878907 483.99806 C 60.912078 484.02186 60.94361 484.04406 60.98047 484.06446 C 61.033293 484.09476 61.088022 484.12189 61.144532 484.14649 L 61.148439 484.14649 C 61.188157 484.16039 61.230536 484.17716 61.271486 484.18946 C 61.291956 484.19756 61.311562 484.20099 61.332032 484.20899 L 61.353517 484.2129 L 61.357423 484.21485 L 61.361329 484.21485 L 91.832033 492.37892 C 91.962659 492.41462 92.095119 492.43206 92.226564 492.43165 C 92.621388 492.43067 93.008285 492.27298 93.294924 491.98634 L 115.58789 469.69337 L 115.62305 469.65626 C 115.64065 469.63906 115.65352 469.61992 115.66992 469.60352 C 115.69492 469.57772 115.71759 469.55215 115.74219 469.52345 C 115.76459 469.49355 115.78624 469.46435 115.80664 469.43165 C 115.82434 469.40705 115.83907 469.38008 115.85547 469.35548 C 115.87467 469.32028 115.89571 469.28496 115.91211 469.24806 C 115.92441 469.22586 115.93301 469.2043 115.94531 469.1797 C 115.96291 469.1359 115.97989 469.09188 115.99219 469.04688 C 116.00039 469.02648 116.00372 469.00478 116.01172 468.98438 L 116.01367 468.98243 L 116.01367 468.98048 L 116.01367 468.97852 C 116.03427 468.91628 116.04669 468.85287 116.05469 468.78907 C 116.06399 468.7215 116.0671 468.65395 116.06641 468.58595 C 116.06641 468.5491 116.0655 468.51347 116.0625 468.47657 C 116.0625 468.44407 116.0616 468.41162 116.0586 468.37892 C 116.0546 468.36662 116.05378 468.35411 116.05078 468.34181 C 116.04668 468.2923 116.03379 468.24362 116.02149 468.19532 L 116.01758 468.16993 L 107.85156 437.69141 C 107.78277 437.43404 107.64929 437.20008 107.46094 437.01173 C 107.27261 436.82336 107.03645 436.68795 106.7793 436.61915 L 76.29883 428.45313 L 76.275392 428.44923 C 76.227067 428.43293 76.178448 428.42402 76.128908 428.41602 C 76.116618 428.41202 76.104088 428.41121 76.091798 428.40821 C 76.059858 428.40721 76.026902 428.40529 75.994142 428.40431 C 75.9577 428.40331 75.921627 428.40138 75.884767 428.4004 z M 76.556642 432.42579 L 93.875002 446.66017 L 68.679689 453.41212 L 76.556642 432.42579 z M 467.91602 432.42579 L 475.79298 453.41212 L 450.59767 446.66017 L 467.91602 432.42579 z M 82.250002 433.18556 L 103.46094 438.86915 L 97.011721 445.32032 L 82.250002 433.18556 z M 462.22267 433.18556 L 447.46095 445.32032 L 441.01173 438.86915 L 462.22267 433.18556 z M 72.005861 435.9336 L 65.291017 453.82032 L 56.48047 451.45704 L 72.005861 435.9336 z M 472.46681 435.9336 L 487.9922 451.45704 L 479.18165 453.82032 L 472.46681 435.9336 z M 105.60352 441.01173 L 111.28711 462.22071 L 99.152346 447.46095 L 105.60352 441.01173 z M 438.86915 441.01173 L 445.32032 447.46095 L 433.18556 462.22071 L 438.86915 441.01173 z M 94.968752 449.50392 L 88.050783 475.32032 L 78.601564 465.8711 L 69.152345 456.42188 L 94.968752 449.50392 z M 449.50392 449.50392 L 475.32032 456.42188 L 465.8711 465.8711 L 456.42188 475.32032 L 449.50392 449.50392 z M 97.812502 450.59767 L 112.04688 467.91602 L 91.060549 475.79298 L 97.812502 450.59767 z M 446.66017 450.59767 L 453.41212 475.79298 L 432.42579 467.91602 L 446.66017 450.59767 z M 55.697267 454.38282 L 64.507814 456.74415 L 61.380861 475.59376 L 55.697267 454.38282 z M 488.7754 454.38282 L 483.09181 475.59376 L 479.96485 456.74415 L 488.7754 454.38282 z M 67.238283 458.79102 L 76.460939 468.01173 L 85.681642 477.23438 L 63.568361 480.90431 L 67.238283 458.79102 z M 477.23438 458.79102 L 480.90431 480.90431 L 458.79102 477.23438 L 468.01173 468.01173 L 477.23438 458.79102 z M 108.53906 472.46681 L 93.015627 487.9922 L 90.652346 479.18165 L 108.53906 472.46681 z M 435.9336 472.46681 L 453.82032 479.18165 L 451.45899 487.9922 L 435.9336 472.46681 z M 110.25 479.45118 L 93.625002 496.34571 L 61.656251 487.63868 C 69.590587 495.33712 62.911534 501.83139 83.744142 507.13868 C 85.067554 501.15083 76.116352 495.53785 85.974611 497.98243 L 89.998049 499.11134 C 89.103285 502.17686 85.255134 528.85939 123.79688 528.85939 L 185.96485 528.85939 L 181.08985 525.00196 C 192.11833 523.92592 189.20247 514.84071 193.11329 509.67579 C 193.11329 509.67579 186.30104 510.56226 183.19141 513.67189 C 178.87688 517.98642 174.54467 524.29384 168.56055 524.62306 C 160.31964 525.07661 164.46543 523.20118 148.47657 523.20118 L 123.08594 523.20118 C 106.37688 523.20118 104.30469 519.38673 104.30469 519.38673 L 172.14844 519.38673 L 169.14258 516.97462 C 173.51239 517.53929 173.91279 514.07772 176.08985 511.71876 C 176.08985 511.71876 171.75297 511.40124 169.25196 512.69923 C 165.18484 514.80996 166.1584 517.06837 163.4375 517.06837 L 104.86719 517.06837 C 95.757801 516.47665 92.586278 509.91273 95.912111 500.69532 C 103.88392 503.27347 108.87432 495.10379 108.71094 489.14845 C 108.59742 485.01499 110.25 479.45118 110.25 479.45118 z M 434.22266 479.45118 C 434.22266 479.45118 435.87515 485.01499 435.76173 489.14845 C 435.59822 495.10379 440.58876 503.27347 448.56056 500.69532 C 451.88644 509.91273 448.71484 516.47665 439.60548 517.06837 L 381.03516 517.06837 C 378.31426 517.06837 379.28783 514.80996 375.22071 512.69923 C 372.71971 511.40116 368.38282 511.71876 368.38282 511.71876 C 370.55993 514.07772 370.96023 517.53929 375.33009 516.97462 L 372.32423 519.38673 L 440.16798 519.38673 C 440.16798 519.38673 438.09579 523.20118 421.38673 523.20118 L 395.9961 523.20118 C 380.00724 523.20118 384.15304 525.07661 375.91212 524.62306 C 369.92799 524.29368 365.5958 517.98642 361.28126 513.67189 C 358.17164 510.56226 351.35938 509.67579 351.35938 509.67579 C 355.27025 514.84071 352.35434 523.92592 363.38282 525.00196 L 358.50782 528.85939 L 420.67579 528.85939 C 459.21754 528.85939 455.36939 502.17686 454.47462 499.11134 L 458.49806 497.98243 C 468.35632 495.53785 459.40506 501.15083 460.72852 507.13868 C 481.56108 501.83139 474.88208 495.33712 482.81642 487.63868 L 450.84767 496.34571 L 434.22266 479.45118 z M 87.728517 479.96485 L 90.089846 488.7754 L 68.878908 483.09181 L 87.728517 479.96485 z M 456.74415 479.96485 L 475.59376 483.09181 L 454.38282 488.7754 L 456.74415 479.96485 z " /></svg>
