<?xml version="1.0" encoding="UTF-8" standalone="no"?>
<svg
   viewBox="0 0 548.0315 548.03151"
   width="145mm"
   height="145mm"
   version="1.1"
   id="svg65"
   sodipodi:docname="dragon lid.svg"
   inkscape:version="1.4.2 (f4327f4, 2025-05-13)"
   xml:space="preserve"
   xmlns:inkscape="http://www.inkscape.org/namespaces/inkscape"
   xmlns:sodipodi="http://sodipodi.sourceforge.net/DTD/sodipodi-0.dtd"
   xmlns="http://www.w3.org/2000/svg"
   xmlns:svg="http://www.w3.org/2000/svg"><sodipodi:namedview
     id="namedview65"
     pagecolor="#ffffff"
     bordercolor="#666666"
     borderopacity="1.0"
     inkscape:showpageshadow="2"
     inkscape:pageopacity="0.0"
     inkscape:pagecheckerboard="0"
     inkscape:deskcolor="#d1d1d1"
     inkscape:zoom="0.7102918"
     inkscape:cx="461.07811"
     inkscape:cy="332.96175"
     inkscape:window-width="1920"
     inkscape:window-height="1057"
     inkscape:window-x="1912"
     inkscape:window-y="-8"
     inkscape:window-maximized="1"
     inkscape:current-layer="svg65"
     inkscape:document-units="mm" /><desc
     id="desc1">outline.dxf - scale = 1.000000, origin = (0.000000, 0.000000), method = manual</desc><defs
     id="defs4"><marker
       id="DistanceX"
       orient="auto"
       refX="0"
       refY="0"
       style="overflow:visible"><path
         d="M 3,-3 -3,3 M 0,-5 V 5"
         style="stroke:#000000;stroke-width:0.5"
         id="path1" /></marker><pattern
       id="Hatch"
       patternUnits="userSpaceOnUse"
       width="8"
       height="8"
       x="0"
       y="0"><path
         d="M8 4 l-4,4"
         stroke="#000000"
         stroke-width="0.25"
         linecap="square"
         id="path2" /><path
         d="M6 2 l-4,4"
         stroke="#000000"
         stroke-width="0.25"
         linecap="square"
         id="path3" /><path
         d="M4 0 l-4,4"
         stroke="#000000"
         stroke-width="0.25"
         linecap="square"
         id="path4" /></pattern><symbol
       id="*MODEL_SPACE" /><symbol
       id="*PAPER_SPACE" /></defs><path
     id="outline"
     style="display:inline;opacity:1;fill:#000000;fill-opacity:1;stroke:none;stroke-width:1;stroke-linecap:round;stroke-dasharray:none;stroke-opacity:1;paint-order:fill markers stroke"
     inkscape:label="outline"
     d="M -25.984376 -25.984376 L -25.984376 574.01564 L 574.01564 574.01564 L 574.01564 -25.984376 L -25.984376 -25.984376 z M 120.47852 0.49414063 L 427.55274 0.49414063 C 444.66376 0.49413963 461.07452 7.2913084 473.17384 19.390625 L 528.63673 74.851564 L 528.63673 74.853517 C 540.73605 86.952837 547.53321 103.36164 547.53321 120.47266 L 547.53321 427.55079 C 547.53321 444.66181 540.73605 461.07256 528.63673 473.17188 L 473.17384 528.63868 C 461.07451 540.73797 444.66375 547.53519 427.55274 547.53517 L 120.47852 547.53517 L 120.47852 547.53126 C 103.36799 547.53129 86.958606 540.73343 74.859376 528.63478 L 74.857423 528.63478 L 19.394532 473.16993 C 7.2963196 461.07117 0.49856488 444.66257 0.49804688 427.55274 L 0.49804688 120.47461 C 0.49804588 103.36359 7.2952146 86.952837 19.394532 74.853517 L 74.857423 19.392579 L 74.857423 19.390625 C 86.956743 7.2913084 103.3675 0.49413963 120.47852 0.49414063 z M 123.79688 15.613282 C 85.255134 15.613282 89.103285 42.295846 89.998049 45.361329 L 85.974611 46.490235 C 76.116352 48.934818 85.067554 43.323749 83.744142 37.335938 C 62.911534 42.643185 69.590587 49.135594 61.656251 56.833986 L 93.625002 48.126954 L 110.25 65.021486 C 110.25 65.021486 108.59751 59.45768 108.71094 55.32422 C 108.87448 49.368881 103.88392 41.199189 95.912111 43.777345 C 92.586278 34.559929 95.757882 27.996002 104.86719 27.404297 L 163.4375 27.404297 C 166.1584 27.404297 165.18484 29.662709 169.25196 31.773438 C 171.75297 33.071504 176.08985 32.753907 176.08985 32.753907 C 173.91279 30.394949 173.51239 26.933368 169.14258 27.498047 L 172.14844 25.085938 L 104.30469 25.085938 C 104.30469 25.085938 106.37688 21.271485 123.08594 21.271485 L 148.47657 21.271485 C 164.46543 21.271485 160.31964 19.396025 168.56055 19.84961 C 174.54467 20.178959 178.87688 26.486248 183.19141 30.800782 C 186.30104 33.910408 193.11329 34.796876 193.11329 34.796876 C 189.20247 29.632006 192.11833 20.546788 181.08985 19.470704 L 185.96485 15.613282 L 123.79688 15.613282 z M 358.50782 15.613282 L 363.38282 19.470704 C 352.35434 20.546788 355.27025 29.632006 351.35938 34.796876 C 351.35938 34.796876 358.17164 33.910408 361.28126 30.800782 C 365.5958 26.486248 369.92799 20.178835 375.91212 19.84961 C 384.15304 19.396065 380.00724 21.271485 395.9961 21.271485 L 421.38673 21.271485 C 438.09579 21.271485 440.16798 25.085938 440.16798 25.085938 L 372.32423 25.085938 L 375.33009 27.498047 C 370.96023 26.933368 370.55993 30.394949 368.38282 32.753907 C 368.38282 32.753907 372.71971 33.071422 375.22071 31.773438 C 379.28783 29.662709 378.31426 27.404297 381.03516 27.404297 L 439.60548 27.404297 C 448.71488 27.996002 451.88644 34.559929 448.56056 43.777345 C 440.58876 41.199189 435.59834 49.368881 435.76173 55.32422 C 435.87523 59.45768 434.22266 65.021486 434.22266 65.021486 L 450.84767 48.126954 L 482.81642 56.833986 C 474.88208 49.135594 481.56108 42.643185 460.72852 37.335938 C 459.40506 43.323749 468.35632 48.934818 458.49806 46.490235 L 454.47462 45.361329 C 455.36939 42.295846 459.21754 15.613282 420.67579 15.613282 L 358.50782 15.613282 z M 452.2422 52.033204 C 451.84738 52.034391 451.46243 52.191877 451.17579 52.478517 L 428.88282 74.771486 L 428.84571 74.808595 C 428.82811 74.825795 428.81524 74.84086 428.79884 74.86133 C 428.77384 74.88713 428.75312 74.912738 428.72852 74.941408 C 428.70612 74.971288 428.68447 75.000445 428.66407 75.033205 C 428.64637 75.057775 428.62969 75.084806 428.61329 75.109376 C 428.59409 75.14459 428.57305 75.179938 428.55665 75.216798 C 428.54435 75.238908 428.53379 75.260588 428.52149 75.285158 C 428.50389 75.32897 428.48692 75.37293 428.47462 75.41797 C 428.46652 75.43844 428.46113 75.46 428.45313 75.48047 L 428.45118 75.482423 L 428.45118 75.484376 L 428.45118 75.48633 C 428.43478 75.548572 428.42207 75.611903 428.41407 75.675783 C 428.40477 75.743349 428.40165 75.810938 428.40235 75.878908 C 428.40235 75.915759 428.40326 75.951423 428.40626 75.988283 C 428.40626 76.020643 428.40716 76.053179 428.41016 76.085939 C 428.41416 76.098229 428.41498 76.110768 428.41798 76.123048 C 428.42608 76.172603 428.43888 76.221213 428.45118 76.269533 L 428.45509 76.294923 L 436.61524 106.77344 C 436.68404 107.03081 436.8175 107.26673 437.00587 107.45508 C 437.1942 107.64345 437.43036 107.77886 437.68751 107.84766 L 468.16798 116.01367 L 468.19142 116.01758 C 468.23972 116.02988 468.2883 116.03692 468.3379 116.04492 C 468.3502 116.04892 468.36271 116.04974 468.37501 116.05274 C 468.40691 116.05374 468.43997 116.05762 468.47267 116.0586 C 468.50913 116.0596 468.54514 116.06152 468.58204 116.0625 C 468.65001 116.0625 468.71797 116.05683 468.78517 116.04883 C 468.84906 116.04063 468.91242 116.02812 468.97462 116.01172 L 468.97657 116.01172 L 468.97852 116.01172 L 468.98048 116.00977 C 469.00128 116.00577 469.02258 115.99824 469.04298 115.99024 C 469.08807 115.97664 469.13199 115.95976 469.17579 115.94336 C 469.19879 115.93526 469.22375 115.92246 469.24415 115.91016 C 469.28096 115.89506 469.31477 115.87587 469.35157 115.85547 C 469.37697 115.83787 469.40314 115.82109 469.42774 115.80469 C 469.45924 115.78469 469.49084 115.76484 469.51954 115.74024 C 469.54704 115.71724 469.57502 115.69452 469.59962 115.66992 C 469.61682 115.65632 469.63791 115.63945 469.65431 115.62305 L 469.68556 115.58594 L 491.97853 93.292971 C 492.36282 92.910799 492.51031 92.354208 492.3711 91.832033 L 484.20704 61.359376 L 484.20704 61.35547 L 484.20509 61.351564 L 484.20118 61.332032 C 484.19718 61.311152 484.18965 61.290002 484.18165 61.269532 C 484.16775 61.228584 484.15508 61.189379 484.13868 61.148439 L 484.13868 61.144532 C 484.11488 61.088433 484.08535 61.0337 484.05665 60.98047 C 484.03575 60.945669 484.01484 60.909714 483.99024 60.876954 C 483.97254 60.852384 483.95586 60.829259 483.93946 60.804689 C 483.89976 60.752686 483.85686 60.700978 483.81056 60.654298 C 483.76388 60.608031 483.71462 60.566342 483.66212 60.525392 C 483.63842 60.507782 483.6125 60.490991 483.5879 60.474611 C 483.55473 60.450851 483.52324 60.428674 483.48634 60.408204 C 483.43311 60.377894 483.37878 60.350743 483.32228 60.326173 L 483.31642 60.326173 C 483.2767 60.308163 483.23632 60.297437 483.19532 60.285157 C 483.17492 60.276977 483.15518 60.271873 483.13478 60.263673 L 483.11329 60.259767 L 483.10938 60.257814 L 483.10548 60.257814 L 452.63282 52.093751 C 452.5022 52.058131 452.36973 52.040648 452.23829 52.041017 L 452.2422 52.033204 z M 92.226564 52.041017 C 92.09471 52.040607 91.962659 52.060991 91.832033 52.093751 L 61.361329 60.257814 L 61.357423 60.257814 L 61.351564 60.259767 L 61.332032 60.263673 C 61.311142 60.267763 61.290002 60.275004 61.269532 60.283204 C 61.228585 60.297134 61.189389 60.309793 61.148439 60.326173 L 61.144532 60.326173 C 61.088432 60.349923 61.0337 60.379534 60.98047 60.408204 C 60.945669 60.429504 60.909714 60.450041 60.876954 60.474611 C 60.852384 60.492221 60.829259 60.509022 60.804689 60.525392 C 60.752686 60.565109 60.702931 60.608028 60.656251 60.654298 C 60.609984 60.70098 60.568285 60.750326 60.527345 60.802736 C 60.509735 60.826496 60.492934 60.852384 60.476564 60.876954 C 60.452804 60.910125 60.428674 60.941657 60.408204 60.978517 C 60.377894 61.03134 60.352696 61.086479 60.328126 61.142579 L 60.328126 61.146486 C 60.314206 61.186203 60.297447 61.228172 60.285157 61.269532 C 60.276977 61.290002 60.271873 61.309609 60.263673 61.330079 L 60.259767 61.351564 L 60.257814 61.35547 L 60.257814 61.359376 L 52.093751 91.832033 C 51.954403 92.354208 52.10428 92.910922 52.486329 93.292971 L 74.779298 115.58594 L 74.812501 115.62305 C 74.829691 115.64065 74.846719 115.65157 74.867189 115.66797 C 74.892989 115.69297 74.916654 115.71564 74.945314 115.74024 C 74.975204 115.76274 75.006304 115.78429 75.039064 115.80469 C 75.063634 115.82229 75.088713 115.83712 75.113283 115.85352 C 75.148497 115.87272 75.185798 115.89376 75.222658 115.91016 C 75.244768 115.92246 75.264494 115.93106 75.289064 115.94336 C 75.332877 115.96086 75.376836 115.97794 75.421876 115.99024 C 75.442346 115.99834 75.463906 116.00177 75.484376 116.00977 L 75.48633 116.01172 L 75.488283 116.01172 L 75.490236 116.01172 C 75.552478 116.03232 75.615809 116.04474 75.679689 116.05274 C 75.747254 116.06204 75.814844 116.06515 75.882814 116.06446 C 75.919665 116.06446 75.955339 116.06355 75.992189 116.06055 C 76.024549 116.06055 76.057085 116.05964 76.089845 116.05664 C 76.102135 116.05264 76.114665 116.05183 76.126955 116.04883 C 76.1765 116.04473 76.225129 116.03183 76.273439 116.01953 L 76.29883 116.01563 L 106.77735 107.85156 C 107.03466 107.78277 107.27063 107.64735 107.45899 107.45899 C 107.64736 107.27066 107.78081 107.0345 107.84961 106.77735 L 116.01563 76.29883 L 116.01953 76.273439 C 116.03183 76.224704 116.04083 76.176505 116.04883 76.126955 C 116.05283 76.114665 116.05364 76.102135 116.05664 76.089845 C 116.05764 76.057905 116.05956 76.024949 116.06055 75.992189 C 116.06555 75.955748 116.06738 75.919674 116.06836 75.882814 C 116.06836 75.814839 116.06464 75.746849 116.05664 75.679689 C 116.04844 75.615399 116.03593 75.552476 116.01953 75.490236 L 116.01953 75.488283 L 116.01953 75.48633 L 116.01758 75.484376 C 116.01358 75.463496 116.00605 75.442346 115.99805 75.421876 C 115.98445 75.376824 115.96757 75.332874 115.95117 75.289064 C 115.94307 75.266134 115.93027 75.241175 115.91797 75.220705 C 115.89877 75.183851 115.88368 75.150143 115.86328 75.113283 C 115.84568 75.087903 115.8289 75.061681 115.8125 75.037111 C 115.7925 75.005581 115.76845 74.973984 115.74805 74.945314 C 115.72505 74.917874 115.70038 74.889806 115.67578 74.865236 C 115.66218 74.848036 115.64726 74.828881 115.63086 74.812501 L 115.59375 74.779298 L 93.300783 52.486329 C 93.014144 52.199812 92.62912 52.042217 92.234377 52.041017 L 92.226564 52.041017 z M 90.089846 55.697267 L 87.728517 64.507814 L 68.878908 61.380861 L 90.089846 55.697267 z M 454.38282 55.697267 L 475.59376 61.380861 L 456.74415 64.507814 L 454.38282 55.697267 z M 93.015627 56.48047 L 108.53906 72.005861 L 90.652346 65.291017 L 93.015627 56.48047 z M 451.45899 56.48047 L 453.82032 65.291017 L 435.9336 72.005861 L 451.45899 56.48047 z M 56.833986 61.656251 C 49.135594 69.590587 42.641232 62.911575 37.333985 83.744142 C 43.321795 85.067556 48.934817 76.116352 46.490235 85.974611 L 45.361329 89.998049 C 42.295846 89.103284 15.611328 85.255126 15.611328 123.79688 L 15.611328 185.96485 L 19.470704 181.08985 C 20.546788 192.11833 29.632007 189.20247 34.796876 193.11329 C 34.796876 193.11329 33.910407 186.30105 30.800782 183.19141 C 26.486248 178.87689 20.178836 174.54469 19.84961 168.56055 C 19.396066 160.31964 21.271485 164.46543 21.271485 148.47657 L 21.271485 123.08594 C 21.271485 106.37689 25.083985 104.30469 25.083985 104.30469 L 25.083985 172.14844 L 27.498047 169.14258 C 26.933368 173.51239 30.394948 173.91278 32.753907 176.08985 C 32.753907 176.08985 33.071422 171.75297 31.773438 169.25196 C 29.662709 165.18484 27.404297 166.1584 27.404297 163.4375 L 27.404297 104.86719 C 27.996002 95.757793 34.559931 92.586278 43.777345 95.912111 C 41.199191 103.88391 49.368881 108.87432 55.32422 108.71094 C 59.457679 108.59743 65.021486 110.25 65.021486 110.25 L 48.126954 93.625002 L 56.833986 61.656251 z M 487.63868 61.656251 L 496.34571 93.625002 L 479.45118 110.25 C 479.45118 110.25 485.01499 108.59752 489.14845 108.71094 C 495.10379 108.87449 503.27347 103.88391 500.69532 95.912111 C 509.91273 92.586278 516.47666 95.757874 517.06837 104.86719 L 517.06837 163.4375 C 517.06837 166.1584 514.80996 165.18484 512.69923 169.25196 C 511.40116 171.75297 511.71876 176.08985 511.71876 176.08985 C 514.07772 173.91278 517.53929 173.51239 516.97462 169.14258 L 519.38868 172.14844 L 519.38868 104.30469 C 519.38868 104.30469 523.20118 106.37689 523.20118 123.08594 L 523.20118 148.47657 C 523.20118 164.46543 525.07661 160.31964 524.62306 168.56055 C 524.29367 174.54469 517.98642 178.87689 513.67189 183.19141 C 510.56226 186.30105 509.67579 193.11329 509.67579 193.11329 C 514.84071 189.20247 523.92592 192.11833 525.00196 181.08985 L 528.86134 185.96485 L 528.86134 123.79688 C 528.86134 85.255126 502.17686 89.103284 499.11134 89.998049 L 497.98243 85.974611 C 495.53781 76.116352 501.15083 85.067556 507.13868 83.744142 C 501.83139 62.911575 495.33712 69.590587 487.63868 61.656251 z M 63.568361 63.568361 L 85.681642 67.238283 L 76.460939 76.460939 L 67.238283 85.681642 L 63.568361 63.568361 z M 480.90431 63.568361 L 477.23438 85.681642 L 468.01173 76.460939 L 458.79102 67.238283 L 480.90431 63.568361 z M 91.060549 68.679689 L 112.04688 76.556642 L 97.812502 93.875002 L 91.060549 68.679689 z M 453.41212 68.679689 L 446.66017 93.875002 L 432.42579 76.556642 L 453.41212 68.679689 z M 61.380861 68.878908 L 64.507814 87.728517 L 55.697267 90.089846 L 61.380861 68.878908 z M 483.09181 68.878908 L 488.7754 90.089846 L 479.96485 87.728517 L 483.09181 68.878908 z M 88.050783 69.152345 L 94.968752 94.968752 L 69.152345 88.050783 L 78.601564 78.601564 L 88.050783 69.152345 z M 456.42188 69.152345 L 465.8711 78.601564 L 475.32032 88.050783 L 449.50392 94.968752 L 456.42188 69.152345 z M 291.3711 78.826173 C 290.15842 78.868212 288.26986 79.797694 285.70313 81.615236 C 283.00519 83.556662 281.33544 85.106386 280.69532 86.265627 C 280.05791 87.384959 279.5812 90.280005 279.26368 94.949221 C 278.94887 99.578529 279.03053 102.51087 279.50782 103.7461 C 279.98782 104.94142 281.43154 106.68385 283.8418 108.97266 C 286.29198 111.26418 288.19587 112.4546 289.55274 112.54688 C 290.90961 112.63915 292.73591 112.02264 295.03126 110.69531 C 297.36651 109.3707 299.14032 107.74634 300.35352 105.82422 L 294.48438 101.03516 C 293.91321 102.35946 293.17664 103.47225 292.27344 104.37305 C 291.37025 105.27385 290.63879 105.70597 290.08008 105.66797 C 289.52137 105.62998 288.99991 105.35402 288.51368 104.83985 C 288.03016 104.28576 287.70409 103.762 287.53712 103.26953 C 287.03348 101.83205 286.86452 99.915956 287.02735 97.521486 L 301.51368 98.505861 L 301.66016 96.351564 C 301.97226 91.762164 301.88822 88.869151 301.40821 87.67383 C 300.93092 86.438601 299.4658 84.676285 297.01563 82.384767 C 294.60537 80.095963 292.80271 78.911496 291.60547 78.83008 C 291.53065 78.824991 291.45194 78.823371 291.3711 78.826173 z M 274.17188 78.865236 L 268.31055 79.343752 L 267.84766 82.51172 C 264.4895 80.217828 262.25104 79.117689 261.13477 79.208986 C 260.0185 79.300283 258.49092 80.487682 256.55079 82.773439 C 254.61065 85.059196 253.46574 86.758823 253.11524 87.871095 C 252.76148 88.943501 252.75205 91.532385 253.0879 95.638674 C 253.42374 99.744963 253.85365 102.29816 254.37696 103.29883 C 254.90027 104.2995 256.30409 105.77081 258.58985 107.71094 C 260.87561 109.65107 262.49828 110.58216 263.45508 110.50391 C 264.45176 110.42239 266.22422 109.29434 268.7754 107.11914 L 268.78711 109.46485 C 269.13926 113.77047 269.19827 116.21396 268.96485 116.79492 C 268.77456 117.41249 268.32251 118.01158 267.60743 118.5918 C 266.93221 119.16876 266.29527 119.48234 265.69727 119.53125 C 265.13913 119.5769 264.0463 118.72185 262.41797 116.96875 L 261.75586 116.24024 L 255.94336 120.99024 C 257.12663 122.69947 258.81021 124.14806 260.99415 125.33399 C 263.18135 126.55978 264.95312 127.11672 266.3086 127.00586 C 267.70394 126.89174 269.69153 125.66605 272.26954 123.32813 C 274.84754 120.9902 276.31486 119.30403 276.67188 118.27149 C 277.07203 117.27555 277.06385 114.22601 276.64649 109.12305 L 274.17188 78.865236 z M 111.28711 82.250002 L 105.60352 103.46094 L 99.152346 97.011721 L 111.28711 82.250002 z M 433.18556 82.250002 L 445.32032 97.011721 L 438.86915 103.46094 L 433.18556 82.250002 z M 319.79493 82.853517 C 318.61656 82.813952 316.78256 83.398366 314.29493 84.607424 C 311.49099 85.997792 309.71206 87.102558 308.95899 87.919924 C 307.82939 89.145972 306.73611 92.161554 305.67969 96.966799 C 304.62327 101.77204 304.34699 104.98744 304.84962 106.61328 C 305.19042 107.67114 306.34246 109.41922 308.30469 111.85742 C 310.306 114.30421 311.87292 115.65132 313.00587 115.90039 C 314.13881 116.14947 316.10818 115.57982 318.91212 114.18946 C 321.75512 112.80768 323.55162 111.70799 324.30469 110.89063 C 325.44289 109.62551 326.54124 106.5904 327.59766 101.78516 C 328.65408 96.979914 328.92528 93.784045 328.41407 92.197267 C 328.07326 91.139416 326.90366 89.386244 324.90235 86.939455 C 322.94011 84.501254 321.39272 83.15728 320.25977 82.908205 C 320.11815 82.87707 319.96327 82.85917 319.79493 82.853517 z M 234.98243 83.492189 C 234.80535 83.499816 234.64268 83.52343 234.49219 83.560549 C 233.32711 83.84792 231.6428 85.705439 229.43946 89.132814 C 228.36683 87.790629 226.96845 86.713004 225.24415 85.902345 L 219.94141 91.968752 C 221.15231 92.535255 222.12513 93.304883 222.85938 94.277346 C 223.59363 95.249808 224.20483 96.726392 224.69336 98.707033 L 229.6504 118.80469 L 237.33985 116.90821 L 231.82227 94.539064 C 233.05107 92.505629 233.95848 91.417125 234.54102 91.273439 C 235.1624 91.120175 235.91192 91.325164 236.79297 91.890627 C 237.66445 92.417254 238.18286 93.011663 238.34571 93.671877 L 241.53516 106.60352 C 242.54096 110.68131 244.71444 113.48189 248.05665 115.00586 L 253.35938 108.93946 C 252.14848 108.37295 251.17566 107.60332 250.44141 106.63086 C 249.70717 105.6584 249.09596 104.18181 248.60743 102.20117 L 245.83399 90.958986 C 245.31672 88.861837 243.59094 87.042087 240.65625 85.500002 C 238.11401 84.108314 236.22196 83.438798 234.98243 83.492189 z M 290.79883 85.697267 C 290.83217 85.695306 290.86602 85.695062 290.89844 85.697267 C 291.45715 85.735262 292.01675 86.034242 292.58008 86.593752 C 293.18333 87.155976 293.6063 87.725029 293.84766 88.302736 C 294.13164 88.843249 294.2624 90.175573 294.23829 92.29883 L 287.41407 91.833986 C 287.71754 89.729727 288.2432 88.182875 288.99219 87.191408 C 289.69692 86.224494 290.29881 85.726691 290.79883 85.697267 z M 263.0586 86.587892 C 263.49056 86.609628 264.09169 86.817367 264.86133 87.210939 C 265.74093 87.660736 266.33806 88.114736 266.65626 88.570314 C 267.01432 89.022632 267.33547 90.982755 267.61915 94.451174 C 267.89956 97.879726 267.91963 99.844478 267.67969 100.34571 C 267.43649 100.80707 266.89979 101.35255 266.06836 101.98242 C 265.27355 102.56917 264.65729 102.88015 264.21876 102.91602 C 263.78022 102.95188 263.27941 102.73174 262.71876 102.25586 C 262.1947 101.73685 261.83661 101.28407 261.64454 100.89844 C 261.27669 100.32652 260.95749 98.366398 260.6836 95.01758 C 260.40971 91.668762 260.40511 89.662004 260.67188 88.998049 C 260.79548 88.54647 261.07571 88.041774 261.51172 87.484377 C 261.98761 86.923719 262.44428 86.625712 262.88282 86.589845 C 262.93763 86.585362 262.99689 86.584787 263.0586 86.587892 z M 342.58204 89.148439 L 334.75001 91.029299 C 335.40998 92.191899 335.75665 93.381629 335.79298 94.599611 C 335.8293 95.817593 335.47391 97.377215 334.72657 99.275393 L 327.14454 118.53516 L 334.51368 121.4375 L 342.95313 99.998049 C 345.1318 99.050302 346.50031 98.686445 347.0586 98.906252 C 347.65411 99.140712 348.14755 99.743914 348.53907 100.71485 C 348.94525 101.64856 349.02451 102.43173 348.7754 103.06446 L 343.89649 115.45899 C 342.35784 119.367 342.50901 122.90938 344.35352 126.08594 L 352.18751 124.20508 C 351.52754 123.04248 351.18086 121.8508 351.14454 120.63281 C 351.10821 119.41483 351.4636 117.85716 352.21094 115.95899 L 356.45313 105.1836 C 357.24444 103.17376 356.88836 100.69192 355.38673 97.73633 C 353.93697 94.758176 352.63622 93.042159 351.48243 92.587892 C 350.36585 92.148279 347.91671 92.688023 344.13673 94.208986 C 344.03828 92.493671 343.51953 90.807204 342.58204 89.148439 z M 318.63673 89.630861 C 318.68696 89.632307 318.7334 89.638777 318.77735 89.648439 C 319.12895 89.725738 319.53307 90.121102 319.99024 90.835939 C 320.48648 91.559365 320.81984 92.18592 320.99024 92.714846 C 321.30057 93.725041 321.01864 96.222196 320.14258 100.20703 C 319.26653 104.19187 318.48003 106.55882 317.78321 107.30664 C 317.40667 107.71533 316.8418 108.14321 316.0879 108.5918 C 315.37306 109.04897 314.83989 109.23941 314.48829 109.16211 C 314.13668 109.08481 313.71109 108.68437 313.21485 107.96094 C 312.75768 107.2461 312.44385 106.62463 312.27344 106.09571 C 311.96311 105.08551 312.247 102.58835 313.12305 98.603518 C 313.99911 94.618681 314.7856 92.251728 315.48243 91.503908 C 315.85896 91.095225 316.40431 90.662254 317.11915 90.20508 C 317.77881 89.812568 318.28507 89.620743 318.63673 89.630861 z M 212.48243 90.625002 L 205.20508 93.750002 L 214.32227 114.97461 C 213.35239 117.1761 212.61025 118.38836 212.09571 118.60938 C 211.58117 118.83039 210.88784 118.73514 210.01563 118.32617 C 209.12763 117.88046 208.54963 117.34551 208.28125 116.72071 L 199.47266 96.212893 L 192.19532 99.339846 L 201.33594 120.61914 C 202.18842 122.6038 204.14088 124.15841 207.19336 125.28516 C 210.26681 126.35937 212.35445 126.6611 213.45704 126.1875 C 214.55962 125.7139 215.92884 123.58057 217.56446 119.78711 L 219.62305 122.75391 L 225.2461 120.33985 L 212.48243 90.625002 z M 65.291017 90.652346 L 72.005861 108.53906 L 56.48047 93.013674 L 65.291017 90.652346 z M 479.18165 90.652346 L 487.9922 93.013674 L 472.46681 108.53906 L 479.18165 90.652346 z M 68.679689 91.060549 L 93.875002 97.812502 L 76.556642 112.04688 L 68.679689 91.060549 z M 475.79298 91.060549 L 467.91602 112.04688 L 450.59767 97.812502 L 475.79298 91.060549 z M 176.09375 93.886721 L 172.92383 101.29297 C 174.27154 101.4922 175.43473 101.92342 176.41211 102.58789 C 177.38949 103.25237 178.41442 104.45228 179.49024 106.18555 L 181.04102 108.6836 C 177.76082 108.17733 175.67855 108.19764 174.79493 108.7461 C 173.9113 109.29455 173.10511 111.06708 172.375 114.0625 C 171.65779 117.00284 171.42617 118.98161 171.68164 120 C 171.83517 121.08168 173.23038 123.74594 175.86719 127.99414 C 178.48291 132.20836 180.24138 134.62459 181.14258 135.24219 C 181.94183 135.92307 183.83036 136.61248 186.80469 137.3086 C 189.79191 137.94963 191.69216 138.01604 192.50782 137.50977 C 193.7313 136.75037 194.83513 134.39429 195.81836 130.44141 L 198.29688 133.07032 L 203.4961 129.8418 L 184.85938 99.816408 C 182.66555 96.281905 179.7431 94.305095 176.09375 93.886721 z M 97.011721 99.152346 L 103.46094 105.60352 L 82.250002 111.28711 L 97.011721 99.152346 z M 447.46095 99.152346 L 462.22267 111.28711 L 441.01173 105.60352 L 447.46095 99.152346 z M 373.6211 104.21875 C 372.43051 104.19652 370.95434 104.34421 369.19532 104.66211 C 365.67729 105.29791 363.5365 106.27248 362.77149 107.58594 C 362.00649 108.8994 361.66533 110.43717 361.75001 112.19922 C 361.83469 113.96127 362.2037 115.63559 362.85548 117.21875 C 363.52738 118.76735 364.23976 120.24592 364.99219 121.65625 C 365.79932 123.05215 366.47574 124.23411 367.02344 125.20117 C 367.59128 126.13368 367.83639 126.66838 367.75587 126.80664 C 367.45389 127.32511 366.69855 127.62663 365.49219 127.71094 C 364.28584 127.79525 363.38839 127.66646 362.80079 127.32422 C 362.0058 126.86119 361.44988 124.91635 361.13087 121.49024 L 353.64649 122.06055 C 353.57315 124.33234 354.11531 126.6627 355.27149 129.04883 C 356.46224 131.4551 357.69572 133.03052 358.97462 133.77539 C 360.28807 134.5404 362.99121 134.47036 367.08204 133.56641 C 371.193 132.62789 373.55952 131.62229 374.1836 130.55078 C 375.009 129.13363 375.1754 127.38001 374.68165 125.28711 C 374.24259 123.17978 373.50449 121.26808 372.4668 119.55274 C 371.48382 117.82296 370.58345 116.1883 369.76759 114.64844 C 368.98629 113.12871 368.70629 112.17904 368.92774 111.79883 C 369.14919 111.41862 369.68585 111.17351 370.53516 111.06641 C 371.43917 110.94487 372.0989 111.00647 372.51368 111.24805 C 373.30867 111.71108 373.86459 113.65397 374.1836 117.08008 L 381.66798 116.50977 C 381.74132 114.23798 381.18294 111.89846 379.9922 109.49219 C 378.83601 107.10605 377.61874 105.54175 376.33985 104.79688 C 375.71769 104.43451 374.81169 104.24099 373.6211 104.21875 z M 181.19922 114.1543 C 181.41178 114.14595 181.64423 114.1461 181.89649 114.1543 C 182.9184 114.13203 183.68514 114.26835 184.19727 114.5625 C 184.6883 114.82267 186.05109 116.75495 188.28711 120.35742 L 189.45899 122.24219 C 190.80435 124.56141 191.52188 126.02264 191.61329 126.625 C 191.58633 127.11252 191.3469 127.82575 190.89454 128.76563 C 190.45507 129.65043 190.04767 130.20937 189.67383 130.44141 C 189.33398 130.65235 188.80589 130.67345 188.08985 130.50586 C 187.3867 130.2832 186.79651 130.01447 186.31836 129.69922 C 185.81913 129.34999 184.49344 127.4431 182.3418 123.97656 C 180.16906 120.47605 179.03673 118.42463 178.94532 117.82227 C 178.85391 117.2199 178.87617 116.5719 179.00977 115.87696 C 179.17735 115.16091 179.44843 114.68517 179.82227 114.45313 C 180.10265 114.2791 180.56155 114.17935 181.19922 114.1543 z M 136.95899 125.93164 C 136.51369 125.91882 136.06289 125.93278 135.60547 125.97266 L 133.97852 133.86328 C 135.53432 133.8798 136.85425 134.1713 137.94141 134.74024 C 139.00111 135.28009 140.2331 136.23513 141.63672 137.60547 L 139.94922 140.18946 L 143.03907 143.46094 L 145.22071 141.40235 L 156.09375 152.91992 C 157.60395 154.5197 159.64156 155.48395 162.20703 155.8125 C 164.74505 156.11197 167.27112 155.84478 169.78516 155.01172 L 171.41407 147.12305 C 169.15366 147.99171 167.02118 148.29674 165.01953 148.04102 C 163.01788 147.78529 161.37257 146.97451 160.08203 145.60742 L 150.98047 135.96485 L 155.86719 131.35157 L 151.54102 126.77149 L 146.6543 131.38477 L 145.41992 130.07617 C 142.8972 127.40382 140.07604 126.02142 136.95899 125.93164 z M 267.62305 134.05078 C 277.39823 146.06243 285.97373 167.87089 270.67774 167.12891 C 253.74963 166.30778 245.20913 145.21231 218.09375 149.94141 C 234.40529 162.34881 239.23368 170.586 219.68555 182.56446 C 201.43027 193.75065 193.99267 197.80673 179.04883 214.58985 C 169.57939 225.75582 162.29998 238.0917 157.19141 251.05469 C 157.21651 251.04089 157.24238 251.02718 157.26758 251.01368 C 168.62994 237.98646 177.55443 243.57062 176.46094 250.97266 C 173.07185 273.91437 143.11977 272.8733 149.48047 317.45508 C 152.92342 300.51527 164.62585 296.72617 166.29493 307.77344 C 168.88617 324.92406 146.38807 338.95418 173.1543 375.57423 C 168.08361 359.04929 175.91998 351.17422 183.17578 359.66993 C 194.57287 373.01459 181.51683 396.33085 220.86915 415.68556 C 208.9322 403.18487 214.2838 389.04722 222.6504 396.45118 C 259.80447 429.33039 326.71358 426.56914 378.09766 391.71876 C 354.57591 397.25771 309.49628 408.48496 286.03321 404.54493 C 249.89895 398.47704 216.86992 380.58359 197.69532 349.27149 C 187.14348 332.04035 181.13478 309.77925 182.80078 288.29688 C 185.30421 256.01647 205.46256 235.84902 216.84571 233.2129 C 206.40017 245.22944 192.92666 252.69741 190.60743 288.80079 C 189.33817 308.55902 194.7328 329.4597 204.36524 345.18946 C 222.14426 374.22258 252.88179 391.1519 287.33204 396.83009 C 304.91669 399.72849 317.88973 400.04356 327.73243 398.74415 C 315.11385 395.16848 308.3195 393.21579 299.68751 388.04493 C 299.68751 388.04493 287.07154 389.79582 275.42383 386.1211 C 284.56989 385.52901 292.92579 383.6797 292.92579 383.6797 C 287.28178 379.99367 282.55924 375.9761 278.72266 371.67579 C 278.72266 371.67579 262.32097 378.91601 246.2793 367.53907 C 261.15265 370.54847 275.01954 367.06055 275.01954 367.06055 C 271.64441 362.35355 269.31823 358.17688 267.82813 352.95313 C 267.82813 352.95313 240.87444 361.70811 224.38477 344.66993 C 246.87346 353.12778 266.57227 347.38282 266.57227 347.38282 C 265.81982 343.84272 265.87203 341.85314 265.92188 338.13868 C 265.92188 338.13868 221.7761 338.41794 212.46485 316.51954 C 231.47779 330.88989 266.13477 332.01758 266.13477 332.01758 C 266.63356 326.45085 268.3819 321.79663 270.55079 315.97462 C 270.55079 315.97462 218.86452 307.9233 212.48829 286.2129 C 236.54176 306.23416 273.04883 310.0918 273.04883 310.0918 C 275.46282 305.00975 278.47538 299.86993 282.06055 294.71094 C 279.81856 294.77184 277.45727 294.80366 275.00977 294.72266 C 264.65069 294.38192 252.64305 291.32677 242.13672 278.23438 L 238.09375 273.19922 L 244.49805 274.01954 C 253.10566 275.11968 258.2721 274.21869 260.29493 272.81836 C 261.30637 272.1182 261.71154 271.44567 261.89844 270.31251 C 262.08533 269.17937 261.90723 267.51976 261.18555 265.43555 C 260.347 263.01131 256.30606 259.64307 251.94336 255.53516 C 244.78212 249.83598 242.63327 242.05643 241.94922 233.4629 C 246.9853 236.53703 252.28611 240.42273 258.4961 239.5879 C 261.3215 239.06545 263.23473 237.39201 264.54102 234.85157 C 265.74233 232.51527 264.75359 228.11073 262.91602 222.63086 C 259.09018 214.38147 259.15923 206.01598 260.04102 197.27344 C 264.72646 205.48346 271.24914 210.40918 280.40235 212.9375 C 291.962 215.94447 296.92837 216.06366 306.04493 216.53125 C 296.55799 221.81948 287.65337 219.73453 279.26172 218.02344 C 274.32026 216.91562 269.41528 214.92492 265.20313 211.61719 C 265.85938 214.67852 266.80078 217.82746 267.85547 220.97266 C 269.72247 226.54031 271.77768 232.18192 269.17969 237.23438 C 267.29094 240.90756 263.93002 243.88522 259.44336 244.71485 C 256.45905 245.2667 252.98141 244.51057 249.29102 243.11133 C 250.7434 246.29306 252.79212 249.17199 255.51758 251.73829 C 259.59437 255.57697 264.37465 258.71336 266.10938 263.72852 C 267.01085 266.33471 267.42938 268.80744 267.04102 271.16211 C 266.65264 273.51678 265.30925 275.68747 263.26368 277.10352 C 260.37707 279.10181 255.94621 279.57076 250.66993 279.45704 C 258.82716 287.18374 267.10677 289.24801 275.1836 289.51368 C 300.54748 287.70719 309.45956 293.33527 330.71485 306.78516 C 342.19059 314.14663 353.52972 321.0937 361.06837 329.82618 C 367.60153 337.39398 371.49306 346.37571 370.09766 355.94532 C 377.14571 350.63231 384.13899 343.33555 390.4004 334.79493 C 392.5657 332.0659 394.67512 329.94892 395.02149 324.9336 C 390.27702 328.1491 385.13673 328.4629 385.13673 328.4629 C 382.89468 325.94201 382.75344 326.23476 380.39649 323.79688 C 380.39649 323.79688 383.21313 321.39306 383.00977 317.37305 C 380.58106 319.20604 376.37305 319.9043 376.37305 319.9043 C 372.55048 316.05565 370.16084 313.69399 366.14649 310.0879 C 366.14649 310.0879 367.26746 308.71513 367.15821 307.00977 C 365.52474 308.01753 363.89259 308.03321 363.89259 308.03321 C 361.74437 306.121 360.79602 305.37311 358.61719 303.53712 C 358.61719 303.53712 361.12515 302.19564 361.39844 299.14454 C 357.00759 301.61115 355.07618 300.62305 355.07618 300.62305 C 344.08115 291.49013 334.61409 284.79841 324.09376 277.97071 C 314.28827 271.24316 329.57458 256.15917 341.97071 258.51758 C 345.58614 259.22289 352.4735 265.07025 362.58009 274.97657 C 362.58009 274.97657 361.48832 278.5966 358.87501 281.51954 C 363.69988 281.39401 366.61134 278.7793 366.61134 278.7793 C 368.2603 280.41124 369.07395 281.76573 370.78126 283.49415 C 370.78126 283.49415 368.02287 290.609 363.19727 295.8418 C 371.11417 294.64239 376.72852 289.43751 376.72852 289.43751 C 380.15473 292.95544 381.04479 293.8647 384.45118 297.43946 C 384.45118 297.43946 383.82841 301.37738 381.42579 304.50977 C 385.42495 304.25834 388.5254 301.55079 388.5254 301.55079 C 390.3846 303.5078 391.54954 304.70904 393.3379 306.59962 C 393.3379 306.59962 391.94899 312.28084 385.63282 320.91016 C 392.05914 317.46764 395.11369 316.37797 399.40235 313.01563 C 400.60851 314.2231 401.21468 315.72822 401.0918 318.93165 C 405.95569 314.47171 411.71136 292.29552 413.24415 280.23243 C 407.87582 285.20547 402.87194 277.05583 398.75001 272.47852 C 386.28317 258.63471 379.69595 248.09521 371.04102 237.32422 C 376.25746 216.26751 366.07207 210.22709 359.06251 194.56836 C 362.97724 183.43498 355.96338 141.21307 324.72266 135.58203 C 334.72713 149.53109 334.44447 173.61022 320.37501 169.8125 C 301.37564 164.68403 297.43158 135.9608 267.62305 134.05078 z M 379.10938 136.30274 C 378.50526 136.2775 377.67856 136.2984 376.63087 136.36719 C 374.59144 136.49652 373.41752 136.77008 373.10743 137.1875 C 372.79734 137.60493 372.92203 138.94558 373.48438 141.20703 C 369.49174 142.82531 367.30549 143.89055 366.92384 144.4043 C 366.80457 144.56485 366.78659 144.92475 366.86915 145.48438 C 366.98382 146.06786 367.08923 146.39524 367.18555 146.4668 C 367.44243 146.65763 369.77665 146.3996 374.18946 145.69141 C 378.61052 145.03918 381.12047 144.31055 381.7168 143.50782 C 382.00304 143.1225 381.91238 141.93521 381.44727 139.94532 C 381.00602 137.92331 380.60907 136.78192 380.25587 136.51953 C 380.09532 136.40027 379.7135 136.32797 379.10938 136.30274 z M 411.41798 136.50391 C 411.48884 137.83889 411.26962 139.06019 410.75782 140.16602 C 410.24602 141.27185 409.23168 142.50697 407.71485 143.8711 L 399.9961 150.8125 C 398.39005 152.25687 397.58337 154.64839 397.57618 157.99024 C 397.62548 161.33508 398.01025 163.40987 398.73243 164.21289 C 399.48136 165.04566 401.40781 165.5718 404.51173 165.79297 L 402.10352 167.96094 C 399.69444 170.12749 398.20279 171.2804 397.62891 171.41993 C 397.08179 171.58919 396.40055 171.60862 395.58595 171.48047 C 394.79809 171.38206 394.21822 171.12537 393.84376 170.70899 C 393.49604 170.32235 393.53967 168.96456 393.97462 166.63672 L 394.11329 165.625 L 386.81251 163.87891 C 386.16957 165.85583 386.03832 168.07136 386.41798 170.52735 C 386.76789 173.01008 387.38296 174.74314 388.26563 175.72461 C 389.1483 176.70609 391.22102 177.42475 394.48243 177.88086 C 397.77058 178.36671 400.04683 178.44479 401.31055 178.11524 C 402.57428 177.78569 404.97637 176.02866 408.51563 172.84571 L 431.0879 152.54492 L 425.79298 146.65625 L 409.50977 161.30078 C 407.27396 161.26725 405.96822 161.04139 405.59376 160.625 C 405.21929 160.20862 405.04513 159.47819 405.07227 158.43164 C 405.12916 157.35835 405.41041 156.59338 405.91602 156.13867 L 414.92774 148.03516 C 418.05062 145.22667 419.49813 141.98828 419.26759 138.32227 L 411.41798 136.50391 z M 139.39649 145.82617 C 137.66132 145.71685 135.8289 145.95215 133.90039 146.53125 C 131.35467 147.27268 129.60816 148.21113 128.66016 149.34766 C 127.73778 150.45347 127.29469 152.79434 127.33399 156.36914 C 127.37329 159.94395 127.97729 162.21778 129.14453 163.19141 C 130.31178 164.16504 131.77199 164.75795 133.52344 164.96875 C 135.27489 165.17955 136.98452 165.09501 138.6543 164.7168 C 140.29336 164.31297 141.87053 163.85788 143.38672 163.35157 C 144.89782 162.78891 146.17575 162.31796 147.22071 161.93946 C 148.23495 161.53533 148.80487 161.3858 148.92774 161.48828 C 149.38849 161.87261 149.55977 162.66565 149.44141 163.86914 C 149.32305 165.07264 149.04495 165.9368 148.60938 166.45899 C 148.02008 167.16548 146.0094 167.38854 142.57813 167.13086 L 141.89258 174.60547 C 144.12021 175.0572 146.50702 174.9133 149.05274 174.17188 C 151.62408 173.39974 153.38208 172.44512 154.33008 171.3086 C 155.30371 170.14136 155.68654 167.4656 155.47852 163.28125 C 155.23978 159.07129 154.64559 156.56967 153.69336 155.77539 C 152.43397 154.7249 150.72995 154.26702 148.58399 154.4043 C 146.43293 154.48524 144.42511 154.89424 142.56055 155.63086 C 140.69089 156.31114 138.92989 156.92544 137.27539 157.47266 C 135.64652 157.98917 134.66211 158.10606 134.32422 157.82422 C 133.98634 157.54238 133.8368 156.97441 133.87305 156.11914 C 133.9042 155.20754 134.0734 154.56782 134.38086 154.19922 C 134.97016 153.49273 136.98084 153.26772 140.41211 153.52539 L 141.09766 146.05078 C 140.54075 145.93785 139.97488 145.86262 139.39649 145.82617 z M 430.76954 163.07227 C 429.10502 163.16478 426.22092 164.56825 422.11524 167.2793 C 418.00956 169.99035 415.57102 172.10266 414.79884 173.61914 C 414.3063 174.61544 413.91415 176.6729 413.62306 179.78907 C 413.354 182.93861 413.53855 184.99684 414.17774 185.96485 C 414.81693 186.93285 416.62733 187.89543 419.60743 188.85157 C 422.60957 189.84108 424.66572 190.30386 425.7754 190.24219 C 427.4733 190.12764 430.3748 188.71496 434.48048 186.00391 C 438.58616 183.29286 441.0073 181.18976 441.7461 179.69532 C 442.23864 178.69902 442.61963 176.62611 442.88868 173.47657 C 443.17977 170.3604 443.00639 168.31957 442.3672 167.35157 C 441.72801 166.38356 439.90645 165.40358 436.90431 164.41407 C 433.9242 163.45793 431.87922 163.0106 430.76954 163.07227 z M 118.46875 163.44336 L 114.28711 170.16993 L 133.90821 182.36328 C 134.37218 184.72378 134.45574 186.14155 134.16016 186.61719 C 133.86458 187.09283 133.24231 187.41262 132.29297 187.57618 C 131.30966 187.71862 130.52873 187.61088 129.95117 187.25196 L 110.99414 175.47071 L 106.81446 182.19727 L 126.48438 194.42188 C 128.31898 195.56198 130.81077 195.72059 133.95899 194.89844 C 137.09434 194.02121 138.97794 193.07392 139.61133 192.05469 C 140.24472 191.03547 140.14705 188.50216 139.31836 184.45508 L 142.70508 185.71094 L 145.93555 180.51368 L 118.46875 163.44336 z M 432.95118 170.1875 C 433.50602 170.15667 434.19995 170.22641 435.03126 170.39649 C 435.88461 170.59994 436.41101 170.85193 436.60938 171.15235 C 436.80775 171.45276 436.82048 172.02026 436.6504 172.85157 C 436.50236 173.71625 436.30682 174.39639 436.06056 174.89453 C 435.57936 175.83541 433.63519 177.42955 430.23048 179.67774 C 426.82577 181.92593 424.61269 183.07599 423.59181 183.12696 C 423.03696 183.15779 422.33383 183.0726 421.48048 182.86914 C 420.64917 182.69907 420.13392 182.46253 419.93556 182.16211 C 419.73719 181.8617 419.71135 181.27875 419.85938 180.41407 C 420.02946 179.58276 420.23812 178.91807 420.48438 178.41993 C 420.96558 177.47905 422.90975 175.88491 426.31446 173.63672 C 429.71917 171.38853 431.9303 170.23847 432.95118 170.1875 z M 451.03321 182.56836 L 430.0879 192.45118 C 428.13447 193.37298 426.64949 195.37851 425.63087 198.46875 C 424.66549 201.5781 424.43907 203.67649 424.95118 204.76172 C 425.46329 205.84696 427.64352 207.13954 431.4922 208.64063 L 428.59766 210.80274 L 431.20899 216.33789 L 460.45704 202.53516 L 457.07618 195.37305 L 436.18556 205.23243 C 433.9513 204.34063 432.7136 203.64121 432.47462 203.13477 C 432.23563 202.62833 432.30559 201.93099 432.6836 201.04493 C 433.09779 200.14179 433.61356 199.54606 434.22852 199.25586 L 454.41407 189.73047 L 451.03321 182.56836 z M 96.523439 184.6836 C 95.961712 184.67361 94.94725 185.00327 93.478517 185.67383 C 91.634701 186.482 90.618141 187.08483 90.429689 187.48243 C 90.258369 187.84388 90.436287 189.01326 90.960939 190.98829 C 91.502723 192.92717 91.990084 193.9995 92.42383 194.20508 C 92.82143 194.39353 93.941342 194.08357 95.785158 193.27539 C 97.592829 192.45009 98.582588 191.8556 98.753908 191.49414 C 98.94236 191.09654 98.766395 189.92912 98.224611 187.99024 C 97.699959 186.01521 97.237446 184.9326 96.839846 184.74414 C 96.758518 184.7056 96.653069 184.6859 96.523439 184.6836 z M 106.70508 190.54883 C 104.93281 190.5056 103.22307 190.89015 101.57617 191.70313 L 102.92383 199.64649 C 104.12832 199.06648 105.33899 198.79976 106.55664 198.84571 C 107.7743 198.89166 109.30502 199.35088 111.14844 200.22461 L 129.41992 208.88477 C 132.34771 210.27246 133.98793 211.20396 134.33789 211.67969 C 134.70499 212.11928 134.98586 212.73998 135.18164 213.54102 C 135.39455 214.30592 135.38048 214.94123 135.14063 215.44727 C 134.91791 215.91716 133.64132 216.419 131.3086 216.95118 L 130.34571 217.15821 L 131.54883 224.56836 C 133.62081 224.39952 135.71613 223.66622 137.83594 222.36915 C 139.9919 221.0892 141.35262 219.85296 141.91797 218.66016 C 142.48333 217.46736 142.36463 215.24183 141.5625 211.98438 C 140.76037 208.72693 139.98375 206.67702 139.23242 205.83399 C 138.58577 204.86351 135.98597 203.29926 131.43164 201.14063 L 112.20899 191.96289 C 110.31135 191.06346 108.47735 190.59206 106.70508 190.54883 z M 92.36133 215.91407 L 90.507814 222.375 L 88.777346 221.87891 C 84.740058 220.72119 81.229675 221.21162 78.244142 223.35157 L 80.865236 230.96875 C 82.21212 230.18984 83.499292 229.76788 84.724611 229.70313 C 85.91148 229.62735 87.457164 229.82179 89.363283 230.28516 L 89.228517 233.36719 L 93.554689 234.60743 L 94.380861 231.72461 L 109.60742 236.08985 C 111.72219 236.69627 113.96722 236.48807 116.3418 235.4629 C 118.67793 234.4267 120.71497 232.90846 122.45313 230.91016 L 119.83203 223.29297 C 118.33023 225.1926 116.65122 226.5414 114.79883 227.3418 C 112.94644 228.1422 111.11772 228.28385 109.31055 227.76563 L 96.564455 224.11133 L 98.416018 217.65039 L 92.36133 215.91407 z M 339.32227 217.58204 C 350.59645 222.76088 349.9745 233.40921 360.00977 237.89844 C 350.56483 242.88204 336.70732 237.81112 333.94923 231.88477 C 332.55986 228.89937 332.68298 223.22684 339.32227 217.58204 z M 475.57618 220.91993 C 474.93943 222.12431 474.14545 223.07711 473.19337 223.77735 C 472.24128 224.47759 470.76803 225.04537 468.7754 225.48243 L 436.77735 232.50196 L 438.47266 240.23829 L 459.80665 235.5586 C 460.69469 236.05998 461.65472 236.70905 462.68946 237.50586 C 463.77184 238.33318 464.36082 238.9628 464.45509 239.39258 C 464.62648 240.17401 464.09047 241.27372 462.84571 242.69336 C 461.90423 242.69511 460.4429 242.19626 458.4629 241.19727 C 456.52197 240.18971 454.98852 239.17502 453.86329 238.15235 L 451.81251 238.60157 C 450.3618 240.76255 448.68858 242.56437 446.79298 244.00391 C 444.93645 245.43489 442.52431 246.94628 439.55665 248.53907 L 446.33399 254.79102 C 449.17108 253.34973 452.03497 250.81879 454.92579 247.19532 C 456.30738 248.07986 458.20457 248.89099 460.61915 249.63086 C 463.0423 250.40981 464.70489 250.70102 465.60352 250.50391 C 466.83666 250.15154 468.28387 248.44218 469.94532 245.375 C 471.60678 242.30783 472.32438 240.26586 472.10157 239.25 C 471.87876 238.23415 469.94841 236.52907 466.31056 234.13282 L 472.9922 232.66602 C 477.0556 231.77477 479.89192 229.67856 481.50196 226.37696 L 475.57618 220.91993 z M 96.406252 238.66602 C 94.803101 238.62013 93.611683 238.7469 92.833986 239.04688 C 91.797057 239.44685 90.115085 240.71535 87.785158 242.85157 C 85.461601 244.9483 84.206216 246.56965 84.021486 247.71485 C 83.836756 248.86005 84.514642 250.81374 86.054689 253.57422 C 87.601106 256.29522 88.803542 258.00716 89.662111 258.7129 C 90.949964 259.7715 94.023649 260.69306 98.880861 261.47657 C 103.73807 262.26008 106.96371 262.35531 108.5586 261.76172 C 109.59552 261.36175 111.27605 260.11431 113.59961 258.01758 C 115.92954 255.88136 117.18637 254.23895 117.3711 253.09376 C 117.55583 251.94856 116.87454 250.01592 115.32813 247.29493 C 113.78808 244.53445 112.58904 242.80144 111.73047 242.09571 C 110.40313 241.03074 107.31034 240.10578 102.45313 239.32227 C 100.02452 238.93052 98.009403 238.71191 96.406252 238.66602 z M 94.79883 246.25196 C 96.111544 246.16743 98.277881 246.36817 101.29883 246.85547 C 105.32676 247.50521 107.73357 248.15705 108.51953 248.81055 C 108.94882 249.16342 109.40997 249.70426 109.90039 250.43165 C 110.39719 251.11954 110.61593 251.64069 110.5586 251.9961 C 110.50127 252.3515 110.12591 252.79771 109.43164 253.33399 C 108.74375 253.83078 108.14151 254.17892 107.62305 254.37891 C 106.63198 254.74577 104.12168 254.60287 100.09375 253.95313 C 96.06582 253.30339 93.659008 252.65351 92.873049 252 C 92.443764 251.64714 91.98117 251.1254 91.484377 250.4375 C 90.993954 249.71012 90.776656 249.16986 90.833986 248.81446 C 90.891316 248.45905 91.263281 248.03195 91.951174 247.53516 C 92.645437 246.99888 93.253022 246.63163 93.771486 246.43165 C 94.019254 246.33993 94.361259 246.28013 94.79883 246.25196 z M 470.44727 254.95899 C 469.66808 256.04529 468.73333 256.85913 467.64259 257.40235 C 466.55185 257.94557 464.98785 258.27601 462.95118 258.39258 L 442.28517 259.57618 L 442.73829 267.48243 L 465.74024 266.16602 C 467.5135 267.74727 468.4169 268.83849 468.45118 269.43751 C 468.48775 270.07646 468.14731 270.77682 467.4297 271.53907 C 466.75202 272.29903 466.07343 272.69748 465.39454 272.73633 L 452.09767 273.49805 C 447.90453 273.73805 444.75038 275.35966 442.63868 278.36524 L 447.62892 284.69141 C 448.40811 283.60511 449.34286 282.79127 450.4336 282.24805 C 451.52434 281.70484 453.08834 281.37439 455.12501 281.25782 L 466.68556 280.59571 C 468.84203 280.47228 470.94923 279.10948 473.00392 276.50782 C 475.10083 273.9438 476.11384 272.04267 476.04298 270.80469 C 475.97441 269.60665 474.45677 267.60962 471.4922 264.81446 C 473.0085 264.00649 474.32404 262.82936 475.43751 261.28321 L 470.44727 254.95899 z M 110.74414 264.15235 C 109.89044 265.18113 108.8997 265.92747 107.77344 266.39258 C 106.64718 266.8577 105.06521 267.07587 103.02539 267.04883 L 91.445314 266.89649 C 89.285504 266.86787 87.090093 268.07867 84.857424 270.5293 C 82.585287 272.93941 81.440261 274.76402 81.42383 276.00391 C 81.407928 277.20381 82.780487 279.30199 85.541017 282.29883 C 83.971613 282.9981 82.57693 284.08096 81.357423 285.54493 L 85.890627 292.20508 C 86.744334 291.17631 87.733115 290.42997 88.859377 289.96485 C 89.985639 289.49973 91.569556 289.27961 93.609377 289.30665 L 114.30664 289.58204 L 114.41211 281.66211 L 91.373049 281.35743 C 89.715458 279.65531 88.892442 278.50425 88.900392 277.9043 C 88.908873 277.26436 89.296934 276.58878 90.066408 275.87891 C 90.795886 275.16852 91.499749 274.81717 92.179689 274.82618 L 105.5 275.00391 C 109.69963 275.05957 112.95743 273.66204 115.27539 270.81251 L 110.74414 264.15235 z M 453.55665 286.29297 C 451.94429 286.35926 450.75112 286.56964 449.97657 286.92188 C 448.9704 287.39392 447.38295 288.75649 445.2129 291.01172 C 443.03928 293.3068 441.90047 295.03214 441.79688 296.18751 C 441.6933 297.34287 442.50791 299.22286 444.2422 301.82813 C 445.97291 304.47324 447.29111 306.11824 448.19727 306.76172 C 449.59635 307.73053 452.74615 308.43372 457.64649 308.87305 C 462.54684 309.31239 465.75247 309.17877 467.26173 308.47071 C 468.2679 307.99867 469.85764 306.61539 472.03126 304.32032 C 474.20131 302.06508 475.33783 300.3585 475.44142 299.20313 C 475.545 298.04776 474.73073 296.14902 473.00001 293.50391 C 471.26572 290.89864 469.94718 289.27435 469.04102 288.63087 C 467.68179 287.66564 464.55075 286.96278 459.6504 286.52344 C 457.20023 286.30378 455.16901 286.22669 453.55665 286.29297 z M 454.03712 293.86719 C 455.29373 293.84933 456.93886 293.93112 458.97071 294.11329 C 463.03441 294.47761 465.48051 294.95819 466.31056 295.55469 C 466.76364 295.87644 467.26262 296.3625 467.80665 297.01368 C 468.3471 297.7047 468.60051 298.22933 468.56837 298.5879 C 468.53622 298.94646 468.19611 299.39739 467.54493 299.94141 C 466.89018 300.52528 466.30974 300.93586 465.80665 301.17188 C 464.84389 301.60765 462.33129 301.64363 458.26759 301.2793 C 454.20389 300.91498 451.75779 300.4344 450.92774 299.8379 C 450.47466 299.51615 449.97796 299.00939 449.43751 298.31837 C 448.89348 297.66718 448.63778 297.1613 448.66993 296.80274 C 448.70208 296.44418 449.04448 295.9745 449.69923 295.39063 C 450.35041 294.8466 450.92856 294.45673 451.43165 294.22071 C 451.91303 294.00282 452.7805 293.88505 454.03712 293.86719 z M 106.4375 306.41407 C 106.35288 306.41896 106.27322 306.42795 106.19727 306.44337 C 104.59002 306.76949 103.16813 307.81357 101.9336 309.57422 C 100.6519 311.30364 99.715844 313.12527 99.125002 315.04102 C 98.487005 316.92553 97.865135 318.68498 97.257814 320.31837 C 96.64254 321.91255 96.118715 322.75431 95.687502 322.8418 C 95.256289 322.9293 94.719057 322.68997 94.074221 322.12696 C 93.382228 321.5327 92.988031 321.00167 92.89258 320.53126 C 92.709633 319.62963 93.792304 317.9192 96.138674 315.40235 L 90.734377 310.19337 C 88.989083 311.64951 87.614383 313.62176 86.609377 316.11133 C 85.596416 318.5617 85.236946 320.51245 85.531252 321.9629 C 85.817604 323.37414 87.367089 325.18239 90.181642 327.38673 C 92.996196 329.59106 95.14903 330.5425 96.638674 330.24024 C 98.128318 329.93798 99.502179 329.16873 100.76172 327.9336 C 102.02126 326.69847 103.02465 325.31114 103.77344 323.77149 C 104.48302 322.2398 105.11519 320.72449 105.66797 319.22462 C 106.1736 317.69349 106.60498 316.4018 106.96289 315.34962 C 107.28161 314.30538 107.51898 313.7662 107.67578 313.73438 C 108.2638 313.61507 108.99215 313.97942 109.85742 314.82422 C 110.7227 315.66903 111.2222 316.42343 111.35742 317.08985 C 111.54037 317.99148 110.4577 319.7019 108.11133 322.21876 L 113.51563 327.42774 C 115.26092 325.9716 116.64134 324.01874 117.6543 321.56837 C 118.65931 319.0788 119.01306 317.10865 118.71875 315.65821 C 118.41649 314.16857 116.56763 312.19593 113.17188 309.74219 C 109.9516 307.44927 107.70685 306.34065 106.4375 306.41407 z M 451.3379 311.98633 C 451.12389 311.98266 450.93484 311.9905 450.76954 312.00782 C 449.44711 312.14633 447.1173 313.09003 443.78321 314.8379 C 440.43864 316.62436 438.60919 318.09579 438.29493 319.25391 C 437.91782 320.64366 439.48625 323.49406 443.00001 327.80469 C 437.78926 329.74791 434.99626 331.41495 434.61915 332.80469 C 434.30489 333.96281 435.12543 336.13344 437.08009 339.31641 C 439.07335 342.50986 440.56674 344.48884 441.56056 345.25587 C 442.54389 346.0615 445.3519 347.09258 449.98438 348.34962 L 454.9629 349.70118 C 459.01632 350.80108 462.52192 350.26053 465.47657 348.07813 L 462.5879 341.07813 C 460.54752 342.18233 457.86683 342.28369 454.54688 341.38282 L 452.0586 340.70704 C 447.92797 339.58618 445.55639 338.77669 444.94532 338.2793 C 444.32378 337.82052 443.71964 337.22191 443.13282 336.48243 C 442.57413 335.79202 442.34128 335.27322 442.43556 334.92579 C 442.52983 334.57835 442.99833 334.22886 443.83985 333.87696 C 444.71998 333.53553 445.5643 333.32902 446.3711 333.25782 C 447.17791 333.18662 449.60675 333.70088 453.66017 334.80079 L 467.32618 338.50782 L 469.4004 330.86524 L 453.6504 326.5918 C 450.90952 325.84806 449.23217 325.22591 448.6211 324.72852 C 447.99956 324.26974 447.39542 323.67113 446.8086 322.93165 C 446.24991 322.24124 446.01901 321.72244 446.11329 321.37501 C 446.20757 321.02757 446.67411 320.67808 447.51563 320.32618 C 448.39576 319.98475 449.24008 319.77824 450.04688 319.70704 C 450.85369 319.63584 453.28448 320.1501 457.3379 321.25001 L 471.00392 324.95899 L 473.07813 317.31446 L 459.41212 313.60743 C 455.52759 312.55335 452.83595 312.01204 451.3379 311.98633 z M 81.177736 332.87891 C 80.869485 332.96483 80.612049 334.19875 80.404298 336.58204 C 80.147277 338.93753 80.1104 340.44263 80.29297 341.09766 C 80.357407 341.32885 82.259335 341.3796 86.001955 341.25001 C 89.706043 341.13115 91.964281 340.95991 92.773439 340.73438 C 92.966096 340.68068 93.109731 340.07939 93.20508 338.93165 C 93.300429 337.78391 93.292943 337.01813 93.185549 336.63282 C 93.15333 336.51723 91.868141 336.0019 89.33008 335.08985 C 86.742748 334.15 84.025935 333.41385 81.177736 332.87891 z M 119.15235 336.08399 C 119.09577 338.5049 118.5683 340.59185 117.57031 342.34571 C 116.57233 344.09957 115.19666 345.31291 113.44141 345.98633 L 101.06055 350.73634 L 98.654299 344.4629 L 92.771486 346.71876 L 95.179689 352.99415 L 93.498049 353.63868 C 89.576745 355.14313 87.067788 357.64675 85.970705 361.15235 L 92.648439 365.66016 C 93.255587 364.22762 94.029006 363.11711 94.968752 362.32813 C 95.871152 361.55349 97.224107 360.77678 99.025393 360.00001 L 100.77149 362.54493 L 104.97266 360.93165 L 103.89844 358.13087 L 118.6875 352.45704 C 120.74152 351.66899 122.40767 350.15189 123.6875 347.9043 C 124.92999 345.67105 125.64409 343.23374 125.83008 340.5918 L 119.15235 336.08399 z M 434.10157 347.84571 C 433.51002 347.85313 432.40718 348.22495 430.79298 348.95899 C 428.84274 349.87886 427.77651 350.53832 427.59571 350.93946 C 427.39847 351.37706 427.60068 352.63271 428.20313 354.70313 C 428.84205 356.78999 429.38076 357.93168 429.81837 358.12891 C 430.29244 358.34259 431.48663 357.98123 433.4004 357.04493 C 435.35064 356.12506 436.41686 355.46364 436.59766 355.06251 C 436.77847 354.66137 436.5743 353.40768 435.98829 351.30079 C 435.42231 349.2468 434.90377 348.11212 434.4297 347.89844 C 434.34765 347.86146 434.23808 347.844 434.10157 347.84571 z M 34.796876 351.35938 C 29.632007 355.27025 20.546788 352.35433 19.470704 363.38282 L 15.611328 358.50782 L 15.611328 420.67579 C 15.611328 459.21754 42.295846 455.36939 45.361329 454.47462 L 46.490235 458.49806 C 48.934817 468.35632 43.321795 459.40506 37.333985 460.72852 C 42.641232 481.56108 49.135594 474.88208 56.833986 482.81642 L 48.126954 450.84767 L 65.021486 434.22266 C 65.021486 434.22266 59.457679 435.87515 55.32422 435.76173 C 49.368881 435.59821 41.199191 440.58876 43.777345 448.56056 C 34.559931 451.88644 27.996002 448.71484 27.404297 439.60548 L 27.404297 381.03516 C 27.404297 378.31425 29.662709 379.28783 31.773438 375.22071 C 33.071503 372.7197 32.753907 368.38282 32.753907 368.38282 C 30.394948 370.55993 26.933368 370.96023 27.498047 375.33009 L 25.083985 372.32423 L 25.083985 440.16798 C 25.083985 440.16798 21.271485 438.09579 21.271485 421.38673 L 21.271485 395.9961 C 21.271485 380.00724 19.396024 384.15304 19.84961 375.91212 C 20.178958 369.92799 26.486248 365.5958 30.800782 361.28126 C 33.910407 358.17164 34.796876 351.35938 34.796876 351.35938 z M 509.67579 351.35938 C 509.67579 351.35938 510.56226 358.17164 513.67189 361.28126 C 517.98642 365.5958 524.29383 369.92994 524.62306 375.91407 C 525.07661 384.15499 523.20118 380.00724 523.20118 395.9961 L 523.20118 421.38868 C 523.20118 438.09774 519.38868 440.16798 519.38868 440.16798 L 519.38868 372.32423 L 516.97462 375.33009 C 517.53929 370.96024 514.07772 370.55993 511.71876 368.38282 C 511.71876 368.38282 511.40125 372.71971 512.69923 375.22071 C 514.80996 379.28784 517.06837 378.31427 517.06837 381.03516 L 517.06837 439.60548 C 516.47666 448.71488 509.91273 451.88644 500.69532 448.56056 C 503.27347 440.58876 495.10379 435.59834 489.14845 435.76173 C 485.01499 435.87523 479.45118 434.22266 479.45118 434.22266 L 496.34571 450.84767 L 487.63868 482.81642 C 495.33712 474.88208 501.83139 481.56108 507.13868 460.72852 C 501.15083 459.40506 495.53781 468.35632 497.98243 458.49806 L 499.11134 454.47462 C 502.17686 455.36939 528.86134 459.21754 528.86134 420.67579 L 528.86134 358.50782 L 525.00196 363.38282 C 523.92592 352.35433 514.84071 355.27025 509.67579 351.35938 z M 440.19337 352.33985 L 436.93946 359.56055 L 438.85352 360.42384 C 439.61933 360.769 440.1571 361.23026 440.46681 361.8086 C 440.81298 362.40338 441.44364 364.07046 442.35938 366.8086 C 443.3116 369.56318 444.08102 371.31425 444.66602 372.06055 C 445.25103 372.80686 446.74553 373.72184 449.15235 374.80665 C 451.55917 375.89146 453.18233 376.38068 454.01954 376.2754 C 455.74686 376.04481 458.18979 375.14916 461.34962 373.58985 C 464.50945 372.03054 466.37786 370.61424 466.95313 369.3379 C 467.8407 367.36868 467.65924 364.65408 466.41017 361.19532 C 465.14465 357.77303 463.46121 355.28123 461.35743 353.71876 L 454.19923 358.06055 C 456.00408 359.31279 457.43302 360.76924 458.48438 362.42774 C 459.53575 364.08625 459.93796 365.18738 459.69142 365.73438 C 459.44487 366.28139 458.49208 366.84017 456.83204 367.40821 C 455.19203 368.02916 453.87915 368.11762 452.89454 367.67384 C 451.21706 366.91776 450.26248 366.31158 450.02931 365.85548 C 449.83259 365.41581 449.47166 364.46292 448.94727 362.99805 C 448.40645 361.56966 447.8561 360.15951 447.29884 358.76759 C 446.76161 357.42856 446.24564 356.38467 445.75001 355.63477 C 445.29084 354.90131 444.25885 354.17243 442.65431 353.44923 L 440.19337 352.33985 z M 130.16992 353.06055 L 92.437502 371.50782 L 96.074221 378.94532 L 133.80664 360.50001 L 130.16992 353.06055 z M 468.59571 428.39063 C 468.55885 428.39063 468.52324 428.39154 468.48634 428.39454 C 468.45394 428.39454 468.42138 428.39545 468.38868 428.39845 C 468.37638 428.40245 468.36387 428.40326 468.35157 428.40626 C 468.30207 428.41436 468.25339 428.42716 468.20509 428.43946 L 468.18165 428.44337 L 437.70118 436.60938 C 437.44387 436.67777 437.20791 436.8136 437.01954 437.00196 C 436.83119 437.19028 436.69771 437.42644 436.62891 437.6836 L 428.4629 468.16212 L 428.45899 468.18751 C 428.44269 468.23622 428.43379 468.28449 428.42579 468.33399 C 428.42179 468.34629 428.42098 468.3588 428.41798 468.3711 C 428.41698 468.403 428.41507 468.43606 428.41407 468.46876 C 428.41307 468.50561 428.41116 468.54123 428.41016 468.57813 C 428.41016 468.6461 428.41388 468.71406 428.42188 468.78126 C 428.43008 468.84554 428.44259 468.90851 428.45899 468.97071 L 428.45899 468.97267 L 428.45899 468.97462 L 428.46095 468.97657 C 428.46495 468.99737 428.47248 469.01867 428.48048 469.03907 C 428.49408 469.08417 428.51095 469.12808 428.52735 469.17188 C 428.53965 469.19488 428.55216 469.21984 428.56446 469.24024 C 428.58366 469.27704 428.6007 469.31077 428.6211 469.34767 C 428.6387 469.37307 428.65353 469.39924 428.66993 469.42384 C 428.69003 469.45534 428.71398 469.48693 428.73438 469.51563 C 428.75738 469.54313 428.78205 469.57111 428.80665 469.59571 C 428.82025 469.61291 428.83517 469.634 428.85157 469.6504 L 428.88868 469.68556 L 451.18165 491.97853 C 451.46829 492.26505 451.85332 492.42284 452.24806 492.42384 C 452.37991 492.42424 452.51196 492.408 452.64259 492.3711 L 483.11524 484.20704 L 483.11915 484.20704 L 483.12306 484.20509 L 483.14454 484.20118 C 483.16534 484.19718 483.18469 484.18965 483.20509 484.18165 C 483.2461 484.16775 483.28713 484.15508 483.32813 484.13868 L 483.33204 484.13868 C 483.38814 484.11488 483.4428 484.08535 483.4961 484.05665 C 483.53127 484.03575 483.56497 484.01484 483.59767 483.99024 C 483.62267 483.97264 483.64728 483.95586 483.67188 483.93946 C 483.72382 483.89977 483.77362 483.85686 483.82032 483.81056 C 483.86652 483.76387 483.90823 483.71462 483.94923 483.66212 C 483.96683 483.63832 483.98361 483.6125 484.00001 483.5879 C 484.02381 483.55473 484.04602 483.52314 484.06642 483.48634 C 484.09682 483.43351 484.12385 483.37878 484.14845 483.32228 L 484.14845 483.31837 C 484.16645 483.27865 484.17912 483.23672 484.19142 483.19532 C 484.19952 483.17492 484.20295 483.15518 484.21095 483.13478 L 484.21485 483.11329 L 484.21681 483.10938 L 484.21681 483.10548 L 492.38087 452.63282 C 492.52025 452.11064 492.37033 451.55392 491.98829 451.17188 L 469.69727 428.87891 L 469.66017 428.84181 C 469.64287 428.82421 469.62188 428.81328 469.60548 428.79688 C 469.57968 428.77188 469.5541 428.74922 469.5254 428.72462 C 469.4954 428.70222 469.4663 428.68056 469.4336 428.66016 C 469.409 428.64256 469.38203 428.62774 469.35743 428.61134 C 469.32223 428.59214 469.28691 428.5711 469.25001 428.5547 C 469.22781 428.5425 469.20625 428.52989 469.18165 428.51759 C 469.13777 428.49999 469.09384 428.48301 469.04884 428.47071 C 469.02844 428.46261 469.00674 428.45918 468.98634 428.45118 L 468.98438 428.44923 L 468.98243 428.44923 L 468.98048 428.44923 C 468.91824 428.43273 468.85492 428.42012 468.79102 428.41212 C 468.72346 428.40282 468.6559 428.39969 468.5879 428.4004 L 468.59571 428.39063 z M 75.884767 428.4004 L 75.884767 428.40626 C 75.816793 428.40626 75.748802 428.41193 75.681642 428.41993 C 75.617353 428.42813 75.552476 428.44064 75.490236 428.45704 L 75.488283 428.45704 L 75.48633 428.45704 L 75.484376 428.45899 C 75.463486 428.46299 75.4443 428.47052 75.42383 428.47852 C 75.378778 428.49212 75.332874 428.509 75.289064 428.5254 C 75.266534 428.5376 75.243128 428.55021 75.222658 428.56251 C 75.185804 428.58171 75.150143 428.5968 75.113283 428.6172 C 75.087903 428.6348 75.063634 428.65158 75.039064 428.66798 C 75.007534 428.68798 74.973974 428.71203 74.945314 428.73243 C 74.917874 428.75543 74.891759 428.7801 74.867189 428.8047 C 74.849989 428.8183 74.828881 428.83322 74.812501 428.84962 L 74.779298 428.88673 L 52.486329 451.1797 C 52.102243 451.56188 51.956478 452.11845 52.095704 452.64063 L 60.259767 483.11329 C 60.259726 483.11429 60.259726 483.11622 60.259767 483.1172 L 60.26172 483.1211 L 60.265626 483.14259 C 60.273816 483.16339 60.276957 483.18273 60.285157 483.20313 C 60.299077 483.24405 60.311746 483.28323 60.328126 483.32423 L 60.328126 483.32813 C 60.351866 483.38423 60.381497 483.44085 60.410157 483.49415 C 60.431047 483.52932 60.451994 483.56301 60.476564 483.59571 C 60.494174 483.62071 60.510965 483.64533 60.527345 483.66993 C 60.567062 483.72187 60.609981 483.77167 60.656251 483.81837 C 60.702933 483.86456 60.752279 483.90628 60.804689 483.94728 C 60.828449 483.96488 60.854337 483.98166 60.878907 483.99806 C 60.912078 484.02186 60.94361 484.04406 60.98047 484.06446 C 61.033293 484.09476 61.088022 484.12189 61.144532 484.14649 L 61.148439 484.14649 C 61.188157 484.16039 61.230536 484.17716 61.271486 484.18946 C 61.291956 484.19756 61.311562 484.20099 61.332032 484.20899 L 61.353517 484.2129 L 61.357423 484.21485 L 61.361329 484.21485 L 91.832033 492.37892 C 91.962659 492.41462 92.095119 492.43206 92.226564 492.43165 C 92.621388 492.43067 93.008285 492.27298 93.294924 491.98634 L 115.58789 469.69337 L 115.62305 469.65626 C 115.64065 469.63906 115.65352 469.61992 115.66992 469.60352 C 115.69492 469.57772 115.71759 469.55215 115.74219 469.52345 C 115.76459 469.49355 115.78624 469.46435 115.80664 469.43165 C 115.82434 469.40705 115.83907 469.38008 115.85547 469.35548 C 115.87467 469.32028 115.89571 469.28496 115.91211 469.24806 C 115.92441 469.22586 115.93301 469.2043 115.94531 469.1797 C 115.96291 469.1359 115.97989 469.09188 115.99219 469.04688 C 116.00039 469.02648 116.00372 469.00478 116.01172 468.98438 L 116.01367 468.98243 L 116.01367 468.98048 L 116.01367 468.97852 C 116.03427 468.91628 116.04669 468.85287 116.05469 468.78907 C 116.06399 468.7215 116.0671 468.65395 116.06641 468.58595 C 116.06641 468.5491 116.0655 468.51347 116.0625 468.47657 C 116.0625 468.44407 116.0616 468.41162 116.0586 468.37892 C 116.0546 468.36662 116.05378 468.35411 116.05078 468.34181 C 116.04668 468.2923 116.03379 468.24362 116.02149 468.19532 L 116.01758 468.16993 L 107.85156 437.69141 C 107.78277 437.43404 107.64929 437.20008 107.46094 437.01173 C 107.27261 436.82336 107.03645 436.68795 106.7793 436.61915 L 76.29883 428.45313 L 76.275392 428.44923 C 76.227067 428.43293 76.178448 428.42402 76.128908 428.41602 C 76.116618 428.41202 76.104088 428.41121 76.091798 428.40821 C 76.059858 428.40721 76.026902 428.40529 75.994142 428.40431 C 75.9577 428.40331 75.921627 428.40138 75.884767 428.4004 z M 76.556642 432.42579 L 93.875002 446.66017 L 68.679689 453.41212 L 76.556642 432.42579 z M 467.91602 432.42579 L 475.79298 453.41212 L 450.59767 446.66017 L 467.91602 432.42579 z M 82.250002 433.18556 L 103.46094 438.86915 L 97.011721 445.32032 L 82.250002 433.18556 z M 462.22267 433.18556 L 447.46095 445.32032 L 441.01173 438.86915 L 462.22267 433.18556 z M 72.005861 435.9336 L 65.291017 453.82032 L 56.48047 451.45704 L 72.005861 435.9336 z M 472.46681 435.9336 L 487.9922 451.45704 L 479.18165 453.82032 L 472.46681 435.9336 z M 105.60352 441.01173 L 111.28711 462.22071 L 99.152346 447.46095 L 105.60352 441.01173 z M 438.86915 441.01173 L 445.32032 447.46095 L 433.18556 462.22071 L 438.86915 441.01173 z M 94.968752 449.50392 L 88.050783 475.32032 L 78.601564 465.8711 L 69.152345 456.42188 L 94.968752 449.50392 z M 449.50392 449.50392 L 475.32032 456.42188 L 465.8711 465.8711 L 456.42188 475.32032 L 449.50392 449.50392 z M 97.812502 450.59767 L 112.04688 467.91602 L 91.060549 475.79298 L 97.812502 450.59767 z M 446.66017 450.59767 L 453.41212 475.79298 L 432.42579 467.91602 L 446.66017 450.59767 z M 55.697267 454.38282 L 64.507814 456.74415 L 61.380861 475.59376 L 55.697267 454.38282 z M 488.7754 454.38282 L 483.09181 475.59376 L 479.96485 456.74415 L 488.7754 454.38282 z M 67.238283 458.79102 L 76.460939 468.01173 L 85.681642 477.23438 L 63.568361 480.90431 L 67.238283 458.79102 z M 477.23438 458.79102 L 480.90431 480.90431 L 458.79102 477.23438 L 468.01173 468.01173 L 477.23438 458.79102 z M 108.53906 472.46681 L 93.015627 487.9922 L 90.652346 479.18165 L 108.53906 472.46681 z M 435.9336 472.46681 L 453.82032 479.18165 L 451.45899 487.9922 L 435.9336 472.46681 z M 110.25 479.45118 L 93.625002 496.34571 L 61.656251 487.63868 C 69.590587 495.33712 62.911534 501.83139 83.744142 507.13868 C 85.067554 501.15083 76.116352 495.53785 85.974611 497.98243 L 89.998049 499.11134 C 89.103285 502.17686 85.255134 528.85939 123.79688 528.85939 L 185.96485 528.85939 L 181.08985 525.00196 C 192.11833 523.92592 189.20247 514.84071 193.11329 509.67579 C 193.11329 509.67579 186.30104 510.56226 183.19141 513.67189 C 178.87688 517.98642 174.54467 524.29384 168.56055 524.62306 C 160.31964 525.07661 164.46543 523.20118 148.47657 523.20118 L 123.08594 523.20118 C 106.37688 523.20118 104.30469 519.38673 104.30469 519.38673 L 172.14844 519.38673 L 169.14258 516.97462 C 173.51239 517.53929 173.91279 514.07772 176.08985 511.71876 C 176.08985 511.71876 171.75297 511.40124 169.25196 512.69923 C 165.18484 514.80996 166.1584 517.06837 163.4375 517.06837 L 104.86719 517.06837 C 95.757801 516.47665 92.586278 509.91273 95.912111 500.69532 C 103.88392 503.27347 108.87432 495.10379 108.71094 489.14845 C 108.59742 485.01499 110.25 479.45118 110.25 479.45118 z M 434.22266 479.45118 C 434.22266 479.45118 435.87515 485.01499 435.76173 489.14845 C 435.59822 495.10379 440.58876 503.27347 448.56056 500.69532 C 451.88644 509.91273 448.71484 516.47665 439.60548 517.06837 L 381.03516 517.06837 C 378.31426 517.06837 379.28783 514.80996 375.22071 512.69923 C 372.71971 511.40116 368.38282 511.71876 368.38282 511.71876 C 370.55993 514.07772 370.96023 517.53929 375.33009 516.97462 L 372.32423 519.38673 L 440.16798 519.38673 C 440.16798 519.38673 438.09579 523.20118 421.38673 523.20118 L 395.9961 523.20118 C 380.00724 523.20118 384.15304 525.07661 375.91212 524.62306 C 369.92799 524.29368 365.5958 517.98642 361.28126 513.67189 C 358.17164 510.56226 351.35938 509.67579 351.35938 509.67579 C 355.27025 514.84071 352.35434 523.92592 363.38282 525.00196 L 358.50782 528.85939 L 420.67579 528.85939 C 459.21754 528.85939 455.36939 502.17686 454.47462 499.11134 L 458.49806 497.98243 C 468.35632 495.53785 459.40506 501.15083 460.72852 507.13868 C 481.56108 501.83139 474.88208 495.33712 482.81642 487.63868 L 450.84767 496.34571 L 434.22266 479.45118 z M 87.728517 479.96485 L 90.089846 488.7754 L 68.878908 483.09181 L 87.728517 479.96485 z M 456.74415 479.96485 L 475.59376 483.09181 L 454.38282 488.7754 L 456.74415 479.96485 z " /></svg>
