<?xml version="1.0" encoding="UTF-8" standalone="no"?>
<svg
   viewBox="0 0 548.0315 548.03151"
   width="145mm"
   height="145mm"
   version="1.1"
   id="svg65"
   sodipodi:docname="fighter lid.svg"
   inkscape:version="1.4.2 (f4327f4, 2025-05-13)"
   xml:space="preserve"
   xmlns:inkscape="http://www.inkscape.org/namespaces/inkscape"
   xmlns:sodipodi="http://sodipodi.sourceforge.net/DTD/sodipodi-0.dtd"
   xmlns="http://www.w3.org/2000/svg"
   xmlns:svg="http://www.w3.org/2000/svg"><sodipodi:namedview
     id="namedview65"
     pagecolor="#ffffff"
     bordercolor="#666666"
     borderopacity="1.0"
     inkscape:showpageshadow="2"
     inkscape:pageopacity="0.0"
     inkscape:pagecheckerboard="0"
     inkscape:deskcolor="#d1d1d1"
     inkscape:zoom="1.0045043"
     inkscape:cx="245.39467"
     inkscape:cy="295.17046"
     inkscape:window-width="1920"
     inkscape:window-height="1057"
     inkscape:window-x="1912"
     inkscape:window-y="-8"
     inkscape:window-maximized="1"
     inkscape:current-layer="svg65"
     inkscape:document-units="mm" /><desc
     id="desc1">outline.dxf - scale = 1.000000, origin = (0.000000, 0.000000), method = manual</desc><defs
     id="defs4"><marker
       id="DistanceX"
       orient="auto"
       refX="0"
       refY="0"
       style="overflow:visible"><path
         d="M 3,-3 -3,3 M 0,-5 V 5"
         style="stroke:#000000;stroke-width:0.5"
         id="path1" /></marker><pattern
       id="Hatch"
       patternUnits="userSpaceOnUse"
       width="8"
       height="8"
       x="0"
       y="0"><path
         d="M8 4 l-4,4"
         stroke="#000000"
         stroke-width="0.25"
         linecap="square"
         id="path2" /><path
         d="M6 2 l-4,4"
         stroke="#000000"
         stroke-width="0.25"
         linecap="square"
         id="path3" /><path
         d="M4 0 l-4,4"
         stroke="#000000"
         stroke-width="0.25"
         linecap="square"
         id="path4" /></pattern><symbol
       id="*MODEL_SPACE" /><symbol
       id="*PAPER_SPACE" /></defs><path
     id="outline"
     style="display:inline;opacity:1;fill:#000000;fill-opacity:1;stroke:none;stroke-width:1;stroke-linecap:round;stroke-dasharray:none;stroke-opacity:1;paint-order:fill markers stroke"
     inkscape:label="outline"
     d="M -25.984376 -25.984376 L -25.984376 574.01564 L 574.01564 574.01564 L 574.01564 -25.984376 L -25.984376 -25.984376 z M 120.47852 0.49414063 L 427.55274 0.49414063 C 444.66376 0.49413963 461.07452 7.2913084 473.17384 19.390625 L 528.63673 74.851564 L 528.63673 74.853517 C 540.73605 86.952837 547.53321 103.36164 547.53321 120.47266 L 547.53321 427.55079 C 547.53321 444.66181 540.73605 461.07256 528.63673 473.17188 L 473.17384 528.63868 C 461.07451 540.73797 444.66375 547.53519 427.55274 547.53517 L 120.47852 547.53517 L 120.47852 547.53126 C 103.36799 547.53129 86.958606 540.73343 74.859376 528.63478 L 74.857423 528.63478 L 19.394532 473.16993 C 7.2963196 461.07117 0.49856488 444.66257 0.49804688 427.55274 L 0.49804688 120.47461 C 0.49804588 103.36359 7.2952146 86.952837 19.394532 74.853517 L 74.857423 19.392579 L 74.857423 19.390625 C 86.956743 7.2913084 103.3675 0.49413963 120.47852 0.49414063 z M 123.79688 15.613282 C 85.255134 15.613282 89.103285 42.295846 89.998049 45.361329 L 85.974611 46.490235 C 76.116352 48.934818 85.067554 43.323749 83.744142 37.335938 C 62.911534 42.643185 69.590587 49.135594 61.656251 56.833986 L 93.625002 48.126954 L 110.25 65.021486 C 110.25 65.021486 108.59751 59.45768 108.71094 55.32422 C 108.87448 49.368881 103.88392 41.199189 95.912111 43.777345 C 92.586278 34.559929 95.757882 27.996002 104.86719 27.404297 L 163.4375 27.404297 C 166.1584 27.404297 165.18484 29.662709 169.25196 31.773438 C 171.75297 33.071504 176.08985 32.753907 176.08985 32.753907 C 173.91279 30.394949 173.51239 26.933368 169.14258 27.498047 L 172.14844 25.085938 L 104.30469 25.085938 C 104.30469 25.085938 106.37688 21.271485 123.08594 21.271485 L 148.47657 21.271485 C 164.46543 21.271485 160.31964 19.396025 168.56055 19.84961 C 174.54467 20.178959 178.87688 26.486248 183.19141 30.800782 C 186.30104 33.910408 193.11329 34.796876 193.11329 34.796876 C 189.20247 29.632006 192.11833 20.546788 181.08985 19.470704 L 185.96485 15.613282 L 123.79688 15.613282 z M 358.50782 15.613282 L 363.38282 19.470704 C 352.35434 20.546788 355.27025 29.632006 351.35938 34.796876 C 351.35938 34.796876 358.17164 33.910408 361.28126 30.800782 C 365.5958 26.486248 369.92799 20.178835 375.91212 19.84961 C 384.15304 19.396065 380.00724 21.271485 395.9961 21.271485 L 421.38673 21.271485 C 438.09579 21.271485 440.16798 25.085938 440.16798 25.085938 L 372.32423 25.085938 L 375.33009 27.498047 C 370.96023 26.933368 370.55993 30.394949 368.38282 32.753907 C 368.38282 32.753907 372.71971 33.071422 375.22071 31.773438 C 379.28783 29.662709 378.31426 27.404297 381.03516 27.404297 L 439.60548 27.404297 C 448.71488 27.996002 451.88644 34.559929 448.56056 43.777345 C 440.58876 41.199189 435.59834 49.368881 435.76173 55.32422 C 435.87523 59.45768 434.22266 65.021486 434.22266 65.021486 L 450.84767 48.126954 L 482.81642 56.833986 C 474.88208 49.135594 481.56108 42.643185 460.72852 37.335938 C 459.40506 43.323749 468.35632 48.934818 458.49806 46.490235 L 454.47462 45.361329 C 455.36939 42.295846 459.21754 15.613282 420.67579 15.613282 L 358.50782 15.613282 z M 452.2422 52.033204 C 451.84738 52.034391 451.46243 52.191877 451.17579 52.478517 L 428.88282 74.771486 L 428.84571 74.808595 C 428.82811 74.825795 428.81524 74.84086 428.79884 74.86133 C 428.77384 74.88713 428.75312 74.912738 428.72852 74.941408 C 428.70612 74.971288 428.68447 75.000445 428.66407 75.033205 C 428.64637 75.057775 428.62969 75.084806 428.61329 75.109376 C 428.59409 75.14459 428.57305 75.179938 428.55665 75.216798 C 428.54435 75.238908 428.53379 75.260588 428.52149 75.285158 C 428.50389 75.32897 428.48692 75.37293 428.47462 75.41797 C 428.46652 75.43844 428.46113 75.46 428.45313 75.48047 L 428.45118 75.482423 L 428.45118 75.484376 L 428.45118 75.48633 C 428.43478 75.548572 428.42207 75.611903 428.41407 75.675783 C 428.40477 75.743349 428.40165 75.810938 428.40235 75.878908 C 428.40235 75.915759 428.40326 75.951423 428.40626 75.988283 C 428.40626 76.020643 428.40716 76.053179 428.41016 76.085939 C 428.41416 76.098229 428.41498 76.110768 428.41798 76.123048 C 428.42608 76.172603 428.43888 76.221213 428.45118 76.269533 L 428.45509 76.294923 L 436.61524 106.77344 C 436.68404 107.03081 436.8175 107.26673 437.00587 107.45508 C 437.1942 107.64345 437.43036 107.77886 437.68751 107.84766 L 468.16798 116.01367 L 468.19142 116.01758 C 468.23972 116.02988 468.2883 116.03692 468.3379 116.04492 C 468.3502 116.04892 468.36271 116.04974 468.37501 116.05274 C 468.40691 116.05374 468.43997 116.05762 468.47267 116.0586 C 468.50913 116.0596 468.54514 116.06152 468.58204 116.0625 C 468.65001 116.0625 468.71797 116.05683 468.78517 116.04883 C 468.84906 116.04063 468.91242 116.02812 468.97462 116.01172 L 468.97657 116.01172 L 468.97852 116.01172 L 468.98048 116.00977 C 469.00128 116.00577 469.02258 115.99824 469.04298 115.99024 C 469.08807 115.97664 469.13199 115.95976 469.17579 115.94336 C 469.19879 115.93526 469.22375 115.92246 469.24415 115.91016 C 469.28096 115.89506 469.31477 115.87587 469.35157 115.85547 C 469.37697 115.83787 469.40314 115.82109 469.42774 115.80469 C 469.45924 115.78469 469.49084 115.76484 469.51954 115.74024 C 469.54704 115.71724 469.57502 115.69452 469.59962 115.66992 C 469.61682 115.65632 469.63791 115.63945 469.65431 115.62305 L 469.68556 115.58594 L 491.97853 93.292971 C 492.36282 92.910799 492.51031 92.354208 492.3711 91.832033 L 484.20704 61.359376 L 484.20704 61.35547 L 484.20509 61.351564 L 484.20118 61.332032 C 484.19718 61.311152 484.18965 61.290002 484.18165 61.269532 C 484.16775 61.228584 484.15508 61.189379 484.13868 61.148439 L 484.13868 61.144532 C 484.11488 61.088433 484.08535 61.0337 484.05665 60.98047 C 484.03575 60.945669 484.01484 60.909714 483.99024 60.876954 C 483.97254 60.852384 483.95586 60.829259 483.93946 60.804689 C 483.89976 60.752686 483.85686 60.700978 483.81056 60.654298 C 483.76388 60.608031 483.71462 60.566342 483.66212 60.525392 C 483.63842 60.507782 483.6125 60.490991 483.5879 60.474611 C 483.55473 60.450851 483.52324 60.428674 483.48634 60.408204 C 483.43311 60.377894 483.37878 60.350743 483.32228 60.326173 L 483.31642 60.326173 C 483.2767 60.308163 483.23632 60.297437 483.19532 60.285157 C 483.17492 60.276977 483.15518 60.271873 483.13478 60.263673 L 483.11329 60.259767 L 483.10938 60.257814 L 483.10548 60.257814 L 452.63282 52.093751 C 452.5022 52.058131 452.36973 52.040648 452.23829 52.041017 L 452.2422 52.033204 z M 92.226564 52.041017 C 92.09471 52.040607 91.962659 52.060991 91.832033 52.093751 L 61.361329 60.257814 L 61.357423 60.257814 L 61.351564 60.259767 L 61.332032 60.263673 C 61.311142 60.267763 61.290002 60.275004 61.269532 60.283204 C 61.228585 60.297134 61.189389 60.309793 61.148439 60.326173 L 61.144532 60.326173 C 61.088432 60.349923 61.0337 60.379534 60.98047 60.408204 C 60.945669 60.429504 60.909714 60.450041 60.876954 60.474611 C 60.852384 60.492221 60.829259 60.509022 60.804689 60.525392 C 60.752686 60.565109 60.702931 60.608028 60.656251 60.654298 C 60.609984 60.70098 60.568285 60.750326 60.527345 60.802736 C 60.509735 60.826496 60.492934 60.852384 60.476564 60.876954 C 60.452804 60.910125 60.428674 60.941657 60.408204 60.978517 C 60.377894 61.03134 60.352696 61.086479 60.328126 61.142579 L 60.328126 61.146486 C 60.314206 61.186203 60.297447 61.228172 60.285157 61.269532 C 60.276977 61.290002 60.271873 61.309609 60.263673 61.330079 L 60.259767 61.351564 L 60.257814 61.35547 L 60.257814 61.359376 L 52.093751 91.832033 C 51.954403 92.354208 52.10428 92.910922 52.486329 93.292971 L 74.779298 115.58594 L 74.812501 115.62305 C 74.829691 115.64065 74.846719 115.65157 74.867189 115.66797 C 74.892989 115.69297 74.916654 115.71564 74.945314 115.74024 C 74.975204 115.76274 75.006304 115.78429 75.039064 115.80469 C 75.063634 115.82229 75.088713 115.83712 75.113283 115.85352 C 75.148497 115.87272 75.185798 115.89376 75.222658 115.91016 C 75.244768 115.92246 75.264494 115.93106 75.289064 115.94336 C 75.332877 115.96086 75.376836 115.97794 75.421876 115.99024 C 75.442346 115.99834 75.463906 116.00177 75.484376 116.00977 L 75.48633 116.01172 L 75.488283 116.01172 L 75.490236 116.01172 C 75.552478 116.03232 75.615809 116.04474 75.679689 116.05274 C 75.747254 116.06204 75.814844 116.06515 75.882814 116.06446 C 75.919665 116.06446 75.955339 116.06355 75.992189 116.06055 C 76.024549 116.06055 76.057085 116.05964 76.089845 116.05664 C 76.102135 116.05264 76.114665 116.05183 76.126955 116.04883 C 76.1765 116.04473 76.225129 116.03183 76.273439 116.01953 L 76.29883 116.01563 L 106.77735 107.85156 C 107.03466 107.78277 107.27063 107.64735 107.45899 107.45899 C 107.64736 107.27066 107.78081 107.0345 107.84961 106.77735 L 116.01563 76.29883 L 116.01953 76.273439 C 116.03183 76.224704 116.04083 76.176505 116.04883 76.126955 C 116.05283 76.114665 116.05364 76.102135 116.05664 76.089845 C 116.05764 76.057905 116.05956 76.024949 116.06055 75.992189 C 116.06555 75.955748 116.06738 75.919674 116.06836 75.882814 C 116.06836 75.814839 116.06464 75.746849 116.05664 75.679689 C 116.04844 75.615399 116.03593 75.552476 116.01953 75.490236 L 116.01953 75.488283 L 116.01953 75.48633 L 116.01758 75.484376 C 116.01358 75.463496 116.00605 75.442346 115.99805 75.421876 C 115.98445 75.376824 115.96757 75.332874 115.95117 75.289064 C 115.94307 75.266134 115.93027 75.241175 115.91797 75.220705 C 115.89877 75.183851 115.88368 75.150143 115.86328 75.113283 C 115.84568 75.087903 115.8289 75.061681 115.8125 75.037111 C 115.7925 75.005581 115.76845 74.973984 115.74805 74.945314 C 115.72505 74.917874 115.70038 74.889806 115.67578 74.865236 C 115.66218 74.848036 115.64726 74.828881 115.63086 74.812501 L 115.59375 74.779298 L 93.300783 52.486329 C 93.014144 52.199812 92.62912 52.042217 92.234377 52.041017 L 92.226564 52.041017 z M 90.089846 55.697267 L 87.728517 64.507814 L 68.878908 61.380861 L 90.089846 55.697267 z M 454.38282 55.697267 L 475.59376 61.380861 L 456.74415 64.507814 L 454.38282 55.697267 z M 93.015627 56.48047 L 108.53906 72.005861 L 90.652346 65.291017 L 93.015627 56.48047 z M 451.45899 56.48047 L 453.82032 65.291017 L 435.9336 72.005861 L 451.45899 56.48047 z M 56.833986 61.656251 C 49.135594 69.590587 42.641232 62.911575 37.333985 83.744142 C 43.321795 85.067556 48.934817 76.116352 46.490235 85.974611 L 45.361329 89.998049 C 42.295846 89.103284 15.611328 85.255126 15.611328 123.79688 L 15.611328 185.96485 L 19.470704 181.08985 C 20.546788 192.11833 29.632007 189.20247 34.796876 193.11329 C 34.796876 193.11329 33.910407 186.30105 30.800782 183.19141 C 26.486248 178.87689 20.178836 174.54469 19.84961 168.56055 C 19.396066 160.31964 21.271485 164.46543 21.271485 148.47657 L 21.271485 123.08594 C 21.271485 106.37689 25.083985 104.30469 25.083985 104.30469 L 25.083985 172.14844 L 27.498047 169.14258 C 26.933368 173.51239 30.394948 173.91278 32.753907 176.08985 C 32.753907 176.08985 33.071422 171.75297 31.773438 169.25196 C 29.662709 165.18484 27.404297 166.1584 27.404297 163.4375 L 27.404297 104.86719 C 27.996002 95.757793 34.559931 92.586278 43.777345 95.912111 C 41.199191 103.88391 49.368881 108.87432 55.32422 108.71094 C 59.457679 108.59743 65.021486 110.25 65.021486 110.25 L 48.126954 93.625002 L 56.833986 61.656251 z M 487.63868 61.656251 L 496.34571 93.625002 L 479.45118 110.25 C 479.45118 110.25 485.01499 108.59752 489.14845 108.71094 C 495.10379 108.87449 503.27347 103.88391 500.69532 95.912111 C 509.91273 92.586278 516.47666 95.757874 517.06837 104.86719 L 517.06837 163.4375 C 517.06837 166.1584 514.80996 165.18484 512.69923 169.25196 C 511.40116 171.75297 511.71876 176.08985 511.71876 176.08985 C 514.07772 173.91278 517.53929 173.51239 516.97462 169.14258 L 519.38868 172.14844 L 519.38868 104.30469 C 519.38868 104.30469 523.20118 106.37689 523.20118 123.08594 L 523.20118 148.47657 C 523.20118 164.46543 525.07661 160.31964 524.62306 168.56055 C 524.29367 174.54469 517.98642 178.87689 513.67189 183.19141 C 510.56226 186.30105 509.67579 193.11329 509.67579 193.11329 C 514.84071 189.20247 523.92592 192.11833 525.00196 181.08985 L 528.86134 185.96485 L 528.86134 123.79688 C 528.86134 85.255126 502.17686 89.103284 499.11134 89.998049 L 497.98243 85.974611 C 495.53781 76.116352 501.15083 85.067556 507.13868 83.744142 C 501.83139 62.911575 495.33712 69.590587 487.63868 61.656251 z M 63.568361 63.568361 L 85.681642 67.238283 L 76.460939 76.460939 L 67.238283 85.681642 L 63.568361 63.568361 z M 480.90431 63.568361 L 477.23438 85.681642 L 468.01173 76.460939 L 458.79102 67.238283 L 480.90431 63.568361 z M 91.060549 68.679689 L 112.04688 76.556642 L 97.812502 93.875002 L 91.060549 68.679689 z M 453.41212 68.679689 L 446.66017 93.875002 L 432.42579 76.556642 L 453.41212 68.679689 z M 61.380861 68.878908 L 64.507814 87.728517 L 55.697267 90.089846 L 61.380861 68.878908 z M 483.09181 68.878908 L 488.7754 90.089846 L 479.96485 87.728517 L 483.09181 68.878908 z M 88.050783 69.152345 L 94.968752 94.968752 L 69.152345 88.050783 L 78.601564 78.601564 L 88.050783 69.152345 z M 456.42188 69.152345 L 465.8711 78.601564 L 475.32032 88.050783 L 449.50392 94.968752 L 456.42188 69.152345 z M 259.18751 74.750001 C 259.05992 74.76034 258.78557 74.825798 258.36719 74.945314 C 257.94537 75.022302 257.44247 75.148393 256.85743 75.32422 C 256.31146 75.454074 255.76713 75.604964 255.22461 75.777345 C 254.67865 75.907199 254.21766 76.030416 253.8418 76.146486 L 253.3379 76.251955 L 253.52735 78.61133 L 255.89649 79.318361 L 258.76563 114.72266 C 258.77597 114.85024 258.94428 115.07258 259.26954 115.38867 C 259.5948 115.70477 259.94035 115.99746 260.30469 116.26758 C 260.66903 116.5377 260.91344 116.66854 261.04102 116.65821 C 261.1686 116.64787 261.52629 116.55474 262.11133 116.37891 C 262.74235 116.24216 263.41433 116.0807 264.12696 115.89453 C 264.83958 115.70837 265.44774 115.55219 265.95118 115.42578 L 266.76368 115.16602 L 266.57227 112.80664 L 264.32618 112.02539 L 261.4629 76.685548 C 261.44911 76.515439 261.2808 76.293101 260.95899 76.019533 C 260.63373 75.703437 260.28817 75.410749 259.92383 75.140626 C 259.55949 74.870504 259.31509 74.739663 259.18751 74.750001 z M 111.28711 82.250002 L 105.60352 103.46094 L 99.152346 97.011721 L 111.28711 82.250002 z M 433.18556 82.250002 L 445.32032 97.011721 L 438.86915 103.46094 L 433.18556 82.250002 z M 210.89844 84.32422 C 210.83942 84.324923 210.79032 84.331732 210.75 84.345705 C 210.66938 84.373651 210.48993 84.571814 210.21094 84.939455 C 209.91798 85.266782 209.60511 85.668318 209.27344 86.144533 C 208.94178 86.620747 208.64392 87.06275 208.37891 87.470705 C 208.14024 87.824372 208.03456 88.040468 208.0625 88.121095 L 208.32227 89.45508 C 208.36419 89.576021 208.56791 89.775705 208.93555 90.054689 C 209.34351 90.3197 209.79823 90.589811 210.30079 90.867189 C 210.80334 91.144568 211.29297 91.383329 211.76758 91.58008 C 212.22822 91.736517 212.53992 91.786363 212.70118 91.730471 C 212.82212 91.688551 213.02736 91.50311 213.32032 91.175783 C 213.5993 90.808142 213.89194 90.414117 214.19727 89.992189 C 214.52894 89.515975 214.81407 89.099763 215.05274 88.746096 C 215.27744 88.352114 215.38833 88.088041 215.38672 87.953127 L 215.21094 86.660158 C 215.18139 86.444616 214.96265 86.204466 214.55469 85.939455 C 214.14674 85.674444 213.66983 85.409891 213.12696 85.146486 C 212.6244 84.869108 212.14423 84.652533 211.6836 84.496095 C 211.33812 84.378767 211.07552 84.322113 210.89844 84.32422 z M 281.07032 86.416017 C 280.64392 86.400853 279.97418 86.633453 279.06055 87.113283 C 278.14844 87.550474 277.14647 88.111867 276.05469 88.79883 C 275.00708 89.44467 274.02039 90.135427 273.09766 90.871096 C 272.21909 91.565641 271.60151 92.162567 271.24219 92.662111 C 270.78698 93.457101 270.3778 94.74514 270.01563 96.525393 C 269.65346 98.305645 269.4352 100.26059 269.35938 102.39258 C 269.25019 105.46264 269.67097 108.01813 270.62305 110.0586 C 271.61929 112.05793 272.91067 113.5769 274.4961 114.61524 C 276.08305 115.61094 277.74982 116.14095 279.49805 116.20313 C 279.79653 116.21374 280.31203 116.14673 281.04297 116.00196 C 281.81504 115.90133 282.6953 115.76035 283.6836 115.58203 C 284.6719 115.40371 285.66058 115.20534 286.6504 114.98438 C 287.64021 114.76342 288.52222 114.53714 289.29883 114.3086 L 289.39258 111.6875 C 288.75299 111.66475 288.00666 111.65957 287.15235 111.67188 L 284.58985 111.70899 C 283.73554 111.7213 282.98682 111.73597 282.34571 111.75586 L 281.13086 111.71289 C 280.53391 111.69166 279.77535 111.40832 278.85547 110.86328 C 277.9356 110.31824 277.1183 109.30713 276.40235 107.83008 C 275.82228 106.5589 275.52866 104.80733 275.52149 102.57422 L 290.6504 101.54883 C 290.79598 97.455418 290.54315 94.351456 289.89258 92.23633 C 289.24353 90.078564 288.1858 88.590125 286.72071 87.769533 C 285.29826 86.950458 283.4155 86.499424 281.07032 86.416017 z M 297.73829 88.398439 L 297.25977 90.718752 L 299.25977 92.11133 L 294.53907 114.98828 C 294.5132 115.11364 294.61242 115.37488 294.83594 115.76953 C 295.10125 116.1728 295.3706 116.55453 295.64454 116.91602 C 295.91847 117.2775 296.11879 117.47023 296.24415 117.4961 C 296.36951 117.52196 296.73679 117.53394 297.34766 117.5293 C 297.9917 117.57507 298.68174 117.60768 299.41797 117.62891 C 300.15421 117.65013 300.78211 117.67151 301.30079 117.69141 L 302.1543 117.67188 L 302.63282 115.35156 L 300.69532 113.97266 L 304.38282 96.107424 C 305.25436 95.895177 306.12146 95.705619 306.98438 95.535158 C 307.89771 95.331534 308.69257 95.168256 309.3711 95.046877 C 310.09142 94.934121 310.57741 94.903344 310.82813 94.95508 C 311.12064 95.015438 311.54129 95.190656 312.0918 95.478518 C 312.65094 95.724593 313.07414 96.311615 313.36133 97.242189 C 313.69894 98.1396 313.66194 99.591916 313.24805 101.59766 L 309.83399 118.14453 C 309.80812 118.26989 309.90539 118.52918 310.12891 118.92383 C 310.39422 119.3271 310.66553 119.71078 310.93946 120.07227 C 311.25518 120.44238 311.47426 120.64015 311.59962 120.66602 C 311.72497 120.69189 312.09421 120.70191 312.70508 120.69727 C 313.30734 120.73441 313.97666 120.76393 314.7129 120.78516 L 316.65821 120.85938 L 317.51173 120.83985 L 317.99024 118.52149 L 315.99024 117.12696 L 318.95118 102.77344 C 319.51165 100.05733 319.5757 97.84974 319.14258 96.148439 C 318.75125 94.455762 317.95197 93.158579 316.74415 92.255861 C 315.53632 91.353143 313.99172 90.706379 312.11133 90.318361 C 312.02776 90.301116 311.70128 90.407855 311.13087 90.638674 C 310.61086 90.836329 309.96851 91.096283 309.20508 91.417971 C 308.44165 91.739658 307.65369 92.078744 306.83985 92.433596 C 306.0678 92.797069 305.36774 93.131733 304.73829 93.437502 L 305.22852 91.054689 C 305.25439 90.92933 305.15517 90.670041 304.93165 90.275392 C 304.74991 89.889366 304.51889 89.536497 304.23633 89.216799 C 303.9624 88.855314 303.76208 88.660635 303.63672 88.634767 C 303.51137 88.6089 303.12337 88.593826 302.47071 88.589846 C 301.86846 88.552702 301.19913 88.525133 300.4629 88.503908 C 299.73528 88.440896 299.08667 88.414471 298.51758 88.427736 L 297.73829 88.398439 z M 240.10938 89.947267 C 238.75363 89.89527 237.28646 90.036446 235.70508 90.369142 C 235.32931 90.448199 234.75578 90.830129 233.98438 91.515627 C 233.2042 92.159372 232.3652 92.945605 231.47071 93.875002 C 230.60919 94.753862 229.82026 95.661645 229.10157 96.597658 C 228.41584 97.483135 227.95909 98.211901 227.73047 98.783205 C 227.47984 99.664346 227.39209 101.01107 227.46875 102.82617 C 227.53663 104.59952 227.76878 106.42582 228.16407 108.30469 C 229.14788 112.98099 230.95413 116.17626 233.58204 117.89063 C 236.2517 119.59621 239.73659 119.99656 244.03711 119.0918 C 244.41289 119.01274 244.96861 118.65645 245.70704 118.02149 C 246.48722 117.37774 247.30352 116.5964 248.15625 115.67578 C 249.05074 114.74639 249.84651 113.85935 250.54102 113.01563 C 251.22674 112.13015 251.69328 111.44288 251.93946 110.95508 C 252.06266 109.88274 252.08448 108.4401 252.00782 106.625 C 251.93116 104.8099 251.67847 102.87791 251.24805 100.83203 C 250.36086 96.615015 248.5947 93.608421 245.94922 91.810549 C 244.31641 90.655293 242.36896 90.033929 240.10938 89.947267 z M 280.42188 90.234377 C 282.25539 90.299586 283.42216 91.109321 283.92188 92.664064 C 284.42312 94.176168 284.62767 96.232964 284.53516 98.833986 L 275.60938 99.972658 C 275.7474 97.607689 276.0039 95.617073 276.38086 93.998049 C 276.8359 92.007631 277.36704 90.872952 277.97461 90.595705 C 278.45123 90.399188 278.88231 90.286806 279.26758 90.257814 C 279.6955 90.230339 280.08076 90.222245 280.42188 90.234377 z M 65.291017 90.652346 L 72.005861 108.53906 L 56.48047 93.013674 L 65.291017 90.652346 z M 479.18165 90.652346 L 487.9922 93.013674 L 472.46681 108.53906 L 479.18165 90.652346 z M 68.679689 91.060549 L 93.875002 97.812502 L 76.556642 112.04688 L 68.679689 91.060549 z M 475.79298 91.060549 L 467.91602 112.04688 L 450.59767 97.812502 L 475.79298 91.060549 z M 199.59375 91.078127 C 199.43454 91.077614 199.30514 91.102018 199.20508 91.152346 C 198.93827 91.286554 198.49186 91.583515 197.86329 92.042971 C 197.21554 92.46431 196.47092 92.981144 195.63282 93.593752 C 194.77554 94.168243 193.87238 94.790814 192.91993 95.460939 L 194.01172 97.632814 L 197.75977 96.822268 L 204.86133 123.92188 C 204.72091 123.68048 204.57827 123.43812 204.4336 123.19531 C 203.53294 121.59466 202.73859 120.20482 202.04883 119.02344 C 201.35908 117.84206 200.94648 117.16555 200.8125 116.99414 L 186.19922 98.337893 L 184.82813 99.029299 C 185.021 99.887489 185.23168 100.78433 185.46289 101.71875 C 185.67494 102.61506 185.92576 103.25383 186.21289 103.63477 L 204.84961 127.17383 L 200.75391 127.98438 L 181.28907 103.38867 C 181.04051 103.17938 180.72583 102.97896 180.34375 102.78906 C 179.98062 102.54188 179.62694 102.36171 179.28321 102.24805 C 179.01616 102.28685 178.63442 102.38327 178.13868 102.53711 C 177.66188 102.63366 177.13643 102.77852 176.56446 102.97071 C 175.99248 103.16289 175.39271 103.39347 174.76368 103.66211 C 174.15358 103.87347 173.55381 104.10405 172.96289 104.35352 L 173.3711 107.44336 L 176.66407 108.00781 L 196.8711 132.08789 C 197.06237 132.27825 197.40569 132.48706 197.90235 132.71485 C 198.37983 132.90451 198.86686 133.06489 199.36329 133.19727 C 199.89783 133.31047 200.24184 133.37582 200.39454 133.39453 C 200.83322 133.31716 201.43426 133.23005 202.19727 133.13282 C 202.97923 132.97829 203.75089 132.80593 204.51368 132.61328 C 205.27646 132.42064 205.82043 132.26566 206.14454 132.15039 C 206.58207 131.59599 206.99108 130.98516 207.3711 130.31641 C 207.77006 129.59037 208.12027 128.86449 208.42383 128.13867 C 208.76551 127.39369 209.04162 126.70635 209.25 126.07617 C 209.47733 125.38871 209.61769 124.81551 209.67383 124.35742 L 202.12696 91.974611 C 201.80194 91.708254 201.30502 91.480226 200.63672 91.291017 C 200.20706 91.148939 199.8591 91.078981 199.59375 91.078127 z M 237.87891 93.962892 C 238.78656 93.986536 239.62295 94.204484 240.39063 94.615236 C 241.61013 95.230688 242.63295 96.257828 243.45899 97.697268 C 244.318 99.08617 244.96705 100.82448 245.40625 102.91211 C 245.95087 105.50078 246.26438 107.6146 246.34766 109.25391 C 246.43094 110.89321 246.46963 112.21452 246.4629 113.21875 L 245.79102 113.75391 C 245.38445 114.10105 244.95614 114.45267 244.50782 114.8086 C 244.05949 115.16452 243.75589 115.38014 243.59766 115.45703 C 242.47034 115.6942 241.28644 115.65913 240.04493 115.35352 C 238.79463 115.00615 237.63125 114.14064 236.55469 112.75391 C 235.46935 111.32542 234.61586 109.1285 233.99219 106.16406 C 233.34217 103.07437 233.01073 100.57047 233 98.654299 C 233.03103 96.729341 233.28824 95.564667 233.76954 95.158205 C 234.14314 94.861601 234.53462 94.647173 234.94336 94.51758 C 235.34332 94.346234 235.75045 94.216749 236.16797 94.128908 C 236.76295 94.003735 237.33432 93.948706 237.87891 93.962892 z M 215.06836 96.158205 C 215.00847 96.156388 214.95829 96.16181 214.91797 96.175783 C 214.79703 96.217703 214.4756 96.39828 213.95313 96.714846 C 213.457 96.977124 212.90779 97.28049 212.30469 97.625002 C 211.70159 97.969514 211.18013 98.285602 210.73829 98.574221 L 210.11329 98.925783 L 210.89063 101.16406 L 213.23633 101.09571 L 220.88672 123.16602 C 220.92864 123.28696 221.17478 123.47357 221.62305 123.72461 C 222.11163 123.96168 222.61204 124.17074 223.12696 124.35352 C 223.64188 124.5363 223.96109 124.60833 224.08204 124.56641 C 224.20298 124.52449 224.50417 124.35142 224.98633 124.04883 C 225.52278 123.77258 226.09222 123.4617 226.69532 123.11719 C 227.29842 122.77268 227.80716 122.48433 228.22266 122.25 L 228.88672 121.81641 L 228.11133 119.57813 L 225.78516 119.70703 L 218.13477 97.636721 C 218.0649 97.435152 217.78546 97.215582 217.29688 96.978518 C 216.84861 96.72748 216.374 96.531138 215.87305 96.388674 C 215.51709 96.24111 215.24806 96.163656 215.06836 96.158205 z M 338.98829 98.498049 C 338.64746 98.495608 338.22648 98.525388 337.72462 98.587893 C 336.77582 98.687924 335.69586 98.898952 334.48243 99.218752 C 333.32393 99.513574 332.21769 99.850772 331.16407 100.23047 C 330.12542 100.57022 329.35674 100.91967 328.85743 101.2793 C 328.17338 101.88865 327.3689 103.00015 326.44532 104.61328 C 325.52174 106.22642 324.68624 108.03167 323.93751 110.0293 C 322.84435 112.94583 322.36481 115.49917 322.50001 117.69141 C 322.67515 119.89862 323.24865 121.70998 324.22266 123.12305 C 325.21165 124.49617 326.38576 125.43618 327.74415 125.94531 C 327.98386 126.03516 328.42611 126.13352 329.07032 126.23828 C 329.69956 126.383 330.44379 126.52438 331.30274 126.66407 C 332.17666 126.7638 333.07051 126.87162 333.98438 126.98633 C 334.91323 127.06108 335.78281 127.11275 336.5918 127.14258 L 337.53516 124.625 L 330.76173 122.08789 C 330.24234 121.89322 329.74885 121.38813 329.2793 120.57422 C 328.86468 119.73534 328.66496 118.56649 328.67969 117.06836 C 328.7094 115.53028 329.14385 113.64359 329.98243 111.40625 C 330.64131 109.64834 331.30655 108.05246 331.98048 106.61914 C 332.69435 105.2008 333.35858 104.03787 333.97266 103.12891 C 334.6267 102.23492 335.186 101.71521 335.6504 101.57031 C 335.8002 101.53533 335.9433 101.52042 336.07813 101.52539 C 336.25292 101.54534 336.42027 101.58463 336.58008 101.64453 C 337.17937 101.86915 337.79258 102.23684 338.42188 102.7461 C 339.10611 103.23038 339.6109 103.64659 339.93555 103.9961 L 339.22462 108.44531 L 342.88087 109.81641 L 345.93555 102.21289 C 344.97663 101.48896 343.93426 100.80135 342.81055 100.15235 C 341.70183 99.46339 340.68845 98.947935 339.76954 98.603518 C 339.58975 98.536131 339.32911 98.50049 338.98829 98.498049 z M 97.011721 99.152346 L 103.46094 105.60352 L 82.250002 111.28711 L 97.011721 99.152346 z M 447.46095 99.152346 L 462.22267 111.28711 L 441.01173 105.60352 L 447.46095 99.152346 z M 359.26759 108.42969 C 358.25625 108.41281 357.10991 108.46562 355.82618 108.5918 C 354.60033 108.70094 353.41018 108.87966 352.25587 109.125 C 351.15943 109.35331 350.33776 109.61037 349.79298 109.89649 C 349.03029 110.40397 348.08885 111.3724 346.96876 112.80274 C 345.84866 114.23307 344.7791 115.88482 343.75782 117.75781 C 342.28717 120.45492 341.52192 122.92886 341.46094 125.17969 C 341.45786 127.41348 341.93304 129.34858 342.88673 130.98633 C 343.86083 132.58662 345.11455 133.80708 346.6504 134.64453 C 346.91262 134.78751 347.40258 134.9569 348.1211 135.1543 C 348.85665 135.40958 349.70623 135.67845 350.66993 135.96094 C 351.63363 136.24343 352.60767 136.50692 353.5918 136.75196 C 354.57593 136.99699 355.46685 137.19108 356.26368 137.33399 L 357.51954 135.0293 C 356.95764 134.72291 356.29307 134.38473 355.52344 134.01367 L 353.21485 132.90039 C 352.44523 132.52934 351.76788 132.21033 351.18555 131.94141 L 350.11915 131.35938 C 349.59471 131.07342 349.04191 130.48092 348.4629 129.58203 C 347.88389 128.68315 347.60481 127.41278 347.62501 125.77149 C 347.67468 124.37509 348.19523 122.67634 349.18751 120.67578 L 363.17774 126.52539 C 365.13861 122.92925 366.30198 120.04019 366.66602 117.85742 C 367.05049 115.6372 366.77156 113.83254 365.82813 112.44336 C 364.92216 111.07461 363.4392 109.82849 361.37891 108.70508 C 361.00432 108.50082 360.29935 108.40911 359.26759 108.42969 z M 356.74024 111.06055 C 357.25443 111.09793 357.69127 111.18957 358.04884 111.33594 C 358.44386 111.50274 358.79017 111.66668 359.08985 111.83008 C 360.70062 112.70838 361.38117 113.95428 361.13282 115.56836 C 360.9049 117.14499 360.1698 119.07628 358.92384 121.36133 L 350.42969 118.38867 C 351.6108 116.33511 352.73175 114.66818 353.79298 113.38867 C 355.09012 111.81189 356.07282 111.03681 356.74024 111.06055 z M 152.46094 141.06446 C 152.17633 141.06446 149.45193 143.56479 146.40625 146.61914 L 140.86719 152.17188 L 142.76367 154.11328 C 143.80651 155.18124 144.99677 156.06232 145.40821 156.07032 C 145.81965 156.07854 146.916 157.11211 147.84375 158.36719 C 150.36133 161.77298 160.89169 172.39372 164.49024 175.15625 C 166.22246 176.48603 167.64615 177.73868 167.65625 177.93946 C 167.66599 178.14024 165.71703 180.72982 163.32422 183.69532 C 158.9378 189.13153 153.16797 197.23124 153.16797 197.95313 C 153.16797 198.16767 154.74059 199.9269 156.66211 201.86133 C 158.58365 203.79577 160.38849 205.37891 160.67383 205.37891 C 160.95916 205.37891 162.05243 204.02202 163.10352 202.36524 C 164.15463 200.70847 166.32029 197.6114 167.91602 195.48243 C 169.51176 193.35346 170.97309 191.39118 171.16407 191.1211 C 171.36564 190.83607 172.99448 192.09988 175.04493 194.13477 C 176.98785 196.06295 178.80918 197.64063 179.09375 197.64063 C 179.3783 197.64063 180.5626 196.49978 181.72461 195.10352 C 185.22767 190.89425 189.94465 186.11864 193.90821 182.76758 C 195.96937 181.02493 197.6543 179.36666 197.6543 179.08203 C 197.6543 178.7974 196.08958 176.98721 194.17579 175.06055 C 192.32178 173.1941 190.88444 171.58777 190.9043 171.40821 L 190.9043 171.40625 L 190.90625 171.4043 L 190.90625 171.40235 L 190.90625 171.40039 L 190.90821 171.40039 L 190.90821 171.39844 L 190.91016 171.39649 L 190.91211 171.39649 C 191.03071 171.30744 192.54082 170.13073 194.26954 168.78321 C 195.99825 167.43567 199.34127 165.07917 201.69727 163.54688 L 205.98047 160.76172 L 202.08204 156.86328 C 198.45201 153.23324 198.10901 153.00748 197.07422 153.56446 C 195.08248 154.63653 187.43355 160.24985 183.02539 163.875 C 180.65526 165.82414 178.54271 167.48295 178.33203 167.56055 C 178.12135 167.63818 176.5356 165.99219 174.80664 163.90235 C 170.79878 159.05797 164.68007 152.93937 159.84766 148.94141 C 157.76896 147.22165 156.06836 145.46405 156.06836 145.03516 C 156.06836 144.15767 153.25875 141.06446 152.46094 141.06446 z M 396.18555 141.06446 C 395.38001 141.06446 392.52735 144.11517 392.52735 144.97657 C 392.52735 145.42767 390.7322 147.30976 388.53712 149.15821 C 383.95197 153.01933 376.22462 160.81563 372.95313 164.88086 C 371.72248 166.41011 370.55177 167.66016 370.35352 167.66016 C 370.15527 167.66016 368.80875 166.61467 367.35938 165.33594 C 362.79492 161.30888 351.57119 153.1543 350.59376 153.1543 C 350.37346 153.1543 348.49153 154.86729 346.41016 156.96094 L 342.62501 160.76758 L 346.80665 163.49219 C 351.14184 166.318 357.37702 170.93452 357.59376 171.47852 C 357.66204 171.64988 356.19357 173.30315 354.33009 175.15235 C 352.46662 177.00156 350.94141 178.75862 350.94141 179.05664 C 350.94141 179.35465 352.62831 181.02493 354.68946 182.76758 C 358.65302 186.11864 363.36999 190.89425 366.87305 195.10352 C 368.03505 196.49978 369.21741 197.64063 369.50196 197.64063 C 369.78653 197.64063 371.60016 196.07252 373.53126 194.1543 C 375.697 192.00302 377.20762 190.84377 377.47266 191.13086 C 378.55601 192.30434 383.95848 199.88956 385.56251 202.48829 C 386.54357 204.07775 387.58271 205.37891 387.8711 205.37891 C 388.48117 205.37891 395.4297 198.5866 395.4297 197.99024 C 395.4297 197.01213 387.27687 185.79106 383.24805 181.22461 C 381.96932 179.77524 380.92936 178.36139 380.93946 178.08203 C 380.94918 177.80267 382.37521 176.48603 384.10743 175.15625 C 387.70597 172.39372 398.23632 161.77298 400.75391 158.36719 C 401.68166 157.11211 402.778 156.07832 403.18946 156.07032 C 403.6009 156.0621 404.79115 155.18124 405.83399 154.11328 L 407.72852 152.17188 L 402.19141 146.61914 C 399.14573 143.56479 396.44318 141.06446 396.18555 141.06446 z M 274.73633 157.34571 C 265.98194 157.33688 257.14583 158.20098 249.29688 159.93946 C 204.57763 169.84438 169.54541 204.93194 159.99219 249.38282 C 155.06664 272.30131 157.21812 297.2681 165.91993 318.19141 C 172.14249 333.15345 180.53389 345.77406 191.66993 356.91798 C 210.06937 375.33044 233.51009 386.76854 260.17579 390.34766 C 266.88396 391.24805 285.05495 390.97463 291.94922 389.86915 C 294.74175 389.42138 299.88534 388.32299 303.38087 387.42774 C 335.88035 379.10418 363.37101 357.10832 378.46876 327.34962 C 387.15477 310.22888 391.17445 293.45428 391.18555 274.28516 C 391.20387 242.6635 379.32336 213.94444 356.98048 191.60157 C 341.00391 175.62501 322.17065 165.23385 299.68555 159.99024 C 292.16431 158.23627 283.49073 157.35453 274.73633 157.34571 z M 277.44141 184.09375 L 280.22266 184.35938 C 289.35727 185.23508 296.96459 186.81969 304.2793 189.3711 C 309.70429 191.26335 320.47852 196.54836 320.47852 197.31641 C 320.47852 197.63076 310.79403 207.56954 298.95899 219.40235 L 277.44141 240.91602 L 277.44141 212.50391 L 277.44141 184.09375 z M 269.50586 184.26172 C 270.61367 184.26656 271.30051 184.40436 271.41407 184.70118 C 271.54249 185.03679 271.59244 197.82277 271.52344 213.11524 L 271.39649 240.91993 L 249.75782 219.42188 C 237.85628 207.59849 228.11915 197.65885 228.11915 197.33399 C 228.11915 196.56296 238.80817 191.29211 244.07618 189.46485 C 252.02439 186.70791 264.70536 184.24076 269.50586 184.26172 z M 351.5586 228.33008 C 351.68066 228.32819 351.76265 228.37877 351.82618 228.4629 C 353.08517 230.1301 357.70394 240.02022 359.11134 244.0625 C 361.67737 251.43257 363.44097 259.899 364.17188 268.36133 L 364.41212 271.14258 L 336.03907 271.14258 L 307.66797 271.14258 L 329.42579 249.37696 C 346.93902 231.85823 350.56469 228.34553 351.5586 228.33008 z M 196.99805 228.33399 C 197.92008 228.23983 201.41406 231.61354 219.17188 249.37696 L 240.92969 271.14258 L 212.63477 271.14258 L 184.3418 271.14258 L 184.67774 266.42774 C 185.39034 256.44144 188.60034 244.81672 193.32422 235.11719 C 194.87854 231.92572 196.43402 228.93097 196.78125 228.4629 C 196.83456 228.39104 196.90267 228.34373 196.99805 228.33399 z M 212.56055 277.06251 C 228.03277 276.99388 240.69141 277.10197 240.69141 277.30469 C 240.69141 277.50742 231.06069 287.30289 219.29102 299.07032 C 207.52137 310.83774 197.75759 320.46485 197.5918 320.46485 C 196.15868 320.46485 189.88497 306.52248 187.57032 298.19337 C 186.16208 293.126 184.69532 284.56889 184.55078 280.57227 L 184.42774 277.18555 L 212.56055 277.06251 z M 336.07227 277.06251 L 364.24024 277.18555 L 364.08399 280.33008 C 363.50408 292.00614 359.40949 306.07351 353.35548 317.19141 C 352.5255 318.71563 351.65951 320.07869 351.42969 320.22071 C 351.02895 320.46838 307.90626 277.89332 307.90626 277.25001 C 307.90626 277.07781 320.58034 276.99381 336.07227 277.06251 z M 277.44141 307.6543 L 299.17579 329.38477 L 320.91016 351.11524 L 319.36524 352.06837 C 315.93877 354.18099 306.87291 358.17551 301.86133 359.78126 C 295.90216 361.6906 291.24082 362.72495 285.19141 363.47657 C 282.93777 363.75659 280.27189 363.98438 279.26758 363.98438 L 277.44141 363.98438 L 277.44141 335.82032 L 277.44141 307.6543 z M 271.27344 307.89258 C 271.47401 307.89258 271.63868 320.514 271.63868 335.93946 L 271.63868 363.98438 L 268.85938 363.90821 C 258.3168 363.61479 245.94631 360.30423 234.45899 354.70118 L 227.50196 351.30665 L 249.20704 329.59962 C 261.14389 317.66055 271.07286 307.89258 271.27344 307.89258 z M 178.87305 350.55469 L 170.22461 359.32423 C 164.83784 364.78678 160.69077 369.45479 159.23047 371.69923 C 154.46538 379.02304 151.93783 386.12564 150.57617 396.01954 L 150.32617 397.83399 L 152.10938 397.82618 C 154.69227 397.81521 162.09917 396.16908 165.75 394.79493 C 174.36551 391.55205 179.59864 387.86248 189.79688 377.8379 C 194.11866 373.5897 197.6543 369.94949 197.6543 369.74805 C 197.6543 369.54662 193.4288 365.14596 188.26368 359.96876 L 178.87305 350.55469 z M 369.75196 350.56251 L 360.34766 359.9668 C 355.17517 365.13929 350.94141 369.54258 350.94141 369.75196 C 350.94141 370.57379 366.93761 385.74576 370.32032 388.13282 C 376.54775 392.5273 382.81613 395.29671 390.10938 396.87305 C 392.37001 397.36166 395.16038 397.77708 396.3086 397.79688 C 398.07276 397.82733 398.35853 397.70338 398.16016 396.98829 C 398.03104 396.52286 397.77759 394.83718 397.59571 393.24415 C 397.15335 389.36944 395.26926 382.99428 393.31641 378.76759 C 390.37187 372.39453 387.29594 368.3928 378.37696 359.32813 L 369.75196 350.56251 z M 34.796876 351.35938 C 29.632007 355.27025 20.546788 352.35433 19.470704 363.38282 L 15.611328 358.50782 L 15.611328 420.67579 C 15.611328 459.21754 42.295846 455.36939 45.361329 454.47462 L 46.490235 458.49806 C 48.934817 468.35632 43.321795 459.40506 37.333985 460.72852 C 42.641232 481.56108 49.135594 474.88208 56.833986 482.81642 L 48.126954 450.84767 L 65.021486 434.22266 C 65.021486 434.22266 59.457679 435.87515 55.32422 435.76173 C 49.368881 435.59821 41.199191 440.58876 43.777345 448.56056 C 34.559931 451.88644 27.996002 448.71484 27.404297 439.60548 L 27.404297 381.03516 C 27.404297 378.31425 29.662709 379.28783 31.773438 375.22071 C 33.071503 372.7197 32.753907 368.38282 32.753907 368.38282 C 30.394948 370.55993 26.933368 370.96023 27.498047 375.33009 L 25.083985 372.32423 L 25.083985 440.16798 C 25.083985 440.16798 21.271485 438.09579 21.271485 421.38673 L 21.271485 395.9961 C 21.271485 380.00724 19.396024 384.15304 19.84961 375.91212 C 20.178958 369.92799 26.486248 365.5958 30.800782 361.28126 C 33.910407 358.17164 34.796876 351.35938 34.796876 351.35938 z M 509.67579 351.35938 C 509.67579 351.35938 510.56226 358.17164 513.67189 361.28126 C 517.98642 365.5958 524.29383 369.92994 524.62306 375.91407 C 525.07661 384.15499 523.20118 380.00724 523.20118 395.9961 L 523.20118 421.38868 C 523.20118 438.09774 519.38868 440.16798 519.38868 440.16798 L 519.38868 372.32423 L 516.97462 375.33009 C 517.53929 370.96024 514.07772 370.55993 511.71876 368.38282 C 511.71876 368.38282 511.40125 372.71971 512.69923 375.22071 C 514.80996 379.28784 517.06837 378.31427 517.06837 381.03516 L 517.06837 439.60548 C 516.47666 448.71488 509.91273 451.88644 500.69532 448.56056 C 503.27347 440.58876 495.10379 435.59834 489.14845 435.76173 C 485.01499 435.87523 479.45118 434.22266 479.45118 434.22266 L 496.34571 450.84767 L 487.63868 482.81642 C 495.33712 474.88208 501.83139 481.56108 507.13868 460.72852 C 501.15083 459.40506 495.53781 468.35632 497.98243 458.49806 L 499.11134 454.47462 C 502.17686 455.36939 528.86134 459.21754 528.86134 420.67579 L 528.86134 358.50782 L 525.00196 363.38282 C 523.92592 352.35433 514.84071 355.27025 509.67579 351.35938 z M 336.78907 392.27149 C 336.74006 392.27278 336.69919 392.28002 336.66993 392.29298 C 336.55289 392.3448 336.31653 392.49533 335.96094 392.7461 C 335.58809 392.95786 335.15453 393.24269 334.66016 393.60157 C 334.18754 393.90416 333.72489 394.22676 333.26954 394.56837 C 332.79691 394.87096 332.40251 395.13956 332.08594 395.37305 L 331.64258 395.63868 L 332.60157 397.8047 L 335.07032 397.68946 L 349.45313 430.16798 C 349.50496 430.28502 349.7352 430.43968 350.14649 430.63087 C 350.55778 430.82205 350.98104 430.9862 351.41407 431.1211 C 351.8471 431.256 352.12125 431.29597 352.23829 431.24415 C 352.35533 431.19233 352.66189 430.9878 353.15626 430.62891 C 353.70691 430.29177 354.28704 429.91853 354.89844 429.50782 C 355.50985 429.09712 356.03319 428.74822 356.4668 428.4629 L 357.14844 427.95118 L 356.19141 425.78516 L 353.81251 425.78907 L 339.45704 393.36915 C 339.38794 393.2131 339.15574 393.05843 338.76173 392.90626 C 338.35044 392.71507 337.92913 392.55287 337.4961 392.41798 C 337.17133 392.3168 336.9361 392.26763 336.78907 392.27149 z M 208.47852 392.2793 C 208.34936 392.27458 208.11453 392.30051 207.77344 392.35938 C 207.33594 392.39886 206.83496 392.47963 206.26758 392.60157 C 205.70021 392.72351 205.17911 392.84345 204.70704 392.96095 C 204.29126 393.05672 204.06582 393.14269 204.03125 393.22071 L 203.3125 394.37305 C 203.26065 394.49008 203.27308 394.77569 203.35157 395.23048 C 203.46907 395.70255 203.61669 396.21217 203.79493 396.75782 C 203.97316 397.30347 204.17001 397.80972 204.38282 398.27735 C 204.6129 398.70597 204.80491 398.95431 204.96094 399.02345 C 205.07797 399.0753 205.35547 399.08246 205.79297 399.04298 C 206.24776 398.96449 206.73111 398.87366 207.24219 398.77345 C 207.80957 398.65151 208.30102 398.54305 208.7168 398.44727 C 209.14986 398.31249 209.41109 398.19545 209.50196 398.09571 L 210.25586 397.0293 C 210.3813 396.85155 210.38508 396.52677 210.26758 396.0547 C 210.15008 395.58262 209.98287 395.0649 209.76563 394.50196 C 209.5874 393.95631 209.38243 393.46965 209.15235 393.04102 C 208.92226 392.6124 208.7283 392.36212 208.57227 392.29298 C 208.55277 392.28433 208.52157 392.28088 208.47852 392.2793 z M 326.01368 396.64649 C 325.96471 396.64417 325.92663 396.6494 325.89649 396.66016 C 325.77595 396.70323 325.52934 396.83665 325.15626 397.06055 C 324.76882 397.24428 324.31438 397.49687 323.79493 397.81837 C 323.3013 398.08533 322.81521 398.37255 322.33594 398.6797 C 321.84232 398.94666 321.42862 399.18499 321.09571 399.39454 L 320.63477 399.62696 L 321.43165 401.85548 L 323.90235 401.92384 L 335.85352 435.37501 C 335.89659 435.49555 336.11563 435.66577 336.51173 435.88673 C 336.90782 436.10768 337.31637 436.30038 337.73829 436.46681 C 338.16021 436.63323 338.4322 436.69542 338.55274 436.65235 C 338.67328 436.60929 338.99228 436.42698 339.51173 436.10548 C 340.08571 435.8098 340.694 435.47981 341.33399 435.11524 C 341.97398 434.75068 342.52117 434.44207 342.97462 434.18946 L 343.69337 433.72852 L 342.89649 431.49806 L 340.52344 431.32618 L 328.59571 397.93751 C 328.53829 397.77679 328.31924 397.60656 327.93751 397.42579 C 327.54141 397.20483 327.13091 397.01018 326.70899 396.84376 C 326.39255 396.71894 326.16059 396.65347 326.01368 396.64649 z M 314.35938 399.91407 C 314.30043 399.91099 314.25012 399.91638 314.20899 399.92774 C 314.12674 399.95047 313.93477 400.13536 313.63282 400.48438 C 313.3195 400.79228 312.98258 401.17296 312.6211 401.62696 C 312.25962 402.08096 311.93317 402.50439 311.64258 402.89454 C 311.38176 403.2322 311.26244 403.44119 311.28516 403.52345 L 311.45899 404.8711 C 311.49308 404.99448 311.68419 405.20587 312.03321 405.50782 C 312.42336 405.79841 312.85999 406.09922 313.34376 406.40821 C 313.82752 406.7172 314.30069 406.98421 314.76172 407.21095 C 315.2114 407.39656 315.51714 407.46734 315.68165 407.42188 C 315.80502 407.38779 316.02458 407.21611 316.3379 406.90821 C 316.63985 406.55919 316.9554 406.18472 317.28712 405.78321 C 317.64859 405.32921 317.95988 404.93337 318.22071 404.59571 C 318.47017 404.21693 318.59844 403.95897 318.60548 403.82423 L 318.51173 402.52345 C 318.49604 402.30645 318.2925 402.05232 317.90235 401.76173 C 317.5122 401.47114 317.05614 401.17654 316.53126 400.87891 C 316.04749 400.56992 315.58054 400.32234 315.13087 400.13673 C 314.79361 399.99752 314.53623 399.92331 314.35938 399.91407 z M 198.16211 402.52149 L 197.20313 404.68555 L 198.96485 406.23634 L 189.50196 427.59376 C 189.4501 427.71078 189.5017 428.01456 189.65821 428.50391 C 189.85372 429.01056 190.07827 429.50533 190.33008 429.99024 C 190.58189 430.47516 190.76579 430.74503 190.88282 430.79688 C 190.99984 430.84874 191.33752 430.92749 191.89649 431.03516 C 192.47718 431.19913 193.10526 431.36196 193.78125 431.52149 C 194.45725 431.68102 195.02853 431.81563 195.49219 431.92774 L 196.27149 432.06446 L 197.23047 429.89845 L 195.44141 428.40626 L 204.90625 407.04884 C 204.99268 406.85379 204.93771 406.50274 204.74219 405.9961 C 204.58568 405.50675 204.37262 405.03967 204.10352 404.59376 C 203.89072 404.12613 203.70682 403.85821 203.55079 403.78907 C 203.43376 403.73722 203.0765 403.6484 202.47852 403.52345 C 201.93684 403.37676 201.32639 403.22399 200.65039 403.06446 C 199.9744 402.90493 199.37739 402.77985 198.85743 402.68946 L 198.16211 402.52149 z M 291.29102 405.07032 C 291.27981 405.07096 291.26835 405.07252 291.25782 405.07423 C 291.13147 405.09474 290.86451 405.18137 290.45704 405.33399 C 290.08484 405.43766 289.61402 405.60018 289.04493 405.82227 C 288.51111 405.99541 287.93934 406.19686 287.32813 406.42579 C 286.71008 406.61261 286.11597 406.81698 285.54688 407.03907 L 285.92774 409.37696 L 288.34571 409.89259 L 294.04883 445.01563 C 294.06935 445.14198 294.254 445.34963 294.60352 445.63868 C 294.9462 445.88561 295.31053 446.12906 295.69532 446.36915 C 296.08011 446.60924 296.3346 446.71974 296.46094 446.69923 C 296.67152 446.66503 296.98121 446.5706 297.38868 446.41798 C 297.80299 446.30747 298.37476 446.10798 299.10547 445.81642 C 299.8783 445.51801 300.85974 445.16282 302.04688 444.75392 L 301.66602 442.41798 L 299.36524 441.81837 L 296.63087 424.98634 C 297.27866 424.39517 297.90143 423.82889 298.4961 423.28712 C 299.39743 422.44914 300.17373 421.78242 300.82813 421.28712 C 301.47569 420.7497 301.88428 420.46682 302.05274 420.43946 C 302.55812 420.35739 303.10191 420.37639 303.6836 420.49806 C 304.30057 420.57077 304.84261 420.85 305.31055 421.33595 C 305.81377 421.77293 306.1513 422.5194 306.32227 423.57227 C 306.54112 424.91995 306.33712 426.05524 305.70899 426.97852 C 305.07402 427.8597 304.22399 428.62357 303.16212 429.27149 C 302.14236 429.91257 301.11743 430.51152 300.08399 431.06837 L 300.42188 433.15235 L 309.5254 442.50196 C 309.6791 442.6499 309.95212 442.86624 310.34376 443.14845 C 310.77066 443.3817 311.17283 443.59695 311.55079 443.79493 C 311.9777 444.02818 312.23414 444.13673 312.31837 444.12306 C 312.44471 444.10254 312.66895 444.02372 312.99219 443.88477 C 313.36439 443.78111 313.79249 443.62444 314.27735 443.41602 C 314.76905 443.24973 315.2826 443.08135 315.81641 442.90821 C 316.34339 442.69296 316.84913 442.47991 317.33399 442.27149 L 316.95508 439.93556 L 314.26368 439.33399 L 306.28712 431.7461 C 307.26476 431.11186 308.23613 430.30613 309.20118 429.32813 C 310.16623 428.35013 310.91109 427.21346 311.43555 425.91798 C 312.00213 424.61565 312.16223 423.2056 311.91602 421.68946 C 311.53987 419.37314 310.50538 417.66105 308.81251 416.55274 C 307.16175 415.43759 304.77862 415.13454 301.66212 415.64063 C 301.57789 415.65431 301.33531 415.88754 300.9336 416.34181 C 300.56716 416.74712 300.11606 417.29609 299.58008 417.98829 C 299.03727 418.63837 298.45908 419.33796 297.84571 420.08595 C 297.2255 420.79182 296.66477 421.46614 296.16407 422.10938 L 295.84766 422.16016 L 293.68165 406.82032 C 293.65429 406.65186 293.46964 406.44421 293.12696 406.19727 C 292.77744 405.90823 292.41019 405.6444 292.0254 405.4043 C 291.70414 405.17281 291.45916 405.06075 291.29102 405.07032 z M 216.00586 408.87305 C 215.74276 408.88648 215.42877 408.93282 215.06446 409.01368 C 214.3763 409.1889 213.59389 409.44613 212.7168 409.78321 C 211.89369 410.09332 211.0712 410.46904 210.24805 410.91407 C 209.47888 411.33214 208.85106 411.73172 208.36524 412.10938 C 208.12229 412.43314 207.88577 412.87071 207.65625 413.42384 C 207.44024 413.93649 207.2439 414.45627 207.06836 414.98243 C 206.71729 416.03475 206.60947 417.03207 206.74414 417.97657 C 206.9193 418.93458 207.35122 419.93357 208.03907 420.97266 C 208.78089 421.98479 209.79281 423.20016 211.07422 424.6172 C 212.27472 425.8723 213.21231 426.90513 213.88672 427.71485 C 214.56113 428.52457 214.99097 429.25272 215.17969 429.9004 C 215.38192 430.50761 215.35617 431.19585 215.09961 431.96485 C 214.95108 432.41006 214.6604 432.87572 214.22852 433.36134 C 213.85061 433.81998 213.45953 434.18339 213.05469 434.45313 C 212.64985 434.72288 212.32488 434.81735 212.08204 434.73634 C 211.71777 434.61481 211.19193 434.37229 210.50391 434.00782 C 209.81589 433.64335 209.10134 433.22439 208.35938 432.75196 C 207.61742 432.27954 206.95702 431.83444 206.37696 431.41602 L 206.64063 426.37696 L 203.58399 425.42384 L 200.54688 434.12696 C 201.2484 434.45096 202.11141 434.82775 203.13672 435.25977 C 204.14853 435.73227 205.2082 436.19918 206.31446 436.65821 C 207.42071 437.11724 208.41215 437.51403 209.28907 437.85157 C 210.16598 438.18911 210.80621 438.42553 211.21094 438.56056 C 211.69663 438.72259 212.33068 438.71018 213.11329 438.52149 C 213.94987 438.30583 214.82052 437.98835 215.72461 437.57032 C 216.64221 437.11182 217.49875 436.63379 218.29493 436.13477 C 219.09111 435.63576 219.71889 435.16993 220.17774 434.73829 C 220.58265 434.1987 220.89337 433.67282 221.10938 433.16016 C 221.32539 432.64751 221.50169 432.18795 221.63672 431.78321 C 221.94729 430.85232 221.92673 429.90124 221.57618 428.9297 C 221.23913 427.91768 220.69283 426.92673 219.9375 425.95509 C 219.22266 424.99694 218.45366 424.06632 217.63086 423.16212 C 216.84854 422.27142 216.16789 421.48124 215.58789 420.79298 C 215.04837 420.11822 214.50225 419.46437 213.94922 418.83009 C 213.43667 418.2093 213.04507 417.56142 212.77539 416.88673 C 212.51922 416.17156 212.51884 415.42916 212.77539 414.66016 C 212.99144 414.01259 213.2219 413.52689 213.46485 413.20313 C 213.70779 412.87938 213.95652 412.67056 214.21289 412.57618 C 214.46927 412.4818 214.72005 412.47368 214.96289 412.5547 C 215.16526 412.62221 215.55662 412.79855 216.13672 413.08204 C 216.7573 413.37903 217.4116 413.70975 218.09961 414.07423 C 218.84161 414.41173 219.49591 414.74245 220.0625 415.06641 C 220.6426 415.3499 220.99988 415.55841 221.13477 415.69337 L 220.48633 419.05274 L 223.88477 420.18751 L 226.53907 412.84181 C 225.95897 412.55831 225.21036 412.24167 224.29297 411.89063 C 223.38908 411.49912 222.4378 411.11438 221.43946 410.73634 C 220.44112 410.35829 219.50388 409.99965 218.62696 409.66212 C 217.79051 409.33808 217.12827 409.09564 216.64258 408.9336 C 216.48069 408.87959 216.26897 408.85963 216.00586 408.87305 z M 317.67969 411.99024 C 317.6545 411.99167 317.6319 411.99628 317.61133 412.00196 C 317.48796 412.03605 317.15496 412.19411 316.61329 412.47657 C 316.10138 412.70654 315.53409 412.97412 314.91016 413.27931 C 314.28624 413.58449 313.74458 413.86527 313.28516 414.12501 L 312.64063 414.43751 L 313.27149 416.71876 L 315.61719 416.80079 L 321.83985 439.31837 C 321.87394 439.44175 322.10584 439.64266 322.53712 439.92188 C 323.00951 440.18975 323.49784 440.43112 324.00001 440.64649 C 324.50217 440.86187 324.81413 440.95207 324.93751 440.91798 C 325.06088 440.88389 325.37251 440.73204 325.87305 440.46095 C 326.42609 440.21961 327.01476 439.94582 327.63868 439.64063 C 328.2626 439.33545 328.7891 439.0803 329.21876 438.87306 L 329.90821 438.48243 L 329.27735 436.19923 L 326.94727 436.1797 L 320.72657 413.66407 C 320.66975 413.45844 320.406 413.221 319.9336 412.95313 C 319.50233 412.67391 319.04159 412.4477 318.55079 412.27345 C 318.14738 412.07505 317.85607 411.98024 317.67969 411.99024 z M 239.25 415.41798 L 237.79688 419.1504 L 238.47071 420.28516 C 239.53227 420.39777 240.65393 420.5395 241.83594 420.7129 C 243.02415 420.84408 244.10328 420.98258 245.07422 421.12501 C 246.04517 421.26744 246.7403 421.39001 247.15625 421.49415 C 248.24146 421.73959 248.98704 422.23659 249.39454 422.98634 C 249.84425 423.74228 249.96608 424.81786 249.76172 426.21095 L 249.16602 430.27345 L 235.70899 430.29493 C 234.93953 431.13077 234.3479 432.07825 233.9336 433.13868 C 233.56151 434.2053 233.30455 435.22438 233.16211 436.19532 C 232.93298 437.75727 233.04442 439.19656 233.49805 440.51368 C 233.95169 441.8308 234.75876 442.94033 235.91993 443.84376 C 237.1295 444.71117 238.70656 445.28741 240.64844 445.57227 C 240.8173 445.59705 241.32174 445.39046 242.16211 444.95313 C 243.00249 444.51581 244.00861 443.97345 245.18165 443.32618 C 246.02195 442.8829 246.8417 442.4466 247.63868 442.01759 L 247.28711 444.41212 C 247.26234 444.58098 247.35094 444.8517 247.55469 445.22657 C 247.80065 445.60764 248.07444 445.95108 248.375 446.25392 C 248.66938 446.59896 248.87922 446.78026 249.00586 446.79884 C 249.17472 446.82361 249.56425 446.81535 250.17383 446.7754 C 250.77723 446.77767 251.49151 446.75433 252.31836 446.70313 C 253.18124 446.70034 254.04891 446.67587 254.91797 446.63087 L 255.26172 444.28712 L 253.1836 443.01368 L 255.71094 425.78907 C 255.80383 425.15585 255.65812 424.37956 255.2754 423.46095 C 254.94108 422.50631 254.45276 421.57372 253.81055 420.66016 C 253.21675 419.71059 252.55947 418.90084 251.8379 418.23438 C 251.16473 417.53191 250.51571 417.11363 249.88868 416.97852 C 248.80348 416.73308 247.73311 416.53373 246.67774 416.37891 C 245.62856 416.18188 244.50853 416.01791 243.32032 415.88673 C 242.1383 415.71333 240.78213 415.55648 239.25 415.41798 z M 277.63477 418.19337 C 276.73788 418.17822 276.03325 418.17961 275.52149 418.19532 C 275.18032 418.2058 274.69628 418.41295 274.06836 418.81641 C 273.4831 419.21857 272.83752 419.72835 272.13086 420.34766 C 271.46554 420.92302 270.82188 421.56169 270.20313 422.26368 C 269.62572 422.92171 269.17507 423.51098 268.84961 424.03321 C 268.73346 424.42096 268.66299 424.91532 268.63868 425.51368 C 268.61306 426.0694 268.60993 426.62334 268.62696 427.17774 C 268.66101 428.28655 268.90282 429.26174 269.35547 430.10157 C 269.85078 430.9401 270.60103 431.72733 271.60547 432.46485 C 272.65125 433.15841 274.02087 433.9488 275.7129 434.83595 C 277.27305 435.59909 278.50928 436.24459 279.42188 436.77149 C 280.33448 437.2984 280.99174 437.83239 281.39258 438.37501 C 281.79212 438.87498 282.00442 439.53152 282.0293 440.34181 C 282.04371 440.81092 281.93091 441.34822 281.69336 441.95313 C 281.49716 442.51409 281.2555 442.98984 280.96876 443.38282 C 280.68202 443.77581 280.41213 443.97653 280.15626 443.98438 C 279.77244 443.99617 279.19345 443.95008 278.42188 443.84571 C 277.65031 443.74134 276.83605 443.59525 275.97657 443.40821 C 275.11709 443.22117 274.34124 443.03213 273.65235 442.83985 L 272.16016 438.01954 L 268.96485 438.18165 L 269.11915 447.39649 C 269.8894 447.45821 270.82998 447.51517 271.94141 447.56642 C 273.05415 447.66031 274.20953 447.73068 275.40626 447.77931 C 276.60298 447.82793 277.66985 447.85922 278.60938 447.87306 C 279.54891 447.88689 280.23174 447.8881 280.65821 447.87501 C 281.16997 447.85929 281.76044 447.62712 282.42969 447.1797 C 283.14028 446.68832 283.8487 446.09134 284.55274 445.38673 C 285.25547 444.63947 285.89397 443.89373 286.46876 443.1504 C 287.04354 442.40707 287.47241 441.75303 287.75391 441.18946 C 287.9475 440.54322 288.05642 439.94244 288.08204 439.38673 C 288.10766 438.83101 288.11466 438.34054 288.10157 437.91407 C 288.07145 436.9332 287.72318 436.04651 287.0586 435.25587 C 286.39271 434.42258 285.53862 433.68022 284.49415 433.02931 C 283.49232 432.37708 282.44779 431.7694 281.36329 431.20509 C 280.32143 430.63947 279.409 430.135 278.62696 429.68946 C 277.88756 429.24261 277.1502 428.81632 276.41211 428.41212 C 275.71667 428.00661 275.12481 427.53415 274.63868 426.99415 C 274.15123 426.4115 273.89598 425.71459 273.8711 424.90431 C 273.85015 424.22196 273.89752 423.68658 274.01368 423.29884 C 274.12983 422.91109 274.29201 422.62831 274.50001 422.45118 C 274.708 422.27405 274.93944 422.18169 275.19532 422.17384 C 275.40855 422.16729 275.8362 422.19803 276.47852 422.26368 C 277.16349 422.32802 277.8925 422.41127 278.66407 422.51563 C 279.47697 422.57604 280.20403 422.66124 280.84766 422.76954 C 281.48998 422.83519 281.89907 422.90823 282.07227 422.98829 L 282.62305 426.36524 L 286.20508 426.25391 L 286.15821 418.44337 C 285.51589 418.37772 284.70289 418.33871 283.72071 418.32618 C 282.73722 418.27101 281.71201 418.23843 280.64454 418.22852 C 279.57706 418.21862 278.57431 418.2072 277.63477 418.19337 z M 468.59571 428.39063 C 468.55885 428.39063 468.52324 428.39154 468.48634 428.39454 C 468.45394 428.39454 468.42138 428.39545 468.38868 428.39845 C 468.37638 428.40245 468.36387 428.40326 468.35157 428.40626 C 468.30207 428.41436 468.25339 428.42716 468.20509 428.43946 L 468.18165 428.44337 L 437.70118 436.60938 C 437.44387 436.67777 437.20791 436.8136 437.01954 437.00196 C 436.83119 437.19028 436.69771 437.42644 436.62891 437.6836 L 428.4629 468.16212 L 428.45899 468.18751 C 428.44269 468.23622 428.43379 468.28449 428.42579 468.33399 C 428.42179 468.34629 428.42098 468.3588 428.41798 468.3711 C 428.41698 468.403 428.41507 468.43606 428.41407 468.46876 C 428.41307 468.50561 428.41116 468.54123 428.41016 468.57813 C 428.41016 468.6461 428.41388 468.71406 428.42188 468.78126 C 428.43008 468.84554 428.44259 468.90851 428.45899 468.97071 L 428.45899 468.97267 L 428.45899 468.97462 L 428.46095 468.97657 C 428.46495 468.99737 428.47248 469.01867 428.48048 469.03907 C 428.49408 469.08417 428.51095 469.12808 428.52735 469.17188 C 428.53965 469.19488 428.55216 469.21984 428.56446 469.24024 C 428.58366 469.27704 428.6007 469.31077 428.6211 469.34767 C 428.6387 469.37307 428.65353 469.39924 428.66993 469.42384 C 428.69003 469.45534 428.71398 469.48693 428.73438 469.51563 C 428.75738 469.54313 428.78205 469.57111 428.80665 469.59571 C 428.82025 469.61291 428.83517 469.634 428.85157 469.6504 L 428.88868 469.68556 L 451.18165 491.97853 C 451.46829 492.26505 451.85332 492.42284 452.24806 492.42384 C 452.37991 492.42424 452.51196 492.408 452.64259 492.3711 L 483.11524 484.20704 L 483.11915 484.20704 L 483.12306 484.20509 L 483.14454 484.20118 C 483.16534 484.19718 483.18469 484.18965 483.20509 484.18165 C 483.2461 484.16775 483.28713 484.15508 483.32813 484.13868 L 483.33204 484.13868 C 483.38814 484.11488 483.4428 484.08535 483.4961 484.05665 C 483.53127 484.03575 483.56497 484.01484 483.59767 483.99024 C 483.62267 483.97264 483.64728 483.95586 483.67188 483.93946 C 483.72382 483.89977 483.77362 483.85686 483.82032 483.81056 C 483.86652 483.76387 483.90823 483.71462 483.94923 483.66212 C 483.96683 483.63832 483.98361 483.6125 484.00001 483.5879 C 484.02381 483.55473 484.04602 483.52314 484.06642 483.48634 C 484.09682 483.43351 484.12385 483.37878 484.14845 483.32228 L 484.14845 483.31837 C 484.16645 483.27865 484.17912 483.23672 484.19142 483.19532 C 484.19952 483.17492 484.20295 483.15518 484.21095 483.13478 L 484.21485 483.11329 L 484.21681 483.10938 L 484.21681 483.10548 L 492.38087 452.63282 C 492.52025 452.11064 492.37033 451.55392 491.98829 451.17188 L 469.69727 428.87891 L 469.66017 428.84181 C 469.64287 428.82421 469.62188 428.81328 469.60548 428.79688 C 469.57968 428.77188 469.5541 428.74922 469.5254 428.72462 C 469.4954 428.70222 469.4663 428.68056 469.4336 428.66016 C 469.409 428.64256 469.38203 428.62774 469.35743 428.61134 C 469.32223 428.59214 469.28691 428.5711 469.25001 428.5547 C 469.22781 428.5425 469.20625 428.52989 469.18165 428.51759 C 469.13777 428.49999 469.09384 428.48301 469.04884 428.47071 C 469.02844 428.46261 469.00674 428.45918 468.98634 428.45118 L 468.98438 428.44923 L 468.98243 428.44923 L 468.98048 428.44923 C 468.91824 428.43273 468.85492 428.42012 468.79102 428.41212 C 468.72346 428.40282 468.6559 428.39969 468.5879 428.4004 L 468.59571 428.39063 z M 75.884767 428.4004 L 75.884767 428.40626 C 75.816793 428.40626 75.748802 428.41193 75.681642 428.41993 C 75.617353 428.42813 75.552476 428.44064 75.490236 428.45704 L 75.488283 428.45704 L 75.48633 428.45704 L 75.484376 428.45899 C 75.463486 428.46299 75.4443 428.47052 75.42383 428.47852 C 75.378778 428.49212 75.332874 428.509 75.289064 428.5254 C 75.266534 428.5376 75.243128 428.55021 75.222658 428.56251 C 75.185804 428.58171 75.150143 428.5968 75.113283 428.6172 C 75.087903 428.6348 75.063634 428.65158 75.039064 428.66798 C 75.007534 428.68798 74.973974 428.71203 74.945314 428.73243 C 74.917874 428.75543 74.891759 428.7801 74.867189 428.8047 C 74.849989 428.8183 74.828881 428.83322 74.812501 428.84962 L 74.779298 428.88673 L 52.486329 451.1797 C 52.102243 451.56188 51.956478 452.11845 52.095704 452.64063 L 60.259767 483.11329 C 60.259726 483.11429 60.259726 483.11622 60.259767 483.1172 L 60.26172 483.1211 L 60.265626 483.14259 C 60.273816 483.16339 60.276957 483.18273 60.285157 483.20313 C 60.299077 483.24405 60.311746 483.28323 60.328126 483.32423 L 60.328126 483.32813 C 60.351866 483.38423 60.381497 483.44085 60.410157 483.49415 C 60.431047 483.52932 60.451994 483.56301 60.476564 483.59571 C 60.494174 483.62071 60.510965 483.64533 60.527345 483.66993 C 60.567062 483.72187 60.609981 483.77167 60.656251 483.81837 C 60.702933 483.86456 60.752279 483.90628 60.804689 483.94728 C 60.828449 483.96488 60.854337 483.98166 60.878907 483.99806 C 60.912078 484.02186 60.94361 484.04406 60.98047 484.06446 C 61.033293 484.09476 61.088022 484.12189 61.144532 484.14649 L 61.148439 484.14649 C 61.188157 484.16039 61.230536 484.17716 61.271486 484.18946 C 61.291956 484.19756 61.311562 484.20099 61.332032 484.20899 L 61.353517 484.2129 L 61.357423 484.21485 L 61.361329 484.21485 L 91.832033 492.37892 C 91.962659 492.41462 92.095119 492.43206 92.226564 492.43165 C 92.621388 492.43067 93.008285 492.27298 93.294924 491.98634 L 115.58789 469.69337 L 115.62305 469.65626 C 115.64065 469.63906 115.65352 469.61992 115.66992 469.60352 C 115.69492 469.57772 115.71759 469.55215 115.74219 469.52345 C 115.76459 469.49355 115.78624 469.46435 115.80664 469.43165 C 115.82434 469.40705 115.83907 469.38008 115.85547 469.35548 C 115.87467 469.32028 115.89571 469.28496 115.91211 469.24806 C 115.92441 469.22586 115.93301 469.2043 115.94531 469.1797 C 115.96291 469.1359 115.97989 469.09188 115.99219 469.04688 C 116.00039 469.02648 116.00372 469.00478 116.01172 468.98438 L 116.01367 468.98243 L 116.01367 468.98048 L 116.01367 468.97852 C 116.03427 468.91628 116.04669 468.85287 116.05469 468.78907 C 116.06399 468.7215 116.0671 468.65395 116.06641 468.58595 C 116.06641 468.5491 116.0655 468.51347 116.0625 468.47657 C 116.0625 468.44407 116.0616 468.41162 116.0586 468.37892 C 116.0546 468.36662 116.05378 468.35411 116.05078 468.34181 C 116.04668 468.2923 116.03379 468.24362 116.02149 468.19532 L 116.01758 468.16993 L 107.85156 437.69141 C 107.78277 437.43404 107.64929 437.20008 107.46094 437.01173 C 107.27261 436.82336 107.03645 436.68795 106.7793 436.61915 L 76.29883 428.45313 L 76.275392 428.44923 C 76.227067 428.43293 76.178448 428.42402 76.128908 428.41602 C 76.116618 428.41202 76.104088 428.41121 76.091798 428.40821 C 76.059858 428.40721 76.026902 428.40529 75.994142 428.40431 C 75.9577 428.40331 75.921627 428.40138 75.884767 428.4004 z M 76.556642 432.42579 L 93.875002 446.66017 L 68.679689 453.41212 L 76.556642 432.42579 z M 467.91602 432.42579 L 475.79298 453.41212 L 450.59767 446.66017 L 467.91602 432.42579 z M 248.75391 433.09181 L 247.85352 439.23438 L 247.85157 439.23438 C 247.2042 439.43995 246.54831 439.65205 245.88282 439.8711 C 244.84376 440.19303 243.94103 440.47069 243.17383 440.70313 C 242.41283 440.89336 241.92592 440.97433 241.71485 440.94337 C 240.27954 440.73282 239.4012 440.25886 239.07813 439.52149 C 238.75506 438.78413 238.68174 437.80236 238.86133 436.57813 C 238.95422 435.94491 239.08669 435.3384 239.25782 434.75977 C 239.37871 434.33652 239.50279 433.96291 239.62891 433.64063 L 248.75391 433.09181 z M 82.250002 433.18556 L 103.46094 438.86915 L 97.011721 445.32032 L 82.250002 433.18556 z M 462.22267 433.18556 L 447.46095 445.32032 L 441.01173 438.86915 L 462.22267 433.18556 z M 72.005861 435.9336 L 65.291017 453.82032 L 56.48047 451.45704 L 72.005861 435.9336 z M 472.46681 435.9336 L 487.9922 451.45704 L 479.18165 453.82032 L 472.46681 435.9336 z M 105.60352 441.01173 L 111.28711 462.22071 L 99.152346 447.46095 L 105.60352 441.01173 z M 438.86915 441.01173 L 445.32032 447.46095 L 433.18556 462.22071 L 438.86915 441.01173 z M 94.968752 449.50392 L 88.050783 475.32032 L 78.601564 465.8711 L 69.152345 456.42188 L 94.968752 449.50392 z M 449.50392 449.50392 L 475.32032 456.42188 L 465.8711 465.8711 L 456.42188 475.32032 L 449.50392 449.50392 z M 97.812502 450.59767 L 112.04688 467.91602 L 91.060549 475.79298 L 97.812502 450.59767 z M 446.66017 450.59767 L 453.41212 475.79298 L 432.42579 467.91602 L 446.66017 450.59767 z M 55.697267 454.38282 L 64.507814 456.74415 L 61.380861 475.59376 L 55.697267 454.38282 z M 488.7754 454.38282 L 483.09181 475.59376 L 479.96485 456.74415 L 488.7754 454.38282 z M 67.238283 458.79102 L 76.460939 468.01173 L 85.681642 477.23438 L 63.568361 480.90431 L 67.238283 458.79102 z M 477.23438 458.79102 L 480.90431 480.90431 L 458.79102 477.23438 L 468.01173 468.01173 L 477.23438 458.79102 z M 108.53906 472.46681 L 93.015627 487.9922 L 90.652346 479.18165 L 108.53906 472.46681 z M 435.9336 472.46681 L 453.82032 479.18165 L 451.45899 487.9922 L 435.9336 472.46681 z M 110.25 479.45118 L 93.625002 496.34571 L 61.656251 487.63868 C 69.590587 495.33712 62.911534 501.83139 83.744142 507.13868 C 85.067554 501.15083 76.116352 495.53785 85.974611 497.98243 L 89.998049 499.11134 C 89.103285 502.17686 85.255134 528.85939 123.79688 528.85939 L 185.96485 528.85939 L 181.08985 525.00196 C 192.11833 523.92592 189.20247 514.84071 193.11329 509.67579 C 193.11329 509.67579 186.30104 510.56226 183.19141 513.67189 C 178.87688 517.98642 174.54467 524.29384 168.56055 524.62306 C 160.31964 525.07661 164.46543 523.20118 148.47657 523.20118 L 123.08594 523.20118 C 106.37688 523.20118 104.30469 519.38673 104.30469 519.38673 L 172.14844 519.38673 L 169.14258 516.97462 C 173.51239 517.53929 173.91279 514.07772 176.08985 511.71876 C 176.08985 511.71876 171.75297 511.40124 169.25196 512.69923 C 165.18484 514.80996 166.1584 517.06837 163.4375 517.06837 L 104.86719 517.06837 C 95.757801 516.47665 92.586278 509.91273 95.912111 500.69532 C 103.88392 503.27347 108.87432 495.10379 108.71094 489.14845 C 108.59742 485.01499 110.25 479.45118 110.25 479.45118 z M 434.22266 479.45118 C 434.22266 479.45118 435.87515 485.01499 435.76173 489.14845 C 435.59822 495.10379 440.58876 503.27347 448.56056 500.69532 C 451.88644 509.91273 448.71484 516.47665 439.60548 517.06837 L 381.03516 517.06837 C 378.31426 517.06837 379.28783 514.80996 375.22071 512.69923 C 372.71971 511.40116 368.38282 511.71876 368.38282 511.71876 C 370.55993 514.07772 370.96023 517.53929 375.33009 516.97462 L 372.32423 519.38673 L 440.16798 519.38673 C 440.16798 519.38673 438.09579 523.20118 421.38673 523.20118 L 395.9961 523.20118 C 380.00724 523.20118 384.15304 525.07661 375.91212 524.62306 C 369.92799 524.29368 365.5958 517.98642 361.28126 513.67189 C 358.17164 510.56226 351.35938 509.67579 351.35938 509.67579 C 355.27025 514.84071 352.35434 523.92592 363.38282 525.00196 L 358.50782 528.85939 L 420.67579 528.85939 C 459.21754 528.85939 455.36939 502.17686 454.47462 499.11134 L 458.49806 497.98243 C 468.35632 495.53785 459.40506 501.15083 460.72852 507.13868 C 481.56108 501.83139 474.88208 495.33712 482.81642 487.63868 L 450.84767 496.34571 L 434.22266 479.45118 z M 87.728517 479.96485 L 90.089846 488.7754 L 68.878908 483.09181 L 87.728517 479.96485 z M 456.74415 479.96485 L 475.59376 483.09181 L 454.38282 488.7754 L 456.74415 479.96485 z " /></svg>
