<?xml version="1.0" encoding="UTF-8" standalone="no"?>
<svg
   viewBox="0 0 548.0315 548.03151"
   width="145mm"
   height="145mm"
   version="1.1"
   id="svg65"
   sodipodi:docname="monk lid.svg"
   inkscape:version="1.4.2 (f4327f4, 2025-05-13)"
   xml:space="preserve"
   xmlns:inkscape="http://www.inkscape.org/namespaces/inkscape"
   xmlns:sodipodi="http://sodipodi.sourceforge.net/DTD/sodipodi-0.dtd"
   xmlns="http://www.w3.org/2000/svg"
   xmlns:svg="http://www.w3.org/2000/svg"><sodipodi:namedview
     id="namedview65"
     pagecolor="#ffffff"
     bordercolor="#666666"
     borderopacity="1.0"
     inkscape:showpageshadow="2"
     inkscape:pageopacity="0.0"
     inkscape:pagecheckerboard="0"
     inkscape:deskcolor="#d1d1d1"
     inkscape:zoom="1.4205836"
     inkscape:cx="422.36163"
     inkscape:cy="283.68623"
     inkscape:window-width="933"
     inkscape:window-height="1046"
     inkscape:window-x="2390"
     inkscape:window-y="162"
     inkscape:window-maximized="0"
     inkscape:current-layer="svg65"
     inkscape:document-units="mm" /><desc
     id="desc1">outline.dxf - scale = 1.000000, origin = (0.000000, 0.000000), method = manual</desc><defs
     id="defs4"><marker
       id="DistanceX"
       orient="auto"
       refX="0"
       refY="0"
       style="overflow:visible"><path
         d="M 3,-3 -3,3 M 0,-5 V 5"
         style="stroke:#000000;stroke-width:0.5"
         id="path1" /></marker><pattern
       id="Hatch"
       patternUnits="userSpaceOnUse"
       width="8"
       height="8"
       x="0"
       y="0"><path
         d="M8 4 l-4,4"
         stroke="#000000"
         stroke-width="0.25"
         linecap="square"
         id="path2" /><path
         d="M6 2 l-4,4"
         stroke="#000000"
         stroke-width="0.25"
         linecap="square"
         id="path3" /><path
         d="M4 0 l-4,4"
         stroke="#000000"
         stroke-width="0.25"
         linecap="square"
         id="path4" /></pattern><symbol
       id="*MODEL_SPACE" /><symbol
       id="*PAPER_SPACE" /></defs><path
     id="outline"
     style="display:inline;opacity:1;fill:#000000;fill-opacity:1;stroke:none;stroke-width:1;stroke-linecap:round;stroke-dasharray:none;stroke-opacity:1;paint-order:fill markers stroke"
     inkscape:label="outline"
     d="M -25.984376 -25.984376 L -25.984376 574.01564 L 574.01564 574.01564 L 574.01564 -25.984376 L -25.984376 -25.984376 z M 120.47852 0.49414063 L 427.55274 0.49414063 C 444.66376 0.49413963 461.07452 7.2913084 473.17384 19.390625 L 528.63673 74.851564 L 528.63673 74.853517 C 540.73605 86.952837 547.53321 103.36164 547.53321 120.47266 L 547.53321 427.55079 C 547.53321 444.66181 540.73605 461.07256 528.63673 473.17188 L 473.17384 528.63868 C 461.07451 540.73797 444.66375 547.53519 427.55274 547.53517 L 120.47852 547.53517 L 120.47852 547.53126 C 103.36799 547.53129 86.958606 540.73343 74.859376 528.63478 L 74.857423 528.63478 L 19.394532 473.16993 C 7.2963196 461.07117 0.49856488 444.66257 0.49804688 427.55274 L 0.49804688 120.47461 C 0.49804588 103.36359 7.2952146 86.952837 19.394532 74.853517 L 74.857423 19.392579 L 74.857423 19.390625 C 86.956743 7.2913084 103.3675 0.49413963 120.47852 0.49414063 z M 123.79688 15.613282 C 85.255134 15.613282 89.103285 42.295846 89.998049 45.361329 L 85.974611 46.490235 C 76.116352 48.934818 85.067554 43.323749 83.744142 37.335938 C 62.911534 42.643185 69.590587 49.135594 61.656251 56.833986 L 93.625002 48.126954 L 110.25 65.021486 C 110.25 65.021486 108.59751 59.45768 108.71094 55.32422 C 108.87448 49.368881 103.88392 41.199189 95.912111 43.777345 C 92.586278 34.559929 95.757882 27.996002 104.86719 27.404297 L 163.4375 27.404297 C 166.1584 27.404297 165.18484 29.662709 169.25196 31.773438 C 171.75297 33.071504 176.08985 32.753907 176.08985 32.753907 C 173.91279 30.394949 173.51239 26.933368 169.14258 27.498047 L 172.14844 25.085938 L 104.30469 25.085938 C 104.30469 25.085938 106.37688 21.271485 123.08594 21.271485 L 148.47657 21.271485 C 164.46543 21.271485 160.31964 19.396025 168.56055 19.84961 C 174.54467 20.178959 178.87688 26.486248 183.19141 30.800782 C 186.30104 33.910408 193.11329 34.796876 193.11329 34.796876 C 189.20247 29.632006 192.11833 20.546788 181.08985 19.470704 L 185.96485 15.613282 L 123.79688 15.613282 z M 358.50782 15.613282 L 363.38282 19.470704 C 352.35434 20.546788 355.27025 29.632006 351.35938 34.796876 C 351.35938 34.796876 358.17164 33.910408 361.28126 30.800782 C 365.5958 26.486248 369.92799 20.178835 375.91212 19.84961 C 384.15304 19.396065 380.00724 21.271485 395.9961 21.271485 L 421.38673 21.271485 C 438.09579 21.271485 440.16798 25.085938 440.16798 25.085938 L 372.32423 25.085938 L 375.33009 27.498047 C 370.96023 26.933368 370.55993 30.394949 368.38282 32.753907 C 368.38282 32.753907 372.71971 33.071422 375.22071 31.773438 C 379.28783 29.662709 378.31426 27.404297 381.03516 27.404297 L 439.60548 27.404297 C 448.71488 27.996002 451.88644 34.559929 448.56056 43.777345 C 440.58876 41.199189 435.59834 49.368881 435.76173 55.32422 C 435.87523 59.45768 434.22266 65.021486 434.22266 65.021486 L 450.84767 48.126954 L 482.81642 56.833986 C 474.88208 49.135594 481.56108 42.643185 460.72852 37.335938 C 459.40506 43.323749 468.35632 48.934818 458.49806 46.490235 L 454.47462 45.361329 C 455.36939 42.295846 459.21754 15.613282 420.67579 15.613282 L 358.50782 15.613282 z M 452.2422 52.033204 C 451.84738 52.034391 451.46243 52.191877 451.17579 52.478517 L 428.88282 74.771486 L 428.84571 74.808595 C 428.82811 74.825795 428.81524 74.84086 428.79884 74.86133 C 428.77384 74.88713 428.75312 74.912738 428.72852 74.941408 C 428.70612 74.971288 428.68447 75.000445 428.66407 75.033205 C 428.64637 75.057775 428.62969 75.084806 428.61329 75.109376 C 428.59409 75.14459 428.57305 75.179938 428.55665 75.216798 C 428.54435 75.238908 428.53379 75.260588 428.52149 75.285158 C 428.50389 75.32897 428.48692 75.37293 428.47462 75.41797 C 428.46652 75.43844 428.46113 75.46 428.45313 75.48047 L 428.45118 75.482423 L 428.45118 75.484376 L 428.45118 75.48633 C 428.43478 75.548572 428.42207 75.611903 428.41407 75.675783 C 428.40477 75.743349 428.40165 75.810938 428.40235 75.878908 C 428.40235 75.915759 428.40326 75.951423 428.40626 75.988283 C 428.40626 76.020643 428.40716 76.053179 428.41016 76.085939 C 428.41416 76.098229 428.41498 76.110768 428.41798 76.123048 C 428.42608 76.172603 428.43888 76.221213 428.45118 76.269533 L 428.45509 76.294923 L 436.61524 106.77344 C 436.68404 107.03081 436.8175 107.26673 437.00587 107.45508 C 437.1942 107.64345 437.43036 107.77886 437.68751 107.84766 L 468.16798 116.01367 L 468.19142 116.01758 C 468.23972 116.02988 468.2883 116.03692 468.3379 116.04492 C 468.3502 116.04892 468.36271 116.04974 468.37501 116.05274 C 468.40691 116.05374 468.43997 116.05762 468.47267 116.0586 C 468.50913 116.0596 468.54514 116.06152 468.58204 116.0625 C 468.65001 116.0625 468.71797 116.05683 468.78517 116.04883 C 468.84906 116.04063 468.91242 116.02812 468.97462 116.01172 L 468.97657 116.01172 L 468.97852 116.01172 L 468.98048 116.00977 C 469.00128 116.00577 469.02258 115.99824 469.04298 115.99024 C 469.08807 115.97664 469.13199 115.95976 469.17579 115.94336 C 469.19879 115.93526 469.22375 115.92246 469.24415 115.91016 C 469.28096 115.89506 469.31477 115.87587 469.35157 115.85547 C 469.37697 115.83787 469.40314 115.82109 469.42774 115.80469 C 469.45924 115.78469 469.49084 115.76484 469.51954 115.74024 C 469.54704 115.71724 469.57502 115.69452 469.59962 115.66992 C 469.61682 115.65632 469.63791 115.63945 469.65431 115.62305 L 469.68556 115.58594 L 491.97853 93.292971 C 492.36282 92.910799 492.51031 92.354208 492.3711 91.832033 L 484.20704 61.359376 L 484.20704 61.35547 L 484.20509 61.351564 L 484.20118 61.332032 C 484.19718 61.311152 484.18965 61.290002 484.18165 61.269532 C 484.16775 61.228584 484.15508 61.189379 484.13868 61.148439 L 484.13868 61.144532 C 484.11488 61.088433 484.08535 61.0337 484.05665 60.98047 C 484.03575 60.945669 484.01484 60.909714 483.99024 60.876954 C 483.97254 60.852384 483.95586 60.829259 483.93946 60.804689 C 483.89976 60.752686 483.85686 60.700978 483.81056 60.654298 C 483.76388 60.608031 483.71462 60.566342 483.66212 60.525392 C 483.63842 60.507782 483.6125 60.490991 483.5879 60.474611 C 483.55473 60.450851 483.52324 60.428674 483.48634 60.408204 C 483.43311 60.377894 483.37878 60.350743 483.32228 60.326173 L 483.31642 60.326173 C 483.2767 60.308163 483.23632 60.297437 483.19532 60.285157 C 483.17492 60.276977 483.15518 60.271873 483.13478 60.263673 L 483.11329 60.259767 L 483.10938 60.257814 L 483.10548 60.257814 L 452.63282 52.093751 C 452.5022 52.058131 452.36973 52.040648 452.23829 52.041017 L 452.2422 52.033204 z M 92.226564 52.041017 C 92.09471 52.040607 91.962659 52.060991 91.832033 52.093751 L 61.361329 60.257814 L 61.357423 60.257814 L 61.351564 60.259767 L 61.332032 60.263673 C 61.311142 60.267763 61.290002 60.275004 61.269532 60.283204 C 61.228585 60.297134 61.189389 60.309793 61.148439 60.326173 L 61.144532 60.326173 C 61.088432 60.349923 61.0337 60.379534 60.98047 60.408204 C 60.945669 60.429504 60.909714 60.450041 60.876954 60.474611 C 60.852384 60.492221 60.829259 60.509022 60.804689 60.525392 C 60.752686 60.565109 60.702931 60.608028 60.656251 60.654298 C 60.609984 60.70098 60.568285 60.750326 60.527345 60.802736 C 60.509735 60.826496 60.492934 60.852384 60.476564 60.876954 C 60.452804 60.910125 60.428674 60.941657 60.408204 60.978517 C 60.377894 61.03134 60.352696 61.086479 60.328126 61.142579 L 60.328126 61.146486 C 60.314206 61.186203 60.297447 61.228172 60.285157 61.269532 C 60.276977 61.290002 60.271873 61.309609 60.263673 61.330079 L 60.259767 61.351564 L 60.257814 61.35547 L 60.257814 61.359376 L 52.093751 91.832033 C 51.954403 92.354208 52.10428 92.910922 52.486329 93.292971 L 74.779298 115.58594 L 74.812501 115.62305 C 74.829691 115.64065 74.846719 115.65157 74.867189 115.66797 C 74.892989 115.69297 74.916654 115.71564 74.945314 115.74024 C 74.975204 115.76274 75.006304 115.78429 75.039064 115.80469 C 75.063634 115.82229 75.088713 115.83712 75.113283 115.85352 C 75.148497 115.87272 75.185798 115.89376 75.222658 115.91016 C 75.244768 115.92246 75.264494 115.93106 75.289064 115.94336 C 75.332877 115.96086 75.376836 115.97794 75.421876 115.99024 C 75.442346 115.99834 75.463906 116.00177 75.484376 116.00977 L 75.48633 116.01172 L 75.488283 116.01172 L 75.490236 116.01172 C 75.552478 116.03232 75.615809 116.04474 75.679689 116.05274 C 75.747254 116.06204 75.814844 116.06515 75.882814 116.06446 C 75.919665 116.06446 75.955339 116.06355 75.992189 116.06055 C 76.024549 116.06055 76.057085 116.05964 76.089845 116.05664 C 76.102135 116.05264 76.114665 116.05183 76.126955 116.04883 C 76.1765 116.04473 76.225129 116.03183 76.273439 116.01953 L 76.29883 116.01563 L 106.77735 107.85156 C 107.03466 107.78277 107.27063 107.64735 107.45899 107.45899 C 107.64736 107.27066 107.78081 107.0345 107.84961 106.77735 L 116.01563 76.29883 L 116.01953 76.273439 C 116.03183 76.224704 116.04083 76.176505 116.04883 76.126955 C 116.05283 76.114665 116.05364 76.102135 116.05664 76.089845 C 116.05764 76.057905 116.05956 76.024949 116.06055 75.992189 C 116.06555 75.955748 116.06738 75.919674 116.06836 75.882814 C 116.06836 75.814839 116.06464 75.746849 116.05664 75.679689 C 116.04844 75.615399 116.03593 75.552476 116.01953 75.490236 L 116.01953 75.488283 L 116.01953 75.48633 L 116.01758 75.484376 C 116.01358 75.463496 116.00605 75.442346 115.99805 75.421876 C 115.98445 75.376824 115.96757 75.332874 115.95117 75.289064 C 115.94307 75.266134 115.93027 75.241175 115.91797 75.220705 C 115.89877 75.183851 115.88368 75.150143 115.86328 75.113283 C 115.84568 75.087903 115.8289 75.061681 115.8125 75.037111 C 115.7925 75.005581 115.76845 74.973984 115.74805 74.945314 C 115.72505 74.917874 115.70038 74.889806 115.67578 74.865236 C 115.66218 74.848036 115.64726 74.828881 115.63086 74.812501 L 115.59375 74.779298 L 93.300783 52.486329 C 93.014144 52.199812 92.62912 52.042217 92.234377 52.041017 L 92.226564 52.041017 z M 90.089846 55.697267 L 87.728517 64.507814 L 68.878908 61.380861 L 90.089846 55.697267 z M 454.38282 55.697267 L 475.59376 61.380861 L 456.74415 64.507814 L 454.38282 55.697267 z M 93.015627 56.48047 L 108.53906 72.005861 L 90.652346 65.291017 L 93.015627 56.48047 z M 451.45899 56.48047 L 453.82032 65.291017 L 435.9336 72.005861 L 451.45899 56.48047 z M 56.833986 61.656251 C 49.135594 69.590587 42.641232 62.911575 37.333985 83.744142 C 43.321795 85.067556 48.934817 76.116352 46.490235 85.974611 L 45.361329 89.998049 C 42.295846 89.103284 15.611328 85.255126 15.611328 123.79688 L 15.611328 185.96485 L 19.470704 181.08985 C 20.546788 192.11833 29.632007 189.20247 34.796876 193.11329 C 34.796876 193.11329 33.910407 186.30105 30.800782 183.19141 C 26.486248 178.87689 20.178836 174.54469 19.84961 168.56055 C 19.396066 160.31964 21.271485 164.46543 21.271485 148.47657 L 21.271485 123.08594 C 21.271485 106.37689 25.083985 104.30469 25.083985 104.30469 L 25.083985 172.14844 L 27.498047 169.14258 C 26.933368 173.51239 30.394948 173.91278 32.753907 176.08985 C 32.753907 176.08985 33.071422 171.75297 31.773438 169.25196 C 29.662709 165.18484 27.404297 166.1584 27.404297 163.4375 L 27.404297 104.86719 C 27.996002 95.757793 34.559931 92.586278 43.777345 95.912111 C 41.199191 103.88391 49.368881 108.87432 55.32422 108.71094 C 59.457679 108.59743 65.021486 110.25 65.021486 110.25 L 48.126954 93.625002 L 56.833986 61.656251 z M 487.63868 61.656251 L 496.34571 93.625002 L 479.45118 110.25 C 479.45118 110.25 485.01499 108.59752 489.14845 108.71094 C 495.10379 108.87449 503.27347 103.88391 500.69532 95.912111 C 509.91273 92.586278 516.47666 95.757874 517.06837 104.86719 L 517.06837 163.4375 C 517.06837 166.1584 514.80996 165.18484 512.69923 169.25196 C 511.40116 171.75297 511.71876 176.08985 511.71876 176.08985 C 514.07772 173.91278 517.53929 173.51239 516.97462 169.14258 L 519.38868 172.14844 L 519.38868 104.30469 C 519.38868 104.30469 523.20118 106.37689 523.20118 123.08594 L 523.20118 148.47657 C 523.20118 164.46543 525.07661 160.31964 524.62306 168.56055 C 524.29367 174.54469 517.98642 178.87689 513.67189 183.19141 C 510.56226 186.30105 509.67579 193.11329 509.67579 193.11329 C 514.84071 189.20247 523.92592 192.11833 525.00196 181.08985 L 528.86134 185.96485 L 528.86134 123.79688 C 528.86134 85.255126 502.17686 89.103284 499.11134 89.998049 L 497.98243 85.974611 C 495.53781 76.116352 501.15083 85.067556 507.13868 83.744142 C 501.83139 62.911575 495.33712 69.590587 487.63868 61.656251 z M 63.568361 63.568361 L 85.681642 67.238283 L 76.460939 76.460939 L 67.238283 85.681642 L 63.568361 63.568361 z M 480.90431 63.568361 L 477.23438 85.681642 L 468.01173 76.460939 L 458.79102 67.238283 L 480.90431 63.568361 z M 91.060549 68.679689 L 112.04688 76.556642 L 97.812502 93.875002 L 91.060549 68.679689 z M 453.41212 68.679689 L 446.66017 93.875002 L 432.42579 76.556642 L 453.41212 68.679689 z M 61.380861 68.878908 L 64.507814 87.728517 L 55.697267 90.089846 L 61.380861 68.878908 z M 483.09181 68.878908 L 488.7754 90.089846 L 479.96485 87.728517 L 483.09181 68.878908 z M 88.050783 69.152345 L 94.968752 94.968752 L 69.152345 88.050783 L 78.601564 78.601564 L 88.050783 69.152345 z M 456.42188 69.152345 L 465.8711 78.601564 L 475.32032 88.050783 L 449.50392 94.968752 L 456.42188 69.152345 z M 310.56251 70.10547 C 309.55722 71.54915 308.78077 73.133322 308.23243 74.857423 C 307.74156 76.540882 307.25521 78.779705 306.7754 81.576173 C 306.63229 82.410208 306.3455 83.648202 305.91212 85.291017 C 305.47873 86.933833 305.13586 88.340725 304.88477 89.509767 C 304.63368 90.67881 304.47208 91.91401 304.4004 93.214846 C 304.32872 94.515681 304.54378 95.613409 305.04688 96.507814 C 305.5584 97.353159 306.38747 97.974777 307.53126 98.373049 C 308.09355 97.156392 308.50468 95.786513 308.76563 94.265627 C 309.02658 92.74474 309.24959 90.712163 309.4336 88.16797 C 309.67508 85.583135 309.88708 83.751215 310.07227 82.671877 C 310.19999 81.633181 310.63678 80.118215 311.38282 78.125002 C 312.17792 76.140206 312.67638 74.710616 312.87696 73.835939 C 313.02703 73.255627 313.03381 72.775536 312.89649 72.398439 C 312.80823 72.029759 312.67355 71.780232 312.49415 71.648439 C 312.37222 71.476003 312.06204 71.220714 311.56446 70.882814 C 311.06688 70.544913 310.7335 70.286324 310.56251 70.10547 z M 111.28711 82.250002 L 105.60352 103.46094 L 99.152346 97.011721 L 111.28711 82.250002 z M 433.18556 82.250002 L 445.32032 97.011721 L 438.86915 103.46094 L 433.18556 82.250002 z M 271.13672 83.615236 C 270.23076 85.124048 269.68036 86.421339 269.48829 87.509767 C 269.29621 88.598196 269.30485 90.29404 269.51368 92.593752 C 269.62004 93.693868 269.4025 95.428859 268.86133 97.79883 C 268.32017 100.1688 268.03704 101.70013 268.00977 102.39649 C 267.95717 103.73946 267.8111 105.52733 267.57422 107.75977 C 267.33929 109.94247 267.13837 111.90364 266.97071 113.64063 C 266.80305 115.37762 266.70593 117.21641 266.67969 119.15821 C 266.70125 121.15169 266.86067 122.82699 267.15626 124.1836 C 268.1052 124.12113 268.90025 124.15254 269.54297 124.27735 L 270.48047 121.32422 C 270.64333 120.98189 270.74425 120.31315 270.78321 119.31836 C 270.85151 118.57585 270.9421 118.08274 271.05274 117.83594 L 270.91602 117.83008 C 270.57655 116.32231 270.35835 114.89374 270.26172 113.54492 C 270.1651 112.19611 270.31799 110.8322 270.72071 109.45313 C 271.17512 108.02626 271.98299 107.13632 273.14258 106.78321 L 279.7129 105.02344 C 280.16445 104.94149 281.09366 104.72814 282.50196 104.38477 C 283.9122 103.99166 284.74351 103.7499 284.9961 103.66016 C 285.30038 103.52263 285.95642 103.32393 286.9629 103.06446 C 287.97133 102.75524 288.62736 102.53206 288.93165 102.39453 L 290.45313 101.70703 C 291.16507 101.33639 291.70265 100.98493 292.06446 100.65039 C 292.47601 100.3178 292.96268 99.937949 293.52735 99.511721 C 294.14371 99.037701 294.71361 98.510991 295.23438 97.933596 C 296.0097 97.216722 296.60605 96.618533 297.02344 96.136721 C 297.44279 95.605169 297.78848 95.046122 298.06055 94.458986 C 298.33458 93.822111 298.45801 93.204294 298.43165 92.605471 C 298.45502 92.008595 298.30529 91.354524 297.98438 90.644533 C 297.83906 90.53921 297.62072 90.431482 297.32618 90.320314 L 296.59376 89.917971 C 296.45038 89.762907 296.33388 89.583716 296.24219 89.380861 C 293.8069 89.235668 291.25527 89.508585 288.5879 90.201174 C 285.97027 90.89571 283.14245 91.880424 280.10352 93.156252 C 277.06655 94.38234 274.89085 95.194791 273.58008 95.591799 C 273.50982 94.841808 273.45511 93.718744 273.41407 92.222658 C 273.42277 90.728521 273.3945 89.532024 273.33008 88.632814 C 273.26567 87.733605 273.05427 86.802436 272.69336 85.841799 C 272.33441 84.831421 271.81555 84.090165 271.13672 83.615236 z M 271.05274 117.83594 L 271.25001 117.84375 L 271.25001 117.8418 C 271.21606 117.77731 271.18148 117.72729 271.14649 117.68946 C 271.11351 117.71995 271.08263 117.76927 271.05274 117.83594 z M 271.25001 117.84375 C 271.26217 117.86695 271.27508 117.8933 271.28711 117.91992 L 271.42383 118.22266 C 271.46773 118.37383 271.51276 118.50014 271.5586 118.60156 C 271.59848 118.68979 271.62129 118.75948 271.62501 118.8086 C 271.62025 118.71738 271.58277 118.39899 271.51368 117.85352 L 271.25001 117.84375 z M 258.17188 84.910158 C 256.609 84.887062 255.59205 84.985324 255.1211 85.20508 C 254.64295 85.375581 253.76723 85.930701 252.4961 86.871095 C 250.10159 88.730288 247.54072 92.02262 244.81055 96.748049 C 242.07319 101.42422 240.91253 105.19207 241.33008 108.04883 C 241.65405 110.26528 242.37732 111.59334 243.49805 112.03321 C 244.61159 112.42382 245.90018 111.95789 247.36719 110.63672 C 247.8658 110.262 248.32379 109.94345 248.73829 109.68164 C 249.19483 109.36338 249.56263 109.13389 249.84375 108.99219 L 250.32813 108.69531 C 252.23957 107.66133 253.96605 106.55366 255.50391 105.37305 C 257.08383 104.13599 258.54311 102.76551 259.88282 101.26172 C 261.22252 99.757929 262.20915 98.080056 262.84376 96.226564 C 263.47116 94.323819 263.68947 92.379109 263.50001 90.394533 C 263.05857 86.686053 261.28325 84.857841 258.17188 84.910158 z M 258.36329 88.742189 C 258.88216 88.71587 259.2553 88.883414 259.48438 89.246096 C 259.78825 89.604135 260.05511 90.219617 260.28321 91.091799 C 260.761 92.983924 260.12754 95.190169 258.38282 97.708986 C 256.6381 100.2278 254.43643 102.38496 251.78125 104.18164 C 249.17533 105.97112 246.82857 106.94305 244.73829 107.09766 C 245.00651 105.1468 245.82161 102.81431 247.18555 100.09961 C 248.5423 97.335663 249.86662 95.380942 251.15821 94.23633 C 251.33363 94.05977 251.97245 93.437656 253.07422 92.371096 C 254.176 91.304535 255.10967 90.464542 255.87501 89.849611 C 256.68959 89.227481 257.4413 88.866416 258.13086 88.765627 C 258.2109 88.753928 258.28916 88.745949 258.36329 88.742189 z M 65.291017 90.652346 L 72.005861 108.53906 L 56.48047 93.013674 L 65.291017 90.652346 z M 479.18165 90.652346 L 487.9922 93.013674 L 472.46681 108.53906 L 479.18165 90.652346 z M 68.679689 91.060549 L 93.875002 97.812502 L 76.556642 112.04688 L 68.679689 91.060549 z M 475.79298 91.060549 L 467.91602 112.04688 L 450.59767 97.812502 L 475.79298 91.060549 z M 233.65235 92.457033 C 231.32111 93.176114 229.02783 94.327101 226.77344 95.912111 C 224.56631 97.481482 222.26471 99.398586 219.86719 101.66016 C 217.45404 103.87447 215.70317 105.39658 214.61524 106.22852 C 214.28613 105.55094 213.84105 104.51925 213.27735 103.13281 C 212.7609 101.73074 212.31353 100.62013 211.9375 99.800783 C 211.56148 98.981435 211.03654 98.184879 210.36133 97.412111 C 209.67048 96.592086 208.92345 96.079409 208.1211 95.873049 C 207.80255 97.603891 207.74497 99.013037 207.94727 100.09961 C 208.14957 101.18619 208.75095 102.76962 209.75391 104.84961 C 210.23975 105.84235 210.64532 107.54208 210.97071 109.95117 C 211.29609 112.36027 211.56816 113.897 211.78711 114.5586 C 212.20938 115.83454 212.70167 117.55894 213.26368 119.73242 C 213.81005 121.85865 214.31081 123.76394 214.76368 125.44922 C 215.21655 127.1345 215.77054 128.89137 216.42774 130.71875 C 217.14784 132.57776 217.88561 134.0894 218.63868 135.25586 C 219.50528 134.8642 220.26063 134.61466 220.90625 134.50586 L 220.74805 131.41211 C 220.78035 131.03439 220.63897 130.37288 220.32618 129.42774 C 220.12943 128.70852 220.0397 128.2133 220.05664 127.94336 L 219.92969 127.98633 C 219.08245 126.69373 218.37654 125.4341 217.8125 124.20508 C 217.24846 122.97606 216.9118 121.64362 216.80469 120.21094 C 216.7292 118.71537 217.17297 117.5991 218.13477 116.86133 L 223.66797 112.90625 C 224.06201 112.67098 224.85856 112.14604 226.05665 111.33008 C 227.23909 110.46686 227.93172 109.9481 228.13672 109.77539 C 228.37335 109.53978 228.91823 109.12368 229.76954 108.52735 C 230.6052 107.88376 231.14229 107.4446 231.37891 107.20899 L 232.56055 106.03125 C 233.09703 105.43424 233.47595 104.91489 233.69727 104.47461 C 233.96585 104.0187 234.29085 103.49188 234.66993 102.89453 C 235.08062 102.23429 235.428 101.5438 235.7129 100.82031 C 236.18716 99.876865 236.5342 99.105502 236.75586 98.507814 C 236.96189 97.86287 237.09007 97.21755 237.13868 96.572268 C 237.17165 95.879728 237.07087 95.258479 236.83594 94.707033 C 236.64827 94.139948 236.27827 93.579468 235.72852 93.027346 C 235.55547 92.97975 235.31287 92.955757 234.99805 92.95508 L 234.17188 92.835939 C 233.98319 92.741087 233.80942 92.614782 233.65235 92.457033 z M 220.05664 127.94336 L 220.24414 127.88282 C 220.19018 127.83489 220.13946 127.79837 220.09375 127.77539 C 220.07358 127.81553 220.06122 127.87044 220.05664 127.94336 z M 291.8711 93.150392 C 292.49236 93.187178 293.10039 93.267771 293.69337 93.390627 C 292.8313 95.050606 291.27236 96.68363 289.01758 98.289064 C 286.76475 99.844759 284.17778 101.0126 281.25782 101.79492 C 278.33785 102.57725 275.6942 102.67294 273.32618 102.08203 C 274.53447 100.48543 276.21383 98.95816 278.36329 97.498049 C 280.56443 95.990146 283.07601 94.818387 285.89844 93.982424 C 288.01673 93.318147 290.00732 93.040036 291.8711 93.150392 z M 232.67383 97.105471 C 232.44946 98.962444 231.56515 101.03911 230.01758 103.33399 C 228.45438 105.58161 226.44182 107.58408 223.98243 109.3418 C 221.52303 111.09952 219.08099 112.11836 216.65625 112.39649 C 217.22706 110.47729 218.26371 108.45582 219.76368 106.33399 C 221.29526 104.14926 223.23474 102.17019 225.58399 100.39649 C 227.91759 98.575529 230.28038 97.478113 232.67383 97.105471 z M 97.011721 99.152346 L 103.46094 105.60352 L 82.250002 111.28711 L 97.011721 99.152346 z M 447.46095 99.152346 L 462.22267 111.28711 L 441.01173 105.60352 L 447.46095 99.152346 z M 153.99805 108.03516 C 153.96901 108.0373 153.94131 108.0412 153.91407 108.04688 C 153.7043 108.02235 153.30654 108.0822 152.72266 108.22656 C 152.13878 108.37093 151.72342 108.44678 151.47461 108.45313 C 151.87684 110.16573 152.53498 111.80322 153.45117 113.36328 C 154.37554 114.85343 155.71875 116.70986 157.47852 118.93555 C 158.00336 119.59935 158.73152 120.64228 159.66407 122.0625 C 160.59661 123.48272 161.41333 124.67653 162.11524 125.64453 C 162.81714 126.61254 163.62899 127.55786 164.54883 128.48047 C 165.46867 129.40308 166.43006 129.97582 167.43164 130.19922 C 168.40235 130.38358 169.4179 130.18438 170.47852 129.59961 C 169.94915 128.36827 169.20512 127.14601 168.24805 125.93555 C 167.29098 124.72509 165.92797 123.20228 164.15821 121.36524 C 162.39662 119.45828 161.17531 118.07584 160.4961 117.2168 C 159.80871 116.42768 158.97258 115.08814 157.98828 113.20117 C 157.04304 111.28334 156.31355 109.95833 155.79688 109.22461 C 155.46545 108.72517 155.11254 108.39984 154.74024 108.25 C 154.44864 108.09188 154.20136 108.02017 153.99805 108.03516 z M 304.42579 108.10547 C 304.0544 108.11751 303.67855 108.24293 303.29688 108.48047 C 302.84547 108.75655 302.57307 109.16346 302.48047 109.70313 C 302.44391 110.50494 302.59502 111.23786 302.93555 111.90235 C 303.33357 112.52619 303.90607 112.87787 304.6504 112.95508 C 305.68067 113.13186 306.29602 112.63059 306.49805 111.45313 C 306.6159 110.76628 306.50986 110.06707 306.17774 109.35352 C 305.85404 108.59091 305.39208 108.18281 304.79493 108.13086 C 304.67228 108.10982 304.54958 108.10146 304.42579 108.10547 z M 220.4961 127.79883 L 220.2461 127.88282 C 220.26602 127.90056 220.2856 127.91832 220.30664 127.93946 L 220.54297 128.17774 C 220.63715 128.30387 220.72225 128.4055 220.80079 128.48438 C 220.8691 128.55298 220.91483 128.60961 220.93555 128.6543 C 220.89907 128.57056 220.75231 128.28532 220.4961 127.79883 z M 158.34961 131.53516 C 158.17415 131.57289 157.9475 131.66376 157.66797 131.8086 L 156.87891 132.08399 C 156.66774 132.08703 156.45633 132.05563 156.24414 131.98828 C 154.50875 133.70297 153.00745 135.78329 151.74024 138.23047 C 150.50771 140.64195 149.35115 143.40424 148.26953 146.51758 C 147.15222 149.59624 146.30322 151.75567 145.72266 152.9961 C 145.11776 152.54719 144.24394 151.83837 143.10352 150.86914 C 141.99778 149.86422 141.08896 149.08618 140.37696 148.53321 C 139.66495 147.98023 138.83083 147.51603 137.875 147.14258 C 136.88347 146.73444 135.98468 146.62487 135.17774 146.8125 C 135.6948 148.49474 136.29519 149.7704 136.97657 150.64063 C 137.65794 151.51086 138.92304 152.63811 140.77344 154.01953 C 141.66294 154.67556 142.8075 155.99611 144.20899 157.98243 C 145.61047 159.96874 146.56268 161.20383 147.0625 161.68946 C 148.02644 162.62602 149.25922 163.92961 150.76172 165.59766 C 152.22853 167.23102 153.55225 168.68914 154.73242 169.97461 C 155.9126 171.26008 157.21553 172.5618 158.64258 173.87891 C 160.14002 175.19501 161.49247 176.19616 162.69922 176.88282 C 163.28688 176.13511 163.84094 175.56467 164.36328 175.16993 L 162.79493 172.5 C 162.64908 172.15009 162.21794 171.62735 161.50391 170.9336 C 160.99717 170.3866 160.68975 169.98943 160.58008 169.74219 L 160.48633 169.83985 C 159.13778 169.08483 157.92934 168.29235 156.86133 167.46289 C 155.79333 166.63343 154.87988 165.60788 154.12305 164.38672 C 153.36521 163.09517 153.24366 161.89942 153.75586 160.80078 L 156.83594 154.73828 C 157.07673 154.3476 157.53897 153.51347 158.22461 152.23633 C 158.87455 150.9245 159.25148 150.14437 159.35352 149.89649 C 159.45454 149.57822 159.74507 148.95732 160.22461 148.03516 C 160.66845 147.07832 160.94 146.44132 161.04102 146.12305 L 161.54688 144.53125 C 161.74689 143.75393 161.84304 143.11968 161.83594 142.62696 C 161.86353 142.09853 161.9085 141.48225 161.96875 140.77735 C 162.02799 140.00205 162.01514 139.22639 161.9336 138.45313 C 161.91839 137.39729 161.87249 136.55437 161.79297 135.92188 C 161.67776 135.2547 161.49131 134.62406 161.23633 134.0293 C 160.94565 133.39985 160.56858 132.89422 160.10547 132.51367 C 159.67705 132.09742 159.09225 131.77087 158.34961 131.53516 z M 160.58008 169.74219 L 160.71875 169.59961 C 160.64809 169.58177 160.58669 169.57348 160.53516 169.57422 C 160.53581 169.61914 160.55045 169.6754 160.58008 169.74219 z M 160.71875 169.59961 C 160.74462 169.60615 160.7704 169.61403 160.79883 169.62305 L 161.11719 169.72461 C 161.25898 169.79297 161.38415 169.84328 161.49024 169.87696 C 161.58252 169.90625 161.64653 169.93674 161.68555 169.9668 C 161.61452 169.90938 161.35432 169.72327 160.90235 169.41016 L 160.71875 169.59961 z M 157.52539 136.56446 C 158.18424 138.31506 158.35733 140.56421 158.04493 143.31446 C 157.69682 146.03001 156.83801 148.73658 155.46875 151.43164 C 154.0995 154.12671 152.40288 156.15664 150.38086 157.52344 C 150.00053 155.55762 149.98581 153.28767 150.33594 150.71289 C 150.68506 148.06773 151.49169 145.41617 152.75586 142.75782 C 153.98434 140.06478 155.57478 138.00063 157.52539 136.56446 z M 176.9336 137.78321 C 176.5249 137.77419 176.18372 137.89835 175.91016 138.1543 C 175.51969 138.46303 175.27241 138.91172 175.16797 139.50196 C 175.07171 140.02227 175.19165 140.49822 175.53125 140.92774 C 176.10332 141.49075 176.75076 141.86789 177.47266 142.0586 C 178.20274 142.17938 178.84556 141.98847 179.40039 141.48633 C 180.22038 140.838 180.26049 140.04456 179.51953 139.10742 C 179.08731 138.56076 178.49497 138.17312 177.74219 137.94336 C 177.44832 137.84256 177.17882 137.78862 176.9336 137.78321 z M 301.22462 145.84375 C 296.82734 145.53615 292.23373 146.19664 287.17774 147.84571 C 277.53342 150.9913 271.91507 151.22864 264.07813 148.82422 C 254.74251 145.96006 253.20471 145.68667 247.8711 145.93555 C 242.30095 146.19546 236.83176 147.578 227.38086 151.11719 C 214.35092 155.9967 208.33042 160.24688 203.66602 167.85743 C 197.86483 177.3228 192.12075 182.16626 182.95899 185.31836 C 175.6869 187.82034 170.19628 192.28548 165.00977 199.91602 C 156.08805 213.04201 149.3417 228.07518 145.62305 243.11133 C 140.83651 262.4654 140.5565 284.41314 144.85547 303.38672 C 146.17648 309.21703 147.67168 311.68872 150.92969 313.42188 L 153.10157 314.57618 L 175.60743 314.44727 L 198.11329 314.31641 L 200.20313 312.84766 C 201.35307 312.0401 202.83329 310.41235 203.49219 309.23047 L 204.69141 307.08204 L 204.74414 276.93946 C 204.79535 248.51884 204.87153 245.97226 206.07813 232.37696 C 206.78199 224.44635 207.35938 217.90861 207.35938 217.84961 C 207.35965 217.84756 207.36054 217.842 207.36133 217.83985 C 207.49329 217.5654 211.68559 216.56097 211.95118 216.74414 C 211.95211 216.74492 211.95623 216.7492 211.95704 216.75 C 212.0834 216.87636 211.74021 222.60324 211.19532 229.47657 C 209.43582 251.67113 209.32189 254.24817 209.30469 272.20118 C 209.28701 290.57039 210.35874 316.70069 211.27149 320.17383 C 211.94154 322.72349 214.13151 325.38215 216.68946 326.75001 C 218.6567 327.802 219.06747 327.82247 239.67188 327.97462 C 263.18174 328.14822 264.45432 328.02876 267.59571 325.33985 C 271.58622 321.92406 271.23337 327.37811 271.50391 264.88086 L 271.74415 209.17774 L 274.02735 209.03125 L 276.31251 208.88282 L 276.43946 269.79883 L 276.56641 330.71485 L 277.64844 332.73633 C 278.93915 335.15103 281.32862 337.07602 284.1504 337.97657 C 286.88196 338.84834 327.44608 338.73828 329.44532 337.85352 C 331.59124 336.90383 334.31561 334.19441 335.25001 332.08204 C 335.93618 330.53088 336.3041 327.51649 336.86719 318.82032 C 337.26803 312.62989 337.80824 304.8739 338.06837 301.58594 C 338.3285 298.298 338.54102 285.93321 338.54102 274.10938 C 338.54102 252.67313 338.44512 250.57476 336.16993 222.44336 C 335.92326 219.39464 335.79186 216.8312 335.87696 216.7461 C 336.12237 216.50066 339.25866 217.1658 339.99219 217.61914 C 340.67245 218.03958 340.96715 220.9569 342.6211 243.66016 C 343.54455 256.33606 343.60097 286.26652 342.73438 304.18751 C 342.33381 312.47089 342.24537 318.43776 342.50587 319.6211 C 343.12919 322.45265 344.96578 324.9335 347.57423 326.4668 L 349.87501 327.82032 L 369.28126 327.96094 C 381.65999 328.05094 389.36005 327.92168 390.54884 327.60157 C 393.02976 326.93354 395.42572 325.26759 396.76563 323.2793 C 398.94563 320.04443 403.00123 305.52924 404.9297 294.06055 C 405.65848 289.72638 405.81915 286.19404 405.80665 274.76758 C 405.79309 262.39574 405.66208 260.0308 404.67579 254.27149 C 401.20483 234.00367 394.25178 216.54631 383.18751 200.32032 C 377.81416 192.44018 371.70099 187.44056 364.82618 185.30274 C 363.76514 184.97279 361.16115 183.81335 359.03907 182.72461 C 353.99303 180.1357 348.42169 174.64425 344.90235 168.79102 C 342.14007 164.1969 338.6604 160.35646 334.97852 157.83985 C 329.99445 154.43319 314.53388 148.45749 305.56641 146.47266 C 304.13427 146.15567 302.69038 145.94629 301.22462 145.84375 z M 130.91992 155.48633 C 129.6464 155.5363 128.49864 156.14745 127.47852 157.32227 C 126.41695 158.46953 125.81138 159.29186 125.66016 159.78907 C 125.46748 160.25871 125.29632 161.28141 125.14649 162.85547 C 124.9295 165.87924 125.66641 169.985 127.35742 175.17383 C 129.00699 180.3351 131.03322 183.71608 133.4375 185.31446 C 135.3029 186.55458 136.77345 186.9031 137.84961 186.36328 C 138.88432 185.79591 139.40099 184.52502 139.39844 182.55078 C 139.45286 181.92945 139.52131 181.37785 139.60352 180.89453 C 139.67183 180.34221 139.74764 179.91517 139.83008 179.61133 L 139.93164 179.05078 C 140.43973 176.93783 140.7686 174.91544 140.91797 172.98243 C 141.05345 170.9804 141.01059 168.97813 140.78711 166.97657 C 140.56363 164.975 139.97435 163.1189 139.01953 161.40821 C 138.02327 159.66995 136.72216 158.20868 135.11914 157.02344 C 133.59221 155.94855 132.19345 155.43637 130.91992 155.48633 z M 131.4043 159.22657 C 131.46276 159.22714 131.52162 159.23387 131.58203 159.24414 C 132.05145 159.25734 132.68701 159.46967 133.48828 159.88282 C 135.21519 160.79178 136.43268 162.7376 137.14063 165.71875 C 137.84858 168.69991 137.98261 171.77721 137.54492 174.95313 C 137.13479 178.08759 136.28962 180.48422 135.00782 182.14258 C 133.73573 180.63938 132.54562 178.47331 131.4375 175.64453 C 130.28793 172.7882 129.71889 170.49724 129.73047 168.77149 C 129.71634 168.523 129.68025 167.63395 129.62305 166.10157 C 129.56585 164.56919 129.56518 163.31232 129.61914 162.33203 C 129.70066 161.31029 129.93255 160.50808 130.31836 159.92774 C 130.63184 159.45621 130.99508 159.22256 131.4043 159.22657 z M 119.08203 179.43946 C 118.90193 179.432 118.71602 179.43336 118.52149 179.44336 C 118.37044 179.5403 118.1894 179.7057 117.97852 179.93946 L 117.33594 180.47461 C 117.13928 180.5516 116.93131 180.59403 116.70899 180.60547 C 115.6861 182.8203 115.01093 185.2969 114.6836 188.03321 C 114.37621 190.72391 114.26145 193.71683 114.3418 197.01172 C 114.37654 200.28667 114.34051 202.60736 114.23242 203.97266 C 113.50842 203.76471 112.44132 203.40556 111.03321 202.89844 C 109.64503 202.34572 108.52098 201.93576 107.66016 201.66797 C 106.79933 201.40019 105.85618 201.26018 104.83008 201.2461 C 103.75837 201.21207 102.87719 201.42381 102.1875 201.88282 C 103.26228 203.27642 104.27131 204.26034 105.21485 204.83594 C 106.15838 205.41154 107.73942 206.02222 109.95703 206.66602 C 111.02023 206.96797 112.55675 207.80213 114.56641 209.16993 C 116.57607 210.53772 117.90056 211.36141 118.53906 211.64063 C 119.77047 212.17913 121.3825 212.96568 123.375 214 C 125.3219 215.01438 127.07253 215.91581 128.62891 216.70508 C 130.18528 217.49435 131.86347 218.25606 133.66211 218.98829 C 135.5263 219.69485 137.14461 220.15771 138.51563 220.37696 C 138.80336 219.47053 139.12217 218.74051 139.47266 218.1875 L 137.06446 216.23829 C 136.80504 215.96185 136.21879 215.6235 135.30664 215.22461 C 134.64011 214.89036 134.21293 214.62854 134.02344 214.43555 L 133.96875 214.5586 C 132.44097 214.32513 131.03147 214.00715 129.74024 213.60547 C 128.449 213.2038 127.23506 212.5652 126.09766 211.6875 C 124.93459 210.74426 124.40028 209.66752 124.49414 208.45899 L 125.25 201.69922 C 125.33829 201.24887 125.4783 200.30571 125.67188 198.86914 C 125.81985 197.41263 125.89775 196.55113 125.90625 196.28321 C 125.8891 195.94973 125.94312 195.2662 126.06836 194.23438 C 126.148 193.18262 126.17927 192.48973 126.16211 192.15625 L 126.07813 190.49024 C 125.99249 189.69218 125.85933 189.06238 125.67969 188.60352 C 125.51999 188.09905 125.34343 187.50736 125.15235 186.82618 C 124.9356 186.07944 124.65449 185.35752 124.30664 184.66211 C 123.9217 183.67883 123.57973 182.9061 123.28321 182.3418 C 122.94108 181.75755 122.54718 181.23105 122.09961 180.76368 C 121.60644 180.27636 121.077 179.93592 120.50977 179.74219 C 120.0993 179.56269 119.62234 179.46181 119.08203 179.43946 z M 134.02344 214.43555 L 134.10157 214.25391 C 134.03006 214.26203 133.96941 214.27437 133.92188 214.29297 C 133.93825 214.3348 133.97225 214.38341 134.02344 214.43555 z M 119.51367 184.44141 C 120.74522 185.84924 121.69799 187.89524 122.3711 190.58008 C 122.99859 193.24498 123.14443 196.07975 122.8086 199.08399 C 122.47276 202.08823 121.597 204.5845 120.1836 206.57422 C 119.13727 204.86708 118.32617 202.74669 117.75 200.21289 C 117.14817 197.61355 116.97232 194.84703 117.22266 191.91407 C 117.42739 188.96116 118.19148 186.47102 119.51367 184.44141 z M 134.20899 214.01172 L 134.10352 214.25391 C 134.13003 214.25095 134.15772 214.24763 134.1875 214.2461 L 134.52149 214.22852 C 134.67825 214.24275 134.81072 214.24791 134.92188 214.24219 C 135.01857 214.23722 135.09158 214.24142 135.13867 214.25586 C 135.052 214.22704 134.74212 214.14621 134.20899 214.01172 z M 421.97852 258.88672 C 419.10421 258.88672 417.81682 259.14245 415.70899 260.12696 C 410.48063 262.56903 410.83009 261.50287 410.83009 274.94532 C 410.83009 281.40574 410.89732 286.72368 410.97852 286.76368 C 411.05984 286.80362 411.59616 287.22933 412.16993 287.71094 C 412.74371 288.19255 414.47905 289.12254 416.02735 289.7754 C 418.37551 290.76549 419.44379 290.93121 422.46095 290.78321 C 424.7438 290.67122 426.90887 290.23678 428.33204 289.60352 C 431.34159 288.26438 434.79486 285.00561 436.3672 282.02149 C 437.49227 279.88631 437.6484 279.0343 437.6504 275.00977 C 437.65249 270.8923 437.50786 270.14415 436.23243 267.62696 C 433.43658 262.10911 428.18264 258.88672 421.97852 258.88672 z M 440.3047 291.16797 C 436.26585 291.17 435.43124 291.32518 433.25977 292.46876 C 430.04628 294.16114 426.62417 298.01293 425.38087 301.33594 C 422.33438 309.47844 426.65305 318.9072 434.8672 322.04688 C 436.09035 322.51435 438.11423 322.69978 441.02931 322.60938 C 444.75927 322.49376 445.72975 322.27824 447.92774 321.07813 C 457.45225 315.8778 459.37114 303.2149 451.78517 295.62891 C 448.3436 292.18736 445.71608 291.16497 440.3047 291.16797 z M 212.66407 330.47266 C 211.47986 330.47266 207.99168 334.40633 206.76954 337.11915 C 205.98273 338.86565 205.74219 340.34877 205.74219 343.49415 C 205.74219 346.63953 205.98273 348.12459 206.76954 349.8711 C 208.61313 353.96337 212.64834 357.55745 217.00391 358.98634 C 218.94694 359.62378 226.23294 359.20152 227.81641 358.35938 C 229.07146 357.69191 229.31238 357.16429 230.06055 353.46876 C 230.99466 348.85488 232.47537 345.29646 235.10938 341.32813 C 236.68888 338.94855 236.81959 338.51766 236.36133 337.20313 C 236.07989 336.39576 235.41254 335.12247 234.87891 334.37305 L 233.90821 333.00977 L 226.0586 332.78907 C 219.35011 332.60027 217.86778 332.417 215.85743 331.52149 C 214.56373 330.94521 213.1271 330.47266 212.66407 330.47266 z M 264.6543 332.88477 C 259.17688 332.88477 256.07086 333.10645 253.96876 333.64844 C 245.2216 335.90371 237.77296 343.2251 235.11915 352.17579 C 234.08031 355.6802 234.08266 363.12281 235.12305 366.64454 C 237.77843 375.63287 245.10272 382.77328 254.14063 385.1836 C 256.38625 385.78218 262.89786 385.87566 296.58204 385.78516 L 336.3711 385.67774 L 341.1836 384.36134 C 347.25423 382.69895 354.61301 379.12083 359.55274 375.43165 C 366.86701 369.96909 377.23043 358.42223 384.10548 348.07618 C 387.52145 342.93558 392.5586 334.12878 392.5586 333.29493 C 392.5586 333.06949 380.77084 332.88477 366.36329 332.88477 L 340.16798 332.88477 L 339.35938 334.57813 C 338.00067 337.42737 334.88831 340.37401 331.66798 341.86133 L 328.6543 343.25391 L 306.46876 343.25391 C 284.63621 343.25391 284.24128 343.23601 281.63086 342.17774 C 278.08121 340.73869 275.60899 338.61327 273.83985 335.47852 L 272.37501 332.88477 L 264.6543 332.88477 z M 434.48634 336.16016 C 434.3323 336.41605 433.83956 337.13685 433.00977 338.32227 C 432.17999 339.50769 431.51754 340.41587 431.02149 341.04688 C 430.55112 341.63524 429.95669 342.3813 429.23829 343.28516 C 428.51989 344.18903 427.87539 344.87506 427.30274 345.34376 C 426.7301 345.81246 426.19444 346.07255 425.69923 346.12305 C 425.24667 346.19923 423.60555 345.49977 420.77345 344.02735 C 417.93265 342.66589 416.1142 342.6467 415.31837 343.96876 C 414.95896 344.56582 414.90665 345.08697 415.16212 345.53126 C 415.48548 346.24882 416.82499 347.11231 419.1797 348.12305 C 421.51743 349.06548 423.0603 349.87848 423.81056 350.56251 C 424.36497 350.89624 424.65031 351.53359 424.66602 352.47266 C 424.66477 353.34342 424.78798 353.91079 425.03516 354.17579 C 425.51256 354.63747 426.53307 354.72869 428.09571 354.44923 C 429.61571 354.14409 430.69085 354.09499 431.32227 354.30079 C 432.12429 354.60927 433.1441 355.13442 434.38087 355.87891 C 435.64331 356.58076 437.05967 357.46261 438.62891 358.52344 C 440.15551 359.5586 441.2174 360.25583 441.81446 360.61524 C 444.24535 362.07855 446.16961 361.72686 447.58985 359.56055 C 448.41136 358.19585 448.72998 356.55706 448.54493 354.64454 C 448.31723 352.70635 447.65785 351.29371 446.56642 350.4043 C 446.18133 351.04401 445.89544 351.56903 445.70704 351.97852 C 445.54431 352.34537 445.44151 352.65926 445.39845 352.92384 C 445.33841 353.1201 445.23905 353.52618 445.10157 354.14063 C 444.92145 354.72941 444.7357 355.37448 444.54688 356.07423 C 442.73747 355.79844 441.04517 355.32954 439.46681 354.66993 C 437.87147 353.942 435.90029 352.87291 433.5547 351.46094 C 432.10469 350.5881 431.33451 349.60139 431.2422 348.50001 C 431.17471 347.93648 431.51208 346.59972 432.25782 344.49219 C 432.49799 343.70715 433.24161 340.93046 434.48634 336.16016 z M 409.75001 348.25587 C 408.97467 348.26012 408.4794 348.55989 408.26368 349.15626 C 408.03056 349.47911 407.87699 349.73522 407.80079 349.92579 C 407.75373 350.076 407.83583 350.25942 408.04884 350.47462 C 408.95242 351.43404 409.91076 352.06494 410.92188 352.36524 C 411.96214 352.62519 412.72594 352.28649 413.21681 351.35157 C 413.63147 350.60722 413.44988 349.92395 412.67188 349.30079 C 411.92302 348.63727 411.06587 348.29381 410.09962 348.27149 C 409.97743 348.26001 409.86077 348.25526 409.75001 348.25587 z M 34.796876 351.35938 C 29.632007 355.27025 20.546788 352.35433 19.470704 363.38282 L 15.611328 358.50782 L 15.611328 420.67579 C 15.611328 459.21754 42.295846 455.36939 45.361329 454.47462 L 46.490235 458.49806 C 48.934817 468.35632 43.321795 459.40506 37.333985 460.72852 C 42.641232 481.56108 49.135594 474.88208 56.833986 482.81642 L 48.126954 450.84767 L 65.021486 434.22266 C 65.021486 434.22266 59.457679 435.87515 55.32422 435.76173 C 49.368881 435.59821 41.199191 440.58876 43.777345 448.56056 C 34.559931 451.88644 27.996002 448.71484 27.404297 439.60548 L 27.404297 381.03516 C 27.404297 378.31425 29.662709 379.28783 31.773438 375.22071 C 33.071503 372.7197 32.753907 368.38282 32.753907 368.38282 C 30.394948 370.55993 26.933368 370.96023 27.498047 375.33009 L 25.083985 372.32423 L 25.083985 440.16798 C 25.083985 440.16798 21.271485 438.09579 21.271485 421.38673 L 21.271485 395.9961 C 21.271485 380.00724 19.396024 384.15304 19.84961 375.91212 C 20.178958 369.92799 26.486248 365.5958 30.800782 361.28126 C 33.910407 358.17164 34.796876 351.35938 34.796876 351.35938 z M 509.67579 351.35938 C 509.67579 351.35938 510.56226 358.17164 513.67189 361.28126 C 517.98642 365.5958 524.29383 369.92994 524.62306 375.91407 C 525.07661 384.15499 523.20118 380.00724 523.20118 395.9961 L 523.20118 421.38868 C 523.20118 438.09774 519.38868 440.16798 519.38868 440.16798 L 519.38868 372.32423 L 516.97462 375.33009 C 517.53929 370.96024 514.07772 370.55993 511.71876 368.38282 C 511.71876 368.38282 511.40125 372.71971 512.69923 375.22071 C 514.80996 379.28784 517.06837 378.31427 517.06837 381.03516 L 517.06837 439.60548 C 516.47666 448.71488 509.91273 451.88644 500.69532 448.56056 C 503.27347 440.58876 495.10379 435.59834 489.14845 435.76173 C 485.01499 435.87523 479.45118 434.22266 479.45118 434.22266 L 496.34571 450.84767 L 487.63868 482.81642 C 495.33712 474.88208 501.83139 481.56108 507.13868 460.72852 C 501.15083 459.40506 495.53781 468.35632 497.98243 458.49806 L 499.11134 454.47462 C 502.17686 455.36939 528.86134 459.21754 528.86134 420.67579 L 528.86134 358.50782 L 525.00196 363.38282 C 523.92592 352.35433 514.84071 355.27025 509.67579 351.35938 z M 420.6797 354.25977 C 419.83101 354.30316 419.21259 354.52915 418.82423 354.93946 C 418.70096 355.28024 418.74293 355.64843 418.94923 356.04298 C 419.11517 356.40838 419.42572 356.78575 419.88087 357.17579 L 421.1504 358.09376 C 421.50239 358.28652 422.01656 358.59561 422.69141 359.02149 C 423.39541 359.40702 423.80862 359.64306 423.9297 359.73048 C 424.07991 359.77754 424.95077 360.65377 426.54493 362.35743 C 428.13909 364.06108 429.27438 365.1249 429.94923 365.55079 C 430.71601 366.10445 431.56093 366.80669 432.48243 367.65626 C 433.43308 368.46547 434.20605 369.17848 434.8047 369.79493 C 435.36299 370.38224 436.06021 370.94584 436.89649 371.48829 C 437.76191 371.99038 438.61466 372.29983 439.45313 372.41407 C 439.63468 371.99258 439.70614 371.55305 439.66798 371.09571 C 439.58946 370.60923 439.38597 370.12455 439.0586 369.64259 C 438.72002 369.09112 438.3539 368.58013 437.95704 368.10938 C 437.58932 367.59827 437.09069 367.05462 436.4629 366.47852 C 435.79475 365.87329 435.2325 365.37637 434.77735 364.98634 C 434.32221 364.5963 433.74612 364.11762 433.04884 363.55274 C 432.35155 362.98786 431.82221 362.57477 431.45899 362.31251 L 430.0254 360.72462 C 429.05903 359.59706 428.04353 358.49592 426.97852 357.41993 C 425.91351 356.34394 425.19169 355.73054 424.81056 355.57813 C 423.96976 354.78684 422.90129 354.35343 421.60548 354.27735 C 421.27143 354.25104 420.96259 354.24531 420.6797 354.25977 z M 203.8125 360.88868 C 201.98183 360.90638 201.10565 361.2119 199.04688 362.17774 C 195.48195 363.85019 192.8349 366.35318 191.05079 369.74024 C 189.9144 371.89761 189.75982 372.7401 189.75782 376.77344 C 189.75587 380.61054 189.93996 381.72967 190.88868 383.65626 C 193.15375 388.25603 197.98516 391.87431 202.88868 392.64454 C 210.62691 393.86002 218.16105 389.27673 220.70704 381.8047 C 221.79725 378.60506 221.41895 372.86499 219.91407 369.78712 C 217.26851 364.37619 212.37798 361.26234 206.04102 360.95313 C 205.13933 360.90913 204.42273 360.88278 203.8125 360.88868 z M 415.12501 366.41407 C 414.11059 366.36037 413.21134 366.75605 412.42774 367.60352 C 412.05601 368.00556 411.70468 368.49576 411.37501 369.07227 C 411.07913 369.61224 410.81814 370.11517 410.58985 370.58204 C 410.39535 371.01236 410.20808 371.61837 410.02735 372.4004 C 409.84663 373.18243 409.71066 373.80427 409.62305 374.26563 C 409.53269 374.65665 409.43691 375.31247 409.33204 376.23243 C 409.22717 377.15239 409.14642 377.79007 409.08985 378.14454 C 409.06708 378.46246 409.02376 379.16924 408.96095 380.26368 C 408.86158 381.32433 408.81596 381.9589 408.82423 382.16993 C 407.81464 381.57542 407.09094 381.07546 406.65235 380.66993 L 404.07423 378.28712 C 402.68262 376.93261 401.67913 376.00416 401.06055 375.50001 C 400.47578 374.95931 399.63899 374.28717 398.55079 373.48438 C 397.42604 372.6478 396.41708 372.08875 395.5254 371.80665 C 394.63372 371.52454 393.78413 371.41753 392.97657 371.48438 L 392.66016 371.4961 C 392.44914 371.50437 392.32677 371.52596 392.29298 371.56251 L 391.98048 371.68165 C 391.806 371.72371 391.72106 371.8144 391.72657 371.95509 C 392.04651 372.92886 392.73697 373.90671 393.79688 374.88673 C 394.8568 375.86675 395.96532 376.72149 397.1211 377.45118 C 398.27413 378.11053 399.57642 378.97455 401.02735 380.04493 C 402.51207 381.07876 403.73058 382.07056 404.6836 383.01954 C 405.26838 383.56024 406.64972 385.10945 408.82813 387.66602 C 411.00379 390.15226 412.87223 392.01571 414.43556 393.25782 C 415.99888 394.49993 417.65554 395.38561 419.40235 395.91602 C 420.00862 394.30715 419.42748 392.55192 417.66212 390.64845 C 415.96986 388.81256 414.89538 387.44481 414.43751 386.54688 C 413.59487 384.81862 413.05317 382.65576 412.81056 380.0586 C 412.60173 377.42489 412.83512 375.30305 413.51173 373.69141 C 413.7683 373.04731 414.02929 372.54438 414.29688 372.18165 C 414.56448 371.81892 414.87371 371.59389 415.22266 371.50977 C 415.57162 371.42566 415.90475 371.3952 416.22266 371.41798 C 416.54058 371.44075 416.91654 371.58478 417.34962 371.84962 C 417.78269 372.11446 418.18024 372.38085 418.54298 372.64844 C 418.90295 372.8457 419.33678 373.14606 419.84571 373.54884 C 420.90011 374.38817 421.92485 375.36873 422.91993 376.49219 C 423.91226 377.54531 424.95823 378.57994 426.0547 379.59376 C 427.1484 380.53723 428.18357 381.35915 429.16212 382.06055 C 430.10412 382.72817 431.12121 383.05832 432.2129 383.05079 C 433.26804 383.00947 434.25279 382.52976 435.16798 381.61329 L 439.01954 374.69923 C 438.58922 374.50473 438.24839 374.35955 437.99806 374.26368 C 437.71118 374.13401 437.42591 374.07493 437.14454 374.08594 C 436.82662 374.06317 436.59772 374.05504 436.45704 374.06055 C 436.3136 373.99572 436.07002 374.07599 435.72657 374.30079 C 435.38037 374.45525 435.14104 374.60577 435.00587 374.75196 C 434.86794 374.82781 434.52358 375.05204 433.97462 375.42579 C 433.45945 375.76299 433.08307 376.02545 432.84376 376.21094 C 432.50031 376.43575 432.35513 376.77463 432.40821 377.23048 C 432.02822 377.42148 431.57503 377.54574 431.04884 377.60157 C 430.51989 377.58706 430.1088 377.44419 429.81641 377.17384 C 429.52403 376.90349 428.0882 375.78005 425.50977 373.80274 C 422.92859 371.75509 420.96169 370.10585 419.60938 368.85548 C 417.92357 367.29674 416.42926 366.48311 415.12501 366.41407 z M 398.24805 381.16407 C 397.36179 381.16052 396.60785 381.36743 395.98829 381.78712 C 395.36873 382.20681 394.86156 382.7308 394.46485 383.35548 C 394.10741 383.94956 393.69957 384.80232 393.2422 385.91602 C 392.44063 387.80279 391.42688 390.39111 390.20313 393.6797 C 388.97938 396.96828 388.37041 398.73749 388.37501 398.98634 C 387.97528 401.06483 388.07285 402.84925 388.66798 404.3418 C 389.27637 406.01335 390.20931 406.92799 391.4668 407.08399 C 392.73297 407.17014 394.17144 406.58456 395.78126 405.33009 C 396.1739 405.02412 397.54704 403.67096 399.90235 401.26759 C 402.29693 398.83362 403.88982 397.43341 404.6797 397.07032 L 404.68165 397.07032 L 404.6836 397.06837 L 404.68555 397.06837 L 404.68751 397.06837 L 404.68946 397.06837 L 404.69141 397.06837 L 404.69141 397.07032 L 404.69337 397.07032 L 404.69337 397.07227 L 404.69532 397.07423 C 404.70866 397.1119 404.68235 397.28704 404.61524 397.59571 C 404.53264 397.97561 404.3818 398.47063 404.16407 399.08204 C 403.94635 399.69345 403.70011 400.39015 403.42579 401.17188 C 403.15147 401.95362 402.88912 402.79079 402.63673 403.68165 C 402.393 404.50265 402.16736 405.30726 401.9629 406.09766 C 401.7977 406.85747 401.69195 407.57223 401.64454 408.24024 C 401.6364 408.87766 401.70029 409.36319 401.83595 409.69923 C 402.96646 409.44933 403.84639 409.0794 404.47462 408.58985 C 405.07224 408.06104 405.61555 407.25999 406.10352 406.18555 C 406.39978 405.51295 406.91732 404.47783 407.65821 403.08009 C 408.43837 401.65175 409.04519 400.48616 409.47657 399.58204 C 409.94721 398.64732 410.30995 397.57481 410.56641 396.36524 C 410.82288 395.15568 410.84862 394.09391 410.64259 393.18165 C 410.15199 391.41832 409.2833 390.54929 408.03907 390.57227 C 406.8341 390.56466 405.36825 391.23382 403.64063 392.58009 C 402.85535 393.19202 401.66493 394.21498 400.06837 395.64845 C 398.51107 397.05131 397.29936 398.08859 396.43555 398.76173 C 395.61101 399.40426 394.4161 400.17882 392.84962 401.08399 C 393.97488 395.15856 396.24256 389.88884 399.65235 385.2754 C 400.66402 383.98218 401.03803 382.96461 400.7754 382.22266 C 400.51276 381.48072 399.67127 381.12783 398.24805 381.16407 z M 205.40625 397.7754 C 202.25623 397.76614 201.33376 397.97754 198.5586 399.34376 C 194.67937 401.25349 191.87629 404.26263 190.44727 408.05079 C 189.01455 411.84868 189.29564 417.44351 191.09375 420.95509 C 192.69407 424.08032 196.55241 427.56698 199.78711 428.81056 C 205.36762 430.956 211.85445 429.62747 216.29297 425.4297 C 220.15653 421.77572 221.10352 419.46066 221.10352 413.66798 C 221.10352 409.23372 220.99031 408.63886 219.6875 406.28712 C 216.7052 400.9037 211.48624 397.7933 205.40625 397.7754 z M 327.70899 399.73438 C 326.75401 400.70081 326.49203 401.9763 326.92188 403.56251 C 329.15196 407.30707 331.46501 412.61354 333.86329 419.48048 C 334.22924 420.51383 334.4687 421.55912 334.58204 422.6172 C 334.74301 423.6608 334.83886 424.82911 334.86719 426.1211 C 334.89553 427.4131 334.94196 428.33583 335.00587 428.88868 C 335.7028 430.4978 336.87127 432.71765 338.51173 435.54884 C 339.46127 437.13324 340.97935 438.02491 343.06837 438.22266 C 343.55792 436.40917 343.1844 434.4919 341.94727 432.47462 C 342.79434 432.00919 343.6466 431.64717 344.50391 431.38673 C 345.07545 431.2131 345.87353 431.10008 346.89844 431.04884 C 347.97099 430.98312 349.17437 431.0085 350.50977 431.12306 C 351.87834 431.17551 353.0977 431.24626 354.16602 431.3379 C 355.26751 431.36744 356.48687 431.44014 357.82227 431.5547 L 360.22462 431.76173 C 360.33434 431.78042 360.74324 431.83788 361.44923 431.93556 C 362.20284 432.01876 362.81505 432.06742 363.28712 432.08009 C 363.80681 432.07828 364.20332 432.00945 364.47462 431.87501 C 365.30299 431.51931 365.78666 431.0592 365.92774 430.4961 C 366.05435 429.88537 365.85744 429.32258 365.33594 428.8047 C 364.79998 428.23918 364.12431 427.89762 363.3086 427.78126 C 361.50535 427.49669 357.92117 427.2595 352.55665 427.06837 C 347.22528 426.81514 343.44106 426.4288 341.20313 425.91212 C 342.11471 424.8028 342.79111 423.948 343.23243 423.34571 C 343.70691 422.68133 344.04324 422.16166 344.24219 421.78907 C 344.48878 421.40202 344.94065 420.66664 345.59962 419.58204 C 346.29174 418.43534 347.10654 417.17328 348.04102 415.79688 C 348.10734 415.67269 348.27886 415.38666 348.5586 414.93751 C 348.83834 414.48836 349.0451 414.13902 349.17774 413.89063 C 349.35801 413.62777 349.58745 413.27338 349.86719 412.82423 C 350.13247 412.32745 350.30056 411.93781 350.3711 411.65626 C 350.4748 411.31261 350.54825 410.95299 350.58985 410.57618 C 350.67908 410.1849 350.65594 409.85334 350.52149 409.58204 C 350.27129 408.92971 349.90077 408.39139 349.40821 407.96876 C 348.94881 407.48403 348.56619 407.34058 348.26173 407.53712 C 347.73359 407.85363 347.31992 408.29074 347.02149 408.84962 C 346.72306 409.4085 346.41315 410.10178 346.0918 410.92774 C 345.81809 411.73923 345.54848 412.3919 345.28321 412.88868 C 345.01794 413.38546 344.66234 414.0138 344.2168 414.77345 C 343.81889 415.51862 343.52988 416.0223 343.34962 416.28516 C 343.21698 416.53356 343.01217 416.88289 342.73243 417.33204 C 342.50031 417.76672 342.30922 418.0844 342.16212 418.28516 C 342.00054 418.4383 341.83066 418.6473 341.6504 418.91016 C 341.47013 419.17302 341.26501 419.44338 341.03712 419.72071 C 340.79475 419.95041 340.53725 420.21016 340.26173 420.50196 C 340.01936 420.73166 339.67929 421.06875 339.24219 421.51368 C 338.4916 419.55669 337.38911 416.614 335.93555 412.68556 C 334.46753 408.70948 333.35802 405.74411 332.60743 403.78712 C 332.29935 402.94427 331.78641 402.11142 331.06837 401.28907 C 330.35032 400.46672 329.66928 400.0235 329.0254 399.95899 C 328.80172 400.07897 328.61049 400.13704 328.45313 400.13282 C 328.34341 400.11413 328.19607 400.05456 328.00977 399.95509 L 327.70899 399.73438 z M 253.50977 406.61134 C 252.81753 407.88492 252.40768 408.6864 252.28321 409.01563 C 252.16957 409.29629 251.99958 410.17709 251.77149 411.65626 C 251.72291 411.64542 251.19081 411.62799 250.17579 411.60548 C 249.17161 411.53438 248.52392 411.4674 248.23243 411.40235 C 248.02121 412.12025 248.36371 413.67378 249.25782 416.06641 C 250.21135 418.42131 250.55927 420.05653 250.30469 420.96876 C 250.16937 421.34658 249.73407 422.49895 248.99805 424.42579 C 248.32146 426.31489 247.87286 427.87225 247.6504 429.09766 C 247.42793 430.32307 247.4565 431.45094 247.73633 432.48243 C 248.91399 431.7762 249.93549 430.62714 250.80079 429.03516 L 253.08008 424.64649 C 253.39326 424.61438 254.14625 425.4718 255.3379 427.21681 C 256.54038 428.91322 257.79693 430.59611 259.10743 432.26563 C 260.46651 433.946 261.43395 434.74891 262.01172 434.67384 C 262.72962 434.88505 263.31801 434.76126 263.77735 434.30274 C 264.29611 433.80649 264.80265 433.02609 265.29493 431.9629 C 265.79805 430.85112 266.11924 430.20976 266.25977 430.03712 C 269.65508 424.87857 273.88078 420.56719 278.93751 417.10548 C 279.3731 419.03877 279.45694 421.63323 279.18946 424.88868 C 279.12962 425.38535 278.6881 427.93869 277.86329 432.54884 C 277.04931 437.1104 276.66036 439.88015 276.69727 440.85743 C 276.7442 442.70399 277.39896 443.7689 278.66211 444.05079 C 279.30453 444.14315 279.85033 443.98416 280.29883 443.57423 C 280.79592 443.17514 281.13122 442.58788 281.30469 441.81056 C 281.68416 440.11016 282.11755 436.22689 282.60352 430.16407 C 283.0895 424.10125 283.46091 420.71683 283.72071 420.00977 C 283.87812 419.07586 284.09005 418.12879 284.35547 417.16798 C 284.68032 416.16942 284.92745 415.17977 285.09571 414.19727 C 285.26397 413.21478 285.38659 412.32245 285.4629 411.52345 C 285.55004 410.67586 285.43996 409.913 285.13282 409.23243 C 284.83652 408.50328 284.36443 407.98895 283.7168 407.69141 C 283.03664 407.53963 282.30745 407.8357 281.5293 408.58009 L 281.26954 409.7461 L 261.23243 428.91407 C 259.26346 426.9956 257.67409 424.85662 256.4668 422.4961 C 255.30809 420.14642 254.84335 417.77398 255.07227 415.37696 C 255.38793 412.59128 255.47305 410.72188 255.32813 409.77149 C 255.19405 408.77253 254.58861 407.71913 253.50977 406.61134 z M 309.16602 416.7754 C 308.24408 417.79793 307.76945 418.98923 307.74415 420.34766 C 307.73803 420.60041 307.74421 420.87126 307.76172 421.16212 C 307.04329 420.35608 306.02384 419.85231 304.70118 419.64845 C 303.16466 419.36167 302.14584 419.2868 301.64454 419.42384 C 301.14446 419.51111 300.18712 419.91091 298.7754 420.62306 C 296.10123 422.05103 293.02045 424.86229 289.53126 429.0586 C 286.04329 433.20515 284.2644 436.72119 284.19337 439.60743 C 284.13825 441.84675 284.62398 443.27948 285.6543 443.90235 C 286.68585 444.47546 288.03792 444.23406 289.70704 443.1797 C 290.26178 442.89459 290.76404 442.65874 291.2168 442.47071 C 291.72055 442.23415 292.12281 442.06875 292.42383 441.97657 L 292.95313 441.76563 C 295.01177 441.06941 296.89808 440.26909 298.61329 439.36524 C 300.37948 438.41285 302.05052 437.30861 303.62501 436.05274 C 305.19949 434.79688 306.45594 433.3095 307.39454 431.58985 C 308.17419 430.12198 308.68094 428.57929 308.91602 426.96095 C 309.38282 428.71395 309.67753 430.05888 309.79883 430.99806 C 309.88811 431.6892 309.92662 432.76354 309.91407 434.22071 C 309.94451 435.62214 310.00479 436.87043 310.09571 437.9629 C 310.18025 439.006 310.34445 440.08824 310.58985 441.21095 C 310.82887 442.28428 311.26417 443.13096 311.89649 443.75196 C 312.57817 444.36659 313.44467 444.65628 314.49415 444.6211 C 313.61727 437.05509 315.62699 431.04856 320.52344 426.60157 C 320.84042 427.11273 321.6524 430.09617 322.95899 435.54884 C 323.45452 437.44229 324.23558 439.02155 325.30274 440.28907 C 326.18992 441.32888 327.4606 441.84304 329.11524 441.83009 C 330.7635 441.76776 332.23094 441.27649 333.51758 440.35743 C 334.80423 439.43837 335.4941 438.37101 335.5879 437.15431 C 330.61122 437.09444 327.938 436.41095 327.56837 435.10352 C 327.23863 434.49363 326.61088 432.54129 325.6836 429.24806 C 324.79931 425.89907 324.13993 423.90238 323.70508 423.25587 C 323.26386 422.55999 322.95343 422.09686 322.77344 421.86915 C 322.59346 421.64144 322.29011 421.43021 321.86329 421.23438 C 321.47945 420.98281 321.01571 420.89276 320.47266 420.9629 C 319.68278 421.06492 318.88581 421.49345 318.08008 422.25001 C 317.27436 423.00657 316.34276 424.15556 315.28712 425.69727 C 314.23147 427.23898 313.65682 428.0414 313.56446 428.10352 C 313.40833 427.67197 313.25522 427.26501 313.10547 426.88282 C 313.00509 426.49426 312.90168 426.08052 312.79493 425.64259 C 312.68179 425.15529 312.61001 424.78786 312.57813 424.54102 C 312.53987 424.24482 312.45792 423.80479 312.33204 423.21876 L 312.14063 421.73829 C 312.06411 421.14588 311.91891 420.61127 311.70704 420.13673 C 311.49517 419.66218 311.30109 419.3117 311.1211 419.08399 C 310.94111 418.85628 310.61743 418.49595 310.15235 418.00391 C 309.73026 417.45614 309.40175 417.0461 309.16602 416.7754 z M 304.00977 423.43946 C 304.65669 423.45538 305.0737 423.68982 305.26172 424.14259 C 305.50074 424.54681 305.65885 425.19949 305.73633 426.09766 C 305.88762 428.04331 304.89125 430.109 302.7461 432.29688 C 300.60095 434.48477 298.06702 436.24019 295.14649 437.56251 C 292.27572 438.88605 289.7973 439.44683 287.71094 439.2461 C 288.30487 437.36859 289.50371 435.207 291.30665 432.76173 C 293.1108 430.26669 294.74651 428.56428 296.2129 427.65431 C 296.41562 427.50992 297.14991 427.00574 298.41602 426.14063 C 299.68214 425.27552 300.74531 424.60572 301.60352 424.12891 C 302.5115 423.65333 303.31309 423.42232 304.00977 423.43946 z M 468.59571 428.39063 C 468.55885 428.39063 468.52324 428.39154 468.48634 428.39454 C 468.45394 428.39454 468.42138 428.39545 468.38868 428.39845 C 468.37638 428.40245 468.36387 428.40326 468.35157 428.40626 C 468.30207 428.41436 468.25339 428.42716 468.20509 428.43946 L 468.18165 428.44337 L 437.70118 436.60938 C 437.44387 436.67777 437.20791 436.8136 437.01954 437.00196 C 436.83119 437.19028 436.69771 437.42644 436.62891 437.6836 L 428.4629 468.16212 L 428.45899 468.18751 C 428.44269 468.23622 428.43379 468.28449 428.42579 468.33399 C 428.42179 468.34629 428.42098 468.3588 428.41798 468.3711 C 428.41698 468.403 428.41507 468.43606 428.41407 468.46876 C 428.41307 468.50561 428.41116 468.54123 428.41016 468.57813 C 428.41016 468.6461 428.41388 468.71406 428.42188 468.78126 C 428.43008 468.84554 428.44259 468.90851 428.45899 468.97071 L 428.45899 468.97267 L 428.45899 468.97462 L 428.46095 468.97657 C 428.46495 468.99737 428.47248 469.01867 428.48048 469.03907 C 428.49408 469.08417 428.51095 469.12808 428.52735 469.17188 C 428.53965 469.19488 428.55216 469.21984 428.56446 469.24024 C 428.58366 469.27704 428.6007 469.31077 428.6211 469.34767 C 428.6387 469.37307 428.65353 469.39924 428.66993 469.42384 C 428.69003 469.45534 428.71398 469.48693 428.73438 469.51563 C 428.75738 469.54313 428.78205 469.57111 428.80665 469.59571 C 428.82025 469.61291 428.83517 469.634 428.85157 469.6504 L 428.88868 469.68556 L 451.18165 491.97853 C 451.46829 492.26505 451.85332 492.42284 452.24806 492.42384 C 452.37991 492.42424 452.51196 492.408 452.64259 492.3711 L 483.11524 484.20704 L 483.11915 484.20704 L 483.12306 484.20509 L 483.14454 484.20118 C 483.16534 484.19718 483.18469 484.18965 483.20509 484.18165 C 483.2461 484.16775 483.28713 484.15508 483.32813 484.13868 L 483.33204 484.13868 C 483.38814 484.11488 483.4428 484.08535 483.4961 484.05665 C 483.53127 484.03575 483.56497 484.01484 483.59767 483.99024 C 483.62267 483.97264 483.64728 483.95586 483.67188 483.93946 C 483.72382 483.89977 483.77362 483.85686 483.82032 483.81056 C 483.86652 483.76387 483.90823 483.71462 483.94923 483.66212 C 483.96683 483.63832 483.98361 483.6125 484.00001 483.5879 C 484.02381 483.55473 484.04602 483.52314 484.06642 483.48634 C 484.09682 483.43351 484.12385 483.37878 484.14845 483.32228 L 484.14845 483.31837 C 484.16645 483.27865 484.17912 483.23672 484.19142 483.19532 C 484.19952 483.17492 484.20295 483.15518 484.21095 483.13478 L 484.21485 483.11329 L 484.21681 483.10938 L 484.21681 483.10548 L 492.38087 452.63282 C 492.52025 452.11064 492.37033 451.55392 491.98829 451.17188 L 469.69727 428.87891 L 469.66017 428.84181 C 469.64287 428.82421 469.62188 428.81328 469.60548 428.79688 C 469.57968 428.77188 469.5541 428.74922 469.5254 428.72462 C 469.4954 428.70222 469.4663 428.68056 469.4336 428.66016 C 469.409 428.64256 469.38203 428.62774 469.35743 428.61134 C 469.32223 428.59214 469.28691 428.5711 469.25001 428.5547 C 469.22781 428.5425 469.20625 428.52989 469.18165 428.51759 C 469.13777 428.49999 469.09384 428.48301 469.04884 428.47071 C 469.02844 428.46261 469.00674 428.45918 468.98634 428.45118 L 468.98438 428.44923 L 468.98243 428.44923 L 468.98048 428.44923 C 468.91824 428.43273 468.85492 428.42012 468.79102 428.41212 C 468.72346 428.40282 468.6559 428.39969 468.5879 428.4004 L 468.59571 428.39063 z M 75.884767 428.4004 L 75.884767 428.40626 C 75.816793 428.40626 75.748802 428.41193 75.681642 428.41993 C 75.617353 428.42813 75.552476 428.44064 75.490236 428.45704 L 75.488283 428.45704 L 75.48633 428.45704 L 75.484376 428.45899 C 75.463486 428.46299 75.4443 428.47052 75.42383 428.47852 C 75.378778 428.49212 75.332874 428.509 75.289064 428.5254 C 75.266534 428.5376 75.243128 428.55021 75.222658 428.56251 C 75.185804 428.58171 75.150143 428.5968 75.113283 428.6172 C 75.087903 428.6348 75.063634 428.65158 75.039064 428.66798 C 75.007534 428.68798 74.973974 428.71203 74.945314 428.73243 C 74.917874 428.75543 74.891759 428.7801 74.867189 428.8047 C 74.849989 428.8183 74.828881 428.83322 74.812501 428.84962 L 74.779298 428.88673 L 52.486329 451.1797 C 52.102243 451.56188 51.956478 452.11845 52.095704 452.64063 L 60.259767 483.11329 C 60.259726 483.11429 60.259726 483.11622 60.259767 483.1172 L 60.26172 483.1211 L 60.265626 483.14259 C 60.273816 483.16339 60.276957 483.18273 60.285157 483.20313 C 60.299077 483.24405 60.311746 483.28323 60.328126 483.32423 L 60.328126 483.32813 C 60.351866 483.38423 60.381497 483.44085 60.410157 483.49415 C 60.431047 483.52932 60.451994 483.56301 60.476564 483.59571 C 60.494174 483.62071 60.510965 483.64533 60.527345 483.66993 C 60.567062 483.72187 60.609981 483.77167 60.656251 483.81837 C 60.702933 483.86456 60.752279 483.90628 60.804689 483.94728 C 60.828449 483.96488 60.854337 483.98166 60.878907 483.99806 C 60.912078 484.02186 60.94361 484.04406 60.98047 484.06446 C 61.033293 484.09476 61.088022 484.12189 61.144532 484.14649 L 61.148439 484.14649 C 61.188157 484.16039 61.230536 484.17716 61.271486 484.18946 C 61.291956 484.19756 61.311562 484.20099 61.332032 484.20899 L 61.353517 484.2129 L 61.357423 484.21485 L 61.361329 484.21485 L 91.832033 492.37892 C 91.962659 492.41462 92.095119 492.43206 92.226564 492.43165 C 92.621388 492.43067 93.008285 492.27298 93.294924 491.98634 L 115.58789 469.69337 L 115.62305 469.65626 C 115.64065 469.63906 115.65352 469.61992 115.66992 469.60352 C 115.69492 469.57772 115.71759 469.55215 115.74219 469.52345 C 115.76459 469.49355 115.78624 469.46435 115.80664 469.43165 C 115.82434 469.40705 115.83907 469.38008 115.85547 469.35548 C 115.87467 469.32028 115.89571 469.28496 115.91211 469.24806 C 115.92441 469.22586 115.93301 469.2043 115.94531 469.1797 C 115.96291 469.1359 115.97989 469.09188 115.99219 469.04688 C 116.00039 469.02648 116.00372 469.00478 116.01172 468.98438 L 116.01367 468.98243 L 116.01367 468.98048 L 116.01367 468.97852 C 116.03427 468.91628 116.04669 468.85287 116.05469 468.78907 C 116.06399 468.7215 116.0671 468.65395 116.06641 468.58595 C 116.06641 468.5491 116.0655 468.51347 116.0625 468.47657 C 116.0625 468.44407 116.0616 468.41162 116.0586 468.37892 C 116.0546 468.36662 116.05378 468.35411 116.05078 468.34181 C 116.04668 468.2923 116.03379 468.24362 116.02149 468.19532 L 116.01758 468.16993 L 107.85156 437.69141 C 107.78277 437.43404 107.64929 437.20008 107.46094 437.01173 C 107.27261 436.82336 107.03645 436.68795 106.7793 436.61915 L 76.29883 428.45313 L 76.275392 428.44923 C 76.227067 428.43293 76.178448 428.42402 76.128908 428.41602 C 76.116618 428.41202 76.104088 428.41121 76.091798 428.40821 C 76.059858 428.40721 76.026902 428.40529 75.994142 428.40431 C 75.9577 428.40331 75.921627 428.40138 75.884767 428.4004 z M 76.556642 432.42579 L 93.875002 446.66017 L 68.679689 453.41212 L 76.556642 432.42579 z M 467.91602 432.42579 L 475.79298 453.41212 L 450.59767 446.66017 L 467.91602 432.42579 z M 82.250002 433.18556 L 103.46094 438.86915 L 97.011721 445.32032 L 82.250002 433.18556 z M 462.22267 433.18556 L 447.46095 445.32032 L 441.01173 438.86915 L 462.22267 433.18556 z M 205.42969 434.89454 C 201.84544 434.8904 200.97827 435.0668 198.53516 436.3047 C 195.40181 437.89235 192.52936 440.74977 190.91211 443.88477 C 189.30674 446.99682 189.08498 452.80887 190.43555 456.38868 C 192.24624 461.18814 196.35184 464.86475 201.53711 466.33009 C 206.48778 467.72915 213.41957 465.73126 216.96875 461.88087 C 220.40494 458.15304 221.10396 456.28027 221.10352 450.8047 C 221.1032 446.51423 220.96147 445.71323 219.82032 443.55079 C 218.25801 440.59026 214.81949 437.33245 211.78321 435.93556 C 210.0406 435.13385 208.59756 434.89854 205.42969 434.89454 z M 72.005861 435.9336 L 65.291017 453.82032 L 56.48047 451.45704 L 72.005861 435.9336 z M 472.46681 435.9336 L 487.9922 451.45704 L 479.18165 453.82032 L 472.46681 435.9336 z M 105.60352 441.01173 L 111.28711 462.22071 L 99.152346 447.46095 L 105.60352 441.01173 z M 438.86915 441.01173 L 445.32032 447.46095 L 433.18556 462.22071 L 438.86915 441.01173 z M 94.968752 449.50392 L 88.050783 475.32032 L 78.601564 465.8711 L 69.152345 456.42188 L 94.968752 449.50392 z M 449.50392 449.50392 L 475.32032 456.42188 L 465.8711 465.8711 L 456.42188 475.32032 L 449.50392 449.50392 z M 97.812502 450.59767 L 112.04688 467.91602 L 91.060549 475.79298 L 97.812502 450.59767 z M 446.66017 450.59767 L 453.41212 475.79298 L 432.42579 467.91602 L 446.66017 450.59767 z M 55.697267 454.38282 L 64.507814 456.74415 L 61.380861 475.59376 L 55.697267 454.38282 z M 488.7754 454.38282 L 483.09181 475.59376 L 479.96485 456.74415 L 488.7754 454.38282 z M 67.238283 458.79102 L 76.460939 468.01173 L 85.681642 477.23438 L 63.568361 480.90431 L 67.238283 458.79102 z M 477.23438 458.79102 L 480.90431 480.90431 L 458.79102 477.23438 L 468.01173 468.01173 L 477.23438 458.79102 z M 223.66602 466.76173 C 216.92646 466.86281 210.622 471.27233 208.55274 478.24024 C 206.14056 486.36291 210.56155 495.05823 218.55079 497.90821 C 221.97622 499.13016 227.52171 498.90828 230.58008 497.42774 C 243.14317 491.34604 243.04139 473.83068 230.41016 468.16212 C 228.20715 467.17347 225.91254 466.72804 223.66602 466.76173 z M 108.53906 472.46681 L 93.015627 487.9922 L 90.652346 479.18165 L 108.53906 472.46681 z M 435.9336 472.46681 L 453.82032 479.18165 L 451.45899 487.9922 L 435.9336 472.46681 z M 110.25 479.45118 L 93.625002 496.34571 L 61.656251 487.63868 C 69.590587 495.33712 62.911534 501.83139 83.744142 507.13868 C 85.067554 501.15083 76.116352 495.53785 85.974611 497.98243 L 89.998049 499.11134 C 89.103285 502.17686 85.255134 528.85939 123.79688 528.85939 L 185.96485 528.85939 L 181.08985 525.00196 C 192.11833 523.92592 189.20247 514.84071 193.11329 509.67579 C 193.11329 509.67579 186.30104 510.56226 183.19141 513.67189 C 178.87688 517.98642 174.54467 524.29384 168.56055 524.62306 C 160.31964 525.07661 164.46543 523.20118 148.47657 523.20118 L 123.08594 523.20118 C 106.37688 523.20118 104.30469 519.38673 104.30469 519.38673 L 172.14844 519.38673 L 169.14258 516.97462 C 173.51239 517.53929 173.91279 514.07772 176.08985 511.71876 C 176.08985 511.71876 171.75297 511.40124 169.25196 512.69923 C 165.18484 514.80996 166.1584 517.06837 163.4375 517.06837 L 104.86719 517.06837 C 95.757801 516.47665 92.586278 509.91273 95.912111 500.69532 C 103.88392 503.27347 108.87432 495.10379 108.71094 489.14845 C 108.59742 485.01499 110.25 479.45118 110.25 479.45118 z M 434.22266 479.45118 C 434.22266 479.45118 435.87515 485.01499 435.76173 489.14845 C 435.59822 495.10379 440.58876 503.27347 448.56056 500.69532 C 451.88644 509.91273 448.71484 516.47665 439.60548 517.06837 L 381.03516 517.06837 C 378.31426 517.06837 379.28783 514.80996 375.22071 512.69923 C 372.71971 511.40116 368.38282 511.71876 368.38282 511.71876 C 370.55993 514.07772 370.96023 517.53929 375.33009 516.97462 L 372.32423 519.38673 L 440.16798 519.38673 C 440.16798 519.38673 438.09579 523.20118 421.38673 523.20118 L 395.9961 523.20118 C 380.00724 523.20118 384.15304 525.07661 375.91212 524.62306 C 369.92799 524.29368 365.5958 517.98642 361.28126 513.67189 C 358.17164 510.56226 351.35938 509.67579 351.35938 509.67579 C 355.27025 514.84071 352.35434 523.92592 363.38282 525.00196 L 358.50782 528.85939 L 420.67579 528.85939 C 459.21754 528.85939 455.36939 502.17686 454.47462 499.11134 L 458.49806 497.98243 C 468.35632 495.53785 459.40506 501.15083 460.72852 507.13868 C 481.56108 501.83139 474.88208 495.33712 482.81642 487.63868 L 450.84767 496.34571 L 434.22266 479.45118 z M 87.728517 479.96485 L 90.089846 488.7754 L 68.878908 483.09181 L 87.728517 479.96485 z M 456.74415 479.96485 L 475.59376 483.09181 L 454.38282 488.7754 L 456.74415 479.96485 z " /></svg>
