<?xml version="1.0" encoding="UTF-8" standalone="no"?>
<svg
   viewBox="0 0 548.0315 548.03151"
   width="145mm"
   height="145mm"
   version="1.1"
   id="svg65"
   sodipodi:docname="paladin lid.svg"
   inkscape:version="1.4.2 (f4327f4, 2025-05-13)"
   xml:space="preserve"
   xmlns:inkscape="http://www.inkscape.org/namespaces/inkscape"
   xmlns:sodipodi="http://sodipodi.sourceforge.net/DTD/sodipodi-0.dtd"
   xmlns="http://www.w3.org/2000/svg"
   xmlns:svg="http://www.w3.org/2000/svg"><sodipodi:namedview
     id="namedview65"
     pagecolor="#ffffff"
     bordercolor="#666666"
     borderopacity="1.0"
     inkscape:showpageshadow="2"
     inkscape:pageopacity="0.0"
     inkscape:pagecheckerboard="0"
     inkscape:deskcolor="#d1d1d1"
     inkscape:zoom="1.0045043"
     inkscape:cx="326.52921"
     inkscape:cy="240.91485"
     inkscape:window-width="933"
     inkscape:window-height="1046"
     inkscape:window-x="2571"
     inkscape:window-y="43"
     inkscape:window-maximized="0"
     inkscape:current-layer="svg65"
     inkscape:document-units="mm" /><desc
     id="desc1">outline.dxf - scale = 1.000000, origin = (0.000000, 0.000000), method = manual</desc><defs
     id="defs4"><marker
       id="DistanceX"
       orient="auto"
       refX="0"
       refY="0"
       style="overflow:visible"><path
         d="M 3,-3 -3,3 M 0,-5 V 5"
         style="stroke:#000000;stroke-width:0.5"
         id="path1" /></marker><pattern
       id="Hatch"
       patternUnits="userSpaceOnUse"
       width="8"
       height="8"
       x="0"
       y="0"><path
         d="M8 4 l-4,4"
         stroke="#000000"
         stroke-width="0.25"
         linecap="square"
         id="path2" /><path
         d="M6 2 l-4,4"
         stroke="#000000"
         stroke-width="0.25"
         linecap="square"
         id="path3" /><path
         d="M4 0 l-4,4"
         stroke="#000000"
         stroke-width="0.25"
         linecap="square"
         id="path4" /></pattern><symbol
       id="*MODEL_SPACE" /><symbol
       id="*PAPER_SPACE" /></defs><path
     id="outline"
     style="display:inline;opacity:1;fill:#000000;fill-opacity:1;stroke:none;stroke-width:1;stroke-linecap:round;stroke-dasharray:none;stroke-opacity:1;paint-order:fill markers stroke"
     inkscape:label="outline"
     d="M -25.984376 -25.984376 L -25.984376 574.01564 L 574.01564 574.01564 L 574.01564 -25.984376 L -25.984376 -25.984376 z M 120.47852 0.49414063 L 427.55274 0.49414063 C 444.66376 0.49413963 461.07452 7.2913084 473.17384 19.390625 L 528.63673 74.851564 L 528.63673 74.853517 C 540.73605 86.952837 547.53321 103.36164 547.53321 120.47266 L 547.53321 427.55079 C 547.53321 444.66181 540.73605 461.07256 528.63673 473.17188 L 473.17384 528.63868 C 461.07451 540.73797 444.66375 547.53519 427.55274 547.53517 L 120.47852 547.53517 L 120.47852 547.53126 C 103.36799 547.53129 86.958606 540.73343 74.859376 528.63478 L 74.857423 528.63478 L 19.394532 473.16993 C 7.2963196 461.07117 0.49856488 444.66257 0.49804688 427.55274 L 0.49804688 120.47461 C 0.49804588 103.36359 7.2952146 86.952837 19.394532 74.853517 L 74.857423 19.392579 L 74.857423 19.390625 C 86.956743 7.2913084 103.3675 0.49413963 120.47852 0.49414063 z M 123.79688 15.613282 C 85.255134 15.613282 89.103285 42.295846 89.998049 45.361329 L 85.974611 46.490235 C 76.116352 48.934818 85.067554 43.323749 83.744142 37.335938 C 62.911534 42.643185 69.590587 49.135594 61.656251 56.833986 L 93.625002 48.126954 L 110.25 65.021486 C 110.25 65.021486 108.59751 59.45768 108.71094 55.32422 C 108.87448 49.368881 103.88392 41.199189 95.912111 43.777345 C 92.586278 34.559929 95.757882 27.996002 104.86719 27.404297 L 163.4375 27.404297 C 166.1584 27.404297 165.18484 29.662709 169.25196 31.773438 C 171.75297 33.071504 176.08985 32.753907 176.08985 32.753907 C 173.91279 30.394949 173.51239 26.933368 169.14258 27.498047 L 172.14844 25.085938 L 104.30469 25.085938 C 104.30469 25.085938 106.37688 21.271485 123.08594 21.271485 L 148.47657 21.271485 C 164.46543 21.271485 160.31964 19.396025 168.56055 19.84961 C 174.54467 20.178959 178.87688 26.486248 183.19141 30.800782 C 186.30104 33.910408 193.11329 34.796876 193.11329 34.796876 C 189.20247 29.632006 192.11833 20.546788 181.08985 19.470704 L 185.96485 15.613282 L 123.79688 15.613282 z M 358.50782 15.613282 L 363.38282 19.470704 C 352.35434 20.546788 355.27025 29.632006 351.35938 34.796876 C 351.35938 34.796876 358.17164 33.910408 361.28126 30.800782 C 365.5958 26.486248 369.92799 20.178835 375.91212 19.84961 C 384.15304 19.396065 380.00724 21.271485 395.9961 21.271485 L 421.38673 21.271485 C 438.09579 21.271485 440.16798 25.085938 440.16798 25.085938 L 372.32423 25.085938 L 375.33009 27.498047 C 370.96023 26.933368 370.55993 30.394949 368.38282 32.753907 C 368.38282 32.753907 372.71971 33.071422 375.22071 31.773438 C 379.28783 29.662709 378.31426 27.404297 381.03516 27.404297 L 439.60548 27.404297 C 448.71488 27.996002 451.88644 34.559929 448.56056 43.777345 C 440.58876 41.199189 435.59834 49.368881 435.76173 55.32422 C 435.87523 59.45768 434.22266 65.021486 434.22266 65.021486 L 450.84767 48.126954 L 482.81642 56.833986 C 474.88208 49.135594 481.56108 42.643185 460.72852 37.335938 C 459.40506 43.323749 468.35632 48.934818 458.49806 46.490235 L 454.47462 45.361329 C 455.36939 42.295846 459.21754 15.613282 420.67579 15.613282 L 358.50782 15.613282 z M 452.2422 52.033204 C 451.84738 52.034391 451.46243 52.191877 451.17579 52.478517 L 428.88282 74.771486 L 428.84571 74.808595 C 428.82811 74.825795 428.81524 74.84086 428.79884 74.86133 C 428.77384 74.88713 428.75312 74.912738 428.72852 74.941408 C 428.70612 74.971288 428.68447 75.000445 428.66407 75.033205 C 428.64637 75.057775 428.62969 75.084806 428.61329 75.109376 C 428.59409 75.14459 428.57305 75.179938 428.55665 75.216798 C 428.54435 75.238908 428.53379 75.260588 428.52149 75.285158 C 428.50389 75.32897 428.48692 75.37293 428.47462 75.41797 C 428.46652 75.43844 428.46113 75.46 428.45313 75.48047 L 428.45118 75.482423 L 428.45118 75.484376 L 428.45118 75.48633 C 428.43478 75.548572 428.42207 75.611903 428.41407 75.675783 C 428.40477 75.743349 428.40165 75.810938 428.40235 75.878908 C 428.40235 75.915759 428.40326 75.951423 428.40626 75.988283 C 428.40626 76.020643 428.40716 76.053179 428.41016 76.085939 C 428.41416 76.098229 428.41498 76.110768 428.41798 76.123048 C 428.42608 76.172603 428.43888 76.221213 428.45118 76.269533 L 428.45509 76.294923 L 436.61524 106.77344 C 436.68404 107.03081 436.8175 107.26673 437.00587 107.45508 C 437.1942 107.64345 437.43036 107.77886 437.68751 107.84766 L 468.16798 116.01367 L 468.19142 116.01758 C 468.23972 116.02988 468.2883 116.03692 468.3379 116.04492 C 468.3502 116.04892 468.36271 116.04974 468.37501 116.05274 C 468.40691 116.05374 468.43997 116.05762 468.47267 116.0586 C 468.50913 116.0596 468.54514 116.06152 468.58204 116.0625 C 468.65001 116.0625 468.71797 116.05683 468.78517 116.04883 C 468.84906 116.04063 468.91242 116.02812 468.97462 116.01172 L 468.97657 116.01172 L 468.97852 116.01172 L 468.98048 116.00977 C 469.00128 116.00577 469.02258 115.99824 469.04298 115.99024 C 469.08807 115.97664 469.13199 115.95976 469.17579 115.94336 C 469.19879 115.93526 469.22375 115.92246 469.24415 115.91016 C 469.28096 115.89506 469.31477 115.87587 469.35157 115.85547 C 469.37697 115.83787 469.40314 115.82109 469.42774 115.80469 C 469.45924 115.78469 469.49084 115.76484 469.51954 115.74024 C 469.54704 115.71724 469.57502 115.69452 469.59962 115.66992 C 469.61682 115.65632 469.63791 115.63945 469.65431 115.62305 L 469.68556 115.58594 L 491.97853 93.292971 C 492.36282 92.910799 492.51031 92.354208 492.3711 91.832033 L 484.20704 61.359376 L 484.20704 61.35547 L 484.20509 61.351564 L 484.20118 61.332032 C 484.19718 61.311152 484.18965 61.290002 484.18165 61.269532 C 484.16775 61.228584 484.15508 61.189379 484.13868 61.148439 L 484.13868 61.144532 C 484.11488 61.088433 484.08535 61.0337 484.05665 60.98047 C 484.03575 60.945669 484.01484 60.909714 483.99024 60.876954 C 483.97254 60.852384 483.95586 60.829259 483.93946 60.804689 C 483.89976 60.752686 483.85686 60.700978 483.81056 60.654298 C 483.76388 60.608031 483.71462 60.566342 483.66212 60.525392 C 483.63842 60.507782 483.6125 60.490991 483.5879 60.474611 C 483.55473 60.450851 483.52324 60.428674 483.48634 60.408204 C 483.43311 60.377894 483.37878 60.350743 483.32228 60.326173 L 483.31642 60.326173 C 483.2767 60.308163 483.23632 60.297437 483.19532 60.285157 C 483.17492 60.276977 483.15518 60.271873 483.13478 60.263673 L 483.11329 60.259767 L 483.10938 60.257814 L 483.10548 60.257814 L 452.63282 52.093751 C 452.5022 52.058131 452.36973 52.040648 452.23829 52.041017 L 452.2422 52.033204 z M 92.226564 52.041017 C 92.09471 52.040607 91.962659 52.060991 91.832033 52.093751 L 61.361329 60.257814 L 61.357423 60.257814 L 61.351564 60.259767 L 61.332032 60.263673 C 61.311142 60.267763 61.290002 60.275004 61.269532 60.283204 C 61.228585 60.297134 61.189389 60.309793 61.148439 60.326173 L 61.144532 60.326173 C 61.088432 60.349923 61.0337 60.379534 60.98047 60.408204 C 60.945669 60.429504 60.909714 60.450041 60.876954 60.474611 C 60.852384 60.492221 60.829259 60.509022 60.804689 60.525392 C 60.752686 60.565109 60.702931 60.608028 60.656251 60.654298 C 60.609984 60.70098 60.568285 60.750326 60.527345 60.802736 C 60.509735 60.826496 60.492934 60.852384 60.476564 60.876954 C 60.452804 60.910125 60.428674 60.941657 60.408204 60.978517 C 60.377894 61.03134 60.352696 61.086479 60.328126 61.142579 L 60.328126 61.146486 C 60.314206 61.186203 60.297447 61.228172 60.285157 61.269532 C 60.276977 61.290002 60.271873 61.309609 60.263673 61.330079 L 60.259767 61.351564 L 60.257814 61.35547 L 60.257814 61.359376 L 52.093751 91.832033 C 51.954403 92.354208 52.10428 92.910922 52.486329 93.292971 L 74.779298 115.58594 L 74.812501 115.62305 C 74.829691 115.64065 74.846719 115.65157 74.867189 115.66797 C 74.892989 115.69297 74.916654 115.71564 74.945314 115.74024 C 74.975204 115.76274 75.006304 115.78429 75.039064 115.80469 C 75.063634 115.82229 75.088713 115.83712 75.113283 115.85352 C 75.148497 115.87272 75.185798 115.89376 75.222658 115.91016 C 75.244768 115.92246 75.264494 115.93106 75.289064 115.94336 C 75.332877 115.96086 75.376836 115.97794 75.421876 115.99024 C 75.442346 115.99834 75.463906 116.00177 75.484376 116.00977 L 75.48633 116.01172 L 75.488283 116.01172 L 75.490236 116.01172 C 75.552478 116.03232 75.615809 116.04474 75.679689 116.05274 C 75.747254 116.06204 75.814844 116.06515 75.882814 116.06446 C 75.919665 116.06446 75.955339 116.06355 75.992189 116.06055 C 76.024549 116.06055 76.057085 116.05964 76.089845 116.05664 C 76.102135 116.05264 76.114665 116.05183 76.126955 116.04883 C 76.1765 116.04473 76.225129 116.03183 76.273439 116.01953 L 76.29883 116.01563 L 106.77735 107.85156 C 107.03466 107.78277 107.27063 107.64735 107.45899 107.45899 C 107.64736 107.27066 107.78081 107.0345 107.84961 106.77735 L 116.01563 76.29883 L 116.01953 76.273439 C 116.03183 76.224704 116.04083 76.176505 116.04883 76.126955 C 116.05283 76.114665 116.05364 76.102135 116.05664 76.089845 C 116.05764 76.057905 116.05956 76.024949 116.06055 75.992189 C 116.06555 75.955748 116.06738 75.919674 116.06836 75.882814 C 116.06836 75.814839 116.06464 75.746849 116.05664 75.679689 C 116.04844 75.615399 116.03593 75.552476 116.01953 75.490236 L 116.01953 75.488283 L 116.01953 75.48633 L 116.01758 75.484376 C 116.01358 75.463496 116.00605 75.442346 115.99805 75.421876 C 115.98445 75.376824 115.96757 75.332874 115.95117 75.289064 C 115.94307 75.266134 115.93027 75.241175 115.91797 75.220705 C 115.89877 75.183851 115.88368 75.150143 115.86328 75.113283 C 115.84568 75.087903 115.8289 75.061681 115.8125 75.037111 C 115.7925 75.005581 115.76845 74.973984 115.74805 74.945314 C 115.72505 74.917874 115.70038 74.889806 115.67578 74.865236 C 115.66218 74.848036 115.64726 74.828881 115.63086 74.812501 L 115.59375 74.779298 L 93.300783 52.486329 C 93.014144 52.199812 92.62912 52.042217 92.234377 52.041017 L 92.226564 52.041017 z M 90.089846 55.697267 L 87.728517 64.507814 L 68.878908 61.380861 L 90.089846 55.697267 z M 454.38282 55.697267 L 475.59376 61.380861 L 456.74415 64.507814 L 454.38282 55.697267 z M 93.015627 56.48047 L 108.53906 72.005861 L 90.652346 65.291017 L 93.015627 56.48047 z M 451.45899 56.48047 L 453.82032 65.291017 L 435.9336 72.005861 L 451.45899 56.48047 z M 56.833986 61.656251 C 49.135594 69.590587 42.641232 62.911575 37.333985 83.744142 C 43.321795 85.067556 48.934817 76.116352 46.490235 85.974611 L 45.361329 89.998049 C 42.295846 89.103284 15.611328 85.255126 15.611328 123.79688 L 15.611328 185.96485 L 19.470704 181.08985 C 20.546788 192.11833 29.632007 189.20247 34.796876 193.11329 C 34.796876 193.11329 33.910407 186.30105 30.800782 183.19141 C 26.486248 178.87689 20.178836 174.54469 19.84961 168.56055 C 19.396066 160.31964 21.271485 164.46543 21.271485 148.47657 L 21.271485 123.08594 C 21.271485 106.37689 25.083985 104.30469 25.083985 104.30469 L 25.083985 172.14844 L 27.498047 169.14258 C 26.933368 173.51239 30.394948 173.91278 32.753907 176.08985 C 32.753907 176.08985 33.071422 171.75297 31.773438 169.25196 C 29.662709 165.18484 27.404297 166.1584 27.404297 163.4375 L 27.404297 104.86719 C 27.996002 95.757793 34.559931 92.586278 43.777345 95.912111 C 41.199191 103.88391 49.368881 108.87432 55.32422 108.71094 C 59.457679 108.59743 65.021486 110.25 65.021486 110.25 L 48.126954 93.625002 L 56.833986 61.656251 z M 487.63868 61.656251 L 496.34571 93.625002 L 479.45118 110.25 C 479.45118 110.25 485.01499 108.59752 489.14845 108.71094 C 495.10379 108.87449 503.27347 103.88391 500.69532 95.912111 C 509.91273 92.586278 516.47666 95.757874 517.06837 104.86719 L 517.06837 163.4375 C 517.06837 166.1584 514.80996 165.18484 512.69923 169.25196 C 511.40116 171.75297 511.71876 176.08985 511.71876 176.08985 C 514.07772 173.91278 517.53929 173.51239 516.97462 169.14258 L 519.38868 172.14844 L 519.38868 104.30469 C 519.38868 104.30469 523.20118 106.37689 523.20118 123.08594 L 523.20118 148.47657 C 523.20118 164.46543 525.07661 160.31964 524.62306 168.56055 C 524.29367 174.54469 517.98642 178.87689 513.67189 183.19141 C 510.56226 186.30105 509.67579 193.11329 509.67579 193.11329 C 514.84071 189.20247 523.92592 192.11833 525.00196 181.08985 L 528.86134 185.96485 L 528.86134 123.79688 C 528.86134 85.255126 502.17686 89.103284 499.11134 89.998049 L 497.98243 85.974611 C 495.53781 76.116352 501.15083 85.067556 507.13868 83.744142 C 501.83139 62.911575 495.33712 69.590587 487.63868 61.656251 z M 63.568361 63.568361 L 85.681642 67.238283 L 76.460939 76.460939 L 67.238283 85.681642 L 63.568361 63.568361 z M 480.90431 63.568361 L 477.23438 85.681642 L 468.01173 76.460939 L 458.79102 67.238283 L 480.90431 63.568361 z M 91.060549 68.679689 L 112.04688 76.556642 L 97.812502 93.875002 L 91.060549 68.679689 z M 453.41212 68.679689 L 446.66017 93.875002 L 432.42579 76.556642 L 453.41212 68.679689 z M 61.380861 68.878908 L 64.507814 87.728517 L 55.697267 90.089846 L 61.380861 68.878908 z M 483.09181 68.878908 L 488.7754 90.089846 L 479.96485 87.728517 L 483.09181 68.878908 z M 88.050783 69.152345 L 94.968752 94.968752 L 69.152345 88.050783 L 78.601564 78.601564 L 88.050783 69.152345 z M 456.42188 69.152345 L 465.8711 78.601564 L 475.32032 88.050783 L 449.50392 94.968752 L 456.42188 69.152345 z M 111.28711 82.250002 L 105.60352 103.46094 L 99.152346 97.011721 L 111.28711 82.250002 z M 433.18556 82.250002 L 445.32032 97.011721 L 438.86915 103.46094 L 433.18556 82.250002 z M 267.18751 89.408205 C 266.8507 89.407877 266.50591 89.426132 266.15235 89.462892 C 265.14217 89.567923 264.24781 89.802251 263.46876 90.166017 C 262.70362 90.512627 262.02622 90.95189 261.43751 91.484377 C 260.84879 92.016863 260.33699 92.619614 259.9043 93.292971 C 259.48554 93.94917 259.13367 94.630502 258.84571 95.335939 C 258.44178 94.623893 257.95844 93.984006 257.39649 93.414064 C 256.83454 92.844123 256.21174 92.374766 255.5293 92.005861 C 254.84525 91.621416 254.09385 91.345941 253.2754 91.179689 C 252.45694 91.013438 251.58881 90.976932 250.67188 91.072267 C 249.89482 91.15306 249.18175 91.314254 248.53125 91.554689 C 247.8963 91.793508 247.32218 92.095513 246.81055 92.462892 C 246.29731 92.81473 245.83642 93.217039 245.42774 93.667971 C 245.01906 94.118902 244.66054 94.59621 244.35157 95.099611 L 244.08008 92.488283 L 233.84571 93.552736 L 233.93555 94.414064 C 234.61937 94.342967 235.17386 94.373014 235.59571 94.501955 C 236.0331 94.629281 236.37181 94.805214 236.61524 95.031252 C 236.8726 95.240132 237.05532 95.480292 237.16211 95.751955 C 237.26891 96.023618 237.33514 96.276649 237.35938 96.509768 L 239.28125 114.9961 C 239.31519 115.32246 239.30083 115.63838 239.23829 115.94336 C 239.18967 116.23118 239.06045 116.50436 238.85157 116.76172 C 238.64107 117.00354 238.33281 117.21494 237.92774 117.39844 C 237.53659 117.56478 237.01602 117.68214 236.36329 117.75 L 236.45313 118.61328 L 249.83399 117.22071 L 249.74415 116.35938 C 249.15358 116.42078 248.64943 116.41044 248.23243 116.32813 C 247.83097 116.24419 247.49657 116.12158 247.22852 115.96094 C 246.9744 115.78314 246.77952 115.58314 246.64649 115.36133 C 246.529 115.13791 246.45979 114.9089 246.43555 114.67578 L 245.24024 103.1836 C 245.08027 101.64501 245.07514 100.31059 245.22461 99.179689 C 245.38963 98.047177 245.65319 97.107882 246.01563 96.363283 C 246.392 95.601527 246.84954 95.028732 247.39063 94.64258 C 247.94565 94.239271 248.53461 94.004089 249.15625 93.939455 C 249.65357 93.887748 250.13241 93.956659 250.5918 94.144533 C 251.04958 94.316866 251.46008 94.642505 251.82422 95.123049 C 252.20391 95.601976 252.5306 96.244535 252.80274 97.04883 C 253.07487 97.853125 253.27207 98.854109 253.39649 100.05078 L 254.80274 113.57031 C 254.83506 113.88114 254.81213 114.18161 254.73243 114.47266 C 254.66665 114.74655 254.51867 114.99868 254.29102 115.22656 C 254.07891 115.45284 253.77787 115.64811 253.38672 115.81446 C 252.99396 115.96526 252.49478 116.0737 251.88868 116.13672 L 251.97852 116.99805 L 265.28907 115.61524 L 265.19922 114.75196 C 264.51541 114.82305 263.95497 114.7953 263.51758 114.66797 C 263.09574 114.53903 262.7633 114.3687 262.52149 114.15821 C 262.27806 113.93217 262.10289 113.68377 261.9961 113.41211 C 261.88931 113.14045 261.82502 112.88742 261.80079 112.6543 L 260.6836 101.90821 C 260.51717 100.30746 260.50611 98.925653 260.65235 97.763674 C 260.81252 96.584538 261.08033 95.607377 261.45508 94.83008 C 261.82822 94.037242 262.28475 93.438805 262.82422 93.037111 C 263.37924 92.633802 263.97414 92.400236 264.61133 92.333986 C 265.10865 92.282279 265.58749 92.349237 266.04688 92.537111 C 266.50466 92.709445 266.92305 93.034746 267.30274 93.513674 C 267.68243 93.992601 268.00912 94.63516 268.28126 95.439455 C 268.55339 96.24375 268.75058 97.244734 268.87501 98.441408 L 270.28126 111.96094 C 270.31357 112.27176 270.29065 112.57223 270.21094 112.86328 C 270.14516 113.13718 269.99719 113.3893 269.76954 113.61719 C 269.55742 113.84346 269.25638 114.03874 268.86524 114.20508 C 268.47248 114.35588 267.9733 114.46433 267.36719 114.52735 L 267.45704 115.38867 L 280.76758 114.00586 L 280.67774 113.14258 C 280.02501 113.21045 279.4886 113.18762 279.06836 113.07422 C 278.64813 112.96082 278.31043 112.80662 278.05469 112.61328 C 277.79734 112.4044 277.609 112.17443 277.48829 111.91992 C 277.38311 111.6638 277.31721 111.41867 277.29297 111.18555 L 276.04297 99.156252 C 275.8927 97.710918 275.55619 96.370705 275.03516 95.136721 C 274.52806 93.885579 273.85203 92.817638 273.00586 91.931642 C 272.15809 91.030106 271.15379 90.35687 269.99219 89.912111 C 269.13265 89.57733 268.19791 89.409189 267.18751 89.408205 z M 283.3711 89.876955 L 283.24805 90.734377 C 283.88229 90.824634 284.38935 90.975574 284.76954 91.187502 C 285.16519 91.401631 285.4631 91.641194 285.66212 91.906252 C 285.86333 92.155841 285.98352 92.419379 286.02344 92.693361 C 286.07883 92.969545 286.08967 93.223043 286.05665 93.45508 L 284.28321 105.91602 C 284.15113 106.84417 284.09654 107.78226 284.11915 108.73242 C 284.14175 109.68259 284.26659 110.59264 284.49024 111.46094 C 284.71389 112.32924 285.04763 113.14075 285.49219 113.89844 C 285.93895 114.64066 286.5167 115.28492 287.22852 115.82813 C 287.94034 116.37133 288.79598 116.79182 289.79493 117.0918 C 290.79388 117.39178 291.96055 117.51783 293.29297 117.47071 C 294.24534 117.43263 295.10759 117.30342 295.88087 117.08203 C 296.66961 116.86285 297.38163 116.57825 298.01563 116.22656 C 298.6651 115.87708 299.24227 115.47814 299.74805 115.0293 C 300.25604 114.56499 300.70342 114.08333 301.08985 113.58594 L 300.66993 116.53321 C 300.47841 117.87902 300.09546 119.07051 299.52149 120.10938 C 298.94532 121.16372 298.2076 122.02241 297.3086 122.6836 C 296.42507 123.34698 295.39783 123.80724 294.22462 124.06641 C 293.06467 124.34325 291.79668 124.38343 290.41993 124.1875 C 289.72382 124.08844 289.01835 123.87888 288.30665 123.55664 C 287.59275 123.24988 286.92419 122.84672 286.30079 122.34766 C 285.69065 121.86627 285.14927 121.30005 284.67383 120.64844 C 284.1984 119.99683 283.84233 119.2833 283.60547 118.50781 L 282.83204 118.44531 C 282.91628 118.96234 282.96356 119.46648 282.97266 119.95703 C 282.99723 120.44979 282.97159 120.96639 282.89454 121.50781 C 282.8373 121.91001 282.73367 122.40746 282.58594 123.00196 C 282.45368 123.59865 282.27276 124.15833 282.04102 124.67774 C 282.76807 124.7812 283.554 124.90853 284.4004 125.06055 C 285.2446 125.22803 286.24607 125.39349 287.40626 125.5586 C 287.91674 125.63124 288.45434 125.69193 289.01563 125.74024 C 289.59019 125.80622 290.15917 125.85583 290.72266 125.88867 C 291.28395 125.93699 291.8165 125.96604 292.32032 125.97461 C 292.82414 125.98318 293.26618 125.97373 293.64844 125.94922 C 294.74884 125.86908 295.84117 125.74181 296.92383 125.56446 C 298.0065 125.3871 299.04463 125.12481 300.04102 124.77735 C 301.03741 124.42989 301.978 123.98665 302.85938 123.44922 C 303.74077 122.91179 304.52898 122.25162 305.22462 121.4668 C 305.92025 120.68198 306.50714 119.76302 306.98829 118.71094 C 307.46944 117.65886 307.80969 116.43715 308.00782 115.04492 L 310.60938 97.091799 C 310.65561 96.766947 310.7385 96.470565 310.85547 96.203127 C 310.99012 95.922421 311.18832 95.689409 311.45118 95.505861 C 311.71624 95.306845 312.05871 95.173941 312.47852 95.107424 C 312.90053 95.025438 313.43624 95.03059 314.08594 95.123049 L 314.20899 94.265627 L 300.88868 92.369142 L 300.76758 93.228517 C 301.44823 93.325379 301.97749 93.487449 302.35547 93.714846 C 302.74893 93.944444 303.03546 94.198239 303.2168 94.476564 C 303.41582 94.741622 303.53455 95.019144 303.57227 95.308596 C 303.60999 95.598047 303.6131 95.857808 303.58008 96.089846 L 302.12696 106.30078 C 301.96626 107.43003 301.70221 108.50431 301.33594 109.52539 C 300.97188 110.53101 300.49727 111.42618 299.91212 112.21094 C 299.32696 112.9957 298.63533 113.63859 297.8379 114.14063 C 297.04266 114.62719 296.13438 114.91667 295.11133 115.00781 C 294.39101 115.07891 293.73152 114.99275 293.13477 114.75 C 292.53802 114.50726 292.04232 114.11395 291.64649 113.56836 C 291.25286 113.00731 290.97598 112.28902 290.81641 111.41406 C 290.65684 110.53911 290.66423 109.49761 290.83594 108.29102 L 292.81641 94.369142 C 292.85824 94.075229 292.94399 93.804457 293.07422 93.554689 C 293.20666 93.289453 293.40341 93.072377 293.66407 92.904299 C 293.94019 92.738422 294.28723 92.621206 294.70704 92.554689 C 295.12685 92.488172 295.64686 92.499837 296.26563 92.587892 L 296.38868 91.728517 L 283.3711 89.876955 z M 65.291017 90.652346 L 72.005861 108.53906 L 56.48047 93.013674 L 65.291017 90.652346 z M 479.18165 90.652346 L 487.9922 93.013674 L 472.46681 108.53906 L 479.18165 90.652346 z M 68.679689 91.060549 L 93.875002 97.812502 L 76.556642 112.04688 L 68.679689 91.060549 z M 475.79298 91.060549 L 467.91602 112.04688 L 450.59767 97.812502 L 475.79298 91.060549 z M 330.49219 98.052736 L 330.11524 98.833986 C 330.69258 99.111622 331.13129 99.409689 331.42969 99.726564 C 331.74218 100.05021 331.95286 100.36689 332.06251 100.67969 C 332.17893 100.9784 332.21464 101.26582 332.16993 101.53906 C 332.1393 101.81908 332.07228 102.06417 331.97071 102.27539 L 326.73048 113.17383 C 326.10072 114.4834 325.67331 115.80349 325.44923 117.13477 C 325.24599 118.45873 325.27024 119.72729 325.51954 120.93946 C 325.77561 122.13754 326.27371 123.22804 327.01563 124.20899 C 327.75755 125.18993 328.77678 125.9903 330.07227 126.61328 C 330.97348 127.04667 331.85096 127.31345 332.70508 127.41211 C 333.55921 127.51077 334.37577 127.48856 335.15626 127.34375 C 335.93674 127.19895 336.67089 126.95345 337.35743 126.60742 C 338.05804 126.26817 338.71503 125.87358 339.33008 125.42383 C 339.31484 126.24871 339.39839 127.05013 339.57813 127.83008 C 339.75787 128.61003 340.03701 129.3433 340.41798 130.0293 C 340.80571 130.70121 341.29881 131.31893 341.89454 131.88282 C 342.50434 132.45347 343.23129 132.94136 344.07618 133.34766 C 344.78025 133.68624 345.46496 133.92127 346.13087 134.05078 C 346.79677 134.1803 347.441 134.22976 348.06251 134.19922 C 348.6981 134.17545 349.30816 134.07795 349.89259 133.90821 C 350.47701 133.73847 351.03898 133.5236 351.58009 133.26367 L 350.45313 135.60938 L 359.70313 140.0586 L 360.08009 139.27539 C 359.50275 138.99776 359.05858 138.69865 358.7461 138.375 C 358.4477 138.05813 358.23947 137.74989 358.12305 137.45117 C 358.01341 137.13838 357.97328 136.84252 358.00391 136.5625 C 358.04862 136.28926 358.12304 136.04716 358.22462 135.83594 L 366.41993 118.78906 C 366.54859 118.52152 366.71446 118.2886 366.91407 118.08985 C 367.12045 117.87701 367.37263 117.72992 367.67188 117.64844 C 367.98522 117.57373 368.3512 117.56745 368.77149 117.63086 C 369.19178 117.69427 369.6848 117.86195 370.24805 118.13281 L 370.62305 117.35156 L 358.51954 111.53125 L 358.14454 112.3125 C 358.66555 112.56305 359.07519 112.82939 359.37305 113.11133 C 359.67092 113.39327 359.88813 113.6793 360.0254 113.97071 C 360.16944 114.24803 360.23934 114.51677 360.23634 114.77539 C 360.23333 115.03402 360.18166 115.26925 360.08009 115.48047 L 355.01173 126.01953 C 354.34811 127.39951 353.65327 128.52291 352.92579 129.38672 C 352.21916 130.24322 351.50801 130.88889 350.79493 131.32617 C 350.08185 131.76346 349.38629 132.00263 348.70899 132.04102 C 348.04578 132.08618 347.43981 131.97503 346.89063 131.71094 C 346.44003 131.49425 346.06511 131.19339 345.76563 130.80664 C 345.47293 130.40582 345.291 129.90181 345.21876 129.29492 C 345.14651 128.68803 345.20462 127.97015 345.39454 127.14258 C 345.58446 126.31501 345.94148 125.35966 346.4629 124.27539 L 352.27149 112.19336 C 352.41369 111.89765 352.58115 111.63953 352.77344 111.41992 C 352.98659 111.19301 353.24672 111.03307 353.55274 110.9375 C 353.86554 110.82785 354.23206 110.80378 354.65235 110.86719 C 355.09349 110.92329 355.60976 111.0945 356.20118 111.37891 L 356.57618 110.59766 L 344.4961 104.78711 L 344.11915 105.56836 C 344.71057 105.85277 345.15668 106.15383 345.45508 106.47071 C 345.75349 106.78758 345.95677 107.10127 346.06641 107.41406 C 346.18283 107.71278 346.21855 108.0002 346.17383 108.27344 C 346.14321 108.55345 346.07619 108.79855 345.97462 109.00977 L 341.44532 118.42969 C 340.71399 119.95048 339.96484 121.20232 339.19727 122.18555 C 338.4297 123.16878 337.67273 123.91418 336.92579 124.42188 C 336.1997 124.92226 335.48668 125.21429 334.78907 125.29492 C 334.09823 125.36148 333.46406 125.2542 332.88673 124.97656 C 332.43612 124.75987 332.0612 124.45901 331.76173 124.07227 C 331.46902 123.67144 331.2871 123.16744 331.21485 122.56055 C 331.1426 121.95366 331.20071 121.23578 331.39063 120.40821 C 331.58055 119.58063 331.93758 118.62529 332.45899 117.54102 L 338.34962 105.29102 C 338.47828 105.02347 338.6422 104.79055 338.8418 104.5918 C 339.04818 104.37896 339.30036 104.22992 339.59962 104.14844 C 339.91295 104.07373 340.28089 104.0694 340.70118 104.13281 C 341.12147 104.19622 341.61253 104.3639 342.17579 104.63477 L 342.55274 103.85156 L 330.49219 98.052736 z M 216.89649 98.992189 L 204.88282 104.33203 L 205.25391 105.16797 C 205.88212 104.88868 206.41639 104.74627 206.85743 104.73828 C 207.3064 104.70967 207.68098 104.76472 207.98243 104.9043 C 208.2918 105.02325 208.53518 105.20529 208.71289 105.45117 C 208.89854 105.67643 209.03956 105.89521 209.13477 106.10938 L 217.01758 123.84375 C 215.1487 123.71705 213.37961 123.40837 211.70899 122.91992 C 210.03837 122.43148 208.48431 121.83924 207.04688 121.14453 C 205.60945 120.44982 204.29432 119.70301 203.09961 118.90039 C 201.89855 118.0835 200.82833 117.29229 199.89063 116.5293 L 197.47266 111.08985 C 197.35206 110.81857 197.28006 110.54253 197.25782 110.26172 C 197.22923 109.96664 197.28047 109.67926 197.41211 109.39844 C 197.55804 109.11127 197.7909 108.82809 198.11133 108.54883 C 198.44605 108.26323 198.8996 107.99219 199.47071 107.73828 L 199.09961 106.9043 L 187.06446 112.25391 L 187.43555 113.08985 C 188.03521 112.82325 188.55164 112.67851 188.98633 112.65625 C 189.42895 112.61337 189.80586 112.65254 190.11524 112.77149 C 190.41827 112.87616 190.66202 113.04037 190.84766 113.26563 C 191.04123 113.47026 191.18604 113.68037 191.28125 113.89453 L 198.86914 130.96289 C 199.00244 131.26272 199.08616 131.5676 199.1211 131.87696 C 199.16397 132.16569 199.12677 132.46406 199.00782 132.77344 C 198.88252 133.06854 198.65454 133.36614 198.32618 133.66602 C 198.00574 133.94528 197.54693 134.21778 196.94727 134.48438 L 197.29883 135.27735 L 209.33594 129.92578 L 208.98243 129.13477 C 208.35421 129.41406 207.81274 129.55989 207.35743 129.57422 C 206.91639 129.5822 206.5418 129.52716 206.23243 129.40821 C 205.93098 129.26863 205.6876 129.08659 205.50196 128.86133 C 205.31631 128.63607 205.1753 128.41534 205.08008 128.20117 L 202.75586 122.97656 C 203.78554 123.40797 204.94232 123.85184 206.22266 124.3086 C 207.51728 124.75901 208.837 125.15516 210.18555 125.4961 C 211.54203 125.81641 212.89257 126.04377 214.23633 126.18164 C 215.59437 126.31316 216.8513 126.27669 218.00782 126.07031 L 227.13282 122.01367 L 226.7793 121.22266 C 226.17964 121.48926 225.66321 121.63204 225.22852 121.6543 C 224.79383 121.67656 224.42413 121.63592 224.1211 121.53125 C 223.81172 121.4123 223.56077 121.25151 223.36719 121.04688 C 223.1879 120.8359 223.0503 120.62237 222.95508 120.40821 L 215.29102 103.16797 C 215.17042 102.8967 215.09842 102.62065 215.07618 102.33985 C 215.04759 102.04476 215.09883 101.75739 215.23047 101.47656 C 215.3764 101.1894 215.60926 100.90621 215.92969 100.62696 C 216.25013 100.3477 216.69648 100.08008 217.26758 99.826174 L 216.89649 98.992189 z M 97.011721 99.152346 L 103.46094 105.60352 L 82.250002 111.28711 L 97.011721 99.152346 z M 447.46095 99.152346 L 462.22267 111.28711 L 441.01173 105.60352 L 447.46095 99.152346 z M 179.44922 119.98242 C 178.8551 119.95397 178.24691 119.97265 177.62696 120.03516 C 176.37791 120.14752 175.07875 120.46944 173.72852 121.00196 C 172.39095 121.52532 171.01401 122.29908 169.59571 123.32422 C 168.24072 124.3036 167.11993 125.35451 166.23438 126.47657 C 165.36149 127.58947 164.68528 128.73407 164.20508 129.91016 C 163.73755 131.07709 163.44052 132.25474 163.31641 133.44336 C 163.19581 134.61017 163.22077 135.75077 163.38868 136.86328 C 163.55658 137.97579 163.84522 139.02854 164.25586 140.02344 C 164.65735 141.00568 165.14602 141.89557 165.72266 142.69336 C 166.32676 143.52915 167.04217 144.30487 167.86719 145.01953 C 168.69221 145.7342 169.60117 146.33824 170.59571 146.83399 C 171.6029 147.32058 172.68043 147.68991 173.82618 147.94141 C 174.97543 148.17109 176.16791 148.23407 177.4043 148.13086 C 178.65335 148.0185 179.93386 147.71014 181.2461 147.20508 C 182.56749 146.71269 183.90478 145.97743 185.25977 144.99805 C 186.66541 143.98206 187.8231 142.91542 188.73047 141.79688 C 189.65051 140.66918 190.35892 139.52967 190.85743 138.37891 C 191.36859 137.219 191.68369 136.06687 191.80079 134.92188 C 191.92139 133.75507 191.89603 132.62585 191.72461 131.53516 C 191.56586 130.43531 191.27487 129.392 190.85157 128.40625 C 190.41911 127.40784 189.90098 126.49009 189.29688 125.6543 C 188.66532 124.78052 187.9387 123.97672 187.11719 123.24024 C 186.28653 122.49109 185.37579 121.85741 184.38477 121.33985 C 183.39374 120.82228 182.32995 120.44392 181.19336 120.20508 C 180.62507 120.08566 180.04334 120.01088 179.44922 119.98242 z M 174.25977 123.30664 C 174.65525 123.30034 175.04852 123.33411 175.43946 123.40821 C 176.21219 123.54373 176.97375 123.82344 177.72266 124.2461 C 178.47508 124.64693 179.19943 125.14461 179.89844 125.73828 C 180.5883 126.31929 181.25045 126.968 181.88477 127.68555 C 182.51909 128.4031 183.10646 129.13567 183.64649 129.88282 C 184.15204 130.6356 184.62573 131.42182 185.06446 132.24219 C 185.51584 133.0534 185.89061 133.88167 186.19141 134.72461 C 186.49221 135.56755 186.70537 136.40552 186.82813 137.24219 C 186.95089 138.07886 186.94864 138.89039 186.82227 139.67578 C 186.6959 140.46118 186.42345 141.20683 186.00782 141.91211 C 185.58303 142.60473 184.98536 143.23073 184.21289 143.78907 C 183.02955 144.60582 181.86042 145.01683 180.70703 145.02149 C 179.55716 145.00433 178.44136 144.71257 177.35743 144.14649 C 176.28616 143.57125 175.24911 142.77719 174.24805 141.76563 C 173.25965 140.74491 172.33048 139.63272 171.46094 138.42969 C 170.58576 137.19218 169.83109 135.93521 169.19727 134.65821 C 168.56696 133.35939 168.17083 132.10307 168.00782 130.89063 C 167.8448 129.67819 167.96218 128.53457 168.35938 127.45703 C 168.74742 126.36683 169.52442 125.40068 170.68946 124.5586 C 171.48725 123.98195 172.27901 123.61153 173.06641 123.44727 C 173.46644 123.36056 173.86428 123.31295 174.25977 123.30664 z M 378.41798 126.90235 C 377.79779 126.91373 377.18064 126.96895 376.56837 127.06836 C 375.35581 127.2772 374.19479 127.62064 373.08399 128.09766 C 371.9952 128.5727 370.97262 129.16385 370.01563 129.8711 C 369.07064 130.58835 368.23305 131.38425 367.50196 132.25977 C 366.53051 133.42313 365.76658 134.73912 365.21094 136.20899 C 364.6673 137.68887 364.41099 139.21658 364.44141 140.78907 C 364.48186 142.34956 364.85395 143.90211 365.5586 145.44727 C 366.28526 146.99044 367.42719 148.4129 368.98634 149.71485 C 369.93381 150.50603 370.86353 151.09911 371.7754 151.49414 C 372.67725 151.90117 373.53926 152.16249 374.35938 152.27735 C 375.1795 152.3922 375.95517 152.38888 376.68751 152.26758 C 377.41984 152.14628 378.09637 151.95662 378.7168 151.70117 C 378.5719 152.55728 378.57915 153.43928 378.73829 154.34571 C 378.90744 155.24013 379.17382 156.11414 379.53907 156.96875 C 379.90432 157.82337 380.34774 158.62255 380.86915 159.36328 C 381.39055 160.10402 381.93627 160.73138 382.50391 161.2461 L 383.21485 160.83203 C 382.88336 160.22953 382.69931 159.54741 382.66407 158.78516 C 382.63872 158.13295 382.75849 157.36822 383.02345 156.49024 C 383.3004 155.62227 383.8748 154.66648 384.7461 153.62305 L 385.15235 153.13672 L 386.08399 152.02149 C 386.47655 151.57575 386.91382 151.06592 387.39454 150.49024 C 387.89726 149.91258 388.41258 149.30557 388.94337 148.66992 C 389.49617 148.0323 390.0488 147.3823 390.59962 146.72266 C 391.15044 146.06302 391.68624 145.43368 392.20899 144.83203 C 393.10428 143.80864 393.9607 143.08722 394.77735 142.66992 C 395.59401 142.25263 396.31885 141.99397 396.95313 141.89258 C 397.69746 141.7813 398.39128 141.83036 399.03126 142.03907 L 399.31055 141.26563 C 398.89474 140.95912 398.42427 140.66719 397.9004 140.39258 C 397.39853 140.116 396.85546 139.87648 396.27149 139.67383 C 395.68753 139.47119 395.07933 139.31013 394.44727 139.18946 C 393.82523 139.05679 393.20982 138.97966 392.59766 138.95703 C 392.55612 138.49486 392.44873 137.92628 392.27735 137.25391 C 392.11797 136.59156 391.85929 135.87791 391.50196 135.11133 C 391.15662 134.35477 390.68715 133.56503 390.0918 132.74219 C 389.50845 131.92937 388.7667 131.14761 387.8672 130.39649 C 386.64387 129.37496 385.39116 128.59413 384.11134 128.05469 C 382.84152 127.50325 381.56924 127.15133 380.29102 127 C 379.66292 126.92335 379.03817 126.89097 378.41798 126.90235 z M 383.06641 130.50196 C 383.34849 130.50849 383.62822 130.52957 383.90626 130.56836 C 385.01842 130.72352 386.02433 131.17662 386.92384 131.92774 C 387.52351 132.42848 387.96454 132.96099 388.24805 133.52344 C 388.54356 134.0959 388.72734 134.66805 388.80079 135.23828 C 388.87424 135.80852 388.84732 136.37537 388.72071 136.94141 C 388.61611 137.50547 388.46981 138.03535 388.28126 138.5293 C 388.09271 139.02325 387.87916 139.47489 387.63868 139.88477 C 387.41019 140.30466 387.20196 140.64999 387.01563 140.92188 L 381.1797 147.6211 C 380.72915 148.03876 380.16864 148.48728 379.50196 148.96875 C 378.83528 149.45022 378.1051 149.82638 377.3086 150.09766 C 376.52409 150.37895 375.69445 150.4812 374.82227 150.4043 C 373.9501 150.3274 373.0954 149.93933 372.25587 149.23828 C 371.52427 148.62737 370.95036 147.86395 370.53516 146.94727 C 370.12998 146.01859 369.95276 144.9635 370.00196 143.78321 C 370.06315 142.61293 370.38515 141.33499 370.97071 139.95117 C 371.56826 138.57738 372.50911 137.12305 373.79102 135.58789 C 374.77249 134.41254 375.83723 133.41855 376.98438 132.60547 C 378.14352 131.8024 379.30598 131.22588 380.47266 130.87696 C 381.35519 130.60626 382.22019 130.48235 383.06641 130.50196 z M 272.52149 135.97266 C 264.08016 136.386 256.26518 141.80406 253.25782 150.27149 C 252.61938 152.06901 252.1508 152.72873 251.625 152.57227 C 250.02557 152.09629 234.64398 148.89811 232.62305 148.6211 C 230.90284 148.38531 229.65119 148.63898 226.35157 149.89453 C 222.28869 151.44054 220.68884 152.3125 221.91797 152.3125 C 222.43268 152.3125 237.06384 153.84751 248.70118 155.12305 L 251.85938 155.46875 L 252.00586 158.26368 C 252.08597 159.79986 252.01829 161.05664 251.85743 161.05664 C 251.5911 161.05664 232.96036 164.31543 200.68555 170.00782 C 193.91341 171.20226 187.88372 172.50037 187.28516 172.89258 C 185.54908 174.03011 174.38282 185.06125 174.38282 185.63868 C 174.38282 185.93058 181.41997 184.14388 190.29102 181.59961 C 242.59999 166.59709 251.84445 163.97071 252.35743 163.97071 C 252.67002 163.97071 253.32743 164.89973 253.81641 166.03516 C 254.30539 167.17061 254.78151 168.22814 254.87501 168.38477 C 254.96857 168.5414 236.35546 180.34025 213.51368 194.60547 C 190.67191 208.87068 172.14003 220.6738 172.33203 220.83399 C 172.52401 220.99418 174.10329 221.53373 175.83985 222.03321 C 177.57642 222.5327 180.41775 223.53964 182.1543 224.27149 C 183.89086 225.00336 185.68038 225.56057 186.13086 225.50977 C 186.58132 225.45903 202.19255 213.50573 220.82227 198.94532 C 239.45198 184.38491 255.10018 172.18086 255.59766 171.82618 C 256.39212 171.2598 256.72322 171.37388 258.31055 172.76758 C 259.30447 173.64026 260.11719 174.59196 260.11719 174.88086 C 260.11719 175.16974 252.68513 185.63038 243.60157 198.12696 C 234.51801 210.62356 227.13246 221.00119 227.18946 221.18946 C 227.24642 221.37773 229.21305 221.78598 231.56055 222.09571 C 235.37713 222.59925 235.89787 222.57231 236.48047 221.85157 C 236.83882 221.40826 242.8078 211.20986 249.74415 199.1875 C 256.68053 187.16514 262.54345 177.13934 262.77344 176.90821 C 263.44035 176.23798 267.64649 178.0553 267.64649 179.01368 C 267.64649 179.46693 265.14702 189.87507 262.0918 202.14258 C 259.03659 214.41009 256.68596 224.58831 256.86915 224.76172 C 257.30293 225.1723 264.2461 225.847 264.2461 225.47852 C 264.2461 225.19459 267.66021 200.84375 269.68555 186.67969 L 270.7793 179.0293 L 273.58399 179.0293 C 275.17919 179.0293 276.39063 179.24377 276.39063 179.52735 C 276.39063 180.01942 279.88343 205.08161 281.7461 217.95118 C 282.27314 221.59254 282.70508 224.83962 282.70508 225.16602 C 282.70508 225.61021 283.59039 225.67337 286.22657 225.41797 C 288.1635 225.23032 289.91858 224.91745 290.12696 224.72266 C 290.33534 224.52788 287.98468 214.27431 284.9043 201.9375 C 281.82392 189.60069 279.30568 179.23641 279.30665 178.9043 C 279.30766 178.57221 280.30823 177.88776 281.53126 177.38477 C 283.41916 176.60828 283.85145 176.57231 284.38868 177.14258 C 284.73669 177.51198 290.74225 187.75491 297.73438 199.9043 C 304.7265 212.0537 310.6507 222.12106 310.9004 222.2754 C 311.45066 222.61547 319.23969 221.80962 319.7168 221.36329 C 319.90291 221.18918 312.5271 210.68195 303.32422 198.01368 C 294.12134 185.34543 286.61022 174.85286 286.63282 174.69727 C 286.65541 174.54168 287.52969 173.677 288.57618 172.77735 L 290.47852 171.14258 L 292.29883 172.51563 C 294.67904 174.31018 326.00536 198.75901 350.37501 217.8418 C 357.24402 223.22062 360.74757 225.67236 361.30469 225.49024 C 364.43098 224.46822 374.65151 220.82507 374.79493 220.68164 C 374.89206 220.58452 356.31419 208.85335 333.50977 194.61133 L 292.04688 168.7168 L 293.08399 166.35547 C 293.65423 165.05659 294.38054 163.98943 294.69922 163.98243 C 295.01789 163.97614 310.20979 168.2556 328.45899 173.49414 C 346.70819 178.73267 363.9896 183.68841 366.86134 184.50586 C 369.73307 185.32331 372.233 185.84126 372.41798 185.65625 C 372.80272 185.27154 369.34371 181.64248 363.31641 176.11133 L 359.16212 172.30078 L 350.92969 170.82813 C 346.40114 170.0178 340.83729 169.02896 338.56641 168.63086 C 325.60717 166.35898 305.7292 162.85317 302.37696 162.24805 C 300.23964 161.86226 297.67178 161.40723 296.66993 161.23828 L 294.84766 160.93164 L 294.84766 158.30664 C 294.84766 156.63645 295.06873 155.61057 295.45508 155.48438 C 295.78903 155.37524 301.63653 154.72239 308.44922 154.03516 C 326.021 152.26258 325.78188 152.29793 324.88673 151.64649 C 324.47217 151.34478 322.26397 150.45212 319.97852 149.66211 L 315.82227 148.22461 L 305.69922 150.3418 C 300.13181 151.50551 295.33641 152.54467 295.04102 152.65235 C 294.74565 152.75997 294.2294 151.86986 293.89454 150.67383 C 292.37029 145.22978 286.82923 139.4752 281.01758 137.30078 C 278.21987 136.25403 275.33527 135.83488 272.52149 135.97266 z M 406.98829 143.08008 C 406.9155 143.13917 406.8407 143.20995 406.76563 143.29102 L 406.49415 143.51172 C 406.40695 143.60263 406.29556 143.70223 406.16212 143.81055 C 405.66474 144.2143 405.04288 144.63747 404.29688 145.08203 C 403.57286 145.52888 402.73983 145.85471 401.79688 146.05664 L 408.31055 154.08008 C 407.01182 153.32308 405.71582 152.76697 404.41993 152.41016 C 403.12404 152.05334 401.85065 151.89933 400.60157 151.94727 C 399.37447 151.99749 398.17794 152.24433 397.00977 152.68946 C 395.85374 153.12473 394.76513 153.7568 393.7461 154.58399 C 392.94544 155.23392 392.22319 155.98019 391.58009 156.82422 C 390.93698 157.66826 390.40919 158.59077 389.99415 159.5918 C 389.57911 160.59283 389.2913 161.65123 389.13087 162.76758 C 388.99241 163.88621 389.01069 165.03794 389.18751 166.22266 C 389.37417 167.41951 389.74252 168.62998 390.29298 169.85352 C 390.85328 171.08919 391.63041 172.31967 392.62501 173.54493 C 393.56052 174.6974 394.51175 175.64591 395.47852 176.39063 C 396.44529 177.13535 397.412 177.71998 398.37891 178.14258 C 399.36781 178.56747 400.3496 178.84588 401.32423 178.98047 C 402.3087 179.1272 403.28852 179.16901 404.26173 179.10352 L 402.2461 173.64453 C 401.43574 173.96022 400.64928 174.20657 399.88673 174.38282 C 399.12417 174.55906 398.38376 174.6272 397.66602 174.58594 C 396.96042 174.53484 396.2809 174.34236 395.62696 174.00782 C 394.97303 173.67327 394.3564 173.14739 393.7754 172.43164 C 392.97775 171.44901 392.53351 170.41929 392.44532 169.34375 C 392.36927 168.25837 392.56508 167.17422 393.03321 166.08985 C 393.50134 165.00547 394.18418 163.93755 395.08204 162.88672 C 395.99203 161.82604 397.02332 160.82809 398.17579 159.89258 C 399.33811 158.9692 400.58105 158.24208 401.90235 157.71289 C 403.2335 157.19584 404.55609 156.91804 405.8711 156.87696 C 407.2081 156.83815 408.49071 157.06463 409.7168 157.5586 C 410.96488 158.05485 412.08587 158.85575 413.08204 159.95899 L 413.36329 160.30469 C 413.55039 160.53518 413.78923 160.85383 414.08009 161.26172 C 414.37094 161.66962 414.65034 162.12716 414.91993 162.63282 C 415.2115 163.14076 415.46515 163.68834 415.68165 164.27735 C 415.89815 164.86635 416.02608 165.45807 416.06446 166.05078 C 416.12482 166.64578 416.06422 167.227 415.88282 167.79688 C 415.71126 168.37889 415.37176 168.91655 414.86524 169.40821 L 415.50782 169.97461 C 415.57076 169.9034 415.6436 169.83261 415.72852 169.76368 C 415.79146 169.69246 415.87171 169.61785 415.96876 169.53907 L 416.33204 169.24414 C 416.82942 168.8404 417.44583 168.42104 418.1797 167.98633 C 418.91356 167.55162 419.75399 167.22196 420.69923 166.99805 L 409.14649 152.76758 C 408.94954 152.52496 408.70688 152.20087 408.41602 151.79297 C 408.13501 151.39721 407.84822 150.94545 407.55665 150.4375 C 407.27721 149.91971 407.02901 149.36635 406.81251 148.77735 C 406.59601 148.18834 406.45881 147.595 406.39845 147 C 406.36006 146.40729 406.42611 145.82029 406.59766 145.23828 C 406.77907 144.66841 407.12817 144.1436 407.64454 143.66407 L 406.98829 143.08008 z M 146.60547 143.50782 L 134.90625 157.61524 C 134.70677 157.85578 134.43503 158.15852 134.0918 158.52344 C 133.75854 158.87634 133.3709 159.2457 132.92969 159.63086 C 132.47645 160.00605 131.98265 160.35818 131.44727 160.68555 C 130.91189 161.01292 130.35886 161.26405 129.78711 161.43946 C 129.21331 161.59286 128.62384 161.64247 128.01953 161.58789 C 127.4252 161.52129 126.84263 161.28191 126.27149 160.86914 L 125.82617 161.625 C 125.89834 161.68485 125.98201 161.74494 126.07617 161.80274 L 126.34571 162.02539 C 126.4519 162.09316 126.57278 162.18325 126.70508 162.29297 C 127.1982 162.70192 127.73471 163.22824 128.31641 163.87305 C 128.89606 164.49585 129.37755 165.24942 129.75977 166.13477 L 136.35742 158.17969 C 135.86866 159.60127 135.57536 160.98165 135.47852 162.32227 C 135.38168 163.66289 135.47856 164.94059 135.76953 166.15625 C 136.05845 167.34991 136.53647 168.47643 137.20117 169.53516 C 137.85386 170.58391 138.68503 171.52739 139.69532 172.36524 C 140.48911 173.02354 141.36302 173.58687 142.31641 174.05274 C 143.26979 174.51861 144.27703 174.85683 145.33985 175.06836 C 146.40266 175.2799 147.49687 175.35562 148.62305 175.29493 C 149.74718 175.21223 150.87264 174.9673 152 174.5625 C 153.13734 174.14568 154.25324 173.54836 155.34571 172.76953 C 156.44815 171.97869 157.50236 170.97647 158.50977 169.76172 C 159.45733 168.61914 160.20258 167.49986 160.74414 166.40625 C 161.2857 165.31265 161.66892 164.25154 161.89453 163.22071 C 162.1181 162.16787 162.20093 161.15012 162.14258 160.16797 C 162.09421 159.1738 161.94181 158.20534 161.6875 157.26367 L 156.72852 160.30664 C 157.1964 161.03975 157.59228 161.76312 157.91407 162.47657 C 158.23585 163.19001 158.44716 163.90327 158.54688 164.61524 C 158.63457 165.31723 158.57734 166.02184 158.37696 166.72852 C 158.17658 167.4352 157.78185 168.14196 157.19336 168.85157 C 156.38544 169.82577 155.46338 170.46126 154.42578 170.75782 C 153.37616 171.04439 152.27407 171.06374 151.11914 170.81641 C 149.96422 170.56908 148.78408 170.10893 147.57813 169.4336 C 146.36015 168.74829 145.1797 167.93194 144.03711 166.98438 C 142.9045 166.02479 141.94894 164.94836 141.17188 163.75586 C 140.40479 162.55133 139.87331 161.30706 139.57617 160.02539 C 139.27699 158.72173 139.24916 157.42201 139.49414 156.12305 C 139.73708 154.80209 140.30203 153.54402 141.18946 152.35157 L 141.47461 152.00977 C 141.66412 151.78125 141.93021 151.48407 142.27344 151.11914 C 142.61667 150.75422 143.00986 150.39051 143.45313 150.02735 C 143.89434 149.64219 144.38259 149.28635 144.91797 148.95899 C 145.45335 148.63162 146.00823 148.38974 146.58203 148.23633 C 147.15378 148.06092 147.73575 148.00761 148.33008 148.07422 C 148.93439 148.1288 149.52826 148.35708 150.10938 148.75782 L 150.53907 148.01758 C 150.45693 147.96976 150.37326 147.91162 150.28907 147.8418 C 150.20693 147.79398 150.1177 147.73019 150.02149 147.65039 L 149.66211 147.35157 C 149.169 146.94262 148.63608 146.41999 148.06641 145.78516 C 147.49674 145.15033 147.00969 144.39111 146.60547 143.50782 z M 130.29883 173.91602 C 129.18161 173.87347 128.05693 173.9881 126.92774 174.25977 C 125.79855 174.53144 124.70124 174.99009 123.63477 175.63477 C 122.55459 176.27193 121.51874 177.11958 120.52735 178.17969 C 119.54347 179.2261 118.63069 180.51645 117.78906 182.05078 C 116.98502 183.51662 116.42426 184.94644 116.10547 186.33985 C 115.7942 187.71956 115.67357 189.04412 115.74414 190.3125 C 115.82223 191.56718 116.05941 192.75778 116.45703 193.88477 C 116.84848 194.99055 117.3595 196.01036 117.98828 196.94336 C 118.61707 197.87637 119.32933 198.70312 120.12696 199.42579 C 120.91088 200.14093 121.7346 200.73558 122.59766 201.20899 C 123.50182 201.70494 124.47946 202.09883 125.53125 202.39063 C 126.58304 202.68242 127.66435 202.84 128.77539 202.86133 C 129.89395 202.86897 131.02508 202.74073 132.16797 202.47657 C 133.30468 202.19119 134.40977 201.73675 135.48242 201.11329 C 136.5626 200.47612 137.5878 199.64792 138.55664 198.62891 C 139.53919 197.61741 140.43228 196.37795 141.23633 194.91211 C 142.07044 193.39148 142.65609 191.9328 142.9961 190.53321 C 143.34361 189.11991 143.4963 187.78656 143.45313 186.53321 C 143.41747 185.26616 143.20753 184.08848 142.82227 183.00391 C 142.43083 181.89813 141.92338 180.89031 141.30078 179.97852 C 140.6857 179.05303 139.97507 178.23631 139.16992 177.52735 C 138.35108 176.81087 137.4901 176.20494 136.58594 175.70899 C 135.64068 175.19049 134.64001 174.77395 133.58203 174.46094 C 132.51036 174.14042 131.41605 173.95857 130.29883 173.91602 z M 417.72462 175.85157 C 417.03105 175.8656 416.32035 175.94 415.59181 176.07618 C 414.13472 176.34854 412.5881 176.91211 410.95313 177.76563 C 409.16329 178.75868 407.78175 179.95285 406.80665 181.35157 C 405.85279 182.75636 405.26593 184.30688 405.04493 186.00196 C 404.84517 187.70311 404.99483 189.50438 405.4961 191.40625 C 405.99129 193.32937 406.8041 195.30993 407.9336 197.34571 C 408.42634 198.2338 408.95668 199.02944 409.5254 199.73243 C 410.08804 200.45665 410.65927 201.06874 411.24024 201.56836 C 411.8288 202.08165 412.41044 202.48325 412.98243 202.77344 C 413.562 203.07729 414.09621 203.2539 414.5879 203.30274 L 417.14649 202.25782 C 417.03419 202.24865 416.73825 202.23441 416.26173 202.21289 C 415.79278 202.20504 415.22623 202.08283 414.5586 201.84571 C 413.91222 201.61467 413.21141 201.20624 412.45899 200.62305 C 411.72782 200.04594 411.04498 199.1848 410.40821 198.03711 C 409.635 196.64349 409.19617 195.24241 409.09376 193.83399 C 409.00501 192.41799 409.18267 191.07645 409.62501 189.8125 C 410.08101 188.54098 410.76505 187.37673 411.67774 186.31641 C 412.6041 185.24851 413.69614 184.36538 414.95313 183.66797 C 416.14181 183.00847 417.45066 182.53234 418.87891 182.24024 C 420.30717 181.94813 421.69802 181.88047 423.0547 182.03907 C 424.42504 182.19008 425.69094 182.58786 426.85157 183.23047 C 428.0122 183.87308 428.93081 184.80158 429.60548 186.01758 C 429.9466 186.63241 430.19829 187.31422 430.36329 188.0625 C 430.54954 188.81687 430.62889 189.5865 430.59962 190.3711 C 430.59159 191.16178 430.47092 191.94445 430.23829 192.7168 C 430.00566 193.48915 429.65531 194.21033 429.18751 194.88086 L 429.60352 195.53321 C 429.96493 195.154 430.33483 194.80721 430.7129 194.49024 C 431.09855 194.18693 431.53157 193.90204 432.00977 193.63672 C 432.36501 193.43963 432.81941 193.21364 433.37501 192.95899 C 433.93819 192.718 434.49264 192.52712 435.03907 192.38477 C 434.69037 191.75627 434.31711 191.05177 433.91993 190.27149 C 433.53033 189.50487 433.05511 188.61458 432.49415 187.60352 C 431.64513 186.07327 430.74531 184.64444 429.79298 183.31446 C 428.86189 181.99056 427.86779 180.82602 426.81056 179.82227 C 425.76699 178.81094 424.65822 177.97072 423.48243 177.30078 C 422.31422 176.64451 421.0711 176.20843 419.75391 175.99219 C 419.09532 175.88407 418.41818 175.83754 417.72462 175.85157 z M 124.89258 179.37891 C 125.10068 179.37722 125.31094 179.38328 125.52539 179.39844 C 126.37701 179.43787 127.24675 179.57597 128.13282 179.8125 C 129.00518 180.04152 129.88097 180.34452 130.76172 180.72071 C 131.64247 181.09689 132.48861 181.50587 133.29688 181.94922 C 134.07641 182.41246 134.83975 182.92166 135.58789 183.47461 C 136.34356 184.01386 137.03864 184.59994 137.67188 185.23243 C 138.30511 185.86491 138.85647 186.5312 139.32617 187.23438 C 139.79588 187.93756 140.14063 188.67185 140.36328 189.43555 C 140.58594 190.19925 140.6609 190.98932 140.58789 191.80469 C 140.50119 192.61255 140.22987 193.43387 139.77149 194.26954 C 139.05276 195.51485 138.17276 196.38593 137.13282 196.88477 C 136.08669 197.3624 134.95244 197.57974 133.73047 197.53321 C 132.51602 197.47297 131.24049 197.19936 129.90235 196.71485 C 128.57171 196.21664 127.25457 195.61036 125.95313 194.89649 C 124.6318 194.15388 123.41125 193.34274 122.29102 192.46094 C 121.16461 191.55793 120.26879 190.59374 119.60156 189.56836 C 118.93434 188.54299 118.54861 187.45821 118.44531 186.31446 C 118.32832 185.16319 118.61531 183.95761 119.30664 182.69727 C 119.78006 181.83421 120.33765 181.1599 120.97852 180.67383 C 121.6269 180.17407 122.33559 179.82254 123.10547 179.6211 C 123.67261 179.46438 124.26828 179.38398 124.89258 179.37891 z M 444.16407 194.74805 L 443.34181 195.02149 C 443.54923 195.6441 443.64289 196.17457 443.62306 196.60938 C 443.60322 197.04419 443.51938 197.40864 443.3711 197.70508 C 443.23765 197.99658 443.0574 198.22083 442.83009 198.37891 C 442.60771 198.55181 442.38448 198.67592 442.16212 198.75 L 417.61524 206.92774 C 417.30394 207.03145 416.99098 207.08691 416.6797 207.0918 C 416.38817 207.10658 416.09528 207.03891 415.79884 206.89063 C 415.51722 206.73741 415.24425 206.49137 414.98243 206.15039 C 414.73543 205.80448 414.50821 205.31988 414.30079 204.69727 L 413.47852 204.97071 L 417.73048 217.73438 L 418.5547 217.46094 C 418.33739 216.80869 418.24373 216.25536 418.27345 215.80079 C 418.3081 215.36104 418.3986 214.99176 418.54688 214.69532 C 418.71493 214.40876 418.91998 214.1845 419.16212 214.02149 C 419.40426 213.85847 419.63702 213.7401 419.85938 213.66602 L 429.97657 210.29493 C 431.02413 209.97887 432.06589 209.77249 433.10352 209.67383 C 434.14116 209.57518 435.11719 209.61208 436.03126 209.78516 C 436.96509 209.96813 437.81717 210.30081 438.5879 210.78516 C 439.37839 211.27939 440.03786 211.94992 440.56641 212.79493 C 440.95172 213.40768 441.16945 214.03539 441.21876 214.67774 C 441.26807 215.32008 441.12895 215.94217 440.80274 216.54493 C 440.49136 217.14274 439.98114 217.70867 439.26954 218.24219 C 438.55794 218.77571 437.62308 219.23588 436.46681 219.6211 L 423.30274 224.00586 C 422.99144 224.10958 422.68044 224.16308 422.36915 224.16797 C 422.07762 224.18275 421.78473 224.11703 421.48829 223.96875 C 421.20667 223.81554 420.9337 223.56754 420.67188 223.22657 C 420.42489 222.88065 420.19767 222.39605 419.99024 221.77344 L 419.16798 222.04883 L 423.32423 234.52344 L 424.14649 234.24805 C 423.92919 233.5958 423.83552 233.04247 423.86524 232.5879 C 423.8999 232.14815 423.99327 231.78748 424.14649 231.50586 C 424.31453 231.21931 424.51959 230.99505 424.76173 230.83204 C 425.00387 230.66902 425.23663 230.55065 425.45899 230.47657 L 437.26759 226.54297 C 438.15703 226.24665 439.02129 225.87621 439.86134 225.43165 C 440.70139 224.98709 441.45971 224.47069 442.13673 223.88282 C 442.81375 223.29494 443.38504 222.6355 443.84962 221.9043 C 444.32902 221.16816 444.65218 220.35995 444.82032 219.48047 C 444.98846 218.60099 444.98436 217.64691 444.80665 216.61914 C 444.62894 215.59138 444.2212 214.4934 443.58399 213.32227 C 443.12461 212.48716 442.62063 211.76409 442.07227 211.15625 C 441.52885 210.56324 440.95627 210.05589 440.35352 209.63086 C 439.75572 209.22066 439.13449 208.89169 438.4922 208.64454 C 437.86472 208.39244 437.24262 208.20371 436.62501 208.08008 L 447.41017 204.48829 L 444.16407 194.74805 z M 100.83594 198.0586 L 97.931643 208.02735 L 98.763674 208.26954 C 98.999733 207.45948 99.289171 206.82821 99.632814 206.375 C 99.976458 205.9218 100.33958 205.59603 100.72266 205.39844 C 101.09511 205.18148 101.47008 205.07087 101.84571 205.06641 C 102.2257 205.04695 102.56522 205.08054 102.86524 205.16797 L 119.78711 210.09961 L 94.121096 221.09961 L 90.83008 232.39649 L 91.662111 232.63868 C 91.780141 232.23365 91.918044 231.87504 92.074221 231.5625 C 92.230397 231.24997 92.433108 230.96678 92.685549 230.71485 C 92.92736 230.44354 93.220055 230.19641 93.562502 229.97071 C 93.904949 229.745 94.331856 229.50958 94.841799 229.26758 L 120.29102 236.6836 C 120.71105 236.806 121.09308 236.97516 121.4375 237.18946 C 121.78193 237.40375 122.05241 237.70286 122.25 238.08594 C 122.45196 238.45402 122.56674 238.92642 122.59375 239.50391 C 122.61013 240.06203 122.49973 240.74659 122.26367 241.55665 L 123.09571 241.79883 L 125.99414 231.85352 L 125.16211 231.61133 C 124.91294 232.46639 124.60716 233.12601 124.24414 233.58985 C 123.8705 234.03431 123.48402 234.35171 123.08594 234.54493 C 122.69223 234.72314 122.30078 234.81241 121.91016 234.8125 C 121.52391 234.7976 121.18088 234.74759 120.88086 234.66016 L 97.884768 227.95704 L 131.35157 213.46875 L 131.94922 211.42188 L 103.66406 203.17969 C 103.24404 203.05729 102.86201 202.88813 102.51758 202.67383 C 102.17315 202.45954 101.89923 202.16886 101.69727 201.80079 C 101.48468 201.41334 101.37185 200.94094 101.35547 200.38282 C 101.32409 199.82032 101.42754 199.12584 101.66797 198.30079 L 100.83594 198.0586 z M 207.33594 224.20313 C 207.1106 224.2384 206.92774 226.50774 206.92774 229.2754 C 206.92774 232.06485 206.74995 234.4559 206.53321 234.58985 C 205.82321 235.02865 196.81545 233.96553 192.81836 232.97071 C 190.66755 232.43541 186.10954 230.89579 182.68946 229.54883 C 174.52556 226.3336 168.21305 224.77339 161.83594 224.39454 C 155.53725 224.02034 153.20907 224.55953 150.47852 227.02344 C 148.22691 229.05517 147.63547 230.2738 145.73438 236.8125 C 143.67223 243.90525 142.93548 247.23186 141.90625 254.08985 C 140.62215 262.64635 140.30875 265.88158 140.74219 266.12501 C 140.94302 266.2378 143.49284 265.59469 146.40821 264.69532 C 149.32359 263.79592 151.78962 263.13923 151.88672 263.23633 L 151.88867 263.23829 C 151.88969 263.2402 151.89207 263.24575 151.89258 263.24805 C 151.90907 263.40155 150.99531 264.28715 149.79883 265.26758 C 147.14817 267.43958 143.67047 272.60233 142.19727 276.55274 C 141.33063 278.87661 141.15902 280.38006 141.16602 285.6504 C 141.17239 291.07833 142.33215 300.63881 143.07422 301.38087 L 143.07617 301.38087 C 143.20183 301.47096 144.51212 300.49605 146.00391 299.19922 C 147.5074 297.89218 149.2958 296.39768 149.97852 295.87696 L 151.22071 294.92969 L 149.96875 297.0918 C 147.68372 301.03609 146.62491 305.14087 146.59571 310.18165 C 146.57283 314.13345 146.79433 315.45839 148.12696 319.41016 C 149.99519 324.95017 154.03821 334.08371 154.72461 334.31251 C 154.99488 334.40259 156.18556 332.84384 157.36914 330.84766 C 158.50648 328.92947 159.51234 327.41367 159.66797 327.37696 L 159.66993 327.37501 L 159.67188 327.37501 L 159.67383 327.37501 L 159.67578 327.37501 L 159.67774 327.37696 L 159.67969 327.37696 L 159.68164 327.37891 C 159.76607 327.48156 159.61936 328.50836 159.35157 329.66993 C 158.21377 334.60514 159.12118 341.39772 161.56641 346.25782 C 163.65252 350.40415 173.7136 363.61524 174.78516 363.61524 C 174.97978 363.61524 175.54094 362.02875 176.03321 360.0918 C 177.2056 355.47874 177.74838 354.53582 177.76758 357.07618 C 177.8009 361.50392 180.17863 367.83876 183.38282 372.03516 C 185.79258 375.19113 198.2876 385.09736 201.33204 386.26563 C 201.99054 386.51831 202.07032 379.10166 202.07032 317.72462 L 202.07032 248.90235 L 203.52539 247.44727 C 204.32608 246.64659 205.36563 246.0642 205.83399 246.1543 C 206.63902 246.30929 206.69813 249.87145 206.92774 311.40235 L 207.16993 376.48634 L 208.24219 379.29298 C 210.37104 384.86927 212.42951 388.09435 216.38282 392.05274 C 222.68046 398.35852 223.89898 398.86002 254.28907 407.61329 C 264.70844 410.61439 273.56019 412.99054 273.96094 412.89454 C 277.60447 412.02265 310.4914 402.48484 315.00782 400.99024 C 326.2191 397.28014 332.26683 392.54648 336.6836 384.0254 C 340.50888 376.64549 340.25081 381.80366 340.40235 310.06055 C 340.55133 239.52327 340.315 244.33649 343.46094 247.48243 L 344.88087 248.90235 L 344.88087 317.67383 C 344.88087 366.22911 345.03315 386.44532 345.4004 386.44532 C 346.71698 386.44532 359.9794 376.23494 362.7461 373.0918 C 366.50068 368.82637 369.12189 362.19244 369.17579 356.81446 C 369.20286 354.12014 369.67218 354.86734 370.85548 359.48634 C 371.33456 361.35648 371.88566 363.06251 372.08009 363.2793 C 372.62758 363.88982 380.98354 353.79599 384.4004 348.39649 C 387.28858 343.83244 388.88935 334.72934 387.70118 329.62501 C 387.42518 328.43935 387.27048 327.3966 387.35352 327.29493 L 387.35548 327.29298 L 387.35743 327.29102 L 387.35938 327.29102 L 387.36134 327.28907 L 387.36329 327.28907 C 387.50404 327.30397 388.50463 328.84404 389.63477 330.79493 C 390.8014 332.80875 391.91548 334.4589 392.11134 334.4629 C 393.13163 334.47998 398.82045 320.74602 400.00587 315.40235 C 401.29918 309.57235 400.17451 302.46812 397.1211 297.16993 C 395.69812 294.7008 396.05761 294.86965 400.38282 298.68946 C 402.18914 300.28474 403.7948 301.46302 403.94923 301.3086 C 404.51652 300.74131 406.07509 288.93386 406.08009 285.16407 C 406.09054 277.79318 403.54552 271.70751 398.20313 266.33594 C 394.60138 262.71452 394.47828 262.76544 401.4961 264.97266 C 403.88701 265.72465 406.01996 266.2386 406.23634 266.11329 C 406.98569 265.67927 405.07325 251.9064 403.14845 243.87696 C 399.9518 230.54192 398.45814 227.48681 394.08985 225.34961 C 391.54378 224.10395 391.24285 224.06805 385.75196 224.36329 C 379.04546 224.7239 373.24204 226.09303 365.28321 229.19141 C 356.0468 232.78715 351.13549 234.02282 343.78712 234.59766 L 340.50977 234.85352 L 340.50977 229.80079 C 340.50977 227.02139 340.3005 224.61692 340.04493 224.45899 C 339.78935 224.30103 334.706 224.72541 328.75001 225.4004 C 322.79402 226.0754 311.14535 227.39781 302.86329 228.33985 C 294.58123 229.28191 284.52699 230.4027 280.51954 230.83204 L 273.23243 231.61329 L 257.44532 229.82618 C 216.39058 225.17635 207.72628 224.20313 207.3418 224.20313 C 207.34002 224.20313 207.33772 224.20285 207.33594 224.20313 z M 455.9922 230.3379 L 431.50001 236.5586 C 431.65546 236.62493 431.86519 236.81686 432.13087 237.13282 C 432.39941 237.46413 432.67 237.80177 432.94141 238.14844 C 433.23106 238.50761 433.49659 238.82491 433.73829 239.09766 C 433.99822 239.3829 434.19067 239.52128 434.31641 239.51368 L 457.17188 236.6504 L 455.9922 230.3379 z M 426.51563 235.6543 C 426.27664 235.65127 426.03287 235.67284 425.78712 235.71875 C 425.29562 235.81059 424.84458 235.99029 424.4336 236.25782 C 424.04085 236.53784 423.71346 236.86915 423.45118 237.25196 C 423.1889 237.63477 423.00631 238.05895 422.90235 238.52344 C 422.7859 239.00617 422.77341 239.49288 422.86524 239.98438 C 422.95707 240.47587 423.14186 240.9178 423.42188 241.31055 C 423.68942 241.72153 424.01564 242.05804 424.39845 242.32032 C 424.78125 242.5826 425.20544 242.76519 425.66993 242.86915 C 426.15265 242.98559 426.63937 242.99809 427.13087 242.90625 C 427.62236 242.81442 428.06429 242.62964 428.45704 242.34961 C 428.86802 242.08208 429.20453 241.75586 429.46681 241.37305 C 429.72909 240.99024 429.91064 240.55994 430.01173 240.08008 C 430.13105 239.61272 430.14457 239.13212 430.05274 238.64063 C 429.96091 238.14913 429.77313 237.69913 429.49024 237.29102 C 429.22558 236.8954 428.90235 236.56697 428.51954 236.30469 C 428.13673 236.04241 427.70343 235.85278 427.22071 235.73633 C 426.98846 235.68435 426.75463 235.65733 426.51563 235.6543 z M 224.2168 243.14844 C 225.74818 243.14844 233.93666 246.14437 237.04493 247.8418 C 244.88729 252.12455 251.6825 258.33644 256.46485 265.59571 C 259.68591 270.48507 261.67971 274.94631 263.62501 281.61133 L 264.94532 286.13672 L 265.09766 339.69141 C 265.24266 390.82277 265.2099 393.24413 264.38282 393.20313 C 263.47791 393.15824 251.67532 389.79743 240.44336 386.38673 C 236.83664 385.29154 232.90343 383.89089 231.70118 383.2754 C 229.02281 381.90424 226.33024 379.15354 224.82032 376.24415 L 223.68555 374.0586 L 223.5586 308.60352 C 223.44262 248.65191 223.49908 243.14844 224.2168 243.14844 z M 323.08594 243.14844 C 324.00112 243.14844 324.01436 244.33323 323.88282 307.87501 C 323.72889 382.24712 324.21761 375.11989 318.91212 380.43751 C 316.11177 383.24425 315.63441 383.51385 310.61719 385.13087 C 307.68884 386.07465 300.22908 388.28743 294.04102 390.04688 C 287.85294 391.80633 282.54479 393.2461 282.24415 393.2461 C 281.84094 393.2461 281.73597 379.19466 281.84376 339.9336 L 281.99024 286.62305 L 283.29102 282.00782 C 286.95104 269.02012 293.46529 259.39496 303.83399 251.66016 C 308.77849 247.97169 319.68926 243.14844 323.08594 243.14844 z M 34.796876 351.35938 C 29.632007 355.27025 20.546788 352.35433 19.470704 363.38282 L 15.611328 358.50782 L 15.611328 420.67579 C 15.611328 459.21754 42.295846 455.36939 45.361329 454.47462 L 46.490235 458.49806 C 48.934817 468.35632 43.321795 459.40506 37.333985 460.72852 C 42.641232 481.56108 49.135594 474.88208 56.833986 482.81642 L 48.126954 450.84767 L 65.021486 434.22266 C 65.021486 434.22266 59.457679 435.87515 55.32422 435.76173 C 49.368881 435.59821 41.199191 440.58876 43.777345 448.56056 C 34.559931 451.88644 27.996002 448.71484 27.404297 439.60548 L 27.404297 381.03516 C 27.404297 378.31425 29.662709 379.28783 31.773438 375.22071 C 33.071503 372.7197 32.753907 368.38282 32.753907 368.38282 C 30.394948 370.55993 26.933368 370.96023 27.498047 375.33009 L 25.083985 372.32423 L 25.083985 440.16798 C 25.083985 440.16798 21.271485 438.09579 21.271485 421.38673 L 21.271485 395.9961 C 21.271485 380.00724 19.396024 384.15304 19.84961 375.91212 C 20.178958 369.92799 26.486248 365.5958 30.800782 361.28126 C 33.910407 358.17164 34.796876 351.35938 34.796876 351.35938 z M 509.67579 351.35938 C 509.67579 351.35938 510.56226 358.17164 513.67189 361.28126 C 517.98642 365.5958 524.29383 369.92994 524.62306 375.91407 C 525.07661 384.15499 523.20118 380.00724 523.20118 395.9961 L 523.20118 421.38868 C 523.20118 438.09774 519.38868 440.16798 519.38868 440.16798 L 519.38868 372.32423 L 516.97462 375.33009 C 517.53929 370.96024 514.07772 370.55993 511.71876 368.38282 C 511.71876 368.38282 511.40125 372.71971 512.69923 375.22071 C 514.80996 379.28784 517.06837 378.31427 517.06837 381.03516 L 517.06837 439.60548 C 516.47666 448.71488 509.91273 451.88644 500.69532 448.56056 C 503.27347 440.58876 495.10379 435.59834 489.14845 435.76173 C 485.01499 435.87523 479.45118 434.22266 479.45118 434.22266 L 496.34571 450.84767 L 487.63868 482.81642 C 495.33712 474.88208 501.83139 481.56108 507.13868 460.72852 C 501.15083 459.40506 495.53781 468.35632 497.98243 458.49806 L 499.11134 454.47462 C 502.17686 455.36939 528.86134 459.21754 528.86134 420.67579 L 528.86134 358.50782 L 525.00196 363.38282 C 523.92592 352.35433 514.84071 355.27025 509.67579 351.35938 z M 468.59571 428.39063 C 468.55885 428.39063 468.52324 428.39154 468.48634 428.39454 C 468.45394 428.39454 468.42138 428.39545 468.38868 428.39845 C 468.37638 428.40245 468.36387 428.40326 468.35157 428.40626 C 468.30207 428.41436 468.25339 428.42716 468.20509 428.43946 L 468.18165 428.44337 L 437.70118 436.60938 C 437.44387 436.67777 437.20791 436.8136 437.01954 437.00196 C 436.83119 437.19028 436.69771 437.42644 436.62891 437.6836 L 428.4629 468.16212 L 428.45899 468.18751 C 428.44269 468.23622 428.43379 468.28449 428.42579 468.33399 C 428.42179 468.34629 428.42098 468.3588 428.41798 468.3711 C 428.41698 468.403 428.41507 468.43606 428.41407 468.46876 C 428.41307 468.50561 428.41116 468.54123 428.41016 468.57813 C 428.41016 468.6461 428.41388 468.71406 428.42188 468.78126 C 428.43008 468.84554 428.44259 468.90851 428.45899 468.97071 L 428.45899 468.97267 L 428.45899 468.97462 L 428.46095 468.97657 C 428.46495 468.99737 428.47248 469.01867 428.48048 469.03907 C 428.49408 469.08417 428.51095 469.12808 428.52735 469.17188 C 428.53965 469.19488 428.55216 469.21984 428.56446 469.24024 C 428.58366 469.27704 428.6007 469.31077 428.6211 469.34767 C 428.6387 469.37307 428.65353 469.39924 428.66993 469.42384 C 428.69003 469.45534 428.71398 469.48693 428.73438 469.51563 C 428.75738 469.54313 428.78205 469.57111 428.80665 469.59571 C 428.82025 469.61291 428.83517 469.634 428.85157 469.6504 L 428.88868 469.68556 L 451.18165 491.97853 C 451.46829 492.26505 451.85332 492.42284 452.24806 492.42384 C 452.37991 492.42424 452.51196 492.408 452.64259 492.3711 L 483.11524 484.20704 L 483.11915 484.20704 L 483.12306 484.20509 L 483.14454 484.20118 C 483.16534 484.19718 483.18469 484.18965 483.20509 484.18165 C 483.2461 484.16775 483.28713 484.15508 483.32813 484.13868 L 483.33204 484.13868 C 483.38814 484.11488 483.4428 484.08535 483.4961 484.05665 C 483.53127 484.03575 483.56497 484.01484 483.59767 483.99024 C 483.62267 483.97264 483.64728 483.95586 483.67188 483.93946 C 483.72382 483.89977 483.77362 483.85686 483.82032 483.81056 C 483.86652 483.76387 483.90823 483.71462 483.94923 483.66212 C 483.96683 483.63832 483.98361 483.6125 484.00001 483.5879 C 484.02381 483.55473 484.04602 483.52314 484.06642 483.48634 C 484.09682 483.43351 484.12385 483.37878 484.14845 483.32228 L 484.14845 483.31837 C 484.16645 483.27865 484.17912 483.23672 484.19142 483.19532 C 484.19952 483.17492 484.20295 483.15518 484.21095 483.13478 L 484.21485 483.11329 L 484.21681 483.10938 L 484.21681 483.10548 L 492.38087 452.63282 C 492.52025 452.11064 492.37033 451.55392 491.98829 451.17188 L 469.69727 428.87891 L 469.66017 428.84181 C 469.64287 428.82421 469.62188 428.81328 469.60548 428.79688 C 469.57968 428.77188 469.5541 428.74922 469.5254 428.72462 C 469.4954 428.70222 469.4663 428.68056 469.4336 428.66016 C 469.409 428.64256 469.38203 428.62774 469.35743 428.61134 C 469.32223 428.59214 469.28691 428.5711 469.25001 428.5547 C 469.22781 428.5425 469.20625 428.52989 469.18165 428.51759 C 469.13777 428.49999 469.09384 428.48301 469.04884 428.47071 C 469.02844 428.46261 469.00674 428.45918 468.98634 428.45118 L 468.98438 428.44923 L 468.98243 428.44923 L 468.98048 428.44923 C 468.91824 428.43273 468.85492 428.42012 468.79102 428.41212 C 468.72346 428.40282 468.6559 428.39969 468.5879 428.4004 L 468.59571 428.39063 z M 75.884767 428.4004 L 75.884767 428.40626 C 75.816793 428.40626 75.748802 428.41193 75.681642 428.41993 C 75.617353 428.42813 75.552476 428.44064 75.490236 428.45704 L 75.488283 428.45704 L 75.48633 428.45704 L 75.484376 428.45899 C 75.463486 428.46299 75.4443 428.47052 75.42383 428.47852 C 75.378778 428.49212 75.332874 428.509 75.289064 428.5254 C 75.266534 428.5376 75.243128 428.55021 75.222658 428.56251 C 75.185804 428.58171 75.150143 428.5968 75.113283 428.6172 C 75.087903 428.6348 75.063634 428.65158 75.039064 428.66798 C 75.007534 428.68798 74.973974 428.71203 74.945314 428.73243 C 74.917874 428.75543 74.891759 428.7801 74.867189 428.8047 C 74.849989 428.8183 74.828881 428.83322 74.812501 428.84962 L 74.779298 428.88673 L 52.486329 451.1797 C 52.102243 451.56188 51.956478 452.11845 52.095704 452.64063 L 60.259767 483.11329 C 60.259726 483.11429 60.259726 483.11622 60.259767 483.1172 L 60.26172 483.1211 L 60.265626 483.14259 C 60.273816 483.16339 60.276957 483.18273 60.285157 483.20313 C 60.299077 483.24405 60.311746 483.28323 60.328126 483.32423 L 60.328126 483.32813 C 60.351866 483.38423 60.381497 483.44085 60.410157 483.49415 C 60.431047 483.52932 60.451994 483.56301 60.476564 483.59571 C 60.494174 483.62071 60.510965 483.64533 60.527345 483.66993 C 60.567062 483.72187 60.609981 483.77167 60.656251 483.81837 C 60.702933 483.86456 60.752279 483.90628 60.804689 483.94728 C 60.828449 483.96488 60.854337 483.98166 60.878907 483.99806 C 60.912078 484.02186 60.94361 484.04406 60.98047 484.06446 C 61.033293 484.09476 61.088022 484.12189 61.144532 484.14649 L 61.148439 484.14649 C 61.188157 484.16039 61.230536 484.17716 61.271486 484.18946 C 61.291956 484.19756 61.311562 484.20099 61.332032 484.20899 L 61.353517 484.2129 L 61.357423 484.21485 L 61.361329 484.21485 L 91.832033 492.37892 C 91.962659 492.41462 92.095119 492.43206 92.226564 492.43165 C 92.621388 492.43067 93.008285 492.27298 93.294924 491.98634 L 115.58789 469.69337 L 115.62305 469.65626 C 115.64065 469.63906 115.65352 469.61992 115.66992 469.60352 C 115.69492 469.57772 115.71759 469.55215 115.74219 469.52345 C 115.76459 469.49355 115.78624 469.46435 115.80664 469.43165 C 115.82434 469.40705 115.83907 469.38008 115.85547 469.35548 C 115.87467 469.32028 115.89571 469.28496 115.91211 469.24806 C 115.92441 469.22586 115.93301 469.2043 115.94531 469.1797 C 115.96291 469.1359 115.97989 469.09188 115.99219 469.04688 C 116.00039 469.02648 116.00372 469.00478 116.01172 468.98438 L 116.01367 468.98243 L 116.01367 468.98048 L 116.01367 468.97852 C 116.03427 468.91628 116.04669 468.85287 116.05469 468.78907 C 116.06399 468.7215 116.0671 468.65395 116.06641 468.58595 C 116.06641 468.5491 116.0655 468.51347 116.0625 468.47657 C 116.0625 468.44407 116.0616 468.41162 116.0586 468.37892 C 116.0546 468.36662 116.05378 468.35411 116.05078 468.34181 C 116.04668 468.2923 116.03379 468.24362 116.02149 468.19532 L 116.01758 468.16993 L 107.85156 437.69141 C 107.78277 437.43404 107.64929 437.20008 107.46094 437.01173 C 107.27261 436.82336 107.03645 436.68795 106.7793 436.61915 L 76.29883 428.45313 L 76.275392 428.44923 C 76.227067 428.43293 76.178448 428.42402 76.128908 428.41602 C 76.116618 428.41202 76.104088 428.41121 76.091798 428.40821 C 76.059858 428.40721 76.026902 428.40529 75.994142 428.40431 C 75.9577 428.40331 75.921627 428.40138 75.884767 428.4004 z M 76.556642 432.42579 L 93.875002 446.66017 L 68.679689 453.41212 L 76.556642 432.42579 z M 467.91602 432.42579 L 475.79298 453.41212 L 450.59767 446.66017 L 467.91602 432.42579 z M 82.250002 433.18556 L 103.46094 438.86915 L 97.011721 445.32032 L 82.250002 433.18556 z M 462.22267 433.18556 L 447.46095 445.32032 L 441.01173 438.86915 L 462.22267 433.18556 z M 72.005861 435.9336 L 65.291017 453.82032 L 56.48047 451.45704 L 72.005861 435.9336 z M 472.46681 435.9336 L 487.9922 451.45704 L 479.18165 453.82032 L 472.46681 435.9336 z M 105.60352 441.01173 L 111.28711 462.22071 L 99.152346 447.46095 L 105.60352 441.01173 z M 438.86915 441.01173 L 445.32032 447.46095 L 433.18556 462.22071 L 438.86915 441.01173 z M 94.968752 449.50392 L 88.050783 475.32032 L 78.601564 465.8711 L 69.152345 456.42188 L 94.968752 449.50392 z M 449.50392 449.50392 L 475.32032 456.42188 L 465.8711 465.8711 L 456.42188 475.32032 L 449.50392 449.50392 z M 97.812502 450.59767 L 112.04688 467.91602 L 91.060549 475.79298 L 97.812502 450.59767 z M 446.66017 450.59767 L 453.41212 475.79298 L 432.42579 467.91602 L 446.66017 450.59767 z M 55.697267 454.38282 L 64.507814 456.74415 L 61.380861 475.59376 L 55.697267 454.38282 z M 488.7754 454.38282 L 483.09181 475.59376 L 479.96485 456.74415 L 488.7754 454.38282 z M 67.238283 458.79102 L 76.460939 468.01173 L 85.681642 477.23438 L 63.568361 480.90431 L 67.238283 458.79102 z M 477.23438 458.79102 L 480.90431 480.90431 L 458.79102 477.23438 L 468.01173 468.01173 L 477.23438 458.79102 z M 108.53906 472.46681 L 93.015627 487.9922 L 90.652346 479.18165 L 108.53906 472.46681 z M 435.9336 472.46681 L 453.82032 479.18165 L 451.45899 487.9922 L 435.9336 472.46681 z M 110.25 479.45118 L 93.625002 496.34571 L 61.656251 487.63868 C 69.590587 495.33712 62.911534 501.83139 83.744142 507.13868 C 85.067554 501.15083 76.116352 495.53785 85.974611 497.98243 L 89.998049 499.11134 C 89.103285 502.17686 85.255134 528.85939 123.79688 528.85939 L 185.96485 528.85939 L 181.08985 525.00196 C 192.11833 523.92592 189.20247 514.84071 193.11329 509.67579 C 193.11329 509.67579 186.30104 510.56226 183.19141 513.67189 C 178.87688 517.98642 174.54467 524.29384 168.56055 524.62306 C 160.31964 525.07661 164.46543 523.20118 148.47657 523.20118 L 123.08594 523.20118 C 106.37688 523.20118 104.30469 519.38673 104.30469 519.38673 L 172.14844 519.38673 L 169.14258 516.97462 C 173.51239 517.53929 173.91279 514.07772 176.08985 511.71876 C 176.08985 511.71876 171.75297 511.40124 169.25196 512.69923 C 165.18484 514.80996 166.1584 517.06837 163.4375 517.06837 L 104.86719 517.06837 C 95.757801 516.47665 92.586278 509.91273 95.912111 500.69532 C 103.88392 503.27347 108.87432 495.10379 108.71094 489.14845 C 108.59742 485.01499 110.25 479.45118 110.25 479.45118 z M 434.22266 479.45118 C 434.22266 479.45118 435.87515 485.01499 435.76173 489.14845 C 435.59822 495.10379 440.58876 503.27347 448.56056 500.69532 C 451.88644 509.91273 448.71484 516.47665 439.60548 517.06837 L 381.03516 517.06837 C 378.31426 517.06837 379.28783 514.80996 375.22071 512.69923 C 372.71971 511.40116 368.38282 511.71876 368.38282 511.71876 C 370.55993 514.07772 370.96023 517.53929 375.33009 516.97462 L 372.32423 519.38673 L 440.16798 519.38673 C 440.16798 519.38673 438.09579 523.20118 421.38673 523.20118 L 395.9961 523.20118 C 380.00724 523.20118 384.15304 525.07661 375.91212 524.62306 C 369.92799 524.29368 365.5958 517.98642 361.28126 513.67189 C 358.17164 510.56226 351.35938 509.67579 351.35938 509.67579 C 355.27025 514.84071 352.35434 523.92592 363.38282 525.00196 L 358.50782 528.85939 L 420.67579 528.85939 C 459.21754 528.85939 455.36939 502.17686 454.47462 499.11134 L 458.49806 497.98243 C 468.35632 495.53785 459.40506 501.15083 460.72852 507.13868 C 481.56108 501.83139 474.88208 495.33712 482.81642 487.63868 L 450.84767 496.34571 L 434.22266 479.45118 z M 87.728517 479.96485 L 90.089846 488.7754 L 68.878908 483.09181 L 87.728517 479.96485 z M 456.74415 479.96485 L 475.59376 483.09181 L 454.38282 488.7754 L 456.74415 479.96485 z " /></svg>
