<?xml version="1.0" encoding="UTF-8" standalone="no"?>
<svg
   viewBox="0 0 548.0315 548.03151"
   width="145mm"
   height="145mm"
   version="1.1"
   id="svg65"
   sodipodi:docname="ranger lid.svg"
   inkscape:version="1.4.2 (f4327f4, 2025-05-13)"
   xml:space="preserve"
   xmlns:inkscape="http://www.inkscape.org/namespaces/inkscape"
   xmlns:sodipodi="http://sodipodi.sourceforge.net/DTD/sodipodi-0.dtd"
   xmlns="http://www.w3.org/2000/svg"
   xmlns:svg="http://www.w3.org/2000/svg"><sodipodi:namedview
     id="namedview65"
     pagecolor="#ffffff"
     bordercolor="#666666"
     borderopacity="1.0"
     inkscape:showpageshadow="2"
     inkscape:pageopacity="0.0"
     inkscape:pagecheckerboard="0"
     inkscape:deskcolor="#d1d1d1"
     inkscape:zoom="1.4205836"
     inkscape:cx="279.81458"
     inkscape:cy="229.13118"
     inkscape:window-width="1920"
     inkscape:window-height="1057"
     inkscape:window-x="1912"
     inkscape:window-y="-8"
     inkscape:window-maximized="1"
     inkscape:current-layer="svg65"
     inkscape:document-units="mm" /><desc
     id="desc1">outline.dxf - scale = 1.000000, origin = (0.000000, 0.000000), method = manual</desc><defs
     id="defs4"><marker
       id="DistanceX"
       orient="auto"
       refX="0"
       refY="0"
       style="overflow:visible"><path
         d="M 3,-3 -3,3 M 0,-5 V 5"
         style="stroke:#000000;stroke-width:0.5"
         id="path1" /></marker><pattern
       id="Hatch"
       patternUnits="userSpaceOnUse"
       width="8"
       height="8"
       x="0"
       y="0"><path
         d="M8 4 l-4,4"
         stroke="#000000"
         stroke-width="0.25"
         linecap="square"
         id="path2" /><path
         d="M6 2 l-4,4"
         stroke="#000000"
         stroke-width="0.25"
         linecap="square"
         id="path3" /><path
         d="M4 0 l-4,4"
         stroke="#000000"
         stroke-width="0.25"
         linecap="square"
         id="path4" /></pattern><symbol
       id="*MODEL_SPACE" /><symbol
       id="*PAPER_SPACE" /></defs><path
     id="outline"
     style="display:inline;opacity:1;fill:#000000;fill-opacity:1;stroke:none;stroke-width:1;stroke-linecap:round;stroke-dasharray:none;stroke-opacity:1;paint-order:fill markers stroke"
     inkscape:label="outline"
     d="M -25.984376 -25.984376 L -25.984376 574.01564 L 574.01564 574.01564 L 574.01564 -25.984376 L -25.984376 -25.984376 z M 120.47852 0.49414063 L 427.55274 0.49414063 C 444.66376 0.49413963 461.07452 7.2913084 473.17384 19.390625 L 528.63673 74.851564 L 528.63673 74.853517 C 540.73605 86.952837 547.53321 103.36164 547.53321 120.47266 L 547.53321 427.55079 C 547.53321 444.66181 540.73605 461.07256 528.63673 473.17188 L 473.17384 528.63868 C 461.07451 540.73797 444.66375 547.53519 427.55274 547.53517 L 120.47852 547.53517 L 120.47852 547.53126 C 103.36799 547.53129 86.958606 540.73343 74.859376 528.63478 L 74.857423 528.63478 L 19.394532 473.16993 C 7.2963196 461.07117 0.49856488 444.66257 0.49804688 427.55274 L 0.49804688 120.47461 C 0.49804588 103.36359 7.2952146 86.952837 19.394532 74.853517 L 74.857423 19.392579 L 74.857423 19.390625 C 86.956743 7.2913084 103.3675 0.49413963 120.47852 0.49414063 z M 123.79688 15.613282 C 85.255134 15.613282 89.103285 42.295846 89.998049 45.361329 L 85.974611 46.490235 C 76.116352 48.934818 85.067554 43.323749 83.744142 37.335938 C 62.911534 42.643185 69.590587 49.135594 61.656251 56.833986 L 93.625002 48.126954 L 110.25 65.021486 C 110.25 65.021486 108.59751 59.45768 108.71094 55.32422 C 108.87448 49.368881 103.88392 41.199189 95.912111 43.777345 C 92.586278 34.559929 95.757882 27.996002 104.86719 27.404297 L 163.4375 27.404297 C 166.1584 27.404297 165.18484 29.662709 169.25196 31.773438 C 171.75297 33.071504 176.08985 32.753907 176.08985 32.753907 C 173.91279 30.394949 173.51239 26.933368 169.14258 27.498047 L 172.14844 25.085938 L 104.30469 25.085938 C 104.30469 25.085938 106.37688 21.271485 123.08594 21.271485 L 148.47657 21.271485 C 164.46543 21.271485 160.31964 19.396025 168.56055 19.84961 C 174.54467 20.178959 178.87688 26.486248 183.19141 30.800782 C 186.30104 33.910408 193.11329 34.796876 193.11329 34.796876 C 189.20247 29.632006 192.11833 20.546788 181.08985 19.470704 L 185.96485 15.613282 L 123.79688 15.613282 z M 358.50782 15.613282 L 363.38282 19.470704 C 352.35434 20.546788 355.27025 29.632006 351.35938 34.796876 C 351.35938 34.796876 358.17164 33.910408 361.28126 30.800782 C 365.5958 26.486248 369.92799 20.178835 375.91212 19.84961 C 384.15304 19.396065 380.00724 21.271485 395.9961 21.271485 L 421.38673 21.271485 C 438.09579 21.271485 440.16798 25.085938 440.16798 25.085938 L 372.32423 25.085938 L 375.33009 27.498047 C 370.96023 26.933368 370.55993 30.394949 368.38282 32.753907 C 368.38282 32.753907 372.71971 33.071422 375.22071 31.773438 C 379.28783 29.662709 378.31426 27.404297 381.03516 27.404297 L 439.60548 27.404297 C 448.71488 27.996002 451.88644 34.559929 448.56056 43.777345 C 440.58876 41.199189 435.59834 49.368881 435.76173 55.32422 C 435.87523 59.45768 434.22266 65.021486 434.22266 65.021486 L 450.84767 48.126954 L 482.81642 56.833986 C 474.88208 49.135594 481.56108 42.643185 460.72852 37.335938 C 459.40506 43.323749 468.35632 48.934818 458.49806 46.490235 L 454.47462 45.361329 C 455.36939 42.295846 459.21754 15.613282 420.67579 15.613282 L 358.50782 15.613282 z M 452.2422 52.033204 C 451.84738 52.034391 451.46243 52.191877 451.17579 52.478517 L 428.88282 74.771486 L 428.84571 74.808595 C 428.82811 74.825795 428.81524 74.84086 428.79884 74.86133 C 428.77384 74.88713 428.75312 74.912738 428.72852 74.941408 C 428.70612 74.971288 428.68447 75.000445 428.66407 75.033205 C 428.64637 75.057775 428.62969 75.084806 428.61329 75.109376 C 428.59409 75.14459 428.57305 75.179938 428.55665 75.216798 C 428.54435 75.238908 428.53379 75.260588 428.52149 75.285158 C 428.50389 75.32897 428.48692 75.37293 428.47462 75.41797 C 428.46652 75.43844 428.46113 75.46 428.45313 75.48047 L 428.45118 75.482423 L 428.45118 75.484376 L 428.45118 75.48633 C 428.43478 75.548572 428.42207 75.611903 428.41407 75.675783 C 428.40477 75.743349 428.40165 75.810938 428.40235 75.878908 C 428.40235 75.915759 428.40326 75.951423 428.40626 75.988283 C 428.40626 76.020643 428.40716 76.053179 428.41016 76.085939 C 428.41416 76.098229 428.41498 76.110768 428.41798 76.123048 C 428.42608 76.172603 428.43888 76.221213 428.45118 76.269533 L 428.45509 76.294923 L 436.61524 106.77344 C 436.68404 107.03081 436.8175 107.26673 437.00587 107.45508 C 437.1942 107.64345 437.43036 107.77886 437.68751 107.84766 L 468.16798 116.01367 L 468.19142 116.01758 C 468.23972 116.02988 468.2883 116.03692 468.3379 116.04492 C 468.3502 116.04892 468.36271 116.04974 468.37501 116.05274 C 468.40691 116.05374 468.43997 116.05762 468.47267 116.0586 C 468.50913 116.0596 468.54514 116.06152 468.58204 116.0625 C 468.65001 116.0625 468.71797 116.05683 468.78517 116.04883 C 468.84906 116.04063 468.91242 116.02812 468.97462 116.01172 L 468.97657 116.01172 L 468.97852 116.01172 L 468.98048 116.00977 C 469.00128 116.00577 469.02258 115.99824 469.04298 115.99024 C 469.08807 115.97664 469.13199 115.95976 469.17579 115.94336 C 469.19879 115.93526 469.22375 115.92246 469.24415 115.91016 C 469.28096 115.89506 469.31477 115.87587 469.35157 115.85547 C 469.37697 115.83787 469.40314 115.82109 469.42774 115.80469 C 469.45924 115.78469 469.49084 115.76484 469.51954 115.74024 C 469.54704 115.71724 469.57502 115.69452 469.59962 115.66992 C 469.61682 115.65632 469.63791 115.63945 469.65431 115.62305 L 469.68556 115.58594 L 491.97853 93.292971 C 492.36282 92.910799 492.51031 92.354208 492.3711 91.832033 L 484.20704 61.359376 L 484.20704 61.35547 L 484.20509 61.351564 L 484.20118 61.332032 C 484.19718 61.311152 484.18965 61.290002 484.18165 61.269532 C 484.16775 61.228584 484.15508 61.189379 484.13868 61.148439 L 484.13868 61.144532 C 484.11488 61.088433 484.08535 61.0337 484.05665 60.98047 C 484.03575 60.945669 484.01484 60.909714 483.99024 60.876954 C 483.97254 60.852384 483.95586 60.829259 483.93946 60.804689 C 483.89976 60.752686 483.85686 60.700978 483.81056 60.654298 C 483.76388 60.608031 483.71462 60.566342 483.66212 60.525392 C 483.63842 60.507782 483.6125 60.490991 483.5879 60.474611 C 483.55473 60.450851 483.52324 60.428674 483.48634 60.408204 C 483.43311 60.377894 483.37878 60.350743 483.32228 60.326173 L 483.31642 60.326173 C 483.2767 60.308163 483.23632 60.297437 483.19532 60.285157 C 483.17492 60.276977 483.15518 60.271873 483.13478 60.263673 L 483.11329 60.259767 L 483.10938 60.257814 L 483.10548 60.257814 L 452.63282 52.093751 C 452.5022 52.058131 452.36973 52.040648 452.23829 52.041017 L 452.2422 52.033204 z M 92.226564 52.041017 C 92.09471 52.040607 91.962659 52.060991 91.832033 52.093751 L 61.361329 60.257814 L 61.357423 60.257814 L 61.351564 60.259767 L 61.332032 60.263673 C 61.311142 60.267763 61.290002 60.275004 61.269532 60.283204 C 61.228585 60.297134 61.189389 60.309793 61.148439 60.326173 L 61.144532 60.326173 C 61.088432 60.349923 61.0337 60.379534 60.98047 60.408204 C 60.945669 60.429504 60.909714 60.450041 60.876954 60.474611 C 60.852384 60.492221 60.829259 60.509022 60.804689 60.525392 C 60.752686 60.565109 60.702931 60.608028 60.656251 60.654298 C 60.609984 60.70098 60.568285 60.750326 60.527345 60.802736 C 60.509735 60.826496 60.492934 60.852384 60.476564 60.876954 C 60.452804 60.910125 60.428674 60.941657 60.408204 60.978517 C 60.377894 61.03134 60.352696 61.086479 60.328126 61.142579 L 60.328126 61.146486 C 60.314206 61.186203 60.297447 61.228172 60.285157 61.269532 C 60.276977 61.290002 60.271873 61.309609 60.263673 61.330079 L 60.259767 61.351564 L 60.257814 61.35547 L 60.257814 61.359376 L 52.093751 91.832033 C 51.954403 92.354208 52.10428 92.910922 52.486329 93.292971 L 74.779298 115.58594 L 74.812501 115.62305 C 74.829691 115.64065 74.846719 115.65157 74.867189 115.66797 C 74.892989 115.69297 74.916654 115.71564 74.945314 115.74024 C 74.975204 115.76274 75.006304 115.78429 75.039064 115.80469 C 75.063634 115.82229 75.088713 115.83712 75.113283 115.85352 C 75.148497 115.87272 75.185798 115.89376 75.222658 115.91016 C 75.244768 115.92246 75.264494 115.93106 75.289064 115.94336 C 75.332877 115.96086 75.376836 115.97794 75.421876 115.99024 C 75.442346 115.99834 75.463906 116.00177 75.484376 116.00977 L 75.48633 116.01172 L 75.488283 116.01172 L 75.490236 116.01172 C 75.552478 116.03232 75.615809 116.04474 75.679689 116.05274 C 75.747254 116.06204 75.814844 116.06515 75.882814 116.06446 C 75.919665 116.06446 75.955339 116.06355 75.992189 116.06055 C 76.024549 116.06055 76.057085 116.05964 76.089845 116.05664 C 76.102135 116.05264 76.114665 116.05183 76.126955 116.04883 C 76.1765 116.04473 76.225129 116.03183 76.273439 116.01953 L 76.29883 116.01563 L 106.77735 107.85156 C 107.03466 107.78277 107.27063 107.64735 107.45899 107.45899 C 107.64736 107.27066 107.78081 107.0345 107.84961 106.77735 L 116.01563 76.29883 L 116.01953 76.273439 C 116.03183 76.224704 116.04083 76.176505 116.04883 76.126955 C 116.05283 76.114665 116.05364 76.102135 116.05664 76.089845 C 116.05764 76.057905 116.05956 76.024949 116.06055 75.992189 C 116.06555 75.955748 116.06738 75.919674 116.06836 75.882814 C 116.06836 75.814839 116.06464 75.746849 116.05664 75.679689 C 116.04844 75.615399 116.03593 75.552476 116.01953 75.490236 L 116.01953 75.488283 L 116.01953 75.48633 L 116.01758 75.484376 C 116.01358 75.463496 116.00605 75.442346 115.99805 75.421876 C 115.98445 75.376824 115.96757 75.332874 115.95117 75.289064 C 115.94307 75.266134 115.93027 75.241175 115.91797 75.220705 C 115.89877 75.183851 115.88368 75.150143 115.86328 75.113283 C 115.84568 75.087903 115.8289 75.061681 115.8125 75.037111 C 115.7925 75.005581 115.76845 74.973984 115.74805 74.945314 C 115.72505 74.917874 115.70038 74.889806 115.67578 74.865236 C 115.66218 74.848036 115.64726 74.828881 115.63086 74.812501 L 115.59375 74.779298 L 93.300783 52.486329 C 93.014144 52.199812 92.62912 52.042217 92.234377 52.041017 L 92.226564 52.041017 z M 90.089846 55.697267 L 87.728517 64.507814 L 68.878908 61.380861 L 90.089846 55.697267 z M 454.38282 55.697267 L 475.59376 61.380861 L 456.74415 64.507814 L 454.38282 55.697267 z M 93.015627 56.48047 L 108.53906 72.005861 L 90.652346 65.291017 L 93.015627 56.48047 z M 451.45899 56.48047 L 453.82032 65.291017 L 435.9336 72.005861 L 451.45899 56.48047 z M 56.833986 61.656251 C 49.135594 69.590587 42.641232 62.911575 37.333985 83.744142 C 43.321795 85.067556 48.934817 76.116352 46.490235 85.974611 L 45.361329 89.998049 C 42.295846 89.103284 15.611328 85.255126 15.611328 123.79688 L 15.611328 185.96485 L 19.470704 181.08985 C 20.546788 192.11833 29.632007 189.20247 34.796876 193.11329 C 34.796876 193.11329 33.910407 186.30105 30.800782 183.19141 C 26.486248 178.87689 20.178836 174.54469 19.84961 168.56055 C 19.396066 160.31964 21.271485 164.46543 21.271485 148.47657 L 21.271485 123.08594 C 21.271485 106.37689 25.083985 104.30469 25.083985 104.30469 L 25.083985 172.14844 L 27.498047 169.14258 C 26.933368 173.51239 30.394948 173.91278 32.753907 176.08985 C 32.753907 176.08985 33.071422 171.75297 31.773438 169.25196 C 29.662709 165.18484 27.404297 166.1584 27.404297 163.4375 L 27.404297 104.86719 C 27.996002 95.757793 34.559931 92.586278 43.777345 95.912111 C 41.199191 103.88391 49.368881 108.87432 55.32422 108.71094 C 59.457679 108.59743 65.021486 110.25 65.021486 110.25 L 48.126954 93.625002 L 56.833986 61.656251 z M 487.63868 61.656251 L 496.34571 93.625002 L 479.45118 110.25 C 479.45118 110.25 485.01499 108.59752 489.14845 108.71094 C 495.10379 108.87449 503.27347 103.88391 500.69532 95.912111 C 509.91273 92.586278 516.47666 95.757874 517.06837 104.86719 L 517.06837 163.4375 C 517.06837 166.1584 514.80996 165.18484 512.69923 169.25196 C 511.40116 171.75297 511.71876 176.08985 511.71876 176.08985 C 514.07772 173.91278 517.53929 173.51239 516.97462 169.14258 L 519.38868 172.14844 L 519.38868 104.30469 C 519.38868 104.30469 523.20118 106.37689 523.20118 123.08594 L 523.20118 148.47657 C 523.20118 164.46543 525.07661 160.31964 524.62306 168.56055 C 524.29367 174.54469 517.98642 178.87689 513.67189 183.19141 C 510.56226 186.30105 509.67579 193.11329 509.67579 193.11329 C 514.84071 189.20247 523.92592 192.11833 525.00196 181.08985 L 528.86134 185.96485 L 528.86134 123.79688 C 528.86134 85.255126 502.17686 89.103284 499.11134 89.998049 L 497.98243 85.974611 C 495.53781 76.116352 501.15083 85.067556 507.13868 83.744142 C 501.83139 62.911575 495.33712 69.590587 487.63868 61.656251 z M 63.568361 63.568361 L 85.681642 67.238283 L 76.460939 76.460939 L 67.238283 85.681642 L 63.568361 63.568361 z M 480.90431 63.568361 L 477.23438 85.681642 L 468.01173 76.460939 L 458.79102 67.238283 L 480.90431 63.568361 z M 91.060549 68.679689 L 112.04688 76.556642 L 97.812502 93.875002 L 91.060549 68.679689 z M 453.41212 68.679689 L 446.66017 93.875002 L 432.42579 76.556642 L 453.41212 68.679689 z M 61.380861 68.878908 L 64.507814 87.728517 L 55.697267 90.089846 L 61.380861 68.878908 z M 483.09181 68.878908 L 488.7754 90.089846 L 479.96485 87.728517 L 483.09181 68.878908 z M 88.050783 69.152345 L 94.968752 94.968752 L 69.152345 88.050783 L 78.601564 78.601564 L 88.050783 69.152345 z M 456.42188 69.152345 L 465.8711 78.601564 L 475.32032 88.050783 L 449.50392 94.968752 L 456.42188 69.152345 z M 268.47071 73.783205 C 266.27017 75.162311 264.11637 76.009071 262.00977 76.32422 L 261.94922 77.371095 C 261.48998 82.117008 260.04649 88.01672 257.61719 95.070314 C 256.26981 98.950269 254.99264 102.45333 253.78711 105.58008 C 252.58085 108.68948 251.43063 111.47381 250.33594 113.93555 C 251.38462 112.84852 253.12174 112.01117 255.54688 111.42188 L 255.53126 111.08399 C 255.50847 110.54627 255.71572 109.46062 256.1504 107.82617 C 256.58507 106.19173 257.22875 103.98292 258.08399 101.20117 L 258.3418 101.13867 C 260.21924 100.74635 262.65938 100.48651 265.66016 100.35938 L 266.25782 100.33399 C 266.48257 100.30709 266.7342 100.28715 267.01172 100.27539 C 267.98307 100.23424 268.93005 100.21934 269.85157 100.23242 C 270.79043 100.24478 271.72959 100.27522 272.66993 100.32227 C 273.79311 103.45461 274.71243 106.05655 275.42579 108.12891 C 276.13915 110.20126 276.65616 111.76032 276.97852 112.80664 C 277.26384 112.56866 277.62767 112.31859 278.06836 112.05664 C 278.50906 111.7947 279.00942 111.54076 279.57227 111.29102 C 280.13512 111.04127 280.74276 110.81466 281.39454 110.61328 C 282.04632 110.4119 282.72611 110.25358 283.4336 110.13672 C 281.11093 107.40273 278.1628 101.78338 274.5879 93.281252 C 271.26568 85.41136 269.22668 78.912048 268.47071 73.783205 z M 225.85547 79.398439 C 224.84654 80.35625 223.87623 81.152054 222.94532 81.785158 C 222.02691 82.397132 221.06984 82.892585 220.07422 83.273439 L 220.44532 84.093752 C 220.79122 84.883257 221.16746 85.852625 221.57032 87.003908 C 221.97318 88.155191 222.41709 89.502545 222.90235 91.044924 C 221.71224 91.296436 220.69829 91.503141 219.86133 91.664064 C 219.02006 91.808171 218.3351 91.866097 217.8086 91.839846 L 217.37305 91.818361 C 217.48784 92.685076 217.53474 93.460003 217.51368 94.146486 C 217.47148 94.820467 217.38077 95.374331 217.24024 95.804689 C 218.20179 95.360882 219.20743 94.949247 220.25782 94.572267 C 221.32502 94.190975 222.45994 93.828599 223.66211 93.484377 L 225.28907 99.197268 C 225.40079 99.56292 225.51439 99.971734 225.63086 100.42578 L 226.01172 101.91406 C 226.81839 105.05878 227.48998 108.06019 228.0254 110.91602 C 228.57762 113.76753 228.99399 116.51032 229.2754 119.14453 C 229.48019 118.89484 229.78875 118.5906 230.19922 118.23438 C 230.6097 117.87816 231.07221 117.51763 231.5879 117.15235 C 232.11609 116.76593 232.67755 116.40631 233.27344 116.07422 C 233.86502 115.72532 234.45328 115.43274 235.03711 115.19336 L 234.60352 114.33594 C 233.87464 112.8919 233.08808 110.80936 232.2461 108.08594 C 231.40411 105.36252 230.45487 101.97623 229.39844 97.927736 L 229.17188 97.044924 L 228.57032 94.699221 L 228.03907 92.416017 C 229.2503 92.177008 230.31022 91.975817 231.21875 91.814455 C 232.12298 91.636277 232.8781 91.541433 233.48438 91.529299 L 233.91407 91.527346 C 233.70781 90.164321 233.73448 88.838621 233.9961 87.552736 C 233.085 87.983602 232.08947 88.400313 231.00977 88.802736 C 229.94257 89.184029 228.7753 89.556493 227.50586 89.917971 C 226.703 86.019508 226.15245 82.512586 225.85547 79.398439 z M 265.02344 81.619142 C 265.49721 82.137747 266.18617 83.445962 267.0918 85.544924 C 268.01405 87.625805 269.14346 90.524274 270.48243 94.238283 L 271.75391 97.753908 C 270.14739 97.978363 268.05129 98.146362 265.4668 98.255861 L 264.91993 98.279299 C 263.82716 98.325597 262.78583 98.344134 261.79493 98.333986 C 260.82137 98.323104 259.89026 98.291438 259.00196 98.242189 L 260.01758 95.125002 C 262.49274 87.513411 264.16145 83.011044 265.02344 81.619142 z M 111.28711 82.250002 L 105.60352 103.46094 L 99.152346 97.011721 L 111.28711 82.250002 z M 433.18556 82.250002 L 445.32032 97.011721 L 438.86915 103.46094 L 433.18556 82.250002 z M 298.01368 85.099611 L 292.09571 88.025392 C 291.45737 88.385018 290.88385 88.789054 290.37501 89.234377 C 289.18126 90.27851 288.1653 91.509921 287.32813 92.929689 C 286.49935 94.280521 285.84588 96.133004 285.36719 98.488283 C 285.13674 100.38405 285.28345 102.27381 285.80665 104.15625 C 286.20034 105.953 287.06576 107.67495 288.4043 109.32422 C 289.45519 110.60624 290.63357 111.70252 291.93946 112.61328 C 293.26258 113.52615 294.42511 114.17634 295.42774 114.56055 L 301.76954 111.60547 C 301.77163 111.58824 302.20784 111.30888 303.07813 110.76758 C 304.23207 110.0509 305.10415 109.1959 305.69727 108.20117 L 302.20313 106.30664 C 302.29519 107.41963 302.30046 108.31224 302.21876 108.98438 C 302.08887 110.0529 301.85938 110.78626 301.53126 111.1836 L 301.50196 111.20508 C 298.28517 110.04453 295.83878 108.95158 294.16212 107.92578 C 292.3711 106.83362 291.03322 105.404 290.14649 103.63477 C 289.28794 101.92142 288.83671 100.30005 288.79493 98.773439 C 288.77789 98.194235 288.80406 97.629622 288.8711 97.078127 C 289.0366 95.716622 289.42113 94.27585 290.0254 92.757814 C 290.86019 90.638202 291.58435 89.145286 292.19727 88.275392 L 292.22657 88.251955 C 295.90402 89.363565 298.3092 90.42495 299.44532 91.437502 C 300.4389 92.327793 301.27597 93.496436 301.95704 94.943361 L 306.4629 92.632814 C 305.87571 91.564568 305.39879 90.8142 305.03126 90.384767 C 303.82059 88.978398 302.64856 87.892084 301.51758 87.125002 C 299.99813 86.100829 298.83092 85.426311 298.01368 85.099611 z M 65.291017 90.652346 L 72.005861 108.53906 L 56.48047 93.013674 L 65.291017 90.652346 z M 479.18165 90.652346 L 487.9922 93.013674 L 472.46681 108.53906 L 479.18165 90.652346 z M 326.01758 90.67383 L 319.29688 92.61133 L 318.20704 93.115236 C 317.56837 93.331167 316.90593 93.720965 316.22266 94.285158 C 315.5561 94.854087 314.91532 95.529477 314.29688 96.310549 C 313.69988 97.079653 313.15278 97.925705 312.65626 98.849611 C 312.15973 99.773518 311.77886 100.70332 311.51368 101.63867 C 311.25074 102.50249 311.0879 103.39382 311.0254 104.31446 C 310.96762 105.21839 310.97102 106.19542 311.03516 107.24219 C 311.09706 108.3605 311.30061 109.41905 311.64844 110.41992 C 312.00101 111.4041 312.43629 112.32158 312.95313 113.17188 C 313.47471 114.00547 314.03522 114.7682 314.63282 115.46094 C 315.24712 116.15841 315.83198 116.76642 316.38868 117.28516 C 316.95012 117.78719 317.45223 118.21024 317.89649 118.55274 C 318.36219 118.88326 318.70615 119.10626 318.92579 119.22266 L 325.22462 117.2461 C 323.72059 116.44074 322.40752 115.6634 321.28516 114.91211 C 320.18424 114.14886 319.24368 113.42045 318.46485 112.73047 C 317.5833 111.95723 316.84983 111.10963 316.26368 110.18555 C 315.69423 109.2662 315.26174 108.30416 314.96876 107.30078 C 314.69721 106.28544 314.55813 105.25434 314.54883 104.20508 C 314.56098 103.14385 314.71535 102.08744 315.01368 101.03516 C 315.19836 100.38375 315.41395 99.721393 315.65821 99.050783 C 315.92391 98.368206 316.24376 97.683666 316.61915 96.996096 C 316.99453 96.308525 317.43378 95.621424 317.93555 94.933596 C 318.45877 94.2338 319.05806 93.546929 319.73633 92.873049 C 321.22865 93.783355 322.52043 94.607798 323.60938 95.349611 C 324.71504 96.09616 325.65252 96.831301 326.42188 97.554689 C 327.19598 98.261375 327.82796 98.991568 328.31837 99.744143 C 328.82548 100.50145 329.23495 101.34859 329.54688 102.28516 C 329.73862 102.75456 329.85088 103.2195 329.88282 103.67969 C 329.91476 104.13988 329.88746 104.64579 329.80274 105.19922 C 329.72276 105.73595 329.59347 106.34951 329.41602 107.03906 C 329.23858 107.72862 329.0247 108.55297 328.77149 109.50977 L 328.54298 110.31055 C 328.17835 111.59667 327.5305 113.78639 326.59962 116.87891 C 324.95817 122.35046 323.28412 126.82925 321.57423 130.31446 C 322.25577 130.07459 322.98611 129.88405 323.76563 129.74414 C 324.54042 129.62094 325.30471 129.531 326.06055 129.47461 C 326.8164 129.41822 327.51932 129.39109 328.16798 129.39453 C 328.8119 129.41468 329.3321 129.45487 329.73048 129.51367 C 331.31673 129.71075 332.56681 129.8844 333.48048 130.03516 C 334.4061 130.20735 335.02836 130.33777 335.34571 130.42774 L 335.98243 130.66407 C 335.64484 130.00895 335.36267 129.35152 335.13477 128.69141 C 334.90687 128.0313 334.7231 127.40103 334.58594 126.80274 C 334.4655 126.20918 334.37815 125.66127 334.32227 125.15821 C 334.2664 124.65514 334.25336 124.22605 334.28126 123.87305 C 332.27752 124.76665 330.508 125.21453 328.97462 125.21289 C 329.23945 122.94208 329.71992 120.57836 330.41602 118.12305 L 330.99805 116.06836 C 331.72256 113.51283 332.3388 111.50389 332.84376 110.04102 C 333.34872 108.57814 333.69228 107.52055 333.87696 106.86914 C 334.1374 105.95049 334.28876 105.10064 334.33008 104.31836 C 334.37141 103.53608 334.31174 102.75974 334.1504 101.99219 C 334.00576 101.22937 333.75802 100.44747 333.40821 99.644533 C 333.06313 98.824889 332.63346 97.919171 332.1211 96.925783 C 331.82665 96.373126 331.4237 95.788047 330.91212 95.17383 C 330.40526 94.54291 329.86497 93.939645 329.28907 93.36133 C 328.71317 92.783015 328.13059 92.256567 327.54298 91.783205 C 326.9601 91.29314 326.45212 90.92334 326.01758 90.67383 z M 68.679689 91.060549 L 93.875002 97.812502 L 76.556642 112.04688 L 68.679689 91.060549 z M 475.79298 91.060549 L 467.91602 112.04688 L 450.59767 97.812502 L 475.79298 91.060549 z M 203.95313 96.556643 L 200.1211 101.86133 C 199.73003 102.49319 199.40908 103.11753 199.16016 103.73242 C 198.57419 105.21868 198.25048 106.78175 198.1875 108.42188 C 198.09659 110.5742 198.38209 112.51781 199.04297 114.25391 L 199.08008 114.35156 C 200.01052 116.35658 201.00796 117.92776 202.07227 119.06446 C 203.2578 120.4708 204.82648 121.59017 206.7793 122.42578 C 208.26169 123.05038 209.81482 123.47197 211.43946 123.68946 C 213.05792 123.89072 214.38984 123.92242 215.4336 123.78516 L 219.66602 118.2168 C 219.65984 118.20057 219.91577 117.75164 220.4336 116.86719 C 221.12069 115.69539 221.49533 114.52955 221.55665 113.37305 L 217.58204 113.32617 C 218.18208 114.26807 218.60287 115.05667 218.84375 115.68946 C 219.2267 116.69542 219.36496 117.45063 219.25977 117.95508 L 219.24414 117.98828 C 215.73738 118.48727 213.0644 118.65928 211.22266 118.50586 C 209.0943 118.33151 207.24217 117.68986 205.66797 116.58008 C 204.13857 115.4904 202.98585 114.26578 202.20899 112.90821 C 201.93639 112.4361 201.69438 111.92471 201.48438 111.37305 C 201.03967 110.20483 200.71003 108.75198 200.49414 107.01367 C 200.21889 104.77782 200.19803 103.0395 200.43164 101.79883 C 202.28436 101.2979 204.90779 101.21062 208.30079 101.53516 C 210.28699 101.72647 211.92685 102.1796 213.22071 102.89453 C 214.03565 103.32737 214.57262 103.88299 214.83204 104.56446 L 214.84961 104.61328 L 214.86914 104.66211 C 215.04209 105.11642 215.12106 105.61551 215.10547 106.16016 C 215.03916 108.76753 212.81849 111.88885 208.44336 115.52344 C 212.42242 113.97158 215.36084 111.66507 217.25977 108.60156 C 218.37656 106.80178 218.68008 104.8651 218.16993 102.79297 L 218.12305 102.67188 C 217.59805 101.29273 216.50763 99.988952 214.85157 98.761721 C 212.84703 97.74145 210.94214 97.12823 209.13672 96.92383 C 206.65224 96.643552 204.92424 96.521344 203.95313 96.556643 z M 97.011721 99.152346 L 103.46094 105.60352 L 82.250002 111.28711 L 97.011721 99.152346 z M 447.46095 99.152346 L 462.22267 111.28711 L 441.01173 105.60352 L 447.46095 99.152346 z M 345.95508 99.410158 L 345.74024 100.34571 C 345.40041 101.62594 344.89213 103.16145 344.2129 104.95313 C 343.54112 106.72912 342.69988 108.78118 341.68946 111.10742 C 340.88633 112.91706 340.43263 114.71972 340.32813 116.51563 C 340.19211 117.89281 340.308 119.24576 340.67579 120.57422 C 341.04358 121.90268 341.53746 123.14623 342.15821 124.30664 C 342.78642 125.45138 343.46311 126.47485 344.18751 127.37696 C 344.91936 128.26339 345.57201 128.94988 346.14844 129.43555 L 352.82032 128.6875 C 352.36448 129.20122 351.91981 129.69152 351.48634 130.15821 C 351.06032 130.60922 350.66212 131.02422 350.28907 131.4043 L 350.49805 131.38867 C 351.74677 131.30978 352.91836 131.32905 354.01563 131.44727 C 355.13604 131.55727 356.20044 131.78569 357.20899 132.13086 L 357.27149 131.69922 C 357.56217 130.68398 357.87288 129.68618 358.20313 128.70899 C 358.54906 127.73925 358.92492 126.74605 359.33204 125.72852 C 359.76229 124.70277 360.22222 123.63385 360.7129 122.52149 C 361.21925 121.41659 361.77911 120.22113 362.39063 118.93555 C 363.13639 117.36777 364.03928 115.65422 365.09766 113.79297 C 366.17918 111.9235 367.4315 109.87604 368.85548 107.65039 C 368.49946 107.71175 368.06477 107.75371 367.55274 107.7793 C 367.05639 107.81235 366.49678 107.81568 365.87501 107.78906 C 365.27637 107.75423 364.63097 107.67894 363.93751 107.56055 C 363.26718 107.43394 362.58869 107.24465 361.9004 106.99414 L 361.68555 107.92969 C 361.27801 109.71602 360.68089 111.59601 359.89649 113.56836 C 359.13522 115.53249 358.24904 117.62028 357.23634 119.83008 L 356.84376 120.65235 C 355.9041 122.62774 355.11785 124.24307 354.48243 125.49805 C 353.87014 126.74481 353.39334 127.64312 353.05469 128.19336 C 351.55692 127.05795 350.29929 126.02698 349.2793 125.09961 C 348.28245 124.16403 347.4539 123.27878 346.79298 122.44531 C 346.13951 121.59617 345.64103 120.7637 345.29883 119.94727 C 344.97232 119.13829 344.74141 118.28885 344.60743 117.39844 C 344.56845 116.99539 344.57654 116.59438 344.63087 116.19727 C 344.69265 115.78448 344.80076 115.35583 344.95508 114.91016 C 345.11686 114.44881 345.30905 113.94445 345.53126 113.39649 C 345.76914 112.85599 346.03295 112.2418 346.32227 111.55274 C 348.14192 107.72736 350.33739 103.89686 352.91016 100.06446 C 352.55415 100.12581 352.12141 100.16972 351.60938 100.19531 C 351.11303 100.22836 350.55342 100.23169 349.93165 100.20508 C 349.33301 100.17025 348.68761 100.09495 347.99415 99.976564 C 347.32382 99.849954 346.64338 99.660666 345.95508 99.410158 z M 381.41798 104.60352 L 381.25782 105.14844 C 381.06545 105.5815 380.8516 106.00108 380.61524 106.40625 C 380.39354 106.82072 380.15728 107.22522 379.90626 107.6211 C 379.06952 108.94067 378.13079 110.11304 377.08985 111.13867 C 377.47463 111.11542 377.9422 111.12367 378.49219 111.16406 C 379.05685 111.21375 379.65504 111.30661 380.28907 111.44141 C 380.94706 111.57084 381.61548 111.74739 382.29493 111.97266 C 382.99834 112.19256 383.67465 112.45775 384.32227 112.76563 C 384.62085 112.13267 384.90125 111.56056 385.16407 111.04883 C 385.45085 110.53173 385.72406 110.06679 385.98438 109.65625 C 386.96988 108.10209 387.84486 106.9819 388.60938 106.29492 L 388.4004 106.28516 C 385.75845 106.17224 383.43022 105.61224 381.41798 104.60352 z M 179.14063 109.82227 C 177.6871 109.83319 176.36111 109.99913 175.16602 110.32227 L 171.84766 116.47852 L 171.44336 117.60938 C 170.84702 118.91008 170.70355 120.65245 171.01172 122.83594 C 171.29619 124.87301 171.90665 126.71255 172.84571 128.35547 C 173.70722 129.86274 174.9308 131.28422 176.51368 132.61914 C 177.96089 133.89163 179.71786 134.79782 181.78516 135.33594 C 183.63496 135.73842 185.23072 135.90675 186.57227 135.83985 C 188.44139 135.75135 189.78195 135.59318 190.59375 135.36914 L 193.58985 129.48828 C 190.36204 130.45335 187.71061 131.0096 185.63477 131.15625 C 183.49648 131.29861 181.6274 130.9673 180.02735 130.16211 C 178.54144 129.45166 177.20755 128.41199 176.02735 127.04688 C 175.55354 126.49782 175.16677 125.96114 174.86524 125.4336 C 174.22772 124.31822 173.64979 123.02674 173.13282 121.5625 C 172.58784 120.01428 172.32478 118.27709 172.3418 116.34766 C 175.56317 115.54625 178.16344 115.05921 180.14453 114.88672 C 182.21822 114.7013 184.1466 115.04915 185.92969 115.92969 C 187.13995 116.43775 188.24478 117.56602 189.24414 119.31446 C 189.41645 119.61591 189.77386 120.22199 190.31446 121.13281 L 190.68946 121.78711 C 191.32698 122.90249 192.52705 125.05693 194.29102 128.24805 C 194.7584 129.10074 195.23895 130.20397 195.73438 131.56055 C 196.9751 134.99075 197.33388 137.36742 196.8086 138.6875 L 196.77539 138.73438 L 196.30079 139.00586 C 194.22075 140.19476 192.24283 140.56684 190.36719 140.11914 L 187.31836 139.40235 L 184.38868 143.77539 C 185.07348 144.06387 185.79473 144.31094 186.55274 144.51758 C 188.41977 144.95021 189.88546 145.15311 190.94922 145.125 C 191.20547 145.11851 192.19685 144.98205 193.92383 144.71485 L 197.09571 138.61328 C 197.61886 137.53438 198.05058 136.13601 198.39063 134.42188 C 198.9007 131.85069 199.07049 129.75449 198.90235 128.13086 L 198.60938 125.98828 C 198.59215 125.95814 198.21023 125.44771 197.46289 124.45508 C 196.71556 123.46245 195.15646 121.01319 192.78516 117.10938 L 189.96485 112.33399 C 188.78471 111.52875 186.76405 110.863 183.9043 110.33789 C 182.02652 109.9914 180.43912 109.81997 179.14063 109.82227 z M 375.46876 114.52149 L 375.35548 114.94336 C 374.92961 115.90675 374.48596 116.8487 374.0254 117.76953 C 373.5795 118.69967 373.08911 119.65141 372.55274 120.62696 C 372.02567 121.58784 371.44036 122.59424 370.79493 123.64453 C 370.17345 124.68946 369.4855 125.80458 368.73243 126.99219 C 367.80272 128.45838 366.68814 130.0542 365.38868 131.7793 C 364.11318 133.49904 362.63362 135.37872 360.95118 137.41602 C 361.29733 137.38883 361.71814 137.38886 362.21485 137.41602 C 362.72622 137.45248 363.27715 137.52396 363.86719 137.63086 C 364.4719 137.74706 365.09988 137.90857 365.75001 138.11524 C 366.42409 138.31654 367.1004 138.57979 367.77735 138.90625 L 368.10352 138.00391 C 369.39363 134.60774 371.34455 130.84851 373.95704 126.72852 L 374.44532 125.95899 C 377.30884 121.44312 379.91046 118.14978 382.25196 116.07813 L 382.04298 116.06836 C 380.79388 115.99581 379.6204 115.83636 378.52149 115.5918 C 377.44654 115.34187 376.42821 114.98598 375.46876 114.52149 z M 387.81055 122.54297 L 387.6543 122.95117 C 387.13194 123.86584 386.59353 124.75622 386.04102 125.625 C 385.50215 126.50454 384.91673 127.40292 384.28321 128.31836 C 383.66044 129.22017 382.97429 130.16006 382.22462 131.13867 C 381.49932 132.11441 380.7009 133.15363 379.83009 134.25782 C 378.75501 135.621 377.4831 137.09489 376.01368 138.67774 C 374.56864 140.2577 372.90582 141.97398 371.02344 143.82813 C 371.37056 143.83656 371.80175 143.89081 372.32032 143.99024 C 372.83889 144.08966 373.39282 144.22869 373.98243 144.40625 C 374.59642 144.58093 375.21628 144.80396 375.8418 145.07617 C 376.46732 145.34839 377.07281 145.6606 377.65821 146.01172 L 378.07618 145.14649 C 379.70755 141.90042 382.03372 138.36181 385.0547 134.53125 L 385.61915 133.81641 C 386.97375 132.09879 388.08725 130.69894 388.96095 129.61914 C 389.85902 128.53646 390.53403 127.76411 390.98634 127.30274 L 391.00782 127.32032 C 391.32634 127.50519 391.6278 127.70978 391.91407 127.93555 C 392.50024 128.39783 393.0814 129.02162 393.65626 129.80664 C 394.24187 130.57803 394.73788 131.48912 395.14649 132.54102 C 395.56585 133.57928 395.85804 134.73698 396.02149 136.01563 C 396.19569 137.28065 396.15952 138.6462 395.91212 140.10938 L 400.80665 141.51367 C 401.25565 140.18738 401.43483 138.82619 401.34376 137.42774 C 401.27707 136.0264 401.0636 134.69701 400.70509 133.44141 C 400.35733 132.17218 399.92023 131.03069 399.39259 130.01758 C 398.88933 129.00159 398.42312 128.20499 397.9961 127.625 L 391.32618 126.87305 C 391.88466 126.4733 392.42008 126.10109 392.93555 125.75586 C 393.46178 125.397 393.95035 125.07493 394.39845 124.78711 L 394.18946 124.75586 C 392.95437 124.55568 391.8044 124.27777 390.73634 123.92188 C 389.69266 123.5631 388.71735 123.10335 387.81055 122.54297 z M 160.80274 122.82227 C 159.48737 122.86359 158.27637 123.02272 157.16797 123.29883 C 156.06247 123.55056 155.17743 123.81615 154.51367 124.09571 L 152.22266 130.40625 C 151.96458 129.76978 151.72879 129.16004 151.51367 128.57813 C 151.28782 127.98257 151.08717 127.43266 150.91211 126.92969 L 150.83399 127.125 C 150.35055 128.27904 149.81063 129.33384 149.21485 130.28907 C 148.62197 131.21991 147.94634 132.05993 147.18946 132.81055 L 147.55078 133.0586 C 148.31795 133.78036 149.05794 134.51161 149.77344 135.25196 C 150.50258 135.98156 151.23855 136.75982 151.98047 137.58985 C 152.71166 138.40623 153.46601 139.29423 154.24219 140.25196 C 155.02127 141.1853 155.8449 142.20373 156.71485 143.3086 C 157.78885 144.67263 158.92378 146.25393 160.11914 148.05274 C 161.3174 149.82716 162.59836 151.84758 163.96094 154.11133 C 164.05031 153.77581 164.20395 153.36767 164.42188 152.88672 C 164.63981 152.40578 164.90434 151.89894 165.21485 151.36719 C 165.52826 150.81106 165.88985 150.26132 166.30078 149.7168 C 166.71172 149.17228 167.15649 148.65503 167.63477 148.16797 L 166.89063 147.56055 C 164.11603 145.21536 161.22108 142.12591 158.20313 138.29297 L 157.63867 137.57813 C 156.28543 135.85944 155.18541 134.44963 154.33985 133.34766 C 153.49719 132.22131 152.90532 131.38359 152.5625 130.83594 L 152.58203 130.82032 C 152.83626 130.55385 153.10613 130.30757 153.39258 130.08203 C 153.97912 129.62021 154.72146 129.20153 155.61914 128.82617 C 156.50608 128.43718 157.50867 128.16694 158.62696 128.01563 C 159.7345 127.85068 160.92952 127.83844 162.21094 127.97852 C 163.48162 128.10496 164.79931 128.45833 166.16407 129.04102 L 168.67578 124.61133 C 167.49125 123.86464 166.20716 123.37323 164.82618 123.13477 C 163.44809 122.87193 162.10736 122.7673 160.80274 122.82227 z M 274.41797 142.14844 C 259.59125 142.09561 247.7598 143.8064 234.56641 147.91016 C 190.30218 161.67836 156.44807 197.5467 145.28321 242.50391 C 135.7996 280.69128 143.75729 321.01695 167.04102 352.76173 C 168.06408 354.15655 169.07565 355.29688 169.28907 355.29688 C 171.37048 355.29688 184.33122 349.72079 184.32422 348.82813 C 184.32184 348.53457 183.21232 346.88123 181.85938 345.1543 C 173.80107 334.86838 166.99811 321.68158 162.91797 308.44141 C 159.0401 295.85762 157.52272 284.6656 157.91211 271.48829 C 158.06128 266.44033 158.53139 260.14135 158.95508 257.49219 C 163.02424 232.05012 173.99849 210.2477 191.64063 192.56055 C 210.13651 174.0175 233.78799 162.48022 260.16797 159.13086 C 266.06941 158.38155 281.24027 158.38916 287.46094 159.14453 C 313.56935 162.31492 337.12843 173.81039 355.82032 192.5 C 371.74313 208.42086 382.49021 227.97457 387.1504 249.50782 C 392.08861 272.32576 390.08969 296.39826 381.48829 317.73048 C 377.7852 326.91443 371.54799 337.78533 365.66602 345.30274 C 364.23245 347.13492 363.0586 348.80603 363.0586 349.01563 C 363.0586 349.70786 376.57282 355.29688 378.2461 355.29688 C 378.90591 355.29688 384.18791 347.89811 387.5547 342.25587 C 395.02542 329.73609 401.05411 314.13588 403.68946 300.50587 C 410.46902 265.44185 403.41273 229.93407 383.86134 200.71875 C 369.26921 178.91396 347.33853 161.15289 323.08399 151.4961 C 306.928 145.0637 292.08146 142.21144 274.41797 142.14844 z M 407.5293 142.61328 C 405.93219 142.65252 404.36716 142.96212 402.83204 143.54297 C 400.81429 144.2976 399.13453 145.31664 397.79298 146.60157 L 397.7168 146.67383 C 396.23257 148.31177 395.17533 149.84262 394.54298 151.26563 C 393.70949 152.90532 393.28826 154.78804 393.2793 156.91211 C 393.28146 158.52071 393.49718 160.11428 393.9297 161.69532 C 394.37475 163.26434 394.86351 164.5023 395.39649 165.41016 L 402.17579 167.14063 C 402.18833 167.12862 402.70246 167.18985 403.71876 167.32227 C 405.06565 167.49866 406.28401 167.3901 407.37305 166.9961 L 405.8672 163.31641 C 405.23342 164.23595 404.67258 164.9301 404.1836 165.39844 C 403.40625 166.14298 402.76536 166.56446 402.25977 166.66407 L 402.22266 166.66407 C 400.39714 163.62863 399.19524 161.23261 398.61915 159.47657 C 397.95069 157.4484 397.82153 155.49348 398.23048 153.61133 C 398.63837 151.77827 399.31593 150.23845 400.26368 148.99414 C 400.59231 148.55918 400.9702 148.13877 401.39649 147.73047 C 402.29922 146.86585 403.50847 145.99508 405.0254 145.11914 C 406.97745 143.99473 408.57101 143.2974 409.8047 143.0293 C 410.98773 144.54057 412.09056 146.9224 413.11329 150.17383 C 413.71075 152.07768 413.93184 153.76423 413.77735 155.23438 C 413.69614 156.15355 413.39184 156.86673 412.86524 157.3711 L 412.82813 157.40625 L 412.79102 157.44336 C 412.43996 157.77961 412.00967 158.04635 411.50196 158.24414 C 409.0747 159.19869 405.33492 158.36774 400.28321 155.75391 C 403.26242 158.81422 406.53255 160.62207 410.09376 161.17774 C 412.18641 161.50527 414.08908 161.0309 415.79884 159.75391 L 415.89259 159.66407 C 416.95831 158.64333 417.73352 157.1322 418.21876 155.12891 C 418.37764 152.88528 418.19859 150.89088 417.6836 149.14844 C 416.97399 146.75101 416.41469 145.11309 416.00391 144.23242 L 409.62501 142.76758 C 408.89073 142.65352 408.19259 142.60303 407.5293 142.61328 z M 138.92969 143.29102 C 137.23668 143.35668 135.65305 143.64548 134.17969 144.16016 C 132.63329 144.70117 131.4258 145.24045 130.55469 145.77735 L 129.13672 152.62696 L 129.00782 154.19532 C 128.89391 155.57341 129.05907 156.78477 129.50196 157.83008 L 133.10938 156.16016 C 132.16177 155.56917 131.44142 155.03928 130.95117 154.57227 C 130.17181 153.82984 129.72228 153.20753 129.59961 152.70703 C 132.48717 150.75813 134.82501 149.43838 136.61328 148.74414 C 138.59613 147.9715 140.54921 147.74471 142.47266 148.06641 C 143.65797 148.33235 144.96541 149.14857 146.39844 150.51367 L 146.90821 150.99805 C 150.26452 154.19527 153.41258 157.65051 156.35157 161.36133 C 156.46422 160.43761 156.84094 159.23659 157.48047 157.75977 C 157.87569 156.84147 158.42887 155.90762 159.14258 154.95703 L 158.32032 154.46094 C 156.00009 152.97001 153.01321 150.56866 149.35938 147.25586 C 147.89042 145.92847 146.31831 144.93471 144.64453 144.27539 C 142.96897 143.54244 141.06452 143.21463 138.92969 143.29102 z M 113.38086 149.60742 C 111.95965 152.981 109.88045 156.61327 107.14063 160.50196 C 103.02089 166.34917 100.10738 169.92576 98.402346 171.23047 L 97.843752 171.66211 C 98.998485 172.6456 99.934028 173.59234 100.65235 174.50196 C 101.34647 175.41576 101.86381 176.20532 102.20313 176.86914 C 102.46184 175.0551 102.92706 173.24778 103.59961 171.44922 C 104.27216 169.65067 105.1612 167.84661 106.26758 166.03516 C 107.75584 166.78641 109.79136 167.96626 112.375 169.57422 C 114.95864 171.18219 118.06066 173.26071 121.67969 175.81055 C 124.36203 177.70043 126.83364 179.55876 129.09375 181.38477 C 131.34968 183.18659 133.4237 184.98889 135.31836 186.79102 C 135.31804 186.42976 135.34686 186.01358 135.40235 185.54297 C 135.44364 185.06237 135.51957 184.53113 135.63086 183.95118 C 135.75215 183.35703 135.9375 182.73357 136.18555 182.08008 C 136.4336 181.42659 136.75162 180.74777 137.14063 180.04493 L 136.25391 179.67578 C 134.76242 179.04969 132.81378 177.97363 130.40625 176.44727 C 127.99872 174.92091 125.07878 172.96011 121.64844 170.56446 C 119.20737 168.84457 117.0395 167.221 115.14258 165.69336 C 113.23146 164.15572 111.44402 162.62103 109.78321 161.08985 C 112.33013 157.95723 114.78871 155.93128 117.15821 155.00977 L 117.77149 154.77149 C 116.92737 154.07057 116.15467 153.3148 115.45313 152.50196 C 114.74739 151.66492 114.05595 150.69896 113.38086 149.60742 z M 140.33008 150.16407 C 137.39749 153.29292 135.74129 156.64254 135.36133 160.21289 C 135.14258 162.33032 135.70547 164.20627 137.04688 165.84375 L 137.14063 165.9336 C 138.20912 166.95144 139.75393 167.65783 141.77735 168.05078 C 144.0259 168.10672 146.00954 167.83646 147.72657 167.24219 C 150.01593 166.44983 151.62659 165.81687 152.56055 165.33985 L 153.73047 158.90039 C 152.19117 160.23942 149.78032 161.51315 146.49414 162.72266 C 145.4231 163.11705 143.82462 163.33378 141.70117 163.37305 C 140.86545 163.34422 140.15832 163.05474 139.58008 162.50391 C 139.24068 162.18059 138.94988 161.78352 138.70508 161.31055 C 137.54514 159.05467 138.08571 155.33921 140.33008 150.16407 z M 423.9336 163.63477 C 423.13601 163.66731 422.39759 163.75548 421.71681 163.90235 C 419.78471 164.31893 417.96888 165.06925 416.26759 166.15039 L 416.18165 166.20899 C 414.47307 167.40106 413.19218 168.75152 412.3379 170.25782 C 411.35548 171.85351 410.64853 173.64726 410.21876 175.64063 C 409.92077 177.034 409.89084 178.6436 410.12696 180.46875 C 410.33924 182.07768 410.63139 183.37618 411.00391 184.36524 L 416.65235 186.77344 C 415.6474 187.30524 414.67417 187.80555 413.73048 188.27344 L 413.91993 188.36328 C 416.16264 189.42351 417.98539 190.74634 419.38673 192.33008 L 420.02345 191.69532 C 422.33101 189.45027 426.4791 186.17258 432.47071 181.86524 C 433.47169 181.14569 434.23687 180.60389 434.76368 180.23633 C 440.06028 176.54092 445.05726 173.50856 449.75587 171.14063 L 449.56642 171.05078 C 447.31377 169.97632 445.49102 168.65349 444.09962 167.08399 L 444.03517 167.12891 L 443.81056 167.35157 L 443.4629 167.71875 C 440.81527 170.05288 438.17852 172.22131 435.55274 174.22266 C 435.65438 172.88161 435.63933 171.6747 435.50587 170.60352 C 435.3022 168.94625 434.98987 167.64993 434.57032 166.71485 L 428.55079 164.18555 C 427.75046 163.91835 427.06653 163.75769 426.50196 163.70703 C 425.58756 163.62526 424.7312 163.60222 423.9336 163.63477 z M 428.43165 164.42578 L 428.46876 164.43164 C 430.03237 167.76504 430.8459 170.26765 430.91016 171.9375 C 431.01418 174.57457 430.3532 176.91967 428.92774 178.97266 C 428.52047 179.29915 428.10138 179.62313 427.66993 179.94532 C 423.99086 182.46986 420.57544 184.59889 417.42384 186.33203 C 416.20393 183.30923 415.43007 180.86459 415.10157 178.99805 C 414.71942 176.87257 414.89299 174.92073 415.6211 173.14258 C 416.35352 171.34027 417.25875 169.92401 418.33985 168.89453 C 418.76004 168.49552 419.19868 168.13625 419.65431 167.81836 C 420.79336 167.02365 422.12274 166.35117 423.64259 165.79883 C 425.80282 165.01139 427.39888 164.55361 428.43165 164.42578 z M 273.89844 175.30469 C 267.63007 175.30662 261.33346 175.62449 257.75196 176.25782 C 231.24432 180.94526 209.09598 194.6511 193.16602 216.22461 C 187.06845 224.48241 181.39117 236.17581 178.29493 246.85157 C 174.42446 260.19685 173.41542 276.94511 175.66797 290.47071 C 178.35714 306.6181 185.6851 323.14688 195.93946 336.19532 C 197.30582 337.93398 198.54383 339.35743 198.68946 339.35743 C 198.83507 339.35743 200.39018 338.2005 202.14649 336.78712 C 207.46154 332.50984 213.82888 328.41431 220.75 324.82032 C 224.36346 322.94392 227.32032 321.32812 227.32032 321.22852 C 227.32032 321.12896 226.00363 319.56973 224.39454 317.76368 C 216.88731 309.33761 211.62264 298.64106 209.10547 286.70313 C 207.80248 280.52359 207.91768 267.29642 209.33008 261.06641 C 210.56898 255.60177 212.88027 248.86858 214.78907 245.16016 C 223.66675 227.91257 238.80797 215.62746 257.26954 210.69336 C 262.46024 209.30608 267.26091 208.7461 273.93555 208.7461 C 281.4606 208.7461 285.68305 209.34772 292.65626 211.41211 C 312.9947 217.43316 329.61097 233.53055 336.26563 253.66211 C 340.62367 266.8458 340.62831 282.16752 336.27735 295.15626 C 333.59825 303.15406 328.40141 312.17052 323.00587 318.17969 C 321.65561 319.68353 320.55079 321.04002 320.55079 321.19337 C 320.57515 321.35729 322.14159 322.27074 324.05274 323.23048 C 332.01552 327.22922 340.07067 332.36281 346.14454 337.31055 L 348.79884 339.47266 L 350.89063 337.11915 C 353.87965 333.75978 359.14832 325.72128 362.00587 320.15821 C 382.29348 280.66242 374.52627 233.53408 342.67383 202.85743 C 328.02269 188.74712 310.76373 180.04962 289.87501 176.24805 C 286.40667 175.61701 280.16681 175.30276 273.89844 175.30469 z M 273.73633 241.30274 C 264.30482 241.31727 257.16038 244.27921 250.47852 250.94141 C 243.65268 257.74715 240.63721 264.94286 240.65821 274.38477 C 240.67899 283.75023 243.68205 291.02723 250.24219 297.60743 C 254.07501 301.45196 257.65748 303.87675 262.03711 305.58985 C 265.37546 306.89567 265.96663 306.79728 265.95313 304.93946 C 265.94262 303.49518 265.57464 303.12735 261.36329 300.34766 L 256.78516 297.32618 L 265.30079 280.30274 L 273.81446 263.28126 L 282.18165 279.94336 C 286.78346 289.10786 290.55451 296.82415 290.56251 297.08985 C 290.57064 297.35552 288.5177 298.93197 286.00001 300.59376 C 281.84219 303.33811 281.42188 303.75403 281.42188 305.12305 C 281.42188 306.56511 281.49015 306.61707 282.99219 306.32032 C 285.48283 305.82828 291.5636 302.76403 294.41212 300.56641 C 295.8475 299.45903 298.17646 297.12387 299.5879 295.37696 C 311.30418 280.87594 308.81683 259.17738 294.16797 248.0879 C 288.01287 243.42838 281.57609 241.29074 273.73633 241.30274 z M 273.80665 274.62696 C 273.50759 274.62696 263.06641 294.99858 263.06641 295.58204 C 263.06641 295.67978 264.80423 296.90146 266.92969 298.29688 L 270.79493 300.83399 L 270.79493 308.67188 L 270.79493 316.50977 L 266.08594 316.8418 C 247.02971 318.18016 229.34029 324.15172 213.07032 334.73829 C 210.94486 336.12128 206.05355 339.73749 202.20118 342.7754 C 191.96003 350.85133 185.33593 354.74124 176.02735 358.14844 C 167.98135 361.09351 155.74305 363.50977 148.86719 363.50977 C 147.21739 363.50977 146.61171 363.6664 146.95117 364.00587 C 147.41899 364.47369 150.13904 365.76159 173.94141 376.79493 C 196.04868 387.04251 230.87569 403.21097 248.81641 411.5547 C 254.92708 414.39661 262.37241 417.82651 265.36133 419.17774 L 270.79493 421.63477 L 270.79493 424.34376 L 270.79493 427.0547 L 266.92969 430.89649 L 263.06641 434.73829 L 263.06641 456.36524 C 263.06641 468.26074 263.23351 477.99415 263.43751 477.99415 C 263.64152 477.99415 266.08293 475.71175 268.86329 472.92188 L 273.91797 467.84962 L 279.00586 472.92188 C 281.8044 475.71175 284.2543 477.99415 284.44922 477.99415 C 284.64414 477.99415 284.80274 468.26232 284.80274 456.3672 L 284.80274 434.74024 L 280.67969 430.64454 L 276.55665 426.54884 L 276.69532 424.14454 L 276.83399 421.73829 L 288.42579 416.35352 C 333.90713 395.22711 362.016 382.1897 384.07227 371.99024 C 393.10546 367.81304 400.7027 364.19678 400.95509 363.95313 C 401.23523 363.68268 400.29362 363.50881 398.53907 363.50782 C 393.74732 363.50345 382.67381 361.64857 376.79688 359.86719 C 365.59008 356.47026 356.66632 351.649 345.91016 343.17969 C 332.09126 332.29881 321.98525 326.62473 308.47266 322.15626 C 299.6503 319.23878 291.36553 317.61103 280.93946 316.75001 L 276.83399 316.41212 L 276.83399 308.6836 L 276.83399 300.95313 L 280.75391 298.28516 L 284.67383 295.61524 L 279.42383 285.1211 C 276.53564 279.34951 274.00759 274.62696 273.80665 274.62696 z M 276.5918 338.2461 L 282.33008 338.57032 C 292.41915 339.1405 305.03477 341.59689 314.51172 344.83594 C 325.46424 348.57933 332.61352 351.9737 343.38087 358.54298 C 354.12889 365.10048 360.76353 367.6223 370.80079 368.9668 L 375.33594 369.57423 L 363.52149 375.06055 C 357.02351 378.07731 346.92507 382.76894 341.08008 385.48829 C 335.23509 388.20767 323.06249 393.86138 314.0293 398.05079 C 304.99613 402.24021 292.98601 407.81106 287.33985 410.43165 C 281.69368 413.05223 276.96445 415.19727 276.83204 415.19727 C 276.69962 415.19727 276.5918 397.88227 276.5918 376.72071 L 276.5918 338.2461 z M 270.79493 338.24805 L 270.79493 376.72266 C 270.79493 397.88333 270.74023 415.19632 270.67383 415.19532 C 270.60741 415.19398 265.11862 412.66884 258.47657 409.58595 C 251.83455 406.50307 242.05387 401.96415 236.74024 399.49805 C 231.42661 397.03195 219.0353 391.28023 209.20508 386.7168 C 199.37486 382.15335 187.00123 376.42404 181.70703 373.98438 C 175.13587 370.95625 172.45167 369.50608 173.25196 369.41798 C 185.82946 368.03259 192.25077 365.7688 204.375 358.43946 C 211.7972 353.95258 216.64416 351.40971 222.97266 348.68555 C 236.1174 343.0273 251.24042 339.40306 265.11915 338.58399 L 270.79493 338.24805 z M 34.796876 351.35938 C 29.632007 355.27025 20.546788 352.35433 19.470704 363.38282 L 15.611328 358.50782 L 15.611328 420.67579 C 15.611328 459.21754 42.295846 455.36939 45.361329 454.47462 L 46.490235 458.49806 C 48.934817 468.35632 43.321795 459.40506 37.333985 460.72852 C 42.641232 481.56108 49.135594 474.88208 56.833986 482.81642 L 48.126954 450.84767 L 65.021486 434.22266 C 65.021486 434.22266 59.457679 435.87515 55.32422 435.76173 C 49.368881 435.59821 41.199191 440.58876 43.777345 448.56056 C 34.559931 451.88644 27.996002 448.71484 27.404297 439.60548 L 27.404297 381.03516 C 27.404297 378.31425 29.662709 379.28783 31.773438 375.22071 C 33.071503 372.7197 32.753907 368.38282 32.753907 368.38282 C 30.394948 370.55993 26.933368 370.96023 27.498047 375.33009 L 25.083985 372.32423 L 25.083985 440.16798 C 25.083985 440.16798 21.271485 438.09579 21.271485 421.38673 L 21.271485 395.9961 C 21.271485 380.00724 19.396024 384.15304 19.84961 375.91212 C 20.178958 369.92799 26.486248 365.5958 30.800782 361.28126 C 33.910407 358.17164 34.796876 351.35938 34.796876 351.35938 z M 509.67579 351.35938 C 509.67579 351.35938 510.56226 358.17164 513.67189 361.28126 C 517.98642 365.5958 524.29383 369.92994 524.62306 375.91407 C 525.07661 384.15499 523.20118 380.00724 523.20118 395.9961 L 523.20118 421.38868 C 523.20118 438.09774 519.38868 440.16798 519.38868 440.16798 L 519.38868 372.32423 L 516.97462 375.33009 C 517.53929 370.96024 514.07772 370.55993 511.71876 368.38282 C 511.71876 368.38282 511.40125 372.71971 512.69923 375.22071 C 514.80996 379.28784 517.06837 378.31427 517.06837 381.03516 L 517.06837 439.60548 C 516.47666 448.71488 509.91273 451.88644 500.69532 448.56056 C 503.27347 440.58876 495.10379 435.59834 489.14845 435.76173 C 485.01499 435.87523 479.45118 434.22266 479.45118 434.22266 L 496.34571 450.84767 L 487.63868 482.81642 C 495.33712 474.88208 501.83139 481.56108 507.13868 460.72852 C 501.15083 459.40506 495.53781 468.35632 497.98243 458.49806 L 499.11134 454.47462 C 502.17686 455.36939 528.86134 459.21754 528.86134 420.67579 L 528.86134 358.50782 L 525.00196 363.38282 C 523.92592 352.35433 514.84071 355.27025 509.67579 351.35938 z M 468.59571 428.39063 C 468.55885 428.39063 468.52324 428.39154 468.48634 428.39454 C 468.45394 428.39454 468.42138 428.39545 468.38868 428.39845 C 468.37638 428.40245 468.36387 428.40326 468.35157 428.40626 C 468.30207 428.41436 468.25339 428.42716 468.20509 428.43946 L 468.18165 428.44337 L 437.70118 436.60938 C 437.44387 436.67777 437.20791 436.8136 437.01954 437.00196 C 436.83119 437.19028 436.69771 437.42644 436.62891 437.6836 L 428.4629 468.16212 L 428.45899 468.18751 C 428.44269 468.23622 428.43379 468.28449 428.42579 468.33399 C 428.42179 468.34629 428.42098 468.3588 428.41798 468.3711 C 428.41698 468.403 428.41507 468.43606 428.41407 468.46876 C 428.41307 468.50561 428.41116 468.54123 428.41016 468.57813 C 428.41016 468.6461 428.41388 468.71406 428.42188 468.78126 C 428.43008 468.84554 428.44259 468.90851 428.45899 468.97071 L 428.45899 468.97267 L 428.45899 468.97462 L 428.46095 468.97657 C 428.46495 468.99737 428.47248 469.01867 428.48048 469.03907 C 428.49408 469.08417 428.51095 469.12808 428.52735 469.17188 C 428.53965 469.19488 428.55216 469.21984 428.56446 469.24024 C 428.58366 469.27704 428.6007 469.31077 428.6211 469.34767 C 428.6387 469.37307 428.65353 469.39924 428.66993 469.42384 C 428.69003 469.45534 428.71398 469.48693 428.73438 469.51563 C 428.75738 469.54313 428.78205 469.57111 428.80665 469.59571 C 428.82025 469.61291 428.83517 469.634 428.85157 469.6504 L 428.88868 469.68556 L 451.18165 491.97853 C 451.46829 492.26505 451.85332 492.42284 452.24806 492.42384 C 452.37991 492.42424 452.51196 492.408 452.64259 492.3711 L 483.11524 484.20704 L 483.11915 484.20704 L 483.12306 484.20509 L 483.14454 484.20118 C 483.16534 484.19718 483.18469 484.18965 483.20509 484.18165 C 483.2461 484.16775 483.28713 484.15508 483.32813 484.13868 L 483.33204 484.13868 C 483.38814 484.11488 483.4428 484.08535 483.4961 484.05665 C 483.53127 484.03575 483.56497 484.01484 483.59767 483.99024 C 483.62267 483.97264 483.64728 483.95586 483.67188 483.93946 C 483.72382 483.89977 483.77362 483.85686 483.82032 483.81056 C 483.86652 483.76387 483.90823 483.71462 483.94923 483.66212 C 483.96683 483.63832 483.98361 483.6125 484.00001 483.5879 C 484.02381 483.55473 484.04602 483.52314 484.06642 483.48634 C 484.09682 483.43351 484.12385 483.37878 484.14845 483.32228 L 484.14845 483.31837 C 484.16645 483.27865 484.17912 483.23672 484.19142 483.19532 C 484.19952 483.17492 484.20295 483.15518 484.21095 483.13478 L 484.21485 483.11329 L 484.21681 483.10938 L 484.21681 483.10548 L 492.38087 452.63282 C 492.52025 452.11064 492.37033 451.55392 491.98829 451.17188 L 469.69727 428.87891 L 469.66017 428.84181 C 469.64287 428.82421 469.62188 428.81328 469.60548 428.79688 C 469.57968 428.77188 469.5541 428.74922 469.5254 428.72462 C 469.4954 428.70222 469.4663 428.68056 469.4336 428.66016 C 469.409 428.64256 469.38203 428.62774 469.35743 428.61134 C 469.32223 428.59214 469.28691 428.5711 469.25001 428.5547 C 469.22781 428.5425 469.20625 428.52989 469.18165 428.51759 C 469.13777 428.49999 469.09384 428.48301 469.04884 428.47071 C 469.02844 428.46261 469.00674 428.45918 468.98634 428.45118 L 468.98438 428.44923 L 468.98243 428.44923 L 468.98048 428.44923 C 468.91824 428.43273 468.85492 428.42012 468.79102 428.41212 C 468.72346 428.40282 468.6559 428.39969 468.5879 428.4004 L 468.59571 428.39063 z M 75.884767 428.4004 L 75.884767 428.40626 C 75.816793 428.40626 75.748802 428.41193 75.681642 428.41993 C 75.617353 428.42813 75.552476 428.44064 75.490236 428.45704 L 75.488283 428.45704 L 75.48633 428.45704 L 75.484376 428.45899 C 75.463486 428.46299 75.4443 428.47052 75.42383 428.47852 C 75.378778 428.49212 75.332874 428.509 75.289064 428.5254 C 75.266534 428.5376 75.243128 428.55021 75.222658 428.56251 C 75.185804 428.58171 75.150143 428.5968 75.113283 428.6172 C 75.087903 428.6348 75.063634 428.65158 75.039064 428.66798 C 75.007534 428.68798 74.973974 428.71203 74.945314 428.73243 C 74.917874 428.75543 74.891759 428.7801 74.867189 428.8047 C 74.849989 428.8183 74.828881 428.83322 74.812501 428.84962 L 74.779298 428.88673 L 52.486329 451.1797 C 52.102243 451.56188 51.956478 452.11845 52.095704 452.64063 L 60.259767 483.11329 C 60.259726 483.11429 60.259726 483.11622 60.259767 483.1172 L 60.26172 483.1211 L 60.265626 483.14259 C 60.273816 483.16339 60.276957 483.18273 60.285157 483.20313 C 60.299077 483.24405 60.311746 483.28323 60.328126 483.32423 L 60.328126 483.32813 C 60.351866 483.38423 60.381497 483.44085 60.410157 483.49415 C 60.431047 483.52932 60.451994 483.56301 60.476564 483.59571 C 60.494174 483.62071 60.510965 483.64533 60.527345 483.66993 C 60.567062 483.72187 60.609981 483.77167 60.656251 483.81837 C 60.702933 483.86456 60.752279 483.90628 60.804689 483.94728 C 60.828449 483.96488 60.854337 483.98166 60.878907 483.99806 C 60.912078 484.02186 60.94361 484.04406 60.98047 484.06446 C 61.033293 484.09476 61.088022 484.12189 61.144532 484.14649 L 61.148439 484.14649 C 61.188157 484.16039 61.230536 484.17716 61.271486 484.18946 C 61.291956 484.19756 61.311562 484.20099 61.332032 484.20899 L 61.353517 484.2129 L 61.357423 484.21485 L 61.361329 484.21485 L 91.832033 492.37892 C 91.962659 492.41462 92.095119 492.43206 92.226564 492.43165 C 92.621388 492.43067 93.008285 492.27298 93.294924 491.98634 L 115.58789 469.69337 L 115.62305 469.65626 C 115.64065 469.63906 115.65352 469.61992 115.66992 469.60352 C 115.69492 469.57772 115.71759 469.55215 115.74219 469.52345 C 115.76459 469.49355 115.78624 469.46435 115.80664 469.43165 C 115.82434 469.40705 115.83907 469.38008 115.85547 469.35548 C 115.87467 469.32028 115.89571 469.28496 115.91211 469.24806 C 115.92441 469.22586 115.93301 469.2043 115.94531 469.1797 C 115.96291 469.1359 115.97989 469.09188 115.99219 469.04688 C 116.00039 469.02648 116.00372 469.00478 116.01172 468.98438 L 116.01367 468.98243 L 116.01367 468.98048 L 116.01367 468.97852 C 116.03427 468.91628 116.04669 468.85287 116.05469 468.78907 C 116.06399 468.7215 116.0671 468.65395 116.06641 468.58595 C 116.06641 468.5491 116.0655 468.51347 116.0625 468.47657 C 116.0625 468.44407 116.0616 468.41162 116.0586 468.37892 C 116.0546 468.36662 116.05378 468.35411 116.05078 468.34181 C 116.04668 468.2923 116.03379 468.24362 116.02149 468.19532 L 116.01758 468.16993 L 107.85156 437.69141 C 107.78277 437.43404 107.64929 437.20008 107.46094 437.01173 C 107.27261 436.82336 107.03645 436.68795 106.7793 436.61915 L 76.29883 428.45313 L 76.275392 428.44923 C 76.227067 428.43293 76.178448 428.42402 76.128908 428.41602 C 76.116618 428.41202 76.104088 428.41121 76.091798 428.40821 C 76.059858 428.40721 76.026902 428.40529 75.994142 428.40431 C 75.9577 428.40331 75.921627 428.40138 75.884767 428.4004 z M 76.556642 432.42579 L 93.875002 446.66017 L 68.679689 453.41212 L 76.556642 432.42579 z M 467.91602 432.42579 L 475.79298 453.41212 L 450.59767 446.66017 L 467.91602 432.42579 z M 82.250002 433.18556 L 103.46094 438.86915 L 97.011721 445.32032 L 82.250002 433.18556 z M 462.22267 433.18556 L 447.46095 445.32032 L 441.01173 438.86915 L 462.22267 433.18556 z M 72.005861 435.9336 L 65.291017 453.82032 L 56.48047 451.45704 L 72.005861 435.9336 z M 472.46681 435.9336 L 487.9922 451.45704 L 479.18165 453.82032 L 472.46681 435.9336 z M 105.60352 441.01173 L 111.28711 462.22071 L 99.152346 447.46095 L 105.60352 441.01173 z M 438.86915 441.01173 L 445.32032 447.46095 L 433.18556 462.22071 L 438.86915 441.01173 z M 94.968752 449.50392 L 88.050783 475.32032 L 78.601564 465.8711 L 69.152345 456.42188 L 94.968752 449.50392 z M 449.50392 449.50392 L 475.32032 456.42188 L 465.8711 465.8711 L 456.42188 475.32032 L 449.50392 449.50392 z M 97.812502 450.59767 L 112.04688 467.91602 L 91.060549 475.79298 L 97.812502 450.59767 z M 446.66017 450.59767 L 453.41212 475.79298 L 432.42579 467.91602 L 446.66017 450.59767 z M 55.697267 454.38282 L 64.507814 456.74415 L 61.380861 475.59376 L 55.697267 454.38282 z M 488.7754 454.38282 L 483.09181 475.59376 L 479.96485 456.74415 L 488.7754 454.38282 z M 67.238283 458.79102 L 76.460939 468.01173 L 85.681642 477.23438 L 63.568361 480.90431 L 67.238283 458.79102 z M 477.23438 458.79102 L 480.90431 480.90431 L 458.79102 477.23438 L 468.01173 468.01173 L 477.23438 458.79102 z M 108.53906 472.46681 L 93.015627 487.9922 L 90.652346 479.18165 L 108.53906 472.46681 z M 435.9336 472.46681 L 453.82032 479.18165 L 451.45899 487.9922 L 435.9336 472.46681 z M 110.25 479.45118 L 93.625002 496.34571 L 61.656251 487.63868 C 69.590587 495.33712 62.911534 501.83139 83.744142 507.13868 C 85.067554 501.15083 76.116352 495.53785 85.974611 497.98243 L 89.998049 499.11134 C 89.103285 502.17686 85.255134 528.85939 123.79688 528.85939 L 185.96485 528.85939 L 181.08985 525.00196 C 192.11833 523.92592 189.20247 514.84071 193.11329 509.67579 C 193.11329 509.67579 186.30104 510.56226 183.19141 513.67189 C 178.87688 517.98642 174.54467 524.29384 168.56055 524.62306 C 160.31964 525.07661 164.46543 523.20118 148.47657 523.20118 L 123.08594 523.20118 C 106.37688 523.20118 104.30469 519.38673 104.30469 519.38673 L 172.14844 519.38673 L 169.14258 516.97462 C 173.51239 517.53929 173.91279 514.07772 176.08985 511.71876 C 176.08985 511.71876 171.75297 511.40124 169.25196 512.69923 C 165.18484 514.80996 166.1584 517.06837 163.4375 517.06837 L 104.86719 517.06837 C 95.757801 516.47665 92.586278 509.91273 95.912111 500.69532 C 103.88392 503.27347 108.87432 495.10379 108.71094 489.14845 C 108.59742 485.01499 110.25 479.45118 110.25 479.45118 z M 434.22266 479.45118 C 434.22266 479.45118 435.87515 485.01499 435.76173 489.14845 C 435.59822 495.10379 440.58876 503.27347 448.56056 500.69532 C 451.88644 509.91273 448.71484 516.47665 439.60548 517.06837 L 381.03516 517.06837 C 378.31426 517.06837 379.28783 514.80996 375.22071 512.69923 C 372.71971 511.40116 368.38282 511.71876 368.38282 511.71876 C 370.55993 514.07772 370.96023 517.53929 375.33009 516.97462 L 372.32423 519.38673 L 440.16798 519.38673 C 440.16798 519.38673 438.09579 523.20118 421.38673 523.20118 L 395.9961 523.20118 C 380.00724 523.20118 384.15304 525.07661 375.91212 524.62306 C 369.92799 524.29368 365.5958 517.98642 361.28126 513.67189 C 358.17164 510.56226 351.35938 509.67579 351.35938 509.67579 C 355.27025 514.84071 352.35434 523.92592 363.38282 525.00196 L 358.50782 528.85939 L 420.67579 528.85939 C 459.21754 528.85939 455.36939 502.17686 454.47462 499.11134 L 458.49806 497.98243 C 468.35632 495.53785 459.40506 501.15083 460.72852 507.13868 C 481.56108 501.83139 474.88208 495.33712 482.81642 487.63868 L 450.84767 496.34571 L 434.22266 479.45118 z M 87.728517 479.96485 L 90.089846 488.7754 L 68.878908 483.09181 L 87.728517 479.96485 z M 456.74415 479.96485 L 475.59376 483.09181 L 454.38282 488.7754 L 456.74415 479.96485 z " /></svg>
