<?xml version="1.0" encoding="UTF-8" standalone="no"?>
<svg
   viewBox="0 0 548.0315 548.03151"
   width="145mm"
   height="145mm"
   version="1.1"
   id="svg65"
   sodipodi:docname="sorcerer lid.svg"
   inkscape:version="1.4.2 (f4327f4, 2025-05-13)"
   xml:space="preserve"
   xmlns:inkscape="http://www.inkscape.org/namespaces/inkscape"
   xmlns:sodipodi="http://sodipodi.sourceforge.net/DTD/sodipodi-0.dtd"
   xmlns="http://www.w3.org/2000/svg"
   xmlns:svg="http://www.w3.org/2000/svg"><sodipodi:namedview
     id="namedview65"
     pagecolor="#ffffff"
     bordercolor="#666666"
     borderopacity="1.0"
     inkscape:showpageshadow="2"
     inkscape:pageopacity="0.0"
     inkscape:pagecheckerboard="0"
     inkscape:deskcolor="#d1d1d1"
     inkscape:zoom="1.4205836"
     inkscape:cx="191.11864"
     inkscape:cy="329.79404"
     inkscape:window-width="1920"
     inkscape:window-height="1057"
     inkscape:window-x="1912"
     inkscape:window-y="-8"
     inkscape:window-maximized="1"
     inkscape:current-layer="svg65"
     inkscape:document-units="mm" /><desc
     id="desc1">outline.dxf - scale = 1.000000, origin = (0.000000, 0.000000), method = manual</desc><defs
     id="defs4"><marker
       id="DistanceX"
       orient="auto"
       refX="0"
       refY="0"
       style="overflow:visible"><path
         d="M 3,-3 -3,3 M 0,-5 V 5"
         style="stroke:#000000;stroke-width:0.5"
         id="path1" /></marker><pattern
       id="Hatch"
       patternUnits="userSpaceOnUse"
       width="8"
       height="8"
       x="0"
       y="0"><path
         d="M8 4 l-4,4"
         stroke="#000000"
         stroke-width="0.25"
         linecap="square"
         id="path2" /><path
         d="M6 2 l-4,4"
         stroke="#000000"
         stroke-width="0.25"
         linecap="square"
         id="path3" /><path
         d="M4 0 l-4,4"
         stroke="#000000"
         stroke-width="0.25"
         linecap="square"
         id="path4" /></pattern><symbol
       id="*MODEL_SPACE" /><symbol
       id="*PAPER_SPACE" /></defs><path
     id="outline"
     style="display:inline;opacity:1;fill:#000000;fill-opacity:1;stroke:none;stroke-width:1;stroke-linecap:round;stroke-dasharray:none;stroke-opacity:1;paint-order:fill markers stroke"
     inkscape:label="outline"
     d="M -25.984376 -25.984376 L -25.984376 574.01564 L 574.01564 574.01564 L 574.01564 -25.984376 L -25.984376 -25.984376 z M 120.47852 0.49414063 L 427.55274 0.49414063 C 444.66376 0.49413963 461.07452 7.2913084 473.17384 19.390625 L 528.63673 74.851564 L 528.63673 74.853517 C 540.73605 86.952837 547.53321 103.36164 547.53321 120.47266 L 547.53321 427.55079 C 547.53321 444.66181 540.73605 461.07256 528.63673 473.17188 L 473.17384 528.63868 C 461.07451 540.73797 444.66375 547.53519 427.55274 547.53517 L 120.47852 547.53517 L 120.47852 547.53126 C 103.36799 547.53129 86.958606 540.73343 74.859376 528.63478 L 74.857423 528.63478 L 19.394532 473.16993 C 7.2963196 461.07117 0.49856488 444.66257 0.49804688 427.55274 L 0.49804688 120.47461 C 0.49804588 103.36359 7.2952146 86.952837 19.394532 74.853517 L 74.857423 19.392579 L 74.857423 19.390625 C 86.956743 7.2913084 103.3675 0.49413963 120.47852 0.49414063 z M 123.79688 15.613282 C 85.255134 15.613282 89.103285 42.295846 89.998049 45.361329 L 85.974611 46.490235 C 76.116352 48.934818 85.067554 43.323749 83.744142 37.335938 C 62.911534 42.643185 69.590587 49.135594 61.656251 56.833986 L 93.625002 48.126954 L 110.25 65.021486 C 110.25 65.021486 108.59751 59.45768 108.71094 55.32422 C 108.87448 49.368881 103.88392 41.199189 95.912111 43.777345 C 92.586278 34.559929 95.757882 27.996002 104.86719 27.404297 L 163.4375 27.404297 C 166.1584 27.404297 165.18484 29.662709 169.25196 31.773438 C 171.75297 33.071504 176.08985 32.753907 176.08985 32.753907 C 173.91279 30.394949 173.51239 26.933368 169.14258 27.498047 L 172.14844 25.085938 L 104.30469 25.085938 C 104.30469 25.085938 106.37688 21.271485 123.08594 21.271485 L 148.47657 21.271485 C 164.46543 21.271485 160.31964 19.396025 168.56055 19.84961 C 174.54467 20.178959 178.87688 26.486248 183.19141 30.800782 C 186.30104 33.910408 193.11329 34.796876 193.11329 34.796876 C 189.20247 29.632006 192.11833 20.546788 181.08985 19.470704 L 185.96485 15.613282 L 123.79688 15.613282 z M 358.50782 15.613282 L 363.38282 19.470704 C 352.35434 20.546788 355.27025 29.632006 351.35938 34.796876 C 351.35938 34.796876 358.17164 33.910408 361.28126 30.800782 C 365.5958 26.486248 369.92799 20.178835 375.91212 19.84961 C 384.15304 19.396065 380.00724 21.271485 395.9961 21.271485 L 421.38673 21.271485 C 438.09579 21.271485 440.16798 25.085938 440.16798 25.085938 L 372.32423 25.085938 L 375.33009 27.498047 C 370.96023 26.933368 370.55993 30.394949 368.38282 32.753907 C 368.38282 32.753907 372.71971 33.071422 375.22071 31.773438 C 379.28783 29.662709 378.31426 27.404297 381.03516 27.404297 L 439.60548 27.404297 C 448.71488 27.996002 451.88644 34.559929 448.56056 43.777345 C 440.58876 41.199189 435.59834 49.368881 435.76173 55.32422 C 435.87523 59.45768 434.22266 65.021486 434.22266 65.021486 L 450.84767 48.126954 L 482.81642 56.833986 C 474.88208 49.135594 481.56108 42.643185 460.72852 37.335938 C 459.40506 43.323749 468.35632 48.934818 458.49806 46.490235 L 454.47462 45.361329 C 455.36939 42.295846 459.21754 15.613282 420.67579 15.613282 L 358.50782 15.613282 z M 452.2422 52.033204 C 451.84738 52.034391 451.46243 52.191877 451.17579 52.478517 L 428.88282 74.771486 L 428.84571 74.808595 C 428.82811 74.825795 428.81524 74.84086 428.79884 74.86133 C 428.77384 74.88713 428.75312 74.912738 428.72852 74.941408 C 428.70612 74.971288 428.68447 75.000445 428.66407 75.033205 C 428.64637 75.057775 428.62969 75.084806 428.61329 75.109376 C 428.59409 75.14459 428.57305 75.179938 428.55665 75.216798 C 428.54435 75.238908 428.53379 75.260588 428.52149 75.285158 C 428.50389 75.32897 428.48692 75.37293 428.47462 75.41797 C 428.46652 75.43844 428.46113 75.46 428.45313 75.48047 L 428.45118 75.482423 L 428.45118 75.484376 L 428.45118 75.48633 C 428.43478 75.548572 428.42207 75.611903 428.41407 75.675783 C 428.40477 75.743349 428.40165 75.810938 428.40235 75.878908 C 428.40235 75.915759 428.40326 75.951423 428.40626 75.988283 C 428.40626 76.020643 428.40716 76.053179 428.41016 76.085939 C 428.41416 76.098229 428.41498 76.110768 428.41798 76.123048 C 428.42608 76.172603 428.43888 76.221213 428.45118 76.269533 L 428.45509 76.294923 L 436.61524 106.77344 C 436.68404 107.03081 436.8175 107.26673 437.00587 107.45508 C 437.1942 107.64345 437.43036 107.77886 437.68751 107.84766 L 468.16798 116.01367 L 468.19142 116.01758 C 468.23972 116.02988 468.2883 116.03692 468.3379 116.04492 C 468.3502 116.04892 468.36271 116.04974 468.37501 116.05274 C 468.40691 116.05374 468.43997 116.05762 468.47267 116.0586 C 468.50913 116.0596 468.54514 116.06152 468.58204 116.0625 C 468.65001 116.0625 468.71797 116.05683 468.78517 116.04883 C 468.84906 116.04063 468.91242 116.02812 468.97462 116.01172 L 468.97657 116.01172 L 468.97852 116.01172 L 468.98048 116.00977 C 469.00128 116.00577 469.02258 115.99824 469.04298 115.99024 C 469.08807 115.97664 469.13199 115.95976 469.17579 115.94336 C 469.19879 115.93526 469.22375 115.92246 469.24415 115.91016 C 469.28096 115.89506 469.31477 115.87587 469.35157 115.85547 C 469.37697 115.83787 469.40314 115.82109 469.42774 115.80469 C 469.45924 115.78469 469.49084 115.76484 469.51954 115.74024 C 469.54704 115.71724 469.57502 115.69452 469.59962 115.66992 C 469.61682 115.65632 469.63791 115.63945 469.65431 115.62305 L 469.68556 115.58594 L 491.97853 93.292971 C 492.36282 92.910799 492.51031 92.354208 492.3711 91.832033 L 484.20704 61.359376 L 484.20704 61.35547 L 484.20509 61.351564 L 484.20118 61.332032 C 484.19718 61.311152 484.18965 61.290002 484.18165 61.269532 C 484.16775 61.228584 484.15508 61.189379 484.13868 61.148439 L 484.13868 61.144532 C 484.11488 61.088433 484.08535 61.0337 484.05665 60.98047 C 484.03575 60.945669 484.01484 60.909714 483.99024 60.876954 C 483.97254 60.852384 483.95586 60.829259 483.93946 60.804689 C 483.89976 60.752686 483.85686 60.700978 483.81056 60.654298 C 483.76388 60.608031 483.71462 60.566342 483.66212 60.525392 C 483.63842 60.507782 483.6125 60.490991 483.5879 60.474611 C 483.55473 60.450851 483.52324 60.428674 483.48634 60.408204 C 483.43311 60.377894 483.37878 60.350743 483.32228 60.326173 L 483.31642 60.326173 C 483.2767 60.308163 483.23632 60.297437 483.19532 60.285157 C 483.17492 60.276977 483.15518 60.271873 483.13478 60.263673 L 483.11329 60.259767 L 483.10938 60.257814 L 483.10548 60.257814 L 452.63282 52.093751 C 452.5022 52.058131 452.36973 52.040648 452.23829 52.041017 L 452.2422 52.033204 z M 92.226564 52.041017 C 92.09471 52.040607 91.962659 52.060991 91.832033 52.093751 L 61.361329 60.257814 L 61.357423 60.257814 L 61.351564 60.259767 L 61.332032 60.263673 C 61.311142 60.267763 61.290002 60.275004 61.269532 60.283204 C 61.228585 60.297134 61.189389 60.309793 61.148439 60.326173 L 61.144532 60.326173 C 61.088432 60.349923 61.0337 60.379534 60.98047 60.408204 C 60.945669 60.429504 60.909714 60.450041 60.876954 60.474611 C 60.852384 60.492221 60.829259 60.509022 60.804689 60.525392 C 60.752686 60.565109 60.702931 60.608028 60.656251 60.654298 C 60.609984 60.70098 60.568285 60.750326 60.527345 60.802736 C 60.509735 60.826496 60.492934 60.852384 60.476564 60.876954 C 60.452804 60.910125 60.428674 60.941657 60.408204 60.978517 C 60.377894 61.03134 60.352696 61.086479 60.328126 61.142579 L 60.328126 61.146486 C 60.314206 61.186203 60.297447 61.228172 60.285157 61.269532 C 60.276977 61.290002 60.271873 61.309609 60.263673 61.330079 L 60.259767 61.351564 L 60.257814 61.35547 L 60.257814 61.359376 L 52.093751 91.832033 C 51.954403 92.354208 52.10428 92.910922 52.486329 93.292971 L 74.779298 115.58594 L 74.812501 115.62305 C 74.829691 115.64065 74.846719 115.65157 74.867189 115.66797 C 74.892989 115.69297 74.916654 115.71564 74.945314 115.74024 C 74.975204 115.76274 75.006304 115.78429 75.039064 115.80469 C 75.063634 115.82229 75.088713 115.83712 75.113283 115.85352 C 75.148497 115.87272 75.185798 115.89376 75.222658 115.91016 C 75.244768 115.92246 75.264494 115.93106 75.289064 115.94336 C 75.332877 115.96086 75.376836 115.97794 75.421876 115.99024 C 75.442346 115.99834 75.463906 116.00177 75.484376 116.00977 L 75.48633 116.01172 L 75.488283 116.01172 L 75.490236 116.01172 C 75.552478 116.03232 75.615809 116.04474 75.679689 116.05274 C 75.747254 116.06204 75.814844 116.06515 75.882814 116.06446 C 75.919665 116.06446 75.955339 116.06355 75.992189 116.06055 C 76.024549 116.06055 76.057085 116.05964 76.089845 116.05664 C 76.102135 116.05264 76.114665 116.05183 76.126955 116.04883 C 76.1765 116.04473 76.225129 116.03183 76.273439 116.01953 L 76.29883 116.01563 L 106.77735 107.85156 C 107.03466 107.78277 107.27063 107.64735 107.45899 107.45899 C 107.64736 107.27066 107.78081 107.0345 107.84961 106.77735 L 116.01563 76.29883 L 116.01953 76.273439 C 116.03183 76.224704 116.04083 76.176505 116.04883 76.126955 C 116.05283 76.114665 116.05364 76.102135 116.05664 76.089845 C 116.05764 76.057905 116.05956 76.024949 116.06055 75.992189 C 116.06555 75.955748 116.06738 75.919674 116.06836 75.882814 C 116.06836 75.814839 116.06464 75.746849 116.05664 75.679689 C 116.04844 75.615399 116.03593 75.552476 116.01953 75.490236 L 116.01953 75.488283 L 116.01953 75.48633 L 116.01758 75.484376 C 116.01358 75.463496 116.00605 75.442346 115.99805 75.421876 C 115.98445 75.376824 115.96757 75.332874 115.95117 75.289064 C 115.94307 75.266134 115.93027 75.241175 115.91797 75.220705 C 115.89877 75.183851 115.88368 75.150143 115.86328 75.113283 C 115.84568 75.087903 115.8289 75.061681 115.8125 75.037111 C 115.7925 75.005581 115.76845 74.973984 115.74805 74.945314 C 115.72505 74.917874 115.70038 74.889806 115.67578 74.865236 C 115.66218 74.848036 115.64726 74.828881 115.63086 74.812501 L 115.59375 74.779298 L 93.300783 52.486329 C 93.014144 52.199812 92.62912 52.042217 92.234377 52.041017 L 92.226564 52.041017 z M 90.089846 55.697267 L 87.728517 64.507814 L 68.878908 61.380861 L 90.089846 55.697267 z M 454.38282 55.697267 L 475.59376 61.380861 L 456.74415 64.507814 L 454.38282 55.697267 z M 93.015627 56.48047 L 108.53906 72.005861 L 90.652346 65.291017 L 93.015627 56.48047 z M 451.45899 56.48047 L 453.82032 65.291017 L 435.9336 72.005861 L 451.45899 56.48047 z M 56.833986 61.656251 C 49.135594 69.590587 42.641232 62.911575 37.333985 83.744142 C 43.321795 85.067556 48.934817 76.116352 46.490235 85.974611 L 45.361329 89.998049 C 42.295846 89.103284 15.611328 85.255126 15.611328 123.79688 L 15.611328 185.96485 L 19.470704 181.08985 C 20.546788 192.11833 29.632007 189.20247 34.796876 193.11329 C 34.796876 193.11329 33.910407 186.30105 30.800782 183.19141 C 26.486248 178.87689 20.178836 174.54469 19.84961 168.56055 C 19.396066 160.31964 21.271485 164.46543 21.271485 148.47657 L 21.271485 123.08594 C 21.271485 106.37689 25.083985 104.30469 25.083985 104.30469 L 25.083985 172.14844 L 27.498047 169.14258 C 26.933368 173.51239 30.394948 173.91278 32.753907 176.08985 C 32.753907 176.08985 33.071422 171.75297 31.773438 169.25196 C 29.662709 165.18484 27.404297 166.1584 27.404297 163.4375 L 27.404297 104.86719 C 27.996002 95.757793 34.559931 92.586278 43.777345 95.912111 C 41.199191 103.88391 49.368881 108.87432 55.32422 108.71094 C 59.457679 108.59743 65.021486 110.25 65.021486 110.25 L 48.126954 93.625002 L 56.833986 61.656251 z M 487.63868 61.656251 L 496.34571 93.625002 L 479.45118 110.25 C 479.45118 110.25 485.01499 108.59752 489.14845 108.71094 C 495.10379 108.87449 503.27347 103.88391 500.69532 95.912111 C 509.91273 92.586278 516.47666 95.757874 517.06837 104.86719 L 517.06837 163.4375 C 517.06837 166.1584 514.80996 165.18484 512.69923 169.25196 C 511.40116 171.75297 511.71876 176.08985 511.71876 176.08985 C 514.07772 173.91278 517.53929 173.51239 516.97462 169.14258 L 519.38868 172.14844 L 519.38868 104.30469 C 519.38868 104.30469 523.20118 106.37689 523.20118 123.08594 L 523.20118 148.47657 C 523.20118 164.46543 525.07661 160.31964 524.62306 168.56055 C 524.29367 174.54469 517.98642 178.87689 513.67189 183.19141 C 510.56226 186.30105 509.67579 193.11329 509.67579 193.11329 C 514.84071 189.20247 523.92592 192.11833 525.00196 181.08985 L 528.86134 185.96485 L 528.86134 123.79688 C 528.86134 85.255126 502.17686 89.103284 499.11134 89.998049 L 497.98243 85.974611 C 495.53781 76.116352 501.15083 85.067556 507.13868 83.744142 C 501.83139 62.911575 495.33712 69.590587 487.63868 61.656251 z M 63.568361 63.568361 L 85.681642 67.238283 L 76.460939 76.460939 L 67.238283 85.681642 L 63.568361 63.568361 z M 480.90431 63.568361 L 477.23438 85.681642 L 468.01173 76.460939 L 458.79102 67.238283 L 480.90431 63.568361 z M 91.060549 68.679689 L 112.04688 76.556642 L 97.812502 93.875002 L 91.060549 68.679689 z M 453.41212 68.679689 L 446.66017 93.875002 L 432.42579 76.556642 L 453.41212 68.679689 z M 61.380861 68.878908 L 64.507814 87.728517 L 55.697267 90.089846 L 61.380861 68.878908 z M 483.09181 68.878908 L 488.7754 90.089846 L 479.96485 87.728517 L 483.09181 68.878908 z M 88.050783 69.152345 L 94.968752 94.968752 L 69.152345 88.050783 L 78.601564 78.601564 L 88.050783 69.152345 z M 456.42188 69.152345 L 465.8711 78.601564 L 475.32032 88.050783 L 449.50392 94.968752 L 456.42188 69.152345 z M 111.28711 82.250002 L 105.60352 103.46094 L 99.152346 97.011721 L 111.28711 82.250002 z M 433.18556 82.250002 L 445.32032 97.011721 L 438.86915 103.46094 L 433.18556 82.250002 z M 289.04297 87.625002 C 285.37535 87.775812 281.9182 89.165591 278.67188 91.792971 C 274.9618 94.795691 272.9798 98.639783 272.72461 103.32617 C 272.52511 106.99008 273.46605 110.11735 275.54688 112.70899 C 277.67032 115.30294 280.24468 116.68295 283.26954 116.84766 C 286.33699 117.01469 289.11211 116.24697 291.59766 114.54492 C 294.12582 112.8452 295.42492 111.37808 295.49219 110.14258 C 295.50843 109.84436 295.39405 109.56056 295.15235 109.29102 C 294.91065 109.02148 294.62013 108.87794 294.2793 108.85938 C 293.93847 108.84082 293.41141 109.11059 292.69727 109.66992 C 290.685 111.31228 288.48541 112.06741 286.09962 111.9375 C 283.62861 111.80295 281.52115 110.87689 279.77735 109.15821 C 278.07615 107.44184 277.16441 105.36225 277.04102 102.91992 C 277.47402 102.81531 278.05309 102.78283 278.77735 102.82227 L 286.34571 103.875 C 288.09245 103.97012 289.01146 103.20878 289.09962 101.58985 C 289.18313 100.05612 288.24493 99.235621 286.28516 99.128908 L 277.43751 99.160158 C 278.1027 97.145346 279.30329 95.501358 281.03907 94.228517 C 282.81976 92.915394 284.85957 92.321996 287.16016 92.447267 C 288.39567 92.514543 289.66026 92.840672 290.95313 93.42383 C 292.28861 94.009307 293.23327 94.315547 293.78712 94.345705 C 294.34096 94.375863 294.91173 94.109262 295.49805 93.542971 C 296.12698 92.978999 296.46655 92.228296 296.51758 91.291017 C 296.57094 90.311136 296.0397 89.491118 294.92188 88.832033 C 293.84899 88.132664 292.41631 87.734154 290.62696 87.63672 C 290.09441 87.607723 289.56692 87.603457 289.04297 87.625002 z M 254.81836 87.904299 C 254.34737 87.883268 253.86184 87.913419 253.36133 87.992189 C 250.24239 88.483052 247.63681 90.857202 245.54297 95.117189 C 243.54846 91.500631 240.94934 89.945091 237.7461 90.449221 C 235.00649 90.880384 232.67015 92.9109 230.73633 96.541018 C 230.71215 96.112905 230.63267 95.477725 230.5 94.634768 C 230.36734 93.79181 230.00607 93.136294 229.41407 92.667971 C 228.81543 92.1575 228.11527 91.965766 227.31446 92.091799 C 226.51365 92.217831 225.8644 92.621753 225.36719 93.304689 C 224.91214 93.980992 224.75524 94.761381 224.89454 95.646486 L 226.99805 106.13477 L 228.5254 118.72266 C 228.66469 119.60776 229.05453 120.30281 229.69532 120.80664 C 230.37162 121.2617 231.1113 121.42486 231.91211 121.29883 C 232.71292 121.1728 233.32265 120.79745 233.74219 120.16992 C 234.1551 119.50025 234.29165 118.723 234.15235 117.83789 L 231.74024 105.38867 C 231.56114 104.25068 231.39945 103.08912 231.25586 101.90235 C 231.14779 100.66679 231.46043 99.364317 232.19532 97.996096 C 232.97235 96.621242 234.1417 95.81184 235.70118 95.566408 C 237.3028 95.314343 238.77239 95.729117 240.10938 96.814455 C 241.43974 97.857645 242.38808 99.220716 242.95508 100.90235 L 247.37305 113.74805 C 248.48715 116.98487 250.01433 118.44966 251.95313 118.14453 C 252.79609 118.01187 253.47196 117.64747 253.98243 117.04883 C 254.52841 116.40141 254.72484 115.59245 254.57227 114.62305 C 254.41307 113.6115 253.84828 112.62021 252.87501 111.65039 C 251.8951 110.63843 251.21955 109.6444 250.84961 108.66602 L 247.25391 98.994143 C 248.52897 95.294933 250.15773 93.290282 252.13868 92.978517 C 253.61385 92.746352 254.9085 93.147434 256.02149 94.181642 C 257.13447 95.215851 257.98342 96.637241 258.57032 98.445314 L 262.99024 111.29102 C 264.10434 114.52783 265.62956 115.99263 267.56836 115.6875 C 268.41132 115.55484 269.08914 115.18849 269.59961 114.58985 C 270.1456 113.94242 270.34202 113.13542 270.18946 112.16602 C 270.03026 111.15447 269.46351 110.16317 268.49024 109.19336 C 267.51033 108.1814 266.83479 107.18542 266.46485 106.20703 L 262.54102 95.681643 C 260.69002 90.644163 258.11534 88.051516 254.81836 87.904299 z M 65.291017 90.652346 L 72.005861 108.53906 L 56.48047 93.013674 L 65.291017 90.652346 z M 479.18165 90.652346 L 487.9922 93.013674 L 472.46681 108.53906 L 479.18165 90.652346 z M 68.679689 91.060549 L 93.875002 97.812502 L 76.556642 112.04688 L 68.679689 91.060549 z M 475.79298 91.060549 L 467.91602 112.04688 L 450.59767 97.812502 L 475.79298 91.060549 z M 313.28126 91.435549 C 311.14983 91.511275 309.04975 92.018158 306.98047 92.957033 C 303.67816 94.417427 301.79622 96.277602 301.33594 98.535158 C 301.05466 99.914776 301.33838 101.19059 302.18751 102.36524 C 303.08696 103.5066 304.24302 104.46179 305.6543 105.22852 C 307.06558 105.99524 308.48574 106.71924 309.91407 107.40235 C 311.35092 108.04365 312.5312 108.76412 313.45704 109.5625 C 314.42468 110.36941 314.79779 111.31537 314.57618 112.40235 C 314.36309 113.44751 313.46939 114.20135 311.89454 114.66406 C 310.32821 115.08497 308.83354 115.15113 307.41212 114.86133 C 306.0325 114.58005 304.74646 114.05693 303.55274 113.29102 C 302.35902 112.52511 301.47006 112.08222 300.88477 111.96289 C 300.34129 111.85209 299.71635 112.03013 299.01172 112.4961 C 298.35743 112.92877 297.93238 113.62439 297.73633 114.58594 C 297.54881 115.50569 297.87139 116.37803 298.70508 117.20117 C 299.53878 118.02432 300.73051 118.59283 302.27735 118.90821 C 305.95633 119.65828 309.61438 119.2289 313.25196 117.61914 C 316.88954 116.00938 318.98503 113.84634 319.53907 111.12891 C 319.89706 109.37303 319.37174 107.78463 317.9629 106.36524 C 316.60438 104.91256 315.00265 103.80155 313.15626 103.03321 C 311.30986 102.26486 309.63542 101.40093 308.13282 100.44141 C 306.67202 99.490411 306.0268 98.597853 306.19727 97.761721 C 306.36774 96.925589 307.01404 96.316274 308.13672 95.935549 C 309.30122 95.563347 310.57351 95.519504 311.95313 95.800783 C 313.37456 96.090586 314.68128 96.616903 315.87501 97.382814 C 317.06873 98.148726 317.93699 98.588414 318.48048 98.699221 C 319.06577 98.818551 319.68556 98.661196 320.33985 98.228518 C 321.04447 97.762556 321.49537 97.049444 321.69141 96.087893 C 321.88746 95.126341 321.58558 94.259142 320.78516 93.48633 C 320.03508 92.680235 318.82266 92.106572 317.1504 91.765627 C 315.84917 91.500329 314.56011 91.390113 313.28126 91.435549 z M 210.24805 98.70508 C 208.99018 98.635413 207.72796 98.854559 206.46094 99.363283 C 203.92691 100.38073 201.68998 102.08335 199.75196 104.47071 C 197.81393 106.85806 196.48025 109.83224 195.74805 113.39063 C 194.99995 116.90942 195.22928 120.17248 196.4375 123.18164 C 197.62983 126.15122 199.47522 128.28396 201.97266 129.58008 C 204.4701 130.8762 206.9855 131.0155 209.51954 129.99805 C 212.05357 128.9806 214.28854 127.27798 216.22657 124.89063 C 218.16459 122.50327 219.50777 119.55004 220.25586 116.03125 C 220.98806 112.47287 220.75873 109.20981 219.56641 106.24024 C 218.35819 103.23107 216.50525 101.07737 214.00782 99.781252 C 212.7591 99.133194 211.50592 98.774747 210.24805 98.70508 z M 97.011721 99.152346 L 103.46094 105.60352 L 82.250002 111.28711 L 97.011721 99.152346 z M 447.46095 99.152346 L 462.22267 111.28711 L 441.01173 105.60352 L 447.46095 99.152346 z M 352.12891 103.33008 C 351.83902 103.33902 351.54364 103.3909 351.24219 103.48828 C 350.47633 103.7674 349.8886 104.30587 349.48048 105.10352 L 345.00977 114.82227 L 338.83985 125.90039 C 338.43172 126.69805 338.33885 127.48902 338.56055 128.27344 C 338.83967 129.03931 339.33887 129.60535 340.06055 129.97461 C 340.78224 130.34387 341.49859 130.39924 342.20704 130.13867 C 342.93492 129.84012 343.50204 129.2918 343.91016 128.49414 L 350.68165 114.41797 C 351.53411 113.0329 352.69863 112.02181 354.17384 111.38672 C 355.64904 110.75163 357.20266 110.85181 358.83594 111.6875 C 362.02655 113.32001 363.01084 116.22107 361.78907 120.38867 L 357.86134 133.4043 C 356.89575 136.69651 357.36255 138.8271 359.26173 139.79883 C 361.1609 140.77056 362.61636 140.27006 363.62696 138.29492 C 364.03509 137.49727 364.13046 136.41933 363.91407 135.0625 C 363.7551 133.68713 363.78482 132.5039 364.00391 131.51367 L 366.85352 120.60742 C 368.4543 114.66872 367.25975 110.67931 363.27149 108.63867 C 360.4987 107.21995 357.30128 107.42729 353.67774 109.26367 C 353.91007 108.90327 354.22069 108.34366 354.60938 107.58399 C 354.99807 106.82432 355.08988 106.08052 354.88673 105.35352 C 354.70301 104.58853 354.25099 104.0216 353.5293 103.65235 C 353.07825 103.42156 352.61206 103.31519 352.12891 103.33008 z M 208.17579 104.88281 C 209.40981 104.89309 210.6271 105.16213 211.82813 105.69141 C 214.23018 106.74996 215.94154 108.54604 216.95899 111.08008 C 217.97644 113.61412 217.99107 116.11474 217.00391 118.58008 C 216.00085 121.00583 214.23131 122.72669 211.69727 123.74414 C 209.20283 124.74569 206.71562 124.73379 204.23438 123.70703 C 201.77684 122.62479 200.03894 120.81529 199.02149 118.28125 C 198.00404 115.74722 198.0179 113.26001 199.06055 110.81836 C 200.1428 108.36082 201.92939 106.63241 204.42383 105.63086 C 205.69085 105.12214 206.94176 104.87254 208.17579 104.88281 z M 185.31641 109.85742 C 185.16688 109.85267 185.01153 109.85562 184.84961 109.86524 C 183.56904 109.88371 182.15827 110.35174 180.61914 111.26953 C 176.95456 113.45477 174.42222 116.82844 173.01953 121.39063 C 171.61685 125.95281 172.11578 130.25021 174.51953 134.28125 C 176.39883 137.4328 178.92659 139.50305 182.09961 140.49219 C 185.30928 141.45948 188.21455 141.16675 190.81641 139.61524 C 193.45491 138.04187 195.33084 135.85615 196.44336 133.05664 C 197.59253 130.23529 197.84857 128.2932 197.21485 127.23047 C 197.06188 126.97395 196.80998 126.7997 196.45899 126.71094 C 196.108 126.62218 195.78731 126.66698 195.49414 126.8418 C 195.20098 127.01662 194.91322 127.53381 194.63282 128.39649 C 193.8797 130.88232 192.47795 132.73721 190.42579 133.96094 C 188.11709 135.33764 185.67549 135.7017 183.10157 135.05078 C 180.56429 134.37802 178.60717 132.88682 177.23047 130.57813 C 175.85378 128.26944 175.42424 125.84189 175.94336 123.29688 C 176.47728 120.69337 177.95442 118.67077 180.37305 117.22852 C 181.47243 116.57295 182.72089 116.12635 184.11914 115.88867 C 185.55404 115.62915 186.50994 115.3583 186.98633 115.07422 C 187.46273 114.79014 187.78657 114.2483 187.95703 113.45117 C 188.16414 112.6322 188.02763 111.81988 187.54688 111.01367 C 187.1071 110.27618 186.36315 109.89068 185.31641 109.85742 z M 383.4922 121.46875 C 382.61312 121.49916 381.90392 121.87143 381.36329 122.58594 C 380.8484 123.26643 380.672 123.854 380.83204 124.34961 C 380.99207 124.84523 381.34773 125.3291 381.9004 125.80078 C 382.51284 126.26418 383.12136 126.80491 383.72462 127.42188 C 384.32787 128.03884 384.80502 128.96305 385.15821 130.19336 C 385.57117 131.41539 385.66784 132.87824 385.44727 134.58399 C 382.48624 132.55755 379.41374 131.81112 376.22852 132.34375 C 373.0433 132.87639 370.47221 134.43562 368.51563 137.02149 C 367.25415 138.68869 366.75997 140.5081 367.03321 142.48047 C 367.36622 144.44457 368.39952 146.08352 370.13477 147.39649 C 373.60527 150.02242 377.58627 150.17141 382.07618 147.84375 L 381.63477 149.27539 C 380.53528 152.9913 380.68313 155.37807 382.07813 156.4336 C 382.65655 156.87125 383.25743 157.03089 383.88087 156.91407 C 384.53005 156.76322 385.09875 156.36522 385.5879 155.71875 C 386.07704 155.07229 386.31688 153.94294 386.30665 152.33008 C 386.35619 150.70894 386.49353 149.50164 386.71876 148.70899 L 387.79493 145.26953 C 389.77426 139.33014 390.52876 134.44482 390.0586 130.61133 C 389.58845 126.77784 388.24871 124.023 386.03712 122.34961 C 385.25455 121.75749 384.40529 121.46409 383.4922 121.46875 z M 413.00587 134.45703 C 412.89462 134.45799 412.78098 134.46524 412.66407 134.47657 C 411.78915 134.56716 410.92867 135.03407 410.08399 135.87891 C 409.26949 136.69358 408.10795 137.9156 406.59962 139.54492 L 405.64845 138.59571 C 405.22603 138.17337 404.74424 137.96089 404.20118 137.96094 C 403.68829 137.93082 403.20446 138.14311 402.75196 138.59571 C 402.29946 139.0483 402.07417 139.54484 402.07423 140.08789 C 402.10445 140.60078 402.33149 141.06985 402.75391 141.49219 L 403.83985 142.57813 C 402.45219 144.1471 400.82348 145.86561 398.95313 147.73633 L 389.94727 157.10547 C 387.56409 159.48913 387.12613 161.43502 388.63477 162.94336 C 389.20806 163.51653 389.93367 163.81758 390.8086 163.84766 C 391.7137 163.84757 392.49649 163.51732 393.16016 162.85352 C 393.82384 162.18972 394.27636 161.16323 394.51759 159.77539 C 394.81915 158.38755 395.58934 157.07498 396.82618 155.83789 C 398.09319 154.57063 400.08379 152.69881 402.79884 150.22461 C 405.51388 147.75041 407.06682 146.31803 407.45899 145.92578 C 410.8384 149.78719 412.605 151.79253 412.75587 151.94336 C 413.93261 153.11987 415.07915 153.15156 416.19532 152.03516 C 417.3115 150.91876 417.28027 149.77221 416.10352 148.59571 L 410.26563 143.48242 C 411.62316 142.30566 412.82893 141.18887 413.88477 140.13282 C 414.94061 139.07676 415.51505 138.14077 415.60548 137.32617 C 415.72607 136.48141 415.49907 135.77239 414.92579 135.19922 C 414.42417 134.6977 413.78463 134.45036 413.00587 134.45703 z M 378.47266 135.03516 C 379.83514 135.08293 381.05324 135.51327 382.12501 136.32422 C 383.34989 137.25102 384.1972 138.32141 384.66993 139.53516 C 384.60926 139.75677 384.44962 140.35765 384.18946 141.33789 C 383.95505 142.28411 383.51667 143.18259 382.87305 144.03321 C 381.972 145.22406 380.74345 145.9273 379.18946 146.14258 C 377.66121 146.32384 376.28544 145.95024 375.06055 145.02344 C 373.83567 144.09664 373.10236 142.87349 372.86134 141.35352 C 372.68008 139.82527 373.07836 138.41403 374.05665 137.1211 C 375.03494 135.82816 376.31031 135.13481 377.88087 135.03907 C 378.08144 135.03032 378.27802 135.02833 378.47266 135.03516 z M 148.17774 135.85938 C 147.7903 135.85074 147.36342 135.91899 146.89844 136.0625 C 145.65896 136.38486 144.40183 137.17428 143.125 138.43164 C 140.08493 141.42537 138.42445 145.30547 138.14649 150.07032 C 137.86852 154.83516 139.37682 158.88835 142.66992 162.23243 C 145.24453 164.84689 148.19062 166.25834 151.50782 166.46485 C 154.85542 166.64141 157.60913 165.66657 159.76758 163.54102 C 161.95643 161.38553 163.25674 158.81575 163.67188 155.83203 C 164.11742 152.81838 163.90725 150.87186 163.03907 149.99024 C 162.8295 149.77743 162.54367 149.6688 162.18164 149.66602 C 161.81962 149.66324 161.51665 149.78199 161.27344 150.02149 C 161.03023 150.26099 160.87589 150.83172 160.8086 151.73633 C 160.66799 154.32994 159.74541 156.46609 158.04297 158.14258 C 156.12773 160.02863 153.84237 160.9618 151.1875 160.94141 C 148.56303 160.89108 146.30793 159.90744 144.42188 157.99219 C 142.53583 156.07695 141.54216 153.82203 141.44141 151.22657 C 141.34112 148.57077 142.29434 146.25516 144.30078 144.2793 C 145.21281 143.38118 146.31943 142.64919 147.6211 142.08594 C 148.95317 141.49276 149.81768 141.00247 150.21289 140.61328 C 150.6081 140.2241 150.79345 139.62144 150.76953 138.80664 C 150.77602 137.96191 150.44964 137.20593 149.79102 136.53711 C 149.36067 136.1001 148.82347 135.87377 148.17774 135.85938 z M 286.62501 142.04492 C 285.32635 142.00454 284.21109 142.04751 283.32618 142.1836 C 278.94071 142.85804 275.10299 144.9723 271.41211 148.74805 C 266.57662 153.69474 264.37366 157.32243 256.08008 173.99219 C 251.90389 182.38616 247.40757 190.88569 246.0879 192.87891 C 242.72861 197.95278 238.9004 201.62485 234.93555 203.57618 C 231.76354 205.13731 231.39424 205.20454 226.29493 205.17774 C 221.54141 205.15271 220.57587 204.99361 217.31641 203.69532 C 208.95959 200.36669 202.32485 194.04326 199.08204 186.31641 C 196.56459 180.31787 196.61626 171.92892 199.20899 165.68946 C 199.81425 164.23288 198.77482 164.74018 194.33399 168.07032 C 188.53942 172.41562 182.78369 177.6086 177.08399 183.63282 C 169.94289 191.18051 166.79801 196.28306 164.32227 204.33789 C 163.09257 208.33856 163.01472 209.14704 163.01172 218.01563 C 163.00892 226.69321 163.13416 228.0754 164.57813 235.41797 C 168.72304 256.49477 168.67653 256.1911 168.70313 263.2129 C 168.72305 268.4763 168.53157 270.62511 167.83789 272.88086 C 164.92921 282.33965 159.38298 287.85899 152.81055 287.83399 C 149.6733 287.8221 147.09222 286.76986 143.7461 284.13672 L 141.9336 282.70899 L 141.9336 283.9336 C 141.9336 284.60698 142.25955 287.64641 142.65821 290.68751 C 146.62288 320.93173 160.1178 347.82695 181.8711 368.8418 C 188.16901 374.92592 191.03422 377.35136 196.79883 381.48048 C 208.41089 389.79805 221.26722 396.17567 235.22852 400.54493 C 238.02011 401.41857 240.60878 402.14712 240.98047 402.16212 C 240.98628 402.16235 240.9915 402.1611 240.9961 402.16016 C 240.99825 402.15955 241.00402 402.15716 241.00586 402.15626 L 241.00782 402.15626 L 241.00977 402.1543 L 241.01172 402.15235 L 241.01368 402.1504 C 241.01423 402.14959 241.0171 402.14542 241.01758 402.14454 C 241.01799 402.14359 241.0192 402.1397 241.01954 402.13868 C 241.08207 401.87594 239.04695 399.5865 236.26954 396.81641 C 224.84404 385.42105 218.24627 374.42418 214.55274 360.61719 C 213.47956 356.60544 213.32179 355.01662 213.30079 348.04884 C 213.2733 338.92173 213.97592 335.38408 217.42969 327.26368 C 222.31095 315.78701 229.86024 305.47662 251.5879 280.61524 C 264.39473 265.96132 270.54197 257.55637 273.1543 251.12891 L 274.2461 248.44141 L 278.86133 255.3711 C 283.44193 262.24665 289.18536 269.76262 304.05665 288.34962 C 323.45783 312.59833 330.30614 325.27372 331.91798 339.92188 C 333.67207 355.86274 326.62255 375.92638 312.84376 394.2129 C 311.24113 396.33982 309.18932 398.90028 308.28321 399.9043 C 307.3771 400.90832 306.76292 401.8567 306.91797 402.01173 C 307.31823 402.41201 316.71727 399.49534 322.72266 397.10743 C 358.63855 382.8263 386.29474 354.13157 399.12501 317.83594 C 401.36104 311.51043 403.9874 301.73354 403.52735 301.44922 C 403.34797 301.33836 401.89835 301.81084 400.3047 302.49805 C 396.39616 304.18348 391.08231 304.29328 388.17579 302.75001 C 382.63814 299.8097 379.76368 293.0353 379.76368 282.93165 C 379.76368 276.06761 380.9475 270.3364 385.33595 255.9629 C 391.60177 235.4404 392.65522 230.15848 392.18165 221.64063 C 391.73022 213.52104 389.96504 208.6234 384.58204 200.55664 C 381.77135 196.34463 374.6517 187.07813 374.22657 187.07813 L 374.22462 187.08008 C 374.22372 187.08036 374.21969 187.07967 374.21876 187.08008 C 374.09763 187.14839 373.65129 188.26501 373.20704 189.61719 C 368.97209 202.507 360.21038 213.06016 350.07813 217.47852 C 340.68572 221.57426 329.93202 220.84437 321.75391 215.5586 C 307.84678 206.56999 299.89548 184.52656 305.32618 170.01172 C 308.53708 161.42984 315.62783 156.61023 327.49805 154.93946 C 331.13335 154.42777 331.51115 154.28868 330.45704 153.84375 C 329.79238 153.5632 327.40223 152.53681 325.14649 151.56446 C 313.81465 146.67979 295.71558 142.32763 286.62501 142.04492 z M 116.14649 148.44141 C 116.04991 148.44691 115.95422 148.45724 115.85742 148.47461 C 115.07699 148.55356 114.38849 148.95642 113.79492 149.6836 C 113.20136 150.41077 112.97134 151.26835 113.10156 152.25586 C 113.19874 153.2164 113.6265 154.00641 114.38672 154.62696 C 115.14695 155.2475 115.90106 155.50633 116.64844 155.40039 C 117.39582 155.29446 118.0666 154.87757 118.66016 154.15039 C 119.25372 153.42322 119.50147 152.57968 119.4043 151.61914 C 119.33411 150.62556 118.91843 149.81781 118.15821 149.19727 C 117.49301 148.65429 116.82251 148.40287 116.14649 148.44141 z M 419.78126 154.18946 C 419.13484 154.19082 418.51693 154.41115 417.92579 154.84961 C 417.13761 155.43423 416.60209 156.36086 416.32227 157.63086 C 416.10214 158.90971 415.57176 160.0221 414.73048 160.96485 L 407.3379 169.47461 C 405.64648 171.41979 404.5174 173.47932 403.95118 175.65235 C 403.41038 177.85964 403.86562 179.93926 405.31446 181.89258 C 407.11916 184.32567 409.97116 185.34468 413.87306 184.94727 C 411.16582 186.95532 410.44784 188.81586 411.71876 190.5293 C 412.20171 191.18041 412.8753 191.58402 413.73634 191.74219 C 414.63164 191.87495 415.45508 191.66272 416.20899 191.10352 C 416.96291 190.54432 417.54796 189.57871 417.96485 188.20703 C 418.44143 186.84421 419.1946 185.78208 420.22266 185.01953 C 422.8271 183.08774 425.92666 181.10706 429.52149 179.07813 C 431.31891 178.06366 432.66371 177.22533 433.5547 176.56446 C 434.47995 175.87816 435.04686 175.14016 435.25587 174.34766 C 435.49915 173.52974 435.37944 172.79369 434.89649 172.14258 C 434.41354 171.49147 433.70211 171.14336 432.76368 171.09571 C 431.88494 171.0569 430.98386 171.38012 430.0586 172.06641 L 418.87306 181.15821 C 417.31439 182.20807 415.71624 182.70444 414.07813 182.64453 C 412.4743 182.55921 411.2022 181.88123 410.26173 180.61328 C 408.32993 178.00885 408.83537 175.11091 411.77931 171.91797 L 421.07423 161.9961 C 423.40019 159.47402 423.92717 157.35602 422.65626 155.64258 C 422.09706 154.88867 421.35823 154.42875 420.43751 154.26172 C 420.21589 154.21361 419.99673 154.189 419.78126 154.18946 z M 126.47266 157.63477 C 125.62005 157.59973 124.93645 157.89738 124.42383 158.52539 C 123.91121 159.15341 123.74746 159.92821 123.93164 160.84961 C 124.10975 161.71099 124.47911 162.36947 125.04102 162.82813 C 125.60292 163.28679 127.52192 164.71544 130.79688 167.11328 C 134.07184 169.51113 137.79232 172.41106 141.95703 175.81055 C 142.98169 176.64693 144.03885 177.2063 145.12891 177.49024 C 146.21897 177.77417 147.0467 177.56912 147.61328 176.875 C 148.20685 176.14783 148.43391 175.39741 148.29492 174.62305 C 148.18292 173.81564 147.76428 173.11505 147.03711 172.52149 C 146.27689 171.90095 145.27443 171.44135 144.03125 171.14258 C 142.782 170.78378 141.66152 170.20003 140.66992 169.39063 C 138.19093 167.36712 135.90627 165.30785 133.81446 163.21485 C 131.68959 161.09487 130.148 159.64375 129.18946 158.86133 C 128.19786 158.05193 127.29222 157.64283 126.47266 157.63477 z M 123.6875 172.41993 C 123.58605 172.42342 123.48447 172.43256 123.38281 172.44532 C 122.53321 172.52503 121.89635 172.91043 121.47266 173.60157 C 121.04897 174.2927 120.99068 175.08236 121.29688 175.97071 C 121.589 176.80038 122.40801 177.62805 123.75391 178.45313 C 125.09981 179.2782 126.31148 179.99517 127.38867 180.60547 C 129.42334 182.10301 130.7003 184.06268 131.21875 186.48243 C 131.72313 188.8435 131.28295 191.15097 129.90039 193.40625 C 128.51783 195.66154 126.52587 197.11771 123.92188 197.77344 C 121.3038 198.3705 118.82999 197.95451 116.50196 196.52735 C 114.17392 195.10019 112.69944 193.09537 112.08008 190.51368 C 111.48302 187.8956 111.89902 185.42374 113.32617 183.09571 C 113.92826 182.11357 114.79214 181.19209 115.91992 180.33203 C 117.03363 179.41331 117.7246 178.73534 117.99219 178.29883 C 118.28208 177.82595 118.31703 177.19719 118.09766 176.41211 C 117.90059 175.59066 117.42014 174.94681 116.65625 174.47852 C 115.85599 173.98793 114.94947 173.95732 113.93555 174.38672 C 112.90755 174.75744 111.83567 175.85115 110.72071 177.66993 C 109.60574 179.48871 108.98328 181.93372 108.85156 185.00586 C 108.71985 188.078 109.42048 191.26179 110.95508 194.55469 C 112.4533 197.8253 114.58507 200.30721 117.34961 202.00196 C 120.07778 203.67441 122.83173 204.28708 125.60938 203.83789 C 128.38703 203.38871 130.55624 201.89005 132.11719 199.34375 C 133.29906 197.41585 133.98386 195.03276 134.17188 192.19532 C 134.34582 189.2992 133.92924 186.46754 132.92383 183.69922 C 138.77445 187.13569 141.84572 188.9427 142.13672 189.1211 C 144.46476 190.54826 145.99767 192.53826 146.73438 195.0918 C 147.50746 197.66764 147.19002 200.10287 145.78516 202.39454 C 145.07158 203.55855 144.24432 204.50184 143.30078 205.22461 C 142.37954 205.91101 141.55453 206.35526 140.82813 206.56055 C 140.12403 206.72947 139.42286 206.97619 138.72461 207.29883 C 138.04867 207.5851 137.51077 208.05618 137.10938 208.71094 C 136.73029 209.32933 136.64978 210.03134 136.86914 210.81641 C 137.11081 211.56511 137.56009 212.13963 138.21485 212.54102 C 139.48799 213.3215 141.10547 213.33561 143.06641 212.58594 C 145.02735 211.83627 146.59743 210.49822 147.7793 208.57032 C 150.14303 204.7145 150.64708 200.21923 149.29102 195.08399 C 147.97133 189.97105 145.54797 186.33296 142.01953 184.16993 C 138.4911 182.00689 134.81861 179.505 131.00391 176.66602 C 129.83404 175.79871 128.87831 175.11404 128.13672 174.60938 C 127.38106 174.04604 126.603 173.51793 125.80274 173.02735 C 125.10251 172.59808 124.39766 172.39548 123.6875 172.41993 z M 440.25391 183.86719 C 439.73636 183.85506 439.2175 183.98467 438.69727 184.25586 C 437.86492 184.68977 437.09693 185.52455 436.39259 186.75782 C 435.7458 188.0092 434.85379 188.92979 433.71876 189.52149 C 431.10819 190.88239 427.81271 192.3611 423.83204 193.95508 C 421.84171 194.75207 420.33599 195.4167 419.31446 195.94922 C 418.29293 196.48175 417.59915 197.13276 417.23048 197.90235 C 416.89964 198.65221 416.92019 199.38662 417.29493 200.10547 C 417.66967 200.82433 418.28865 201.27099 419.1504 201.44727 C 420.06971 201.64166 421.03903 201.47198 422.06056 200.93946 L 432.09766 195.13086 C 434.71307 194.05614 437.02549 193.69331 439.03516 194.04102 C 441.04484 194.38873 442.33429 195.11179 442.90626 196.20899 C 443.24155 196.85217 443.34817 197.47077 443.22462 198.06446 C 443.1389 198.63842 442.94594 199.0987 442.64649 199.44727 C 442.38488 199.77612 442.1632 200.17998 441.98048 200.66016 C 441.85531 201.15846 441.95006 201.71106 442.26563 202.31641 C 442.58121 202.92176 443.23745 203.3021 444.23243 203.45704 C 445.26524 203.59225 446.32859 203.37276 447.42579 202.80079 C 448.52299 202.22881 449.20618 201.41743 449.47462 200.36329 C 449.80062 199.32725 449.61806 198.14647 448.92774 196.82227 C 448.23743 195.49807 446.87307 194.35634 444.83399 193.39844 C 442.79492 192.44054 440.45898 191.9274 437.82423 191.85743 L 440.03712 190.70313 C 443.02603 189.14499 444.02719 187.42102 443.04102 185.5293 C 442.66628 184.81045 442.04697 184.31464 441.1836 184.04297 C 440.87403 183.9337 440.56445 183.87447 440.25391 183.86719 z M 123.2793 207.35157 C 122.62122 207.34116 121.80829 207.47604 120.83985 207.75586 C 119.26615 208.1483 118.06622 208.34338 117.24219 208.3418 L 113.64063 208.23829 C 107.38694 207.94577 102.47984 208.54582 98.917971 210.03907 C 95.356096 211.53231 93.070669 213.57147 92.060549 216.1543 C 91.703122 217.06823 91.649964 217.96427 91.902346 218.8418 C 92.170268 219.6796 92.722188 220.26155 93.556642 220.58789 C 94.351361 220.8987 94.964885 220.90968 95.398439 220.6211 C 95.831994 220.33252 96.199987 219.85724 96.503908 219.19727 C 96.783634 218.48202 97.138347 217.75005 97.568361 217.00196 C 97.998375 216.25386 98.757491 215.54308 99.845705 214.86914 C 100.90972 214.13993 102.29258 213.6512 103.99414 213.40039 C 102.8477 216.80037 102.96442 219.95988 104.3418 222.88086 C 105.71918 225.80185 107.91757 227.8541 110.9375 229.03516 C 112.88456 229.79664 114.76964 229.77698 116.59375 228.97852 C 118.39367 228.12479 119.68987 226.68474 120.48242 224.65821 C 122.06754 220.60514 121.13106 216.73427 117.67188 213.04493 L 119.16992 213.08008 C 123.04477 213.12946 125.30035 212.34011 125.9375 210.71094 C 126.20169 210.03543 126.19185 209.41401 125.91016 208.84571 C 125.58873 208.26186 125.05186 207.82261 124.29688 207.52735 C 124.01376 207.41662 123.67415 207.35781 123.2793 207.35157 z M 452.05079 208.65625 C 451.74722 208.65897 451.43694 208.71512 451.11915 208.82422 C 450.31205 209.10131 449.83536 209.48971 449.69142 209.99024 C 449.54747 210.49077 449.57242 211.09114 449.76759 211.79102 C 450.01696 212.51741 450.22094 213.30564 450.37696 214.1543 C 450.53298 215.00296 450.41342 216.03602 450.01954 217.25391 C 449.67987 218.4983 448.94198 219.76661 447.80665 221.0586 C 446.48147 217.72422 444.3501 215.3892 441.41016 214.05274 C 438.47023 212.71628 435.46541 212.57404 432.39845 213.62696 C 430.42106 214.30581 428.99562 215.53923 428.1211 217.32813 C 427.30079 219.14353 427.24461 221.08058 427.95118 223.13868 C 429.36431 227.25486 432.58291 229.6001 437.60743 230.17579 L 436.44141 231.11915 C 433.4546 233.58811 432.24644 235.64819 432.81446 237.30274 C 433.04998 237.98877 433.45858 238.45784 434.04102 238.70899 C 434.66382 238.94629 435.35827 238.93316 436.12501 238.66993 C 436.89175 238.4067 437.7213 237.60356 438.61329 236.25977 C 439.55949 234.94248 440.34717 234.01819 440.97657 233.48633 L 443.78907 231.23438 C 448.74723 227.41197 452.10133 223.77882 453.85157 220.33594 C 455.60181 216.89307 456.02749 213.86134 455.12696 211.23829 C 454.80831 210.31013 454.26991 209.59187 453.50977 209.08594 C 453.04335 208.79496 452.55673 208.65172 452.05079 208.65625 z M 110.83594 212.77735 C 111.81026 212.74607 112.79371 212.924 113.78711 213.3125 C 115.17787 213.85642 116.18732 214.84603 116.81641 216.28321 C 117.40576 217.70485 117.42078 219.13201 116.86133 220.5625 C 116.30188 221.993 115.32323 223.03116 113.92578 223.67579 C 112.50414 224.26514 111.03926 224.26436 109.5293 223.67383 C 108.01933 223.0833 107.00486 222.04417 106.48633 220.5586 C 105.98334 219.03329 106.01086 217.5555 106.57031 216.125 C 107.12977 214.69451 107.93088 213.58723 108.97071 212.80274 C 109.20047 212.80097 109.82189 212.79308 110.83594 212.77735 z M 438.62891 216.49219 C 439.54584 216.47344 440.42763 216.71255 441.2754 217.21094 C 442.64569 218.04873 443.58133 219.19372 444.08009 220.64649 C 444.57884 222.09926 444.68587 223.46154 444.4004 224.73243 C 444.22633 224.88241 443.75727 225.291 442.99415 225.95899 C 442.27139 226.61312 441.40536 227.11263 440.39649 227.45899 C 438.98408 227.94389 437.5735 227.84331 436.16407 227.1543 C 434.79499 226.45143 433.86009 225.3727 433.36134 223.91993 C 432.86258 222.46716 432.93729 221.04402 433.58595 219.64844 C 434.28881 218.27936 435.40794 217.33115 436.94141 216.80469 C 437.51647 216.60727 438.07876 216.50344 438.62891 216.49219 z M 189.64258 218.4375 L 193.70313 221.36719 C 212.86179 235.18294 237.04451 236.09677 253.94141 223.64258 L 256.94532 221.42774 L 258.41602 226.02149 C 262.28748 238.10739 261.24477 249.60896 255.45899 258.63477 C 254.51658 260.10492 250.39601 265.11236 246.30079 269.76172 C 222.59985 296.66962 214.29468 307.72525 208.375 320.25391 C 205.53407 326.26657 204.21047 330.12357 203.0625 335.72266 C 202.62642 337.84958 202.12613 342.06522 201.95118 345.0918 L 201.63282 350.59571 L 197.91211 346.78321 C 188.95789 337.61194 182.01225 326.97292 176.49805 313.98047 L 174.2461 308.67383 L 175.3711 307.78907 C 187.81296 298.01121 194.72812 284.42324 195.83985 267.56446 C 196.30105 260.5705 195.44044 252.64371 192.68164 238.48047 C 191.34376 231.61201 190.11212 224.29221 189.94532 222.21485 L 189.64258 218.4375 z M 296.95899 230.5879 C 297.17063 230.59026 298.6356 231.69685 300.2129 233.04688 C 308.68521 240.29851 318.36351 244.81832 329.12501 246.54883 C 331.57583 246.94294 335.32926 247.05669 340.00001 246.87696 C 347.40822 246.5919 351.10422 245.87912 357.75001 243.45704 C 359.60132 242.78232 361.15599 242.27403 361.20509 242.32813 C 361.25411 242.38219 360.87751 243.73294 360.36719 245.32813 C 358.13105 252.318 355.11262 263.2312 354.07227 268.08985 C 353.10347 272.61431 352.94346 274.73972 352.93946 283.03321 C 352.93558 291.64226 353.0605 293.20367 354.0918 297.29297 C 356.328 306.15999 359.93198 313.02925 365.42579 318.90235 L 368.24805 321.91798 L 366.66212 324.71094 C 364.03751 329.33191 360.93308 334.05124 357.83009 338.13868 C 356.21543 340.26562 352.20977 344.72552 348.92969 348.04884 L 342.9668 354.0918 L 343.26173 349.01563 C 344.2307 332.31605 338.81885 317.03331 324.99219 297.42188 C 322.69906 294.16935 315.01733 284.2721 307.92188 275.42774 C 294.16555 258.28068 292.72231 256.02558 291.7129 250.10157 C 291.216 247.18534 291.24676 246.0434 291.91407 242.65625 C 292.66566 238.84127 296.11934 230.5789 296.95899 230.5879 z M 478.78321 232.19727 C 478.4598 232.18805 478.11735 232.22228 477.75782 232.30079 C 476.79908 232.51014 473.48499 233.43122 467.81446 235.0625 C 464.69196 235.96271 455.02384 238.18379 438.8086 241.72461 C 435.51553 242.4437 434.09567 243.84547 434.55079 245.92969 C 434.72374 246.7217 435.17052 247.36545 435.89063 247.86329 C 436.65244 248.35202 437.49115 248.49713 438.40821 248.29688 C 439.32527 248.09663 440.2558 247.45641 441.19923 246.37696 C 442.19345 245.33009 443.31588 244.66956 444.56642 244.39649 C 449.73528 243.26779 457.65903 241.75649 468.3379 239.86133 C 472.88533 239.0867 476.47155 238.41135 479.09767 237.8379 C 479.97304 237.64675 480.6487 237.23898 481.12306 236.61133 C 481.59741 235.98369 481.74913 235.27248 481.57618 234.48047 C 481.40324 233.68847 480.96102 233.06553 480.25001 232.60938 C 479.81131 232.35034 479.32223 232.21263 478.78321 232.19727 z M 72.314455 232.5293 C 70.885755 232.47231 70.055226 233.3762 69.826173 235.24219 C 69.467486 238.16426 70.455506 241.5092 72.787111 245.27735 C 75.076367 249.0403 78.160817 252.79357 82.04297 256.53711 C 77.476156 259.07159 73.583808 262.07729 70.363283 265.55079 C 67.105607 268.97674 65.275275 272.31923 64.875001 275.58008 C 64.739844 276.68115 64.900459 277.64671 65.357423 278.47657 C 65.772038 279.30123 66.382874 279.76256 67.187501 279.86133 C 68.966151 280.07966 70.151823 279.34382 70.746095 277.6543 C 83.472293 279.38841 96.719588 282.30496 110.48828 286.40235 C 117.12374 288.37751 121.11945 289.44889 122.47461 289.61524 C 123.87212 289.78679 124.90727 289.5898 125.57813 289.02735 C 126.29653 288.42774 126.70135 287.74666 126.79492 286.98438 C 126.89369 286.17975 126.66207 285.44235 126.09961 284.77149 C 125.57951 284.10583 124.77427 283.66322 123.6836 283.44336 C 122.59812 283.18116 118.65936 282.52525 111.86719 281.47657 C 96.816244 279.07022 84.744791 276.55816 75.652345 273.93751 C 73.449445 273.3232 72.283298 273.00779 72.156251 272.99219 C 73.299534 270.68228 75.150644 268.39433 77.707033 266.12891 C 80.263421 263.8635 83.122012 261.93702 86.283205 260.34766 C 89.437945 263.01322 92.516872 265.23801 95.521486 267.0254 C 98.48895 268.76524 101.01085 269.76286 103.08594 270.01758 C 105.11868 270.2671 106.90354 269.90547 108.44141 268.9336 C 109.98447 267.91938 110.88918 266.33362 111.1543 264.17383 C 111.41942 262.01404 110.37104 259.52139 108.00977 256.69532 C 105.60615 253.86404 102.56325 252.22179 98.878908 251.76954 C 95.152213 251.31208 90.436695 252.4312 84.732424 255.12696 C 80.399266 250.8552 77.494527 246.67295 76.019533 242.58008 C 83.490669 241.94964 94.339495 241.99235 108.56641 242.70704 C 109.93717 242.74634 111.25384 242.52093 112.51758 242.03125 C 113.74417 241.49403 114.41494 240.7598 114.5293 239.82813 C 114.64886 238.85411 114.40297 238.04973 113.79297 237.41602 C 113.18817 236.73996 112.41996 236.34484 111.48828 236.23047 C 110.51426 236.11091 109.2859 236.4963 107.80078 237.38868 C 106.31566 238.28105 104.86623 238.70661 103.45313 238.66211 C 97.673658 238.46852 88.191173 237.798 75.005861 236.65235 L 75.035158 235.88282 C 75.118332 235.20524 74.923732 234.51532 74.451173 233.8125 C 73.983813 233.06734 73.369702 232.64631 72.607423 232.55274 C 72.506845 232.54039 72.409701 232.5331 72.314455 232.5293 z M 481.25587 246.19922 C 481.03185 246.19732 480.79934 246.21606 480.55665 246.25196 C 479.58588 246.39556 476.2157 247.08667 470.44727 248.32813 C 467.27073 249.01367 457.47337 250.57131 441.0547 253.00001 C 437.72031 253.49324 436.20932 254.79589 436.52149 256.90626 C 436.64012 257.7082 437.04202 258.38204 437.72657 258.92774 C 438.45333 259.4672 439.28043 259.66666 440.20899 259.5293 C 441.13756 259.39195 442.10832 258.81741 443.12306 257.80469 C 444.18624 256.82794 445.35097 256.2459 446.6172 256.0586 C 451.85091 255.28441 459.85948 254.3161 470.64259 253.15235 C 475.2322 252.6891 478.85657 252.26053 481.51563 251.86719 C 482.40199 251.73608 483.10317 251.3732 483.61915 250.7793 C 484.13513 250.18541 484.33348 249.48749 484.21485 248.68555 C 484.09623 247.88361 483.69785 247.23006 483.01954 246.72657 C 482.51549 246.3806 481.92794 246.20494 481.25587 246.19922 z M 99.251955 256.9629 C 99.671808 256.97883 100.08206 257.01117 100.48438 257.06055 C 102.30538 257.28408 103.92445 257.9333 105.33985 259.00977 C 106.71809 260.03869 107.33501 261.14627 107.18946 262.33204 C 107.0439 263.5178 106.34961 264.44316 105.10742 265.10743 C 103.87044 265.72935 102.4894 265.94691 100.96485 265.75977 C 98.169824 265.41668 94.230764 263.19198 89.146486 259.08594 C 92.94486 257.55868 96.312987 256.85132 99.251955 256.9629 z M 464.0254 261.28907 C 463.04438 261.31369 462.07485 261.76489 461.11524 262.64258 C 460.19936 263.56186 459.12506 264.16421 457.89454 264.45118 L 446.95118 267.16016 C 444.44856 267.77783 442.34041 268.81222 440.62696 270.26368 C 438.91458 271.75779 438.08937 273.71916 438.1504 276.1504 C 438.22428 279.09347 439.88457 281.50694 443.13282 283.38868 C 441.55572 283.47095 438.89216 283.55812 435.13868 283.65235 C 432.40887 283.72088 430.03758 282.82132 428.02735 280.95118 C 425.97447 279.08211 424.91512 276.80239 424.84766 274.11524 C 424.8134 272.75034 424.99585 271.50837 425.39454 270.38868 C 425.7943 269.31164 426.24232 268.48922 426.74024 267.92188 C 427.23923 267.39719 427.69501 266.81067 428.10548 266.16016 C 428.51702 265.55231 428.71264 264.86347 428.69337 264.09571 C 428.67517 263.3706 428.36107 262.73873 427.75001 262.19922 C 427.14001 261.70238 426.44941 261.46315 425.68165 261.48243 C 424.18879 261.5199 422.82378 262.38644 421.58595 264.08204 C 420.34811 265.77763 419.75771 267.75696 419.81446 270.01758 C 419.92796 274.53883 421.94999 278.58445 425.88087 282.15626 C 429.76909 285.72914 433.80437 287.46431 437.98438 287.35938 L 446.94337 287.26172 C 450.91012 287.16214 455.11851 287.33422 459.56837 287.77735 C 461.62215 287.98187 463.20353 288.07081 464.31251 288.04297 C 465.46415 288.01406 466.35353 287.73494 466.98048 287.20704 C 467.65008 286.67807 467.97543 286.00768 467.95509 285.19727 C 467.93474 284.38686 467.55456 283.69223 466.81446 283.11329 C 466.11809 282.57593 465.19462 282.32266 464.04298 282.35157 L 449.65821 283.16016 C 447.78147 283.20727 446.19007 282.7357 444.88477 281.74415 C 443.6232 280.79417 442.97146 279.4877 442.9297 277.82422 C 442.88794 276.16075 443.38957 274.90945 444.43556 274.07227 C 445.52527 273.27667 447.10928 272.61736 449.18751 272.09571 L 462.49024 268.94532 C 463.76342 268.65728 464.84068 268.26707 465.72462 267.7754 C 466.3132 267.41918 466.75139 266.98223 467.03712 266.4629 C 467.32284 265.94356 467.4559 265.27917 467.43556 264.46876 C 467.41521 263.65834 467.07491 262.9203 466.41798 262.25391 C 465.8037 261.58645 465.00642 261.26444 464.0254 261.28907 z M 274.11133 274.25196 C 273.86231 274.17519 267.741 291.92043 260.50782 313.68555 L 247.35547 353.25782 L 260.38477 392.34571 C 267.55034 413.84401 273.5291 431.74236 273.67188 432.11915 C 273.82534 432.52409 274.09822 432.62342 274.33985 432.36134 C 274.56467 432.11749 280.62908 414.23925 287.81641 392.63282 L 300.88477 353.34766 L 287.72462 313.86915 C 280.4863 292.156 274.36035 274.32876 274.11133 274.25196 z M 251.04297 327.0918 C 250.92321 326.73253 245.00975 334.60681 234.3086 349.37501 C 232.91333 351.30055 231.84329 353.16203 231.92969 353.51368 C 232.01604 353.86533 236.3293 359.95995 241.51368 367.05665 C 246.69806 374.15337 250.99591 379.68602 251.06641 379.35157 C 251.13696 379.01711 249.26978 372.97904 246.91602 365.9336 L 242.63672 353.12501 L 246.91016 340.32032 C 249.26077 333.27765 251.12047 327.32416 251.04297 327.0918 z M 297.21876 327.15626 C 297.13429 327.40966 298.92319 333.20201 301.19337 340.0293 C 303.46355 346.85659 305.32032 352.81842 305.32032 353.27735 C 305.32032 353.73627 303.47081 359.65013 301.21094 366.41798 C 298.95109 373.18584 297.10352 379.03547 297.10352 379.41798 C 297.10352 379.61696 297.04489 379.84576 297.08399 379.9043 C 297.08472 379.90521 297.08906 379.90741 297.08985 379.90821 L 297.0918 379.91016 C 297.09272 379.91075 297.09668 379.91359 297.09766 379.91407 C 297.09976 379.91481 297.10506 379.9177 297.10743 379.91798 C 297.34445 379.92222 298.86191 377.80491 306.97657 366.72266 C 312.20733 359.579 316.4217 353.43422 316.3418 353.06837 C 316.11145 352.0129 297.38945 326.6442 297.21876 327.15626 z M 34.796876 351.35938 C 29.632007 355.27025 20.546788 352.35433 19.470704 363.38282 L 15.611328 358.50782 L 15.611328 420.67579 C 15.611328 459.21754 42.295846 455.36939 45.361329 454.47462 L 46.490235 458.49806 C 48.934817 468.35632 43.321795 459.40506 37.333985 460.72852 C 42.641232 481.56108 49.135594 474.88208 56.833986 482.81642 L 48.126954 450.84767 L 65.021486 434.22266 C 65.021486 434.22266 59.457679 435.87515 55.32422 435.76173 C 49.368881 435.59821 41.199191 440.58876 43.777345 448.56056 C 34.559931 451.88644 27.996002 448.71484 27.404297 439.60548 L 27.404297 381.03516 C 27.404297 378.31425 29.662709 379.28783 31.773438 375.22071 C 33.071503 372.7197 32.753907 368.38282 32.753907 368.38282 C 30.394948 370.55993 26.933368 370.96023 27.498047 375.33009 L 25.083985 372.32423 L 25.083985 440.16798 C 25.083985 440.16798 21.271485 438.09579 21.271485 421.38673 L 21.271485 395.9961 C 21.271485 380.00724 19.396024 384.15304 19.84961 375.91212 C 20.178958 369.92799 26.486248 365.5958 30.800782 361.28126 C 33.910407 358.17164 34.796876 351.35938 34.796876 351.35938 z M 509.67579 351.35938 C 509.67579 351.35938 510.56226 358.17164 513.67189 361.28126 C 517.98642 365.5958 524.29383 369.92994 524.62306 375.91407 C 525.07661 384.15499 523.20118 380.00724 523.20118 395.9961 L 523.20118 421.38868 C 523.20118 438.09774 519.38868 440.16798 519.38868 440.16798 L 519.38868 372.32423 L 516.97462 375.33009 C 517.53929 370.96024 514.07772 370.55993 511.71876 368.38282 C 511.71876 368.38282 511.40125 372.71971 512.69923 375.22071 C 514.80996 379.28784 517.06837 378.31427 517.06837 381.03516 L 517.06837 439.60548 C 516.47666 448.71488 509.91273 451.88644 500.69532 448.56056 C 503.27347 440.58876 495.10379 435.59834 489.14845 435.76173 C 485.01499 435.87523 479.45118 434.22266 479.45118 434.22266 L 496.34571 450.84767 L 487.63868 482.81642 C 495.33712 474.88208 501.83139 481.56108 507.13868 460.72852 C 501.15083 459.40506 495.53781 468.35632 497.98243 458.49806 L 499.11134 454.47462 C 502.17686 455.36939 528.86134 459.21754 528.86134 420.67579 L 528.86134 358.50782 L 525.00196 363.38282 C 523.92592 352.35433 514.84071 355.27025 509.67579 351.35938 z M 468.59571 428.39063 C 468.55885 428.39063 468.52324 428.39154 468.48634 428.39454 C 468.45394 428.39454 468.42138 428.39545 468.38868 428.39845 C 468.37638 428.40245 468.36387 428.40326 468.35157 428.40626 C 468.30207 428.41436 468.25339 428.42716 468.20509 428.43946 L 468.18165 428.44337 L 437.70118 436.60938 C 437.44387 436.67777 437.20791 436.8136 437.01954 437.00196 C 436.83119 437.19028 436.69771 437.42644 436.62891 437.6836 L 428.4629 468.16212 L 428.45899 468.18751 C 428.44269 468.23622 428.43379 468.28449 428.42579 468.33399 C 428.42179 468.34629 428.42098 468.3588 428.41798 468.3711 C 428.41698 468.403 428.41507 468.43606 428.41407 468.46876 C 428.41307 468.50561 428.41116 468.54123 428.41016 468.57813 C 428.41016 468.6461 428.41388 468.71406 428.42188 468.78126 C 428.43008 468.84554 428.44259 468.90851 428.45899 468.97071 L 428.45899 468.97267 L 428.45899 468.97462 L 428.46095 468.97657 C 428.46495 468.99737 428.47248 469.01867 428.48048 469.03907 C 428.49408 469.08417 428.51095 469.12808 428.52735 469.17188 C 428.53965 469.19488 428.55216 469.21984 428.56446 469.24024 C 428.58366 469.27704 428.6007 469.31077 428.6211 469.34767 C 428.6387 469.37307 428.65353 469.39924 428.66993 469.42384 C 428.69003 469.45534 428.71398 469.48693 428.73438 469.51563 C 428.75738 469.54313 428.78205 469.57111 428.80665 469.59571 C 428.82025 469.61291 428.83517 469.634 428.85157 469.6504 L 428.88868 469.68556 L 451.18165 491.97853 C 451.46829 492.26505 451.85332 492.42284 452.24806 492.42384 C 452.37991 492.42424 452.51196 492.408 452.64259 492.3711 L 483.11524 484.20704 L 483.11915 484.20704 L 483.12306 484.20509 L 483.14454 484.20118 C 483.16534 484.19718 483.18469 484.18965 483.20509 484.18165 C 483.2461 484.16775 483.28713 484.15508 483.32813 484.13868 L 483.33204 484.13868 C 483.38814 484.11488 483.4428 484.08535 483.4961 484.05665 C 483.53127 484.03575 483.56497 484.01484 483.59767 483.99024 C 483.62267 483.97264 483.64728 483.95586 483.67188 483.93946 C 483.72382 483.89977 483.77362 483.85686 483.82032 483.81056 C 483.86652 483.76387 483.90823 483.71462 483.94923 483.66212 C 483.96683 483.63832 483.98361 483.6125 484.00001 483.5879 C 484.02381 483.55473 484.04602 483.52314 484.06642 483.48634 C 484.09682 483.43351 484.12385 483.37878 484.14845 483.32228 L 484.14845 483.31837 C 484.16645 483.27865 484.17912 483.23672 484.19142 483.19532 C 484.19952 483.17492 484.20295 483.15518 484.21095 483.13478 L 484.21485 483.11329 L 484.21681 483.10938 L 484.21681 483.10548 L 492.38087 452.63282 C 492.52025 452.11064 492.37033 451.55392 491.98829 451.17188 L 469.69727 428.87891 L 469.66017 428.84181 C 469.64287 428.82421 469.62188 428.81328 469.60548 428.79688 C 469.57968 428.77188 469.5541 428.74922 469.5254 428.72462 C 469.4954 428.70222 469.4663 428.68056 469.4336 428.66016 C 469.409 428.64256 469.38203 428.62774 469.35743 428.61134 C 469.32223 428.59214 469.28691 428.5711 469.25001 428.5547 C 469.22781 428.5425 469.20625 428.52989 469.18165 428.51759 C 469.13777 428.49999 469.09384 428.48301 469.04884 428.47071 C 469.02844 428.46261 469.00674 428.45918 468.98634 428.45118 L 468.98438 428.44923 L 468.98243 428.44923 L 468.98048 428.44923 C 468.91824 428.43273 468.85492 428.42012 468.79102 428.41212 C 468.72346 428.40282 468.6559 428.39969 468.5879 428.4004 L 468.59571 428.39063 z M 75.884767 428.4004 L 75.884767 428.40626 C 75.816793 428.40626 75.748802 428.41193 75.681642 428.41993 C 75.617353 428.42813 75.552476 428.44064 75.490236 428.45704 L 75.488283 428.45704 L 75.48633 428.45704 L 75.484376 428.45899 C 75.463486 428.46299 75.4443 428.47052 75.42383 428.47852 C 75.378778 428.49212 75.332874 428.509 75.289064 428.5254 C 75.266534 428.5376 75.243128 428.55021 75.222658 428.56251 C 75.185804 428.58171 75.150143 428.5968 75.113283 428.6172 C 75.087903 428.6348 75.063634 428.65158 75.039064 428.66798 C 75.007534 428.68798 74.973974 428.71203 74.945314 428.73243 C 74.917874 428.75543 74.891759 428.7801 74.867189 428.8047 C 74.849989 428.8183 74.828881 428.83322 74.812501 428.84962 L 74.779298 428.88673 L 52.486329 451.1797 C 52.102243 451.56188 51.956478 452.11845 52.095704 452.64063 L 60.259767 483.11329 C 60.259726 483.11429 60.259726 483.11622 60.259767 483.1172 L 60.26172 483.1211 L 60.265626 483.14259 C 60.273816 483.16339 60.276957 483.18273 60.285157 483.20313 C 60.299077 483.24405 60.311746 483.28323 60.328126 483.32423 L 60.328126 483.32813 C 60.351866 483.38423 60.381497 483.44085 60.410157 483.49415 C 60.431047 483.52932 60.451994 483.56301 60.476564 483.59571 C 60.494174 483.62071 60.510965 483.64533 60.527345 483.66993 C 60.567062 483.72187 60.609981 483.77167 60.656251 483.81837 C 60.702933 483.86456 60.752279 483.90628 60.804689 483.94728 C 60.828449 483.96488 60.854337 483.98166 60.878907 483.99806 C 60.912078 484.02186 60.94361 484.04406 60.98047 484.06446 C 61.033293 484.09476 61.088022 484.12189 61.144532 484.14649 L 61.148439 484.14649 C 61.188157 484.16039 61.230536 484.17716 61.271486 484.18946 C 61.291956 484.19756 61.311562 484.20099 61.332032 484.20899 L 61.353517 484.2129 L 61.357423 484.21485 L 61.361329 484.21485 L 91.832033 492.37892 C 91.962659 492.41462 92.095119 492.43206 92.226564 492.43165 C 92.621388 492.43067 93.008285 492.27298 93.294924 491.98634 L 115.58789 469.69337 L 115.62305 469.65626 C 115.64065 469.63906 115.65352 469.61992 115.66992 469.60352 C 115.69492 469.57772 115.71759 469.55215 115.74219 469.52345 C 115.76459 469.49355 115.78624 469.46435 115.80664 469.43165 C 115.82434 469.40705 115.83907 469.38008 115.85547 469.35548 C 115.87467 469.32028 115.89571 469.28496 115.91211 469.24806 C 115.92441 469.22586 115.93301 469.2043 115.94531 469.1797 C 115.96291 469.1359 115.97989 469.09188 115.99219 469.04688 C 116.00039 469.02648 116.00372 469.00478 116.01172 468.98438 L 116.01367 468.98243 L 116.01367 468.98048 L 116.01367 468.97852 C 116.03427 468.91628 116.04669 468.85287 116.05469 468.78907 C 116.06399 468.7215 116.0671 468.65395 116.06641 468.58595 C 116.06641 468.5491 116.0655 468.51347 116.0625 468.47657 C 116.0625 468.44407 116.0616 468.41162 116.0586 468.37892 C 116.0546 468.36662 116.05378 468.35411 116.05078 468.34181 C 116.04668 468.2923 116.03379 468.24362 116.02149 468.19532 L 116.01758 468.16993 L 107.85156 437.69141 C 107.78277 437.43404 107.64929 437.20008 107.46094 437.01173 C 107.27261 436.82336 107.03645 436.68795 106.7793 436.61915 L 76.29883 428.45313 L 76.275392 428.44923 C 76.227067 428.43293 76.178448 428.42402 76.128908 428.41602 C 76.116618 428.41202 76.104088 428.41121 76.091798 428.40821 C 76.059858 428.40721 76.026902 428.40529 75.994142 428.40431 C 75.9577 428.40331 75.921627 428.40138 75.884767 428.4004 z M 76.556642 432.42579 L 93.875002 446.66017 L 68.679689 453.41212 L 76.556642 432.42579 z M 467.91602 432.42579 L 475.79298 453.41212 L 450.59767 446.66017 L 467.91602 432.42579 z M 82.250002 433.18556 L 103.46094 438.86915 L 97.011721 445.32032 L 82.250002 433.18556 z M 462.22267 433.18556 L 447.46095 445.32032 L 441.01173 438.86915 L 462.22267 433.18556 z M 72.005861 435.9336 L 65.291017 453.82032 L 56.48047 451.45704 L 72.005861 435.9336 z M 472.46681 435.9336 L 487.9922 451.45704 L 479.18165 453.82032 L 472.46681 435.9336 z M 105.60352 441.01173 L 111.28711 462.22071 L 99.152346 447.46095 L 105.60352 441.01173 z M 438.86915 441.01173 L 445.32032 447.46095 L 433.18556 462.22071 L 438.86915 441.01173 z M 94.968752 449.50392 L 88.050783 475.32032 L 78.601564 465.8711 L 69.152345 456.42188 L 94.968752 449.50392 z M 449.50392 449.50392 L 475.32032 456.42188 L 465.8711 465.8711 L 456.42188 475.32032 L 449.50392 449.50392 z M 97.812502 450.59767 L 112.04688 467.91602 L 91.060549 475.79298 L 97.812502 450.59767 z M 446.66017 450.59767 L 453.41212 475.79298 L 432.42579 467.91602 L 446.66017 450.59767 z M 55.697267 454.38282 L 64.507814 456.74415 L 61.380861 475.59376 L 55.697267 454.38282 z M 488.7754 454.38282 L 483.09181 475.59376 L 479.96485 456.74415 L 488.7754 454.38282 z M 67.238283 458.79102 L 76.460939 468.01173 L 85.681642 477.23438 L 63.568361 480.90431 L 67.238283 458.79102 z M 477.23438 458.79102 L 480.90431 480.90431 L 458.79102 477.23438 L 468.01173 468.01173 L 477.23438 458.79102 z M 108.53906 472.46681 L 93.015627 487.9922 L 90.652346 479.18165 L 108.53906 472.46681 z M 435.9336 472.46681 L 453.82032 479.18165 L 451.45899 487.9922 L 435.9336 472.46681 z M 110.25 479.45118 L 93.625002 496.34571 L 61.656251 487.63868 C 69.590587 495.33712 62.911534 501.83139 83.744142 507.13868 C 85.067554 501.15083 76.116352 495.53785 85.974611 497.98243 L 89.998049 499.11134 C 89.103285 502.17686 85.255134 528.85939 123.79688 528.85939 L 185.96485 528.85939 L 181.08985 525.00196 C 192.11833 523.92592 189.20247 514.84071 193.11329 509.67579 C 193.11329 509.67579 186.30104 510.56226 183.19141 513.67189 C 178.87688 517.98642 174.54467 524.29384 168.56055 524.62306 C 160.31964 525.07661 164.46543 523.20118 148.47657 523.20118 L 123.08594 523.20118 C 106.37688 523.20118 104.30469 519.38673 104.30469 519.38673 L 172.14844 519.38673 L 169.14258 516.97462 C 173.51239 517.53929 173.91279 514.07772 176.08985 511.71876 C 176.08985 511.71876 171.75297 511.40124 169.25196 512.69923 C 165.18484 514.80996 166.1584 517.06837 163.4375 517.06837 L 104.86719 517.06837 C 95.757801 516.47665 92.586278 509.91273 95.912111 500.69532 C 103.88392 503.27347 108.87432 495.10379 108.71094 489.14845 C 108.59742 485.01499 110.25 479.45118 110.25 479.45118 z M 434.22266 479.45118 C 434.22266 479.45118 435.87515 485.01499 435.76173 489.14845 C 435.59822 495.10379 440.58876 503.27347 448.56056 500.69532 C 451.88644 509.91273 448.71484 516.47665 439.60548 517.06837 L 381.03516 517.06837 C 378.31426 517.06837 379.28783 514.80996 375.22071 512.69923 C 372.71971 511.40116 368.38282 511.71876 368.38282 511.71876 C 370.55993 514.07772 370.96023 517.53929 375.33009 516.97462 L 372.32423 519.38673 L 440.16798 519.38673 C 440.16798 519.38673 438.09579 523.20118 421.38673 523.20118 L 395.9961 523.20118 C 380.00724 523.20118 384.15304 525.07661 375.91212 524.62306 C 369.92799 524.29368 365.5958 517.98642 361.28126 513.67189 C 358.17164 510.56226 351.35938 509.67579 351.35938 509.67579 C 355.27025 514.84071 352.35434 523.92592 363.38282 525.00196 L 358.50782 528.85939 L 420.67579 528.85939 C 459.21754 528.85939 455.36939 502.17686 454.47462 499.11134 L 458.49806 497.98243 C 468.35632 495.53785 459.40506 501.15083 460.72852 507.13868 C 481.56108 501.83139 474.88208 495.33712 482.81642 487.63868 L 450.84767 496.34571 L 434.22266 479.45118 z M 87.728517 479.96485 L 90.089846 488.7754 L 68.878908 483.09181 L 87.728517 479.96485 z M 456.74415 479.96485 L 475.59376 483.09181 L 454.38282 488.7754 L 456.74415 479.96485 z " /></svg>
