<?xml version="1.0" encoding="UTF-8" standalone="no"?>
<svg
   viewBox="0 0 548.0315 548.03151"
   width="145mm"
   height="145mm"
   version="1.1"
   id="svg65"
   sodipodi:docname="warlock lid.svg"
   inkscape:version="1.4.2 (f4327f4, 2025-05-13)"
   xml:space="preserve"
   xmlns:inkscape="http://www.inkscape.org/namespaces/inkscape"
   xmlns:sodipodi="http://sodipodi.sourceforge.net/DTD/sodipodi-0.dtd"
   xmlns="http://www.w3.org/2000/svg"
   xmlns:svg="http://www.w3.org/2000/svg"><sodipodi:namedview
     id="namedview65"
     pagecolor="#ffffff"
     bordercolor="#666666"
     borderopacity="1.0"
     inkscape:showpageshadow="2"
     inkscape:pageopacity="0.0"
     inkscape:pagecheckerboard="0"
     inkscape:deskcolor="#d1d1d1"
     inkscape:zoom="1.4205836"
     inkscape:cx="432.5687"
     inkscape:cy="234.05873"
     inkscape:window-width="1920"
     inkscape:window-height="1057"
     inkscape:window-x="1912"
     inkscape:window-y="-8"
     inkscape:window-maximized="1"
     inkscape:current-layer="svg65"
     inkscape:document-units="mm" /><desc
     id="desc1">outline.dxf - scale = 1.000000, origin = (0.000000, 0.000000), method = manual</desc><defs
     id="defs4"><marker
       id="DistanceX"
       orient="auto"
       refX="0"
       refY="0"
       style="overflow:visible"><path
         d="M 3,-3 -3,3 M 0,-5 V 5"
         style="stroke:#000000;stroke-width:0.5"
         id="path1" /></marker><pattern
       id="Hatch"
       patternUnits="userSpaceOnUse"
       width="8"
       height="8"
       x="0"
       y="0"><path
         d="M8 4 l-4,4"
         stroke="#000000"
         stroke-width="0.25"
         linecap="square"
         id="path2" /><path
         d="M6 2 l-4,4"
         stroke="#000000"
         stroke-width="0.25"
         linecap="square"
         id="path3" /><path
         d="M4 0 l-4,4"
         stroke="#000000"
         stroke-width="0.25"
         linecap="square"
         id="path4" /></pattern><symbol
       id="*MODEL_SPACE" /><symbol
       id="*PAPER_SPACE" /></defs><path
     id="outline"
     style="display:inline;opacity:1;fill:#000000;fill-opacity:1;stroke:none;stroke-width:1;stroke-linecap:round;stroke-dasharray:none;stroke-opacity:1;paint-order:fill markers stroke"
     inkscape:label="outline"
     d="M -25.984376 -25.984376 L -25.984376 574.01564 L 574.01564 574.01564 L 574.01564 -25.984376 L -25.984376 -25.984376 z M 120.47852 0.49414063 L 427.55274 0.49414063 C 444.66376 0.49413963 461.07452 7.2913084 473.17384 19.390625 L 528.63673 74.851564 L 528.63673 74.853517 C 540.73605 86.952837 547.53321 103.36164 547.53321 120.47266 L 547.53321 427.55079 C 547.53321 444.66181 540.73605 461.07256 528.63673 473.17188 L 473.17384 528.63868 C 461.07451 540.73797 444.66375 547.53519 427.55274 547.53517 L 120.47852 547.53517 L 120.47852 547.53126 C 103.36799 547.53129 86.958606 540.73343 74.859376 528.63478 L 74.857423 528.63478 L 19.394532 473.16993 C 7.2963196 461.07117 0.49856488 444.66257 0.49804688 427.55274 L 0.49804688 120.47461 C 0.49804588 103.36359 7.2952146 86.952837 19.394532 74.853517 L 74.857423 19.392579 L 74.857423 19.390625 C 86.956743 7.2913084 103.3675 0.49413963 120.47852 0.49414063 z M 123.79688 15.613282 C 85.255134 15.613282 89.103285 42.295846 89.998049 45.361329 L 85.974611 46.490235 C 76.116352 48.934818 85.067554 43.323749 83.744142 37.335938 C 62.911534 42.643185 69.590587 49.135594 61.656251 56.833986 L 93.625002 48.126954 L 110.25 65.021486 C 110.25 65.021486 108.59751 59.45768 108.71094 55.32422 C 108.87448 49.368881 103.88392 41.199189 95.912111 43.777345 C 92.586278 34.559929 95.757882 27.996002 104.86719 27.404297 L 163.4375 27.404297 C 166.1584 27.404297 165.18484 29.662709 169.25196 31.773438 C 171.75297 33.071504 176.08985 32.753907 176.08985 32.753907 C 173.91279 30.394949 173.51239 26.933368 169.14258 27.498047 L 172.14844 25.085938 L 104.30469 25.085938 C 104.30469 25.085938 106.37688 21.271485 123.08594 21.271485 L 148.47657 21.271485 C 164.46543 21.271485 160.31964 19.396025 168.56055 19.84961 C 174.54467 20.178959 178.87688 26.486248 183.19141 30.800782 C 186.30104 33.910408 193.11329 34.796876 193.11329 34.796876 C 189.20247 29.632006 192.11833 20.546788 181.08985 19.470704 L 185.96485 15.613282 L 123.79688 15.613282 z M 358.50782 15.613282 L 363.38282 19.470704 C 352.35434 20.546788 355.27025 29.632006 351.35938 34.796876 C 351.35938 34.796876 358.17164 33.910408 361.28126 30.800782 C 365.5958 26.486248 369.92799 20.178835 375.91212 19.84961 C 384.15304 19.396065 380.00724 21.271485 395.9961 21.271485 L 421.38673 21.271485 C 438.09579 21.271485 440.16798 25.085938 440.16798 25.085938 L 372.32423 25.085938 L 375.33009 27.498047 C 370.96023 26.933368 370.55993 30.394949 368.38282 32.753907 C 368.38282 32.753907 372.71971 33.071422 375.22071 31.773438 C 379.28783 29.662709 378.31426 27.404297 381.03516 27.404297 L 439.60548 27.404297 C 448.71488 27.996002 451.88644 34.559929 448.56056 43.777345 C 440.58876 41.199189 435.59834 49.368881 435.76173 55.32422 C 435.87523 59.45768 434.22266 65.021486 434.22266 65.021486 L 450.84767 48.126954 L 482.81642 56.833986 C 474.88208 49.135594 481.56108 42.643185 460.72852 37.335938 C 459.40506 43.323749 468.35632 48.934818 458.49806 46.490235 L 454.47462 45.361329 C 455.36939 42.295846 459.21754 15.613282 420.67579 15.613282 L 358.50782 15.613282 z M 452.2422 52.033204 C 451.84738 52.034391 451.46243 52.191877 451.17579 52.478517 L 428.88282 74.771486 L 428.84571 74.808595 C 428.82811 74.825795 428.81524 74.84086 428.79884 74.86133 C 428.77384 74.88713 428.75312 74.912738 428.72852 74.941408 C 428.70612 74.971288 428.68447 75.000445 428.66407 75.033205 C 428.64637 75.057775 428.62969 75.084806 428.61329 75.109376 C 428.59409 75.14459 428.57305 75.179938 428.55665 75.216798 C 428.54435 75.238908 428.53379 75.260588 428.52149 75.285158 C 428.50389 75.32897 428.48692 75.37293 428.47462 75.41797 C 428.46652 75.43844 428.46113 75.46 428.45313 75.48047 L 428.45118 75.482423 L 428.45118 75.484376 L 428.45118 75.48633 C 428.43478 75.548572 428.42207 75.611903 428.41407 75.675783 C 428.40477 75.743349 428.40165 75.810938 428.40235 75.878908 C 428.40235 75.915759 428.40326 75.951423 428.40626 75.988283 C 428.40626 76.020643 428.40716 76.053179 428.41016 76.085939 C 428.41416 76.098229 428.41498 76.110768 428.41798 76.123048 C 428.42608 76.172603 428.43888 76.221213 428.45118 76.269533 L 428.45509 76.294923 L 436.61524 106.77344 C 436.68404 107.03081 436.8175 107.26673 437.00587 107.45508 C 437.1942 107.64345 437.43036 107.77886 437.68751 107.84766 L 468.16798 116.01367 L 468.19142 116.01758 C 468.23972 116.02988 468.2883 116.03692 468.3379 116.04492 C 468.3502 116.04892 468.36271 116.04974 468.37501 116.05274 C 468.40691 116.05374 468.43997 116.05762 468.47267 116.0586 C 468.50913 116.0596 468.54514 116.06152 468.58204 116.0625 C 468.65001 116.0625 468.71797 116.05683 468.78517 116.04883 C 468.84906 116.04063 468.91242 116.02812 468.97462 116.01172 L 468.97657 116.01172 L 468.97852 116.01172 L 468.98048 116.00977 C 469.00128 116.00577 469.02258 115.99824 469.04298 115.99024 C 469.08807 115.97664 469.13199 115.95976 469.17579 115.94336 C 469.19879 115.93526 469.22375 115.92246 469.24415 115.91016 C 469.28096 115.89506 469.31477 115.87587 469.35157 115.85547 C 469.37697 115.83787 469.40314 115.82109 469.42774 115.80469 C 469.45924 115.78469 469.49084 115.76484 469.51954 115.74024 C 469.54704 115.71724 469.57502 115.69452 469.59962 115.66992 C 469.61682 115.65632 469.63791 115.63945 469.65431 115.62305 L 469.68556 115.58594 L 491.97853 93.292971 C 492.36282 92.910799 492.51031 92.354208 492.3711 91.832033 L 484.20704 61.359376 L 484.20704 61.35547 L 484.20509 61.351564 L 484.20118 61.332032 C 484.19718 61.311152 484.18965 61.290002 484.18165 61.269532 C 484.16775 61.228584 484.15508 61.189379 484.13868 61.148439 L 484.13868 61.144532 C 484.11488 61.088433 484.08535 61.0337 484.05665 60.98047 C 484.03575 60.945669 484.01484 60.909714 483.99024 60.876954 C 483.97254 60.852384 483.95586 60.829259 483.93946 60.804689 C 483.89976 60.752686 483.85686 60.700978 483.81056 60.654298 C 483.76388 60.608031 483.71462 60.566342 483.66212 60.525392 C 483.63842 60.507782 483.6125 60.490991 483.5879 60.474611 C 483.55473 60.450851 483.52324 60.428674 483.48634 60.408204 C 483.43311 60.377894 483.37878 60.350743 483.32228 60.326173 L 483.31642 60.326173 C 483.2767 60.308163 483.23632 60.297437 483.19532 60.285157 C 483.17492 60.276977 483.15518 60.271873 483.13478 60.263673 L 483.11329 60.259767 L 483.10938 60.257814 L 483.10548 60.257814 L 452.63282 52.093751 C 452.5022 52.058131 452.36973 52.040648 452.23829 52.041017 L 452.2422 52.033204 z M 92.226564 52.041017 C 92.09471 52.040607 91.962659 52.060991 91.832033 52.093751 L 61.361329 60.257814 L 61.357423 60.257814 L 61.351564 60.259767 L 61.332032 60.263673 C 61.311142 60.267763 61.290002 60.275004 61.269532 60.283204 C 61.228585 60.297134 61.189389 60.309793 61.148439 60.326173 L 61.144532 60.326173 C 61.088432 60.349923 61.0337 60.379534 60.98047 60.408204 C 60.945669 60.429504 60.909714 60.450041 60.876954 60.474611 C 60.852384 60.492221 60.829259 60.509022 60.804689 60.525392 C 60.752686 60.565109 60.702931 60.608028 60.656251 60.654298 C 60.609984 60.70098 60.568285 60.750326 60.527345 60.802736 C 60.509735 60.826496 60.492934 60.852384 60.476564 60.876954 C 60.452804 60.910125 60.428674 60.941657 60.408204 60.978517 C 60.377894 61.03134 60.352696 61.086479 60.328126 61.142579 L 60.328126 61.146486 C 60.314206 61.186203 60.297447 61.228172 60.285157 61.269532 C 60.276977 61.290002 60.271873 61.309609 60.263673 61.330079 L 60.259767 61.351564 L 60.257814 61.35547 L 60.257814 61.359376 L 52.093751 91.832033 C 51.954403 92.354208 52.10428 92.910922 52.486329 93.292971 L 74.779298 115.58594 L 74.812501 115.62305 C 74.829691 115.64065 74.846719 115.65157 74.867189 115.66797 C 74.892989 115.69297 74.916654 115.71564 74.945314 115.74024 C 74.975204 115.76274 75.006304 115.78429 75.039064 115.80469 C 75.063634 115.82229 75.088713 115.83712 75.113283 115.85352 C 75.148497 115.87272 75.185798 115.89376 75.222658 115.91016 C 75.244768 115.92246 75.264494 115.93106 75.289064 115.94336 C 75.332877 115.96086 75.376836 115.97794 75.421876 115.99024 C 75.442346 115.99834 75.463906 116.00177 75.484376 116.00977 L 75.48633 116.01172 L 75.488283 116.01172 L 75.490236 116.01172 C 75.552478 116.03232 75.615809 116.04474 75.679689 116.05274 C 75.747254 116.06204 75.814844 116.06515 75.882814 116.06446 C 75.919665 116.06446 75.955339 116.06355 75.992189 116.06055 C 76.024549 116.06055 76.057085 116.05964 76.089845 116.05664 C 76.102135 116.05264 76.114665 116.05183 76.126955 116.04883 C 76.1765 116.04473 76.225129 116.03183 76.273439 116.01953 L 76.29883 116.01563 L 106.77735 107.85156 C 107.03466 107.78277 107.27063 107.64735 107.45899 107.45899 C 107.64736 107.27066 107.78081 107.0345 107.84961 106.77735 L 116.01563 76.29883 L 116.01953 76.273439 C 116.03183 76.224704 116.04083 76.176505 116.04883 76.126955 C 116.05283 76.114665 116.05364 76.102135 116.05664 76.089845 C 116.05764 76.057905 116.05956 76.024949 116.06055 75.992189 C 116.06555 75.955748 116.06738 75.919674 116.06836 75.882814 C 116.06836 75.814839 116.06464 75.746849 116.05664 75.679689 C 116.04844 75.615399 116.03593 75.552476 116.01953 75.490236 L 116.01953 75.488283 L 116.01953 75.48633 L 116.01758 75.484376 C 116.01358 75.463496 116.00605 75.442346 115.99805 75.421876 C 115.98445 75.376824 115.96757 75.332874 115.95117 75.289064 C 115.94307 75.266134 115.93027 75.241175 115.91797 75.220705 C 115.89877 75.183851 115.88368 75.150143 115.86328 75.113283 C 115.84568 75.087903 115.8289 75.061681 115.8125 75.037111 C 115.7925 75.005581 115.76845 74.973984 115.74805 74.945314 C 115.72505 74.917874 115.70038 74.889806 115.67578 74.865236 C 115.66218 74.848036 115.64726 74.828881 115.63086 74.812501 L 115.59375 74.779298 L 93.300783 52.486329 C 93.014144 52.199812 92.62912 52.042217 92.234377 52.041017 L 92.226564 52.041017 z M 90.089846 55.697267 L 87.728517 64.507814 L 68.878908 61.380861 L 90.089846 55.697267 z M 454.38282 55.697267 L 475.59376 61.380861 L 456.74415 64.507814 L 454.38282 55.697267 z M 93.015627 56.48047 L 108.53906 72.005861 L 90.652346 65.291017 L 93.015627 56.48047 z M 451.45899 56.48047 L 453.82032 65.291017 L 435.9336 72.005861 L 451.45899 56.48047 z M 56.833986 61.656251 C 49.135594 69.590587 42.641232 62.911575 37.333985 83.744142 C 43.321795 85.067556 48.934817 76.116352 46.490235 85.974611 L 45.361329 89.998049 C 42.295846 89.103284 15.611328 85.255126 15.611328 123.79688 L 15.611328 185.96485 L 19.470704 181.08985 C 20.546788 192.11833 29.632007 189.20247 34.796876 193.11329 C 34.796876 193.11329 33.910407 186.30105 30.800782 183.19141 C 26.486248 178.87689 20.178836 174.54469 19.84961 168.56055 C 19.396066 160.31964 21.271485 164.46543 21.271485 148.47657 L 21.271485 123.08594 C 21.271485 106.37689 25.083985 104.30469 25.083985 104.30469 L 25.083985 172.14844 L 27.498047 169.14258 C 26.933368 173.51239 30.394948 173.91278 32.753907 176.08985 C 32.753907 176.08985 33.071422 171.75297 31.773438 169.25196 C 29.662709 165.18484 27.404297 166.1584 27.404297 163.4375 L 27.404297 104.86719 C 27.996002 95.757793 34.559931 92.586278 43.777345 95.912111 C 41.199191 103.88391 49.368881 108.87432 55.32422 108.71094 C 59.457679 108.59743 65.021486 110.25 65.021486 110.25 L 48.126954 93.625002 L 56.833986 61.656251 z M 487.63868 61.656251 L 496.34571 93.625002 L 479.45118 110.25 C 479.45118 110.25 485.01499 108.59752 489.14845 108.71094 C 495.10379 108.87449 503.27347 103.88391 500.69532 95.912111 C 509.91273 92.586278 516.47666 95.757874 517.06837 104.86719 L 517.06837 163.4375 C 517.06837 166.1584 514.80996 165.18484 512.69923 169.25196 C 511.40116 171.75297 511.71876 176.08985 511.71876 176.08985 C 514.07772 173.91278 517.53929 173.51239 516.97462 169.14258 L 519.38868 172.14844 L 519.38868 104.30469 C 519.38868 104.30469 523.20118 106.37689 523.20118 123.08594 L 523.20118 148.47657 C 523.20118 164.46543 525.07661 160.31964 524.62306 168.56055 C 524.29367 174.54469 517.98642 178.87689 513.67189 183.19141 C 510.56226 186.30105 509.67579 193.11329 509.67579 193.11329 C 514.84071 189.20247 523.92592 192.11833 525.00196 181.08985 L 528.86134 185.96485 L 528.86134 123.79688 C 528.86134 85.255126 502.17686 89.103284 499.11134 89.998049 L 497.98243 85.974611 C 495.53781 76.116352 501.15083 85.067556 507.13868 83.744142 C 501.83139 62.911575 495.33712 69.590587 487.63868 61.656251 z M 63.568361 63.568361 L 85.681642 67.238283 L 76.460939 76.460939 L 67.238283 85.681642 L 63.568361 63.568361 z M 480.90431 63.568361 L 477.23438 85.681642 L 468.01173 76.460939 L 458.79102 67.238283 L 480.90431 63.568361 z M 91.060549 68.679689 L 112.04688 76.556642 L 97.812502 93.875002 L 91.060549 68.679689 z M 453.41212 68.679689 L 446.66017 93.875002 L 432.42579 76.556642 L 453.41212 68.679689 z M 61.380861 68.878908 L 64.507814 87.728517 L 55.697267 90.089846 L 61.380861 68.878908 z M 483.09181 68.878908 L 488.7754 90.089846 L 479.96485 87.728517 L 483.09181 68.878908 z M 88.050783 69.152345 L 94.968752 94.968752 L 69.152345 88.050783 L 78.601564 78.601564 L 88.050783 69.152345 z M 456.42188 69.152345 L 465.8711 78.601564 L 475.32032 88.050783 L 449.50392 94.968752 L 456.42188 69.152345 z M 304.08399 70.962892 C 302.68345 71.475603 301.36206 72.105776 300.11719 72.851564 C 295.92838 75.317802 293.47135 79.045644 292.74805 84.035158 L 287.23438 122.07422 L 292.49219 122.83594 L 296.22657 97.074221 L 302.90235 93.052736 C 304.1492 95.633307 304.57055 98.326837 304.16407 101.13086 L 302.82422 110.37696 C 301.95149 116.39736 297.76645 122.16981 290.27149 127.69336 L 293.65821 131.78321 C 302.19784 125.44274 307.00411 118.56109 308.08008 111.13867 L 309.42188 101.89258 C 310.12425 97.047391 308.50421 91.666427 304.56251 85.748049 L 297.2168 90.240236 L 298.03712 84.800783 C 298.39876 82.306026 299.4227 80.243994 301.11133 78.615236 C 302.03827 77.739155 303.66971 76.881789 306.00196 76.041017 L 304.08399 70.962892 z M 276.81055 77.183595 L 273.93165 86.781252 C 272.05674 86.762261 270.01788 87.532655 267.81446 89.093752 L 266.05274 90.326174 L 268.75977 94.603517 L 269.51563 93.98633 C 271.15363 92.711188 272.44146 92.078397 273.37891 92.087892 L 273.17774 111.80469 C 273.16613 112.95046 273.2608 114.02529 273.45899 115.02735 C 274.05378 118.01269 276.03819 120.59528 279.41211 122.77539 L 282.48633 118.46289 C 281.03841 117.42734 280.00832 116.35458 279.39454 115.24414 C 278.78075 114.1337 278.47435 112.53656 278.47461 110.45313 L 278.54102 103.73438 L 278.66016 92.140627 L 285.00196 92.20508 L 285.05665 86.89258 L 279.4629 86.835939 L 281.92188 78.61133 L 276.81055 77.183595 z M 111.28711 82.250002 L 105.60352 103.46094 L 99.152346 97.011721 L 111.28711 82.250002 z M 433.18556 82.250002 L 445.32032 97.011721 L 438.86915 103.46094 L 433.18556 82.250002 z M 258.97071 83.958986 L 254.11524 88.669924 C 253.15956 87.323359 251.51529 86.089229 249.17969 84.968752 L 246.7461 89.712892 C 249.16097 90.992745 250.45421 92.450742 250.62305 94.087892 L 253.61915 123.15235 L 258.9043 122.60742 L 256.08204 95.253908 L 259.08008 92.335939 C 260.20731 93.518205 261.20795 94.99763 262.08204 96.771486 L 266.49805 93.582033 C 264.48281 89.475437 261.97335 86.267301 258.97071 83.958986 z M 233.72071 87.777345 L 228.11524 94.542971 C 226.0565 96.99279 225.43712 99.972942 226.25782 103.48242 L 231.72266 126.85157 L 235.70313 127.81446 L 243.86329 118.10742 C 245.91728 115.63732 246.5958 112.91174 245.89844 109.92969 L 242.60352 95.841799 C 242.11489 93.752338 240.79095 91.888763 238.63282 90.253908 C 237.56864 89.454394 235.93121 88.629721 233.72071 87.777345 z M 344.24805 90.097658 L 338.2168 98.097658 C 336.46516 97.428813 334.28418 97.44373 331.67579 98.14258 L 329.59571 98.685549 L 330.64844 103.63867 L 331.57227 103.32227 C 333.55113 102.69524 334.9777 102.54839 335.85352 102.88281 L 328.82032 121.30469 C 328.41158 122.37514 328.12694 123.41335 327.96485 124.42188 C 327.48601 127.428 328.4485 130.53984 330.85548 133.75586 L 335.23829 130.7793 C 334.24004 129.30541 333.64509 127.94198 333.45508 126.6875 C 333.26508 125.43303 333.53217 123.82871 334.25587 121.875 L 336.65235 115.59766 L 340.78712 104.76563 L 346.71485 107.0293 L 348.60938 102.06641 L 343.38282 100.07031 L 348.54493 93.210939 L 344.24805 90.097658 z M 65.291017 90.652346 L 72.005861 108.53906 L 56.48047 93.013674 L 65.291017 90.652346 z M 479.18165 90.652346 L 487.9922 93.013674 L 472.46681 108.53906 L 479.18165 90.652346 z M 68.679689 91.060549 L 93.875002 97.812502 L 76.556642 112.04688 L 68.679689 91.060549 z M 475.79298 91.060549 L 467.91602 112.04688 L 450.59767 97.812502 L 475.79298 91.060549 z M 371.98438 93.734377 C 370.49295 93.728864 369.03576 93.859838 367.60938 94.126955 C 362.82484 94.985223 359.2253 97.628746 356.81446 102.05664 L 338.43555 135.81446 L 343.10157 138.35547 L 355.54884 115.49219 L 363.20704 114.04102 C 363.48023 116.89397 362.93884 119.56433 361.58399 122.05274 L 357.11524 130.25782 C 354.2063 135.60057 348.27862 139.56134 339.33204 142.13867 L 341.0879 147.15039 C 351.29781 144.16973 358.19489 139.38579 361.78126 132.79883 L 366.25001 124.5918 C 368.59111 120.29198 368.94019 114.68446 367.29884 107.76563 L 358.85157 109.42774 L 361.50782 104.61133 C 362.71324 102.39738 364.39189 100.81996 366.54102 99.878908 C 367.71449 99.379209 369.54046 99.140725 372.01954 99.162111 L 371.98438 93.734377 z M 235.25391 94.189455 C 236.43032 94.919933 237.1565 95.874194 237.43165 97.050783 L 240.72461 111.14063 C 241.05669 112.56065 240.77575 113.78044 239.88086 114.80274 L 235.53711 119.83008 L 231.43165 102.27344 C 231.02841 100.54913 231.27261 99.122614 232.16407 97.994143 L 235.25391 94.189455 z M 207.00586 95.638674 L 205.0293 100.63086 L 208.05079 102.00391 C 208.75341 102.31049 209.40507 102.62779 210.00391 102.95703 C 212.01993 104.03066 213.40657 105.45878 214.16407 107.24219 L 217.24414 114.28516 C 218.34639 116.8046 218.43928 118.93761 217.51954 120.68164 L 214.74024 126.02344 L 205.32032 104.49414 C 204.7859 103.2726 203.90111 102.26139 202.66407 101.46094 C 201.88629 100.98258 200.31737 100.36232 197.95899 99.597658 L 196.25782 104.67383 C 197.78236 105.14384 198.89395 105.57889 199.5918 105.97852 C 200.08089 106.26482 200.49368 106.76548 200.83008 107.48242 L 206.12696 119.59375 C 207.06935 121.95572 207.10673 123.96186 206.23829 125.61524 L 203.45899 130.95899 L 194.04102 109.42969 C 193.5066 108.20814 192.61986 107.19694 191.38282 106.39649 C 190.60504 105.91813 189.03808 105.29592 186.67969 104.53125 L 184.97657 109.60742 C 186.50111 110.07744 187.6127 110.51248 188.31055 110.91211 C 188.79964 111.19841 189.21243 111.70103 189.54883 112.41797 L 201.03516 138.67188 L 205.26758 139.37891 L 210.36133 129.26953 L 212.31446 133.73633 L 216.54688 134.44336 L 222.2793 123.06641 C 223.92076 119.80141 223.8649 116.16445 222.11133 112.15625 L 218.99219 105.02735 C 218.05696 102.88964 216.63978 101.07742 214.73829 99.589846 C 213.76129 98.812063 212.17315 97.937838 209.97461 96.966799 L 207.00586 95.638674 z M 97.011721 99.152346 L 103.46094 105.60352 L 82.250002 111.28711 L 97.011721 99.152346 z M 447.46095 99.152346 L 462.22267 111.28711 L 441.01173 105.60352 L 447.46095 99.152346 z M 381.91798 122.67969 C 379.70534 122.6131 377.59781 123.11842 375.59571 124.19727 C 374.40523 124.81622 373.11486 126.0761 371.72266 127.97461 L 363.51173 138.96485 C 360.29498 143.27103 360.54592 147.87952 364.26368 152.78907 L 374.95118 152.58008 L 375.06446 147.20508 L 367.02735 147.36524 C 366.224 145.62094 366.47091 143.88036 367.76759 142.14453 L 372.0879 136.36133 L 387.97462 136.29297 L 390.08204 122.92578 L 381.91798 122.67969 z M 155.25586 125.8711 L 154.74024 131.21485 L 158.02344 131.69727 C 158.7835 131.79722 159.49745 131.92179 160.16407 132.07227 C 162.3986 132.54542 164.12578 133.53333 165.34766 135.03711 L 172.73633 143.93164 L 171.42774 150.38086 C 171.14224 150.42841 170.81799 150.49337 170.45508 150.57813 L 169.36719 150.83203 L 156.08985 134.84571 C 155.23796 133.82001 154.10764 133.09442 152.69727 132.66797 C 151.81742 132.42379 150.13808 132.26113 147.66016 132.17969 L 147.43164 137.5293 C 148.20256 137.5119 148.85084 137.52729 149.37891 137.57617 C 150.81916 137.67991 151.88597 138.14904 152.57813 138.98242 L 167.51172 156.96289 C 168.94761 156.47445 170.50897 156.07318 172.19532 155.75586 L 174.20508 155.38672 C 174.83474 155.29707 175.37406 155.22892 175.82227 155.18164 L 177.35547 147.73242 C 177.8352 147.98395 178.6251 148.38372 179.72852 148.92969 C 180.83466 149.44633 181.76863 150.16071 182.52735 151.07422 C 183.72532 152.51661 184.27754 154.22547 184.1836 156.19922 C 184.12875 157.1114 183.93495 157.98771 183.60547 158.83008 C 183.24665 159.66973 182.74653 160.35624 182.10547 160.88868 C 181.46441 161.42111 180.83971 161.79224 180.22852 162.00196 C 180.17444 160.82819 179.72726 159.73624 178.88868 158.72657 C 178.06341 157.73292 176.93985 157.1776 175.51563 157.06055 C 174.07538 156.95682 172.80856 157.35854 171.71875 158.26368 C 170.61292 159.18212 169.9944 160.35935 169.86133 161.79688 C 169.73098 163.20507 170.12453 164.46253 171.04297 165.56836 C 172.81331 167.69989 175.201 168.60192 178.20508 168.27344 C 180.79029 167.99495 183.18873 166.9365 185.40039 165.09961 C 187.96464 162.96988 189.37451 160.20154 189.63086 156.79297 C 189.74546 155.23538 189.55108 153.66342 189.04688 152.07813 C 188.55599 150.50887 187.79837 149.10709 186.77344 147.87305 C 185.7352 146.62298 183.99331 145.30816 181.54688 143.92774 C 180.6461 143.43011 179.77613 142.90439 178.93946 142.35352 C 178.08676 141.81596 177.34205 141.16381 176.70313 140.39453 L 169.375 131.57227 C 167.88419 129.77729 166.01846 128.42801 163.7793 127.52539 C 162.62508 127.04869 160.85805 126.64824 158.47657 126.32422 L 155.25586 125.8711 z M 131.95703 127.09571 C 131.56608 128.53499 131.31586 129.97885 131.20508 131.42578 C 130.79704 136.26954 132.42026 140.42859 136.07422 143.90235 L 163.93164 170.38477 L 167.61328 166.51172 L 139.75586 140.0293 C 137.92888 138.29242 136.83774 136.26273 136.48438 133.94336 C 136.30509 132.68059 136.54732 130.85604 137.20899 128.4668 L 131.95703 127.09571 z M 381.77149 127.99219 L 383.9668 128.03125 C 383.87188 128.50644 383.72097 129.52695 383.51563 131.08985 L 376.05274 131.05274 C 377.63215 129.00804 379.53815 127.98814 381.77149 127.99219 z M 121.61524 138.06836 C 121.33213 139.53269 121.18868 140.99024 121.18555 142.44141 C 121.13797 147.30209 123.0652 151.33033 126.9668 154.52344 L 156.71289 178.86719 L 160.09571 174.73243 L 130.35157 150.38672 C 128.40077 148.79017 127.16313 146.84927 126.63867 144.5625 C 126.3662 143.31651 126.47054 141.47667 126.95313 139.04492 L 121.61524 138.06836 z M 271.61719 141.74414 L 269.7461 145.03907 C 260.02572 162.16262 255.14655 167.68209 250.60938 166.68555 C 248.06944 166.12769 243.65408 162.37434 237.51172 155.55078 L 231.53516 148.91016 L 231.20313 161.86524 C 230.81672 176.93671 230.15547 181.17852 227.83594 183.49805 C 226.58558 184.74841 226.16414 184.88779 224.28321 184.67578 C 220.96855 184.30217 215.94412 181.629 205.53125 174.70118 C 200.2605 171.19448 195.7824 168.39246 195.57813 168.47266 C 195.37386 168.55286 197.13505 173.39883 199.49219 179.24219 C 205.07965 193.09347 207.13985 199.27901 207.48243 203.22266 C 207.74304 206.22254 207.67952 206.52166 206.51172 207.68946 C 203.95359 210.24759 199.23952 209.2573 180.28321 202.17579 C 173.16424 199.51635 167.1714 197.3973 166.96485 197.4668 C 166.7583 197.53629 170.94529 202.46529 176.26953 208.41993 C 189.80104 223.55355 193.58704 228.74968 193.61524 232.22461 C 193.62859 233.87317 192.0467 235.37993 189.79883 235.85938 C 185.88381 236.69439 168.02601 235.78523 150.52539 233.86133 C 149.52936 233.75184 148.71289 233.82798 148.71289 234.03125 C 148.71289 234.23452 154.41844 237.60665 161.39063 241.52344 C 181.15615 252.62718 186.86524 256.77861 186.86524 260.04883 C 186.86524 263.90133 180.35598 266.27091 156.68164 271.03907 C 149.51024 272.48344 143.31638 273.79314 142.91797 273.94922 C 141.72148 274.41798 143.39558 274.8529 156.49414 277.48047 C 181.57669 282.51202 187.77148 284.94307 186.67188 289.32422 C 185.8761 292.49485 180.02965 296.57873 160.98047 307.26758 C 151.84958 312.39109 148.48478 314.50133 149.28321 314.60157 C 149.8997 314.67897 156.36965 314.1887 163.66211 313.51368 C 186.72666 311.37876 193.625 312.00468 193.625 316.23048 C 193.625 319.78083 189.81976 325.02082 176.30664 340.07618 C 170.91334 346.08501 166.59394 351.09394 166.70703 351.20704 C 166.82013 351.32014 172.4331 349.33268 179.18164 346.79102 C 194.28194 341.10388 198.60851 339.81446 202.57813 339.81446 C 205.29782 339.81446 205.73639 339.95129 206.62891 341.08594 C 208.82164 343.87354 207.58607 348.94063 200.16993 367.58204 C 197.4226 374.48783 195.25607 380.22295 195.35547 380.32813 C 195.45486 380.4333 200.16528 377.45419 205.82227 373.70704 C 217.21404 366.16121 221.4738 363.95899 224.67969 363.95899 C 229.7698 363.95899 231.2309 369.98076 231.2754 391.12305 C 231.28478 395.57197 231.46665 399.2129 231.67969 399.2129 C 231.89273 399.2129 233.77543 397.25202 235.86329 394.85548 C 241.00166 388.95745 246.94962 383.34394 248.94141 382.51173 C 254.62093 380.13868 258.49167 384.00663 269.40235 402.95509 C 270.51116 404.88074 271.54829 406.45704 271.70704 406.45704 C 272.28486 406.45704 271.40837 393.58007 270.63868 390.76173 C 270.20347 389.16809 268.35231 382.9529 266.5254 376.95118 C 264.6985 370.94947 262.31544 362.36673 261.23047 357.87696 C 260.1455 353.3872 259.05643 348.95306 258.81055 348.02344 C 258.38124 346.40027 258.20645 346.28848 254.36719 345.2168 C 245.81054 342.82832 235.67673 337.66025 228.80274 332.17774 C 224.27219 328.56429 217.17773 321.1271 214.16407 316.83204 C 210.63589 311.80371 206.46419 303.50131 204.50782 297.61329 C 200.25217 284.80519 199.63676 269.42087 202.86329 256.50977 C 209.05142 231.74772 227.63021 211.90739 251.80079 204.24805 C 254.73138 203.31939 257.43379 202.40977 257.80665 202.22657 C 258.21901 202.02398 259.56629 197.55065 261.24415 190.8086 C 262.76125 184.71247 265.44766 175.05236 267.21485 169.3418 C 270.97884 157.17863 271.94714 152.23644 271.75586 146.16797 L 271.61719 141.74414 z M 276.97266 142.30078 C 276.39551 142.37636 277.03537 152.3864 277.8711 156.30274 C 278.23952 158.02919 280.00264 164.22305 281.79102 170.06641 C 283.57939 175.90976 286.26087 185.56119 287.74805 191.51368 L 290.45118 202.33594 L 294.31446 203.38868 C 302.12888 205.5177 309.48367 208.97871 316.76954 213.95313 C 321.18971 216.97099 331.23579 226.87118 334.22462 231.15625 C 340.95829 240.81028 345.21998 251.07001 347.26563 262.54688 C 348.32603 268.4962 348.05225 282.46118 346.75391 288.62305 C 343.62897 303.45394 336.93727 315.78796 326.18555 326.53321 C 317.08148 335.63181 306.41889 341.82753 293.58985 345.47657 L 290.45118 346.3711 L 287.74805 357.2168 C 286.26172 363.18267 283.50704 373.06292 281.62501 379.17188 C 277.76904 391.68816 277.31102 393.80304 276.86133 401.20704 C 276.67748 404.23432 276.72582 406.45418 276.97657 406.45118 C 277.21571 406.44792 278.37567 404.76419 279.55274 402.70899 C 280.7298 400.65379 283.27014 396.46494 285.19727 393.4004 C 294.87952 378.00366 297.87787 377.9818 311.49415 393.2168 C 314.44151 396.51455 317.05215 399.2129 317.29493 399.2129 C 317.54862 399.2129 317.73633 394.5343 317.73633 388.2129 C 317.73633 372.34179 318.78159 365.95144 321.62501 364.42969 C 323.38468 363.48794 326.97682 364.13581 330.8379 366.09376 C 332.79589 367.08664 338.60015 370.72499 343.73633 374.17774 C 348.8725 377.63049 353.18998 380.33932 353.33204 380.19727 C 353.4741 380.05521 351.39316 374.44298 348.70704 367.72462 C 342.95771 353.34472 341.39844 348.40349 341.39844 344.55665 C 341.39844 342.32979 341.6142 341.53033 342.42969 340.71485 C 343.36428 339.78025 343.82167 339.70957 347.37891 339.95508 C 351.84424 340.26329 354.96935 341.233 370.84962 347.23634 C 376.8209 349.49372 381.80139 351.24552 381.91798 351.12891 C 382.03458 351.01233 381.69493 350.42862 381.16407 349.83204 C 380.63322 349.23548 376.40075 344.50942 371.75782 339.33008 C 358.00972 323.99362 353.93455 317.95352 355.48048 315.19532 C 356.62587 313.15176 358.52379 312.57306 364.75977 312.36915 C 370.32056 312.18732 375.16787 312.5018 390.51173 314.03712 C 394.54796 314.44099 398.45843 314.70064 399.20313 314.61524 C 400.31078 314.48819 398.22887 313.14864 387.75977 307.24805 C 368.77891 296.55007 363.55056 292.93663 362.14649 289.54688 C 361.61399 288.26131 361.65815 287.92053 362.49415 286.80079 C 364.68901 283.86103 371.64048 281.67994 392.06055 277.52149 C 399.87112 275.9309 406.36879 274.52379 406.49805 274.39454 C 406.86267 274.02993 406.19263 273.87233 393.07227 271.23633 C 370.30892 266.66298 363.33636 264.41721 362.14259 261.27735 C 360.75207 257.62001 366.1608 253.4041 387.75977 241.3086 C 394.53275 237.51572 400.16472 234.33093 400.2754 234.23243 C 400.87787 233.6964 399.20374 233.75701 390.41602 234.58399 C 367.89134 236.7037 361.30224 236.84913 357.61524 235.3086 C 352.12168 233.01325 354.61332 228.48343 372.2129 208.78711 C 377.62835 202.72648 381.95626 197.66328 381.82813 197.53516 C 381.70002 197.40704 375.97379 199.4136 369.10352 201.99414 C 350.72696 208.89652 345.40854 210.09407 342.67188 207.94141 C 341.56218 207.06852 341.39844 206.58706 341.39844 204.17774 C 341.39844 200.32698 343.00895 195.16734 348.63673 180.98828 C 351.31282 174.24591 353.38813 168.61468 353.24805 168.47461 C 353.10798 168.33454 348.83006 170.99476 343.74024 174.38672 C 327.95445 184.90668 323.72 186.54849 320.70704 183.31446 C 318.61983 181.0741 318.12949 177.62128 317.89649 163.54688 C 317.77557 156.24268 317.57378 149.9596 317.44923 149.58399 C 317.29903 149.13104 316.38054 149.86159 314.72266 151.75586 C 308.58618 158.76737 302.48928 164.57632 299.97462 165.80664 C 297.62958 166.95396 297.23133 167.01362 295.44532 166.47852 C 291.95394 165.43248 289.09326 161.85366 281.23438 148.69922 C 279.13247 145.18097 277.21671 142.30154 276.97852 142.30078 C 276.97622 142.30077 276.97493 142.30049 276.97266 142.30078 z M 414.72266 144.4375 C 414.33221 144.44036 413.97139 144.45982 413.64259 144.4961 C 412.97031 144.5673 412.36528 144.71976 411.82618 144.95117 C 411.30039 145.19861 410.72443 145.58217 410.09962 146.10157 C 409.47481 146.62096 408.55556 148.0085 407.3418 150.26367 C 406.70018 151.44724 406.0576 152.31881 405.41407 152.88086 L 391.4043 164.52735 C 391.21265 164.19902 390.98316 163.87511 390.7168 163.55469 C 388.25302 160.59085 384.5673 160.62028 379.65821 163.64453 L 383.0547 167.73047 C 384.97119 166.67916 386.15463 166.426 386.60743 166.97071 C 386.84715 167.25908 387.06922 167.58921 387.27149 167.96289 L 376.4336 176.97266 L 379.84962 181.08203 L 388.81251 173.63086 L 389.60352 177.07618 L 397.60938 178.83594 C 400.91613 179.55483 404.13923 178.60833 407.2793 175.99805 L 416.6504 168.20703 C 417.5796 167.43461 418.46662 166.33374 419.3086 164.90235 C 420.17992 163.47366 420.86368 161.33207 421.36329 158.47852 L 422.04102 154.50196 L 411.87696 152.58985 C 412.26495 151.59003 412.81814 150.78875 413.53907 150.18946 C 413.98765 149.81656 414.92915 149.72685 416.36134 149.91797 L 418.3086 150.20899 L 419.06837 144.86328 C 417.34222 144.57111 415.89401 144.42892 414.72266 144.4375 z M 408.34962 157.39063 L 415.94141 158.79883 C 415.40225 161.27889 414.50002 163.04556 413.23438 164.09766 L 403.86329 171.88868 C 402.05294 173.39358 400.31198 173.97308 398.64259 173.62696 L 394.02735 172.66993 C 393.97968 172.38445 393.91686 172.09677 393.83985 171.8086 C 393.77887 171.5071 393.64059 170.83549 393.42579 169.79493 L 408.34962 157.39063 z M 274.44922 163.28907 C 274.39075 163.29281 274.33329 163.32047 274.28126 163.37696 C 274.07311 163.60291 272.14036 169.76416 269.98633 177.06836 C 256.50702 222.77596 252.65615 270.03164 258.58204 317.02344 C 260.06666 328.79627 261.36343 336.0554 265.27344 354.50977 C 265.66362 356.35135 267.79434 364.01009 270.00782 371.5293 C 272.2213 379.04851 274.1821 385.20309 274.36524 385.20509 C 275.2647 385.21423 282.86736 357.88689 285.38087 345.60938 C 286.71308 339.10201 287.9067 333.49682 288.03321 333.1543 C 288.15972 332.81178 288.91823 327.27031 289.71876 320.83985 C 290.51929 314.40938 291.38407 307.51745 291.64063 305.5254 C 291.89719 303.53335 292.35301 295.6489 292.6543 288.00391 C 294.12851 250.5972 289.45154 212.97134 278.89454 177.30078 C 276.85238 170.40059 275.06528 164.35289 274.92188 163.86133 C 274.81434 163.49239 274.62465 163.27782 274.44922 163.28907 z M 121.95313 163.70703 L 118.81446 165.50977 L 119.72266 177.85938 C 119.98329 181.67549 121.87873 184.72584 125.41211 187.01172 L 137.61328 194.9043 C 138.59284 195.53801 139.56871 195.90963 140.54102 196.01758 C 143.25524 196.30955 145.77824 195.2107 148.10742 192.72266 L 147.57422 184.85938 C 149.61554 184.96415 151.81829 184.45485 154.1836 183.33008 L 152.1836 178.42578 C 150.53435 179.09573 149.07516 179.39336 147.8086 179.31836 C 146.54203 179.24336 145.23556 178.76979 143.88867 177.89844 L 121.95313 163.70703 z M 426.49806 167.76758 C 426.39329 170.49863 425.63987 172.29546 424.23829 173.15821 L 399.35548 188.47461 L 402.14063 193 L 425.5586 178.58399 L 429.48829 180.01758 C 428.91251 181.54627 428.0155 183.09102 426.79688 184.64844 L 431.58595 187.24024 C 434.41073 183.64219 436.21019 179.9902 436.98634 176.28321 L 430.63477 173.95508 C 431.43303 172.50962 431.83059 170.49085 431.82618 167.90039 L 426.49806 167.76758 z M 124.5 171.68164 L 142.02735 183.02149 L 142.53711 190.57227 C 141.86014 190.92832 141.18219 190.88665 140.5 190.44532 L 128.29883 182.55078 C 126.28725 181.24942 125.18119 179.46758 124.98242 177.20508 L 124.5 171.68164 z M 102.34961 183.79493 L 98.906252 187.83008 L 106.40039 194.47852 C 105.59439 196.17144 105.43653 198.34626 105.92578 201.00196 L 106.30078 203.11914 L 111.32031 202.46289 L 111.07813 201.51758 C 110.61042 199.49514 110.57942 198.06131 110.98242 197.21485 L 128.78516 205.68946 C 129.81972 206.18201 130.83373 206.54926 131.82617 206.79102 C 134.78471 207.50735 137.96217 206.79405 141.35938 204.65039 L 138.74024 200.04688 C 137.19165 200.92478 135.78514 201.40839 134.51953 201.49805 C 133.25392 201.58772 131.67709 201.19511 129.78711 200.31836 L 123.72071 197.42969 L 113.25196 192.44532 L 115.97852 186.71875 L 111.18164 184.4336 L 108.77735 189.48438 L 102.34961 183.79493 z M 454.66407 184.29688 L 445.11524 184.84766 L 445.80665 190.00977 L 455.11329 190.23829 L 454.66407 184.29688 z M 441.48634 186.25 L 416.69532 198.43946 C 415.66707 198.94507 414.75077 199.51242 413.94532 200.14063 C 411.54766 202.01608 410.13422 204.9511 409.70704 208.94532 L 414.94337 209.74805 C 415.21594 207.98892 415.70877 206.5852 416.42384 205.53711 C 417.13891 204.48903 418.21671 203.6102 419.65626 202.90235 L 443.83009 191.01758 L 441.48634 186.25 z M 438.98829 202.67383 C 437.72496 202.67108 436.13247 203.03801 434.20899 203.77539 L 421.35548 208.57227 C 416.3198 210.45179 414.03547 214.46105 414.50391 220.60157 L 423.60352 226.2129 L 426.60938 221.75586 L 419.76563 217.53907 C 420.03435 215.63756 421.18301 214.30647 423.2129 213.54883 L 436.06641 208.75196 C 438.56473 207.81948 440.75821 207.97912 442.64845 209.23047 L 444.52345 210.5 L 439.44141 216.36524 L 443.39063 219.52735 L 452.37696 209.46875 L 445.64649 204.8418 C 443.8221 203.58811 441.77718 202.87389 439.50977 202.69727 C 439.34277 202.68177 439.16877 202.67422 438.98829 202.67383 z M 105.36914 206.73047 C 103.98249 206.69849 102.50146 206.99048 100.92578 207.60743 C 99.688289 208.09764 98.129106 209.06361 96.248049 210.50391 L 99.091799 218.81836 C 100.10639 221.85326 102.32441 223.93608 105.7461 225.06836 L 128.53125 232.60938 L 131.43164 229.7168 L 127.41211 217.68946 C 126.37774 214.64801 124.40745 212.64571 121.5 211.6836 L 107.76367 207.13868 C 106.99973 206.88588 106.20114 206.74966 105.36914 206.73047 z M 257.19141 207.92383 C 256.87169 207.97093 256.00568 209.12798 254.99805 210.99414 C 247.0984 225.62443 245.17503 226.88871 232.49024 225.80469 C 229.12937 225.5175 226.26851 225.39361 226.13282 225.5293 C 225.99713 225.665 227.30671 229.32367 229.04297 233.65821 C 230.77922 237.99275 232.45705 242.8822 232.76954 244.52344 C 233.27461 247.17607 233.23666 247.70965 232.43555 249.3379 C 231.93987 250.34533 230.83514 251.5728 229.98047 252.06446 C 228.06062 253.16888 221.04299 254.63293 213.85547 255.42774 C 210.87413 255.75741 208.37127 256.24416 208.29297 256.50977 C 208.21463 256.77538 210.36262 258.62319 213.06641 260.61524 C 218.93064 264.93579 223.83183 269.41685 224.85352 271.39258 C 225.95351 273.51972 225.77302 275.84608 224.33985 278.01172 C 223.06004 279.94566 217.23129 285.02797 211.3711 289.32032 C 208.34369 291.53778 207.49495 292.48633 208.53907 292.48633 C 208.77377 292.48633 212.19788 292.91909 216.14649 293.44727 C 235.04879 295.97574 235.98116 297.60624 228.7793 315.54688 C 227.15313 319.59784 225.91978 323.00962 226.03907 323.12891 C 226.15837 323.24821 228.53074 323.11694 231.31055 322.83594 C 240.64044 321.89283 244.8653 322.81605 248.10157 326.50196 C 249.61523 328.22592 254.12126 335.59368 255.72461 338.96876 C 256.59338 340.79754 257.6499 341.49615 257.1836 339.9336 C 256.70012 338.31346 254.54205 324.55394 253.75586 318.08204 C 252.7823 310.06765 252.83665 310.2555 251.21485 309.28712 C 244.23611 305.12006 236.91648 295.3063 234.23243 286.51368 C 229.07499 269.61854 235.08236 251.36622 249.32813 240.64454 L 252.83594 238.00586 L 253.68946 230.8379 C 254.48442 224.17353 256.61583 210.74934 257.18555 208.82032 C 257.375 208.17885 257.35889 207.89916 257.19141 207.92383 z M 292.03126 207.97266 C 291.51627 207.96145 291.56647 208.11058 292.86719 215.70313 C 293.52699 219.55443 294.51541 226.17617 295.06251 230.41797 C 295.60961 234.65975 296.0982 238.16955 296.1504 238.21875 C 296.2026 238.26799 297.5509 239.26799 299.14454 240.44141 C 307.69998 246.74088 313.45988 255.77692 315.63868 266.31251 C 316.69183 271.40504 316.30132 280.70261 314.82227 285.72657 C 312.15246 294.79518 306.40326 303.00261 299.02344 308.28126 C 297.36339 309.46866 296.00391 310.52611 296.00391 310.63087 C 296.00391 311.93106 293.78606 327.70556 292.86524 332.95508 C 292.20098 336.74202 291.65821 340.05229 291.65821 340.31055 C 291.65821 341.33331 292.18167 340.61105 294.38282 336.55469 C 298.84909 328.32407 301.27327 325.15645 304.30274 323.58985 C 306.34042 322.53612 311.33048 322.25086 317.48438 322.83399 C 320.40007 323.11028 322.86234 323.25877 322.95704 323.16407 C 323.05178 323.06933 322.14397 320.63696 320.93946 317.75977 C 317.40334 309.31308 316.26852 305.96363 315.96876 303.09571 C 315.31855 296.87481 318.43399 295.18873 334.2754 293.19141 C 337.9275 292.73094 340.9084 292.22109 340.9004 292.0586 C 340.89201 291.89611 338.79989 290.24207 336.25001 288.38282 C 333.70014 286.52357 329.80746 283.26354 327.59962 281.13868 C 324.38727 278.04706 323.52075 276.91267 323.26173 275.45704 C 322.60635 271.77395 324.97912 268.88444 335.0293 261.12305 C 338.79525 258.21476 340.71351 256.44224 340.32227 256.23633 C 339.98468 256.05865 337.31816 255.65452 334.39649 255.3379 C 331.47481 255.02129 327.19615 254.35354 324.88868 253.85352 C 314.01947 251.4982 313.44406 248.65682 320.44532 231.92383 C 321.88007 228.49478 322.96447 225.59925 322.85352 225.48829 C 322.74257 225.37734 319.85303 225.52225 316.4336 225.8125 C 307.19625 226.5966 304.02274 225.80004 300.52735 221.81836 C 298.7205 219.76014 292.62501 209.46129 292.62501 208.4668 C 292.62501 208.19676 292.40624 207.97657 292.14063 207.97657 C 292.10147 207.97657 292.06559 207.97341 292.03126 207.97266 z M 104.78516 211.9668 C 105.22801 211.96831 105.66357 212.03929 106.09375 212.18164 L 119.83008 216.72657 C 121.21458 217.18472 122.10898 218.06241 122.51367 219.35938 L 124.53516 225.68946 L 107.41602 220.02539 C 105.73484 219.46907 104.64549 218.5155 104.14844 217.16602 L 102.51758 212.54493 C 103.29083 212.15619 104.04708 211.96429 104.78516 211.9668 z M 86.16797 222.38868 C 84.704454 222.35985 83.311436 222.87076 81.988283 223.91993 C 80.457979 225.09575 79.572913 226.64346 79.335939 228.56641 C 79.07574 230.50749 79.546451 232.2253 80.748048 233.7168 C 81.291913 234.41355 81.977623 234.9907 82.802736 235.44922 C 83.604624 235.92588 84.573709 236.23486 85.710939 236.375 C 86.827493 236.5126 87.973571 236.32821 89.148439 235.82227 C 88.855911 237.00369 88.25239 238.23097 87.339845 239.50391 C 86.409173 240.75363 84.755808 242.42754 82.376955 244.52735 C 78.609989 247.8415 76.528073 251.19629 76.130861 254.58985 C 75.697683 258.10492 76.673226 261.24645 79.060548 264.01758 C 81.225229 266.55137 83.766197 267.99814 86.681642 268.35743 C 90.424164 268.81863 93.498012 267.89643 95.902346 265.58985 C 98.188006 263.39459 99.583368 260.25028 100.08789 256.15626 L 94.689455 255.49024 C 94.38623 257.95079 93.60768 259.84999 92.351564 261.18555 C 91.722233 261.86367 90.989031 262.36103 90.152346 262.67774 C 89.318209 262.97377 88.248555 263.05197 86.943361 262.91211 C 85.640715 262.75158 84.383667 261.96739 83.171877 260.5586 C 82.581562 259.89811 82.132691 259.1069 81.826173 258.18751 C 81.496431 257.28624 81.410378 256.19408 81.568361 254.91211 C 81.726344 253.63015 82.765797 252.0063 84.687502 250.03907 C 85.481957 249.21337 86.29081 248.4524 87.11133 247.75586 C 87.936946 247.01797 88.62844 246.3472 89.185549 245.74415 L 92.849611 251.76954 C 95.082718 252.04473 97.4193 251.8282 99.857424 251.1211 C 101.14106 250.75451 102.75945 249.97791 104.71094 248.79102 L 107.17969 247.39454 C 108.01099 246.95122 108.87804 246.56608 109.7793 246.23633 C 110.66243 245.88337 111.57467 245.62739 112.51758 245.47071 C 113.46304 245.29335 114.56684 245.28207 115.82813 245.4375 C 117.06874 245.59039 118.18982 246.29604 119.18946 247.55274 C 120.15283 248.76299 120.53741 250.15317 120.34375 251.72461 C 120.15264 253.27538 119.44187 254.53137 118.21094 255.49219 C 116.98001 256.45302 115.58788 256.8376 114.03711 256.64649 C 111.94874 256.38913 110.46387 255.32504 109.58203 253.45313 L 104.67578 255.71485 C 105.49784 257.39047 106.66869 258.79402 108.1875 259.92579 C 109.70631 261.05755 111.4478 261.74426 113.41211 261.98633 C 116.4723 262.36345 119.19767 261.61727 121.58985 259.75001 C 123.98202 257.88274 125.36702 255.41956 125.74414 252.35938 C 126.12126 249.2992 125.37704 246.57382 123.50977 244.18165 C 121.62437 241.76624 119.1606 240.37067 116.1211 239.9961 C 112.48196 239.54763 108.82484 240.272 105.14844 242.16993 L 100.93946 244.39063 C 99.160737 245.36791 97.510921 246.05645 95.992189 246.45704 L 92.746096 241.11329 C 93.841016 239.2121 94.492824 237.42484 94.699221 235.75 C 94.908165 234.0545 94.901828 232.49041 94.679689 231.05665 C 94.460099 229.6022 94.035653 228.26943 93.408205 227.0586 C 92.76008 225.84522 91.919187 224.82775 90.886721 224.00782 C 89.856803 223.1672 88.494337 222.64254 86.79883 222.4336 C 86.586891 222.40748 86.377044 222.39279 86.16797 222.38868 z M 445.79493 223.73633 C 444.62943 223.67643 443.19012 223.85542 441.47462 224.27344 L 428.1172 227.40235 C 422.88394 228.62859 420.11035 232.31838 419.79688 238.46875 L 428.11134 245.18555 L 431.65821 241.14454 L 425.40431 236.09571 C 425.91182 234.24358 427.22056 233.07048 429.33009 232.57618 L 436.35743 230.92969 L 448.56251 241.09961 L 458.7754 232.22266 L 452.68556 226.78125 C 451.03474 225.30648 449.09589 224.33753 446.86915 223.875 C 446.54176 223.80193 446.18343 223.7563 445.79493 223.73633 z M 86.345705 227.73829 C 86.403526 227.74016 86.46204 227.74463 86.521486 227.75196 C 86.976378 227.80802 87.348613 228.02294 87.638674 228.39454 C 87.908058 228.76359 88.013686 229.18459 87.95508 229.66016 C 87.899022 230.11505 87.696628 230.48865 87.345705 230.78125 C 86.976653 231.05064 86.564269 231.15763 86.109377 231.10157 C 85.633808 231.04296 85.249642 230.83921 84.957033 230.48829 C 84.666972 230.11669 84.549412 229.70294 84.60547 229.24805 C 84.664077 228.77248 84.878401 228.38967 85.250002 228.09961 C 85.575152 227.84581 85.940953 227.72514 86.345705 227.73829 z M 444.62501 229.19141 C 446.36521 229.15276 447.87607 229.67373 449.15626 230.75391 L 450.8086 232.19727 C 450.43017 232.49992 449.66094 233.1819 448.49806 234.2461 L 442.8086 229.41797 C 443.43978 229.28078 444.04494 229.20429 444.62501 229.19141 z M 433.25001 248.00196 L 420.95899 248.74805 L 421.33009 254.0586 L 433.62501 253.34376 L 433.25001 248.00196 z M 422.11524 257.95508 L 422.15235 263.27735 L 434.46876 263.33204 L 434.4297 257.97852 L 422.11524 257.95508 z M 422.69141 267.21485 L 422.39649 272.5293 L 434.68556 273.35547 L 434.98048 268.00782 L 422.69141 267.21485 z M 34.796876 351.35938 C 29.632007 355.27025 20.546788 352.35433 19.470704 363.38282 L 15.611328 358.50782 L 15.611328 420.67579 C 15.611328 459.21754 42.295846 455.36939 45.361329 454.47462 L 46.490235 458.49806 C 48.934817 468.35632 43.321795 459.40506 37.333985 460.72852 C 42.641232 481.56108 49.135594 474.88208 56.833986 482.81642 L 48.126954 450.84767 L 65.021486 434.22266 C 65.021486 434.22266 59.457679 435.87515 55.32422 435.76173 C 49.368881 435.59821 41.199191 440.58876 43.777345 448.56056 C 34.559931 451.88644 27.996002 448.71484 27.404297 439.60548 L 27.404297 381.03516 C 27.404297 378.31425 29.662709 379.28783 31.773438 375.22071 C 33.071503 372.7197 32.753907 368.38282 32.753907 368.38282 C 30.394948 370.55993 26.933368 370.96023 27.498047 375.33009 L 25.083985 372.32423 L 25.083985 440.16798 C 25.083985 440.16798 21.271485 438.09579 21.271485 421.38673 L 21.271485 395.9961 C 21.271485 380.00724 19.396024 384.15304 19.84961 375.91212 C 20.178958 369.92799 26.486248 365.5958 30.800782 361.28126 C 33.910407 358.17164 34.796876 351.35938 34.796876 351.35938 z M 509.67579 351.35938 C 509.67579 351.35938 510.56226 358.17164 513.67189 361.28126 C 517.98642 365.5958 524.29383 369.92994 524.62306 375.91407 C 525.07661 384.15499 523.20118 380.00724 523.20118 395.9961 L 523.20118 421.38868 C 523.20118 438.09774 519.38868 440.16798 519.38868 440.16798 L 519.38868 372.32423 L 516.97462 375.33009 C 517.53929 370.96024 514.07772 370.55993 511.71876 368.38282 C 511.71876 368.38282 511.40125 372.71971 512.69923 375.22071 C 514.80996 379.28784 517.06837 378.31427 517.06837 381.03516 L 517.06837 439.60548 C 516.47666 448.71488 509.91273 451.88644 500.69532 448.56056 C 503.27347 440.58876 495.10379 435.59834 489.14845 435.76173 C 485.01499 435.87523 479.45118 434.22266 479.45118 434.22266 L 496.34571 450.84767 L 487.63868 482.81642 C 495.33712 474.88208 501.83139 481.56108 507.13868 460.72852 C 501.15083 459.40506 495.53781 468.35632 497.98243 458.49806 L 499.11134 454.47462 C 502.17686 455.36939 528.86134 459.21754 528.86134 420.67579 L 528.86134 358.50782 L 525.00196 363.38282 C 523.92592 352.35433 514.84071 355.27025 509.67579 351.35938 z M 468.59571 428.39063 C 468.55885 428.39063 468.52324 428.39154 468.48634 428.39454 C 468.45394 428.39454 468.42138 428.39545 468.38868 428.39845 C 468.37638 428.40245 468.36387 428.40326 468.35157 428.40626 C 468.30207 428.41436 468.25339 428.42716 468.20509 428.43946 L 468.18165 428.44337 L 437.70118 436.60938 C 437.44387 436.67777 437.20791 436.8136 437.01954 437.00196 C 436.83119 437.19028 436.69771 437.42644 436.62891 437.6836 L 428.4629 468.16212 L 428.45899 468.18751 C 428.44269 468.23622 428.43379 468.28449 428.42579 468.33399 C 428.42179 468.34629 428.42098 468.3588 428.41798 468.3711 C 428.41698 468.403 428.41507 468.43606 428.41407 468.46876 C 428.41307 468.50561 428.41116 468.54123 428.41016 468.57813 C 428.41016 468.6461 428.41388 468.71406 428.42188 468.78126 C 428.43008 468.84554 428.44259 468.90851 428.45899 468.97071 L 428.45899 468.97267 L 428.45899 468.97462 L 428.46095 468.97657 C 428.46495 468.99737 428.47248 469.01867 428.48048 469.03907 C 428.49408 469.08417 428.51095 469.12808 428.52735 469.17188 C 428.53965 469.19488 428.55216 469.21984 428.56446 469.24024 C 428.58366 469.27704 428.6007 469.31077 428.6211 469.34767 C 428.6387 469.37307 428.65353 469.39924 428.66993 469.42384 C 428.69003 469.45534 428.71398 469.48693 428.73438 469.51563 C 428.75738 469.54313 428.78205 469.57111 428.80665 469.59571 C 428.82025 469.61291 428.83517 469.634 428.85157 469.6504 L 428.88868 469.68556 L 451.18165 491.97853 C 451.46829 492.26505 451.85332 492.42284 452.24806 492.42384 C 452.37991 492.42424 452.51196 492.408 452.64259 492.3711 L 483.11524 484.20704 L 483.11915 484.20704 L 483.12306 484.20509 L 483.14454 484.20118 C 483.16534 484.19718 483.18469 484.18965 483.20509 484.18165 C 483.2461 484.16775 483.28713 484.15508 483.32813 484.13868 L 483.33204 484.13868 C 483.38814 484.11488 483.4428 484.08535 483.4961 484.05665 C 483.53127 484.03575 483.56497 484.01484 483.59767 483.99024 C 483.62267 483.97264 483.64728 483.95586 483.67188 483.93946 C 483.72382 483.89977 483.77362 483.85686 483.82032 483.81056 C 483.86652 483.76387 483.90823 483.71462 483.94923 483.66212 C 483.96683 483.63832 483.98361 483.6125 484.00001 483.5879 C 484.02381 483.55473 484.04602 483.52314 484.06642 483.48634 C 484.09682 483.43351 484.12385 483.37878 484.14845 483.32228 L 484.14845 483.31837 C 484.16645 483.27865 484.17912 483.23672 484.19142 483.19532 C 484.19952 483.17492 484.20295 483.15518 484.21095 483.13478 L 484.21485 483.11329 L 484.21681 483.10938 L 484.21681 483.10548 L 492.38087 452.63282 C 492.52025 452.11064 492.37033 451.55392 491.98829 451.17188 L 469.69727 428.87891 L 469.66017 428.84181 C 469.64287 428.82421 469.62188 428.81328 469.60548 428.79688 C 469.57968 428.77188 469.5541 428.74922 469.5254 428.72462 C 469.4954 428.70222 469.4663 428.68056 469.4336 428.66016 C 469.409 428.64256 469.38203 428.62774 469.35743 428.61134 C 469.32223 428.59214 469.28691 428.5711 469.25001 428.5547 C 469.22781 428.5425 469.20625 428.52989 469.18165 428.51759 C 469.13777 428.49999 469.09384 428.48301 469.04884 428.47071 C 469.02844 428.46261 469.00674 428.45918 468.98634 428.45118 L 468.98438 428.44923 L 468.98243 428.44923 L 468.98048 428.44923 C 468.91824 428.43273 468.85492 428.42012 468.79102 428.41212 C 468.72346 428.40282 468.6559 428.39969 468.5879 428.4004 L 468.59571 428.39063 z M 75.884767 428.4004 L 75.884767 428.40626 C 75.816793 428.40626 75.748802 428.41193 75.681642 428.41993 C 75.617353 428.42813 75.552476 428.44064 75.490236 428.45704 L 75.488283 428.45704 L 75.48633 428.45704 L 75.484376 428.45899 C 75.463486 428.46299 75.4443 428.47052 75.42383 428.47852 C 75.378778 428.49212 75.332874 428.509 75.289064 428.5254 C 75.266534 428.5376 75.243128 428.55021 75.222658 428.56251 C 75.185804 428.58171 75.150143 428.5968 75.113283 428.6172 C 75.087903 428.6348 75.063634 428.65158 75.039064 428.66798 C 75.007534 428.68798 74.973974 428.71203 74.945314 428.73243 C 74.917874 428.75543 74.891759 428.7801 74.867189 428.8047 C 74.849989 428.8183 74.828881 428.83322 74.812501 428.84962 L 74.779298 428.88673 L 52.486329 451.1797 C 52.102243 451.56188 51.956478 452.11845 52.095704 452.64063 L 60.259767 483.11329 C 60.259726 483.11429 60.259726 483.11622 60.259767 483.1172 L 60.26172 483.1211 L 60.265626 483.14259 C 60.273816 483.16339 60.276957 483.18273 60.285157 483.20313 C 60.299077 483.24405 60.311746 483.28323 60.328126 483.32423 L 60.328126 483.32813 C 60.351866 483.38423 60.381497 483.44085 60.410157 483.49415 C 60.431047 483.52932 60.451994 483.56301 60.476564 483.59571 C 60.494174 483.62071 60.510965 483.64533 60.527345 483.66993 C 60.567062 483.72187 60.609981 483.77167 60.656251 483.81837 C 60.702933 483.86456 60.752279 483.90628 60.804689 483.94728 C 60.828449 483.96488 60.854337 483.98166 60.878907 483.99806 C 60.912078 484.02186 60.94361 484.04406 60.98047 484.06446 C 61.033293 484.09476 61.088022 484.12189 61.144532 484.14649 L 61.148439 484.14649 C 61.188157 484.16039 61.230536 484.17716 61.271486 484.18946 C 61.291956 484.19756 61.311562 484.20099 61.332032 484.20899 L 61.353517 484.2129 L 61.357423 484.21485 L 61.361329 484.21485 L 91.832033 492.37892 C 91.962659 492.41462 92.095119 492.43206 92.226564 492.43165 C 92.621388 492.43067 93.008285 492.27298 93.294924 491.98634 L 115.58789 469.69337 L 115.62305 469.65626 C 115.64065 469.63906 115.65352 469.61992 115.66992 469.60352 C 115.69492 469.57772 115.71759 469.55215 115.74219 469.52345 C 115.76459 469.49355 115.78624 469.46435 115.80664 469.43165 C 115.82434 469.40705 115.83907 469.38008 115.85547 469.35548 C 115.87467 469.32028 115.89571 469.28496 115.91211 469.24806 C 115.92441 469.22586 115.93301 469.2043 115.94531 469.1797 C 115.96291 469.1359 115.97989 469.09188 115.99219 469.04688 C 116.00039 469.02648 116.00372 469.00478 116.01172 468.98438 L 116.01367 468.98243 L 116.01367 468.98048 L 116.01367 468.97852 C 116.03427 468.91628 116.04669 468.85287 116.05469 468.78907 C 116.06399 468.7215 116.0671 468.65395 116.06641 468.58595 C 116.06641 468.5491 116.0655 468.51347 116.0625 468.47657 C 116.0625 468.44407 116.0616 468.41162 116.0586 468.37892 C 116.0546 468.36662 116.05378 468.35411 116.05078 468.34181 C 116.04668 468.2923 116.03379 468.24362 116.02149 468.19532 L 116.01758 468.16993 L 107.85156 437.69141 C 107.78277 437.43404 107.64929 437.20008 107.46094 437.01173 C 107.27261 436.82336 107.03645 436.68795 106.7793 436.61915 L 76.29883 428.45313 L 76.275392 428.44923 C 76.227067 428.43293 76.178448 428.42402 76.128908 428.41602 C 76.116618 428.41202 76.104088 428.41121 76.091798 428.40821 C 76.059858 428.40721 76.026902 428.40529 75.994142 428.40431 C 75.9577 428.40331 75.921627 428.40138 75.884767 428.4004 z M 76.556642 432.42579 L 93.875002 446.66017 L 68.679689 453.41212 L 76.556642 432.42579 z M 467.91602 432.42579 L 475.79298 453.41212 L 450.59767 446.66017 L 467.91602 432.42579 z M 82.250002 433.18556 L 103.46094 438.86915 L 97.011721 445.32032 L 82.250002 433.18556 z M 462.22267 433.18556 L 447.46095 445.32032 L 441.01173 438.86915 L 462.22267 433.18556 z M 72.005861 435.9336 L 65.291017 453.82032 L 56.48047 451.45704 L 72.005861 435.9336 z M 472.46681 435.9336 L 487.9922 451.45704 L 479.18165 453.82032 L 472.46681 435.9336 z M 105.60352 441.01173 L 111.28711 462.22071 L 99.152346 447.46095 L 105.60352 441.01173 z M 438.86915 441.01173 L 445.32032 447.46095 L 433.18556 462.22071 L 438.86915 441.01173 z M 94.968752 449.50392 L 88.050783 475.32032 L 78.601564 465.8711 L 69.152345 456.42188 L 94.968752 449.50392 z M 449.50392 449.50392 L 475.32032 456.42188 L 465.8711 465.8711 L 456.42188 475.32032 L 449.50392 449.50392 z M 97.812502 450.59767 L 112.04688 467.91602 L 91.060549 475.79298 L 97.812502 450.59767 z M 446.66017 450.59767 L 453.41212 475.79298 L 432.42579 467.91602 L 446.66017 450.59767 z M 55.697267 454.38282 L 64.507814 456.74415 L 61.380861 475.59376 L 55.697267 454.38282 z M 488.7754 454.38282 L 483.09181 475.59376 L 479.96485 456.74415 L 488.7754 454.38282 z M 67.238283 458.79102 L 76.460939 468.01173 L 85.681642 477.23438 L 63.568361 480.90431 L 67.238283 458.79102 z M 477.23438 458.79102 L 480.90431 480.90431 L 458.79102 477.23438 L 468.01173 468.01173 L 477.23438 458.79102 z M 108.53906 472.46681 L 93.015627 487.9922 L 90.652346 479.18165 L 108.53906 472.46681 z M 435.9336 472.46681 L 453.82032 479.18165 L 451.45899 487.9922 L 435.9336 472.46681 z M 110.25 479.45118 L 93.625002 496.34571 L 61.656251 487.63868 C 69.590587 495.33712 62.911534 501.83139 83.744142 507.13868 C 85.067554 501.15083 76.116352 495.53785 85.974611 497.98243 L 89.998049 499.11134 C 89.103285 502.17686 85.255134 528.85939 123.79688 528.85939 L 185.96485 528.85939 L 181.08985 525.00196 C 192.11833 523.92592 189.20247 514.84071 193.11329 509.67579 C 193.11329 509.67579 186.30104 510.56226 183.19141 513.67189 C 178.87688 517.98642 174.54467 524.29384 168.56055 524.62306 C 160.31964 525.07661 164.46543 523.20118 148.47657 523.20118 L 123.08594 523.20118 C 106.37688 523.20118 104.30469 519.38673 104.30469 519.38673 L 172.14844 519.38673 L 169.14258 516.97462 C 173.51239 517.53929 173.91279 514.07772 176.08985 511.71876 C 176.08985 511.71876 171.75297 511.40124 169.25196 512.69923 C 165.18484 514.80996 166.1584 517.06837 163.4375 517.06837 L 104.86719 517.06837 C 95.757801 516.47665 92.586278 509.91273 95.912111 500.69532 C 103.88392 503.27347 108.87432 495.10379 108.71094 489.14845 C 108.59742 485.01499 110.25 479.45118 110.25 479.45118 z M 434.22266 479.45118 C 434.22266 479.45118 435.87515 485.01499 435.76173 489.14845 C 435.59822 495.10379 440.58876 503.27347 448.56056 500.69532 C 451.88644 509.91273 448.71484 516.47665 439.60548 517.06837 L 381.03516 517.06837 C 378.31426 517.06837 379.28783 514.80996 375.22071 512.69923 C 372.71971 511.40116 368.38282 511.71876 368.38282 511.71876 C 370.55993 514.07772 370.96023 517.53929 375.33009 516.97462 L 372.32423 519.38673 L 440.16798 519.38673 C 440.16798 519.38673 438.09579 523.20118 421.38673 523.20118 L 395.9961 523.20118 C 380.00724 523.20118 384.15304 525.07661 375.91212 524.62306 C 369.92799 524.29368 365.5958 517.98642 361.28126 513.67189 C 358.17164 510.56226 351.35938 509.67579 351.35938 509.67579 C 355.27025 514.84071 352.35434 523.92592 363.38282 525.00196 L 358.50782 528.85939 L 420.67579 528.85939 C 459.21754 528.85939 455.36939 502.17686 454.47462 499.11134 L 458.49806 497.98243 C 468.35632 495.53785 459.40506 501.15083 460.72852 507.13868 C 481.56108 501.83139 474.88208 495.33712 482.81642 487.63868 L 450.84767 496.34571 L 434.22266 479.45118 z M 87.728517 479.96485 L 90.089846 488.7754 L 68.878908 483.09181 L 87.728517 479.96485 z M 456.74415 479.96485 L 475.59376 483.09181 L 454.38282 488.7754 L 456.74415 479.96485 z " /></svg>
