<?xml version="1.0" encoding="UTF-8" standalone="no"?>
<svg
   viewBox="0 0 548.0315 548.03151"
   width="145mm"
   height="145mm"
   version="1.1"
   id="svg65"
   sodipodi:docname="wizard lid.svg"
   inkscape:version="1.4.2 (f4327f4, 2025-05-13)"
   xml:space="preserve"
   xmlns:inkscape="http://www.inkscape.org/namespaces/inkscape"
   xmlns:sodipodi="http://sodipodi.sourceforge.net/DTD/sodipodi-0.dtd"
   xmlns="http://www.w3.org/2000/svg"
   xmlns:svg="http://www.w3.org/2000/svg"><sodipodi:namedview
     id="namedview65"
     pagecolor="#ffffff"
     bordercolor="#666666"
     borderopacity="1.0"
     inkscape:showpageshadow="2"
     inkscape:pageopacity="0.0"
     inkscape:pagecheckerboard="0"
     inkscape:deskcolor="#d1d1d1"
     inkscape:zoom="1.4205836"
     inkscape:cx="278.40671"
     inkscape:cy="208.0131"
     inkscape:window-width="1920"
     inkscape:window-height="1057"
     inkscape:window-x="1912"
     inkscape:window-y="-8"
     inkscape:window-maximized="1"
     inkscape:current-layer="svg65"
     inkscape:document-units="mm" /><desc
     id="desc1">outline.dxf - scale = 1.000000, origin = (0.000000, 0.000000), method = manual</desc><defs
     id="defs4"><marker
       id="DistanceX"
       orient="auto"
       refX="0"
       refY="0"
       style="overflow:visible"><path
         d="M 3,-3 -3,3 M 0,-5 V 5"
         style="stroke:#000000;stroke-width:0.5"
         id="path1" /></marker><pattern
       id="Hatch"
       patternUnits="userSpaceOnUse"
       width="8"
       height="8"
       x="0"
       y="0"><path
         d="M8 4 l-4,4"
         stroke="#000000"
         stroke-width="0.25"
         linecap="square"
         id="path2" /><path
         d="M6 2 l-4,4"
         stroke="#000000"
         stroke-width="0.25"
         linecap="square"
         id="path3" /><path
         d="M4 0 l-4,4"
         stroke="#000000"
         stroke-width="0.25"
         linecap="square"
         id="path4" /></pattern><symbol
       id="*MODEL_SPACE" /><symbol
       id="*PAPER_SPACE" /></defs><path
     id="outline"
     style="display:inline;opacity:1;fill:#000000;fill-opacity:1;stroke:none;stroke-width:1;stroke-linecap:round;stroke-dasharray:none;stroke-opacity:1;paint-order:fill markers stroke"
     inkscape:label="outline"
     d="M -25.984376 -25.984376 L -25.984376 574.01564 L 574.01564 574.01564 L 574.01564 -25.984376 L -25.984376 -25.984376 z M 120.47852 0.49414063 L 427.55274 0.49414063 C 444.66376 0.49413963 461.07452 7.2913084 473.17384 19.390625 L 528.63673 74.851564 L 528.63673 74.853517 C 540.73605 86.952837 547.53321 103.36164 547.53321 120.47266 L 547.53321 427.55079 C 547.53321 444.66181 540.73605 461.07256 528.63673 473.17188 L 473.17384 528.63868 C 461.07451 540.73797 444.66375 547.53519 427.55274 547.53517 L 120.47852 547.53517 L 120.47852 547.53126 C 103.36799 547.53129 86.958606 540.73343 74.859376 528.63478 L 74.857423 528.63478 L 19.394532 473.16993 C 7.2963196 461.07117 0.49856488 444.66257 0.49804688 427.55274 L 0.49804688 120.47461 C 0.49804588 103.36359 7.2952146 86.952837 19.394532 74.853517 L 74.857423 19.392579 L 74.857423 19.390625 C 86.956743 7.2913084 103.3675 0.49413963 120.47852 0.49414063 z M 123.79688 15.613282 C 85.255134 15.613282 89.103285 42.295846 89.998049 45.361329 L 85.974611 46.490235 C 76.116352 48.934818 85.067554 43.323749 83.744142 37.335938 C 62.911534 42.643185 69.590587 49.135594 61.656251 56.833986 L 93.625002 48.126954 L 110.25 65.021486 C 110.25 65.021486 108.59751 59.45768 108.71094 55.32422 C 108.87448 49.368881 103.88392 41.199189 95.912111 43.777345 C 92.586278 34.559929 95.757882 27.996002 104.86719 27.404297 L 163.4375 27.404297 C 166.1584 27.404297 165.18484 29.662709 169.25196 31.773438 C 171.75297 33.071504 176.08985 32.753907 176.08985 32.753907 C 173.91279 30.394949 173.51239 26.933368 169.14258 27.498047 L 172.14844 25.085938 L 104.30469 25.085938 C 104.30469 25.085938 106.37688 21.271485 123.08594 21.271485 L 148.47657 21.271485 C 164.46543 21.271485 160.31964 19.396025 168.56055 19.84961 C 174.54467 20.178959 178.87688 26.486248 183.19141 30.800782 C 186.30104 33.910408 193.11329 34.796876 193.11329 34.796876 C 189.20247 29.632006 192.11833 20.546788 181.08985 19.470704 L 185.96485 15.613282 L 123.79688 15.613282 z M 358.50782 15.613282 L 363.38282 19.470704 C 352.35434 20.546788 355.27025 29.632006 351.35938 34.796876 C 351.35938 34.796876 358.17164 33.910408 361.28126 30.800782 C 365.5958 26.486248 369.92799 20.178835 375.91212 19.84961 C 384.15304 19.396065 380.00724 21.271485 395.9961 21.271485 L 421.38673 21.271485 C 438.09579 21.271485 440.16798 25.085938 440.16798 25.085938 L 372.32423 25.085938 L 375.33009 27.498047 C 370.96023 26.933368 370.55993 30.394949 368.38282 32.753907 C 368.38282 32.753907 372.71971 33.071422 375.22071 31.773438 C 379.28783 29.662709 378.31426 27.404297 381.03516 27.404297 L 439.60548 27.404297 C 448.71488 27.996002 451.88644 34.559929 448.56056 43.777345 C 440.58876 41.199189 435.59834 49.368881 435.76173 55.32422 C 435.87523 59.45768 434.22266 65.021486 434.22266 65.021486 L 450.84767 48.126954 L 482.81642 56.833986 C 474.88208 49.135594 481.56108 42.643185 460.72852 37.335938 C 459.40506 43.323749 468.35632 48.934818 458.49806 46.490235 L 454.47462 45.361329 C 455.36939 42.295846 459.21754 15.613282 420.67579 15.613282 L 358.50782 15.613282 z M 452.2422 52.033204 C 451.84738 52.034391 451.46243 52.191877 451.17579 52.478517 L 428.88282 74.771486 L 428.84571 74.808595 C 428.82811 74.825795 428.81524 74.84086 428.79884 74.86133 C 428.77384 74.88713 428.75312 74.912738 428.72852 74.941408 C 428.70612 74.971288 428.68447 75.000445 428.66407 75.033205 C 428.64637 75.057775 428.62969 75.084806 428.61329 75.109376 C 428.59409 75.14459 428.57305 75.179938 428.55665 75.216798 C 428.54435 75.238908 428.53379 75.260588 428.52149 75.285158 C 428.50389 75.32897 428.48692 75.37293 428.47462 75.41797 C 428.46652 75.43844 428.46113 75.46 428.45313 75.48047 L 428.45118 75.482423 L 428.45118 75.484376 L 428.45118 75.48633 C 428.43478 75.548572 428.42207 75.611903 428.41407 75.675783 C 428.40477 75.743349 428.40165 75.810938 428.40235 75.878908 C 428.40235 75.915759 428.40326 75.951423 428.40626 75.988283 C 428.40626 76.020643 428.40716 76.053179 428.41016 76.085939 C 428.41416 76.098229 428.41498 76.110768 428.41798 76.123048 C 428.42608 76.172603 428.43888 76.221213 428.45118 76.269533 L 428.45509 76.294923 L 436.61524 106.77344 C 436.68404 107.03081 436.8175 107.26673 437.00587 107.45508 C 437.1942 107.64345 437.43036 107.77886 437.68751 107.84766 L 468.16798 116.01367 L 468.19142 116.01758 C 468.23972 116.02988 468.2883 116.03692 468.3379 116.04492 C 468.3502 116.04892 468.36271 116.04974 468.37501 116.05274 C 468.40691 116.05374 468.43997 116.05762 468.47267 116.0586 C 468.50913 116.0596 468.54514 116.06152 468.58204 116.0625 C 468.65001 116.0625 468.71797 116.05683 468.78517 116.04883 C 468.84906 116.04063 468.91242 116.02812 468.97462 116.01172 L 468.97657 116.01172 L 468.97852 116.01172 L 468.98048 116.00977 C 469.00128 116.00577 469.02258 115.99824 469.04298 115.99024 C 469.08807 115.97664 469.13199 115.95976 469.17579 115.94336 C 469.19879 115.93526 469.22375 115.92246 469.24415 115.91016 C 469.28096 115.89506 469.31477 115.87587 469.35157 115.85547 C 469.37697 115.83787 469.40314 115.82109 469.42774 115.80469 C 469.45924 115.78469 469.49084 115.76484 469.51954 115.74024 C 469.54704 115.71724 469.57502 115.69452 469.59962 115.66992 C 469.61682 115.65632 469.63791 115.63945 469.65431 115.62305 L 469.68556 115.58594 L 491.97853 93.292971 C 492.36282 92.910799 492.51031 92.354208 492.3711 91.832033 L 484.20704 61.359376 L 484.20704 61.35547 L 484.20509 61.351564 L 484.20118 61.332032 C 484.19718 61.311152 484.18965 61.290002 484.18165 61.269532 C 484.16775 61.228584 484.15508 61.189379 484.13868 61.148439 L 484.13868 61.144532 C 484.11488 61.088433 484.08535 61.0337 484.05665 60.98047 C 484.03575 60.945669 484.01484 60.909714 483.99024 60.876954 C 483.97254 60.852384 483.95586 60.829259 483.93946 60.804689 C 483.89976 60.752686 483.85686 60.700978 483.81056 60.654298 C 483.76388 60.608031 483.71462 60.566342 483.66212 60.525392 C 483.63842 60.507782 483.6125 60.490991 483.5879 60.474611 C 483.55473 60.450851 483.52324 60.428674 483.48634 60.408204 C 483.43311 60.377894 483.37878 60.350743 483.32228 60.326173 L 483.31642 60.326173 C 483.2767 60.308163 483.23632 60.297437 483.19532 60.285157 C 483.17492 60.276977 483.15518 60.271873 483.13478 60.263673 L 483.11329 60.259767 L 483.10938 60.257814 L 483.10548 60.257814 L 452.63282 52.093751 C 452.5022 52.058131 452.36973 52.040648 452.23829 52.041017 L 452.2422 52.033204 z M 92.226564 52.041017 C 92.09471 52.040607 91.962659 52.060991 91.832033 52.093751 L 61.361329 60.257814 L 61.357423 60.257814 L 61.351564 60.259767 L 61.332032 60.263673 C 61.311142 60.267763 61.290002 60.275004 61.269532 60.283204 C 61.228585 60.297134 61.189389 60.309793 61.148439 60.326173 L 61.144532 60.326173 C 61.088432 60.349923 61.0337 60.379534 60.98047 60.408204 C 60.945669 60.429504 60.909714 60.450041 60.876954 60.474611 C 60.852384 60.492221 60.829259 60.509022 60.804689 60.525392 C 60.752686 60.565109 60.702931 60.608028 60.656251 60.654298 C 60.609984 60.70098 60.568285 60.750326 60.527345 60.802736 C 60.509735 60.826496 60.492934 60.852384 60.476564 60.876954 C 60.452804 60.910125 60.428674 60.941657 60.408204 60.978517 C 60.377894 61.03134 60.352696 61.086479 60.328126 61.142579 L 60.328126 61.146486 C 60.314206 61.186203 60.297447 61.228172 60.285157 61.269532 C 60.276977 61.290002 60.271873 61.309609 60.263673 61.330079 L 60.259767 61.351564 L 60.257814 61.35547 L 60.257814 61.359376 L 52.093751 91.832033 C 51.954403 92.354208 52.10428 92.910922 52.486329 93.292971 L 74.779298 115.58594 L 74.812501 115.62305 C 74.829691 115.64065 74.846719 115.65157 74.867189 115.66797 C 74.892989 115.69297 74.916654 115.71564 74.945314 115.74024 C 74.975204 115.76274 75.006304 115.78429 75.039064 115.80469 C 75.063634 115.82229 75.088713 115.83712 75.113283 115.85352 C 75.148497 115.87272 75.185798 115.89376 75.222658 115.91016 C 75.244768 115.92246 75.264494 115.93106 75.289064 115.94336 C 75.332877 115.96086 75.376836 115.97794 75.421876 115.99024 C 75.442346 115.99834 75.463906 116.00177 75.484376 116.00977 L 75.48633 116.01172 L 75.488283 116.01172 L 75.490236 116.01172 C 75.552478 116.03232 75.615809 116.04474 75.679689 116.05274 C 75.747254 116.06204 75.814844 116.06515 75.882814 116.06446 C 75.919665 116.06446 75.955339 116.06355 75.992189 116.06055 C 76.024549 116.06055 76.057085 116.05964 76.089845 116.05664 C 76.102135 116.05264 76.114665 116.05183 76.126955 116.04883 C 76.1765 116.04473 76.225129 116.03183 76.273439 116.01953 L 76.29883 116.01563 L 106.77735 107.85156 C 107.03466 107.78277 107.27063 107.64735 107.45899 107.45899 C 107.64736 107.27066 107.78081 107.0345 107.84961 106.77735 L 116.01563 76.29883 L 116.01953 76.273439 C 116.03183 76.224704 116.04083 76.176505 116.04883 76.126955 C 116.05283 76.114665 116.05364 76.102135 116.05664 76.089845 C 116.05764 76.057905 116.05956 76.024949 116.06055 75.992189 C 116.06555 75.955748 116.06738 75.919674 116.06836 75.882814 C 116.06836 75.814839 116.06464 75.746849 116.05664 75.679689 C 116.04844 75.615399 116.03593 75.552476 116.01953 75.490236 L 116.01953 75.488283 L 116.01953 75.48633 L 116.01758 75.484376 C 116.01358 75.463496 116.00605 75.442346 115.99805 75.421876 C 115.98445 75.376824 115.96757 75.332874 115.95117 75.289064 C 115.94307 75.266134 115.93027 75.241175 115.91797 75.220705 C 115.89877 75.183851 115.88368 75.150143 115.86328 75.113283 C 115.84568 75.087903 115.8289 75.061681 115.8125 75.037111 C 115.7925 75.005581 115.76845 74.973984 115.74805 74.945314 C 115.72505 74.917874 115.70038 74.889806 115.67578 74.865236 C 115.66218 74.848036 115.64726 74.828881 115.63086 74.812501 L 115.59375 74.779298 L 93.300783 52.486329 C 93.014144 52.199812 92.62912 52.042217 92.234377 52.041017 L 92.226564 52.041017 z M 90.089846 55.697267 L 87.728517 64.507814 L 68.878908 61.380861 L 90.089846 55.697267 z M 454.38282 55.697267 L 475.59376 61.380861 L 456.74415 64.507814 L 454.38282 55.697267 z M 93.015627 56.48047 L 108.53906 72.005861 L 90.652346 65.291017 L 93.015627 56.48047 z M 451.45899 56.48047 L 453.82032 65.291017 L 435.9336 72.005861 L 451.45899 56.48047 z M 56.833986 61.656251 C 49.135594 69.590587 42.641232 62.911575 37.333985 83.744142 C 43.321795 85.067556 48.934817 76.116352 46.490235 85.974611 L 45.361329 89.998049 C 42.295846 89.103284 15.611328 85.255126 15.611328 123.79688 L 15.611328 185.96485 L 19.470704 181.08985 C 20.546788 192.11833 29.632007 189.20247 34.796876 193.11329 C 34.796876 193.11329 33.910407 186.30105 30.800782 183.19141 C 26.486248 178.87689 20.178836 174.54469 19.84961 168.56055 C 19.396066 160.31964 21.271485 164.46543 21.271485 148.47657 L 21.271485 123.08594 C 21.271485 106.37689 25.083985 104.30469 25.083985 104.30469 L 25.083985 172.14844 L 27.498047 169.14258 C 26.933368 173.51239 30.394948 173.91278 32.753907 176.08985 C 32.753907 176.08985 33.071422 171.75297 31.773438 169.25196 C 29.662709 165.18484 27.404297 166.1584 27.404297 163.4375 L 27.404297 104.86719 C 27.996002 95.757793 34.559931 92.586278 43.777345 95.912111 C 41.199191 103.88391 49.368881 108.87432 55.32422 108.71094 C 59.457679 108.59743 65.021486 110.25 65.021486 110.25 L 48.126954 93.625002 L 56.833986 61.656251 z M 487.63868 61.656251 L 496.34571 93.625002 L 479.45118 110.25 C 479.45118 110.25 485.01499 108.59752 489.14845 108.71094 C 495.10379 108.87449 503.27347 103.88391 500.69532 95.912111 C 509.91273 92.586278 516.47666 95.757874 517.06837 104.86719 L 517.06837 163.4375 C 517.06837 166.1584 514.80996 165.18484 512.69923 169.25196 C 511.40116 171.75297 511.71876 176.08985 511.71876 176.08985 C 514.07772 173.91278 517.53929 173.51239 516.97462 169.14258 L 519.38868 172.14844 L 519.38868 104.30469 C 519.38868 104.30469 523.20118 106.37689 523.20118 123.08594 L 523.20118 148.47657 C 523.20118 164.46543 525.07661 160.31964 524.62306 168.56055 C 524.29367 174.54469 517.98642 178.87689 513.67189 183.19141 C 510.56226 186.30105 509.67579 193.11329 509.67579 193.11329 C 514.84071 189.20247 523.92592 192.11833 525.00196 181.08985 L 528.86134 185.96485 L 528.86134 123.79688 C 528.86134 85.255126 502.17686 89.103284 499.11134 89.998049 L 497.98243 85.974611 C 495.53781 76.116352 501.15083 85.067556 507.13868 83.744142 C 501.83139 62.911575 495.33712 69.590587 487.63868 61.656251 z M 63.568361 63.568361 L 85.681642 67.238283 L 76.460939 76.460939 L 67.238283 85.681642 L 63.568361 63.568361 z M 480.90431 63.568361 L 477.23438 85.681642 L 468.01173 76.460939 L 458.79102 67.238283 L 480.90431 63.568361 z M 91.060549 68.679689 L 112.04688 76.556642 L 97.812502 93.875002 L 91.060549 68.679689 z M 453.41212 68.679689 L 446.66017 93.875002 L 432.42579 76.556642 L 453.41212 68.679689 z M 234.61915 68.740236 C 233.89171 68.78627 233.14907 68.877945 232.39063 69.015626 C 231.46821 69.183077 230.55629 69.464676 229.6543 69.86133 C 228.77281 70.254262 227.94747 70.723592 227.17774 71.265626 C 226.40801 71.807661 225.71463 72.419823 225.09766 73.103517 C 224.50119 73.78349 224.01528 74.486184 223.63868 75.210939 L 224.63282 76.140627 C 224.75398 75.991589 224.94617 75.766642 225.20899 75.464845 C 225.48859 75.138829 225.84939 74.799146 226.29297 74.443361 C 226.73284 74.067077 227.26213 73.716639 227.88086 73.39258 C 228.5201 73.064799 229.25038 72.826581 230.07032 72.677736 C 231.5052 72.417257 232.90372 72.543923 234.26758 73.058595 C 235.65194 73.569546 236.94278 74.3835 238.14063 75.500001 C 239.35898 76.612781 240.47932 77.997463 241.5 79.654298 C 242.51696 81.290635 243.40639 83.097043 244.16797 85.076174 C 243.8885 84.936342 243.5773 84.802498 243.23633 84.67383 C 242.89165 84.524664 242.50029 84.405972 242.06055 84.316408 C 241.62082 84.226844 241.11503 84.18171 240.54297 84.179689 C 239.96719 84.15717 239.32976 84.207468 238.63282 84.333986 C 236.82897 84.661445 235.18463 85.34114 233.69922 86.373049 C 232.2101 87.384459 230.97687 88.699255 230 90.316408 C 229.01942 91.913063 228.34398 93.782988 227.97071 95.925783 C 227.61794 98.064858 227.67567 100.42503 228.14454 103.00781 C 228.68782 106.00057 229.56694 108.45724 230.78321 110.375 C 231.99575 112.27227 233.37342 113.73679 234.91602 114.76953 C 236.47912 115.79856 238.12215 116.45244 239.84571 116.73242 C 241.58604 116.98819 243.24585 116.97403 244.82422 116.6875 C 247.09954 116.27446 249.06142 115.47355 250.70899 114.28516 C 252.37333 113.07255 253.68426 111.48968 254.64258 109.53711 C 255.59718 107.56404 256.17933 105.23392 256.39063 102.54883 C 256.62243 99.860022 256.43235 96.825584 255.81836 93.443361 C 255.05925 89.261705 253.97849 85.529865 252.57813 82.248049 C 251.17777 78.966232 249.49014 76.254953 247.51368 74.115236 C 245.53721 71.975519 243.28202 70.457628 240.74805 69.562501 C 238.84479 68.875783 236.80145 68.602132 234.61915 68.740236 z M 61.380861 68.878908 L 64.507814 87.728517 L 55.697267 90.089846 L 61.380861 68.878908 z M 483.09181 68.878908 L 488.7754 90.089846 L 479.96485 87.728517 L 483.09181 68.878908 z M 88.050783 69.152345 L 94.968752 94.968752 L 69.152345 88.050783 L 78.601564 78.601564 L 88.050783 69.152345 z M 456.42188 69.152345 L 465.8711 78.601564 L 475.32032 88.050783 L 449.50392 94.968752 L 456.42188 69.152345 z M 288.23633 75.851564 C 287.88222 75.845255 287.55995 75.860021 287.26758 75.896486 C 286.97559 75.912121 286.68336 75.948566 286.39063 76.005861 C 286.0979 76.063156 285.77236 76.152814 285.41602 76.271486 C 285.06006 76.369327 284.65227 76.485402 284.19141 76.623048 L 284.17579 77.529298 C 284.90484 77.542287 285.49243 77.814837 285.94141 78.343752 C 286.41123 78.873037 286.63864 79.574359 286.62305 80.44922 C 286.61118 81.115781 286.47473 81.7793 286.2129 82.441408 C 285.95106 83.103516 285.61748 83.73306 285.21094 84.33008 C 283.97895 83.307973 282.55371 82.543194 280.93751 82.035158 C 279.3213 81.527122 277.60714 81.256896 275.79493 81.224611 C 273.98271 81.192326 272.24898 81.43305 270.59376 81.945314 C 268.93891 82.436748 267.47809 83.212543 266.20899 84.273439 C 264.94026 85.313505 263.91713 86.628199 263.13868 88.218752 C 262.38142 89.788846 261.98317 91.637058 261.94532 93.761721 C 261.92231 95.053182 262.03599 96.252514 262.28711 97.36133 C 262.55907 98.470517 262.93633 99.488637 263.41993 100.41406 C 263.92472 101.31903 264.52548 102.1431 265.22071 102.88477 C 265.93714 103.60598 266.71738 104.22315 267.56251 104.73828 C 267.07785 105.0422 266.57189 105.41821 266.04297 105.86719 C 265.53526 106.29571 265.05683 106.78718 264.60938 107.3418 C 264.18313 107.87596 263.82955 108.47498 263.54688 109.13672 C 263.26459 109.77763 263.1153 110.4832 263.10157 111.25391 C 263.07559 112.71201 263.39851 113.88438 264.07032 114.77149 C 264.76258 115.6798 265.62645 116.36238 266.66016 116.81836 C 265.94563 117.15985 265.24132 117.52273 264.54688 117.90625 C 263.85207 118.31061 263.21976 118.7562 262.64844 119.2461 C 262.09758 119.7572 261.64873 120.31203 261.30469 120.91016 C 260.96028 121.52912 260.78252 122.20455 260.76954 122.9336 C 260.75135 123.95427 261.05867 124.83367 261.69141 125.57422 C 262.32415 126.31478 263.22906 126.92489 264.40821 127.4043 C 265.58736 127.88371 267.01961 128.24211 268.70313 128.48047 C 270.40711 128.74003 272.32066 128.88989 274.44532 128.92774 C 275.6118 128.94852 276.83224 128.89661 278.10547 128.77344 C 279.39953 128.65064 280.66353 128.43444 281.89844 128.12305 C 283.15381 127.83286 284.33791 127.43663 285.45118 126.93555 C 286.58491 126.45567 287.57569 125.85874 288.42188 125.14453 C 289.28853 124.45153 289.97911 123.63092 290.4961 122.68164 C 291.01272 121.7532 291.28159 120.69513 291.30274 119.50781 C 291.33169 117.88307 291.02338 116.55403 290.37501 115.52149 C 289.72663 114.48894 288.85533 113.67127 287.76172 113.06836 C 286.66849 112.44462 285.42632 111.99553 284.03516 111.72071 C 282.64437 111.42505 281.20988 111.22295 279.73243 111.11328 C 278.27618 110.98316 276.84995 110.88488 275.45508 110.81836 C 274.06021 110.75184 272.81392 110.62381 271.7129 110.4375 C 270.61187 110.25119 269.7302 109.96494 269.07032 109.57813 C 268.41044 109.19131 268.08784 108.61251 268.10157 107.8418 C 268.10973 107.38354 268.23099 106.96852 268.4668 106.59766 C 268.72344 106.22717 269.02165 105.92176 269.35938 105.67774 C 270.24876 106.0478 271.20142 106.33536 272.21876 106.54102 C 273.23609 106.74667 274.27556 106.85803 275.3379 106.87696 C 277.15011 106.90924 278.88543 106.66005 280.54102 106.12696 C 282.19698 105.57303 283.65985 104.74318 284.92969 103.64063 C 286.19953 102.53807 287.21234 101.17165 287.97071 99.539064 C 288.74991 97.906852 289.15905 96.016588 289.19727 93.871096 C 289.2277 92.163033 289.01589 90.638534 288.56055 89.296877 C 288.10521 87.95522 287.44885 86.777148 286.5918 85.76172 C 287.07757 85.395315 287.58558 84.967207 288.11524 84.476564 C 288.66573 83.986292 289.16388 83.462823 289.61133 82.908205 C 290.05878 82.353587 290.43395 81.778565 290.73633 81.179689 C 291.03909 80.559984 291.1959 79.937402 291.20704 79.312502 C 291.22596 78.25017 290.9807 77.412178 290.47071 76.79883 C 289.96072 76.185481 289.21535 75.869005 288.23633 75.851564 z M 111.28711 82.250002 L 105.60352 103.46094 L 99.152346 97.011721 L 111.28711 82.250002 z M 433.18556 82.250002 L 445.32032 97.011721 L 438.86915 103.46094 L 433.18556 82.250002 z M 275.74415 84.162111 C 276.59818 84.177326 277.29071 84.470911 277.82227 85.04297 C 278.3542 85.5942 278.76797 86.3214 279.06446 87.222658 C 279.36095 88.123916 279.56145 89.147046 279.66602 90.294924 C 279.77059 91.442802 279.81254 92.621938 279.79102 93.83008 C 279.76913 95.059052 279.68362 96.276509 279.53711 97.482424 C 279.39061 98.688339 279.15412 99.776557 278.82422 100.75 C 278.4947 101.70262 278.05235 102.47785 277.50001 103.07227 C 276.94766 103.66669 276.24466 103.95467 275.39063 103.93946 C 274.5366 103.92424 273.84407 103.63066 273.31251 103.0586 C 272.78132 102.46571 272.36802 101.69878 272.07227 100.75586 C 271.77652 99.812944 271.57649 98.746181 271.47266 97.556643 C 271.36883 96.367104 271.32772 95.158661 271.34961 93.929689 C 271.37114 92.721548 271.45581 91.535351 271.60157 90.371096 C 271.7477 89.186011 271.98373 88.137519 272.31251 87.226564 C 272.64166 86.294779 273.08317 85.552764 273.63477 85.000002 C 274.18674 84.426409 274.89011 84.146896 275.74415 84.162111 z M 309.94532 85.503908 C 308.6579 85.555949 307.35731 85.775223 306.04297 86.162111 C 304.73287 86.5286 303.4399 87.069172 302.16407 87.783205 C 300.90864 88.50147 299.74406 89.397621 298.66993 90.472658 C 297.6162 91.551928 296.69318 92.818515 295.90235 94.271486 C 295.11151 95.724457 294.52382 97.378078 294.13868 99.234377 C 293.6054 101.80464 293.52699 104.12871 293.9043 106.20703 C 294.30202 108.28959 295.02166 110.11002 296.06055 111.66602 C 297.09944 113.22202 298.38656 114.50018 299.92383 115.5 C 301.48574 116.48366 303.15499 117.15913 304.92969 117.52735 C 306.7044 117.89556 308.32869 118.00972 309.80469 117.86914 C 311.28493 117.70817 312.61329 117.40957 313.78907 116.97266 C 314.96908 116.51535 316.00358 115.98521 316.89454 115.38281 C 317.7855 114.78042 318.53244 114.2108 319.13282 113.67578 L 318.51954 112.78321 C 317.94108 113.11001 317.36687 113.41713 316.79688 113.70313 C 316.23113 113.96873 315.65408 114.18774 315.06446 114.36328 C 314.47483 114.53883 313.85677 114.64542 313.21094 114.68164 C 312.56512 114.71786 311.88584 114.66181 311.17188 114.51367 C 310.15194 114.30206 309.24607 113.9436 308.45704 113.43946 C 307.668 112.93531 306.97469 112.33367 306.37501 111.63477 C 305.79572 110.9401 305.30141 110.1887 304.89454 109.38086 C 304.5123 108.55686 304.21807 107.72048 304.01172 106.86914 C 303.80537 106.0178 303.68021 105.19357 303.63282 104.39649 C 303.61006 103.58324 303.66535 102.85003 303.80079 102.19727 L 317.36719 97.576174 C 318.40365 97.195462 319.27506 96.683456 319.98243 96.042971 C 320.69403 95.382087 321.14874 94.572031 321.34766 93.613283 C 321.51273 92.817726 321.48663 92.026474 321.26758 91.23633 C 321.05277 90.425787 320.62487 89.666354 319.98438 88.958986 C 319.3643 88.255851 318.52688 87.623618 317.47266 87.064455 C 316.41844 86.505292 315.13648 86.069057 313.62696 85.755861 C 312.48462 85.518848 311.25737 85.435701 309.94532 85.503908 z M 350.07032 86.183595 C 349.59513 86.192723 349.13309 86.259352 348.6836 86.382814 C 348.10328 86.55597 347.57846 86.833763 347.10938 87.216799 C 346.66784 87.589373 346.32703 88.042155 346.0879 88.574221 C 345.84023 89.125289 345.72377 89.690036 345.73829 90.26758 C 345.77181 90.853664 345.91805 91.421772 346.17383 91.970705 C 346.45716 92.509176 346.82609 93.006195 347.28321 93.462892 C 347.75934 93.92813 348.33102 94.310463 348.9961 94.609377 C 349.64218 94.89975 350.28663 95.062919 350.93165 95.101564 C 351.59566 95.14875 352.21338 95.095562 352.78516 94.941408 C 353.36548 94.768252 353.87683 94.495623 354.31837 94.123049 C 354.77891 93.759015 355.13319 93.30107 355.38087 92.750002 C 355.62 92.217936 355.72298 91.660305 355.68946 91.074221 C 355.68348 90.477675 355.55267 89.904404 355.29688 89.355471 C 355.0411 88.806537 354.67535 88.299224 354.19923 87.833986 C 353.7421 87.377289 353.18906 87.003266 352.54298 86.712892 C 351.87789 86.413979 351.2148 86.240547 350.55079 86.193361 C 350.38954 86.1837 350.22872 86.180553 350.07032 86.183595 z M 240.79102 87.48633 C 241.45032 87.465898 242.03908 87.606749 242.55469 87.910158 C 243.25895 88.290484 243.91417 88.754642 244.52149 89.300783 C 244.90326 90.12078 245.23666 91.023956 245.52149 92.009767 C 245.80632 92.995579 246.05114 93.935596 246.25586 94.83008 C 246.45687 95.704065 246.61958 96.488606 246.7461 97.185549 L 246.99219 98.539064 C 248.69275 107.9068 247.90278 112.889 244.62305 113.48438 C 243.84412 113.62578 243.11119 113.4297 242.42188 112.89844 C 241.75307 112.36346 241.13009 111.55554 240.55274 110.47461 C 239.99588 109.38996 239.47864 108.06538 239.00391 106.5 C 238.54968 104.9309 238.14862 103.1827 237.79883 101.25586 C 237.00251 96.869222 236.7842 93.564634 237.14258 91.339846 C 237.52147 89.111336 238.51051 87.850796 240.10938 87.560549 C 240.34511 87.517756 240.57125 87.49314 240.79102 87.48633 z M 310.60352 88.427736 C 310.78018 88.435134 310.95899 88.458004 311.14258 88.496096 C 311.71375 88.614602 312.16626 88.899737 312.49805 89.351564 C 312.82985 89.803392 313.07175 90.333664 313.22266 90.939455 C 313.37357 91.545246 313.43351 92.174599 313.4043 92.828127 C 313.39973 93.465488 313.3441 94.038858 313.23829 94.54883 C 313.14094 95.018005 313.02931 95.408973 312.9004 95.722658 C 312.79611 96.020177 312.66809 96.271385 312.51954 96.474611 C 312.37522 96.657438 312.19597 96.810449 311.97852 96.935549 C 311.7857 97.044482 311.53929 97.15355 311.24024 97.261721 L 304.01563 99.625002 C 304.13414 99.053833 304.28883 98.362506 304.47852 97.550783 C 304.67245 96.718661 304.91296 95.864672 305.20118 94.988283 C 305.4894 94.111894 305.81606 93.253125 306.18165 92.414064 C 306.57186 91.558837 307.00238 90.819205 307.47266 90.193361 C 307.96334 89.571749 308.50858 89.09796 309.10743 88.775392 C 309.57504 88.521342 310.07354 88.405543 310.60352 88.427736 z M 178.01172 89.589846 C 177.82074 89.581525 177.62095 89.583696 177.41407 89.597658 C 176.57639 89.635309 175.56756 89.983205 174.38477 90.64258 C 173.6205 91.068638 172.93807 91.556219 172.33789 92.105471 C 171.73772 92.654722 171.19933 93.230421 170.72266 93.83008 C 170.26419 94.419594 169.87537 95.028428 169.5586 95.658205 C 169.23168 96.269785 168.95626 96.866258 168.73047 97.445314 L 169.64063 97.794924 C 169.7838 97.45274 169.93979 97.175607 170.10743 96.962893 C 170.28312 96.721837 170.52464 96.514251 170.83399 96.341799 C 171.41628 96.017183 171.93871 95.989361 172.39844 96.257814 C 172.86622 96.497927 173.24684 96.882452 173.54102 97.410158 L 193.16993 132.6211 C 193.28151 132.82126 193.45618 133.07008 193.69336 133.36719 C 193.94875 133.65415 194.28959 133.88151 194.7168 134.04883 C 195.1622 134.20601 195.71909 134.24027 196.38672 134.1543 C 197.0645 134.08653 197.88518 133.78374 198.84961 133.2461 C 199.81404 132.70845 200.51857 132.17346 200.96094 131.64063 C 201.43165 131.11585 201.73054 130.62729 201.85938 130.17383 C 202.00642 129.71023 202.02583 129.2939 201.91602 128.92578 C 201.82441 128.54752 201.71196 128.24047 201.58008 128.00391 L 181.75391 92.439455 C 181.53074 92.039126 181.23964 91.6037 180.88282 91.134767 C 180.53404 90.637494 180.07858 90.247313 179.51563 89.964846 C 179.08581 89.739348 178.58467 89.614806 178.01172 89.589846 z M 65.291017 90.652346 L 72.005861 108.53906 L 56.48047 93.013674 L 65.291017 90.652346 z M 479.18165 90.652346 L 487.9922 93.013674 L 472.46681 108.53906 L 479.18165 90.652346 z M 68.679689 91.060549 L 93.875002 97.812502 L 76.556642 112.04688 L 68.679689 91.060549 z M 475.79298 91.060549 L 467.91602 112.04688 L 450.59767 97.812502 L 475.79298 91.060549 z M 214.86329 91.333986 C 214.34047 91.295836 213.78199 91.30257 213.1875 91.353517 C 211.99853 91.455413 210.68422 91.784387 209.2461 92.339846 C 208.15779 92.760193 207.08101 93.354225 206.01563 94.123049 C 204.96218 94.864933 203.98824 95.755153 203.09375 96.792971 C 202.19176 97.811354 201.39957 98.966017 200.71485 100.25781 C 200.04956 101.54211 199.55582 102.92638 199.23633 104.41211 C 198.93628 105.89033 198.84917 107.45584 198.97266 109.10547 C 199.09615 110.75511 199.49858 112.46392 200.18164 114.23242 C 201.12743 116.68112 202.32155 118.67523 203.76563 120.2168 C 205.22914 121.75086 206.82044 122.89082 208.53711 123.63477 C 210.25379 124.37872 212.02949 124.75339 213.86329 124.75977 C 215.70901 124.73921 217.47721 124.40304 219.16797 123.75 C 220.85874 123.09696 222.28533 122.31112 223.44922 121.39258 C 224.60561 120.45461 225.55961 119.48323 226.31055 118.47852 C 227.05399 117.45438 227.6367 116.44632 228.0586 115.45703 C 228.4805 114.46775 228.79743 113.58565 229.01172 112.81055 L 228.01368 112.39258 C 227.70489 112.98085 227.38826 113.55021 227.06446 114.09961 C 226.73315 114.62957 226.367 115.12847 225.9668 115.59571 C 225.5666 116.06294 225.10501 116.48653 224.58204 116.86719 C 224.05906 117.24785 223.45754 117.56932 222.77735 117.83203 C 221.80564 118.20734 220.85235 118.39803 219.91602 118.40235 C 218.97969 118.40666 218.07037 118.27763 217.1875 118.01563 C 216.32408 117.74612 215.50259 117.38192 214.72266 116.92383 C 213.95466 116.4388 213.25224 115.8944 212.61719 115.29102 C 211.98214 114.68763 211.42911 114.06392 210.95704 113.41992 C 210.49689 112.74898 210.14645 112.10236 209.90625 111.48047 L 218.79688 100.24024 C 219.46124 99.358302 219.91708 98.456888 220.16407 97.535158 C 220.40355 96.593994 220.34694 95.667311 219.99414 94.753908 C 219.7014 93.995978 219.24925 93.343912 218.63672 92.79883 C 218.01669 92.234314 217.24595 91.829025 216.32422 91.582033 C 215.87308 91.454784 215.3861 91.372137 214.86329 91.333986 z M 209.45508 95.826174 C 209.72207 95.823553 209.98615 95.872813 210.24805 95.972658 C 210.77184 96.172348 211.26149 96.484971 211.7168 96.912111 C 212.17211 97.339252 212.56467 97.835466 212.89454 98.400393 C 213.23633 98.938379 213.49985 99.451649 213.6875 99.937502 C 213.86015 100.38449 213.97727 100.77396 214.03907 101.10742 C 214.11279 101.41395 214.14351 101.69206 214.12891 101.94336 C 214.1068 102.17523 214.03869 102.40393 213.92383 102.62696 C 213.8209 102.82304 213.67307 103.04773 213.48047 103.30078 L 208.69141 109.20313 C 208.48124 108.65897 208.2359 107.99386 207.95508 107.20899 C 207.66676 106.40468 207.40498 105.5567 207.17188 104.66406 C 206.93878 103.77143 206.74943 102.87393 206.60157 101.97071 C 206.46563 101.04054 206.42474 100.18516 206.48047 99.404299 C 206.55564 98.615934 206.75772 97.923898 207.08594 97.328127 C 207.42609 96.705415 207.94686 96.258506 208.64649 95.988283 C 208.91857 95.883196 209.1881 95.828795 209.45508 95.826174 z M 343.01368 96.101564 C 342.26704 96.085764 341.53756 96.132722 340.82423 96.246096 C 340.13843 96.349007 339.49581 96.483824 338.89649 96.648439 L 339.17579 97.630861 C 339.53577 97.541401 339.8555 97.490047 340.13477 97.478518 C 340.41404 97.466988 340.71408 97.534503 341.03712 97.679689 C 341.64519 97.952982 341.97993 98.353738 342.03907 98.882814 C 342.12575 99.401429 342.04455 99.935262 341.79688 100.48633 L 331.90626 122.49219 C 331.81231 122.70122 331.71782 122.98976 331.6211 123.35742 C 331.54338 123.73363 331.575 124.14651 331.71485 124.59766 C 331.8547 125.0488 332.15742 125.51576 332.62501 126 C 333.08405 126.50324 333.8171 126.98291 334.82423 127.43555 C 335.83135 127.88819 336.6815 128.13125 337.37305 128.16797 C 338.05607 128.2237 338.61792 128.16935 339.0586 128.00196 C 339.52683 127.8241 339.87574 127.58132 340.10548 127.27344 C 340.36275 126.9551 340.54718 126.67086 340.65821 126.42383 L 350.67579 104.13477 C 350.86368 103.71672 351.04319 103.21414 351.21485 102.62891 C 351.40552 102.05222 351.44547 101.45423 351.33594 100.83399 C 351.23495 100.19474 350.91586 99.560184 350.37696 98.929689 C 349.8466 98.280193 348.96368 97.678174 347.72852 97.123049 C 346.93042 96.764352 346.13099 96.508985 345.33204 96.355471 C 344.53309 96.201957 343.76032 96.117365 343.01368 96.101564 z M 97.011721 99.152346 L 103.46094 105.60352 L 82.250002 111.28711 L 97.011721 99.152346 z M 447.46095 99.152346 L 462.22267 111.28711 L 441.01173 105.60352 L 447.46095 99.152346 z M 361.87696 105.74024 C 361.6003 105.73665 361.32408 105.74593 361.04884 105.76758 C 359.96568 105.86501 358.93824 106.19265 357.9668 106.74805 C 357.01317 107.31427 356.19537 108.15771 355.51368 109.2793 C 354.90773 110.27626 354.54534 111.3721 354.42774 112.56836 C 354.31015 113.76463 354.3244 115.00554 354.47071 116.28906 C 354.61702 117.57259 354.83356 118.86121 355.11915 120.15625 C 355.40473 121.45129 355.65206 122.68658 355.86329 123.86328 C 356.07452 125.03999 356.18217 126.12848 356.1836 127.12891 C 356.19585 128.11154 355.99517 128.94263 355.58399 129.61914 C 354.8482 130.82974 353.88125 131.49769 352.6836 131.62305 C 351.49677 131.7306 350.26424 131.39431 348.98243 130.61524 C 348.46614 130.30144 348.00657 129.91242 347.60548 129.44922 C 347.2152 128.96822 346.87848 128.45943 346.59571 127.92188 C 346.33075 127.39514 346.11157 126.87258 345.93946 126.35352 C 345.77817 125.81666 345.66289 125.34326 345.59376 124.93555 L 344.25391 125.03516 C 344.27523 125.68198 344.38812 126.45815 344.59376 127.36328 C 344.79939 128.26841 345.12835 129.21179 345.58008 130.19336 C 346.06044 131.16795 346.69211 132.13565 347.47266 133.09766 C 348.26404 134.04186 349.27356 134.88815 350.50196 135.63477 C 351.90839 136.48959 353.28874 137.08542 354.64454 137.42188 C 356.02896 137.75135 357.33352 137.81286 358.55665 137.60547 C 359.79758 137.4089 360.93358 136.9404 361.9668 136.20313 C 363.01783 135.47668 363.93382 134.47322 364.7129 133.19141 C 365.40541 132.05202 365.79706 130.82639 365.88673 129.51563 C 365.99419 128.21569 365.92869 126.89818 365.69337 125.56055 C 365.48667 124.21594 365.17772 122.881 364.76368 121.55664 C 364.37826 120.22531 364.02502 118.96278 363.70313 117.76758 C 363.40987 116.5654 363.21058 115.46882 363.10548 114.47852 C 363.02899 113.48123 363.20105 112.63572 363.62305 111.94141 C 363.92603 111.44293 364.26595 111.06336 364.64259 110.80469 C 365.03004 110.52821 365.43582 110.36105 365.86134 110.30274 C 366.29767 110.22662 366.72746 110.24392 367.14844 110.35352 C 367.58723 110.47393 368.01046 110.65738 368.41993 110.90625 C 369.25667 111.41482 369.85104 111.98406 370.20118 112.61133 C 370.56214 113.22079 370.59009 113.773 370.28712 114.27149 C 370.18973 114.43171 370.01076 114.50635 369.75001 114.49414 C 369.51788 114.47495 369.24379 114.467 368.92579 114.46875 C 368.61861 114.45271 368.30225 114.49133 367.97657 114.58594 C 367.66869 114.69137 367.40107 114.93083 367.17384 115.30469 C 366.82758 115.87438 366.74753 116.44713 366.9336 117.02344 C 367.1483 117.59276 367.63683 118.11089 368.40235 118.57617 C 369.20348 119.0631 369.97852 119.19281 370.72657 118.96485 C 371.47462 118.73688 372.05367 118.28394 372.46485 117.60742 C 372.99506 116.73508 373.26475 115.84989 373.27344 114.95313 C 373.29994 114.06719 373.0872 113.19603 372.63477 112.33594 C 372.21097 111.46887 371.57393 110.62908 370.72462 109.82031 C 369.8753 109.01155 368.85491 108.24646 367.66212 107.52149 C 366.62955 106.8939 365.53706 106.42357 364.38477 106.11328 C 363.54202 105.87533 362.70694 105.75101 361.87696 105.74024 z M 168.69141 112.15235 C 168.65021 112.15402 168.60954 112.15959 168.57032 112.16602 C 168.25649 112.21744 167.87064 112.44027 167.41407 112.83594 C 167.24088 112.98602 167.03348 113.20718 166.79102 113.5 C 166.5643 113.77918 166.3655 114.08949 166.19336 114.43164 C 166.03697 114.76015 165.9314 115.08509 165.87891 115.40625 C 165.82642 115.72742 165.90277 116.00603 166.10743 116.24219 C 166.32573 116.49409 166.63618 116.70843 167.03711 116.88477 C 167.4244 117.04537 167.89416 117.28533 168.44727 117.60547 C 169.00248 117.89622 169.64467 118.31885 170.37305 118.87305 C 171.10143 119.42725 171.91592 120.22457 172.81641 121.26367 C 174.12622 122.7751 175.30083 124.32166 176.33985 125.90235 C 177.39461 127.46939 178.22709 128.93965 178.83789 130.3125 C 179.44869 131.68536 179.81127 132.90011 179.92774 133.95703 C 180.0442 135.01395 179.83608 135.77439 179.30078 136.23828 C 178.79698 136.67489 178.06809 136.72638 177.11719 136.39258 C 176.16839 136.0294 174.98449 135.34614 173.56446 134.34375 C 172.14443 133.34136 170.48712 132.03408 168.59375 130.42188 C 166.70039 128.80967 164.58204 126.95198 162.23633 124.84961 C 161.37571 124.0792 160.61178 123.5006 159.94532 123.11328 C 159.26521 122.71023 158.63073 122.48732 158.04297 122.44531 C 157.45732 122.37392 156.88033 122.48801 156.3125 122.78711 C 155.74678 123.05683 155.12621 123.48558 154.44922 124.07227 C 152.90631 125.40936 152.19665 126.67307 152.31836 127.86328 C 152.45581 129.03985 153.2821 130.26574 154.80078 131.54102 C 155.34549 131.97871 155.95179 132.5006 156.61719 133.10938 C 157.2826 133.71815 157.99495 134.38258 158.75586 135.10157 C 159.51887 135.79116 160.3249 136.51291 161.17188 137.26758 C 162.01885 138.02225 162.89489 138.76466 163.80274 139.49414 C 164.36422 140.52379 164.83328 141.5106 165.20899 142.45313 C 165.57106 143.37991 165.82921 144.2174 165.98243 144.9668 C 166.13564 145.7162 166.17672 146.36952 166.10743 146.92578 C 166.03813 147.48205 165.83844 147.90294 165.50782 148.18946 C 165.00401 148.62606 164.29669 148.70063 163.38672 148.41407 C 162.47886 148.09811 161.34397 147.47067 159.97852 146.53125 C 158.59942 145.5761 156.98329 144.31693 155.13086 142.75196 C 153.29417 141.17334 151.20299 139.31731 148.85938 137.18555 C 148.41437 136.79929 147.8829 136.39309 147.26367 135.96485 C 146.64444 135.5366 145.95686 135.23466 145.20117 135.0625 C 144.44759 134.86096 143.64252 134.85694 142.78711 135.04688 C 141.91806 135.22107 141.01105 135.71653 140.06641 136.53516 C 139.40516 137.1082 138.83681 137.72461 138.36133 138.38477 C 137.88585 139.04493 137.48479 139.7102 137.15625 140.38086 C 136.82771 141.05152 136.56453 141.73488 136.36719 142.42969 C 136.17195 143.09511 136.0228 143.73471 135.91992 144.34766 L 136.92774 144.50782 C 136.99807 144.14362 137.0863 143.83241 137.19336 143.57422 C 137.30043 143.31603 137.48821 143.07179 137.75586 142.83985 C 138.25967 142.40324 138.7647 142.2685 139.26953 142.4375 C 139.79011 142.59286 140.37724 142.93841 141.03321 143.47266 C 141.728 144.08353 142.53222 144.81887 143.44532 145.68164 C 144.35841 146.54442 145.35634 147.45834 146.43946 148.42188 C 147.52258 149.38542 148.67241 150.36193 149.88672 151.34961 C 151.10104 152.3373 152.33369 153.25091 153.58789 154.09375 C 154.85784 154.92296 156.13528 155.64995 157.41992 156.27344 C 158.70457 156.89693 159.9657 157.33505 161.20313 157.58594 C 162.42692 157.82109 163.60836 157.83126 164.7461 157.61719 C 165.88594 157.37373 166.95149 156.82245 167.94336 155.96289 C 168.74631 155.26706 169.34376 154.44475 169.73633 153.49805 C 170.1289 152.55135 170.34228 151.52512 170.37696 150.41992 C 170.42738 149.30109 170.33482 148.1284 170.09766 146.90039 C 169.84686 145.65665 169.48579 144.39724 169.01563 143.12305 C 170.14914 143.79481 171.28355 144.37187 172.41602 144.85157 C 173.55059 145.30187 174.65904 145.59399 175.74219 145.73047 C 176.82534 145.86695 177.87041 145.81634 178.87696 145.57813 C 179.8856 145.31052 180.82928 144.79531 181.71094 144.03125 C 182.82877 143.06254 183.55667 141.88015 183.89258 140.48633 C 184.21485 139.07677 184.25668 137.55169 184.01953 135.91016 C 183.76875 134.25288 183.28696 132.53491 182.57227 130.75586 C 181.87332 128.96317 181.0381 127.20585 180.06836 125.48242 C 179.11437 123.74535 178.08034 122.09078 176.9668 120.51953 C 175.85326 118.94829 174.77128 117.55604 173.72071 116.34375 C 172.98394 115.49358 172.26479 114.72641 171.56055 114.04102 C 170.85841 113.32624 170.23854 112.80058 169.70118 112.4668 C 169.31639 112.24546 168.97978 112.14065 168.69141 112.15235 z M 269.20899 117.58203 C 269.97785 117.69991 270.88345 117.79982 271.92383 117.88086 C 272.96422 117.96191 274.0358 118.04284 275.13868 118.125 C 276.24118 118.22799 277.32271 118.35219 278.38282 118.4961 C 279.46338 118.6612 280.41735 118.87582 281.2461 119.14063 C 282.09531 119.42663 282.77574 119.78311 283.28907 120.20899 C 283.80203 120.65569 284.0529 121.21235 284.04102 121.87891 C 284.02915 122.54547 283.79939 123.16674 283.35157 123.74219 C 282.90375 124.31764 282.25897 124.8157 281.41797 125.23828 C 280.57661 125.6817 279.55049 126.01766 278.3379 126.2461 C 277.12493 126.49536 275.75888 126.60717 274.23829 126.58008 C 273.09264 126.55967 272.00022 126.47752 270.96094 126.33399 C 269.9425 126.19082 269.03989 125.95546 268.25391 125.62891 C 267.48877 125.30273 266.88221 124.8642 266.4336 124.31446 C 265.98462 123.78554 265.76715 123.12553 265.78126 122.33399 C 265.78942 121.87573 265.89031 121.41977 266.08594 120.96485 C 266.28121 120.53076 266.52909 120.10867 266.82813 119.69727 C 267.14763 119.30706 267.50771 118.92649 267.91016 118.5586 C 268.33307 118.21191 268.76599 117.88669 269.20899 117.58203 z M 402.5293 121.63086 C 401.42316 121.57326 400.33507 121.69456 399.26563 121.9961 C 397.8553 122.38431 396.50225 123.15296 395.20899 124.30078 C 394.52341 124.90927 393.97462 125.59213 393.56055 126.34961 C 393.14649 127.10709 392.90075 127.89701 392.82227 128.71875 C 392.7438 129.5405 392.83313 130.36422 393.09376 131.19141 C 393.38379 132.02035 393.8616 132.80873 394.5254 133.55664 C 394.9541 134.03967 395.45255 134.4598 396.02149 134.81836 C 396.61984 135.17868 397.23339 135.41419 397.86134 135.52539 C 398.51869 135.63835 399.17665 135.61264 399.83595 135.44532 C 400.50907 135.29357 401.158 134.93989 401.78126 134.38672 C 402.21754 133.9995 402.52748 133.61202 402.7129 133.22461 C 402.91389 132.82338 403.02586 132.44668 403.04688 132.09375 C 403.08174 131.75641 403.04149 131.44354 402.92579 131.15625 C 402.8395 130.87072 402.71283 130.6362 402.54688 130.44922 C 402.33945 130.2155 402.08158 130.06642 401.7754 130.00391 C 401.49863 129.94315 401.19302 129.88068 400.85743 129.81641 C 400.53742 129.73831 400.19745 129.63656 399.83595 129.51172 C 399.49003 129.37305 399.14457 129.10829 398.79884 128.71875 C 398.72969 128.64085 398.62698 128.49589 398.4922 128.28125 C 398.38682 128.06837 398.3283 127.81344 398.31641 127.51758 C 398.32011 127.20789 398.4085 126.85221 398.58009 126.44922 C 398.7655 126.06182 399.10687 125.64566 399.60548 125.20313 C 400.32222 124.56698 401.18464 124.20662 402.19337 124.11914 C 403.21767 124.01784 404.25977 124.12356 405.31837 124.4375 C 406.40637 124.7532 407.46065 125.23738 408.48438 125.88867 C 409.53753 126.54172 410.44448 127.29537 411.20509 128.15235 C 412.25611 129.33654 412.35308 130.30971 411.4961 131.07032 L 383.54298 155.87891 C 382.34321 156.94376 381.74805 158.0314 381.75587 159.13868 C 381.76368 160.24595 382.34812 161.45288 383.50977 162.76172 C 384.6576 164.05498 385.7804 164.77092 386.87891 164.91016 C 387.99126 165.06498 389.14789 164.60977 390.34766 163.54493 L 418.06641 138.94336 C 418.31397 138.75151 418.58992 138.57691 418.89454 138.41797 C 419.22857 138.26078 419.58092 138.17065 419.95118 138.14844 C 420.35085 138.12798 420.75897 138.21127 421.17579 138.39844 C 421.62202 138.58736 422.06724 138.93108 422.50977 139.42969 C 423.07677 140.06853 423.41513 140.84139 423.52345 141.74805 C 423.66117 142.65646 423.57392 143.62512 423.26173 144.6543 C 422.96336 145.69906 422.4342 146.7818 421.67384 147.90235 C 420.92905 149.00906 419.96349 150.08766 418.77931 151.13867 C 417.20558 152.53542 415.68753 153.7285 414.22657 154.71875 C 412.77944 155.72459 411.43561 156.39052 410.19141 156.71485 C 408.96105 157.05475 407.83488 156.99441 406.81446 156.53516 C 405.82345 156.07766 404.98937 155.10582 404.31055 153.61914 L 403.01368 154.1836 C 403.44883 155.30158 404.07215 156.36551 404.88282 157.37305 C 405.70732 158.39617 406.66474 159.28631 407.75587 160.04493 C 408.847 160.80354 410.05877 161.40046 411.39063 161.83399 C 412.73808 162.25369 414.14392 162.42464 415.60938 162.34961 C 417.10426 162.27634 418.63209 161.90973 420.19141 161.25 C 421.76457 160.60585 423.33054 159.59386 424.88868 158.21094 C 428.08287 155.37595 429.51226 152.05957 429.17774 148.26172 C 428.85881 144.45004 426.72274 140.31567 422.76759 135.85938 C 421.13574 134.02077 419.49548 132.29864 417.84962 130.69532 C 416.23317 129.09374 414.62175 127.67072 413.01368 126.42383 C 411.40561 125.17694 409.81382 124.15184 408.23829 123.34961 C 406.67834 122.53355 405.14564 122.00005 403.64063 121.74805 C 403.26784 121.68895 402.89802 121.65006 402.5293 121.63086 z M 287.19922 145.83203 C 283.90628 145.70679 279.74591 146.59081 254.93555 151.28125 C 219.60297 157.96093 221.77548 157.46677 216.99805 159.88282 C 214.60376 161.09367 210.436 163.4676 207.73633 165.15821 C 203.0452 168.09593 202.32872 168.79043 191.55274 180.83008 C 185.35137 187.75867 175.71721 198.51318 170.14258 204.72852 C 160.76635 215.18236 159.82934 216.39281 157.65235 220.88282 C 156.35803 223.55236 154.44984 227.99838 153.41016 230.76368 C 151.62455 235.51295 151.47788 236.3155 150.78125 245.25977 C 150.37563 250.46765 149.5123 261.47005 148.86328 269.70899 C 148.21427 277.94794 147.44007 287.95092 147.14063 291.93751 C 146.8412 295.92409 146.45346 299.33092 146.28125 299.50782 C 145.93167 299.8669 136.69786 298.95055 128.57227 297.75001 C 125.64877 297.31806 118.74851 295.86811 113.23633 294.5293 C 107.72414 293.19048 102.97411 292.17594 102.68164 292.27344 C 101.91392 292.52934 106.07057 297.86787 109.61719 301.18165 C 113.49141 304.80153 116.40916 306.32747 127.12305 310.33008 C 131.90695 312.11729 142.45449 316.60944 150.56055 320.31251 C 167.20018 327.91396 171.50211 329.69305 178.36328 331.81641 C 188.41199 334.92623 201.64215 337.09363 216.51954 338.06446 C 227.58635 338.78663 262.54263 340.05144 274.74805 340.17188 C 280.72793 340.23089 288.40192 340.32953 291.80079 340.39063 C 298.94506 340.51903 319.4092 339.75717 327.17774 339.07423 C 330.10124 338.81723 334.08842 338.46597 336.03907 338.29298 C 340.09257 337.93351 340.04267 337.45574 335.87501 336.72071 C 334.28037 336.43947 326.01839 334.77278 317.51368 333.01758 C 309.00896 331.26237 297.80951 328.95619 292.62696 327.89258 C 287.44439 326.82897 281.89932 325.68948 280.30469 325.35938 L 277.40626 324.75782 L 262.07032 302.79102 C 253.63566 290.70896 245.50221 279.03928 243.9961 276.85743 L 241.25782 272.88868 L 243.25391 259.94336 C 245.07975 248.10492 248.83523 223.38619 250.19336 214.27149 L 250.75 210.53907 L 261.17774 202.45704 C 266.91337 198.01093 276.3913 190.66063 282.23829 186.12305 C 288.08529 181.58548 294.65257 176.49947 296.83204 174.82227 L 300.79493 171.77344 L 315.67774 173.26953 C 323.86339 174.09266 337.94008 175.51878 346.96094 176.43946 C 361.66013 177.93966 364.31887 178.10473 363.6211 177.47266 C 363.51036 177.37234 350.52938 170.83614 334.7754 162.94727 C 302.85239 146.96169 304.29769 147.51425 290.93555 146.18946 C 289.29794 146.02709 288.29687 145.87378 287.19922 145.83203 z M 133.77735 153.68555 C 132.78941 153.65996 131.83678 153.74009 130.91992 153.92578 C 129.09786 154.27991 127.43817 155.0081 125.94141 156.10938 C 124.42737 157.19901 123.13433 158.538 122.0625 160.12696 C 120.99068 161.71592 120.25047 163.42842 119.8418 165.26368 C 119.43313 167.09893 119.42603 168.95384 119.82031 170.82813 C 120.22625 172.68514 121.06293 174.51844 122.33008 176.32813 C 123.57996 178.12617 125.33512 179.78827 127.59766 181.31446 C 129.8602 182.84065 132.06813 183.85254 134.22071 184.34961 C 136.37328 184.84668 138.38589 184.93441 140.25977 184.61524 C 142.14529 184.27879 143.87165 183.58398 145.4375 182.5293 C 146.98608 181.46297 148.29536 180.13584 149.36719 178.54688 C 150.43902 176.95792 151.16298 175.23355 151.53711 173.375 C 151.89397 171.5048 151.84252 169.62439 151.38477 167.73243 C 150.93867 165.82319 150.06537 163.95213 148.76367 162.11914 C 147.46198 160.28615 145.68051 158.60627 143.41797 157.08008 C 141.13816 155.54224 138.94842 154.5422 136.84766 154.08008 C 135.78864 153.8432 134.76528 153.71114 133.77735 153.68555 z M 127.71875 160.43164 C 128.46844 160.43789 129.28858 160.5911 130.17969 160.89063 C 131.36783 161.29 132.63859 161.88446 133.99219 162.67188 C 135.34017 163.43037 136.70423 164.27501 138.08594 165.20703 C 139.46765 166.13906 140.79696 167.1107 142.07422 168.12305 C 143.36313 169.11813 144.44957 170.11463 145.33399 171.11328 C 146.2184 172.11194 146.8143 173.09189 147.1211 174.05274 C 147.4279 175.01359 147.29743 175.91738 146.72657 176.76368 C 146.1557 177.60997 145.38339 178.08292 144.41211 178.18164 C 143.42356 178.26872 142.31839 178.10041 141.09571 177.67774 C 139.87302 177.25506 138.57595 176.64477 137.20508 175.84571 C 135.81694 175.03499 134.43249 174.1625 133.05078 173.23047 C 131.66908 172.29845 130.35007 171.34678 129.09571 170.375 C 127.84134 169.40322 126.7994 168.43637 125.9668 167.47266 C 125.11693 166.4973 124.55546 165.54107 124.28321 164.60352 C 123.99368 163.65432 124.13422 162.75645 124.70508 161.91016 C 125.27595 161.06386 126.03819 160.58499 126.99219 160.47461 C 127.22637 160.44411 127.46886 160.42956 127.71875 160.43164 z M 421.1504 170.50782 C 420.62463 170.51736 420.08831 170.55131 419.53907 170.60938 C 417.36066 170.83219 415.05598 171.56423 412.62501 172.80469 C 410.19404 174.04515 408.23904 175.4863 406.76173 177.12891 C 405.28441 178.77152 404.23173 180.4911 403.60352 182.28516 C 402.98479 184.09777 402.75741 185.94348 402.92188 187.82422 C 403.10491 189.69549 403.63275 191.48612 404.50391 193.19336 C 405.37508 194.90061 406.53167 196.36639 407.97657 197.59375 C 409.44003 198.81165 411.1113 199.6796 412.98829 200.19532 C 414.87475 200.72959 416.93584 200.87036 419.16993 200.61914 C 421.40402 200.36793 423.73506 199.62328 426.16602 198.38282 C 428.61555 197.13289 430.55102 195.70015 431.97266 194.08594 C 433.41287 192.46227 434.41546 190.75882 434.97852 188.97461 C 435.55106 187.20896 435.71722 185.40341 435.47852 183.56055 C 435.25838 181.70822 434.71297 179.92991 433.84181 178.22266 C 432.97064 176.51541 431.83163 175.03733 430.42384 173.79102 C 429.01605 172.54471 427.3972 171.64081 425.56641 171.07813 C 424.20042 170.67003 422.72769 170.47918 421.1504 170.50782 z M 427.3047 177.85547 C 427.85896 177.84162 428.37551 177.89014 428.85157 177.99805 C 429.82226 178.2044 430.53797 178.76063 431.00196 179.66993 C 431.46595 180.57922 431.51582 181.47906 431.1504 182.36719 C 430.80354 183.24585 430.16895 184.10701 429.24415 184.95313 C 428.31935 185.79925 427.18428 186.62477 425.83985 187.42774 C 424.52345 188.2398 423.12324 189.02372 421.63868 189.78125 C 420.15412 190.53879 418.65857 191.23213 417.15431 191.85938 C 415.65951 192.50519 414.26103 192.9735 412.95899 193.26368 C 411.65695 193.55385 410.51269 193.59923 409.52345 193.40235 C 408.5342 193.20547 407.80579 192.65344 407.3418 191.74414 C 406.87782 190.83485 406.83869 189.93081 407.22266 189.03321 C 407.6252 188.12614 408.30762 187.24007 409.26954 186.375 C 410.23145 185.50994 411.39288 184.67182 412.75587 183.85938 C 414.13741 183.03747 415.57209 182.24777 417.05665 181.49024 C 418.54121 180.73271 420.01108 180.04094 421.46876 179.41407 C 422.92644 178.7872 424.27903 178.34185 425.5254 178.08008 C 426.15786 177.94446 426.75043 177.86933 427.3047 177.85547 z M 113.28125 183.55274 C 112.87665 183.57244 112.49303 183.61263 112.12891 183.67188 C 110.67242 183.90887 109.48982 184.4435 108.58399 185.27539 C 107.68572 186.08788 106.97958 187.15282 106.46485 188.47266 C 106.23019 189.07435 106.07768 189.69701 106.00586 190.33985 C 105.94162 190.96328 105.94242 191.59068 106.00977 192.22071 C 106.06528 192.82376 106.16812 193.42307 106.31641 194.01758 C 106.47227 194.59268 106.65188 195.13169 106.85742 195.63672 C 107.31685 196.86689 107.9213 198.04277 108.66992 199.16211 C 108.24292 198.99558 107.70412 198.82866 107.05274 198.66407 C 106.38951 198.4725 105.70316 198.42838 104.99219 198.53125 C 104.28122 198.63413 103.58441 198.95632 102.9043 199.4961 C 102.20478 200.02831 101.60922 200.92393 101.11719 202.18555 C 100.79926 203.00075 100.58367 203.8115 100.47071 204.61719 C 100.35774 205.42288 100.31205 206.19883 100.33399 206.94532 C 100.35592 207.6918 100.44254 208.41831 100.5918 209.125 C 100.72922 209.80472 100.89517 210.44101 101.08985 211.03125 L 102.05664 210.70313 C 101.94911 210.34813 101.88109 210.03224 101.85547 209.75391 C 101.82985 209.47558 101.88108 209.16981 102.00977 208.83985 C 102.252 208.21874 102.6367 207.86509 103.16211 207.7793 C 103.67569 207.66653 104.21447 207.71994 104.77735 207.93946 L 127.25391 216.70508 C 127.46741 216.78835 127.76293 216.85936 128.14258 216.91797 C 128.52223 216.97659 128.9376 216.91625 129.38867 216.73438 C 129.83975 216.55251 130.29586 216.21606 130.75586 215.72461 C 131.24284 215.22133 131.6867 214.45449 132.08789 213.42579 C 132.48909 212.39708 132.68747 211.54617 132.68164 210.87305 C 132.7028 210.18809 132.61303 209.63882 132.41602 209.22657 C 132.20717 208.78733 131.94409 208.46194 131.625 208.24805 C 131.2865 208.02659 130.99061 207.86599 130.73828 207.76758 L 111.29102 200.1836 C 111.15748 199.95263 110.93774 199.65396 110.63281 199.28907 C 110.33546 198.90476 110.05419 198.48148 109.78711 198.01954 C 109.52761 197.53818 109.33555 197.02689 109.21094 196.48633 C 109.07449 195.9188 109.11447 195.35389 109.33399 194.79102 C 109.51566 194.32519 109.81967 193.91833 110.2461 193.57032 C 110.65311 193.21473 111.31808 193.0035 112.23828 192.9375 C 113.13908 192.86394 114.3674 193.00931 115.92578 193.3711 C 117.47233 193.70591 119.46847 194.34896 121.91406 195.30274 C 124.28202 196.22624 126.33592 197.09534 128.07617 197.90821 C 129.80459 198.69409 131.27478 199.45719 132.48438 200.19727 C 133.70155 200.91794 134.68519 201.60272 135.4375 202.25391 C 136.17041 202.89753 136.73867 203.53304 137.14258 204.16016 C 137.54649 204.78728 137.7963 205.41111 137.89063 206.0293 C 137.99253 206.62808 137.99748 207.24559 137.90625 207.88086 L 139.22461 208.02539 C 139.47771 207.31908 139.68439 206.4484 139.8418 205.41407 C 140.02619 204.3679 140.06061 203.21929 139.94532 201.9668 C 139.83002 200.71431 139.50703 199.39205 138.97657 198 C 138.46551 196.61553 137.63974 195.23058 136.50196 193.84766 C 135.36417 192.46474 133.85657 191.11734 131.97657 189.80274 C 130.09656 188.48814 127.74797 187.2812 124.9336 186.1836 C 122.04158 185.05572 119.55352 184.29835 117.46875 183.91016 C 115.89062 183.61334 114.49506 183.49363 113.28125 183.55274 z M 324.16798 190.26368 C 323.91669 190.29349 323.64749 191.29345 322.61719 195.50586 C 321.26059 201.05237 321.22884 200.5762 323.61524 209.71875 C 323.88239 210.74222 324.21188 211.46586 324.34962 211.32813 C 324.76591 210.91182 326.91539 202.14794 326.92579 200.82422 C 326.93616 199.50262 324.77768 190.80112 324.32813 190.35157 C 324.27081 190.29425 324.22013 190.25749 324.16798 190.26368 z M 441.1211 198.26172 L 440.48634 199.0586 C 440.76849 199.29938 440.99421 199.5315 441.16602 199.75196 C 441.33784 199.97242 441.45951 200.2563 441.52931 200.60352 C 441.66069 201.25711 441.52879 201.76134 441.13282 202.11719 C 440.74096 202.49347 440.14959 202.83538 439.36134 203.14258 C 438.48728 203.44579 437.45086 203.7815 436.25001 204.15039 C 435.04916 204.51929 433.76299 204.93718 432.39063 205.4043 C 431.01828 205.87143 429.60259 206.38964 428.14454 206.95899 C 426.68648 207.52834 425.28142 208.1507 423.9297 208.82618 C 422.58208 209.52208 421.32044 210.27581 420.14454 211.08594 C 418.96864 211.89608 417.9652 212.77768 417.13673 213.73047 C 416.32868 214.67916 415.7381 215.69958 415.36329 216.79493 C 415.01301 217.9066 414.9679 219.10582 415.22657 220.39258 C 415.43597 221.43424 415.85438 222.35961 416.48438 223.16797 C 417.11438 223.97633 417.90134 224.66898 418.84571 225.24415 C 419.79419 225.83973 420.86162 226.33709 422.04688 226.73633 C 423.25257 227.13147 424.5249 227.43889 425.86524 227.65821 C 424.72187 228.31305 423.66327 229.01502 422.68751 229.76368 C 421.73628 230.52865 420.93412 231.34767 420.28126 232.22266 C 419.6284 233.09765 419.15826 234.03227 418.86915 235.0254 C 418.60457 236.03484 418.58649 237.11013 418.81641 238.25391 C 419.10793 239.70407 419.77731 240.92084 420.82423 241.9004 C 421.89157 242.87584 423.19719 243.66441 424.7422 244.26758 C 426.30763 244.86665 428.04129 245.2933 429.94141 245.54883 C 431.84565 245.82479 433.78617 245.96643 435.76368 245.97266 C 437.7453 245.99931 439.69336 245.91462 441.60938 245.72071 C 443.52541 245.5268 445.27105 245.27318 446.84376 244.95704 C 447.94669 244.73532 448.96858 244.48757 449.91212 244.2129 C 450.88019 243.95454 451.64191 243.67399 452.19727 243.3711 C 452.6342 243.11327 452.90756 242.83353 453.01759 242.53516 C 453.12761 242.23679 453.12298 241.79154 453.00392 241.19922 C 452.95875 240.97455 452.86956 240.68541 452.73438 240.33008 C 452.60331 239.99518 452.43153 239.66809 452.21876 239.34961 C 452.01009 239.05156 451.77892 238.79975 451.5254 238.59571 C 451.27188 238.39167 450.99193 238.32123 450.68556 238.38282 C 450.35876 238.44851 450.0191 238.61317 449.66798 238.875 C 449.33728 239.13273 448.89697 239.42278 448.34571 239.7461 C 447.81898 240.08573 447.13429 240.43455 446.29298 240.79493 C 445.45167 241.1553 444.35781 241.47121 443.00977 241.74219 C 441.049 242.13635 439.12383 242.39706 437.23634 242.52149 C 435.35295 242.66634 433.66351 242.66515 432.16798 242.51954 C 430.67245 242.37392 429.43785 242.09175 428.46095 241.67188 C 427.48404 241.25201 426.92476 240.69445 426.78516 240 C 426.65378 239.34641 426.96727 238.68803 427.72657 238.0254 C 428.5104 237.37908 429.68944 236.68638 431.26173 235.94532 C 432.83401 235.20425 434.78879 234.40682 437.12501 233.55469 C 439.46122 232.70256 442.12173 231.77348 445.10743 230.76954 C 446.20205 230.40074 447.08246 230.02357 447.74806 229.63477 C 448.43408 229.24186 448.93926 228.79921 449.26563 228.3086 C 449.61654 227.83431 449.80248 227.27625 449.82227 226.63477 C 449.8666 226.00961 449.79961 225.25913 449.62306 224.38086 C 449.22069 222.37924 448.47242 221.1373 447.37696 220.65625 C 446.28561 220.19564 444.81147 220.31159 442.95313 221.00391 C 442.30375 221.26195 441.54915 221.52992 440.69141 221.8086 C 439.83368 222.08727 438.90501 222.38009 437.90431 222.6875 C 436.92813 223.01124 435.90233 223.35602 434.82813 223.72071 C 433.75394 224.0854 432.67606 224.48205 431.59376 224.91211 C 430.42113 224.89284 429.33141 224.81371 428.32618 224.67579 C 427.34137 224.53375 426.48532 224.34564 425.75782 224.10938 C 425.03032 223.87312 424.44196 223.5885 423.9922 223.25391 C 423.54243 222.91932 423.27568 222.53635 423.18946 222.10743 C 423.05808 221.45383 423.34105 220.80267 424.03907 220.15235 C 424.76163 219.51835 425.86684 218.83793 427.35743 218.11329 C 428.86844 217.38454 430.76218 216.60154 433.03712 215.76172 C 435.31616 214.94233 437.96048 214.03841 440.97071 213.05079 C 441.52618 212.85412 442.14241 212.5912 442.82032 212.26368 C 443.49823 211.93615 444.09869 211.48659 444.6211 210.91407 C 445.16805 210.35787 445.5696 209.6601 445.82618 208.82227 C 446.10318 207.98033 446.11941 206.94814 445.87306 205.72266 C 445.70061 204.86482 445.44532 204.06536 445.10548 203.32618 C 444.76563 202.58699 444.38434 201.90951 443.9629 201.29297 C 443.54146 200.67644 443.07746 200.11001 442.57032 199.59571 C 442.08771 199.09772 441.60361 198.65348 441.1211 198.26172 z M 292.59376 198.71875 C 292.59191 198.71878 292.58954 198.72046 292.5879 198.72071 L 292.58594 198.72071 L 292.58399 198.72071 L 292.58204 198.72071 L 292.58008 198.72266 L 292.57813 198.72461 L 292.57618 198.72461 L 292.57422 198.72657 C 292.43939 198.88459 292.97256 201.27402 293.77735 204.09571 C 295.24597 209.24486 295.30725 209.35084 298.8418 213.05079 C 301.83247 216.18142 303.25782 217.3506 303.25782 216.67383 C 303.25782 216.60683 302.61836 214.31353 301.83594 211.57618 C 300.43722 206.6826 300.34948 206.53105 296.64063 202.58008 C 294.61462 200.4218 292.82434 198.7154 292.59376 198.71875 z M 355.81837 198.99414 C 355.49067 198.99821 353.82516 200.51635 351.91016 202.57422 C 348.20668 206.55402 348.10699 206.72811 346.7168 211.5918 C 345.93704 214.31986 345.29883 216.60683 345.29883 216.67383 C 345.29883 217.35106 346.72389 216.18114 349.71094 213.05079 C 353.19995 209.3944 353.31665 209.1904 354.66993 204.42188 C 355.43227 201.73567 355.97233 199.30872 355.8711 199.02735 C 355.86319 199.00536 355.84614 198.9938 355.81837 198.99414 z M 135.69336 209.56055 L 134.42969 210.12305 C 134.57555 210.40564 134.68991 210.685 134.77344 210.96289 C 134.8601 211.19924 134.93295 211.46657 134.99414 211.76368 C 135.05534 212.06078 135.07464 212.35565 135.05274 212.64649 C 134.926 214.32922 133.97072 215.93782 132.1836 217.47461 C 130.39647 219.01141 127.72363 220.63849 124.16797 222.35547 C 120.59311 224.05012 116.10917 225.89623 110.71485 227.89258 C 105.32208 229.86816 98.956758 232.14549 91.617189 234.72657 C 90.229818 233.45211 88.923525 232.20477 87.69922 230.98438 C 86.455706 229.74165 85.374026 228.56305 84.45508 227.44922 C 83.537699 226.31462 82.82105 225.27891 82.306642 224.3418 C 81.793799 223.38391 81.563993 222.55204 81.617189 221.84571 C 81.665692 221.2017 81.834639 220.6295 82.123049 220.12891 C 82.390683 219.62676 82.685291 219.18922 83.005861 218.81641 C 83.305657 218.44203 83.579656 218.11739 83.83008 217.84375 C 84.082068 217.54935 84.217166 217.28907 84.234377 217.06055 C 84.257846 216.74893 84.174523 216.48121 83.982424 216.25782 C 83.790325 216.03443 83.552553 215.86016 83.269533 215.73438 C 82.988078 215.58783 82.693256 215.48104 82.384767 215.41602 C 82.076279 215.351 81.806646 215.31018 81.578127 215.29297 C 79.833069 215.16155 78.859261 216.45628 78.654298 219.17774 C 78.568245 220.32034 78.620663 221.42141 78.812502 222.48047 C 79.00434 223.53954 79.383052 224.62442 79.947267 225.73243 C 80.492272 226.81809 81.241078 227.96011 82.195314 229.16016 C 83.151115 230.33944 84.348757 231.63136 85.789064 233.03516 C 87.208597 234.4374 88.889185 235.98358 90.83008 237.67579 C 92.772539 239.34722 95.003553 241.20862 97.523439 243.25782 L 83.283205 242.18555 C 82.950813 242.16052 82.532192 242.1693 82.027345 242.21485 C 81.522499 242.2604 81.024665 242.49536 80.533205 242.91797 C 80.043309 243.31982 79.606247 243.98582 79.222658 244.91797 C 78.819859 245.82779 78.55408 247.13439 78.425783 248.8379 C 78.310002 250.37521 78.31766 251.92243 78.451173 253.47852 C 78.563912 255.03304 78.806315 256.53573 79.177736 257.98438 C 79.549156 259.43303 80.052706 260.79767 80.687502 262.07813 C 81.303088 263.33625 82.054623 264.45732 82.941408 265.44336 C 83.829757 266.40864 84.85568 267.19654 86.021486 267.80665 C 87.166517 268.41519 88.457186 268.77291 89.890627 268.88086 C 90.804705 268.94971 91.677658 268.87045 92.509767 268.64063 C 93.341877 268.41081 94.079907 268.03703 94.724611 267.52149 C 95.369316 267.00595 95.897927 266.36635 96.310549 265.60352 C 96.70396 264.81835 96.938573 263.92882 97.013674 262.93165 C 97.062176 262.28764 97.017376 261.63661 96.878908 260.97852 C 96.72123 260.29809 96.462636 259.69238 96.105471 259.16407 C 95.729096 258.61341 95.252821 258.15973 94.67383 257.80274 C 94.096403 257.42497 93.391529 257.20517 92.560549 257.14258 C 91.978863 257.09877 91.483406 257.14479 91.076174 257.28126 C 90.648167 257.41616 90.301274 257.59956 90.033205 257.83008 C 89.7667 258.03983 89.571091 258.28534 89.445314 258.56836 C 89.300327 258.82905 89.217996 259.0847 89.199221 259.33399 C 89.175751 259.64561 89.247822 259.93194 89.416017 260.19532 C 89.565003 260.43635 89.732518 260.70062 89.919924 260.98633 C 90.086554 261.27048 90.252127 261.58517 90.414064 261.93165 C 90.555227 262.27655 90.605523 262.70916 90.566408 263.22852 C 90.558585 263.33239 90.52517 263.50775 90.464846 263.75391 C 90.385311 263.97774 90.243245 264.19768 90.039064 264.41211 C 89.814109 264.62499 89.496689 264.80956 89.087892 264.9668 C 88.68066 265.10327 88.145254 265.14578 87.48047 265.09571 C 86.711814 265.03782 86.00967 264.79706 85.373049 264.37305 C 84.736427 263.94904 84.168205 263.42511 83.671877 262.80274 C 83.177113 262.1596 82.751744 261.4491 82.39258 260.66993 C 82.014206 259.86841 81.707175 259.08229 81.472658 258.31251 C 81.238141 257.54272 81.073871 256.82027 80.978517 256.14454 C 80.884728 255.44803 80.854252 254.87111 80.888673 254.41407 C 80.912143 254.10245 80.963825 253.82468 81.044923 253.58008 C 81.106812 253.31314 81.227927 253.09243 81.408205 252.91797 C 81.567708 252.74196 81.786563 252.61283 82.064455 252.5293 C 82.342346 252.44577 82.710931 252.42066 83.16797 252.45508 L 120.68555 255.28126 C 122.28519 255.40173 123.47984 255.0731 124.26953 254.29688 C 125.05923 253.52066 125.52092 252.26069 125.65235 250.51563 C 125.78221 248.79135 125.51414 247.48536 124.84961 246.59961 C 124.18665 245.6931 123.05472 245.18103 121.45508 245.06055 L 102.22852 243.61133 L 100.54102 242.29297 C 105.12132 240.84119 109.19308 239.48729 112.75586 238.23047 C 116.31864 236.97366 119.44993 235.76805 122.14844 234.61329 C 124.84852 233.43774 127.13905 232.29356 129.01953 231.18165 C 130.92236 230.05052 132.47187 228.88283 133.66992 227.67774 C 134.89032 226.45343 135.80245 225.17537 136.4043 223.8418 C 137.00615 222.50823 137.36781 221.04105 137.48828 219.44141 C 137.5759 218.27804 137.56343 217.18047 137.45313 216.14844 C 137.34282 215.11641 137.18405 214.17554 136.97657 213.32422 C 136.79142 212.45369 136.57555 211.70445 136.33008 211.08008 C 136.08618 210.43494 135.87451 209.92936 135.69336 209.56055 z M 269.50977 221.91797 C 269.48507 221.92075 269.46746 221.92552 269.45899 221.9336 C 269.17698 222.20262 275.68384 228.79505 276.88086 229.45313 C 277.38937 229.73268 279.88963 230.57126 282.43751 231.31641 C 284.98539 232.06157 287.28191 232.68744 287.54102 232.70704 C 288.15389 232.75335 281.08003 225.58806 279.83985 224.90625 C 278.60393 224.22677 270.27562 221.83185 269.50977 221.91797 z M 379.09766 221.93946 C 378.97938 221.82953 376.56363 222.39751 373.73048 223.20118 L 368.58009 224.66211 L 364.56055 228.70313 C 362.34989 230.92533 360.64586 232.74219 360.77344 232.74219 C 361.42101 232.74219 370.89734 229.88267 371.68555 229.44922 C 372.86911 228.79835 379.37989 222.20176 379.09766 221.93946 z M 324.28321 222.51954 C 324.02045 222.52218 322.1721 227.80074 320.17579 234.25 L 316.54688 245.97657 L 305.43165 249.40625 C 291.79153 253.61568 292.17452 253.47342 293.10938 253.97852 C 293.50803 254.19391 298.95168 255.93706 305.20508 257.85352 L 316.57423 261.3379 L 319.90626 272.28907 C 321.73861 278.31185 323.42478 283.765 323.6543 284.40626 C 323.88676 285.0558 324.24392 285.37659 324.45899 285.13087 C 324.67133 284.88825 326.44254 279.4377 328.39454 273.01954 L 331.94337 261.34961 L 343.33204 257.85938 C 349.59609 255.93964 355.04667 254.19391 355.44532 253.97852 C 356.37992 253.47356 356.76489 253.61669 343.12891 249.40625 L 332.02149 245.97657 L 328.39063 234.24415 C 326.39406 227.79226 324.54595 222.51654 324.28321 222.51954 z M 271.34571 250.73047 L 266.64454 251.90235 C 261.04481 253.29841 260.52063 253.46984 260.84376 253.79297 C 260.98006 253.92927 263.13198 254.55762 265.62501 255.19141 C 268.11802 255.82519 270.54438 256.36182 271.01758 256.38282 C 272.52717 256.44977 282.07198 253.88451 281.66407 253.52149 C 281.44847 253.32962 279.03802 252.62298 276.3086 251.95118 L 271.34571 250.73047 z M 377.21094 250.73047 L 372.24805 251.95118 C 369.51864 252.62298 367.10619 253.33161 366.88868 253.5254 C 366.67115 253.71919 368.62881 254.42963 371.23829 255.10352 C 373.84776 255.77741 376.37258 256.34951 376.84962 256.37501 C 377.80121 256.42587 387.36643 254.13749 387.73243 253.77149 C 388.03374 253.47018 387.45154 253.28336 381.91212 251.90235 L 377.21094 250.73047 z M 433.97266 252.76172 C 432.12313 252.78746 430.44633 253.04606 428.94141 253.54102 C 426.93347 254.22175 425.23014 255.18446 423.83204 256.42774 C 422.43394 257.67102 421.345 259.12289 420.56641 260.78321 C 419.80724 262.4657 419.36835 264.21103 419.24806 266.01954 C 419.12776 267.82804 419.23758 269.45391 419.58009 270.89649 C 419.94338 272.34045 420.42291 273.61435 421.01759 274.71876 C 421.63305 275.82454 422.30018 276.77667 423.01954 277.57618 C 423.73889 278.37568 424.40498 279.03762 425.01759 279.5586 L 425.81837 278.82813 C 425.41502 278.3002 425.03171 277.77322 424.66993 277.24805 C 424.32894 276.72427 424.03242 276.18288 423.77735 275.62305 C 423.52228 275.06322 423.33186 274.46477 423.20704 273.83008 C 423.08222 273.1954 423.04341 272.51467 423.09181 271.78711 C 423.16094 270.74774 423.39059 269.80408 423.78126 268.95313 C 424.17193 268.10218 424.6716 267.33086 425.28126 266.64063 C 425.88953 265.97119 426.56645 265.37949 427.31056 264.86524 C 428.07407 264.37316 428.86293 263.96617 429.67774 263.64454 C 430.49255 263.32291 431.29127 263.08445 432.07423 262.92774 C 432.87659 262.7932 433.6102 262.74677 434.2754 262.79102 L 440.72266 275.5918 C 441.24249 276.56595 441.86782 277.35829 442.59962 277.97071 C 443.35221 278.58451 444.21636 278.9233 445.19337 278.98829 C 446.00408 279.04221 446.78662 278.90781 447.53907 278.58204 C 448.31231 278.25764 449.00478 277.72985 449.6172 276.99805 C 450.22823 276.28704 450.73784 275.36924 451.14649 274.24805 C 451.55514 273.12687 451.81175 271.79804 451.91407 270.25977 C 451.9915 269.09568 451.90451 267.86829 451.65626 266.57813 C 451.42741 265.31015 451.03102 264.05127 450.46681 262.80274 C 449.92338 261.55559 449.21107 260.35089 448.32813 259.18555 C 447.44382 258.041 446.39437 257.0096 445.18165 256.09376 C 443.96754 255.1987 442.58711 254.46016 441.03907 253.87696 C 439.49103 253.29376 437.77057 252.93833 435.87891 252.81251 C 435.22411 252.76895 434.58918 252.75314 433.97266 252.76172 z M 436.85352 262.6504 C 437.43557 262.68911 438.14255 262.74617 438.97266 262.82227 C 439.82357 262.89975 440.70165 263.02077 441.60938 263.18555 C 442.51712 263.35033 443.41156 263.5562 444.29298 263.80274 C 445.1938 264.07145 445.98724 264.39578 446.67188 264.7754 C 447.35515 265.17579 447.89882 265.6505 448.30079 266.19922 C 448.72216 266.77012 448.90721 267.42939 448.85743 268.17774 C 448.81871 268.75979 448.5991 269.24587 448.19727 269.63672 C 447.79545 270.02758 447.30385 270.33937 446.72462 270.57227 C 446.14538 270.80517 445.53024 270.95261 444.87892 271.01368 C 444.247 271.09692 443.67204 271.12051 443.15235 271.08594 C 442.67424 271.05414 442.26987 270.9966 441.94142 270.91211 C 441.63237 270.8498 441.36824 270.75782 441.14649 270.63868 C 440.94553 270.52091 440.76714 270.36417 440.61329 270.16602 C 440.47884 269.99004 440.33779 269.76177 440.18946 269.48047 L 436.85352 262.6504 z M 287.31251 274.8086 C 286.91386 274.79863 284.50284 275.38987 281.95508 276.12305 C 277.45696 277.41752 277.19818 277.5725 273.01563 281.43165 C 270.76691 283.5065 269.17895 285.22479 269.33985 285.39649 C 269.34851 285.40434 269.36353 285.41002 269.38086 285.41016 C 269.75077 285.41257 272.22444 284.81681 274.87891 284.08594 C 279.6808 282.7638 279.72662 282.73573 283.8711 278.79102 C 286.16217 276.61041 287.71117 274.8186 287.31251 274.8086 z M 361.4004 274.88477 C 361.36209 274.88441 361.33141 274.88801 361.3086 274.89258 C 360.93218 274.96812 362.39467 276.69759 364.68946 278.89063 C 368.64992 282.67549 368.83165 282.78257 373.32618 284.04297 C 378.37118 285.45775 379.12344 285.58864 379.12305 285.05079 C 379.12291 284.85146 377.37257 283.08823 375.23243 281.13086 C 371.55988 277.77195 371.07787 277.49354 366.65626 276.16602 C 364.24067 275.44078 361.97496 274.89024 361.4004 274.88477 z M 419.75587 281.69727 C 419.37189 281.6859 418.9682 281.79713 418.54298 282.03321 C 418.11776 282.26929 417.70647 282.66068 417.31056 283.20508 C 416.88932 283.76456 416.54283 284.57813 416.27149 285.64844 C 416.00016 286.71875 415.90931 287.5886 415.99806 288.25587 C 416.06149 288.93821 416.21658 289.47064 416.4629 289.85547 C 416.7041 290.2605 416.99683 290.54973 417.33985 290.72266 C 417.68288 290.89559 417.98553 291.01548 418.24806 291.08204 L 437.90626 296.06641 C 438.16225 296.58265 438.42918 297.14471 438.70509 297.75196 C 438.97587 298.37941 439.2102 299.0194 439.41016 299.67188 C 439.60501 300.34455 439.7381 301.01168 439.80665 301.67383 C 439.8954 302.3411 439.85989 302.98726 439.70118 303.61329 C 439.48616 304.46146 439.10899 305.05386 438.57227 305.39063 C 438.05575 305.73252 437.46926 305.8852 436.81251 305.84766 L 436.59766 306.69532 C 437.42451 307.24881 438.13786 307.65634 438.73829 307.91602 C 439.3538 308.20101 440.0048 308.42946 440.69141 308.60352 C 441.80211 308.8851 442.73594 308.81097 443.49024 308.37891 C 444.26474 307.95198 444.78188 307.22329 445.04298 306.19337 C 445.16585 305.7087 445.19756 305.20067 445.13868 304.66993 C 445.0798 304.13918 444.95861 303.60377 444.77345 303.06251 C 444.58316 302.54143 444.35041 302.01941 444.07423 301.49805 C 443.79804 300.9767 443.50315 300.48348 443.19142 300.01758 C 442.46241 298.9086 441.60956 297.82214 440.63282 296.75782 C 440.93574 296.83461 441.30127 296.9166 441.73048 297.00391 C 442.17988 297.09635 442.65326 297.14014 443.14845 297.13672 C 443.65871 297.15862 444.17453 297.11807 444.69532 297.01368 C 445.21611 296.90929 445.70795 296.70042 446.17384 296.38868 C 446.6548 296.10225 447.08596 295.67519 447.46681 295.10547 C 447.86273 294.56107 448.17049 293.8547 448.39063 292.98633 C 448.60565 292.13816 448.71964 291.30761 448.73243 290.49415 C 448.74522 289.68068 448.69582 288.90411 448.58204 288.16602 C 448.46826 287.42793 448.29383 286.71807 448.0586 286.03516 C 447.83845 285.37756 447.59408 284.76683 447.32813 284.20508 L 446.41017 284.6504 C 446.56063 284.98943 446.66684 285.29531 446.72657 285.56837 C 446.7863 285.84142 446.77259 286.14889 446.68556 286.49219 C 446.52173 287.13842 446.18272 287.53565 445.67188 287.68555 C 445.17613 287.86077 444.63643 287.87503 444.05079 287.72657 L 420.66602 281.79883 C 420.44388 281.74252 420.13985 281.70864 419.75587 281.69727 z M 303.08204 290.41407 C 302.82905 290.46557 301.09601 292.07607 299.09766 294.1211 C 295.86889 297.42527 295.1652 298.44445 294.50196 300.7793 C 294.07127 302.29546 293.3758 304.67696 292.95704 306.07227 C 292.53814 307.46757 292.35328 308.60938 292.54493 308.60938 C 293.06889 308.60938 299.69657 301.74623 300.2461 300.63477 C 300.94039 299.23051 303.3424 290.65294 303.10743 290.41797 L 303.10547 290.41602 L 303.10352 290.41602 L 303.10157 290.41407 L 303.09962 290.41407 C 303.0952 290.41343 303.08826 290.4128 303.08204 290.41407 z M 345.44923 290.42188 L 345.44727 290.42383 L 345.44532 290.42383 L 345.44337 290.42383 L 345.44141 290.42579 L 345.43946 290.42774 C 345.3253 290.54191 345.91129 292.99379 346.74024 295.87696 L 348.2461 301.11915 L 351.95509 304.86329 C 353.99514 306.92303 355.8205 308.60938 356.01173 308.60938 C 356.20297 308.60938 356.01838 307.46757 355.59962 306.07227 C 355.18087 304.67696 354.48538 302.29546 354.05469 300.7793 C 353.39145 298.44445 352.68777 297.42527 349.45899 294.1211 C 347.4115 292.02578 345.63949 290.391 345.45118 290.42188 L 345.44923 290.42188 z M 324.24805 296.48438 C 324.01371 296.51609 323.27028 298.74079 322.5879 301.45704 L 321.3379 306.4336 L 322.23243 310.0586 C 322.72438 312.05188 323.34554 314.51951 323.61329 315.54298 C 323.88105 316.56646 324.21188 317.29202 324.34962 317.1543 C 324.81636 316.68755 326.91716 307.8925 326.91016 306.4336 C 326.90065 304.46675 324.77129 296.49138 324.25391 296.48438 C 324.25213 296.48436 324.2499 296.48413 324.24805 296.48438 z M 413.22852 306.47266 C 412.54737 306.47464 411.89663 306.59044 411.2754 306.82227 C 410.66508 307.08147 410.10741 307.45505 409.60352 307.94141 C 409.09964 308.42778 408.70401 309.0059 408.41602 309.67579 C 408.12804 310.34568 407.98087 311.03018 407.97462 311.73047 C 407.96836 312.43077 408.08263 313.09167 408.31446 313.7129 C 408.56543 314.34235 408.92341 314.90474 409.39063 315.4004 C 409.86877 315.92342 410.4516 316.3327 411.14063 316.62891 C 411.81052 316.91689 412.50047 317.05586 413.20899 317.04298 C 413.90929 317.04923 414.57368 316.92676 415.20313 316.67579 C 415.83259 316.42482 416.40042 316.05473 416.90431 315.56837 C 417.42733 315.09023 417.83312 314.51755 418.1211 313.84766 C 418.40908 313.17777 418.5461 312.48783 418.53321 311.7793 C 418.53946 311.07901 418.41699 310.41462 418.16602 309.78516 C 417.90683 309.17484 417.53325 308.61717 417.04688 308.11329 C 416.56052 307.6094 415.9824 307.21377 415.31251 306.92579 C 414.62348 306.62958 413.92882 306.47892 413.22852 306.47266 z M 421.96485 314.24219 L 421.05079 316.36524 C 423.64771 318.02589 426.37805 319.72185 429.24024 321.45118 C 430.46769 322.18294 431.7765 322.96021 433.16798 323.78516 C 434.57859 324.61835 436.04211 325.46318 437.55665 326.31837 C 439.07119 327.17355 440.63269 328.02519 442.24024 328.87501 C 443.83957 329.74396 445.44673 330.59511 447.06251 331.42579 C 447.3031 331.55189 447.60615 331.63747 447.97267 331.68165 C 448.35832 331.73405 448.76444 331.65899 449.19142 331.45704 C 449.63753 331.26331 450.08828 330.90129 450.54298 330.3711 C 451.00858 329.86828 451.45845 329.10816 451.89454 328.09376 C 452.33063 327.07935 452.56251 326.22723 452.5879 325.53516 C 452.6242 324.87046 452.54181 324.32542 452.33985 323.89844 C 452.15704 323.4797 451.91942 323.16175 451.62696 322.94532 C 451.3345 322.72888 451.0918 322.57838 450.9004 322.4961 C 449.20502 321.90333 447.4927 321.3264 445.76173 320.76368 C 444.03075 320.20096 442.31893 319.66969 440.62891 319.16993 C 438.95804 318.6784 437.33495 318.20626 435.75977 317.75587 C 434.19551 317.33284 432.72168 316.93843 431.3379 316.57032 C 428.09722 315.72141 424.97317 314.94586 421.96485 314.24219 z M 158.47852 335.08008 C 157.62442 335.12694 156.33094 336.28955 152.10547 340.5254 C 148.93664 343.70202 146.01429 346.30079 145.61133 346.30079 C 145.20838 346.30079 143.6311 345.72883 142.10742 345.03126 C 139.63865 343.90102 139.13545 343.8237 137.48438 344.31837 C 134.07848 345.33881 132.45801 348.77235 133.92383 351.86134 C 134.91739 353.9551 133.64836 353.29322 161.19141 366.11524 C 210.61107 389.12142 232.54403 399.34864 241.16407 403.40821 C 249.76882 407.46056 250.70996 407.79093 256.14454 408.66993 C 259.3338 409.18576 264.11767 409.79384 266.7754 410.02149 C 273.83343 410.62607 279.51975 410.63575 286.85352 410.05274 C 297.66305 409.19341 303.33625 408.02352 308.57422 405.57813 C 320.41865 400.04844 385.63107 369.66362 401.35157 362.34962 C 416.29466 355.39731 419.15504 353.9025 420.07618 352.56641 C 421.69532 350.21796 421.51657 348.0068 419.54884 346.03907 C 417.2881 343.77833 415.77577 343.50915 412.76368 344.83399 C 408.49079 346.71338 408.87911 346.87167 402.81055 340.76758 C 399.75851 337.69767 396.90554 335.18555 396.47266 335.18555 C 396.03977 335.18555 394.0806 335.85954 392.1172 336.6836 C 378.41808 342.43328 365.28756 345.53301 347.23048 347.28126 C 318.61479 350.05179 316.26549 350.3836 309.41407 352.6211 C 296.71163 356.76936 287.42841 364.96614 279.58985 378.94923 L 277.27735 383.07423 L 274.98243 379.06251 C 266.80191 364.76724 257.30743 356.46855 244.5254 352.43751 C 238.18317 350.43736 231.89793 349.53368 211.92969 347.75587 C 199.76179 346.67255 189.04286 345.04695 181.54688 343.14844 C 175.94748 341.73028 166.86925 338.6787 162.88282 336.87501 C 161.28818 336.15352 159.50585 335.38039 158.92383 335.15626 C 158.78011 335.10091 158.63668 335.07141 158.47852 335.08008 z M 34.796876 351.35938 C 29.632007 355.27025 20.546788 352.35433 19.470704 363.38282 L 15.611328 358.50782 L 15.611328 420.67579 C 15.611328 459.21754 42.295846 455.36939 45.361329 454.47462 L 46.490235 458.49806 C 48.934817 468.35632 43.321795 459.40506 37.333985 460.72852 C 42.641232 481.56108 49.135594 474.88208 56.833986 482.81642 L 48.126954 450.84767 L 65.021486 434.22266 C 65.021486 434.22266 59.457679 435.87515 55.32422 435.76173 C 49.368881 435.59821 41.199191 440.58876 43.777345 448.56056 C 34.559931 451.88644 27.996002 448.71484 27.404297 439.60548 L 27.404297 381.03516 C 27.404297 378.31425 29.662709 379.28783 31.773438 375.22071 C 33.071503 372.7197 32.753907 368.38282 32.753907 368.38282 C 30.394948 370.55993 26.933368 370.96023 27.498047 375.33009 L 25.083985 372.32423 L 25.083985 440.16798 C 25.083985 440.16798 21.271485 438.09579 21.271485 421.38673 L 21.271485 395.9961 C 21.271485 380.00724 19.396024 384.15304 19.84961 375.91212 C 20.178958 369.92799 26.486248 365.5958 30.800782 361.28126 C 33.910407 358.17164 34.796876 351.35938 34.796876 351.35938 z M 509.67579 351.35938 C 509.67579 351.35938 510.56226 358.17164 513.67189 361.28126 C 517.98642 365.5958 524.29383 369.92994 524.62306 375.91407 C 525.07661 384.15499 523.20118 380.00724 523.20118 395.9961 L 523.20118 421.38868 C 523.20118 438.09774 519.38868 440.16798 519.38868 440.16798 L 519.38868 372.32423 L 516.97462 375.33009 C 517.53929 370.96024 514.07772 370.55993 511.71876 368.38282 C 511.71876 368.38282 511.40125 372.71971 512.69923 375.22071 C 514.80996 379.28784 517.06837 378.31427 517.06837 381.03516 L 517.06837 439.60548 C 516.47666 448.71488 509.91273 451.88644 500.69532 448.56056 C 503.27347 440.58876 495.10379 435.59834 489.14845 435.76173 C 485.01499 435.87523 479.45118 434.22266 479.45118 434.22266 L 496.34571 450.84767 L 487.63868 482.81642 C 495.33712 474.88208 501.83139 481.56108 507.13868 460.72852 C 501.15083 459.40506 495.53781 468.35632 497.98243 458.49806 L 499.11134 454.47462 C 502.17686 455.36939 528.86134 459.21754 528.86134 420.67579 L 528.86134 358.50782 L 525.00196 363.38282 C 523.92592 352.35433 514.84071 355.27025 509.67579 351.35938 z M 468.59571 428.39063 C 468.55885 428.39063 468.52324 428.39154 468.48634 428.39454 C 468.45394 428.39454 468.42138 428.39545 468.38868 428.39845 C 468.37638 428.40245 468.36387 428.40326 468.35157 428.40626 C 468.30207 428.41436 468.25339 428.42716 468.20509 428.43946 L 468.18165 428.44337 L 437.70118 436.60938 C 437.44387 436.67777 437.20791 436.8136 437.01954 437.00196 C 436.83119 437.19028 436.69771 437.42644 436.62891 437.6836 L 428.4629 468.16212 L 428.45899 468.18751 C 428.44269 468.23622 428.43379 468.28449 428.42579 468.33399 C 428.42179 468.34629 428.42098 468.3588 428.41798 468.3711 C 428.41698 468.403 428.41507 468.43606 428.41407 468.46876 C 428.41307 468.50561 428.41116 468.54123 428.41016 468.57813 C 428.41016 468.6461 428.41388 468.71406 428.42188 468.78126 C 428.43008 468.84554 428.44259 468.90851 428.45899 468.97071 L 428.45899 468.97267 L 428.45899 468.97462 L 428.46095 468.97657 C 428.46495 468.99737 428.47248 469.01867 428.48048 469.03907 C 428.49408 469.08417 428.51095 469.12808 428.52735 469.17188 C 428.53965 469.19488 428.55216 469.21984 428.56446 469.24024 C 428.58366 469.27704 428.6007 469.31077 428.6211 469.34767 C 428.6387 469.37307 428.65353 469.39924 428.66993 469.42384 C 428.69003 469.45534 428.71398 469.48693 428.73438 469.51563 C 428.75738 469.54313 428.78205 469.57111 428.80665 469.59571 C 428.82025 469.61291 428.83517 469.634 428.85157 469.6504 L 428.88868 469.68556 L 451.18165 491.97853 C 451.46829 492.26505 451.85332 492.42284 452.24806 492.42384 C 452.37991 492.42424 452.51196 492.408 452.64259 492.3711 L 483.11524 484.20704 L 483.11915 484.20704 L 483.12306 484.20509 L 483.14454 484.20118 C 483.16534 484.19718 483.18469 484.18965 483.20509 484.18165 C 483.2461 484.16775 483.28713 484.15508 483.32813 484.13868 L 483.33204 484.13868 C 483.38814 484.11488 483.4428 484.08535 483.4961 484.05665 C 483.53127 484.03575 483.56497 484.01484 483.59767 483.99024 C 483.62267 483.97264 483.64728 483.95586 483.67188 483.93946 C 483.72382 483.89977 483.77362 483.85686 483.82032 483.81056 C 483.86652 483.76387 483.90823 483.71462 483.94923 483.66212 C 483.96683 483.63832 483.98361 483.6125 484.00001 483.5879 C 484.02381 483.55473 484.04602 483.52314 484.06642 483.48634 C 484.09682 483.43351 484.12385 483.37878 484.14845 483.32228 L 484.14845 483.31837 C 484.16645 483.27865 484.17912 483.23672 484.19142 483.19532 C 484.19952 483.17492 484.20295 483.15518 484.21095 483.13478 L 484.21485 483.11329 L 484.21681 483.10938 L 484.21681 483.10548 L 492.38087 452.63282 C 492.52025 452.11064 492.37033 451.55392 491.98829 451.17188 L 469.69727 428.87891 L 469.66017 428.84181 C 469.64287 428.82421 469.62188 428.81328 469.60548 428.79688 C 469.57968 428.77188 469.5541 428.74922 469.5254 428.72462 C 469.4954 428.70222 469.4663 428.68056 469.4336 428.66016 C 469.409 428.64256 469.38203 428.62774 469.35743 428.61134 C 469.32223 428.59214 469.28691 428.5711 469.25001 428.5547 C 469.22781 428.5425 469.20625 428.52989 469.18165 428.51759 C 469.13777 428.49999 469.09384 428.48301 469.04884 428.47071 C 469.02844 428.46261 469.00674 428.45918 468.98634 428.45118 L 468.98438 428.44923 L 468.98243 428.44923 L 468.98048 428.44923 C 468.91824 428.43273 468.85492 428.42012 468.79102 428.41212 C 468.72346 428.40282 468.6559 428.39969 468.5879 428.4004 L 468.59571 428.39063 z M 75.884767 428.4004 L 75.884767 428.40626 C 75.816793 428.40626 75.748802 428.41193 75.681642 428.41993 C 75.617353 428.42813 75.552476 428.44064 75.490236 428.45704 L 75.488283 428.45704 L 75.48633 428.45704 L 75.484376 428.45899 C 75.463486 428.46299 75.4443 428.47052 75.42383 428.47852 C 75.378778 428.49212 75.332874 428.509 75.289064 428.5254 C 75.266534 428.5376 75.243128 428.55021 75.222658 428.56251 C 75.185804 428.58171 75.150143 428.5968 75.113283 428.6172 C 75.087903 428.6348 75.063634 428.65158 75.039064 428.66798 C 75.007534 428.68798 74.973974 428.71203 74.945314 428.73243 C 74.917874 428.75543 74.891759 428.7801 74.867189 428.8047 C 74.849989 428.8183 74.828881 428.83322 74.812501 428.84962 L 74.779298 428.88673 L 52.486329 451.1797 C 52.102243 451.56188 51.956478 452.11845 52.095704 452.64063 L 60.259767 483.11329 C 60.259726 483.11429 60.259726 483.11622 60.259767 483.1172 L 60.26172 483.1211 L 60.265626 483.14259 C 60.273816 483.16339 60.276957 483.18273 60.285157 483.20313 C 60.299077 483.24405 60.311746 483.28323 60.328126 483.32423 L 60.328126 483.32813 C 60.351866 483.38423 60.381497 483.44085 60.410157 483.49415 C 60.431047 483.52932 60.451994 483.56301 60.476564 483.59571 C 60.494174 483.62071 60.510965 483.64533 60.527345 483.66993 C 60.567062 483.72187 60.609981 483.77167 60.656251 483.81837 C 60.702933 483.86456 60.752279 483.90628 60.804689 483.94728 C 60.828449 483.96488 60.854337 483.98166 60.878907 483.99806 C 60.912078 484.02186 60.94361 484.04406 60.98047 484.06446 C 61.033293 484.09476 61.088022 484.12189 61.144532 484.14649 L 61.148439 484.14649 C 61.188157 484.16039 61.230536 484.17716 61.271486 484.18946 C 61.291956 484.19756 61.311562 484.20099 61.332032 484.20899 L 61.353517 484.2129 L 61.357423 484.21485 L 61.361329 484.21485 L 91.832033 492.37892 C 91.962659 492.41462 92.095119 492.43206 92.226564 492.43165 C 92.621388 492.43067 93.008285 492.27298 93.294924 491.98634 L 115.58789 469.69337 L 115.62305 469.65626 C 115.64065 469.63906 115.65352 469.61992 115.66992 469.60352 C 115.69492 469.57772 115.71759 469.55215 115.74219 469.52345 C 115.76459 469.49355 115.78624 469.46435 115.80664 469.43165 C 115.82434 469.40705 115.83907 469.38008 115.85547 469.35548 C 115.87467 469.32028 115.89571 469.28496 115.91211 469.24806 C 115.92441 469.22586 115.93301 469.2043 115.94531 469.1797 C 115.96291 469.1359 115.97989 469.09188 115.99219 469.04688 C 116.00039 469.02648 116.00372 469.00478 116.01172 468.98438 L 116.01367 468.98243 L 116.01367 468.98048 L 116.01367 468.97852 C 116.03427 468.91628 116.04669 468.85287 116.05469 468.78907 C 116.06399 468.7215 116.0671 468.65395 116.06641 468.58595 C 116.06641 468.5491 116.0655 468.51347 116.0625 468.47657 C 116.0625 468.44407 116.0616 468.41162 116.0586 468.37892 C 116.0546 468.36662 116.05378 468.35411 116.05078 468.34181 C 116.04668 468.2923 116.03379 468.24362 116.02149 468.19532 L 116.01758 468.16993 L 107.85156 437.69141 C 107.78277 437.43404 107.64929 437.20008 107.46094 437.01173 C 107.27261 436.82336 107.03645 436.68795 106.7793 436.61915 L 76.29883 428.45313 L 76.275392 428.44923 C 76.227067 428.43293 76.178448 428.42402 76.128908 428.41602 C 76.116618 428.41202 76.104088 428.41121 76.091798 428.40821 C 76.059858 428.40721 76.026902 428.40529 75.994142 428.40431 C 75.9577 428.40331 75.921627 428.40138 75.884767 428.4004 z M 76.556642 432.42579 L 93.875002 446.66017 L 68.679689 453.41212 L 76.556642 432.42579 z M 467.91602 432.42579 L 475.79298 453.41212 L 450.59767 446.66017 L 467.91602 432.42579 z M 82.250002 433.18556 L 103.46094 438.86915 L 97.011721 445.32032 L 82.250002 433.18556 z M 462.22267 433.18556 L 447.46095 445.32032 L 441.01173 438.86915 L 462.22267 433.18556 z M 72.005861 435.9336 L 65.291017 453.82032 L 56.48047 451.45704 L 72.005861 435.9336 z M 472.46681 435.9336 L 487.9922 451.45704 L 479.18165 453.82032 L 472.46681 435.9336 z M 105.60352 441.01173 L 111.28711 462.22071 L 99.152346 447.46095 L 105.60352 441.01173 z M 438.86915 441.01173 L 445.32032 447.46095 L 433.18556 462.22071 L 438.86915 441.01173 z M 94.968752 449.50392 L 88.050783 475.32032 L 78.601564 465.8711 L 69.152345 456.42188 L 94.968752 449.50392 z M 449.50392 449.50392 L 475.32032 456.42188 L 465.8711 465.8711 L 456.42188 475.32032 L 449.50392 449.50392 z M 97.812502 450.59767 L 112.04688 467.91602 L 91.060549 475.79298 L 97.812502 450.59767 z M 446.66017 450.59767 L 453.41212 475.79298 L 432.42579 467.91602 L 446.66017 450.59767 z M 55.697267 454.38282 L 64.507814 456.74415 L 61.380861 475.59376 L 55.697267 454.38282 z M 488.7754 454.38282 L 483.09181 475.59376 L 479.96485 456.74415 L 488.7754 454.38282 z M 67.238283 458.79102 L 76.460939 468.01173 L 85.681642 477.23438 L 63.568361 480.90431 L 67.238283 458.79102 z M 477.23438 458.79102 L 480.90431 480.90431 L 458.79102 477.23438 L 468.01173 468.01173 L 477.23438 458.79102 z M 108.53906 472.46681 L 93.015627 487.9922 L 90.652346 479.18165 L 108.53906 472.46681 z M 435.9336 472.46681 L 453.82032 479.18165 L 451.45899 487.9922 L 435.9336 472.46681 z M 110.25 479.45118 L 93.625002 496.34571 L 61.656251 487.63868 C 69.590587 495.33712 62.911534 501.83139 83.744142 507.13868 C 85.067554 501.15083 76.116352 495.53785 85.974611 497.98243 L 89.998049 499.11134 C 89.103285 502.17686 85.255134 528.85939 123.79688 528.85939 L 185.96485 528.85939 L 181.08985 525.00196 C 192.11833 523.92592 189.20247 514.84071 193.11329 509.67579 C 193.11329 509.67579 186.30104 510.56226 183.19141 513.67189 C 178.87688 517.98642 174.54467 524.29384 168.56055 524.62306 C 160.31964 525.07661 164.46543 523.20118 148.47657 523.20118 L 123.08594 523.20118 C 106.37688 523.20118 104.30469 519.38673 104.30469 519.38673 L 172.14844 519.38673 L 169.14258 516.97462 C 173.51239 517.53929 173.91279 514.07772 176.08985 511.71876 C 176.08985 511.71876 171.75297 511.40124 169.25196 512.69923 C 165.18484 514.80996 166.1584 517.06837 163.4375 517.06837 L 104.86719 517.06837 C 95.757801 516.47665 92.586278 509.91273 95.912111 500.69532 C 103.88392 503.27347 108.87432 495.10379 108.71094 489.14845 C 108.59742 485.01499 110.25 479.45118 110.25 479.45118 z M 434.22266 479.45118 C 434.22266 479.45118 435.87515 485.01499 435.76173 489.14845 C 435.59822 495.10379 440.58876 503.27347 448.56056 500.69532 C 451.88644 509.91273 448.71484 516.47665 439.60548 517.06837 L 381.03516 517.06837 C 378.31426 517.06837 379.28783 514.80996 375.22071 512.69923 C 372.71971 511.40116 368.38282 511.71876 368.38282 511.71876 C 370.55993 514.07772 370.96023 517.53929 375.33009 516.97462 L 372.32423 519.38673 L 440.16798 519.38673 C 440.16798 519.38673 438.09579 523.20118 421.38673 523.20118 L 395.9961 523.20118 C 380.00724 523.20118 384.15304 525.07661 375.91212 524.62306 C 369.92799 524.29368 365.5958 517.98642 361.28126 513.67189 C 358.17164 510.56226 351.35938 509.67579 351.35938 509.67579 C 355.27025 514.84071 352.35434 523.92592 363.38282 525.00196 L 358.50782 528.85939 L 420.67579 528.85939 C 459.21754 528.85939 455.36939 502.17686 454.47462 499.11134 L 458.49806 497.98243 C 468.35632 495.53785 459.40506 501.15083 460.72852 507.13868 C 481.56108 501.83139 474.88208 495.33712 482.81642 487.63868 L 450.84767 496.34571 L 434.22266 479.45118 z M 87.728517 479.96485 L 90.089846 488.7754 L 68.878908 483.09181 L 87.728517 479.96485 z M 456.74415 479.96485 L 475.59376 483.09181 L 454.38282 488.7754 L 456.74415 479.96485 z " /></svg>
